M48
;GenerationSoftware,Autodesk,EAGLE,8.7.1*%
;CreationDate,2023-12-03T01:28:00Z*%
FMAT,2
ICI,OFF
METRIC,TZ,000.000
T5C0.350
T4C0.800
T3C0.813
T2C1.000
T1C1.016
%
G90
M71
T1
X-15875Y18098
X-18733Y5080
X-28257Y23812
X27328Y-39727
X26254Y-42029
X25181Y-44331
X17145Y-7937
X24130Y-7937
X24107Y-46633
X19050Y-38735
X-17780Y-5715
X-28257Y21273
X-28257Y18733
X-28257Y16192
X-28257Y13652
X-28257Y11112
X-26352Y-5715
T2
X-23820Y16510
X-23820Y6350
X-23820Y3810
X27940Y12510
X27940Y20510
X-23820Y21590
X-23820Y19050
X-23820Y13970
X-23820Y11430
X-23820Y8890
T3
X22225Y25400
X24765Y25400
X22225Y3810
X24765Y3810
T4
X27940Y18510
X27940Y16510
X27940Y14510
T5
X25717Y11112
X-6985Y26035
X6985Y27305
X20003Y27622
X16192Y11112
X23812Y8255
X-21907Y-24447
X-28257Y-14287
X-11747Y-30162
X-16510Y-30480
X-19685Y-9843
X-16510Y-36830
X-28257Y-25400
X-21273Y-41910
X-4763Y-47625
X4763Y-47625
X23177Y-49530
X-23177Y-49530
X-29210Y-38100
X29210Y-38100
X29210Y-31115
X0Y-53340
X20320Y-32067
X22860Y-32067
X13652Y-14605
X-7302Y-25400
X-26035Y8890
X-26987Y26987
X14922Y20320
X25717Y14287
X-6667Y-9525
X-16510Y-15240
X25082Y27622
X25400Y-3175
X18098Y8255
X-4763Y-41593
X4763Y-41593
X-20955Y-34608
X-12065Y-34608
X-16510Y-28257
X-16510Y-22542
X-19050Y-25400
X-13970Y-25400
X-2540Y-23177
X4763Y-23177
X9843Y-32702
X16510Y-11430
X16510Y-17780
X1270Y-5398
X-1905Y-37783
X-4445Y10795
X5715Y8255
X13970Y5398
X-14605Y-18415
X20003Y16192
X-23177Y-12382
X-21273Y-7302
X-29210Y-2540
X-17463Y19685
X-12065Y9525
X-12700Y23812
X-20320Y27622
X19368Y-14605
X14287Y-27305
X13652Y-35878
X13652Y-41593
X16510Y-38735
X25400Y-25400
X28257Y-28257
X29210Y-2540
X29210Y9525
X27940Y22860
X-5969Y23749
X-5969Y21971
X-5969Y22860
X-18733Y13017
X-18733Y11747
X20003Y11112
X-12446Y25908
X-12446Y27305
X22225Y13652
X-5715Y8573
X21590Y9843
X-13970Y9525
X-13335Y6667
X23177Y-12382
X21590Y-20955
X20003Y-26352
X13335Y-6985
X-6667Y-5715
X6985Y-635
X6985Y-8255
X-20320Y23495
X6985Y4445
X-13970Y11112
X-1587Y5715
X-12382Y3175
X-18733Y-14605
X12382Y-20955
X0Y16192
X0Y17145
X0Y12700
X0Y11747
X-12700Y22542
X-20320Y11747
X-20320Y13017
X-20320Y17463
X-16192Y27622
X-16192Y23495
X-17780Y10795
X-26035Y5080
X-21907Y3810
X-14922Y15875
X-17780Y-318
X-6032Y-32702
X-1905Y-32702
X2223Y-32702
X6350Y-32702
X-6032Y-37783
X2223Y-37783
X6667Y-37846
X17145Y-4128
X13970Y2857
X22860Y-3175
X25400Y-635
X25400Y-14605
X-6667Y635
X1270Y635
X-6667Y5715
X-4763Y7937
X6032Y5080
X5715Y11112
X4763Y-12382
M30