  0
SECTION
  2
HEADER
  9
$ACADVER
  1
AC1024
  9
$ACADMAINTVER
 70
     6
  9
$DWGCODEPAGE
  3
ANSI_1252
  9
$INSBASE
 10
0.0
 20
0.0
 30
0.0
  9
$EXTMIN
 10
1.000000000000000E+20
 20
1.000000000000000E+20
 30
1.000000000000000E+20
  9
$EXTMAX
 10
-1.000000000000000E+20
 20
-1.000000000000000E+20
 30
-1.000000000000000E+20
  9
$LIMMIN
 10
0.0
 20
0.0
  9
$LIMMAX
 10
12.0
 20
9.0
  9
$ORTHOMODE
 70
     0
  9
$REGENMODE
 70
     1
  9
$FILLMODE
 70
     1
  9
$QTEXTMODE
 70
     0
  9
$MIRRTEXT
 70
     1
  9
$LTSCALE
 40
1.0
  9
$ATTMODE
 70
     1
  9
$TEXTSIZE
 40
0.2
  9
$TRACEWID
 40
0.05
  9
$TEXTSTYLE
  7
Standard
  9
$CLAYER
  8
0
  9
$CELTYPE
  6
ByLayer
  9
$CECOLOR
 62
   256
  9
$CELTSCALE
 40
1.0
  9
$DISPSILH
 70
     0
  9
$DIMSCALE
 40
1.0
  9
$DIMASZ
 40
0.18
  9
$DIMEXO
 40
0.0625
  9
$DIMDLI
 40
0.38
  9
$DIMRND
 40
0.0
  9
$DIMDLE
 40
0.0
  9
$DIMEXE
 40
0.18
  9
$DIMTP
 40
0.0
  9
$DIMTM
 40
0.0
  9
$DIMTXT
 40
0.18
  9
$DIMCEN
 40
0.09
  9
$DIMTSZ
 40
0.0
  9
$DIMTOL
 70
     0
  9
$DIMLIM
 70
     0
  9
$DIMTIH
 70
     1
  9
$DIMTOH
 70
     1
  9
$DIMSE1
 70
     0
  9
$DIMSE2
 70
     0
  9
$DIMTAD
 70
     0
  9
$DIMZIN
 70
     0
  9
$DIMBLK
  1

  9
$DIMASO
 70
     1
  9
$DIMSHO
 70
     1
  9
$DIMPOST
  1

  9
$DIMAPOST
  1

  9
$DIMALT
 70
     0
  9
$DIMALTD
 70
     2
  9
$DIMALTF
 40
25.4
  9
$DIMLFAC
 40
1.0
  9
$DIMTOFL
 70
     0
  9
$DIMTVP
 40
0.0
  9
$DIMTIX
 70
     0
  9
$DIMSOXD
 70
     0
  9
$DIMSAH
 70
     0
  9
$DIMBLK1
  1

  9
$DIMBLK2
  1

  9
$DIMSTYLE
  2
Standard
  9
$DIMCLRD
 70
     0
  9
$DIMCLRE
 70
     0
  9
$DIMCLRT
 70
     0
  9
$DIMTFAC
 40
1.0
  9
$DIMGAP
 40
0.09
  9
$DIMJUST
 70
     0
  9
$DIMSD1
 70
     0
  9
$DIMSD2
 70
     0
  9
$DIMTOLJ
 70
     1
  9
$DIMTZIN
 70
     0
  9
$DIMALTZ
 70
     0
  9
$DIMALTTZ
 70
     0
  9
$DIMUPT
 70
     0
  9
$DIMDEC
 70
     4
  9
$DIMTDEC
 70
     4
  9
$DIMALTU
 70
     2
  9
$DIMALTTD
 70
     2
  9
$DIMTXSTY
  7
Standard
  9
$DIMAUNIT
 70
     0
  9
$DIMADEC
 70
     0
  9
$DIMALTRND
 40
0.0
  9
$DIMAZIN
 70
     0
  9
$DIMDSEP
 70
    46
  9
$DIMATFIT
 70
     3
  9
$DIMFRAC
 70
     0
  9
$DIMLDRBLK
  1

  9
$DIMLUNIT
 70
     2
  9
$DIMLWD
 70
    -2
  9
$DIMLWE
 70
    -2
  9
$DIMTMOVE
 70
     0
  9
$DIMFXL
 40
1.0
  9
$DIMFXLON
 70
     0
  9
$DIMJOGANG
 40
0.7853981633974483
  9
$DIMTFILL
 70
     0
  9
$DIMTFILLCLR
 70
     0
  9
$DIMARCSYM
 70
     0
  9
$DIMLTYPE
  6

  9
$DIMLTEX1
  6

  9
$DIMLTEX2
  6

  9
$DIMTXTDIRECTION
 70
     0
  9
$LUNITS
 70
     2
  9
$LUPREC
 70
     4
  9
$SKETCHINC
 40
0.1
  9
$FILLETRAD
 40
0.5
  9
$AUNITS
 70
     0
  9
$AUPREC
 70
     0
  9
$MENU
  1
.
  9
$ELEVATION
 40
0.0
  9
$PELEVATION
 40
0.0
  9
$THICKNESS
 40
0.0
  9
$LIMCHECK
 70
     0
  9
$CHAMFERA
 40
0.5
  9
$CHAMFERB
 40
0.5
  9
$CHAMFERC
 40
1.0
  9
$CHAMFERD
 40
0.0
  9
$SKPOLY
 70
     0
  9
$TDCREATE
 40
2460169.691107164
  9
$TDUCREATE
 40
2460169.899440498
  9
$TDUPDATE
 40
2460169.691107373
  9
$TDUUPDATE
 40
2460169.899440706
  9
$TDINDWG
 40
0.0000000116
  9
$TDUSRTIMER
 40
0.0000000116
  9
$USRTIMER
 70
     1
  9
$ANGBASE
 50
0.0
  9
$ANGDIR
 70
     0
  9
$PDMODE
 70
     0
  9
$PDSIZE
 40
0.0
  9
$PLINEWID
 40
0.0
  9
$SPLFRAME
 70
     0
  9
$SPLINETYPE
 70
     6
  9
$SPLINESEGS
 70
     8
  9
$HANDSEED
  5
66
  9
$SURFTAB1
 70
     6
  9
$SURFTAB2
 70
     6
  9
$SURFTYPE
 70
     6
  9
$SURFU
 70
     6
  9
$SURFV
 70
     6
  9
$UCSBASE
  2

  9
$UCSNAME
  2

  9
$UCSORG
 10
0.0
 20
0.0
 30
0.0
  9
$UCSXDIR
 10
1.0
 20
0.0
 30
0.0
  9
$UCSYDIR
 10
0.0
 20
1.0
 30
0.0
  9
$UCSORTHOREF
  2

  9
$UCSORTHOVIEW
 70
     0
  9
$UCSORGTOP
 10
0.0
 20
0.0
 30
0.0
  9
$UCSORGBOTTOM
 10
0.0
 20
0.0
 30
0.0
  9
$UCSORGLEFT
 10
0.0
 20
0.0
 30
0.0
  9
$UCSORGRIGHT
 10
0.0
 20
0.0
 30
0.0
  9
$UCSORGFRONT
 10
0.0
 20
0.0
 30
0.0
  9
$UCSORGBACK
 10
0.0
 20
0.0
 30
0.0
  9
$PUCSBASE
  2

  9
$PUCSNAME
  2

  9
$PUCSORG
 10
0.0
 20
0.0
 30
0.0
  9
$PUCSXDIR
 10
1.0
 20
0.0
 30
0.0
  9
$PUCSYDIR
 10
0.0
 20
1.0
 30
0.0
  9
$PUCSORTHOREF
  2

  9
$PUCSORTHOVIEW
 70
     0
  9
$PUCSORGTOP
 10
0.0
 20
0.0
 30
0.0
  9
$PUCSORGBOTTOM
 10
0.0
 20
0.0
 30
0.0
  9
$PUCSORGLEFT
 10
0.0
 20
0.0
 30
0.0
  9
$PUCSORGRIGHT
 10
0.0
 20
0.0
 30
0.0
  9
$PUCSORGFRONT
 10
0.0
 20
0.0
 30
0.0
  9
$PUCSORGBACK
 10
0.0
 20
0.0
 30
0.0
  9
$USERI1
 70
     0
  9
$USERI2
 70
     0
  9
$USERI3
 70
     0
  9
$USERI4
 70
     0
  9
$USERI5
 70
     0
  9
$USERR1
 40
0.0
  9
$USERR2
 40
0.0
  9
$USERR3
 40
0.0
  9
$USERR4
 40
0.0
  9
$USERR5
 40
0.0
  9
$WORLDVIEW
 70
     1
  9
$SHADEDGE
 70
     3
  9
$SHADEDIF
 70
    70
  9
$TILEMODE
 70
     1
  9
$MAXACTVP
 70
    64
  9
$PINSBASE
 10
0.0
 20
0.0
 30
0.0
  9
$PLIMCHECK
 70
     0
  9
$PEXTMIN
 10
1.000000000000000E+20
 20
1.000000000000000E+20
 30
1.000000000000000E+20
  9
$PEXTMAX
 10
-1.000000000000000E+20
 20
-1.000000000000000E+20
 30
-1.000000000000000E+20
  9
$PLIMMIN
 10
0.0
 20
0.0
  9
$PLIMMAX
 10
12.0
 20
9.0
  9
$UNITMODE
 70
     0
  9
$VISRETAIN
 70
     1
  9
$PLINEGEN
 70
     0
  9
$PSLTSCALE
 70
     1
  9
$TREEDEPTH
 70
  3020
  9
$CMLSTYLE
  2
Standard
  9
$CMLJUST
 70
     0
  9
$CMLSCALE
 40
1.0
  9
$PROXYGRAPHICS
 70
     1
  9
$MEASUREMENT
 70
     0
  9
$CELWEIGHT
370
    -1
  9
$ENDCAPS
280
     0
  9
$JOINSTYLE
280
     0
  9
$LWDISPLAY
290
     1
  9
$INSUNITS
 70
     1
  9
$HYPERLINKBASE
  1

  9
$STYLESHEET
  1

  9
$XEDIT
290
     1
  9
$CEPSNTYPE
380
     0
  9
$PSTYLEMODE
290
     1
  9
$FINGERPRINTGUID
  2
{6BEC9CAD-36F5-4557-83B0-3A428B54F1A7}
  9
$VERSIONGUID
  2
{FAEB1C32-E019-11D5-929B-00C0DF256EC4}
  9
$EXTNAMES
290
     1
  9
$PSVPSCALE
 40
0.0
  9
$OLESTARTUP
290
     0
  9
$SORTENTS
280
   127
  9
$INDEXCTL
280
     0
  9
$HIDETEXT
280
     1
  9
$XCLIPFRAME
280
     2
  9
$HALOGAP
280
     0
  9
$OBSCOLOR
 70
   257
  9
$OBSLTYPE
280
     0
  9
$INTERSECTIONDISPLAY
280
     0
  9
$INTERSECTIONCOLOR
 70
   257
  9
$DIMASSOC
280
     2
  9
$PROJECTNAME
  1

  9
$CAMERADISPLAY
290
     0
  9
$LENSLENGTH
 40
50.0
  9
$CAMERAHEIGHT
 40
0.0
  9
$STEPSPERSEC
 40
2.0
  9
$STEPSIZE
 40
6.0
  9
$3DDWFPREC
 40
2.0
  9
$PSOLWIDTH
 40
0.25
  9
$PSOLHEIGHT
 40
4.0
  9
$LOFTANG1
 40
1.570796326794897
  9
$LOFTANG2
 40
1.570796326794897
  9
$LOFTMAG1
 40
0.0
  9
$LOFTMAG2
 40
0.0
  9
$LOFTPARAM
 70
     7
  9
$LOFTNORMALS
280
     1
  9
$LATITUDE
 40
37.795
  9
$LONGITUDE
 40
-122.394
  9
$NORTHDIRECTION
 40
0.0
  9
$TIMEZONE
 70
 -8000
  9
$LIGHTGLYPHDISPLAY
280
     1
  9
$TILEMODELIGHTSYNCH
280
     1
  9
$CMATERIAL
347
3C
  9
$SOLIDHIST
280
     1
  9
$SHOWHIST
280
     1
  9
$DWFFRAME
280
     2
  9
$DGNFRAME
280
     2
  9
$REALWORLDSCALE
290
     1
  9
$INTERFERECOLOR
 62
   256
  9
$CSHADOW
280
     0
  9
$SHADOWPLANELOCATION
 40
0.0
  0
ENDSEC
  0
SECTION
  2
CLASSES
  0
CLASS
  1
ACDBDICTIONARYWDFLT
  2
AcDbDictionaryWithDefault
  3
ObjectDBX Classes
 90
        0
 91
        4
280
     0
281
     0
  0
CLASS
  1
VISUALSTYLE
  2
AcDbVisualStyle
  3
ObjectDBX Classes
 90
     4095
 91
        4
280
     0
281
     0
  0
CLASS
  1
MATERIAL
  2
AcDbMaterial
  3
ObjectDBX Classes
 90
     1153
 91
        4
280
     0
281
     0
  0
CLASS
  1
SUN
  2
AcDbSun
  3
SCENEOE
 90
     1024
 91
        4
280
     0
281
     0
  0
ENDSEC
  0
SECTION
  2
TABLES
  0
TABLE
  2
VPORT
  5
8
330
0
100
AcDbSymbolTable
 70
     1
  0
VPORT
  5
29
330
8
100
AcDbSymbolTableRecord
100
AcDbViewportTableRecord
  2
*Active
 70
     0
 10
0.0
 20
0.0
 11
1.0
 21
1.0
 12
0.0
 22
0.0
 13
0.0
 23
0.0
 14
0.5
 24
0.5
 15
0.5
 25
0.5
 16
0.0
 26
0.0
 36
1.0
 17
4.25
 27
-5.5
 37
0.0
 40
11.0
 41
0.7727272727272727
 42
50.0
 43
0.0
 44
0.0
 50
0.0
 51
0.0
 71
     0
 72
   100
 73
     1
 74
     3
 75
     0
 76
     0
 77
     0
 78
     0
281
     0
 65
     1
110
0.0
120
0.0
130
0.0
111
1.0
121
0.0
131
0.0
112
0.0
122
1.0
132
0.0
 79
     0
146
0.0
 60
     3
 61
     5
292
     1
282
     1
141
0.0
142
0.0
 63
   250
361
3F
  0
ENDTAB
  0
TABLE
  2
LTYPE
  5
5
330
0
100
AcDbSymbolTable
 70
     1
  0
LTYPE
  5
14
330
5
100
AcDbSymbolTableRecord
100
AcDbLinetypeTableRecord
  2
ByBlock
 70
     0
  3

 72
    65
 73
     0
 40
0.0
  0
LTYPE
  5
15
330
5
100
AcDbSymbolTableRecord
100
AcDbLinetypeTableRecord
  2
ByLayer
 70
     0
  3

 72
    65
 73
     0
 40
0.0
  0
LTYPE
  5
16
330
5
100
AcDbSymbolTableRecord
100
AcDbLinetypeTableRecord
  2
Continuous
 70
     0
  3
Solid line
 72
    65
 73
     0
 40
0.0
  0
ENDTAB
  0
TABLE
  2
LAYER
  5
2
330
0
100
AcDbSymbolTable
 70
     4
  0
LAYER
  5
10
330
2
100
AcDbSymbolTableRecord
100
AcDbLayerTableRecord
  2
0
 70
     0
 62
     7
  6
Continuous
370
    -3
390
F
347
3E
  0
LAYER
  5
40
330
2
100
AcDbSymbolTableRecord
100
AcDbLayerTableRecord
  2
Back
 70
     1
 62
     7
  6
Continuous
370
    -3
390
F
347
3E
  0
LAYER
  5
41
330
2
100
AcDbSymbolTableRecord
100
AcDbLayerTableRecord
  2
Front
 70
     1
 62
     7
  6
Continuous
370
    -3
390
F
347
3E
  0
LAYER
  5
42
330
2
100
AcDbSymbolTableRecord
100
AcDbLayerTableRecord
  2
Layer 3
 70
     0
 62
     7
  6
Continuous
370
    -3
390
F
347
3E
  0
ENDTAB
  0
TABLE
  2
STYLE
  5
3
330
0
100
AcDbSymbolTable
 70
     1
  0
STYLE
  5
11
330
3
100
AcDbSymbolTableRecord
100
AcDbTextStyleTableRecord
  2
Standard
 70
     0
 40
0.0
 41
1.0
 50
0.0
 71
     0
 42
0.2
  3
txt
  4

  0
ENDTAB
  0
TABLE
  2
VIEW
  5
6
330
0
100
AcDbSymbolTable
 70
     0
  0
ENDTAB
  0
TABLE
  2
UCS
  5
7
330
0
100
AcDbSymbolTable
 70
     0
  0
ENDTAB
  0
TABLE
  2
APPID
  5
9
330
0
100
AcDbSymbolTable
 70
     1
  0
APPID
  5
12
330
9
100
AcDbSymbolTableRecord
100
AcDbRegAppTableRecord
  2
ACAD
 70
     0
  0
ENDTAB
  0
TABLE
  2
DIMSTYLE
  5
A
330
0
100
AcDbSymbolTable
 70
     1
100
AcDbDimStyleTable
  0
DIMSTYLE
105
27
330
A
100
AcDbSymbolTableRecord
100
AcDbDimStyleTableRecord
  2
Standard
 70
     0
178
     0
340
11
  0
ENDTAB
  0
TABLE
  2
BLOCK_RECORD
  5
1
330
0
100
AcDbSymbolTable
 70
     2
  0
BLOCK_RECORD
  5
1F
330
1
100
AcDbSymbolTableRecord
100
AcDbBlockTableRecord
  2
*Model_Space
340
22
 70
     0
280
     1
281
     0
  0
BLOCK_RECORD
  5
1B
330
1
100
AcDbSymbolTableRecord
100
AcDbBlockTableRecord
  2
*Paper_Space
340
1E
 70
     0
280
     1
281
     0
  0
BLOCK_RECORD
  5
23
330
1
100
AcDbSymbolTableRecord
100
AcDbBlockTableRecord
  2
*Paper_Space0
340
26
 70
     0
280
     1
281
     0
  0
BLOCK_RECORD
  5
43
330
1
100
AcDbSymbolTableRecord
100
AcDbBlockTableRecord
  2
block 2
340
0
102
{BLKREFS
331
44
102
}
 70
     0
280
     1
281
     0
  0
ENDTAB
  0
ENDSEC
  0
SECTION
  2
BLOCKS
  0
BLOCK
  5
20
330
1F
100
AcDbEntity
  8
0
100
AcDbBlockBegin
  2
*Model_Space
 70
     0
 10
0.0
 20
0.0
 30
0.0
  3
*Model_Space
  1

  0
ENDBLK
  5
21
330
1F
100
AcDbEntity
  8
0
100
AcDbBlockEnd
  0
BLOCK
  5
1C
330
1B
100
AcDbEntity
 67
     1
  8
0
100
AcDbBlockBegin
  2
*Paper_Space
 70
     0
 10
0.0
 20
0.0
 30
0.0
  3
*Paper_Space
  1

  0
ENDBLK
  5
1D
330
1B
100
AcDbEntity
 67
     1
  8
0
100
AcDbBlockEnd
  0
BLOCK
  5
24
330
23
100
AcDbEntity
  8
0
100
AcDbBlockBegin
  2
*Paper_Space0
 70
     0
 10
0.0
 20
0.0
 30
0.0
  3
*Paper_Space0
  1

  0
ENDBLK
  5
25
330
23
100
AcDbEntity
  8
0
100
AcDbBlockEnd
  0
BLOCK
  5
45
330
43
100
AcDbEntity
  8
0
100
AcDbBlockBegin
  2
block 2
 70
     0
 10
0.0
 20
0.0
 30
0.0
  3
block 2
  1

  0
SPLINE
  5
47
330
43
100
AcDbEntity
  8
Layer 3
370
     0
100
AcDbSpline
210
0.0
220
0.0
230
1.0
 70
    11
 71
     3
 72
    98
 73
    94
 74
     0
 42
0.0000000001
 43
0.0000000001
 12
1.0
 22
0.0
 32
0.0
 13
1.0
 23
0.0
 33
0.0
 40
0.0
 40
0.0
 40
0.0
 40
0.0
 40
1.0
 40
1.0
 40
1.0
 40
2.0
 40
2.0
 40
2.0
 40
3.0
 40
3.0
 40
3.0
 40
4.0
 40
4.0
 40
4.0
 40
5.0
 40
5.0
 40
5.0
 40
6.0
 40
6.0
 40
6.0
 40
7.0
 40
7.0
 40
7.0
 40
8.0
 40
8.0
 40
8.0
 40
9.0
 40
9.0
 40
9.0
 40
10.0
 40
10.0
 40
10.0
 40
11.0
 40
11.0
 40
11.0
 40
12.0
 40
12.0
 40
12.0
 40
13.0
 40
13.0
 40
13.0
 40
14.0
 40
14.0
 40
14.0
 40
15.0
 40
15.0
 40
15.0
 40
16.0
 40
16.0
 40
16.0
 40
17.0
 40
17.0
 40
17.0
 40
18.0
 40
18.0
 40
18.0
 40
19.0
 40
19.0
 40
19.0
 40
20.0
 40
20.0
 40
20.0
 40
21.0
 40
21.0
 40
21.0
 40
22.0
 40
22.0
 40
22.0
 40
23.0
 40
23.0
 40
23.0
 40
24.0
 40
24.0
 40
24.0
 40
25.0
 40
25.0
 40
25.0
 40
26.0
 40
26.0
 40
26.0
 40
27.0
 40
27.0
 40
27.0
 40
28.0
 40
28.0
 40
28.0
 40
29.0
 40
29.0
 40
29.0
 40
30.0
 40
30.0
 40
30.0
 40
31.0
 40
31.0
 40
31.0
 40
31.0
 10
-0.97552490234375
 20
-1.169677734375
 30
0.0
 10
-0.9809366861979166
 20
-1.166266547309028
 30
0.0
 10
-0.9850870768229166
 20
-1.162027994791667
 30
0.0
 10
-0.98797607421875
 20
-1.156948513454861
 30
0.0
 10
-0.9908650716145833
 20
-1.151875813802083
 30
0.0
 10
-0.9923095703125
 20
-1.146260579427083
 30
0.0
 10
-0.9923095703125
 20
-1.140109592013889
 30
0.0
 10
-0.9923095703125
 20
-1.134474012586806
 30
0.0
 10
-0.9909600151909722
 20
-1.129102918836806
 30
0.0
 10
-0.9882541232638888
 20
-1.123989529079861
 30
0.0
 10
-0.9855482313368055
 20
-1.118876139322917
 30
0.0
 10
-0.98175048828125
 20
-1.114542643229167
 30
0.0
 10
-0.9768608940972222
 20
-1.110982259114583
 30
0.0
 10
-0.9721883138020833
 20
-1.107652452256944
 30
0.0
 10
-0.9663560655381944
 20
-1.105299207899306
 30
0.0
 10
-0.9593505859375
 20
-1.103922526041667
 30
0.0
 10
-0.9523518880208333
 20
-1.102552625868056
 30
0.0
 10
-0.9399956597222222
 20
-1.10186767578125
 30
0.0
 10
-0.9222819010416666
 20
-1.10186767578125
 30
0.0
 10
-0.9222819010416666
 20
-1.10186767578125
 30
0.0
 10
-0.8851521809895833
 20
-1.10186767578125
 30
0.0
 10
-0.8851521809895833
 20
-1.10186767578125
 30
0.0
 10
-0.8851521809895833
 20
-1.10186767578125
 30
0.0
 10
-0.888821072048611
 20
-1.125325520833333
 30
0.0
 10
-0.888821072048611
 20
-1.125325520833333
 30
0.0
 10
-0.888821072048611
 20
-1.125325520833333
 30
0.0
 10
-0.9047173394097222
 20
-1.125101725260417
 30
0.0
 10
-0.9047173394097222
 20
-1.125101725260417
 30
0.0
 10
-0.9036051432291666
 20
-1.128214518229167
 30
0.0
 10
-0.9027913411458333
 20
-1.131008572048611
 30
0.0
 10
-0.9022691514756944
 20
-1.133490668402778
 30
0.0
 10
-0.9017537434895833
 20
-1.135979546440972
 30
0.0
 10
-0.9014960394965277
 20
-1.138258192274306
 30
0.0
 10
-0.9014960394965277
 20
-1.140333387586806
 30
0.0
 10
-0.9014960394965277
 20
-1.151448567708333
 30
0.0
 10
-0.9057345920138888
 20
-1.160637749565972
 30
0.0
 10
-0.9142184787326388
 20
-1.167900933159722
 30
0.0
 10
-0.9227091471354166
 20
-1.175164116753472
 30
0.0
 10
-0.93365478515625
 20
-1.178792317708333
 30
0.0
 10
-0.9470689561631944
 20
-1.178792317708333
 30
0.0
 10
-0.9475165473090277
 20
-1.178792317708333
 30
0.0
 10
-0.9486083984375
 20
-1.178751627604167
 30
0.0
 10
-0.9503512912326388
 20
-1.178677029079861
 30
0.0
 10
-0.95208740234375
 20
-1.178609212239583
 30
0.0
 10
-0.9536675347222222
 20
-1.178568522135417
 30
0.0
 10
-0.9550713433159722
 20
-1.178568522135417
 30
0.0
 10
-0.9582587348090277
 20
-1.178568522135417
 30
0.0
 10
-0.9607272677951388
 20
-1.179090711805556
 30
0.0
 10
-0.96246337890625
 20
-1.180128309461806
 30
0.0
 10
-0.9642062717013888
 20
-1.181165907118056
 30
0.0
 10
-0.9650743272569444
 20
-1.182610405815972
 30
0.0
 10
-0.9650743272569444
 20
-1.184461805555556
 30
0.0
 10
-0.9650743272569444
 20
-1.187425401475694
 30
0.0
 10
-0.958706325954861
 20
-1.189948187934028
 30
0.0
 10
-0.9459567599826388
 20
-1.1920166015625
 30
0.0
 10
-0.9426201714409722
 20
-1.192538791232639
 30
0.0
 10
-0.9399549696180555
 20
-1.192986382378472
 30
0.0
 10
-0.937954372829861
 20
-1.193352593315972
 30
0.0
 10
-0.9260999891493055
 20
-1.195502387152778
 30
0.0
 10
-0.9170939127604166
 20
-1.199320475260417
 30
0.0
 10
-0.9109429253472222
 20
-1.204800075954861
 30
0.0
 10
-0.9047919379340277
 20
-1.210286458333333
 30
0.0
 10
-0.9017130533854166
 20
-1.217176649305556
 30
0.0
 10
-0.9017130533854166
 20
-1.225477430555556
 30
0.0
 10
-0.9017130533854166
 20
-1.236592610677083
 30
0.0
 10
-0.906460232204861
 20
-1.245096842447917
 30
0.0
 10
-0.9159410264756944
 20
-1.250990125868056
 30
0.0
 10
-0.9254286024305555
 20
-1.256883409288194
 30
0.0
 10
-0.9390665690104166
 20
-1.25982666015625
 30
0.0
 10
-0.95684814453125
 20
-1.25982666015625
 30
0.0
 10
-0.973232693142361
 20
-1.25982666015625
 30
0.0
 10
-0.9859415690104166
 20
-1.257568359375
 30
0.0
 10
-0.9949815538194444
 20
-1.253044976128472
 30
0.0
 10
-1.004021538628472
 20
-1.248521592881944
 30
0.0
 10
-1.008538140190972
 20
-1.242228190104167
 30
0.0
 10
-1.008538140190972
 20
-1.234151204427083
 30
0.0
 10
-1.008538140190972
 20
-1.228590223524306
 30
0.0
 10
-1.006259494357639
 20
-1.223585340711806
 30
0.0
 10
-1.001702202690972
 20
-1.219143337673611
 30
0.0
 10
-0.9971449110243055
 20
-1.214694552951389
 30
0.0
 10
-0.99090576171875
 20
-1.211398654513889
 30
0.0
 10
-0.98297119140625
 20
-1.209248860677083
 30
0.0
 10
-0.9875691731770833
 20
-1.206509060329861
 30
0.0
 10
-0.9909193250868055
 20
-1.203633626302083
 30
0.0
 10
-0.9930352105034722
 20
-1.200636121961806
 30
0.0
 10
-0.995144314236111
 20
-1.1976318359375
 30
0.0
 10
-0.9962022569444444
 20
-1.194390190972222
 30
0.0
 10
-0.9962022569444444
 20
-1.190911187065972
 30
0.0
 10
-0.9962022569444444
 20
-1.185723198784722
 30
0.0
 10
-0.994350857204861
 20
-1.181220160590278
 30
0.0
 10
-0.9906412760416666
 20
-1.177402072482639
 30
0.0
 10
-0.9869384765625
 20
-1.173583984375
 30
0.0
 10
-0.981899685329861
 20
-1.171006944444444
 30
0.0
 10
-0.97552490234375
 20
-1.169677734375
 30
0.0
  0
SPLINE
  5
48
330
43
100
AcDbEntity
  8
Layer 3
370
     0
100
AcDbSpline
210
0.0
220
0.0
230
1.0
 70
    11
 71
     3
 72
    29
 73
    25
 74
     0
 42
0.0000000001
 43
0.0000000001
 12
1.0
 22
0.0
 32
0.0
 13
1.0
 23
0.0
 33
0.0
 40
0.0
 40
0.0
 40
0.0
 40
0.0
 40
1.0
 40
1.0
 40
1.0
 40
2.0
 40
2.0
 40
2.0
 40
3.0
 40
3.0
 40
3.0
 40
4.0
 40
4.0
 40
4.0
 40
5.0
 40
5.0
 40
5.0
 40
6.0
 40
6.0
 40
6.0
 40
7.0
 40
7.0
 40
7.0
 40
8.0
 40
8.0
 40
8.0
 40
8.0
 10
-0.9594048394097222
 20
-1.217251247829861
 30
0.0
 10
-0.9656304253472222
 20
-1.218587239583333
 30
0.0
 10
-0.970486111111111
 20
-1.220309787326389
 30
0.0
 10
-0.9739718967013888
 20
-1.222418891059028
 30
0.0
 10
-0.9774509006076388
 20
-1.224534776475694
 30
0.0
 10
-0.9791937934027777
 20
-1.226847330729167
 30
0.0
 10
-0.9791937934027777
 20
-1.2293701171875
 30
0.0
 10
-0.9791937934027777
 20
-1.232557508680556
 30
0.0
 10
-0.97723388671875
 20
-1.2349853515625
 30
0.0
 10
-0.9733005099826388
 20
-1.236646864149306
 30
0.0
 10
-0.9693739149305555
 20
-1.238315158420139
 30
0.0
 10
-0.9635959201388888
 20
-1.239149305555556
 30
0.0
 10
-0.955959743923611
 20
-1.239149305555556
 30
0.0
 10
-0.9482557508680555
 20
-1.239149305555556
 30
0.0
 10
-0.942532009548611
 20
-1.238376193576389
 30
0.0
 10
-0.9387885199652777
 20
-1.23681640625
 30
0.0
 10
-0.9350450303819444
 20
-1.235263400607639
 30
0.0
 10
-0.9331732855902777
 20
-1.232923719618056
 30
0.0
 10
-0.9331732855902777
 20
-1.229810926649306
 30
0.0
 10
-0.9331732855902777
 20
-1.227145724826389
 30
0.0
 10
-0.9351603190104166
 20
-1.224846733940972
 30
0.0
 10
-0.9391208224826388
 20
-1.222920735677083
 30
0.0
 10
-0.9430881076388888
 20
-1.220994737413194
 30
0.0
 10
-0.9498494466145833
 20
-1.219102647569444
 30
0.0
 10
-0.9594048394097222
 20
-1.217251247829861
 30
0.0
  0
SPLINE
  5
49
330
43
100
AcDbEntity
  8
Layer 3
370
     0
100
AcDbSpline
210
0.0
220
0.0
230
1.0
 70
    11
 71
     3
 72
    29
 73
    25
 74
     0
 42
0.0000000001
 43
0.0000000001
 12
1.0
 22
0.0
 32
0.0
 13
1.0
 23
0.0
 33
0.0
 40
0.0
 40
0.0
 40
0.0
 40
0.0
 40
1.0
 40
1.0
 40
1.0
 40
2.0
 40
2.0
 40
2.0
 40
3.0
 40
3.0
 40
3.0
 40
4.0
 40
4.0
 40
4.0
 40
5.0
 40
5.0
 40
5.0
 40
6.0
 40
6.0
 40
6.0
 40
7.0
 40
7.0
 40
7.0
 40
8.0
 40
8.0
 40
8.0
 40
8.0
 10
-0.9449598524305555
 20
-1.122545030381944
 30
0.0
 10
-0.9498494466145833
 20
-1.122545030381944
 30
0.0
 10
-0.9539252387152777
 20
-1.12445068359375
 30
0.0
 10
-0.9571872287326388
 20
-1.128268771701389
 30
0.0
 10
-0.96044921875
 20
-1.132086859809028
 30
0.0
 10
-0.9620768229166666
 20
-1.136847601996528
 30
0.0
 10
-0.9620768229166666
 20
-1.142550998263889
 30
0.0
 10
-0.9620768229166666
 20
-1.147298177083333
 30
0.0
 10
-0.9608357747395833
 20
-1.151109483506944
 30
0.0
 10
-0.9583536783854166
 20
-1.154005262586806
 30
0.0
 10
-0.95587158203125
 20
-1.156894259982639
 30
0.0
 10
-0.9526299370659722
 20
-1.158338758680556
 30
0.0
 10
-0.9486219618055555
 20
-1.158338758680556
 30
0.0
 10
-0.9435831705729166
 20
-1.158338758680556
 30
0.0
 10
-0.9394938151041666
 20
-1.1563720703125
 30
0.0
 10
-0.93634033203125
 20
-1.152445475260417
 30
0.0
 10
-0.933193630642361
 20
-1.148518880208333
 30
0.0
 10
-0.9316202799479166
 20
-1.143405490451389
 30
0.0
 10
-0.9316202799479166
 20
-1.137105305989583
 30
0.0
 10
-0.9316202799479166
 20
-1.132880316840278
 30
0.0
 10
-0.9328816731770833
 20
-1.129401312934028
 30
0.0
 10
-0.9353976779513888
 20
-1.126654730902778
 30
0.0
 10
-0.9379204644097222
 20
-1.123914930555556
 30
0.0
 10
-0.9411078559027777
 20
-1.122545030381944
 30
0.0
 10
-0.9449598524305555
 20
-1.122545030381944
 30
0.0
  0
HATCH
  5
4A
330
43
100
AcDbEntity
  8
Layer 3
 62
   250
100
AcDbHatch
 10
0.0
 20
0.0
 30
0.0
210
0.0
220
0.0
230
1.0
  2
SOLID
 70
     1
 71
     0
 91
        3
 92
        1
 93
        1
 72
     4
 94
        3
 73
     0
 74
     1
 95
       98
 96
       94
 40
0.0
 40
0.0
 40
0.0
 40
0.0
 40
1.0
 40
1.0
 40
1.0
 40
2.0
 40
2.0
 40
2.0
 40
3.0
 40
3.0
 40
3.0
 40
4.0
 40
4.0
 40
4.0
 40
5.0
 40
5.0
 40
5.0
 40
6.0
 40
6.0
 40
6.0
 40
7.0
 40
7.0
 40
7.0
 40
8.0
 40
8.0
 40
8.0
 40
9.0
 40
9.0
 40
9.0
 40
10.0
 40
10.0
 40
10.0
 40
11.0
 40
11.0
 40
11.0
 40
12.0
 40
12.0
 40
12.0
 40
13.0
 40
13.0
 40
13.0
 40
14.0
 40
14.0
 40
14.0
 40
15.0
 40
15.0
 40
15.0
 40
16.0
 40
16.0
 40
16.0
 40
17.0
 40
17.0
 40
17.0
 40
18.0
 40
18.0
 40
18.0
 40
19.0
 40
19.0
 40
19.0
 40
20.0
 40
20.0
 40
20.0
 40
21.0
 40
21.0
 40
21.0
 40
22.0
 40
22.0
 40
22.0
 40
23.0
 40
23.0
 40
23.0
 40
24.0
 40
24.0
 40
24.0
 40
25.0
 40
25.0
 40
25.0
 40
26.0
 40
26.0
 40
26.0
 40
27.0
 40
27.0
 40
27.0
 40
28.0
 40
28.0
 40
28.0
 40
29.0
 40
29.0
 40
29.0
 40
30.0
 40
30.0
 40
30.0
 40
31.0
 40
31.0
 40
31.0
 40
31.0
 10
-0.97552490234375
 20
-1.169677734375
 10
-0.9809366861979166
 20
-1.166266547309028
 10
-0.9850870768229166
 20
-1.162027994791667
 10
-0.98797607421875
 20
-1.156948513454861
 10
-0.9908650716145833
 20
-1.151875813802083
 10
-0.9923095703125
 20
-1.146260579427083
 10
-0.9923095703125
 20
-1.140109592013889
 10
-0.9923095703125
 20
-1.134474012586806
 10
-0.9909600151909722
 20
-1.129102918836806
 10
-0.9882541232638888
 20
-1.123989529079861
 10
-0.9855482313368055
 20
-1.118876139322917
 10
-0.98175048828125
 20
-1.114542643229167
 10
-0.9768608940972222
 20
-1.110982259114583
 10
-0.9721883138020833
 20
-1.107652452256944
 10
-0.9663560655381944
 20
-1.105299207899306
 10
-0.9593505859375
 20
-1.103922526041667
 10
-0.9523518880208333
 20
-1.102552625868056
 10
-0.9399956597222222
 20
-1.10186767578125
 10
-0.9222819010416666
 20
-1.10186767578125
 10
-0.9222819010416666
 20
-1.10186767578125
 10
-0.8851521809895833
 20
-1.10186767578125
 10
-0.8851521809895833
 20
-1.10186767578125
 10
-0.8851521809895833
 20
-1.10186767578125
 10
-0.888821072048611
 20
-1.125325520833333
 10
-0.888821072048611
 20
-1.125325520833333
 10
-0.888821072048611
 20
-1.125325520833333
 10
-0.9047173394097222
 20
-1.125101725260417
 10
-0.9047173394097222
 20
-1.125101725260417
 10
-0.9036051432291666
 20
-1.128214518229167
 10
-0.9027913411458333
 20
-1.131008572048611
 10
-0.9022691514756944
 20
-1.133490668402778
 10
-0.9017537434895833
 20
-1.135979546440972
 10
-0.9014960394965277
 20
-1.138258192274306
 10
-0.9014960394965277
 20
-1.140333387586806
 10
-0.9014960394965277
 20
-1.151448567708333
 10
-0.9057345920138888
 20
-1.160637749565972
 10
-0.9142184787326388
 20
-1.167900933159722
 10
-0.9227091471354166
 20
-1.175164116753472
 10
-0.93365478515625
 20
-1.178792317708333
 10
-0.9470689561631944
 20
-1.178792317708333
 10
-0.9475165473090277
 20
-1.178792317708333
 10
-0.9486083984375
 20
-1.178751627604167
 10
-0.9503512912326388
 20
-1.178677029079861
 10
-0.95208740234375
 20
-1.178609212239583
 10
-0.9536675347222222
 20
-1.178568522135417
 10
-0.9550713433159722
 20
-1.178568522135417
 10
-0.9582587348090277
 20
-1.178568522135417
 10
-0.9607272677951388
 20
-1.179090711805556
 10
-0.96246337890625
 20
-1.180128309461806
 10
-0.9642062717013888
 20
-1.181165907118056
 10
-0.9650743272569444
 20
-1.182610405815972
 10
-0.9650743272569444
 20
-1.184461805555556
 10
-0.9650743272569444
 20
-1.187425401475694
 10
-0.958706325954861
 20
-1.189948187934028
 10
-0.9459567599826388
 20
-1.1920166015625
 10
-0.9426201714409722
 20
-1.192538791232639
 10
-0.9399549696180555
 20
-1.192986382378472
 10
-0.937954372829861
 20
-1.193352593315972
 10
-0.9260999891493055
 20
-1.195502387152778
 10
-0.9170939127604166
 20
-1.199320475260417
 10
-0.9109429253472222
 20
-1.204800075954861
 10
-0.9047919379340277
 20
-1.210286458333333
 10
-0.9017130533854166
 20
-1.217176649305556
 10
-0.9017130533854166
 20
-1.225477430555556
 10
-0.9017130533854166
 20
-1.236592610677083
 10
-0.906460232204861
 20
-1.245096842447917
 10
-0.9159410264756944
 20
-1.250990125868056
 10
-0.9254286024305555
 20
-1.256883409288194
 10
-0.9390665690104166
 20
-1.25982666015625
 10
-0.95684814453125
 20
-1.25982666015625
 10
-0.973232693142361
 20
-1.25982666015625
 10
-0.9859415690104166
 20
-1.257568359375
 10
-0.9949815538194444
 20
-1.253044976128472
 10
-1.004021538628472
 20
-1.248521592881944
 10
-1.008538140190972
 20
-1.242228190104167
 10
-1.008538140190972
 20
-1.234151204427083
 10
-1.008538140190972
 20
-1.228590223524306
 10
-1.006259494357639
 20
-1.223585340711806
 10
-1.001702202690972
 20
-1.219143337673611
 10
-0.9971449110243055
 20
-1.214694552951389
 10
-0.99090576171875
 20
-1.211398654513889
 10
-0.98297119140625
 20
-1.209248860677083
 10
-0.9875691731770833
 20
-1.206509060329861
 10
-0.9909193250868055
 20
-1.203633626302083
 10
-0.9930352105034722
 20
-1.200636121961806
 10
-0.995144314236111
 20
-1.1976318359375
 10
-0.9962022569444444
 20
-1.194390190972222
 10
-0.9962022569444444
 20
-1.190911187065972
 10
-0.9962022569444444
 20
-1.185723198784722
 10
-0.994350857204861
 20
-1.181220160590278
 10
-0.9906412760416666
 20
-1.177402072482639
 10
-0.9869384765625
 20
-1.173583984375
 10
-0.981899685329861
 20
-1.171006944444444
 10
-0.97552490234375
 20
-1.169677734375
 97
        0
 97
        0
 92
        1
 93
        1
 72
     4
 94
        3
 73
     0
 74
     1
 95
       29
 96
       25
 40
0.0
 40
0.0
 40
0.0
 40
0.0
 40
1.0
 40
1.0
 40
1.0
 40
2.0
 40
2.0
 40
2.0
 40
3.0
 40
3.0
 40
3.0
 40
4.0
 40
4.0
 40
4.0
 40
5.0
 40
5.0
 40
5.0
 40
6.0
 40
6.0
 40
6.0
 40
7.0
 40
7.0
 40
7.0
 40
8.0
 40
8.0
 40
8.0
 40
8.0
 10
-0.9594048394097222
 20
-1.217251247829861
 10
-0.9656304253472222
 20
-1.218587239583333
 10
-0.970486111111111
 20
-1.220309787326389
 10
-0.9739718967013888
 20
-1.222418891059028
 10
-0.9774509006076388
 20
-1.224534776475694
 10
-0.9791937934027777
 20
-1.226847330729167
 10
-0.9791937934027777
 20
-1.2293701171875
 10
-0.9791937934027777
 20
-1.232557508680556
 10
-0.97723388671875
 20
-1.2349853515625
 10
-0.9733005099826388
 20
-1.236646864149306
 10
-0.9693739149305555
 20
-1.238315158420139
 10
-0.9635959201388888
 20
-1.239149305555556
 10
-0.955959743923611
 20
-1.239149305555556
 10
-0.9482557508680555
 20
-1.239149305555556
 10
-0.942532009548611
 20
-1.238376193576389
 10
-0.9387885199652777
 20
-1.23681640625
 10
-0.9350450303819444
 20
-1.235263400607639
 10
-0.9331732855902777
 20
-1.232923719618056
 10
-0.9331732855902777
 20
-1.229810926649306
 10
-0.9331732855902777
 20
-1.227145724826389
 10
-0.9351603190104166
 20
-1.224846733940972
 10
-0.9391208224826388
 20
-1.222920735677083
 10
-0.9430881076388888
 20
-1.220994737413194
 10
-0.9498494466145833
 20
-1.219102647569444
 10
-0.9594048394097222
 20
-1.217251247829861
 97
        0
 97
        0
 92
        1
 93
        1
 72
     4
 94
        3
 73
     0
 74
     1
 95
       29
 96
       25
 40
0.0
 40
0.0
 40
0.0
 40
0.0
 40
1.0
 40
1.0
 40
1.0
 40
2.0
 40
2.0
 40
2.0
 40
3.0
 40
3.0
 40
3.0
 40
4.0
 40
4.0
 40
4.0
 40
5.0
 40
5.0
 40
5.0
 40
6.0
 40
6.0
 40
6.0
 40
7.0
 40
7.0
 40
7.0
 40
8.0
 40
8.0
 40
8.0
 40
8.0
 10
-0.9449598524305555
 20
-1.122545030381944
 10
-0.9498494466145833
 20
-1.122545030381944
 10
-0.9539252387152777
 20
-1.12445068359375
 10
-0.9571872287326388
 20
-1.128268771701389
 10
-0.96044921875
 20
-1.132086859809028
 10
-0.9620768229166666
 20
-1.136847601996528
 10
-0.9620768229166666
 20
-1.142550998263889
 10
-0.9620768229166666
 20
-1.147298177083333
 10
-0.9608357747395833
 20
-1.151109483506944
 10
-0.9583536783854166
 20
-1.154005262586806
 10
-0.95587158203125
 20
-1.156894259982639
 10
-0.9526299370659722
 20
-1.158338758680556
 10
-0.9486219618055555
 20
-1.158338758680556
 10
-0.9435831705729166
 20
-1.158338758680556
 10
-0.9394938151041666
 20
-1.1563720703125
 10
-0.93634033203125
 20
-1.152445475260417
 10
-0.933193630642361
 20
-1.148518880208333
 10
-0.9316202799479166
 20
-1.143405490451389
 10
-0.9316202799479166
 20
-1.137105305989583
 10
-0.9316202799479166
 20
-1.132880316840278
 10
-0.9328816731770833
 20
-1.129401312934028
 10
-0.9353976779513888
 20
-1.126654730902778
 10
-0.9379204644097222
 20
-1.123914930555556
 10
-0.9411078559027777
 20
-1.122545030381944
 10
-0.9449598524305555
 20
-1.122545030381944
 97
        0
 97
        0
 75
     2
 76
     1
 98
        0
  0
SPLINE
  5
4B
330
43
100
AcDbEntity
  8
Layer 3
370
     0
100
AcDbSpline
210
0.0
220
0.0
230
1.0
 70
    11
 71
     3
 72
    41
 73
    37
 74
     0
 42
0.0000000001
 43
0.0000000001
 12
1.0
 22
0.0
 32
0.0
 13
1.0
 23
0.0
 33
0.0
 40
0.0
 40
0.0
 40
0.0
 40
0.0
 40
1.0
 40
1.0
 40
1.0
 40
2.0
 40
2.0
 40
2.0
 40
3.0
 40
3.0
 40
3.0
 40
4.0
 40
4.0
 40
4.0
 40
5.0
 40
5.0
 40
5.0
 40
6.0
 40
6.0
 40
6.0
 40
7.0
 40
7.0
 40
7.0
 40
8.0
 40
8.0
 40
8.0
 40
9.0
 40
9.0
 40
9.0
 40
10.0
 40
10.0
 40
10.0
 40
11.0
 40
11.0
 40
11.0
 40
12.0
 40
12.0
 40
12.0
 40
12.0
 10
-0.800048828125
 20
-1.207248263888889
 30
0.0
 10
-0.800048828125
 20
-1.207248263888889
 30
0.0
 10
-0.7989366319444444
 20
-1.199022081163194
 30
0.0
 10
-0.7989366319444444
 20
-1.199022081163194
 30
0.0
 10
-0.8040500217013888
 20
-1.202582465277778
 30
0.0
 10
-0.8089599609375
 20
-1.205173068576389
 30
0.0
 10
-0.8136664496527777
 20
-1.206800672743056
 30
0.0
 10
-0.8183729383680555
 20
-1.20843505859375
 30
0.0
 10
-0.8231675889756944
 20
-1.209248860677083
 30
0.0
 10
-0.82806396484375
 20
-1.209248860677083
 30
0.0
 10
-0.8392537434895833
 20
-1.209248860677083
 30
0.0
 10
-0.84814453125
 20
-1.205342610677083
 30
0.0
 10
-0.854736328125
 20
-1.197523328993056
 30
0.0
 10
-0.8613349066840277
 20
-1.189704047309028
 30
0.0
 10
-0.8646308051215277
 20
-1.179124620225694
 30
0.0
 10
-0.8646308051215277
 20
-1.165785047743056
 30
0.0
 10
-0.8646308051215277
 20
-1.156446668836806
 30
0.0
 10
-0.8628336588541666
 20
-1.147725423177083
 30
0.0
 10
-0.8592393663194444
 20
-1.139607747395833
 30
0.0
 10
-0.8556450737847222
 20
-1.131490071614583
 30
0.0
 10
-0.8504774305555555
 20
-1.124586317274306
 30
0.0
 10
-0.8437364366319444
 20
-1.118876139322917
 30
0.0
 10
-0.8364732530381944
 20
-1.112725151909722
 30
0.0
 10
-0.827969021267361
 20
-1.108357747395833
 30
0.0
 10
-0.8182237413194444
 20
-1.105760362413194
 30
0.0
 10
-0.8084784613715277
 20
-1.103169759114583
 30
0.0
 10
-0.7928602430555555
 20
-1.10186767578125
 30
0.0
 10
-0.7713690863715278
 20
-1.10186767578125
 30
0.0
 10
-0.7713690863715278
 20
-1.10186767578125
 30
0.0
 10
-0.7540283203125
 20
-1.10186767578125
 30
0.0
 10
-0.7540283203125
 20
-1.10186767578125
 30
0.0
 10
-0.7540283203125
 20
-1.10186767578125
 30
0.0
 10
-0.7694769965277778
 20
-1.207248263888889
 30
0.0
 10
-0.7694769965277778
 20
-1.207248263888889
 30
0.0
 10
-0.7694769965277778
 20
-1.207248263888889
 30
0.0
 10
-0.800048828125
 20
-1.207248263888889
 30
0.0
 10
-0.800048828125
 20
-1.207248263888889
 30
0.0
  0
SPLINE
  5
4C
330
43
100
AcDbEntity
  8
Layer 3
370
     0
100
AcDbSpline
210
0.0
220
0.0
230
1.0
 70
    11
 71
     3
 72
    32
 73
    28
 74
     0
 42
0.0000000001
 43
0.0000000001
 12
1.0
 22
0.0
 32
0.0
 13
1.0
 23
0.0
 33
0.0
 40
0.0
 40
0.0
 40
0.0
 40
0.0
 40
1.0
 40
1.0
 40
1.0
 40
2.0
 40
2.0
 40
2.0
 40
3.0
 40
3.0
 40
3.0
 40
4.0
 40
4.0
 40
4.0
 40
5.0
 40
5.0
 40
5.0
 40
6.0
 40
6.0
 40
6.0
 40
7.0
 40
7.0
 40
7.0
 40
8.0
 40
8.0
 40
8.0
 40
9.0
 40
9.0
 40
9.0
 40
9.0
 10
-0.7954915364583333
 20
-1.177015516493056
 30
0.0
 10
-0.7954915364583333
 20
-1.177015516493056
 30
0.0
 10
-0.78826904296875
 20
-1.127102322048611
 30
0.0
 10
-0.78826904296875
 20
-1.127102322048611
 30
0.0
 10
-0.7889336480034722
 20
-1.127027723524306
 30
0.0
 10
-0.7896931966145833
 20
-1.126973470052083
 30
0.0
 10
-0.7905476888020833
 20
-1.126932779947917
 30
0.0
 10
-0.7913953993055555
 20
-1.126898871527778
 30
0.0
 10
-0.7926771375868055
 20
-1.126878526475694
 30
0.0
 10
-0.7943793402777777
 20
-1.126878526475694
 30
0.0
 10
-0.8066813151041666
 20
-1.126878526475694
 30
0.0
 10
-0.8164265950520833
 20
-1.130438910590278
 30
0.0
 10
-0.8236151801215277
 20
-1.137552897135417
 30
0.0
 10
-0.8308037651909722
 20
-1.144666883680556
 30
0.0
 10
-0.8343980577256944
 20
-1.154222276475694
 30
0.0
 10
-0.8343980577256944
 20
-1.166232638888889
 30
0.0
 10
-0.8343980577256944
 20
-1.172159830729167
 30
0.0
 10
-0.8330078125
 20
-1.176825629340278
 30
0.0
 10
-0.830227322048611
 20
-1.18023681640625
 30
0.0
 10
-0.8274468315972222
 20
-1.183648003472222
 30
0.0
 10
-0.8236897786458333
 20
-1.185350206163194
 30
0.0
 10
-0.8189425998263888
 20
-1.185350206163194
 30
0.0
 10
-0.8151652018229166
 20
-1.185350206163194
 30
0.0
 10
-0.8113335503472222
 20
-1.184665256076389
 30
0.0
 10
-0.8074408637152777
 20
-1.183295355902778
 30
0.0
 10
-0.8035481770833333
 20
-1.181925455729167
 30
0.0
 10
-0.7995673285590277
 20
-1.179829915364583
 30
0.0
 10
-0.7954915364583333
 20
-1.177015516493056
 30
0.0
  0
HATCH
  5
4D
330
43
100
AcDbEntity
  8
Layer 3
 62
   250
100
AcDbHatch
 10
0.0
 20
0.0
 30
0.0
210
0.0
220
0.0
230
1.0
  2
SOLID
 70
     1
 71
     0
 91
        2
 92
        1
 93
        1
 72
     4
 94
        3
 73
     0
 74
     1
 95
       41
 96
       37
 40
0.0
 40
0.0
 40
0.0
 40
0.0
 40
1.0
 40
1.0
 40
1.0
 40
2.0
 40
2.0
 40
2.0
 40
3.0
 40
3.0
 40
3.0
 40
4.0
 40
4.0
 40
4.0
 40
5.0
 40
5.0
 40
5.0
 40
6.0
 40
6.0
 40
6.0
 40
7.0
 40
7.0
 40
7.0
 40
8.0
 40
8.0
 40
8.0
 40
9.0
 40
9.0
 40
9.0
 40
10.0
 40
10.0
 40
10.0
 40
11.0
 40
11.0
 40
11.0
 40
12.0
 40
12.0
 40
12.0
 40
12.0
 10
-0.800048828125
 20
-1.207248263888889
 10
-0.800048828125
 20
-1.207248263888889
 10
-0.7989366319444444
 20
-1.199022081163194
 10
-0.7989366319444444
 20
-1.199022081163194
 10
-0.8040500217013888
 20
-1.202582465277778
 10
-0.8089599609375
 20
-1.205173068576389
 10
-0.8136664496527777
 20
-1.206800672743056
 10
-0.8183729383680555
 20
-1.20843505859375
 10
-0.8231675889756944
 20
-1.209248860677083
 10
-0.82806396484375
 20
-1.209248860677083
 10
-0.8392537434895833
 20
-1.209248860677083
 10
-0.84814453125
 20
-1.205342610677083
 10
-0.854736328125
 20
-1.197523328993056
 10
-0.8613349066840277
 20
-1.189704047309028
 10
-0.8646308051215277
 20
-1.179124620225694
 10
-0.8646308051215277
 20
-1.165785047743056
 10
-0.8646308051215277
 20
-1.156446668836806
 10
-0.8628336588541666
 20
-1.147725423177083
 10
-0.8592393663194444
 20
-1.139607747395833
 10
-0.8556450737847222
 20
-1.131490071614583
 10
-0.8504774305555555
 20
-1.124586317274306
 10
-0.8437364366319444
 20
-1.118876139322917
 10
-0.8364732530381944
 20
-1.112725151909722
 10
-0.827969021267361
 20
-1.108357747395833
 10
-0.8182237413194444
 20
-1.105760362413194
 10
-0.8084784613715277
 20
-1.103169759114583
 10
-0.7928602430555555
 20
-1.10186767578125
 10
-0.7713690863715278
 20
-1.10186767578125
 10
-0.7713690863715278
 20
-1.10186767578125
 10
-0.7540283203125
 20
-1.10186767578125
 10
-0.7540283203125
 20
-1.10186767578125
 10
-0.7540283203125
 20
-1.10186767578125
 10
-0.7694769965277778
 20
-1.207248263888889
 10
-0.7694769965277778
 20
-1.207248263888889
 10
-0.7694769965277778
 20
-1.207248263888889
 10
-0.800048828125
 20
-1.207248263888889
 10
-0.800048828125
 20
-1.207248263888889
 97
        0
 97
        0
 92
        1
 93
        1
 72
     4
 94
        3
 73
     0
 74
     1
 95
       32
 96
       28
 40
0.0
 40
0.0
 40
0.0
 40
0.0
 40
1.0
 40
1.0
 40
1.0
 40
2.0
 40
2.0
 40
2.0
 40
3.0
 40
3.0
 40
3.0
 40
4.0
 40
4.0
 40
4.0
 40
5.0
 40
5.0
 40
5.0
 40
6.0
 40
6.0
 40
6.0
 40
7.0
 40
7.0
 40
7.0
 40
8.0
 40
8.0
 40
8.0
 40
9.0
 40
9.0
 40
9.0
 40
9.0
 10
-0.7954915364583333
 20
-1.177015516493056
 10
-0.7954915364583333
 20
-1.177015516493056
 10
-0.78826904296875
 20
-1.127102322048611
 10
-0.78826904296875
 20
-1.127102322048611
 10
-0.7889336480034722
 20
-1.127027723524306
 10
-0.7896931966145833
 20
-1.126973470052083
 10
-0.7905476888020833
 20
-1.126932779947917
 10
-0.7913953993055555
 20
-1.126898871527778
 10
-0.7926771375868055
 20
-1.126878526475694
 10
-0.7943793402777777
 20
-1.126878526475694
 10
-0.8066813151041666
 20
-1.126878526475694
 10
-0.8164265950520833
 20
-1.130438910590278
 10
-0.8236151801215277
 20
-1.137552897135417
 10
-0.8308037651909722
 20
-1.144666883680556
 10
-0.8343980577256944
 20
-1.154222276475694
 10
-0.8343980577256944
 20
-1.166232638888889
 10
-0.8343980577256944
 20
-1.172159830729167
 10
-0.8330078125
 20
-1.176825629340278
 10
-0.830227322048611
 20
-1.18023681640625
 10
-0.8274468315972222
 20
-1.183648003472222
 10
-0.8236897786458333
 20
-1.185350206163194
 10
-0.8189425998263888
 20
-1.185350206163194
 10
-0.8151652018229166
 20
-1.185350206163194
 10
-0.8113335503472222
 20
-1.184665256076389
 10
-0.8074408637152777
 20
-1.183295355902778
 10
-0.8035481770833333
 20
-1.181925455729167
 10
-0.7995673285590277
 20
-1.179829915364583
 10
-0.7954915364583333
 20
-1.177015516493056
 97
        0
 97
        0
 75
     2
 76
     1
 98
        0
  0
SPLINE
  5
4E
330
43
100
AcDbEntity
  8
Layer 3
370
     0
100
AcDbSpline
210
0.0
220
0.0
230
1.0
 70
    11
 71
     3
 72
   104
 73
   100
 74
     0
 42
0.0000000001
 43
0.0000000001
 12
1.0
 22
0.0
 32
0.0
 13
1.0
 23
0.0
 33
0.0
 40
0.0
 40
0.0
 40
0.0
 40
0.0
 40
1.0
 40
1.0
 40
1.0
 40
2.0
 40
2.0
 40
2.0
 40
3.0
 40
3.0
 40
3.0
 40
4.0
 40
4.0
 40
4.0
 40
5.0
 40
5.0
 40
5.0
 40
6.0
 40
6.0
 40
6.0
 40
7.0
 40
7.0
 40
7.0
 40
8.0
 40
8.0
 40
8.0
 40
9.0
 40
9.0
 40
9.0
 40
10.0
 40
10.0
 40
10.0
 40
11.0
 40
11.0
 40
11.0
 40
12.0
 40
12.0
 40
12.0
 40
13.0
 40
13.0
 40
13.0
 40
14.0
 40
14.0
 40
14.0
 40
15.0
 40
15.0
 40
15.0
 40
16.0
 40
16.0
 40
16.0
 40
17.0
 40
17.0
 40
17.0
 40
18.0
 40
18.0
 40
18.0
 40
19.0
 40
19.0
 40
19.0
 40
20.0
 40
20.0
 40
20.0
 40
21.0
 40
21.0
 40
21.0
 40
22.0
 40
22.0
 40
22.0
 40
23.0
 40
23.0
 40
23.0
 40
24.0
 40
24.0
 40
24.0
 40
25.0
 40
25.0
 40
25.0
 40
26.0
 40
26.0
 40
26.0
 40
27.0
 40
27.0
 40
27.0
 40
28.0
 40
28.0
 40
28.0
 40
29.0
 40
29.0
 40
29.0
 40
30.0
 40
30.0
 40
30.0
 40
31.0
 40
31.0
 40
31.0
 40
32.0
 40
32.0
 40
32.0
 40
33.0
 40
33.0
 40
33.0
 40
33.0
 10
-0.7285088433159722
 20
-1.207248263888889
 30
0.0
 10
-0.7285088433159722
 20
-1.207248263888889
 30
0.0
 10
-0.7128363715277778
 20
-1.10186767578125
 30
0.0
 10
-0.7128363715277778
 20
-1.10186767578125
 30
0.0
 10
-0.7128363715277778
 20
-1.10186767578125
 30
0.0
 10
-0.6822645399305555
 20
-1.10186767578125
 30
0.0
 10
-0.6822645399305555
 20
-1.10186767578125
 30
0.0
 10
-0.6822645399305555
 20
-1.10186767578125
 30
0.0
 10
-0.6840413411458333
 20
-1.114542643229167
 30
0.0
 10
-0.6840413411458333
 20
-1.114542643229167
 30
0.0
 10
-0.6789279513888888
 20
-1.109578450520833
 30
0.0
 10
-0.6734822591145833
 20
-1.105868869357639
 30
0.0
 10
-0.6677042643229166
 20
-1.103427463107639
 30
0.0
 10
-0.6619194878472222
 20
-1.100979275173611
 30
0.0
 10
-0.6556260850694444
 20
-1.099758572048611
 30
0.0
 10
-0.6488037109375
 20
-1.099758572048611
 30
0.0
 10
-0.6422119140625
 20
-1.099758572048611
 30
0.0
 10
-0.6368204752604166
 20
-1.101182725694444
 30
0.0
 10
-0.63262939453125
 20
-1.104037814670139
 30
0.0
 10
-0.628445095486111
 20
-1.106892903645833
 30
0.0
 10
-0.6252034505208333
 20
-1.11138916015625
 30
0.0
 10
-0.6229044596354166
 20
-1.117540147569444
 30
0.0
 10
-0.6154920789930555
 20
-1.111612955729167
 30
0.0
 10
-0.6085272894965278
 20
-1.107170952690972
 30
0.0
 10
-0.6020100911458333
 20
-1.104200575086806
 30
0.0
 10
-0.595486111111111
 20
-1.101236979166667
 30
0.0
 10
-0.5892266167534722
 20
-1.099758572048611
 30
0.0
 10
-0.583218044704861
 20
-1.099758572048611
 30
0.0
 10
-0.5738118489583333
 20
-1.099758572048611
 30
0.0
 10
-0.5665283203125
 20
-1.102335611979167
 30
0.0
 10
-0.5613810221354166
 20
-1.10748291015625
 30
0.0
 10
-0.5562269422743055
 20
-1.112636990017361
 30
0.0
 10
-0.55364990234375
 20
-1.119954427083333
 30
0.0
 10
-0.55364990234375
 20
-1.129435221354167
 30
0.0
 10
-0.55364990234375
 20
-1.1319580078125
 30
0.0
 10
-0.553860134548611
 20
-1.135179307725694
 30
0.0
 10
-0.5542670355902778
 20
-1.139105902777778
 30
0.0
 10
-0.5546739366319444
 20
-1.143039279513889
 30
0.0
 10
-0.5553181966145833
 20
-1.148078070746528
 30
0.0
 10
-0.5562065972222222
 20
-1.154222276475694
 30
0.0
 10
-0.5562065972222222
 20
-1.154222276475694
 30
0.0
 10
-0.5641004774305555
 20
-1.207248263888889
 30
0.0
 10
-0.5641004774305555
 20
-1.207248263888889
 30
0.0
 10
-0.5641004774305555
 20
-1.207248263888889
 30
0.0
 10
-0.5951131184895833
 20
-1.207248263888889
 30
0.0
 10
-0.5951131184895833
 20
-1.207248263888889
 30
0.0
 10
-0.5951131184895833
 20
-1.207248263888889
 30
0.0
 10
-0.5848863389756944
 20
-1.140333387586806
 30
0.0
 10
-0.5848863389756944
 20
-1.140333387586806
 30
0.0
 10
-0.5848185221354166
 20
-1.140184190538194
 30
0.0
 10
-0.58477783203125
 20
-1.139960394965278
 30
0.0
 10
-0.58477783203125
 20
-1.139662000868056
 30
0.0
 10
-0.5844794379340278
 20
-1.137369791666667
 30
0.0
 10
-0.5843302408854166
 20
-1.135769314236111
 30
0.0
 10
-0.5843302408854166
 20
-1.134880913628472
 30
0.0
 10
-0.5843302408854166
 20
-1.130811903211806
 30
0.0
 10
-0.585205078125
 20
-1.127766927083333
 30
0.0
 10
-0.5869479709201388
 20
-1.125766330295139
 30
0.0
 10
-0.58868408203125
 20
-1.123765733506944
 30
0.0
 10
-0.591335720486111
 20
-1.122768825954861
 30
0.0
 10
-0.5948893229166666
 20
-1.122768825954861
 30
0.0
 10
-0.598598904079861
 20
-1.122768825954861
 30
0.0
 10
-0.6027289496527778
 20
-1.12408447265625
 30
0.0
 10
-0.6072862413194444
 20
-1.126715766059028
 30
0.0
 10
-0.611843532986111
 20
-1.129347059461806
 30
0.0
 10
-0.61627197265625
 20
-1.133029513888889
 30
0.0
 10
-0.620571560329861
 20
-1.137776692708333
 30
0.0
 10
-0.620571560329861
 20
-1.137776692708333
 30
0.0
 10
-0.63079833984375
 20
-1.207248263888889
 30
0.0
 10
-0.63079833984375
 20
-1.207248263888889
 30
0.0
 10
-0.63079833984375
 20
-1.207248263888889
 30
0.0
 10
-0.661587185329861
 20
-1.207248263888889
 30
0.0
 10
-0.661587185329861
 20
-1.207248263888889
 30
0.0
 10
-0.661587185329861
 20
-1.207248263888889
 30
0.0
 10
-0.6513604058159722
 20
-1.140333387586806
 30
0.0
 10
-0.6513604058159722
 20
-1.140333387586806
 30
0.0
 10
-0.6512858072916666
 20
-1.140184190538194
 30
0.0
 10
-0.6512518988715278
 20
-1.139960394965278
 30
0.0
 10
-0.6512518988715278
 20
-1.139662000868056
 30
0.0
 10
-0.6509535047743055
 20
-1.137369791666667
 30
0.0
 10
-0.6508043077256944
 20
-1.135701497395833
 30
0.0
 10
-0.6508043077256944
 20
-1.134663899739583
 30
0.0
 10
-0.6508043077256944
 20
-1.1307373046875
 30
0.0
 10
-0.6516791449652778
 20
-1.127766927083333
 30
0.0
 10
-0.6534152560763888
 20
-1.125766330295139
 30
0.0
 10
-0.6551581488715278
 20
-1.123765733506944
 30
0.0
 10
-0.6577351888020833
 20
-1.122768825954861
 30
0.0
 10
-0.6611463758680555
 20
-1.122768825954861
 30
0.0
 10
-0.6652967664930555
 20
-1.122768825954861
 30
0.0
 10
-0.6696506076388888
 20
-1.124118381076389
 30
0.0
 10
-0.6742078993055555
 20
-1.126824273003472
 30
0.0
 10
-0.6787651909722222
 20
-1.129530164930556
 30
0.0
 10
-0.6832614474826388
 20
-1.133436414930556
 30
0.0
 10
-0.687710232204861
 20
-1.1385498046875
 30
0.0
 10
-0.687710232204861
 20
-1.1385498046875
 30
0.0
 10
-0.69793701171875
 20
-1.207248263888889
 30
0.0
 10
-0.69793701171875
 20
-1.207248263888889
 30
0.0
 10
-0.69793701171875
 20
-1.207248263888889
 30
0.0
 10
-0.7285088433159722
 20
-1.207248263888889
 30
0.0
 10
-0.7285088433159722
 20
-1.207248263888889
 30
0.0
  0
HATCH
  5
4F
330
43
100
AcDbEntity
  8
Layer 3
 62
   250
100
AcDbHatch
 10
0.0
 20
0.0
 30
0.0
210
0.0
220
0.0
230
1.0
  2
SOLID
 70
     1
 71
     0
 91
        1
 92
        1
 93
        1
 72
     4
 94
        3
 73
     0
 74
     1
 95
      104
 96
      100
 40
0.0
 40
0.0
 40
0.0
 40
0.0
 40
1.0
 40
1.0
 40
1.0
 40
2.0
 40
2.0
 40
2.0
 40
3.0
 40
3.0
 40
3.0
 40
4.0
 40
4.0
 40
4.0
 40
5.0
 40
5.0
 40
5.0
 40
6.0
 40
6.0
 40
6.0
 40
7.0
 40
7.0
 40
7.0
 40
8.0
 40
8.0
 40
8.0
 40
9.0
 40
9.0
 40
9.0
 40
10.0
 40
10.0
 40
10.0
 40
11.0
 40
11.0
 40
11.0
 40
12.0
 40
12.0
 40
12.0
 40
13.0
 40
13.0
 40
13.0
 40
14.0
 40
14.0
 40
14.0
 40
15.0
 40
15.0
 40
15.0
 40
16.0
 40
16.0
 40
16.0
 40
17.0
 40
17.0
 40
17.0
 40
18.0
 40
18.0
 40
18.0
 40
19.0
 40
19.0
 40
19.0
 40
20.0
 40
20.0
 40
20.0
 40
21.0
 40
21.0
 40
21.0
 40
22.0
 40
22.0
 40
22.0
 40
23.0
 40
23.0
 40
23.0
 40
24.0
 40
24.0
 40
24.0
 40
25.0
 40
25.0
 40
25.0
 40
26.0
 40
26.0
 40
26.0
 40
27.0
 40
27.0
 40
27.0
 40
28.0
 40
28.0
 40
28.0
 40
29.0
 40
29.0
 40
29.0
 40
30.0
 40
30.0
 40
30.0
 40
31.0
 40
31.0
 40
31.0
 40
32.0
 40
32.0
 40
32.0
 40
33.0
 40
33.0
 40
33.0
 40
33.0
 10
-0.7285088433159722
 20
-1.207248263888889
 10
-0.7285088433159722
 20
-1.207248263888889
 10
-0.7128363715277778
 20
-1.10186767578125
 10
-0.7128363715277778
 20
-1.10186767578125
 10
-0.7128363715277778
 20
-1.10186767578125
 10
-0.6822645399305555
 20
-1.10186767578125
 10
-0.6822645399305555
 20
-1.10186767578125
 10
-0.6822645399305555
 20
-1.10186767578125
 10
-0.6840413411458333
 20
-1.114542643229167
 10
-0.6840413411458333
 20
-1.114542643229167
 10
-0.6789279513888888
 20
-1.109578450520833
 10
-0.6734822591145833
 20
-1.105868869357639
 10
-0.6677042643229166
 20
-1.103427463107639
 10
-0.6619194878472222
 20
-1.100979275173611
 10
-0.6556260850694444
 20
-1.099758572048611
 10
-0.6488037109375
 20
-1.099758572048611
 10
-0.6422119140625
 20
-1.099758572048611
 10
-0.6368204752604166
 20
-1.101182725694444
 10
-0.63262939453125
 20
-1.104037814670139
 10
-0.628445095486111
 20
-1.106892903645833
 10
-0.6252034505208333
 20
-1.11138916015625
 10
-0.6229044596354166
 20
-1.117540147569444
 10
-0.6154920789930555
 20
-1.111612955729167
 10
-0.6085272894965278
 20
-1.107170952690972
 10
-0.6020100911458333
 20
-1.104200575086806
 10
-0.595486111111111
 20
-1.101236979166667
 10
-0.5892266167534722
 20
-1.099758572048611
 10
-0.583218044704861
 20
-1.099758572048611
 10
-0.5738118489583333
 20
-1.099758572048611
 10
-0.5665283203125
 20
-1.102335611979167
 10
-0.5613810221354166
 20
-1.10748291015625
 10
-0.5562269422743055
 20
-1.112636990017361
 10
-0.55364990234375
 20
-1.119954427083333
 10
-0.55364990234375
 20
-1.129435221354167
 10
-0.55364990234375
 20
-1.1319580078125
 10
-0.553860134548611
 20
-1.135179307725694
 10
-0.5542670355902778
 20
-1.139105902777778
 10
-0.5546739366319444
 20
-1.143039279513889
 10
-0.5553181966145833
 20
-1.148078070746528
 10
-0.5562065972222222
 20
-1.154222276475694
 10
-0.5562065972222222
 20
-1.154222276475694
 10
-0.5641004774305555
 20
-1.207248263888889
 10
-0.5641004774305555
 20
-1.207248263888889
 10
-0.5641004774305555
 20
-1.207248263888889
 10
-0.5951131184895833
 20
-1.207248263888889
 10
-0.5951131184895833
 20
-1.207248263888889
 10
-0.5951131184895833
 20
-1.207248263888889
 10
-0.5848863389756944
 20
-1.140333387586806
 10
-0.5848863389756944
 20
-1.140333387586806
 10
-0.5848185221354166
 20
-1.140184190538194
 10
-0.58477783203125
 20
-1.139960394965278
 10
-0.58477783203125
 20
-1.139662000868056
 10
-0.5844794379340278
 20
-1.137369791666667
 10
-0.5843302408854166
 20
-1.135769314236111
 10
-0.5843302408854166
 20
-1.134880913628472
 10
-0.5843302408854166
 20
-1.130811903211806
 10
-0.585205078125
 20
-1.127766927083333
 10
-0.5869479709201388
 20
-1.125766330295139
 10
-0.58868408203125
 20
-1.123765733506944
 10
-0.591335720486111
 20
-1.122768825954861
 10
-0.5948893229166666
 20
-1.122768825954861
 10
-0.598598904079861
 20
-1.122768825954861
 10
-0.6027289496527778
 20
-1.12408447265625
 10
-0.6072862413194444
 20
-1.126715766059028
 10
-0.611843532986111
 20
-1.129347059461806
 10
-0.61627197265625
 20
-1.133029513888889
 10
-0.620571560329861
 20
-1.137776692708333
 10
-0.620571560329861
 20
-1.137776692708333
 10
-0.63079833984375
 20
-1.207248263888889
 10
-0.63079833984375
 20
-1.207248263888889
 10
-0.63079833984375
 20
-1.207248263888889
 10
-0.661587185329861
 20
-1.207248263888889
 10
-0.661587185329861
 20
-1.207248263888889
 10
-0.661587185329861
 20
-1.207248263888889
 10
-0.6513604058159722
 20
-1.140333387586806
 10
-0.6513604058159722
 20
-1.140333387586806
 10
-0.6512858072916666
 20
-1.140184190538194
 10
-0.6512518988715278
 20
-1.139960394965278
 10
-0.6512518988715278
 20
-1.139662000868056
 10
-0.6509535047743055
 20
-1.137369791666667
 10
-0.6508043077256944
 20
-1.135701497395833
 10
-0.6508043077256944
 20
-1.134663899739583
 10
-0.6508043077256944
 20
-1.1307373046875
 10
-0.6516791449652778
 20
-1.127766927083333
 10
-0.6534152560763888
 20
-1.125766330295139
 10
-0.6551581488715278
 20
-1.123765733506944
 10
-0.6577351888020833
 20
-1.122768825954861
 10
-0.6611463758680555
 20
-1.122768825954861
 10
-0.6652967664930555
 20
-1.122768825954861
 10
-0.6696506076388888
 20
-1.124118381076389
 10
-0.6742078993055555
 20
-1.126824273003472
 10
-0.6787651909722222
 20
-1.129530164930556
 10
-0.6832614474826388
 20
-1.133436414930556
 10
-0.687710232204861
 20
-1.1385498046875
 10
-0.687710232204861
 20
-1.1385498046875
 10
-0.69793701171875
 20
-1.207248263888889
 10
-0.69793701171875
 20
-1.207248263888889
 10
-0.69793701171875
 20
-1.207248263888889
 10
-0.7285088433159722
 20
-1.207248263888889
 10
-0.7285088433159722
 20
-1.207248263888889
 97
        0
 97
        0
 75
     2
 76
     1
 98
        0
  0
SPLINE
  5
50
330
43
100
AcDbEntity
  8
Layer 3
370
     0
100
AcDbSpline
210
0.0
220
0.0
230
1.0
 70
    11
 71
     3
 72
    59
 73
    55
 74
     0
 42
0.0000000001
 43
0.0000000001
 12
1.0
 22
0.0
 32
0.0
 13
1.0
 23
0.0
 33
0.0
 40
0.0
 40
0.0
 40
0.0
 40
0.0
 40
1.0
 40
1.0
 40
1.0
 40
2.0
 40
2.0
 40
2.0
 40
3.0
 40
3.0
 40
3.0
 40
4.0
 40
4.0
 40
4.0
 40
5.0
 40
5.0
 40
5.0
 40
6.0
 40
6.0
 40
6.0
 40
7.0
 40
7.0
 40
7.0
 40
8.0
 40
8.0
 40
8.0
 40
9.0
 40
9.0
 40
9.0
 40
10.0
 40
10.0
 40
10.0
 40
11.0
 40
11.0
 40
11.0
 40
12.0
 40
12.0
 40
12.0
 40
13.0
 40
13.0
 40
13.0
 40
14.0
 40
14.0
 40
14.0
 40
15.0
 40
15.0
 40
15.0
 40
16.0
 40
16.0
 40
16.0
 40
17.0
 40
17.0
 40
17.0
 40
18.0
 40
18.0
 40
18.0
 40
18.0
 10
-0.4308675130208333
 20
-1.200914171006944
 30
0.0
 10
-0.4364963107638888
 20
-1.203728569878472
 30
0.0
 10
-0.4426472981770833
 20
-1.205858018663194
 30
0.0
 10
-0.4493204752604166
 20
-1.207302517361111
 30
0.0
 10
-0.4559868706597222
 20
-1.208747016059028
 30
0.0
 10
-0.4629177517361111
 20
-1.20947265625
 30
0.0
 10
-0.4701063368055555
 20
-1.20947265625
 30
0.0
 10
-0.4858873155381944
 20
-1.20947265625
 30
0.0
 10
-0.4983927408854166
 20
-1.20489501953125
 30
0.0
 10
-0.5076226128472222
 20
-1.195746527777778
 30
0.0
 10
-0.516845703125
 20
-1.186591254340278
 30
0.0
 10
-0.5214572482638888
 20
-1.174119737413194
 30
0.0
 10
-0.5214572482638888
 20
-1.158338758680556
 30
0.0
 10
-0.5214572482638888
 20
-1.140848795572917
 30
0.0
 10
-0.5161268446180556
 20
-1.126715766059028
 30
0.0
 10
-0.5054524739583333
 20
-1.115932888454861
 30
0.0
 10
-0.4947848849826388
 20
-1.105150010850694
 30
0.0
 10
-0.4807061089409722
 20
-1.099758572048611
 30
0.0
 10
-0.4632093641493055
 20
-1.099758572048611
 30
0.0
 10
-0.4490559895833333
 20
-1.099758572048611
 30
0.0
 10
-0.4381306966145833
 20
-1.103834364149306
 30
0.0
 10
-0.430419921875
 20
-1.111985948350694
 30
0.0
 10
-0.4227159288194444
 20
-1.120137532552083
 30
0.0
 10
-0.4188571506076388
 20
-1.131700303819444
 30
0.0
 10
-0.4188571506076388
 20
-1.14666748046875
 30
0.0
 10
-0.4188571506076388
 20
-1.148518880208333
 30
0.0
 10
-0.4189181857638888
 20
-1.150431315104167
 30
0.0
 10
-0.4190266927083333
 20
-1.152391221788194
 30
0.0
 10
-0.4191351996527777
 20
-1.15435791015625
 30
0.0
 10
-0.4193047417534722
 20
-1.156338161892361
 30
0.0
 10
-0.4195285373263888
 20
-1.158338758680556
 30
0.0
 10
-0.4195285373263888
 20
-1.158338758680556
 30
0.0
 10
-0.4894476996527777
 20
-1.158338758680556
 30
0.0
 10
-0.4894476996527777
 20
-1.158338758680556
 30
0.0
 10
-0.4894476996527777
 20
-1.158711751302083
 30
0.0
 10
-0.4894816080729166
 20
-1.159267849392361
 30
0.0
 10
-0.4895562065972222
 20
-1.160007052951389
 30
0.0
 10
-0.4896308051215277
 20
-1.160746256510417
 30
0.0
 10
-0.4896714952256944
 20
-1.161227756076389
 30
0.0
 10
-0.4896714952256944
 20
-1.161451551649306
 30
0.0
 10
-0.4896714952256944
 20
-1.16900634765625
 30
0.0
 10
-0.4874267578125
 20
-1.174770779079861
 30
0.0
 10
-0.4829440646701388
 20
-1.178738064236111
 30
0.0
 10
-0.4784613715277777
 20
-1.182698567708333
 30
0.0
 10
-0.4719577365451388
 20
-1.184685601128472
 30
0.0
 10
-0.4634331597222222
 20
-1.184685601128472
 30
0.0
 10
-0.4586181640625
 20
-1.184685601128472
 30
0.0
 10
-0.4531182183159722
 20
-1.18377685546875
 30
0.0
 10
-0.4469265407986111
 20
-1.181959364149306
 30
0.0
 10
-0.4407416449652777
 20
-1.180141872829861
 30
0.0
 10
-0.4334988064236111
 20
-1.177273220486111
 30
0.0
 10
-0.4251980251736111
 20
-1.173346625434028
 30
0.0
 10
-0.4251980251736111
 20
-1.173346625434028
 30
0.0
 10
-0.4308675130208333
 20
-1.200914171006944
 30
0.0
 10
-0.4308675130208333
 20
-1.200914171006944
 30
0.0
  0
SPLINE
  5
51
330
43
100
AcDbEntity
  8
Layer 3
370
     0
100
AcDbSpline
210
0.0
220
0.0
230
1.0
 70
    11
 71
     3
 72
    23
 73
    19
 74
     0
 42
0.0000000001
 43
0.0000000001
 12
1.0
 22
0.0
 32
0.0
 13
1.0
 23
0.0
 33
0.0
 40
0.0
 40
0.0
 40
0.0
 40
0.0
 40
1.0
 40
1.0
 40
1.0
 40
2.0
 40
2.0
 40
2.0
 40
3.0
 40
3.0
 40
3.0
 40
4.0
 40
4.0
 40
4.0
 40
5.0
 40
5.0
 40
5.0
 40
6.0
 40
6.0
 40
6.0
 40
6.0
 10
-0.4851142035590277
 20
-1.140109592013889
 30
0.0
 10
-0.4851142035590277
 20
-1.140109592013889
 30
0.0
 10
-0.4493204752604166
 20
-1.140109592013889
 30
0.0
 10
-0.4493204752604166
 20
-1.140109592013889
 30
0.0
 10
-0.4493204752604166
 20
-1.140109592013889
 30
0.0
 10
-0.4493204752604166
 20
-1.137993706597222
 30
0.0
 10
-0.4493204752604166
 20
-1.137993706597222
 30
0.0
 10
-0.4493204752604166
 20
-1.132514105902778
 30
0.0
 10
-0.4505954318576388
 20
-1.128343370225694
 30
0.0
 10
-0.4531521267361111
 20
-1.12548828125
 30
0.0
 10
-0.4557088216145833
 20
-1.122639973958333
 30
0.0
 10
-0.4594319661458333
 20
-1.121209038628472
 30
0.0
 10
-0.4643215603298611
 20
-1.121209038628472
 30
0.0
 10
-0.4693671332465277
 20
-1.121209038628472
 30
0.0
 10
-0.4736260308159722
 20
-1.122802734375
 30
0.0
 10
-0.4771050347222222
 20
-1.125990125868056
 30
0.0
 10
-0.4805908203125
 20
-1.129177517361111
 30
0.0
 10
-0.4832628038194444
 20
-1.133884006076389
 30
0.0
 10
-0.4851142035590277
 20
-1.140109592013889
 30
0.0
  0
HATCH
  5
52
330
43
100
AcDbEntity
  8
Layer 3
 62
   250
100
AcDbHatch
 10
0.0
 20
0.0
 30
0.0
210
0.0
220
0.0
230
1.0
  2
SOLID
 70
     1
 71
     0
 91
        2
 92
        1
 93
        1
 72
     4
 94
        3
 73
     0
 74
     1
 95
       59
 96
       55
 40
0.0
 40
0.0
 40
0.0
 40
0.0
 40
1.0
 40
1.0
 40
1.0
 40
2.0
 40
2.0
 40
2.0
 40
3.0
 40
3.0
 40
3.0
 40
4.0
 40
4.0
 40
4.0
 40
5.0
 40
5.0
 40
5.0
 40
6.0
 40
6.0
 40
6.0
 40
7.0
 40
7.0
 40
7.0
 40
8.0
 40
8.0
 40
8.0
 40
9.0
 40
9.0
 40
9.0
 40
10.0
 40
10.0
 40
10.0
 40
11.0
 40
11.0
 40
11.0
 40
12.0
 40
12.0
 40
12.0
 40
13.0
 40
13.0
 40
13.0
 40
14.0
 40
14.0
 40
14.0
 40
15.0
 40
15.0
 40
15.0
 40
16.0
 40
16.0
 40
16.0
 40
17.0
 40
17.0
 40
17.0
 40
18.0
 40
18.0
 40
18.0
 40
18.0
 10
-0.4308675130208333
 20
-1.200914171006944
 10
-0.4364963107638888
 20
-1.203728569878472
 10
-0.4426472981770833
 20
-1.205858018663194
 10
-0.4493204752604166
 20
-1.207302517361111
 10
-0.4559868706597222
 20
-1.208747016059028
 10
-0.4629177517361111
 20
-1.20947265625
 10
-0.4701063368055555
 20
-1.20947265625
 10
-0.4858873155381944
 20
-1.20947265625
 10
-0.4983927408854166
 20
-1.20489501953125
 10
-0.5076226128472222
 20
-1.195746527777778
 10
-0.516845703125
 20
-1.186591254340278
 10
-0.5214572482638888
 20
-1.174119737413194
 10
-0.5214572482638888
 20
-1.158338758680556
 10
-0.5214572482638888
 20
-1.140848795572917
 10
-0.5161268446180556
 20
-1.126715766059028
 10
-0.5054524739583333
 20
-1.115932888454861
 10
-0.4947848849826388
 20
-1.105150010850694
 10
-0.4807061089409722
 20
-1.099758572048611
 10
-0.4632093641493055
 20
-1.099758572048611
 10
-0.4490559895833333
 20
-1.099758572048611
 10
-0.4381306966145833
 20
-1.103834364149306
 10
-0.430419921875
 20
-1.111985948350694
 10
-0.4227159288194444
 20
-1.120137532552083
 10
-0.4188571506076388
 20
-1.131700303819444
 10
-0.4188571506076388
 20
-1.14666748046875
 10
-0.4188571506076388
 20
-1.148518880208333
 10
-0.4189181857638888
 20
-1.150431315104167
 10
-0.4190266927083333
 20
-1.152391221788194
 10
-0.4191351996527777
 20
-1.15435791015625
 10
-0.4193047417534722
 20
-1.156338161892361
 10
-0.4195285373263888
 20
-1.158338758680556
 10
-0.4195285373263888
 20
-1.158338758680556
 10
-0.4894476996527777
 20
-1.158338758680556
 10
-0.4894476996527777
 20
-1.158338758680556
 10
-0.4894476996527777
 20
-1.158711751302083
 10
-0.4894816080729166
 20
-1.159267849392361
 10
-0.4895562065972222
 20
-1.160007052951389
 10
-0.4896308051215277
 20
-1.160746256510417
 10
-0.4896714952256944
 20
-1.161227756076389
 10
-0.4896714952256944
 20
-1.161451551649306
 10
-0.4896714952256944
 20
-1.16900634765625
 10
-0.4874267578125
 20
-1.174770779079861
 10
-0.4829440646701388
 20
-1.178738064236111
 10
-0.4784613715277777
 20
-1.182698567708333
 10
-0.4719577365451388
 20
-1.184685601128472
 10
-0.4634331597222222
 20
-1.184685601128472
 10
-0.4586181640625
 20
-1.184685601128472
 10
-0.4531182183159722
 20
-1.18377685546875
 10
-0.4469265407986111
 20
-1.181959364149306
 10
-0.4407416449652777
 20
-1.180141872829861
 10
-0.4334988064236111
 20
-1.177273220486111
 10
-0.4251980251736111
 20
-1.173346625434028
 10
-0.4251980251736111
 20
-1.173346625434028
 10
-0.4308675130208333
 20
-1.200914171006944
 10
-0.4308675130208333
 20
-1.200914171006944
 97
        0
 97
        0
 92
        1
 93
        1
 72
     4
 94
        3
 73
     0
 74
     1
 95
       23
 96
       19
 40
0.0
 40
0.0
 40
0.0
 40
0.0
 40
1.0
 40
1.0
 40
1.0
 40
2.0
 40
2.0
 40
2.0
 40
3.0
 40
3.0
 40
3.0
 40
4.0
 40
4.0
 40
4.0
 40
5.0
 40
5.0
 40
5.0
 40
6.0
 40
6.0
 40
6.0
 40
6.0
 10
-0.4851142035590277
 20
-1.140109592013889
 10
-0.4851142035590277
 20
-1.140109592013889
 10
-0.4493204752604166
 20
-1.140109592013889
 10
-0.4493204752604166
 20
-1.140109592013889
 10
-0.4493204752604166
 20
-1.140109592013889
 10
-0.4493204752604166
 20
-1.137993706597222
 10
-0.4493204752604166
 20
-1.137993706597222
 10
-0.4493204752604166
 20
-1.132514105902778
 10
-0.4505954318576388
 20
-1.128343370225694
 10
-0.4531521267361111
 20
-1.12548828125
 10
-0.4557088216145833
 20
-1.122639973958333
 10
-0.4594319661458333
 20
-1.121209038628472
 10
-0.4643215603298611
 20
-1.121209038628472
 10
-0.4693671332465277
 20
-1.121209038628472
 10
-0.4736260308159722
 20
-1.122802734375
 10
-0.4771050347222222
 20
-1.125990125868056
 10
-0.4805908203125
 20
-1.129177517361111
 10
-0.4832628038194444
 20
-1.133884006076389
 10
-0.4851142035590277
 20
-1.140109592013889
 97
        0
 97
        0
 75
     2
 76
     1
 98
        0
  0
SPLINE
  5
53
330
43
100
AcDbEntity
  8
Layer 3
370
     0
100
AcDbSpline
210
0.0
220
0.0
230
1.0
 70
    11
 71
     3
 72
    50
 73
    46
 74
     0
 42
0.0000000001
 43
0.0000000001
 12
1.0
 22
0.0
 32
0.0
 13
1.0
 23
0.0
 33
0.0
 40
0.0
 40
0.0
 40
0.0
 40
0.0
 40
1.0
 40
1.0
 40
1.0
 40
2.0
 40
2.0
 40
2.0
 40
3.0
 40
3.0
 40
3.0
 40
4.0
 40
4.0
 40
4.0
 40
5.0
 40
5.0
 40
5.0
 40
6.0
 40
6.0
 40
6.0
 40
7.0
 40
7.0
 40
7.0
 40
8.0
 40
8.0
 40
8.0
 40
9.0
 40
9.0
 40
9.0
 40
10.0
 40
10.0
 40
10.0
 40
11.0
 40
11.0
 40
11.0
 40
12.0
 40
12.0
 40
12.0
 40
13.0
 40
13.0
 40
13.0
 40
14.0
 40
14.0
 40
14.0
 40
15.0
 40
15.0
 40
15.0
 40
15.0
 10
-0.3876681857638889
 20
-1.207248263888889
 30
0.0
 10
-0.3876681857638889
 20
-1.207248263888889
 30
0.0
 10
-0.36444091796875
 20
-1.051737467447917
 30
0.0
 10
-0.36444091796875
 20
-1.051737467447917
 30
0.0
 10
-0.36444091796875
 20
-1.051737467447917
 30
0.0
 10
-0.3346489800347222
 20
-1.051737467447917
 30
0.0
 10
-0.3346489800347222
 20
-1.051737467447917
 30
0.0
 10
-0.3202718098958333
 20
-1.051737467447917
 30
0.0
 10
-0.3102484809027777
 20
-1.051995171440972
 30
0.0
 10
-0.3045789930555555
 20
-1.052510579427083
 30
0.0
 10
-0.2989095052083333
 20
-1.053032769097222
 30
0.0
 10
-0.2941487630208333
 20
-1.053914388020833
 30
0.0
 10
-0.2902967664930555
 20
-1.055168999565972
 30
0.0
 10
-0.2817721896701389
 20
-1.057759602864583
 30
0.0
 10
-0.2751939561631944
 20
-1.062079535590278
 30
0.0
 10
-0.2705620659722222
 20
-1.068135579427083
 30
0.0
 10
-0.26593017578125
 20
-1.074198404947917
 30
0.0
 10
-0.2636176215277778
 20
-1.081434461805556
 30
0.0
 10
-0.2636176215277778
 20
-1.089857313368056
 30
0.0
 10
-0.2636176215277778
 20
-1.097391764322917
 30
0.0
 10
-0.2654486762152778
 20
-1.103929307725694
 30
0.0
 10
-0.2691175672743055
 20
-1.109469943576389
 30
0.0
 10
-0.2727864583333333
 20
-1.115010579427083
 30
0.0
 10
-0.2781032986111111
 20
-1.119296603732639
 30
0.0
 10
-0.2850680881076389
 20
-1.122321234809028
 30
0.0
 10
-0.2760281032986111
 20
-1.12603759765625
 30
0.0
 10
-0.26910400390625
 20
-1.131259494357639
 30
0.0
 10
-0.2642822265625
 20
-1.137980143229167
 30
0.0
 10
-0.2594672309027778
 20
-1.144707573784722
 30
0.0
 10
-0.2570597330729166
 20
-1.152418348524306
 30
0.0
 10
-0.2570597330729166
 20
-1.161105685763889
 30
0.0
 10
-0.2570597330729166
 20
-1.167568630642361
 30
0.0
 10
-0.2584092881944444
 20
-1.173590766059028
 30
0.0
 10
-0.2611151801215278
 20
-1.179165310329861
 30
0.0
 10
-0.2638210720486111
 20
-1.184733072916667
 30
0.0
 10
-0.2677680121527778
 20
-1.189676920572917
 30
0.0
 10
-0.2729560004340278
 20
-1.193983289930556
 30
0.0
 10
-0.2786593967013889
 20
-1.198744032118056
 30
0.0
 10
-0.2856106228298611
 20
-1.202141655815972
 30
0.0
 10
-0.2937961154513889
 20
-1.204182942708333
 30
0.0
 10
-0.3019883897569444
 20
-1.206224229600694
 30
0.0
 10
-0.3133409288194444
 20
-1.207248263888889
 30
0.0
 10
-0.3278672960069444
 20
-1.207248263888889
 30
0.0
 10
-0.3278672960069444
 20
-1.207248263888889
 30
0.0
 10
-0.3876681857638889
 20
-1.207248263888889
 30
0.0
 10
-0.3876681857638889
 20
-1.207248263888889
 30
0.0
  0
SPLINE
  5
54
330
43
100
AcDbEntity
  8
Layer 3
370
     0
100
AcDbSpline
210
0.0
220
0.0
230
1.0
 70
    11
 71
     3
 72
    26
 73
    22
 74
     0
 42
0.0000000001
 43
0.0000000001
 12
1.0
 22
0.0
 32
0.0
 13
1.0
 23
0.0
 33
0.0
 40
0.0
 40
0.0
 40
0.0
 40
0.0
 40
1.0
 40
1.0
 40
1.0
 40
2.0
 40
2.0
 40
2.0
 40
3.0
 40
3.0
 40
3.0
 40
4.0
 40
4.0
 40
4.0
 40
5.0
 40
5.0
 40
5.0
 40
6.0
 40
6.0
 40
6.0
 40
7.0
 40
7.0
 40
7.0
 40
7.0
 10
-0.3503214518229166
 20
-1.182685004340278
 30
0.0
 10
-0.3503214518229166
 20
-1.182685004340278
 30
0.0
 10
-0.3233100043402777
 20
-1.182685004340278
 30
0.0
 10
-0.3233100043402777
 20
-1.182685004340278
 30
0.0
 10
-0.3127848307291666
 20
-1.182685004340278
 30
0.0
 10
-0.3046875
 20
-1.180616590711806
 30
0.0
 10
-0.2990180121527777
 20
-1.176479763454861
 30
0.0
 10
-0.2933485243055555
 20
-1.172349717881944
 30
0.0
 10
-0.2905137803819444
 20
-1.166490342881944
 30
0.0
 10
-0.2905137803819444
 20
-1.158894856770833
 30
0.0
 10
-0.2905137803819444
 20
-1.150553385416667
 30
0.0
 10
-0.2932807074652777
 20
-1.1446533203125
 30
0.0
 10
-0.2988009982638889
 20
-1.141187879774306
 30
0.0
 10
-0.3043212890625
 20
-1.137729220920139
 30
0.0
 10
-0.3141547309027777
 20
-1.135993109809028
 30
0.0
 10
-0.32830810546875
 20
-1.135993109809028
 30
0.0
 10
-0.32830810546875
 20
-1.135993109809028
 30
0.0
 10
-0.3433159722222222
 20
-1.135993109809028
 30
0.0
 10
-0.3433159722222222
 20
-1.135993109809028
 30
0.0
 10
-0.3433159722222222
 20
-1.135993109809028
 30
0.0
 10
-0.3503214518229166
 20
-1.182685004340278
 30
0.0
 10
-0.3503214518229166
 20
-1.182685004340278
 30
0.0
  0
SPLINE
  5
55
330
43
100
AcDbEntity
  8
Layer 3
370
     0
100
AcDbSpline
210
0.0
220
0.0
230
1.0
 70
    11
 71
     3
 72
    26
 73
    22
 74
     0
 42
0.0000000001
 43
0.0000000001
 12
1.0
 22
0.0
 32
0.0
 13
1.0
 23
0.0
 33
0.0
 40
0.0
 40
0.0
 40
0.0
 40
0.0
 40
1.0
 40
1.0
 40
1.0
 40
2.0
 40
2.0
 40
2.0
 40
3.0
 40
3.0
 40
3.0
 40
4.0
 40
4.0
 40
4.0
 40
5.0
 40
5.0
 40
5.0
 40
6.0
 40
6.0
 40
6.0
 40
7.0
 40
7.0
 40
7.0
 40
7.0
 10
-0.3396470811631944
 20
-1.112542046440972
 30
0.0
 10
-0.3396470811631944
 20
-1.112542046440972
 30
0.0
 10
-0.3218655056423611
 20
-1.112542046440972
 30
0.0
 10
-0.3218655056423611
 20
-1.112542046440972
 30
0.0
 10
-0.3130425347222222
 20
-1.112542046440972
 30
0.0
 10
-0.3064846462673611
 20
-1.110975477430556
 30
0.0
 10
-0.3021918402777777
 20
-1.107842339409722
 30
0.0
 10
-0.2978922526041666
 20
-1.104715983072917
 30
0.0
 10
-0.2957424587673611
 20
-1.099941677517361
 30
0.0
 10
-0.2957424587673611
 20
-1.093532986111111
 30
0.0
 10
-0.2957424587673611
 20
-1.087497287326389
 30
0.0
 10
-0.2977973090277777
 20
-1.082967122395833
 30
0.0
 10
-0.3019137912326389
 20
-1.079942491319444
 30
0.0
 10
-0.3060234917534722
 20
-1.076924641927083
 30
0.0
 10
-0.3121541341145833
 20
-1.075412326388889
 30
0.0
 10
-0.3203057183159722
 20
-1.075412326388889
 30
0.0
 10
-0.3203057183159722
 20
-1.075412326388889
 30
0.0
 10
-0.3342013888888889
 20
-1.075412326388889
 30
0.0
 10
-0.3342013888888889
 20
-1.075412326388889
 30
0.0
 10
-0.3342013888888889
 20
-1.075412326388889
 30
0.0
 10
-0.3396470811631944
 20
-1.112542046440972
 30
0.0
 10
-0.3396470811631944
 20
-1.112542046440972
 30
0.0
  0
HATCH
  5
56
330
43
100
AcDbEntity
  8
Layer 3
 62
   250
100
AcDbHatch
 10
0.0
 20
0.0
 30
0.0
210
0.0
220
0.0
230
1.0
  2
SOLID
 70
     1
 71
     0
 91
        3
 92
        1
 93
        1
 72
     4
 94
        3
 73
     0
 74
     1
 95
       50
 96
       46
 40
0.0
 40
0.0
 40
0.0
 40
0.0
 40
1.0
 40
1.0
 40
1.0
 40
2.0
 40
2.0
 40
2.0
 40
3.0
 40
3.0
 40
3.0
 40
4.0
 40
4.0
 40
4.0
 40
5.0
 40
5.0
 40
5.0
 40
6.0
 40
6.0
 40
6.0
 40
7.0
 40
7.0
 40
7.0
 40
8.0
 40
8.0
 40
8.0
 40
9.0
 40
9.0
 40
9.0
 40
10.0
 40
10.0
 40
10.0
 40
11.0
 40
11.0
 40
11.0
 40
12.0
 40
12.0
 40
12.0
 40
13.0
 40
13.0
 40
13.0
 40
14.0
 40
14.0
 40
14.0
 40
15.0
 40
15.0
 40
15.0
 40
15.0
 10
-0.3876681857638889
 20
-1.207248263888889
 10
-0.3876681857638889
 20
-1.207248263888889
 10
-0.36444091796875
 20
-1.051737467447917
 10
-0.36444091796875
 20
-1.051737467447917
 10
-0.36444091796875
 20
-1.051737467447917
 10
-0.3346489800347222
 20
-1.051737467447917
 10
-0.3346489800347222
 20
-1.051737467447917
 10
-0.3202718098958333
 20
-1.051737467447917
 10
-0.3102484809027777
 20
-1.051995171440972
 10
-0.3045789930555555
 20
-1.052510579427083
 10
-0.2989095052083333
 20
-1.053032769097222
 10
-0.2941487630208333
 20
-1.053914388020833
 10
-0.2902967664930555
 20
-1.055168999565972
 10
-0.2817721896701389
 20
-1.057759602864583
 10
-0.2751939561631944
 20
-1.062079535590278
 10
-0.2705620659722222
 20
-1.068135579427083
 10
-0.26593017578125
 20
-1.074198404947917
 10
-0.2636176215277778
 20
-1.081434461805556
 10
-0.2636176215277778
 20
-1.089857313368056
 10
-0.2636176215277778
 20
-1.097391764322917
 10
-0.2654486762152778
 20
-1.103929307725694
 10
-0.2691175672743055
 20
-1.109469943576389
 10
-0.2727864583333333
 20
-1.115010579427083
 10
-0.2781032986111111
 20
-1.119296603732639
 10
-0.2850680881076389
 20
-1.122321234809028
 10
-0.2760281032986111
 20
-1.12603759765625
 10
-0.26910400390625
 20
-1.131259494357639
 10
-0.2642822265625
 20
-1.137980143229167
 10
-0.2594672309027778
 20
-1.144707573784722
 10
-0.2570597330729166
 20
-1.152418348524306
 10
-0.2570597330729166
 20
-1.161105685763889
 10
-0.2570597330729166
 20
-1.167568630642361
 10
-0.2584092881944444
 20
-1.173590766059028
 10
-0.2611151801215278
 20
-1.179165310329861
 10
-0.2638210720486111
 20
-1.184733072916667
 10
-0.2677680121527778
 20
-1.189676920572917
 10
-0.2729560004340278
 20
-1.193983289930556
 10
-0.2786593967013889
 20
-1.198744032118056
 10
-0.2856106228298611
 20
-1.202141655815972
 10
-0.2937961154513889
 20
-1.204182942708333
 10
-0.3019883897569444
 20
-1.206224229600694
 10
-0.3133409288194444
 20
-1.207248263888889
 10
-0.3278672960069444
 20
-1.207248263888889
 10
-0.3278672960069444
 20
-1.207248263888889
 10
-0.3876681857638889
 20
-1.207248263888889
 10
-0.3876681857638889
 20
-1.207248263888889
 97
        0
 97
        0
 92
        1
 93
        1
 72
     4
 94
        3
 73
     0
 74
     1
 95
       26
 96
       22
 40
0.0
 40
0.0
 40
0.0
 40
0.0
 40
1.0
 40
1.0
 40
1.0
 40
2.0
 40
2.0
 40
2.0
 40
3.0
 40
3.0
 40
3.0
 40
4.0
 40
4.0
 40
4.0
 40
5.0
 40
5.0
 40
5.0
 40
6.0
 40
6.0
 40
6.0
 40
7.0
 40
7.0
 40
7.0
 40
7.0
 10
-0.3503214518229166
 20
-1.182685004340278
 10
-0.3503214518229166
 20
-1.182685004340278
 10
-0.3233100043402777
 20
-1.182685004340278
 10
-0.3233100043402777
 20
-1.182685004340278
 10
-0.3127848307291666
 20
-1.182685004340278
 10
-0.3046875
 20
-1.180616590711806
 10
-0.2990180121527777
 20
-1.176479763454861
 10
-0.2933485243055555
 20
-1.172349717881944
 10
-0.2905137803819444
 20
-1.166490342881944
 10
-0.2905137803819444
 20
-1.158894856770833
 10
-0.2905137803819444
 20
-1.150553385416667
 10
-0.2932807074652777
 20
-1.1446533203125
 10
-0.2988009982638889
 20
-1.141187879774306
 10
-0.3043212890625
 20
-1.137729220920139
 10
-0.3141547309027777
 20
-1.135993109809028
 10
-0.32830810546875
 20
-1.135993109809028
 10
-0.32830810546875
 20
-1.135993109809028
 10
-0.3433159722222222
 20
-1.135993109809028
 10
-0.3433159722222222
 20
-1.135993109809028
 10
-0.3433159722222222
 20
-1.135993109809028
 10
-0.3503214518229166
 20
-1.182685004340278
 10
-0.3503214518229166
 20
-1.182685004340278
 97
        0
 97
        0
 92
        1
 93
        1
 72
     4
 94
        3
 73
     0
 74
     1
 95
       26
 96
       22
 40
0.0
 40
0.0
 40
0.0
 40
0.0
 40
1.0
 40
1.0
 40
1.0
 40
2.0
 40
2.0
 40
2.0
 40
3.0
 40
3.0
 40
3.0
 40
4.0
 40
4.0
 40
4.0
 40
5.0
 40
5.0
 40
5.0
 40
6.0
 40
6.0
 40
6.0
 40
7.0
 40
7.0
 40
7.0
 40
7.0
 10
-0.3396470811631944
 20
-1.112542046440972
 10
-0.3396470811631944
 20
-1.112542046440972
 10
-0.3218655056423611
 20
-1.112542046440972
 10
-0.3218655056423611
 20
-1.112542046440972
 10
-0.3130425347222222
 20
-1.112542046440972
 10
-0.3064846462673611
 20
-1.110975477430556
 10
-0.3021918402777777
 20
-1.107842339409722
 10
-0.2978922526041666
 20
-1.104715983072917
 10
-0.2957424587673611
 20
-1.099941677517361
 10
-0.2957424587673611
 20
-1.093532986111111
 10
-0.2957424587673611
 20
-1.087497287326389
 10
-0.2977973090277777
 20
-1.082967122395833
 10
-0.3019137912326389
 20
-1.079942491319444
 10
-0.3060234917534722
 20
-1.076924641927083
 10
-0.3121541341145833
 20
-1.075412326388889
 10
-0.3203057183159722
 20
-1.075412326388889
 10
-0.3203057183159722
 20
-1.075412326388889
 10
-0.3342013888888889
 20
-1.075412326388889
 10
-0.3342013888888889
 20
-1.075412326388889
 10
-0.3342013888888889
 20
-1.075412326388889
 10
-0.3396470811631944
 20
-1.112542046440972
 10
-0.3396470811631944
 20
-1.112542046440972
 97
        0
 97
        0
 75
     2
 76
     1
 98
        0
  0
SPLINE
  5
57
330
43
100
AcDbEntity
  8
Layer 3
370
     0
100
AcDbSpline
210
0.0
220
0.0
230
1.0
 70
    11
 71
     3
 72
    41
 73
    37
 74
     0
 42
0.0000000001
 43
0.0000000001
 12
1.0
 22
0.0
 32
0.0
 13
1.0
 23
0.0
 33
0.0
 40
0.0
 40
0.0
 40
0.0
 40
0.0
 40
1.0
 40
1.0
 40
1.0
 40
2.0
 40
2.0
 40
2.0
 40
3.0
 40
3.0
 40
3.0
 40
4.0
 40
4.0
 40
4.0
 40
5.0
 40
5.0
 40
5.0
 40
6.0
 40
6.0
 40
6.0
 40
7.0
 40
7.0
 40
7.0
 40
8.0
 40
8.0
 40
8.0
 40
9.0
 40
9.0
 40
9.0
 40
10.0
 40
10.0
 40
10.0
 40
11.0
 40
11.0
 40
11.0
 40
12.0
 40
12.0
 40
12.0
 40
12.0
 10
-0.1613905164930556
 20
-1.207248263888889
 30
0.0
 10
-0.1613905164930556
 20
-1.207248263888889
 30
0.0
 10
-0.1602783203125
 20
-1.199022081163194
 30
0.0
 10
-0.1602783203125
 20
-1.199022081163194
 30
0.0
 10
-0.1653917100694444
 20
-1.202582465277778
 30
0.0
 10
-0.1703016493055556
 20
-1.205173068576389
 30
0.0
 10
-0.1750081380208333
 20
-1.206800672743056
 30
0.0
 10
-0.1797146267361111
 20
-1.20843505859375
 30
0.0
 10
-0.18450927734375
 20
-1.209248860677083
 30
0.0
 10
-0.1894056532118056
 20
-1.209248860677083
 30
0.0
 10
-0.2005954318576389
 20
-1.209248860677083
 30
0.0
 10
-0.2094862196180556
 20
-1.205342610677083
 30
0.0
 10
-0.2160780164930556
 20
-1.197523328993056
 30
0.0
 10
-0.2226765950520833
 20
-1.189704047309028
 30
0.0
 10
-0.2259724934895833
 20
-1.179124620225694
 30
0.0
 10
-0.2259724934895833
 20
-1.165785047743056
 30
0.0
 10
-0.2259724934895833
 20
-1.156446668836806
 30
0.0
 10
-0.2241753472222222
 20
-1.147725423177083
 30
0.0
 10
-0.2205810546875
 20
-1.139607747395833
 30
0.0
 10
-0.2169867621527778
 20
-1.131490071614583
 30
0.0
 10
-0.2118191189236111
 20
-1.124586317274306
 30
0.0
 10
-0.205078125
 20
-1.118876139322917
 30
0.0
 10
-0.19781494140625
 20
-1.112725151909722
 30
0.0
 10
-0.1893107096354167
 20
-1.108357747395833
 30
0.0
 10
-0.1795654296875
 20
-1.105760362413194
 30
0.0
 10
-0.1698201497395833
 20
-1.103169759114583
 30
0.0
 10
-0.1542019314236111
 20
-1.10186767578125
 30
0.0
 10
-0.1327107747395833
 20
-1.10186767578125
 30
0.0
 10
-0.1327107747395833
 20
-1.10186767578125
 30
0.0
 10
-0.1153700086805556
 20
-1.10186767578125
 30
0.0
 10
-0.1153700086805556
 20
-1.10186767578125
 30
0.0
 10
-0.1153700086805556
 20
-1.10186767578125
 30
0.0
 10
-0.1308186848958333
 20
-1.207248263888889
 30
0.0
 10
-0.1308186848958333
 20
-1.207248263888889
 30
0.0
 10
-0.1308186848958333
 20
-1.207248263888889
 30
0.0
 10
-0.1613905164930556
 20
-1.207248263888889
 30
0.0
 10
-0.1613905164930556
 20
-1.207248263888889
 30
0.0
  0
SPLINE
  5
58
330
43
100
AcDbEntity
  8
Layer 3
370
     0
100
AcDbSpline
210
0.0
220
0.0
230
1.0
 70
    11
 71
     3
 72
    32
 73
    28
 74
     0
 42
0.0000000001
 43
0.0000000001
 12
1.0
 22
0.0
 32
0.0
 13
1.0
 23
0.0
 33
0.0
 40
0.0
 40
0.0
 40
0.0
 40
0.0
 40
1.0
 40
1.0
 40
1.0
 40
2.0
 40
2.0
 40
2.0
 40
3.0
 40
3.0
 40
3.0
 40
4.0
 40
4.0
 40
4.0
 40
5.0
 40
5.0
 40
5.0
 40
6.0
 40
6.0
 40
6.0
 40
7.0
 40
7.0
 40
7.0
 40
8.0
 40
8.0
 40
8.0
 40
9.0
 40
9.0
 40
9.0
 40
9.0
 10
-0.1568332248263889
 20
-1.177015516493056
 30
0.0
 10
-0.1568332248263889
 20
-1.177015516493056
 30
0.0
 10
-0.1496107313368056
 20
-1.127102322048611
 30
0.0
 10
-0.1496107313368056
 20
-1.127102322048611
 30
0.0
 10
-0.1502753363715278
 20
-1.127027723524306
 30
0.0
 10
-0.1510348849826389
 20
-1.126973470052083
 30
0.0
 10
-0.1518893771701389
 20
-1.126932779947917
 30
0.0
 10
-0.1527370876736111
 20
-1.126898871527778
 30
0.0
 10
-0.1540188259548611
 20
-1.126878526475694
 30
0.0
 10
-0.1557210286458333
 20
-1.126878526475694
 30
0.0
 10
-0.1680230034722222
 20
-1.126878526475694
 30
0.0
 10
-0.1777682834201389
 20
-1.130438910590278
 30
0.0
 10
-0.1849568684895833
 20
-1.137552897135417
 30
0.0
 10
-0.1921454535590278
 20
-1.144666883680556
 30
0.0
 10
-0.19573974609375
 20
-1.154222276475694
 30
0.0
 10
-0.19573974609375
 20
-1.166232638888889
 30
0.0
 10
-0.19573974609375
 20
-1.172159830729167
 30
0.0
 10
-0.1943495008680556
 20
-1.176825629340278
 30
0.0
 10
-0.1915690104166667
 20
-1.18023681640625
 30
0.0
 10
-0.1887885199652778
 20
-1.183648003472222
 30
0.0
 10
-0.1850314670138889
 20
-1.185350206163194
 30
0.0
 10
-0.1802842881944444
 20
-1.185350206163194
 30
0.0
 10
-0.1765068901909722
 20
-1.185350206163194
 30
0.0
 10
-0.1726752387152778
 20
-1.184665256076389
 30
0.0
 10
-0.1687825520833333
 20
-1.183295355902778
 30
0.0
 10
-0.1648898654513889
 20
-1.181925455729167
 30
0.0
 10
-0.1609090169270833
 20
-1.179829915364583
 30
0.0
 10
-0.1568332248263889
 20
-1.177015516493056
 30
0.0
  0
HATCH
  5
59
330
43
100
AcDbEntity
  8
Layer 3
 62
   250
100
AcDbHatch
 10
0.0
 20
0.0
 30
0.0
210
0.0
220
0.0
230
1.0
  2
SOLID
 70
     1
 71
     0
 91
        2
 92
        1
 93
        1
 72
     4
 94
        3
 73
     0
 74
     1
 95
       41
 96
       37
 40
0.0
 40
0.0
 40
0.0
 40
0.0
 40
1.0
 40
1.0
 40
1.0
 40
2.0
 40
2.0
 40
2.0
 40
3.0
 40
3.0
 40
3.0
 40
4.0
 40
4.0
 40
4.0
 40
5.0
 40
5.0
 40
5.0
 40
6.0
 40
6.0
 40
6.0
 40
7.0
 40
7.0
 40
7.0
 40
8.0
 40
8.0
 40
8.0
 40
9.0
 40
9.0
 40
9.0
 40
10.0
 40
10.0
 40
10.0
 40
11.0
 40
11.0
 40
11.0
 40
12.0
 40
12.0
 40
12.0
 40
12.0
 10
-0.1613905164930556
 20
-1.207248263888889
 10
-0.1613905164930556
 20
-1.207248263888889
 10
-0.1602783203125
 20
-1.199022081163194
 10
-0.1602783203125
 20
-1.199022081163194
 10
-0.1653917100694444
 20
-1.202582465277778
 10
-0.1703016493055556
 20
-1.205173068576389
 10
-0.1750081380208333
 20
-1.206800672743056
 10
-0.1797146267361111
 20
-1.20843505859375
 10
-0.18450927734375
 20
-1.209248860677083
 10
-0.1894056532118056
 20
-1.209248860677083
 10
-0.2005954318576389
 20
-1.209248860677083
 10
-0.2094862196180556
 20
-1.205342610677083
 10
-0.2160780164930556
 20
-1.197523328993056
 10
-0.2226765950520833
 20
-1.189704047309028
 10
-0.2259724934895833
 20
-1.179124620225694
 10
-0.2259724934895833
 20
-1.165785047743056
 10
-0.2259724934895833
 20
-1.156446668836806
 10
-0.2241753472222222
 20
-1.147725423177083
 10
-0.2205810546875
 20
-1.139607747395833
 10
-0.2169867621527778
 20
-1.131490071614583
 10
-0.2118191189236111
 20
-1.124586317274306
 10
-0.205078125
 20
-1.118876139322917
 10
-0.19781494140625
 20
-1.112725151909722
 10
-0.1893107096354167
 20
-1.108357747395833
 10
-0.1795654296875
 20
-1.105760362413194
 10
-0.1698201497395833
 20
-1.103169759114583
 10
-0.1542019314236111
 20
-1.10186767578125
 10
-0.1327107747395833
 20
-1.10186767578125
 10
-0.1327107747395833
 20
-1.10186767578125
 10
-0.1153700086805556
 20
-1.10186767578125
 10
-0.1153700086805556
 20
-1.10186767578125
 10
-0.1153700086805556
 20
-1.10186767578125
 10
-0.1308186848958333
 20
-1.207248263888889
 10
-0.1308186848958333
 20
-1.207248263888889
 10
-0.1308186848958333
 20
-1.207248263888889
 10
-0.1613905164930556
 20
-1.207248263888889
 10
-0.1613905164930556
 20
-1.207248263888889
 97
        0
 97
        0
 92
        1
 93
        1
 72
     4
 94
        3
 73
     0
 74
     1
 95
       32
 96
       28
 40
0.0
 40
0.0
 40
0.0
 40
0.0
 40
1.0
 40
1.0
 40
1.0
 40
2.0
 40
2.0
 40
2.0
 40
3.0
 40
3.0
 40
3.0
 40
4.0
 40
4.0
 40
4.0
 40
5.0
 40
5.0
 40
5.0
 40
6.0
 40
6.0
 40
6.0
 40
7.0
 40
7.0
 40
7.0
 40
8.0
 40
8.0
 40
8.0
 40
9.0
 40
9.0
 40
9.0
 40
9.0
 10
-0.1568332248263889
 20
-1.177015516493056
 10
-0.1568332248263889
 20
-1.177015516493056
 10
-0.1496107313368056
 20
-1.127102322048611
 10
-0.1496107313368056
 20
-1.127102322048611
 10
-0.1502753363715278
 20
-1.127027723524306
 10
-0.1510348849826389
 20
-1.126973470052083
 10
-0.1518893771701389
 20
-1.126932779947917
 10
-0.1527370876736111
 20
-1.126898871527778
 10
-0.1540188259548611
 20
-1.126878526475694
 10
-0.1557210286458333
 20
-1.126878526475694
 10
-0.1680230034722222
 20
-1.126878526475694
 10
-0.1777682834201389
 20
-1.130438910590278
 10
-0.1849568684895833
 20
-1.137552897135417
 10
-0.1921454535590278
 20
-1.144666883680556
 10
-0.19573974609375
 20
-1.154222276475694
 10
-0.19573974609375
 20
-1.166232638888889
 10
-0.19573974609375
 20
-1.172159830729167
 10
-0.1943495008680556
 20
-1.176825629340278
 10
-0.1915690104166667
 20
-1.18023681640625
 10
-0.1887885199652778
 20
-1.183648003472222
 10
-0.1850314670138889
 20
-1.185350206163194
 10
-0.1802842881944444
 20
-1.185350206163194
 10
-0.1765068901909722
 20
-1.185350206163194
 10
-0.1726752387152778
 20
-1.184665256076389
 10
-0.1687825520833333
 20
-1.183295355902778
 10
-0.1648898654513889
 20
-1.181925455729167
 10
-0.1609090169270833
 20
-1.179829915364583
 10
-0.1568332248263889
 20
-1.177015516493056
 97
        0
 97
        0
 75
     2
 76
     1
 98
        0
  0
SPLINE
  5
5A
330
43
100
AcDbEntity
  8
Layer 3
370
     0
100
AcDbSpline
210
0.0
220
0.0
230
1.0
 70
    11
 71
     3
 72
    44
 73
    40
 74
     0
 42
0.0000000001
 43
0.0000000001
 12
1.0
 22
0.0
 32
0.0
 13
1.0
 23
0.0
 33
0.0
 40
0.0
 40
0.0
 40
0.0
 40
0.0
 40
1.0
 40
1.0
 40
1.0
 40
2.0
 40
2.0
 40
2.0
 40
3.0
 40
3.0
 40
3.0
 40
4.0
 40
4.0
 40
4.0
 40
5.0
 40
5.0
 40
5.0
 40
6.0
 40
6.0
 40
6.0
 40
7.0
 40
7.0
 40
7.0
 40
8.0
 40
8.0
 40
8.0
 40
9.0
 40
9.0
 40
9.0
 40
10.0
 40
10.0
 40
10.0
 40
11.0
 40
11.0
 40
11.0
 40
12.0
 40
12.0
 40
12.0
 40
13.0
 40
13.0
 40
13.0
 40
13.0
 10
0.0078599717881944
 20
-1.205695258246528
 30
0.0
 10
0.0019327799479167
 20
-1.206875271267361
 30
0.0
 10
-0.0036078559027778
 20
-1.207763671875
 30
0.0
 10
-0.0087551540798611
 20
-1.208360460069444
 30
0.0
 10
-0.0139092339409722
 20
-1.208950466579861
 30
0.0
 10
-0.0186360677083333
 20
-1.209248860677083
 30
0.0
 10
-0.0229288736979167
 20
-1.209248860677083
 30
0.0
 10
-0.0334540473090278
 20
-1.209248860677083
 30
0.0
 10
-0.0420328776041667
 20
-1.208563910590278
 30
0.0
 10
-0.0486653645833333
 20
-1.207194010416667
 30
0.0
 10
-0.0552978515625
 20
-1.205824110243056
 30
0.0
 10
-0.0609876844618056
 20
-1.203579372829861
 30
0.0
 10
-0.0657280815972222
 20
-1.200466579861111
 30
0.0
 10
-0.0728420681423611
 20
-1.195726182725694
 30
0.0
 10
-0.0782877604166667
 20
-1.189798990885417
 30
0.0
 10
-0.0820651584201389
 20
-1.182685004340278
 30
0.0
 10
-0.0858493381076389
 20
-1.175571017795139
 30
0.0
 10
-0.0877346462673611
 20
-1.167677137586806
 30
0.0
 10
-0.0877346462673611
 20
-1.159003363715278
 30
0.0
 10
-0.0877346462673611
 20
-1.141221788194444
 30
0.0
 10
-0.0815090603298611
 20
-1.126932779947917
 30
0.0
 10
-0.0690646701388889
 20
-1.11614990234375
 30
0.0
 10
-0.0566134982638889
 20
-1.105373806423611
 30
0.0
 10
-0.0400119357638889
 20
-1.099982367621528
 30
0.0
 10
-0.0192599826388889
 20
-1.099982367621528
 30
0.0
 10
-0.017333984375
 20
-1.099982367621528
 30
0.0
 10
-0.0153333875868056
 20
-1.100056966145833
 30
0.0
 10
-0.0132581922743056
 20
-1.100199381510417
 30
0.0
 10
-0.0111829969618056
 20
-1.100348578559028
 30
0.0
 10
-0.0091484917534722
 20
-1.100497775607639
 30
0.0
 10
-0.0071478949652778
 20
-1.10064697265625
 30
0.0
 10
-0.0071478949652778
 20
-1.10064697265625
 30
0.0
 10
0.0000813802083333
 20
-1.051737467447917
 30
0.0
 10
0.0000813802083333
 20
-1.051737467447917
 30
0.0
 10
0.0000813802083333
 20
-1.051737467447917
 30
0.0
 10
0.0308702256944444
 20
-1.051737467447917
 30
0.0
 10
0.0308702256944444
 20
-1.051737467447917
 30
0.0
 10
0.0308702256944444
 20
-1.051737467447917
 30
0.0
 10
0.0078599717881944
 20
-1.205695258246528
 30
0.0
 10
0.0078599717881944
 20
-1.205695258246528
 30
0.0
  0
SPLINE
  5
5B
330
43
100
AcDbEntity
  8
Layer 3
370
     0
100
AcDbSpline
210
0.0
220
0.0
230
1.0
 70
    11
 71
     3
 72
    32
 73
    28
 74
     0
 42
0.0000000001
 43
0.0000000001
 12
1.0
 22
0.0
 32
0.0
 13
1.0
 23
0.0
 33
0.0
 40
0.0
 40
0.0
 40
0.0
 40
0.0
 40
1.0
 40
1.0
 40
1.0
 40
2.0
 40
2.0
 40
2.0
 40
3.0
 40
3.0
 40
3.0
 40
4.0
 40
4.0
 40
4.0
 40
5.0
 40
5.0
 40
5.0
 40
6.0
 40
6.0
 40
6.0
 40
7.0
 40
7.0
 40
7.0
 40
8.0
 40
8.0
 40
8.0
 40
9.0
 40
9.0
 40
9.0
 40
9.0
 10
-0.0197075737847222
 20
-1.184461805555556
 30
0.0
 10
-0.0197075737847222
 20
-1.184461805555556
 30
0.0
 10
-0.0113728841145833
 20
-1.126878526475694
 30
0.0
 10
-0.0113728841145833
 20
-1.126878526475694
 30
0.0
 10
-0.0121120876736111
 20
-1.126803927951389
 30
0.0
 10
-0.0129462348090278
 20
-1.126749674479167
 30
0.0
 10
-0.0138685438368056
 20
-1.126715766059028
 30
0.0
 10
-0.0147976345486111
 20
-1.126675075954861
 30
0.0
 10
-0.0161471896701389
 20
-1.126654730902778
 30
0.0
 10
-0.0179307725694444
 20
-1.126654730902778
 30
0.0
 10
-0.0298597547743056
 20
-1.126654730902778
 30
0.0
 10
-0.0391777886284722
 20
-1.129584418402778
 30
0.0
 10
-0.0458848741319444
 20
-1.13543701171875
 30
0.0
 10
-0.0525919596354167
 20
-1.14129638671875
 30
0.0
 10
-0.0559421115451389
 20
-1.149373372395833
 30
0.0
 10
-0.0559421115451389
 20
-1.159674750434028
 30
0.0
 10
-0.0559421115451389
 20
-1.167751736111111
 30
0.0
 10
-0.05322265625
 20
-1.173936631944444
 30
0.0
 10
-0.0477769639756944
 20
-1.178236219618056
 30
0.0
 10
-0.0423244900173611
 20
-1.182535807291667
 30
0.0
 10
-0.0344916449652778
 20
-1.184685601128472
 30
0.0
 10
-0.0242648654513889
 20
-1.184685601128472
 30
0.0
 10
-0.0237494574652778
 20
-1.184685601128472
 30
0.0
 10
-0.0229831271701389
 20
-1.184644911024306
 30
0.0
 10
-0.0219862196180556
 20
-1.1845703125
 30
0.0
 10
-0.0209825303819444
 20
-1.184495713975694
 30
0.0
 10
-0.0202229817708333
 20
-1.184461805555556
 30
0.0
 10
-0.0197075737847222
 20
-1.184461805555556
 30
0.0
  0
HATCH
  5
5C
330
43
100
AcDbEntity
  8
Layer 3
 62
   250
100
AcDbHatch
 10
0.0
 20
0.0
 30
0.0
210
0.0
220
0.0
230
1.0
  2
SOLID
 70
     1
 71
     0
 91
        2
 92
        1
 93
        1
 72
     4
 94
        3
 73
     0
 74
     1
 95
       44
 96
       40
 40
0.0
 40
0.0
 40
0.0
 40
0.0
 40
1.0
 40
1.0
 40
1.0
 40
2.0
 40
2.0
 40
2.0
 40
3.0
 40
3.0
 40
3.0
 40
4.0
 40
4.0
 40
4.0
 40
5.0
 40
5.0
 40
5.0
 40
6.0
 40
6.0
 40
6.0
 40
7.0
 40
7.0
 40
7.0
 40
8.0
 40
8.0
 40
8.0
 40
9.0
 40
9.0
 40
9.0
 40
10.0
 40
10.0
 40
10.0
 40
11.0
 40
11.0
 40
11.0
 40
12.0
 40
12.0
 40
12.0
 40
13.0
 40
13.0
 40
13.0
 40
13.0
 10
0.0078599717881944
 20
-1.205695258246528
 10
0.0019327799479167
 20
-1.206875271267361
 10
-0.0036078559027778
 20
-1.207763671875
 10
-0.0087551540798611
 20
-1.208360460069444
 10
-0.0139092339409722
 20
-1.208950466579861
 10
-0.0186360677083333
 20
-1.209248860677083
 10
-0.0229288736979167
 20
-1.209248860677083
 10
-0.0334540473090278
 20
-1.209248860677083
 10
-0.0420328776041667
 20
-1.208563910590278
 10
-0.0486653645833333
 20
-1.207194010416667
 10
-0.0552978515625
 20
-1.205824110243056
 10
-0.0609876844618056
 20
-1.203579372829861
 10
-0.0657280815972222
 20
-1.200466579861111
 10
-0.0728420681423611
 20
-1.195726182725694
 10
-0.0782877604166667
 20
-1.189798990885417
 10
-0.0820651584201389
 20
-1.182685004340278
 10
-0.0858493381076389
 20
-1.175571017795139
 10
-0.0877346462673611
 20
-1.167677137586806
 10
-0.0877346462673611
 20
-1.159003363715278
 10
-0.0877346462673611
 20
-1.141221788194444
 10
-0.0815090603298611
 20
-1.126932779947917
 10
-0.0690646701388889
 20
-1.11614990234375
 10
-0.0566134982638889
 20
-1.105373806423611
 10
-0.0400119357638889
 20
-1.099982367621528
 10
-0.0192599826388889
 20
-1.099982367621528
 10
-0.017333984375
 20
-1.099982367621528
 10
-0.0153333875868056
 20
-1.100056966145833
 10
-0.0132581922743056
 20
-1.100199381510417
 10
-0.0111829969618056
 20
-1.100348578559028
 10
-0.0091484917534722
 20
-1.100497775607639
 10
-0.0071478949652778
 20
-1.10064697265625
 10
-0.0071478949652778
 20
-1.10064697265625
 10
0.0000813802083333
 20
-1.051737467447917
 10
0.0000813802083333
 20
-1.051737467447917
 10
0.0000813802083333
 20
-1.051737467447917
 10
0.0308702256944444
 20
-1.051737467447917
 10
0.0308702256944444
 20
-1.051737467447917
 10
0.0308702256944444
 20
-1.051737467447917
 10
0.0078599717881944
 20
-1.205695258246528
 10
0.0078599717881944
 20
-1.205695258246528
 97
        0
 97
        0
 92
        1
 93
        1
 72
     4
 94
        3
 73
     0
 74
     1
 95
       32
 96
       28
 40
0.0
 40
0.0
 40
0.0
 40
0.0
 40
1.0
 40
1.0
 40
1.0
 40
2.0
 40
2.0
 40
2.0
 40
3.0
 40
3.0
 40
3.0
 40
4.0
 40
4.0
 40
4.0
 40
5.0
 40
5.0
 40
5.0
 40
6.0
 40
6.0
 40
6.0
 40
7.0
 40
7.0
 40
7.0
 40
8.0
 40
8.0
 40
8.0
 40
9.0
 40
9.0
 40
9.0
 40
9.0
 10
-0.0197075737847222
 20
-1.184461805555556
 10
-0.0197075737847222
 20
-1.184461805555556
 10
-0.0113728841145833
 20
-1.126878526475694
 10
-0.0113728841145833
 20
-1.126878526475694
 10
-0.0121120876736111
 20
-1.126803927951389
 10
-0.0129462348090278
 20
-1.126749674479167
 10
-0.0138685438368056
 20
-1.126715766059028
 10
-0.0147976345486111
 20
-1.126675075954861
 10
-0.0161471896701389
 20
-1.126654730902778
 10
-0.0179307725694444
 20
-1.126654730902778
 10
-0.0298597547743056
 20
-1.126654730902778
 10
-0.0391777886284722
 20
-1.129584418402778
 10
-0.0458848741319444
 20
-1.13543701171875
 10
-0.0525919596354167
 20
-1.14129638671875
 10
-0.0559421115451389
 20
-1.149373372395833
 10
-0.0559421115451389
 20
-1.159674750434028
 10
-0.0559421115451389
 20
-1.167751736111111
 10
-0.05322265625
 20
-1.173936631944444
 10
-0.0477769639756944
 20
-1.178236219618056
 10
-0.0423244900173611
 20
-1.182535807291667
 10
-0.0344916449652778
 20
-1.184685601128472
 10
-0.0242648654513889
 20
-1.184685601128472
 10
-0.0237494574652778
 20
-1.184685601128472
 10
-0.0229831271701389
 20
-1.184644911024306
 10
-0.0219862196180556
 20
-1.1845703125
 10
-0.0209825303819444
 20
-1.184495713975694
 10
-0.0202229817708333
 20
-1.184461805555556
 10
-0.0197075737847222
 20
-1.184461805555556
 97
        0
 97
        0
 75
     2
 76
     1
 98
        0
  0
SPLINE
  5
5D
330
43
100
AcDbEntity
  8
Layer 3
370
     0
100
AcDbSpline
210
0.0
220
0.0
230
1.0
 70
    11
 71
     3
 72
    98
 73
    94
 74
     0
 42
0.0000000001
 43
0.0000000001
 12
1.0
 22
0.0
 32
0.0
 13
1.0
 23
0.0
 33
0.0
 40
0.0
 40
0.0
 40
0.0
 40
0.0
 40
1.0
 40
1.0
 40
1.0
 40
2.0
 40
2.0
 40
2.0
 40
3.0
 40
3.0
 40
3.0
 40
4.0
 40
4.0
 40
4.0
 40
5.0
 40
5.0
 40
5.0
 40
6.0
 40
6.0
 40
6.0
 40
7.0
 40
7.0
 40
7.0
 40
8.0
 40
8.0
 40
8.0
 40
9.0
 40
9.0
 40
9.0
 40
10.0
 40
10.0
 40
10.0
 40
11.0
 40
11.0
 40
11.0
 40
12.0
 40
12.0
 40
12.0
 40
13.0
 40
13.0
 40
13.0
 40
14.0
 40
14.0
 40
14.0
 40
15.0
 40
15.0
 40
15.0
 40
16.0
 40
16.0
 40
16.0
 40
17.0
 40
17.0
 40
17.0
 40
18.0
 40
18.0
 40
18.0
 40
19.0
 40
19.0
 40
19.0
 40
20.0
 40
20.0
 40
20.0
 40
21.0
 40
21.0
 40
21.0
 40
22.0
 40
22.0
 40
22.0
 40
23.0
 40
23.0
 40
23.0
 40
24.0
 40
24.0
 40
24.0
 40
25.0
 40
25.0
 40
25.0
 40
26.0
 40
26.0
 40
26.0
 40
27.0
 40
27.0
 40
27.0
 40
28.0
 40
28.0
 40
28.0
 40
29.0
 40
29.0
 40
29.0
 40
30.0
 40
30.0
 40
30.0
 40
31.0
 40
31.0
 40
31.0
 40
31.0
 10
0.0718451605902778
 20
-1.169677734375
 30
0.0
 10
0.0664333767361111
 20
-1.166266547309028
 30
0.0
 10
0.0622829861111111
 20
-1.162027994791667
 30
0.0
 10
0.0593939887152778
 20
-1.156948513454861
 30
0.0
 10
0.0565049913194444
 20
-1.151875813802083
 30
0.0
 10
0.0550604926215278
 20
-1.146260579427083
 30
0.0
 10
0.0550604926215278
 20
-1.140109592013889
 30
0.0
 10
0.0550604926215278
 20
-1.134474012586806
 30
0.0
 10
0.0564100477430556
 20
-1.129102918836806
 30
0.0
 10
0.0591159396701389
 20
-1.123989529079861
 30
0.0
 10
0.0618218315972222
 20
-1.118876139322917
 30
0.0
 10
0.0656195746527778
 20
-1.114542643229167
 30
0.0
 10
0.0705091688368056
 20
-1.110982259114583
 30
0.0
 10
0.0751817491319444
 20
-1.107652452256944
 30
0.0
 10
0.0810139973958333
 20
-1.105299207899306
 30
0.0
 10
0.0880194769965278
 20
-1.103922526041667
 30
0.0
 10
0.0950181749131944
 20
-1.102552625868056
 30
0.0
 10
0.1073744032118056
 20
-1.10186767578125
 30
0.0
 10
0.1250881618923611
 20
-1.10186767578125
 30
0.0
 10
0.1250881618923611
 20
-1.10186767578125
 30
0.0
 10
0.1622178819444444
 20
-1.10186767578125
 30
0.0
 10
0.1622178819444444
 20
-1.10186767578125
 30
0.0
 10
0.1622178819444444
 20
-1.10186767578125
 30
0.0
 10
0.1585489908854167
 20
-1.125325520833333
 30
0.0
 10
0.1585489908854167
 20
-1.125325520833333
 30
0.0
 10
0.1585489908854167
 20
-1.125325520833333
 30
0.0
 10
0.1426527235243056
 20
-1.125101725260417
 30
0.0
 10
0.1426527235243056
 20
-1.125101725260417
 30
0.0
 10
0.1437649197048611
 20
-1.128214518229167
 30
0.0
 10
0.1445787217881944
 20
-1.131008572048611
 30
0.0
 10
0.1451009114583333
 20
-1.133490668402778
 30
0.0
 10
0.1456163194444444
 20
-1.135979546440972
 30
0.0
 10
0.1458740234375
 20
-1.138258192274306
 30
0.0
 10
0.1458740234375
 20
-1.140333387586806
 30
0.0
 10
0.1458740234375
 20
-1.151448567708333
 30
0.0
 10
0.1416354709201389
 20
-1.160637749565972
 30
0.0
 10
0.1331515842013889
 20
-1.167900933159722
 30
0.0
 10
0.1246609157986111
 20
-1.175164116753472
 30
0.0
 10
0.1137152777777778
 20
-1.178792317708333
 30
0.0
 10
0.1003011067708333
 20
-1.178792317708333
 30
0.0
 10
0.099853515625
 20
-1.178792317708333
 30
0.0
 10
0.0987616644965278
 20
-1.178751627604167
 30
0.0
 10
0.0970187717013889
 20
-1.178677029079861
 30
0.0
 10
0.0952826605902778
 20
-1.178609212239583
 30
0.0
 10
0.0937025282118056
 20
-1.178568522135417
 30
0.0
 10
0.0922987196180556
 20
-1.178568522135417
 30
0.0
 10
0.089111328125
 20
-1.178568522135417
 30
0.0
 10
0.0866427951388889
 20
-1.179090711805556
 30
0.0
 10
0.0849066840277778
 20
-1.180128309461806
 30
0.0
 10
0.0831637912326389
 20
-1.181165907118056
 30
0.0
 10
0.0822957356770833
 20
-1.182610405815972
 30
0.0
 10
0.0822957356770833
 20
-1.184461805555556
 30
0.0
 10
0.0822957356770833
 20
-1.187425401475694
 30
0.0
 10
0.0886637369791667
 20
-1.189948187934028
 30
0.0
 10
0.1014133029513889
 20
-1.1920166015625
 30
0.0
 10
0.1047498914930556
 20
-1.192538791232639
 30
0.0
 10
0.1074150933159722
 20
-1.192986382378472
 30
0.0
 10
0.1094156901041667
 20
-1.193352593315972
 30
0.0
 10
0.1212700737847222
 20
-1.195502387152778
 30
0.0
 10
0.1302761501736111
 20
-1.199320475260417
 30
0.0
 10
0.1364271375868056
 20
-1.204800075954861
 30
0.0
 10
0.142578125
 20
-1.210286458333333
 30
0.0
 10
0.1456570095486111
 20
-1.217176649305556
 30
0.0
 10
0.1456570095486111
 20
-1.225477430555556
 30
0.0
 10
0.1456570095486111
 20
-1.236592610677083
 30
0.0
 10
0.1409098307291667
 20
-1.245096842447917
 30
0.0
 10
0.1314290364583333
 20
-1.250990125868056
 30
0.0
 10
0.1219414605034722
 20
-1.256883409288194
 30
0.0
 10
0.1083034939236111
 20
-1.25982666015625
 30
0.0
 10
0.0905219184027778
 20
-1.25982666015625
 30
0.0
 10
0.0741373697916667
 20
-1.25982666015625
 30
0.0
 10
0.0614284939236111
 20
-1.257568359375
 30
0.0
 10
0.0523885091145833
 20
-1.253044976128472
 30
0.0
 10
0.0433485243055556
 20
-1.248521592881944
 30
0.0
 10
0.0388319227430556
 20
-1.242228190104167
 30
0.0
 10
0.0388319227430556
 20
-1.234151204427083
 30
0.0
 10
0.0388319227430556
 20
-1.228590223524306
 30
0.0
 10
0.0411105685763889
 20
-1.223585340711806
 30
0.0
 10
0.0456678602430556
 20
-1.219143337673611
 30
0.0
 10
0.0502251519097222
 20
-1.214694552951389
 30
0.0
 10
0.0564643012152778
 20
-1.211398654513889
 30
0.0
 10
0.0643988715277778
 20
-1.209248860677083
 30
0.0
 10
0.0598008897569444
 20
-1.206509060329861
 30
0.0
 10
0.0564507378472222
 20
-1.203633626302083
 30
0.0
 10
0.0543348524305556
 20
-1.200636121961806
 30
0.0
 10
0.0522257486979167
 20
-1.1976318359375
 30
0.0
 10
0.0511678059895833
 20
-1.194390190972222
 30
0.0
 10
0.0511678059895833
 20
-1.190911187065972
 30
0.0
 10
0.0511678059895833
 20
-1.185723198784722
 30
0.0
 10
0.0530192057291667
 20
-1.181220160590278
 30
0.0
 10
0.0567287868923611
 20
-1.177402072482639
 30
0.0
 10
0.0604315863715278
 20
-1.173583984375
 30
0.0
 10
0.0654703776041667
 20
-1.171006944444444
 30
0.0
 10
0.0718451605902778
 20
-1.169677734375
 30
0.0
  0
SPLINE
  5
5E
330
43
100
AcDbEntity
  8
Layer 3
370
     0
100
AcDbSpline
210
0.0
220
0.0
230
1.0
 70
    11
 71
     3
 72
    29
 73
    25
 74
     0
 42
0.0000000001
 43
0.0000000001
 12
1.0
 22
0.0
 32
0.0
 13
1.0
 23
0.0
 33
0.0
 40
0.0
 40
0.0
 40
0.0
 40
0.0
 40
1.0
 40
1.0
 40
1.0
 40
2.0
 40
2.0
 40
2.0
 40
3.0
 40
3.0
 40
3.0
 40
4.0
 40
4.0
 40
4.0
 40
5.0
 40
5.0
 40
5.0
 40
6.0
 40
6.0
 40
6.0
 40
7.0
 40
7.0
 40
7.0
 40
8.0
 40
8.0
 40
8.0
 40
8.0
 10
0.0879652235243056
 20
-1.217251247829861
 30
0.0
 10
0.0817396375868056
 20
-1.218587239583333
 30
0.0
 10
0.0768839518229167
 20
-1.220309787326389
 30
0.0
 10
0.0733981662326389
 20
-1.222418891059028
 30
0.0
 10
0.0699191623263889
 20
-1.224534776475694
 30
0.0
 10
0.06817626953125
 20
-1.226847330729167
 30
0.0
 10
0.06817626953125
 20
-1.2293701171875
 30
0.0
 10
0.06817626953125
 20
-1.232557508680556
 30
0.0
 10
0.0701361762152778
 20
-1.2349853515625
 30
0.0
 10
0.0740695529513889
 20
-1.236646864149306
 30
0.0
 10
0.0779961480034722
 20
-1.238315158420139
 30
0.0
 10
0.0837741427951389
 20
-1.239149305555556
 30
0.0
 10
0.0914103190104167
 20
-1.239149305555556
 30
0.0
 10
0.0991143120659722
 20
-1.239149305555556
 30
0.0
 10
0.1048380533854167
 20
-1.238376193576389
 30
0.0
 10
0.10858154296875
 20
-1.23681640625
 30
0.0
 10
0.1123250325520833
 20
-1.235263400607639
 30
0.0
 10
0.11419677734375
 20
-1.232923719618056
 30
0.0
 10
0.11419677734375
 20
-1.229810926649306
 30
0.0
 10
0.11419677734375
 20
-1.227145724826389
 30
0.0
 10
0.1122097439236111
 20
-1.224846733940972
 30
0.0
 10
0.1082492404513889
 20
-1.222920735677083
 30
0.0
 10
0.1042819552951389
 20
-1.220994737413194
 30
0.0
 10
0.0975206163194444
 20
-1.219102647569444
 30
0.0
 10
0.0879652235243056
 20
-1.217251247829861
 30
0.0
  0
SPLINE
  5
5F
330
43
100
AcDbEntity
  8
Layer 3
370
     0
100
AcDbSpline
210
0.0
220
0.0
230
1.0
 70
    11
 71
     3
 72
    29
 73
    25
 74
     0
 42
0.0000000001
 43
0.0000000001
 12
1.0
 22
0.0
 32
0.0
 13
1.0
 23
0.0
 33
0.0
 40
0.0
 40
0.0
 40
0.0
 40
0.0
 40
1.0
 40
1.0
 40
1.0
 40
2.0
 40
2.0
 40
2.0
 40
3.0
 40
3.0
 40
3.0
 40
4.0
 40
4.0
 40
4.0
 40
5.0
 40
5.0
 40
5.0
 40
6.0
 40
6.0
 40
6.0
 40
7.0
 40
7.0
 40
7.0
 40
8.0
 40
8.0
 40
8.0
 40
8.0
 10
0.1024102105034722
 20
-1.122545030381944
 30
0.0
 10
0.0975206163194444
 20
-1.122545030381944
 30
0.0
 10
0.09344482421875
 20
-1.12445068359375
 30
0.0
 10
0.0901828342013889
 20
-1.128268771701389
 30
0.0
 10
0.0869208441840278
 20
-1.132086859809028
 30
0.0
 10
0.0852932400173611
 20
-1.136847601996528
 30
0.0
 10
0.0852932400173611
 20
-1.142550998263889
 30
0.0
 10
0.0852932400173611
 20
-1.147298177083333
 30
0.0
 10
0.0865342881944444
 20
-1.151109483506944
 30
0.0
 10
0.0890163845486111
 20
-1.154005262586806
 30
0.0
 10
0.0914984809027778
 20
-1.156894259982639
 30
0.0
 10
0.0947401258680556
 20
-1.158338758680556
 30
0.0
 10
0.0987481011284722
 20
-1.158338758680556
 30
0.0
 10
0.1037868923611111
 20
-1.158338758680556
 30
0.0
 10
0.1078762478298611
 20
-1.1563720703125
 30
0.0
 10
0.1110297309027778
 20
-1.152445475260417
 30
0.0
 10
0.1141764322916667
 20
-1.148518880208333
 30
0.0
 10
0.1157497829861111
 20
-1.143405490451389
 30
0.0
 10
0.1157497829861111
 20
-1.137105305989583
 30
0.0
 10
0.1157497829861111
 20
-1.132880316840278
 30
0.0
 10
0.1144883897569444
 20
-1.129401312934028
 30
0.0
 10
0.1119723849826389
 20
-1.126654730902778
 30
0.0
 10
0.1094495985243056
 20
-1.123914930555556
 30
0.0
 10
0.10626220703125
 20
-1.122545030381944
 30
0.0
 10
0.1024102105034722
 20
-1.122545030381944
 30
0.0
  0
HATCH
  5
60
330
43
100
AcDbEntity
  8
Layer 3
 62
   250
100
AcDbHatch
 10
0.0
 20
0.0
 30
0.0
210
0.0
220
0.0
230
1.0
  2
SOLID
 70
     1
 71
     0
 91
        3
 92
        1
 93
        1
 72
     4
 94
        3
 73
     0
 74
     1
 95
       98
 96
       94
 40
0.0
 40
0.0
 40
0.0
 40
0.0
 40
1.0
 40
1.0
 40
1.0
 40
2.0
 40
2.0
 40
2.0
 40
3.0
 40
3.0
 40
3.0
 40
4.0
 40
4.0
 40
4.0
 40
5.0
 40
5.0
 40
5.0
 40
6.0
 40
6.0
 40
6.0
 40
7.0
 40
7.0
 40
7.0
 40
8.0
 40
8.0
 40
8.0
 40
9.0
 40
9.0
 40
9.0
 40
10.0
 40
10.0
 40
10.0
 40
11.0
 40
11.0
 40
11.0
 40
12.0
 40
12.0
 40
12.0
 40
13.0
 40
13.0
 40
13.0
 40
14.0
 40
14.0
 40
14.0
 40
15.0
 40
15.0
 40
15.0
 40
16.0
 40
16.0
 40
16.0
 40
17.0
 40
17.0
 40
17.0
 40
18.0
 40
18.0
 40
18.0
 40
19.0
 40
19.0
 40
19.0
 40
20.0
 40
20.0
 40
20.0
 40
21.0
 40
21.0
 40
21.0
 40
22.0
 40
22.0
 40
22.0
 40
23.0
 40
23.0
 40
23.0
 40
24.0
 40
24.0
 40
24.0
 40
25.0
 40
25.0
 40
25.0
 40
26.0
 40
26.0
 40
26.0
 40
27.0
 40
27.0
 40
27.0
 40
28.0
 40
28.0
 40
28.0
 40
29.0
 40
29.0
 40
29.0
 40
30.0
 40
30.0
 40
30.0
 40
31.0
 40
31.0
 40
31.0
 40
31.0
 10
0.0718451605902778
 20
-1.169677734375
 10
0.0664333767361111
 20
-1.166266547309028
 10
0.0622829861111111
 20
-1.162027994791667
 10
0.0593939887152778
 20
-1.156948513454861
 10
0.0565049913194444
 20
-1.151875813802083
 10
0.0550604926215278
 20
-1.146260579427083
 10
0.0550604926215278
 20
-1.140109592013889
 10
0.0550604926215278
 20
-1.134474012586806
 10
0.0564100477430556
 20
-1.129102918836806
 10
0.0591159396701389
 20
-1.123989529079861
 10
0.0618218315972222
 20
-1.118876139322917
 10
0.0656195746527778
 20
-1.114542643229167
 10
0.0705091688368056
 20
-1.110982259114583
 10
0.0751817491319444
 20
-1.107652452256944
 10
0.0810139973958333
 20
-1.105299207899306
 10
0.0880194769965278
 20
-1.103922526041667
 10
0.0950181749131944
 20
-1.102552625868056
 10
0.1073744032118056
 20
-1.10186767578125
 10
0.1250881618923611
 20
-1.10186767578125
 10
0.1250881618923611
 20
-1.10186767578125
 10
0.1622178819444444
 20
-1.10186767578125
 10
0.1622178819444444
 20
-1.10186767578125
 10
0.1622178819444444
 20
-1.10186767578125
 10
0.1585489908854167
 20
-1.125325520833333
 10
0.1585489908854167
 20
-1.125325520833333
 10
0.1585489908854167
 20
-1.125325520833333
 10
0.1426527235243056
 20
-1.125101725260417
 10
0.1426527235243056
 20
-1.125101725260417
 10
0.1437649197048611
 20
-1.128214518229167
 10
0.1445787217881944
 20
-1.131008572048611
 10
0.1451009114583333
 20
-1.133490668402778
 10
0.1456163194444444
 20
-1.135979546440972
 10
0.1458740234375
 20
-1.138258192274306
 10
0.1458740234375
 20
-1.140333387586806
 10
0.1458740234375
 20
-1.151448567708333
 10
0.1416354709201389
 20
-1.160637749565972
 10
0.1331515842013889
 20
-1.167900933159722
 10
0.1246609157986111
 20
-1.175164116753472
 10
0.1137152777777778
 20
-1.178792317708333
 10
0.1003011067708333
 20
-1.178792317708333
 10
0.099853515625
 20
-1.178792317708333
 10
0.0987616644965278
 20
-1.178751627604167
 10
0.0970187717013889
 20
-1.178677029079861
 10
0.0952826605902778
 20
-1.178609212239583
 10
0.0937025282118056
 20
-1.178568522135417
 10
0.0922987196180556
 20
-1.178568522135417
 10
0.089111328125
 20
-1.178568522135417
 10
0.0866427951388889
 20
-1.179090711805556
 10
0.0849066840277778
 20
-1.180128309461806
 10
0.0831637912326389
 20
-1.181165907118056
 10
0.0822957356770833
 20
-1.182610405815972
 10
0.0822957356770833
 20
-1.184461805555556
 10
0.0822957356770833
 20
-1.187425401475694
 10
0.0886637369791667
 20
-1.189948187934028
 10
0.1014133029513889
 20
-1.1920166015625
 10
0.1047498914930556
 20
-1.192538791232639
 10
0.1074150933159722
 20
-1.192986382378472
 10
0.1094156901041667
 20
-1.193352593315972
 10
0.1212700737847222
 20
-1.195502387152778
 10
0.1302761501736111
 20
-1.199320475260417
 10
0.1364271375868056
 20
-1.204800075954861
 10
0.142578125
 20
-1.210286458333333
 10
0.1456570095486111
 20
-1.217176649305556
 10
0.1456570095486111
 20
-1.225477430555556
 10
0.1456570095486111
 20
-1.236592610677083
 10
0.1409098307291667
 20
-1.245096842447917
 10
0.1314290364583333
 20
-1.250990125868056
 10
0.1219414605034722
 20
-1.256883409288194
 10
0.1083034939236111
 20
-1.25982666015625
 10
0.0905219184027778
 20
-1.25982666015625
 10
0.0741373697916667
 20
-1.25982666015625
 10
0.0614284939236111
 20
-1.257568359375
 10
0.0523885091145833
 20
-1.253044976128472
 10
0.0433485243055556
 20
-1.248521592881944
 10
0.0388319227430556
 20
-1.242228190104167
 10
0.0388319227430556
 20
-1.234151204427083
 10
0.0388319227430556
 20
-1.228590223524306
 10
0.0411105685763889
 20
-1.223585340711806
 10
0.0456678602430556
 20
-1.219143337673611
 10
0.0502251519097222
 20
-1.214694552951389
 10
0.0564643012152778
 20
-1.211398654513889
 10
0.0643988715277778
 20
-1.209248860677083
 10
0.0598008897569444
 20
-1.206509060329861
 10
0.0564507378472222
 20
-1.203633626302083
 10
0.0543348524305556
 20
-1.200636121961806
 10
0.0522257486979167
 20
-1.1976318359375
 10
0.0511678059895833
 20
-1.194390190972222
 10
0.0511678059895833
 20
-1.190911187065972
 10
0.0511678059895833
 20
-1.185723198784722
 10
0.0530192057291667
 20
-1.181220160590278
 10
0.0567287868923611
 20
-1.177402072482639
 10
0.0604315863715278
 20
-1.173583984375
 10
0.0654703776041667
 20
-1.171006944444444
 10
0.0718451605902778
 20
-1.169677734375
 97
        0
 97
        0
 92
        1
 93
        1
 72
     4
 94
        3
 73
     0
 74
     1
 95
       29
 96
       25
 40
0.0
 40
0.0
 40
0.0
 40
0.0
 40
1.0
 40
1.0
 40
1.0
 40
2.0
 40
2.0
 40
2.0
 40
3.0
 40
3.0
 40
3.0
 40
4.0
 40
4.0
 40
4.0
 40
5.0
 40
5.0
 40
5.0
 40
6.0
 40
6.0
 40
6.0
 40
7.0
 40
7.0
 40
7.0
 40
8.0
 40
8.0
 40
8.0
 40
8.0
 10
0.0879652235243056
 20
-1.217251247829861
 10
0.0817396375868056
 20
-1.218587239583333
 10
0.0768839518229167
 20
-1.220309787326389
 10
0.0733981662326389
 20
-1.222418891059028
 10
0.0699191623263889
 20
-1.224534776475694
 10
0.06817626953125
 20
-1.226847330729167
 10
0.06817626953125
 20
-1.2293701171875
 10
0.06817626953125
 20
-1.232557508680556
 10
0.0701361762152778
 20
-1.2349853515625
 10
0.0740695529513889
 20
-1.236646864149306
 10
0.0779961480034722
 20
-1.238315158420139
 10
0.0837741427951389
 20
-1.239149305555556
 10
0.0914103190104167
 20
-1.239149305555556
 10
0.0991143120659722
 20
-1.239149305555556
 10
0.1048380533854167
 20
-1.238376193576389
 10
0.10858154296875
 20
-1.23681640625
 10
0.1123250325520833
 20
-1.235263400607639
 10
0.11419677734375
 20
-1.232923719618056
 10
0.11419677734375
 20
-1.229810926649306
 10
0.11419677734375
 20
-1.227145724826389
 10
0.1122097439236111
 20
-1.224846733940972
 10
0.1082492404513889
 20
-1.222920735677083
 10
0.1042819552951389
 20
-1.220994737413194
 10
0.0975206163194444
 20
-1.219102647569444
 10
0.0879652235243056
 20
-1.217251247829861
 97
        0
 97
        0
 92
        1
 93
        1
 72
     4
 94
        3
 73
     0
 74
     1
 95
       29
 96
       25
 40
0.0
 40
0.0
 40
0.0
 40
0.0
 40
1.0
 40
1.0
 40
1.0
 40
2.0
 40
2.0
 40
2.0
 40
3.0
 40
3.0
 40
3.0
 40
4.0
 40
4.0
 40
4.0
 40
5.0
 40
5.0
 40
5.0
 40
6.0
 40
6.0
 40
6.0
 40
7.0
 40
7.0
 40
7.0
 40
8.0
 40
8.0
 40
8.0
 40
8.0
 10
0.1024102105034722
 20
-1.122545030381944
 10
0.0975206163194444
 20
-1.122545030381944
 10
0.09344482421875
 20
-1.12445068359375
 10
0.0901828342013889
 20
-1.128268771701389
 10
0.0869208441840278
 20
-1.132086859809028
 10
0.0852932400173611
 20
-1.136847601996528
 10
0.0852932400173611
 20
-1.142550998263889
 10
0.0852932400173611
 20
-1.147298177083333
 10
0.0865342881944444
 20
-1.151109483506944
 10
0.0890163845486111
 20
-1.154005262586806
 10
0.0914984809027778
 20
-1.156894259982639
 10
0.0947401258680556
 20
-1.158338758680556
 10
0.0987481011284722
 20
-1.158338758680556
 10
0.1037868923611111
 20
-1.158338758680556
 10
0.1078762478298611
 20
-1.1563720703125
 10
0.1110297309027778
 20
-1.152445475260417
 10
0.1141764322916667
 20
-1.148518880208333
 10
0.1157497829861111
 20
-1.143405490451389
 10
0.1157497829861111
 20
-1.137105305989583
 10
0.1157497829861111
 20
-1.132880316840278
 10
0.1144883897569444
 20
-1.129401312934028
 10
0.1119723849826389
 20
-1.126654730902778
 10
0.1094495985243056
 20
-1.123914930555556
 10
0.10626220703125
 20
-1.122545030381944
 10
0.1024102105034722
 20
-1.122545030381944
 97
        0
 97
        0
 75
     2
 76
     1
 98
        0
  0
SPLINE
  5
61
330
43
100
AcDbEntity
  8
Layer 3
370
     0
100
AcDbSpline
210
0.0
220
0.0
230
1.0
 70
    11
 71
     3
 72
    59
 73
    55
 74
     0
 42
0.0000000001
 43
0.0000000001
 12
1.0
 22
0.0
 32
0.0
 13
1.0
 23
0.0
 33
0.0
 40
0.0
 40
0.0
 40
0.0
 40
0.0
 40
1.0
 40
1.0
 40
1.0
 40
2.0
 40
2.0
 40
2.0
 40
3.0
 40
3.0
 40
3.0
 40
4.0
 40
4.0
 40
4.0
 40
5.0
 40
5.0
 40
5.0
 40
6.0
 40
6.0
 40
6.0
 40
7.0
 40
7.0
 40
7.0
 40
8.0
 40
8.0
 40
8.0
 40
9.0
 40
9.0
 40
9.0
 40
10.0
 40
10.0
 40
10.0
 40
11.0
 40
11.0
 40
11.0
 40
12.0
 40
12.0
 40
12.0
 40
13.0
 40
13.0
 40
13.0
 40
14.0
 40
14.0
 40
14.0
 40
15.0
 40
15.0
 40
15.0
 40
16.0
 40
16.0
 40
16.0
 40
17.0
 40
17.0
 40
17.0
 40
18.0
 40
18.0
 40
18.0
 40
18.0
 10
0.2735460069444444
 20
-1.200914171006944
 30
0.0
 10
0.2679172092013889
 20
-1.203728569878472
 30
0.0
 10
0.2617662217881944
 20
-1.205858018663194
 30
0.0
 10
0.2550930447048611
 20
-1.207302517361111
 30
0.0
 10
0.2484266493055556
 20
-1.208747016059028
 30
0.0
 10
0.2414957682291667
 20
-1.20947265625
 30
0.0
 10
0.2343071831597222
 20
-1.20947265625
 30
0.0
 10
0.2185262044270833
 20
-1.20947265625
 30
0.0
 10
0.2060207790798611
 20
-1.20489501953125
 30
0.0
 10
0.1967909071180556
 20
-1.195746527777778
 30
0.0
 10
0.1875678168402778
 20
-1.186591254340278
 30
0.0
 10
0.1829562717013889
 20
-1.174119737413194
 30
0.0
 10
0.1829562717013889
 20
-1.158338758680556
 30
0.0
 10
0.1829562717013889
 20
-1.140848795572917
 30
0.0
 10
0.1882866753472222
 20
-1.126715766059028
 30
0.0
 10
0.1989610460069444
 20
-1.115932888454861
 30
0.0
 10
0.2096286349826389
 20
-1.105150010850694
 30
0.0
 10
0.2237074110243056
 20
-1.099758572048611
 30
0.0
 10
0.2412041558159722
 20
-1.099758572048611
 30
0.0
 10
0.2553575303819444
 20
-1.099758572048611
 30
0.0
 10
0.2662828233506944
 20
-1.103834364149306
 30
0.0
 10
0.2739935980902778
 20
-1.111985948350694
 30
0.0
 10
0.2816975911458333
 20
-1.120137532552083
 30
0.0
 10
0.2855563693576389
 20
-1.131700303819444
 30
0.0
 10
0.2855563693576389
 20
-1.14666748046875
 30
0.0
 10
0.2855563693576389
 20
-1.148518880208333
 30
0.0
 10
0.2854953342013889
 20
-1.150431315104167
 30
0.0
 10
0.2853868272569444
 20
-1.152391221788194
 30
0.0
 10
0.2852783203125
 20
-1.15435791015625
 30
0.0
 10
0.2851087782118055
 20
-1.156338161892361
 30
0.0
 10
0.2848849826388889
 20
-1.158338758680556
 30
0.0
 10
0.2848849826388889
 20
-1.158338758680556
 30
0.0
 10
0.2149658203125
 20
-1.158338758680556
 30
0.0
 10
0.2149658203125
 20
-1.158338758680556
 30
0.0
 10
0.2149658203125
 20
-1.158711751302083
 30
0.0
 10
0.2149319118923611
 20
-1.159267849392361
 30
0.0
 10
0.2148573133680556
 20
-1.160007052951389
 30
0.0
 10
0.21478271484375
 20
-1.160746256510417
 30
0.0
 10
0.2147420247395833
 20
-1.161227756076389
 30
0.0
 10
0.2147420247395833
 20
-1.161451551649306
 30
0.0
 10
0.2147420247395833
 20
-1.16900634765625
 30
0.0
 10
0.2169867621527778
 20
-1.174770779079861
 30
0.0
 10
0.2214694552951389
 20
-1.178738064236111
 30
0.0
 10
0.2259521484375
 20
-1.182698567708333
 30
0.0
 10
0.2324557834201389
 20
-1.184685601128472
 30
0.0
 10
0.2409803602430556
 20
-1.184685601128472
 30
0.0
 10
0.2457953559027778
 20
-1.184685601128472
 30
0.0
 10
0.2512953016493055
 20
-1.18377685546875
 30
0.0
 10
0.2574869791666666
 20
-1.181959364149306
 30
0.0
 10
0.263671875
 20
-1.180141872829861
 30
0.0
 10
0.2709147135416666
 20
-1.177273220486111
 30
0.0
 10
0.2792154947916666
 20
-1.173346625434028
 30
0.0
 10
0.2792154947916666
 20
-1.173346625434028
 30
0.0
 10
0.2735460069444444
 20
-1.200914171006944
 30
0.0
 10
0.2735460069444444
 20
-1.200914171006944
 30
0.0
  0
SPLINE
  5
62
330
43
100
AcDbEntity
  8
Layer 3
370
     0
100
AcDbSpline
210
0.0
220
0.0
230
1.0
 70
    11
 71
     3
 72
    23
 73
    19
 74
     0
 42
0.0000000001
 43
0.0000000001
 12
1.0
 22
0.0
 32
0.0
 13
1.0
 23
0.0
 33
0.0
 40
0.0
 40
0.0
 40
0.0
 40
0.0
 40
1.0
 40
1.0
 40
1.0
 40
2.0
 40
2.0
 40
2.0
 40
3.0
 40
3.0
 40
3.0
 40
4.0
 40
4.0
 40
4.0
 40
5.0
 40
5.0
 40
5.0
 40
6.0
 40
6.0
 40
6.0
 40
6.0
 10
0.21929931640625
 20
-1.140109592013889
 30
0.0
 10
0.21929931640625
 20
-1.140109592013889
 30
0.0
 10
0.2550930447048611
 20
-1.140109592013889
 30
0.0
 10
0.2550930447048611
 20
-1.140109592013889
 30
0.0
 10
0.2550930447048611
 20
-1.140109592013889
 30
0.0
 10
0.2550930447048611
 20
-1.137993706597222
 30
0.0
 10
0.2550930447048611
 20
-1.137993706597222
 30
0.0
 10
0.2550930447048611
 20
-1.132514105902778
 30
0.0
 10
0.2538180881076389
 20
-1.128343370225694
 30
0.0
 10
0.2512613932291666
 20
-1.12548828125
 30
0.0
 10
0.2487046983506944
 20
-1.122639973958333
 30
0.0
 10
0.2449815538194444
 20
-1.121209038628472
 30
0.0
 10
0.2400919596354167
 20
-1.121209038628472
 30
0.0
 10
0.23504638671875
 20
-1.121209038628472
 30
0.0
 10
0.2307874891493056
 20
-1.122802734375
 30
0.0
 10
0.2273084852430556
 20
-1.125990125868056
 30
0.0
 10
0.2238226996527778
 20
-1.129177517361111
 30
0.0
 10
0.2211507161458333
 20
-1.133884006076389
 30
0.0
 10
0.21929931640625
 20
-1.140109592013889
 30
0.0
  0
HATCH
  5
63
330
43
100
AcDbEntity
  8
Layer 3
 62
   250
100
AcDbHatch
 10
0.0
 20
0.0
 30
0.0
210
0.0
220
0.0
230
1.0
  2
SOLID
 70
     1
 71
     0
 91
        2
 92
        1
 93
        1
 72
     4
 94
        3
 73
     0
 74
     1
 95
       59
 96
       55
 40
0.0
 40
0.0
 40
0.0
 40
0.0
 40
1.0
 40
1.0
 40
1.0
 40
2.0
 40
2.0
 40
2.0
 40
3.0
 40
3.0
 40
3.0
 40
4.0
 40
4.0
 40
4.0
 40
5.0
 40
5.0
 40
5.0
 40
6.0
 40
6.0
 40
6.0
 40
7.0
 40
7.0
 40
7.0
 40
8.0
 40
8.0
 40
8.0
 40
9.0
 40
9.0
 40
9.0
 40
10.0
 40
10.0
 40
10.0
 40
11.0
 40
11.0
 40
11.0
 40
12.0
 40
12.0
 40
12.0
 40
13.0
 40
13.0
 40
13.0
 40
14.0
 40
14.0
 40
14.0
 40
15.0
 40
15.0
 40
15.0
 40
16.0
 40
16.0
 40
16.0
 40
17.0
 40
17.0
 40
17.0
 40
18.0
 40
18.0
 40
18.0
 40
18.0
 10
0.2735460069444444
 20
-1.200914171006944
 10
0.2679172092013889
 20
-1.203728569878472
 10
0.2617662217881944
 20
-1.205858018663194
 10
0.2550930447048611
 20
-1.207302517361111
 10
0.2484266493055556
 20
-1.208747016059028
 10
0.2414957682291667
 20
-1.20947265625
 10
0.2343071831597222
 20
-1.20947265625
 10
0.2185262044270833
 20
-1.20947265625
 10
0.2060207790798611
 20
-1.20489501953125
 10
0.1967909071180556
 20
-1.195746527777778
 10
0.1875678168402778
 20
-1.186591254340278
 10
0.1829562717013889
 20
-1.174119737413194
 10
0.1829562717013889
 20
-1.158338758680556
 10
0.1829562717013889
 20
-1.140848795572917
 10
0.1882866753472222
 20
-1.126715766059028
 10
0.1989610460069444
 20
-1.115932888454861
 10
0.2096286349826389
 20
-1.105150010850694
 10
0.2237074110243056
 20
-1.099758572048611
 10
0.2412041558159722
 20
-1.099758572048611
 10
0.2553575303819444
 20
-1.099758572048611
 10
0.2662828233506944
 20
-1.103834364149306
 10
0.2739935980902778
 20
-1.111985948350694
 10
0.2816975911458333
 20
-1.120137532552083
 10
0.2855563693576389
 20
-1.131700303819444
 10
0.2855563693576389
 20
-1.14666748046875
 10
0.2855563693576389
 20
-1.148518880208333
 10
0.2854953342013889
 20
-1.150431315104167
 10
0.2853868272569444
 20
-1.152391221788194
 10
0.2852783203125
 20
-1.15435791015625
 10
0.2851087782118055
 20
-1.156338161892361
 10
0.2848849826388889
 20
-1.158338758680556
 10
0.2848849826388889
 20
-1.158338758680556
 10
0.2149658203125
 20
-1.158338758680556
 10
0.2149658203125
 20
-1.158338758680556
 10
0.2149658203125
 20
-1.158711751302083
 10
0.2149319118923611
 20
-1.159267849392361
 10
0.2148573133680556
 20
-1.160007052951389
 10
0.21478271484375
 20
-1.160746256510417
 10
0.2147420247395833
 20
-1.161227756076389
 10
0.2147420247395833
 20
-1.161451551649306
 10
0.2147420247395833
 20
-1.16900634765625
 10
0.2169867621527778
 20
-1.174770779079861
 10
0.2214694552951389
 20
-1.178738064236111
 10
0.2259521484375
 20
-1.182698567708333
 10
0.2324557834201389
 20
-1.184685601128472
 10
0.2409803602430556
 20
-1.184685601128472
 10
0.2457953559027778
 20
-1.184685601128472
 10
0.2512953016493055
 20
-1.18377685546875
 10
0.2574869791666666
 20
-1.181959364149306
 10
0.263671875
 20
-1.180141872829861
 10
0.2709147135416666
 20
-1.177273220486111
 10
0.2792154947916666
 20
-1.173346625434028
 10
0.2792154947916666
 20
-1.173346625434028
 10
0.2735460069444444
 20
-1.200914171006944
 10
0.2735460069444444
 20
-1.200914171006944
 97
        0
 97
        0
 92
        1
 93
        1
 72
     4
 94
        3
 73
     0
 74
     1
 95
       23
 96
       19
 40
0.0
 40
0.0
 40
0.0
 40
0.0
 40
1.0
 40
1.0
 40
1.0
 40
2.0
 40
2.0
 40
2.0
 40
3.0
 40
3.0
 40
3.0
 40
4.0
 40
4.0
 40
4.0
 40
5.0
 40
5.0
 40
5.0
 40
6.0
 40
6.0
 40
6.0
 40
6.0
 10
0.21929931640625
 20
-1.140109592013889
 10
0.21929931640625
 20
-1.140109592013889
 10
0.2550930447048611
 20
-1.140109592013889
 10
0.2550930447048611
 20
-1.140109592013889
 10
0.2550930447048611
 20
-1.140109592013889
 10
0.2550930447048611
 20
-1.137993706597222
 10
0.2550930447048611
 20
-1.137993706597222
 10
0.2550930447048611
 20
-1.132514105902778
 10
0.2538180881076389
 20
-1.128343370225694
 10
0.2512613932291666
 20
-1.12548828125
 10
0.2487046983506944
 20
-1.122639973958333
 10
0.2449815538194444
 20
-1.121209038628472
 10
0.2400919596354167
 20
-1.121209038628472
 10
0.23504638671875
 20
-1.121209038628472
 10
0.2307874891493056
 20
-1.122802734375
 10
0.2273084852430556
 20
-1.125990125868056
 10
0.2238226996527778
 20
-1.129177517361111
 10
0.2211507161458333
 20
-1.133884006076389
 10
0.21929931640625
 20
-1.140109592013889
 97
        0
 97
        0
 75
     2
 76
     1
 98
        0
  0
ENDBLK
  5
46
330
43
100
AcDbEntity
  8
0
100
AcDbBlockEnd
  0
ENDSEC
  0
SECTION
  2
ENTITIES
  0
INSERT
  5
44
330
1F
100
AcDbEntity
  8
Layer 3
100
AcDbBlockReference
  2
block 2
 10
0.0
 20
0.0
 30
0.0
  0
ENDSEC
  0
SECTION
  2
OBJECTS
  0
DICTIONARY
  5
C
330
0
100
AcDbDictionary
281
     1
  3
ACAD_GROUP
350
D
  3
ACAD_LAYOUT
350
1A
  3
ACAD_MATERIAL
350
3B
  3
ACAD_MLEADERSTYLE
350
65
  3
ACAD_MLINESTYLE
350
17
  3
ACAD_PLOTSETTINGS
350
19
  3
ACAD_PLOTSTYLENAME
350
E
  3
ACAD_TABLESTYLE
350
64
  3
ACAD_VISUALSTYLE
350
2A
  0
SUN
  5
3F
330
29
100
AcDbSun
 90
        1
290
     0
 63
     7
421
 16777215
 40
1.0
291
     1
 91
  2455826
 92
 54000000
292
     0
 70
     2
 71
   256
280
     1
  0
DICTIONARY
  5
D
102
{ACAD_REACTORS
330
C
102
}
330
C
100
AcDbDictionary
281
     1
  0
DICTIONARY
  5
1A
102
{ACAD_REACTORS
330
C
102
}
330
C
100
AcDbDictionary
281
     1
  3
Layout1
350
1E
  3
Layout2
350
26
  3
Model
350
22
  0
DICTIONARY
  5
3B
102
{ACAD_REACTORS
330
C
102
}
330
C
100
AcDbDictionary
281
     1
  3
ByBlock
350
3D
  3
ByLayer
350
3C
  3
Global
350
3E
  0
DICTIONARY
  5
65
102
{ACAD_REACTORS
330
C
102
}
330
C
100
AcDbDictionary
281
     1
  0
DICTIONARY
  5
17
102
{ACAD_REACTORS
330
C
102
}
330
C
100
AcDbDictionary
281
     1
  3
Standard
350
18
  0
DICTIONARY
  5
19
102
{ACAD_REACTORS
330
C
102
}
330
C
100
AcDbDictionary
281
     1
  0
ACDBDICTIONARYWDFLT
  5
E
102
{ACAD_REACTORS
330
C
102
}
330
C
100
AcDbDictionary
281
     1
  3
Normal
350
F
100
AcDbDictionaryWithDefault
340
F
  0
DICTIONARY
  5
64
102
{ACAD_REACTORS
330
C
102
}
330
C
100
AcDbDictionary
281
     1
  0
DICTIONARY
  5
2A
102
{ACAD_REACTORS
330
C
102
}
330
C
100
AcDbDictionary
281
     1
  3
2dWireframe
350
2F
  3
3D Hidden
350
31
  3
3dWireframe
350
30
  3
Basic
350
32
  3
Brighten
350
36
  3
ColorChange
350
3A
  3
Conceptual
350
34
  3
Dim
350
35
  3
Facepattern
350
39
  3
Flat
350
2B
  3
FlatWithEdges
350
2C
  3
Gouraud
350
2D
  3
GouraudWithEdges
350
2E
  3
Linepattern
350
38
  3
Realistic
350
33
  3
Thicken
350
37
  0
LAYOUT
  5
1E
102
{ACAD_REACTORS
330
1A
102
}
330
1A
100
AcDbPlotSettings
  1

  2
none_device
  4

  6

 40
0.0
 41
0.0
 42
0.0
 43
0.0
 44
0.0
 45
0.0
 46
0.0
 47
0.0
 48
0.0
 49
0.0
140
0.0
141
0.0
142
1.0
143
1.0
 70
   688
 72
     0
 73
     0
 74
     5
  7

 75
    16
 76
     0
 77
     2
 78
   300
147
1.0
148
0.0
149
0.0
100
AcDbLayout
  1
Layout1
 70
     1
 71
     1
 10
0.0
 20
0.0
 11
12.0
 21
9.0
 12
0.0
 22
0.0
 32
0.0
 14
1.000000000000000E+20
 24
1.000000000000000E+20
 34
1.000000000000000E+20
 15
-1.000000000000000E+20
 25
-1.000000000000000E+20
 35
-1.000000000000000E+20
146
0.0
 13
0.0
 23
0.0
 33
0.0
 16
1.0
 26
0.0
 36
0.0
 17
0.0
 27
1.0
 37
0.0
 76
     0
330
1B
  0
LAYOUT
  5
26
102
{ACAD_REACTORS
330
1A
102
}
330
1A
100
AcDbPlotSettings
  1

  2
none_device
  4

  6

 40
0.0
 41
0.0
 42
0.0
 43
0.0
 44
0.0
 45
0.0
 46
0.0
 47
0.0
 48
0.0
 49
0.0
140
0.0
141
0.0
142
1.0
143
1.0
 70
   688
 72
     0
 73
     0
 74
     5
  7

 75
    16
 76
     0
 77
     2
 78
   300
147
1.0
148
0.0
149
0.0
100
AcDbLayout
  1
Layout2
 70
     1
 71
     2
 10
0.0
 20
0.0
 11
0.0
 21
0.0
 12
0.0
 22
0.0
 32
0.0
 14
0.0
 24
0.0
 34
0.0
 15
0.0
 25
0.0
 35
0.0
146
0.0
 13
0.0
 23
0.0
 33
0.0
 16
1.0
 26
0.0
 36
0.0
 17
0.0
 27
1.0
 37
0.0
 76
     0
330
23
  0
LAYOUT
  5
22
102
{ACAD_REACTORS
330
1A
102
}
330
1A
100
AcDbPlotSettings
  1

  2
none_device
  4

  6

 40
0.0
 41
0.0
 42
0.0
 43
0.0
 44
0.0
 45
0.0
 46
0.0
 47
0.0
 48
0.0
 49
0.0
140
0.0
141
0.0
142
1.0
143
1.0
 70
  1712
 72
     0
 73
     0
 74
     0
  7

 75
     0
 76
     0
 77
     2
 78
   300
147
1.0
148
0.0
149
0.0
100
AcDbLayout
  1
Model
 70
     1
 71
     0
 10
0.0
 20
0.0
 11
12.0
 21
9.0
 12
0.0
 22
0.0
 32
0.0
 14
1.000000000000000E+20
 24
1.000000000000000E+20
 34
1.000000000000000E+20
 15
-1.000000000000000E+20
 25
-1.000000000000000E+20
 35
-1.000000000000000E+20
146
0.0
 13
0.0
 23
0.0
 33
0.0
 16
1.0
 26
0.0
 36
0.0
 17
0.0
 27
1.0
 37
0.0
 76
     0
330
1F
331
29
  0
MATERIAL
  5
3D
102
{ACAD_REACTORS
330
3B
102
}
330
3B
100
AcDbMaterial
  1
ByBlock
 72
     1
 94
      127
  0
MATERIAL
  5
3C
102
{ACAD_REACTORS
330
3B
102
}
330
3B
100
AcDbMaterial
  1
ByLayer
 72
     1
 94
      127
  0
MATERIAL
  5
3E
102
{ACAD_REACTORS
330
3B
102
}
330
3B
100
AcDbMaterial
  1
Global
 72
     1
 94
      127
  0
MLINESTYLE
  5
18
102
{ACAD_REACTORS
330
17
102
}
330
17
100
AcDbMlineStyle
  2
Standard
 70
     0
  3

 62
   256
 51
90.0
 52
90.0
 71
     2
 49
0.5
 62
   256
  6
BYLAYER
 49
-0.5
 62
   256
  6
BYLAYER
  0
ACDBPLACEHOLDER
  5
F
102
{ACAD_REACTORS
330
E
102
}
330
E
  0
VISUALSTYLE
  5
2F
102
{ACAD_REACTORS
330
2A
102
}
330
2A
100
AcDbVisualStyle
  2
2dWireframe
 70
     4
177
     2
291
     0
 71
     0
176
     1
 72
     2
176
     1
 73
     0
176
     1
 90
        0
176
     1
 40
-0.6
176
     1
 41
-30.0
176
     1
 62
     5
 63
     7
421
 16777215
176
     1
 74
     1
176
     1
 91
        4
176
     1
 64
     7
176
     1
 65
   257
176
     1
 75
     1
176
     1
175
     1
176
     1
 42
1.0
176
     1
 92
        0
176
     1
 66
   257
176
     1
 43
1.0
176
     1
 76
     1
176
     1
 77
     6
176
     1
 78
     2
176
     1
 67
     7
176
     1
 79
     5
176
     1
170
     0
176
     1
171
     0
176
     1
290
     0
176
     1
 93
        1
176
     1
 44
0.0
176
     1
173
     0
176
     1
  0
VISUALSTYLE
  5
31
102
{ACAD_REACTORS
330
2A
102
}
330
2A
100
AcDbVisualStyle
  2
3D Hidden
 70
     6
177
     2
291
     0
 71
     1
176
     1
 72
     2
176
     1
 73
     2
176
     1
 90
        0
176
     1
 40
-0.6
176
     1
 41
-30.0
176
     1
 62
     5
 63
     7
421
 16777215
176
     1
 74
     2
176
     1
 91
        2
176
     1
 64
     7
176
     1
 65
   257
176
     1
 75
     2
176
     1
175
     1
176
     1
 42
40.0
176
     1
 92
        0
176
     1
 66
   257
176
     1
 43
1.0
176
     1
 76
     1
176
     1
 77
     6
176
     1
 78
     2
176
     1
 67
     7
176
     1
 79
     3
176
     1
170
     0
176
     1
171
     0
176
     1
290
     0
176
     1
 93
        1
176
     1
 44
0.0
176
     1
173
     0
176
     1
  0
VISUALSTYLE
  5
30
102
{ACAD_REACTORS
330
2A
102
}
330
2A
100
AcDbVisualStyle
  2
3dWireframe
 70
     5
177
     2
291
     0
 71
     0
176
     1
 72
     2
176
     1
 73
     0
176
     1
 90
        0
176
     1
 40
-0.6
176
     1
 41
-30.0
176
     1
 62
     5
 63
     7
421
 16777215
176
     1
 74
     1
176
     1
 91
        4
176
     1
 64
     7
176
     1
 65
   257
176
     1
 75
     1
176
     1
175
     1
176
     1
 42
1.0
176
     1
 92
        0
176
     1
 66
   257
176
     1
 43
1.0
176
     1
 76
     1
176
     1
 77
     6
176
     1
 78
     2
176
     1
 67
     7
176
     1
 79
     5
176
     1
170
     0
176
     1
171
     0
176
     1
290
     0
176
     1
 93
        1
176
     1
 44
0.0
176
     1
173
     0
176
     1
  0
VISUALSTYLE
  5
32
102
{ACAD_REACTORS
330
2A
102
}
330
2A
100
AcDbVisualStyle
  2
Basic
 70
     7
177
     2
291
     1
 71
     1
176
     1
 72
     0
176
     1
 73
     1
176
     1
 90
        0
176
     1
 40
-0.6
176
     1
 41
-30.0
176
     1
 62
     5
 63
     7
421
 16777215
176
     1
 74
     0
176
     1
 91
        4
176
     1
 64
     7
176
     1
 65
   257
176
     1
 75
     1
176
     1
175
     1
176
     1
 42
1.0
176
     1
 92
        8
176
     1
 66
     7
176
     1
 43
1.0
176
     1
 76
     1
176
     1
 77
     6
176
     1
 78
     2
176
     1
 67
     7
176
     1
 79
     5
176
     1
170
     0
176
     1
171
     0
176
     1
290
     0
176
     1
 93
        1
176
     1
 44
0.0
176
     1
173
     0
176
     1
  0
VISUALSTYLE
  5
36
102
{ACAD_REACTORS
330
2A
102
}
330
2A
100
AcDbVisualStyle
  2
Brighten
 70
    12
177
     2
291
     1
 71
     2
176
     1
 72
     2
176
     1
 73
     0
176
     1
 90
        0
176
     1
 40
-0.6
176
     1
 41
-30.0
176
     1
 62
     5
 63
     7
421
 16777215
176
     1
 74
     1
176
     1
 91
        4
176
     1
 64
     7
176
     1
 65
   257
176
     1
 75
     1
176
     1
175
     1
176
     1
 42
1.0
176
     1
 92
        8
176
     1
 66
     7
176
     1
 43
1.0
176
     1
 76
     1
176
     1
 77
     6
176
     1
 78
     2
176
     1
 67
     7
176
     1
 79
     5
176
     1
170
     0
176
     1
171
     0
176
     1
290
     0
176
     1
 93
        1
176
     1
 44
50.0
176
     1
173
     0
176
     1
  0
VISUALSTYLE
  5
3A
102
{ACAD_REACTORS
330
2A
102
}
330
2A
100
AcDbVisualStyle
  2
ColorChange
 70
    16
177
     2
291
     1
 71
     2
176
     1
 72
     2
176
     1
 73
     3
176
     1
 90
        0
176
     1
 40
-0.6
176
     1
 41
-30.0
176
     1
 62
     5
 63
     8
421
  8421504
176
     1
 74
     1
176
     1
 91
        4
176
     1
 64
     7
176
     1
 65
   257
176
     1
 75
     1
176
     1
175
     1
176
     1
 42
1.0
176
     1
 92
        8
176
     1
 66
     8
424
  8421504
176
     1
 43
1.0
176
     1
 76
     1
176
     1
 77
     6
176
     1
 78
     2
176
     1
 67
     7
176
     1
 79
     5
176
     1
170
     0
176
     1
171
     0
176
     1
290
     0
176
     1
 93
        1
176
     1
 44
0.0
176
     1
173
     0
176
     1
  0
VISUALSTYLE
  5
34
102
{ACAD_REACTORS
330
2A
102
}
330
2A
100
AcDbVisualStyle
  2
Conceptual
 70
     9
177
     2
291
     0
 71
     3
176
     1
 72
     2
176
     1
 73
     0
176
     1
 90
        0
176
     1
 40
-0.6
176
     1
 41
-30.0
176
     1
 62
     5
 63
     7
421
 16777215
176
     1
 74
     2
176
     1
 91
        2
176
     1
 64
     7
176
     1
 65
   257
176
     1
 75
     1
176
     1
175
     1
176
     1
 42
40.0
176
     1
 92
        8
176
     1
 66
     7
176
     1
 43
1.0
176
     1
 76
     1
176
     1
 77
     6
176
     1
 78
     2
176
     1
 67
     7
176
     1
 79
     3
176
     1
170
     0
176
     1
171
     0
176
     1
290
     0
176
     1
 93
        1
176
     1
 44
0.0
176
     1
173
     0
176
     1
  0
VISUALSTYLE
  5
35
102
{ACAD_REACTORS
330
2A
102
}
330
2A
100
AcDbVisualStyle
  2
Dim
 70
    11
177
     2
291
     1
 71
     2
176
     1
 72
     2
176
     1
 73
     0
176
     1
 90
        0
176
     1
 40
-0.6
176
     1
 41
-30.0
176
     1
 62
     5
 63
     7
421
 16777215
176
     1
 74
     1
176
     1
 91
        4
176
     1
 64
     7
176
     1
 65
   257
176
     1
 75
     1
176
     1
175
     1
176
     1
 42
1.0
176
     1
 92
        8
176
     1
 66
     7
176
     1
 43
1.0
176
     1
 76
     1
176
     1
 77
     6
176
     1
 78
     2
176
     1
 67
     7
176
     1
 79
     5
176
     1
170
     0
176
     1
171
     0
176
     1
290
     0
176
     1
 93
        1
176
     1
 44
-50.0
176
     1
173
     0
176
     1
  0
VISUALSTYLE
  5
39
102
{ACAD_REACTORS
330
2A
102
}
330
2A
100
AcDbVisualStyle
  2
Facepattern
 70
    15
177
     2
291
     1
 71
     2
176
     1
 72
     2
176
     1
 73
     0
176
     1
 90
        0
176
     1
 40
-0.6
176
     1
 41
-30.0
176
     1
 62
     5
 63
     7
421
 16777215
176
     1
 74
     1
176
     1
 91
        4
176
     1
 64
     7
176
     1
 65
   257
176
     1
 75
     1
176
     1
175
     1
176
     1
 42
1.0
176
     1
 92
        8
176
     1
 66
     7
176
     1
 43
1.0
176
     1
 76
     1
176
     1
 77
     6
176
     1
 78
     2
176
     1
 67
     7
176
     1
 79
     5
176
     1
170
     0
176
     1
171
     0
176
     1
290
     0
176
     1
 93
        1
176
     1
 44
0.0
176
     1
173
     0
176
     1
  0
VISUALSTYLE
  5
2B
102
{ACAD_REACTORS
330
2A
102
}
330
2A
100
AcDbVisualStyle
  2
Flat
 70
     0
177
     2
291
     1
 71
     2
176
     1
 72
     1
176
     1
 73
     1
176
     1
 90
        2
176
     1
 40
-0.6
176
     1
 41
30.0
176
     1
 62
     5
 63
     7
421
 16777215
176
     1
 74
     0
176
     1
 91
        4
176
     1
 64
     7
176
     1
 65
   257
176
     1
 75
     1
176
     1
175
     1
176
     1
 42
1.0
176
     1
 92
        8
176
     1
 66
     7
176
     1
 43
1.0
176
     1
 76
     1
176
     1
 77
     6
176
     1
 78
     2
176
     1
 67
     7
176
     1
 79
     5
176
     1
170
     0
176
     1
171
     0
176
     1
290
     0
176
     1
 93
       13
176
     1
 44
0.0
176
     1
173
     0
176
     1
  0
VISUALSTYLE
  5
2C
102
{ACAD_REACTORS
330
2A
102
}
330
2A
100
AcDbVisualStyle
  2
FlatWithEdges
 70
     1
177
     2
291
     1
 71
     2
176
     1
 72
     1
176
     1
 73
     1
176
     1
 90
        2
176
     1
 40
-0.6
176
     1
 41
30.0
176
     1
 62
     5
 63
     7
421
 16777215
176
     1
 74
     1
176
     1
 91
        4
176
     1
 64
     7
176
     1
 65
   257
176
     1
 75
     1
176
     1
175
     1
176
     1
 42
1.0
176
     1
 92
        0
176
     1
 66
   257
176
     1
 43
1.0
176
     1
 76
     1
176
     1
 77
     6
176
     1
 78
     2
176
     1
 67
     7
176
     1
 79
     5
176
     1
170
     0
176
     1
171
     0
176
     1
290
     0
176
     1
 93
       13
176
     1
 44
0.0
176
     1
173
     0
176
     1
  0
VISUALSTYLE
  5
2D
102
{ACAD_REACTORS
330
2A
102
}
330
2A
100
AcDbVisualStyle
  2
Gouraud
 70
     2
177
     2
291
     1
 71
     2
176
     1
 72
     2
176
     1
 73
     1
176
     1
 90
        2
176
     1
 40
-0.6
176
     1
 41
30.0
176
     1
 62
     5
 63
     7
421
 16777215
176
     1
 74
     0
176
     1
 91
        4
176
     1
 64
     7
176
     1
 65
   257
176
     1
 75
     1
176
     1
175
     1
176
     1
 42
1.0
176
     1
 92
        0
176
     1
 66
     7
176
     1
 43
1.0
176
     1
 76
     1
176
     1
 77
     6
176
     1
 78
     2
176
     1
 67
     7
176
     1
 79
     5
176
     1
170
     0
176
     1
171
     0
176
     1
290
     0
176
     1
 93
       13
176
     1
 44
0.0
176
     1
173
     0
176
     1
  0
VISUALSTYLE
  5
2E
102
{ACAD_REACTORS
330
2A
102
}
330
2A
100
AcDbVisualStyle
  2
GouraudWithEdges
 70
     3
177
     2
291
     1
 71
     2
176
     1
 72
     2
176
     1
 73
     1
176
     1
 90
        2
176
     1
 40
-0.6
176
     1
 41
30.0
176
     1
 62
     5
 63
     7
421
 16777215
176
     1
 74
     1
176
     1
 91
        4
176
     1
 64
     7
176
     1
 65
   257
176
     1
 75
     1
176
     1
175
     1
176
     1
 42
1.0
176
     1
 92
        0
176
     1
 66
   257
176
     1
 43
1.0
176
     1
 76
     1
176
     1
 77
     6
176
     1
 78
     2
176
     1
 67
     7
176
     1
 79
     5
176
     1
170
     0
176
     1
171
     0
176
     1
290
     0
176
     1
 93
       13
176
     1
 44
0.0
176
     1
173
     0
176
     1
  0
VISUALSTYLE
  5
38
102
{ACAD_REACTORS
330
2A
102
}
330
2A
100
AcDbVisualStyle
  2
Linepattern
 70
    14
177
     2
291
     1
 71
     2
176
     1
 72
     2
176
     1
 73
     0
176
     1
 90
        0
176
     1
 40
-0.6
176
     1
 41
-30.0
176
     1
 62
     5
 63
     7
421
 16777215
176
     1
 74
     1
176
     1
 91
        4
176
     1
 64
     7
176
     1
 65
   257
176
     1
 75
     7
176
     1
175
     7
176
     1
 42
1.0
176
     1
 92
        8
176
     1
 66
     7
176
     1
 43
1.0
176
     1
 76
     1
176
     1
 77
     6
176
     1
 78
     2
176
     1
 67
     7
176
     1
 79
     5
176
     1
170
     0
176
     1
171
     0
176
     1
290
     0
176
     1
 93
        1
176
     1
 44
0.0
176
     1
173
     0
176
     1
  0
VISUALSTYLE
  5
33
102
{ACAD_REACTORS
330
2A
102
}
330
2A
100
AcDbVisualStyle
  2
Realistic
 70
     8
177
     2
291
     0
 71
     2
176
     1
 72
     2
176
     1
 73
     0
176
     1
 90
        0
176
     1
 40
-0.6
176
     1
 41
-30.0
176
     1
 62
     5
 63
     7
421
 16777215
176
     1
 74
     1
176
     1
 91
        0
176
     1
 64
     7
176
     1
 65
   257
176
     1
 75
     1
176
     1
175
     1
176
     1
 42
1.0
176
     1
 92
        8
176
     1
 66
     8
424
  7895160
176
     1
 43
1.0
176
     1
 76
     1
176
     1
 77
     6
176
     1
 78
     2
176
     1
 67
     7
176
     1
 79
     5
176
     1
170
     0
176
     1
171
     0
176
     1
290
     0
176
     1
 93
       13
176
     1
 44
0.0
176
     1
173
     0
176
     1
  0
VISUALSTYLE
  5
37
102
{ACAD_REACTORS
330
2A
102
}
330
2A
100
AcDbVisualStyle
  2
Thicken
 70
    13
177
     2
291
     1
 71
     2
176
     1
 72
     2
176
     1
 73
     0
176
     1
 90
        0
176
     1
 40
-0.6
176
     1
 41
-30.0
176
     1
 62
     5
 63
     7
421
 16777215
176
     1
 74
     1
176
     1
 91
        4
176
     1
 64
     7
176
     1
 65
   257
176
     1
 75
     1
176
     1
175
     1
176
     1
 42
1.0
176
     1
 92
       12
176
     1
 66
     7
176
     1
 43
1.0
176
     1
 76
     1
176
     1
 77
     6
176
     1
 78
     2
176
     1
 67
     7
176
     1
 79
     5
176
     1
170
     0
176
     1
171
     0
176
     1
290
     0
176
     1
 93
        1
176
     1
 44
0.0
176
     1
173
     0
176
     1
  0
ENDSEC
  0
EOF
