G04 EAGLE Gerber X2 export*
G75*
%MOMM*%
%FSLAX34Y34*%
%LPD*%
%AMOC8*
5,1,8,0,0,1.08239X$1,22.5*%
G01*
%ADD10R,8.890000X2.032000*%
%ADD11R,1.400000X2.100000*%
%ADD12C,1.600000*%
%ADD13R,3.200000X1.600000*%
%ADD14C,0.600000*%
%ADD15R,1.500000X1.300000*%
%ADD16R,1.300000X1.500000*%


D10*
X-95250Y-533400D03*
X95250Y-533400D03*
G36*
X-248376Y-388226D02*
X-203927Y-465214D01*
X-221524Y-475374D01*
X-265973Y-398386D01*
X-248376Y-388226D01*
G37*
G36*
X-270601Y-400926D02*
X-226152Y-477914D01*
X-243749Y-488074D01*
X-288198Y-411086D01*
X-270601Y-400926D01*
G37*
D11*
X181970Y114520D03*
X226970Y114520D03*
X226970Y205520D03*
X181970Y205520D03*
D12*
X-87250Y273050D02*
X-103250Y273050D01*
X-103250Y247650D02*
X-87250Y247650D01*
D13*
X-95250Y222250D03*
D12*
X-87250Y196850D02*
X-103250Y196850D01*
X-103250Y171450D02*
X-87250Y171450D01*
X-87250Y146050D02*
X-103250Y146050D01*
X-103250Y120650D02*
X-87250Y120650D01*
D13*
X-95250Y95250D03*
D12*
X-87250Y69850D02*
X-103250Y69850D01*
X-103250Y44450D02*
X-87250Y44450D01*
X-87250Y19050D02*
X-103250Y19050D01*
X-103250Y-6350D02*
X-87250Y-6350D01*
D13*
X-95250Y-31750D03*
D12*
X-87250Y-57150D02*
X-103250Y-57150D01*
X-103250Y-82550D02*
X-87250Y-82550D01*
X-87250Y-107950D02*
X-103250Y-107950D01*
X-103250Y-133350D02*
X-87250Y-133350D01*
D13*
X-95250Y-158750D03*
D12*
X-87250Y-184150D02*
X-103250Y-184150D01*
X-103250Y-209550D02*
X-87250Y-209550D01*
X87250Y-209550D02*
X103250Y-209550D01*
X103250Y-184150D02*
X87250Y-184150D01*
D13*
X95250Y-158750D03*
D12*
X103250Y-133350D02*
X87250Y-133350D01*
X87250Y-107950D02*
X103250Y-107950D01*
X103250Y-82550D02*
X87250Y-82550D01*
X87250Y-57150D02*
X103250Y-57150D01*
D13*
X95250Y-31750D03*
D12*
X103250Y-6350D02*
X87250Y-6350D01*
X87250Y19050D02*
X103250Y19050D01*
X103250Y44450D02*
X87250Y44450D01*
X87250Y69850D02*
X103250Y69850D01*
D13*
X95250Y95250D03*
D12*
X103250Y120650D02*
X87250Y120650D01*
X87250Y146050D02*
X103250Y146050D01*
X103250Y171450D02*
X87250Y171450D01*
X87250Y196850D02*
X103250Y196850D01*
D13*
X95250Y222250D03*
D12*
X103250Y247650D02*
X87250Y247650D01*
X87250Y273050D02*
X103250Y273050D01*
D14*
X-212725Y-146575D02*
X-212725Y-155075D01*
X-225425Y-155075D02*
X-225425Y-146575D01*
X-238125Y-146575D02*
X-238125Y-155075D01*
X-250825Y-155075D02*
X-250825Y-146575D01*
X-250825Y-101075D02*
X-250825Y-92575D01*
X-238125Y-92575D02*
X-238125Y-101075D01*
X-225425Y-101075D02*
X-225425Y-92575D01*
X-212725Y-92575D02*
X-212725Y-101075D01*
D15*
X0Y-283600D03*
X0Y-300600D03*
D16*
X-269850Y-282575D03*
X-250850Y-282575D03*
X-250850Y-238125D03*
X-269850Y-238125D03*
X-250850Y-193675D03*
X-269850Y-193675D03*
X-227575Y-57150D03*
X-210575Y-57150D03*
X-205350Y-184150D03*
X-188350Y-184150D03*
D15*
X41275Y-283600D03*
X41275Y-300600D03*
X82550Y-283600D03*
X82550Y-300600D03*
X-41275Y-283600D03*
X-41275Y-300600D03*
X82550Y-393725D03*
X82550Y-412725D03*
X-41275Y-368275D03*
X-41275Y-349275D03*
X41275Y-368275D03*
X41275Y-349275D03*
X0Y-368275D03*
X0Y-349275D03*
X-82550Y-283600D03*
X-82550Y-300600D03*
X-82550Y-368275D03*
X-82550Y-349275D03*
M02*
