G04 EAGLE Gerber X2 export*
G75*
%MOMM*%
%FSLAX34Y34*%
%LPD*%
%AMOC8*
5,1,8,0,0,1.08239X$1,22.5*%
G01*
%ADD10R,8.991600X2.133600*%
%ADD11R,2.201600X1.501600*%
%ADD12R,1.501600X2.201600*%
%ADD13R,1.422400X0.660400*%
%ADD14R,1.401600X1.601600*%
%ADD15P,1.924489X8X202.500000*%
%ADD16C,1.601600*%
%ADD17C,1.301600*%
%ADD18R,1.951600X1.001600*%
%ADD19R,1.951600X3.301600*%
%ADD20P,2.199416X8X22.500000*%
%ADD21P,2.199416X8X202.500000*%
%ADD22C,1.625600*%
%ADD23P,1.759533X8X22.500000*%


D10*
X-95250Y-533400D03*
X95250Y-533400D03*
G36*
X-221710Y-476068D02*
X-266667Y-398200D01*
X-248190Y-387532D01*
X-203233Y-465400D01*
X-221710Y-476068D01*
G37*
G36*
X-243935Y-488768D02*
X-288892Y-410900D01*
X-270415Y-400232D01*
X-225458Y-478100D01*
X-243935Y-488768D01*
G37*
D11*
X-210600Y-184425D03*
X-210600Y-139425D03*
X-119600Y-139425D03*
X-119600Y-184425D03*
X-119600Y-323575D03*
X-119600Y-368575D03*
X-210600Y-368575D03*
X-210600Y-323575D03*
D12*
X-234675Y-299500D03*
X-279675Y-299500D03*
X-279675Y-208500D03*
X-234675Y-208500D03*
X-50525Y-299500D03*
X-95525Y-299500D03*
X-95525Y-208500D03*
X-50525Y-208500D03*
X98700Y-363000D03*
X53700Y-363000D03*
X53700Y-272000D03*
X98700Y-272000D03*
X187600Y-299500D03*
X142600Y-299500D03*
X142600Y-208500D03*
X187600Y-208500D03*
X276500Y-236000D03*
X231500Y-236000D03*
X231500Y-145000D03*
X276500Y-145000D03*
D11*
X-128050Y-98700D03*
X-128050Y-53700D03*
X-37050Y-53700D03*
X-37050Y-98700D03*
X37050Y-98700D03*
X37050Y-53700D03*
X128050Y-53700D03*
X128050Y-98700D03*
D13*
X13716Y135382D03*
X13716Y144780D03*
X13716Y154178D03*
X-13716Y154178D03*
X-13716Y135382D03*
D14*
X-101575Y140970D03*
X-82575Y140970D03*
X203175Y127000D03*
X184175Y127000D03*
D15*
X247650Y38100D03*
X222250Y38100D03*
X247650Y254000D03*
X222250Y254000D03*
D16*
X279400Y125100D03*
X279400Y205100D03*
D17*
X279400Y145100D03*
X279400Y165100D03*
X279400Y185100D03*
D18*
X31000Y205600D03*
X31000Y228600D03*
X31000Y251600D03*
D19*
X-31000Y228600D03*
D14*
X203175Y203200D03*
X184175Y203200D03*
D20*
X171450Y-79375D03*
D21*
X241300Y-79375D03*
D16*
X-238200Y215900D03*
X-238200Y190500D03*
X-238200Y165100D03*
X-238200Y139700D03*
X-238200Y114300D03*
X-238200Y88900D03*
X-238200Y63500D03*
X-238200Y38100D03*
D14*
X-195825Y215900D03*
X-178825Y215900D03*
X-83575Y228600D03*
X-100575Y228600D03*
D20*
X-177800Y-57150D03*
X190500Y-387350D03*
D22*
X234167Y-463110D02*
X247979Y-469551D01*
X258714Y-446530D02*
X244902Y-440090D01*
X255636Y-417070D02*
X269448Y-423510D01*
X280183Y-400490D02*
X266371Y-394049D01*
D23*
X-282575Y238125D03*
X-282575Y212725D03*
X-282575Y187325D03*
X-282575Y161925D03*
X-282575Y136525D03*
X-282575Y111125D03*
D20*
X-263525Y-57150D03*
X-158750Y180975D03*
D21*
X-187325Y50800D03*
M02*
