# FamiTracker text export 0.4.2

# Song information
TITLE           "Gradius"
AUTHOR          "Miki Higashino"
COPYRIGHT       "1986 Konami"

# Song comment
COMMENT ""

# Global settings
MACHINE         0
FRAMERATE       0
EXPANSION       0
VIBRATO         1
SPLIT           21

# Macros

# DPCM samples

# Instruments
INST2A03   0    -1  -1  -1  -1  -1 "blank"

# Tracks

TRACK 256   1 150 "New song"
COLUMNS : 3 3 1 1 2

ORDER 00 : 00 00 00 00 00
ORDER 01 : 01 01 01 01 01
ORDER 02 : 02 02 02 02 02
ORDER 03 : 03 03 03 03 03
ORDER 04 : 04 04 04 04 04
ORDER 05 : 05 05 05 05 05
ORDER 06 : 06 06 06 06 06
ORDER 07 : 07 07 07 07 07
ORDER 08 : 08 08 08 08 08
ORDER 09 : 09 09 09 09 09
ORDER 0A : 0A 0A 0A 0A 0A
ORDER 0B : 0B 0B 0B 0B 0B
ORDER 0C : 0C 0C 0C 0C 0C
ORDER 0D : 0D 0D 0D 0D 0D
ORDER 0E : 0E 0E 0E 0E 0E

PATTERN 00
ROW 00 : E-5 00 A P80 V01 ... : B-3 00 F P7F V03 ... : --- .. . P80 : F-# 00 0 V00 : ... .. . ... ...
ROW 01 : ... .. 9 ... ... ... : ... .. E ... ... ... : E-5 00 . ... : ... .. . ... : ... .. . ... ...
ROW 02 : ... .. 8 ... ... ... : ... .. D ... ... ... : ... .. . ... : ... .. . ... : ... .. . ... ...
ROW 03 : ... .. 7 ... ... ... : ... .. C ... ... ... : ... .. . ... : ... .. . ... : ... .. . ... ...
ROW 04 : ... .. 6 ... ... ... : ... .. . ... ... ... : ... .. . ... : ... .. . ... : ... .. . ... ...
ROW 05 : ... .. 5 ... ... ... : ... .. . ... ... ... : ... .. . ... : ... .. . ... : ... .. . ... ...
ROW 06 : ... .. 4 ... ... ... : ... .. . ... ... ... : ... .. . ... : ... .. . ... : ... .. . ... ...
ROW 07 : ... .. 3 ... ... ... : ... .. . ... ... ... : ... .. . ... : ... .. . ... : ... .. . ... ...
ROW 08 : B-4 00 A P7F ... ... : ... .. . ... ... ... : ... .. . ... : ... .. . ... : ... .. . ... ...
ROW 09 : ... .. 9 ... ... ... : ... .. . ... ... ... : B-4 00 . P7F : ... .. . ... : ... .. . ... ...
ROW 0A : ... .. 8 ... ... ... : ... .. . ... ... ... : ... .. . ... : ... .. . ... : ... .. . ... ...
ROW 0B : ... .. 7 ... ... ... : ... .. . ... ... ... : ... .. . ... : ... .. . ... : ... .. . ... ...
ROW 0C : ... .. 6 ... ... ... : ... .. . ... ... ... : ... .. . ... : ... .. . ... : ... .. . ... ...
ROW 0D : ... .. 5 ... ... ... : ... .. . ... ... ... : ... .. . ... : ... .. . ... : ... .. . ... ...
ROW 0E : ... .. 4 ... ... ... : ... .. . ... ... ... : ... .. . ... : ... .. . ... : ... .. . ... ...
ROW 0F : ... .. 3 ... ... ... : ... .. . ... ... ... : ... .. . ... : ... .. . ... : ... .. . ... ...
ROW 10 : E-5 00 A P80 ... ... : ... .. . ... ... ... : ... .. . ... : ... .. . ... : ... .. . ... ...
ROW 11 : ... .. 9 ... ... ... : ... .. . ... ... ... : E-5 00 . P80 : ... .. . ... : ... .. . ... ...
ROW 12 : ... .. 8 ... ... ... : ... .. . ... ... ... : ... .. . ... : ... .. . ... : ... .. . ... ...
ROW 13 : ... .. 7 ... ... ... : ... .. . ... ... ... : ... .. . ... : ... .. . ... : ... .. . ... ...
ROW 14 : ... .. 6 ... ... ... : ... .. . ... ... ... : ... .. . ... : ... .. . ... : ... .. . ... ...
ROW 15 : ... .. 5 ... ... ... : ... .. . ... ... ... : ... .. . ... : ... .. . ... : ... .. . ... ...
ROW 16 : ... .. 4 ... ... ... : ... .. . ... ... ... : ... .. . ... : ... .. . ... : ... .. . ... ...
ROW 17 : ... .. 3 ... ... ... : ... .. . ... ... ... : ... .. . ... : ... .. . ... : ... .. . ... ...
ROW 18 : F#5 00 A P80 ... ... : ... .. . ... ... ... : ... .. . ... : ... .. . ... : ... .. . ... ...
ROW 19 : ... .. 9 ... ... ... : ... .. . ... ... ... : F#5 00 . ... : ... .. . ... : ... .. . ... ...
ROW 1A : ... .. 8 ... ... ... : ... .. . ... ... ... : ... .. . ... : ... .. . ... : ... .. . ... ...
ROW 1B : ... .. . ... ... ... : ... .. . ... ... ... : ... .. . ... : ... .. . ... : ... .. . ... ...
ROW 1C : ... .. . ... ... ... : ... .. . ... ... ... : ... .. . ... : ... .. . ... : ... .. . ... ...
ROW 1D : ... .. . ... ... ... : ... .. . ... ... ... : ... .. . ... : ... .. . ... : ... .. . ... ...
ROW 1E : ... .. . ... ... ... : ... .. . ... ... ... : ... .. . ... : ... .. . ... : ... .. . ... ...
ROW 1F : ... .. 7 ... ... ... : ... .. . ... ... ... : ... .. . ... : ... .. . ... : ... .. . ... ...
ROW 20 : ... .. 6 ... ... ... : ... .. . ... ... ... : ... .. . ... : ... .. . ... : ... .. . ... ...
ROW 21 : ... .. 5 ... ... ... : ... .. . ... ... ... : --- .. . ... : ... .. . ... : ... .. . ... ...
ROW 22 : ... .. 4 ... ... ... : ... .. . ... ... ... : ... .. . ... : ... .. . ... : ... .. . ... ...
ROW 23 : ... .. 3 ... ... ... : ... .. . ... ... ... : ... .. . ... : ... .. . ... : ... .. . ... ...
ROW 24 : ... .. 2 ... ... ... : ... .. . ... ... ... : ... .. . ... : ... .. . ... : ... .. . ... ...
ROW 25 : ... .. 1 ... ... ... : ... .. . ... ... ... : ... .. . ... : ... .. . ... : ... .. . ... ...
ROW 26 : ... .. 0 ... ... ... : ... .. . ... ... ... : ... .. . ... : ... .. . ... : ... .. . ... ...
ROW 27 : ... .. . ... ... ... : ... .. . ... ... ... : ... .. . ... : ... .. . ... : ... .. . ... ...
ROW 28 : B-5 00 A P80 ... ... : ... .. . ... ... ... : ... .. . ... : ... .. . ... : ... .. . ... ...
ROW 29 : ... .. 9 ... ... ... : ... .. . ... ... ... : B-5 00 . ... : ... .. . ... : ... .. . ... ...
ROW 2A : ... .. 8 ... ... ... : ... .. . ... ... ... : ... .. . ... : ... .. . ... : ... .. . ... ...
ROW 2B : ... .. . ... ... ... : ... .. . ... ... ... : ... .. . ... : ... .. . ... : ... .. . ... ...
ROW 2C : ... .. . ... ... ... : ... .. . ... ... ... : ... .. . ... : ... .. . ... : ... .. . ... ...
ROW 2D : ... .. . ... ... ... : ... .. . ... ... ... : ... .. . ... : ... .. . ... : ... .. . ... ...
ROW 2E : ... .. . ... ... ... : ... .. . ... ... ... : ... .. . ... : ... .. . ... : ... .. . ... ...
ROW 2F : ... .. 7 ... ... ... : ... .. . ... ... ... : ... .. . ... : ... .. . ... : ... .. . ... ...
ROW 30 : ... .. 6 ... ... ... : ... .. . ... ... ... : ... .. . ... : ... .. . ... : ... .. . ... ...
ROW 31 : ... .. 5 ... ... ... : ... .. . ... ... ... : --- .. . ... : ... .. . ... : ... .. . ... ...
ROW 32 : ... .. 4 ... ... ... : ... .. . ... ... ... : ... .. . ... : ... .. . ... : ... .. . ... ...
ROW 33 : ... .. 3 ... ... ... : ... .. . ... ... ... : ... .. . ... : ... .. . ... : ... .. . ... ...
ROW 34 : ... .. 2 ... ... ... : ... .. . ... ... ... : ... .. . ... : ... .. . ... : ... .. . ... ...
ROW 35 : ... .. 1 ... ... ... : ... .. . ... ... ... : ... .. . ... : ... .. . ... : ... .. . ... ...
ROW 36 : ... .. 0 ... ... ... : ... .. . ... ... ... : ... .. . ... : ... .. . ... : ... .. . ... ...
ROW 37 : ... .. . ... ... ... : ... .. . ... ... ... : ... .. . ... : ... .. . ... : ... .. . ... ...
ROW 38 : F#5 00 A P80 ... ... : ... .. . ... ... ... : ... .. . ... : ... .. . ... : ... .. . ... ...
ROW 39 : ... .. 9 ... ... ... : ... .. . ... ... ... : F#5 00 . ... : ... .. . ... : ... .. . ... ...
ROW 3A : ... .. 8 ... ... ... : ... .. . ... ... ... : ... .. . ... : ... .. . ... : ... .. . ... ...
ROW 3B : ... .. . ... ... ... : ... .. . ... ... ... : ... .. . ... : ... .. . ... : ... .. . ... ...
ROW 3C : ... .. . ... ... ... : ... .. . ... ... ... : ... .. . ... : ... .. . ... : ... .. . ... ...
ROW 3D : ... .. . ... ... ... : ... .. . ... ... ... : ... .. . ... : ... .. . ... : ... .. . ... ...
ROW 3E : ... .. . ... ... ... : ... .. . ... ... ... : ... .. . ... : ... .. . ... : ... .. . ... ...
ROW 3F : ... .. 7 ... ... ... : ... .. . ... ... ... : ... .. . ... : ... .. . ... : ... .. . ... ...
ROW 40 : ... .. 6 ... ... ... : ... .. . ... ... ... : ... .. . ... : ... .. . ... : ... .. . ... ...
ROW 41 : ... .. 5 ... ... ... : ... .. . ... ... ... : --- .. . ... : ... .. . ... : ... .. . ... ...
ROW 42 : ... .. 4 ... ... ... : ... .. . ... ... ... : ... .. . ... : ... .. . ... : ... .. . ... ...
ROW 43 : ... .. 3 ... ... ... : ... .. . ... ... ... : ... .. . ... : ... .. . ... : ... .. . ... ...
ROW 44 : ... .. 2 ... ... ... : ... .. . ... ... ... : ... .. . ... : ... .. . ... : ... .. . ... ...
ROW 45 : ... .. 1 ... ... ... : ... .. . ... ... ... : ... .. . ... : ... .. . ... : ... .. . ... ...
ROW 46 : ... .. 0 ... ... ... : ... .. . ... ... ... : ... .. . ... : ... .. . ... : ... .. . ... ...
ROW 47 : ... .. . ... ... ... : ... .. . ... ... ... : ... .. . ... : ... .. . ... : ... .. . ... ...
ROW 48 : E-5 00 A P80 ... ... : ... .. . ... ... ... : ... .. . ... : ... .. . ... : ... .. . ... ...
ROW 49 : ... .. 9 ... ... ... : ... .. . ... ... ... : E-5 00 . ... : ... .. . ... : ... .. . ... ...
ROW 4A : ... .. 8 ... ... ... : ... .. . ... ... ... : ... .. . ... : ... .. . ... : ... .. . ... ...
ROW 4B : ... .. . ... ... ... : ... .. . ... ... ... : ... .. . ... : ... .. . ... : ... .. . ... ...
ROW 4C : ... .. . ... ... ... : ... .. . ... ... ... : ... .. . ... : ... .. . ... : ... .. . ... ...
ROW 4D : ... .. . ... ... ... : ... .. . ... ... ... : ... .. . ... : ... .. . ... : ... .. . ... ...
ROW 4E : ... .. . ... ... ... : ... .. . ... ... ... : ... .. . ... : ... .. . ... : ... .. . ... ...
ROW 4F : ... .. 7 ... ... ... : ... .. . ... ... ... : ... .. . ... : ... .. . ... : ... .. . ... ...
ROW 50 : ... .. 6 ... ... ... : ... .. . ... ... ... : ... .. . ... : ... .. . ... : ... .. . ... ...
ROW 51 : ... .. 5 ... ... ... : ... .. . ... ... ... : --- .. . ... : ... .. . ... : ... .. . ... ...
ROW 52 : ... .. 4 ... ... ... : ... .. . ... ... ... : ... .. . ... : ... .. . ... : ... .. . ... ...
ROW 53 : ... .. 3 ... ... ... : ... .. . ... ... ... : ... .. . ... : ... .. . ... : ... .. . ... ...
ROW 54 : ... .. 2 ... ... ... : ... .. . ... ... ... : ... .. . ... : ... .. . ... : ... .. . ... ...
ROW 55 : ... .. 1 ... ... ... : ... .. . ... ... ... : ... .. . ... : ... .. . ... : ... .. . ... ...
ROW 56 : ... .. 0 ... ... ... : ... .. . ... ... ... : ... .. . ... : ... .. . ... : ... .. . ... ...
ROW 57 : ... .. . ... ... ... : ... .. . ... ... ... : ... .. . ... : ... .. . ... : ... .. . ... ...
ROW 58 : B-4 00 A P7F ... ... : ... .. . ... ... ... : ... .. . ... : ... .. . ... : ... .. . ... ...
ROW 59 : ... .. 9 ... ... ... : ... .. . ... ... ... : B-4 00 . P7F : ... .. . ... : ... .. . ... ...
ROW 5A : ... .. 8 ... ... ... : ... .. . ... ... ... : ... .. . ... : ... .. . ... : ... .. . ... ...
ROW 5B : ... .. 7 ... ... ... : ... .. . ... ... ... : ... .. . ... : ... .. . ... : ... .. . ... ...
ROW 5C : ... .. 6 ... ... ... : ... .. . ... ... ... : ... .. . ... : ... .. . ... : ... .. . ... ...
ROW 5D : ... .. 5 ... ... ... : ... .. . ... ... ... : ... .. . ... : ... .. . ... : ... .. . ... ...
ROW 5E : ... .. 4 ... ... ... : ... .. . ... ... ... : ... .. . ... : ... .. . ... : ... .. . ... ...
ROW 5F : ... .. 3 ... ... ... : ... .. . ... ... ... : ... .. . ... : ... .. . ... : ... .. . ... ...
ROW 60 : E-5 00 A P80 ... ... : ... .. . ... ... ... : ... .. . ... : ... .. . ... : ... .. . ... ...
ROW 61 : ... .. 9 ... ... ... : ... .. . ... ... ... : E-5 00 . P80 : ... .. . ... : ... .. . ... ...
ROW 62 : ... .. 8 ... ... ... : ... .. . ... ... ... : ... .. . ... : ... .. . ... : ... .. . ... ...
ROW 63 : ... .. 7 ... ... ... : ... .. . ... ... ... : ... .. . ... : ... .. . ... : ... .. . ... ...
ROW 64 : ... .. 6 ... ... ... : ... .. . ... ... ... : ... .. . ... : ... .. . ... : ... .. . ... ...
ROW 65 : ... .. 5 ... ... ... : ... .. B ... ... ... : ... .. . ... : ... .. . ... : ... .. . ... ...
ROW 66 : ... .. 4 ... ... ... : ... .. A ... ... ... : ... .. . ... : ... .. . ... : ... .. . ... ...
ROW 67 : ... .. 3 ... ... ... : ... .. 9 ... ... ... : ... .. . ... : ... .. . ... : ... .. . ... ...
ROW 68 : B-4 00 A P7F ... ... : ... .. 0 ... V00 ... : ... .. . ... : ... .. . ... : ... .. . ... ...
ROW 69 : ... .. 9 ... ... ... : ... .. . ... ... ... : B-4 00 . P7F : ... .. . ... : ... .. . ... ...
ROW 6A : ... .. 8 ... ... ... : ... .. . ... ... ... : ... .. . ... : ... .. . ... : ... .. . ... ...
ROW 6B : ... .. 7 ... ... ... : ... .. . ... ... ... : ... .. . ... : ... .. . ... : ... .. . ... ...
ROW 6C : ... .. 6 ... ... ... : ... .. . ... ... ... : ... .. . ... : ... .. . ... : ... .. . ... ...
ROW 6D : ... .. 5 ... ... ... : ... .. . ... ... ... : ... .. . ... : ... .. . ... : ... .. . ... ...
ROW 6E : ... .. 4 ... ... ... : ... .. . ... ... ... : ... .. . ... : ... .. . ... : ... .. . ... ...
ROW 6F : ... .. 3 ... ... ... : ... .. . ... ... ... : ... .. . ... : ... .. . ... : ... .. . ... ...
ROW 70 : E-5 00 A P80 ... ... : B-3 00 F P7F V03 ... : ... .. . ... : ... .. . ... : ... .. . ... ...
ROW 71 : ... .. 9 ... ... ... : ... .. E ... ... ... : E-5 00 . P80 : ... .. . ... : ... .. . ... ...
ROW 72 : ... .. 8 ... ... ... : ... .. D ... ... ... : ... .. . ... : ... .. . ... : ... .. . ... ...
ROW 73 : ... .. 7 ... ... ... : ... .. C ... ... ... : ... .. . ... : ... .. . ... : ... .. . ... ...
ROW 74 : ... .. 6 ... ... ... : ... .. . ... ... ... : ... .. . ... : ... .. . ... : ... .. . ... ...
ROW 75 : ... .. 5 ... ... ... : ... .. B ... ... ... : ... .. . ... : ... .. . ... : ... .. . ... ...
ROW 76 : ... .. 4 ... ... ... : ... .. A ... ... ... : ... .. . ... : ... .. . ... : ... .. . ... ...
ROW 77 : ... .. 3 ... ... ... : ... .. 9 ... ... ... : ... .. . ... : ... .. . ... : ... .. . ... ...
ROW 78 : F#5 00 A P80 ... ... : ... .. 0 ... V00 ... : ... .. . ... : ... .. . ... : ... .. . ... ...
ROW 79 : ... .. 9 ... ... ... : ... .. . ... ... ... : F#5 00 . ... : ... .. . ... : ... .. . ... ...
ROW 7A : ... .. 8 ... ... ... : ... .. . ... ... ... : ... .. . ... : ... .. . ... : ... .. . ... ...
ROW 7B : ... .. 7 ... ... ... : ... .. . ... ... ... : ... .. . ... : ... .. . ... : ... .. . ... ...
ROW 7C : ... .. 6 ... ... ... : ... .. . ... ... ... : ... .. . ... : ... .. . ... : ... .. . ... ...
ROW 7D : ... .. 5 ... ... ... : ... .. . ... ... ... : ... .. . ... : ... .. . ... : ... .. . ... ...
ROW 7E : ... .. 4 ... ... ... : ... .. . ... ... ... : ... .. . ... : ... .. . ... : ... .. . ... ...
ROW 7F : ... .. 3 ... ... ... : ... .. . ... ... ... : ... .. . ... : ... .. . ... : ... .. . ... ...
ROW 80 : E-5 00 A P80 ... ... : A-3 00 F P7F V03 ... : ... .. . ... : ... .. . ... : ... .. . ... ...
ROW 81 : ... .. 9 ... ... ... : ... .. E ... ... ... : E-5 00 . ... : ... .. . ... : ... .. . ... ...
ROW 82 : ... .. 8 ... ... ... : ... .. D ... ... ... : ... .. . ... : ... .. . ... : ... .. . ... ...
ROW 83 : ... .. 7 ... ... ... : ... .. C ... ... ... : ... .. . ... : ... .. . ... : ... .. . ... ...
ROW 84 : ... .. 6 ... ... ... : ... .. . ... ... ... : ... .. . ... : ... .. . ... : ... .. . ... ...
ROW 85 : ... .. 5 ... ... ... : ... .. . ... ... ... : ... .. . ... : ... .. . ... : ... .. . ... ...
ROW 86 : ... .. 4 ... ... ... : ... .. . ... ... ... : ... .. . ... : ... .. . ... : ... .. . ... ...
ROW 87 : ... .. 3 ... ... ... : ... .. . ... ... ... : ... .. . ... : ... .. . ... : ... .. . ... ...
ROW 88 : B-4 00 A P7F ... ... : ... .. . ... ... ... : ... .. . ... : ... .. . ... : ... .. . ... ...
ROW 89 : ... .. 9 ... ... ... : ... .. . ... ... ... : B-4 00 . P7F : ... .. . ... : ... .. . ... ...
ROW 8A : ... .. 8 ... ... ... : ... .. . ... ... ... : ... .. . ... : ... .. . ... : ... .. . ... ...
ROW 8B : ... .. 7 ... ... ... : ... .. . ... ... ... : ... .. . ... : ... .. . ... : ... .. . ... ...
ROW 8C : ... .. 6 ... ... ... : ... .. . ... ... ... : ... .. . ... : ... .. . ... : ... .. . ... ...
ROW 8D : ... .. 5 ... ... ... : ... .. . ... ... ... : ... .. . ... : ... .. . ... : ... .. . ... ...
ROW 8E : ... .. 4 ... ... ... : ... .. . ... ... ... : ... .. . ... : ... .. . ... : ... .. . ... ...
ROW 8F : ... .. 3 ... ... ... : ... .. . ... ... ... : ... .. . ... : ... .. . ... : ... .. . ... ...
ROW 90 : E-5 00 A P80 ... ... : ... .. . ... ... ... : ... .. . ... : ... .. . ... : ... .. . ... ...
ROW 91 : ... .. 9 ... ... ... : ... .. . ... ... ... : E-5 00 . P80 : ... .. . ... : ... .. . ... ...
ROW 92 : ... .. 8 ... ... ... : ... .. . ... ... ... : ... .. . ... : ... .. . ... : ... .. . ... ...
ROW 93 : ... .. 7 ... ... ... : ... .. . ... ... ... : ... .. . ... : ... .. . ... : ... .. . ... ...
ROW 94 : ... .. 6 ... ... ... : ... .. . ... ... ... : ... .. . ... : ... .. . ... : ... .. . ... ...
ROW 95 : ... .. 5 ... ... ... : ... .. . ... ... ... : ... .. . ... : ... .. . ... : ... .. . ... ...
ROW 96 : ... .. 4 ... ... ... : ... .. . ... ... ... : ... .. . ... : ... .. . ... : ... .. . ... ...
ROW 97 : ... .. 3 ... ... ... : ... .. . ... ... ... : ... .. . ... : ... .. . ... : ... .. . ... ...
ROW 98 : F#5 00 A P80 ... ... : ... .. . ... ... ... : ... .. . ... : ... .. . ... : ... .. . ... ...
ROW 99 : ... .. 9 ... ... ... : ... .. . ... ... ... : F#5 00 . ... : ... .. . ... : ... .. . ... ...
ROW 9A : ... .. 8 ... ... ... : ... .. . ... ... ... : ... .. . ... : ... .. . ... : ... .. . ... ...
ROW 9B : ... .. . ... ... ... : ... .. . ... ... ... : ... .. . ... : ... .. . ... : ... .. . ... ...
ROW 9C : ... .. . ... ... ... : ... .. . ... ... ... : ... .. . ... : ... .. . ... : ... .. . ... ...
ROW 9D : ... .. . ... ... ... : ... .. . ... ... ... : ... .. . ... : ... .. . ... : ... .. . ... ...
ROW 9E : ... .. . ... ... ... : ... .. . ... ... ... : ... .. . ... : ... .. . ... : ... .. . ... ...
ROW 9F : ... .. 7 ... ... ... : ... .. . ... ... ... : ... .. . ... : ... .. . ... : ... .. . ... ...
ROW A0 : ... .. 6 ... ... ... : ... .. . ... ... ... : ... .. . ... : ... .. . ... : ... .. . ... ...
ROW A1 : ... .. 5 ... ... ... : ... .. . ... ... ... : --- .. . ... : ... .. . ... : ... .. . ... ...
ROW A2 : ... .. 4 ... ... ... : ... .. . ... ... ... : ... .. . ... : ... .. . ... : ... .. . ... ...
ROW A3 : ... .. 3 ... ... ... : ... .. . ... ... ... : ... .. . ... : ... .. . ... : ... .. . ... ...
ROW A4 : ... .. 2 ... ... ... : ... .. . ... ... ... : ... .. . ... : ... .. . ... : ... .. . ... ...
ROW A5 : ... .. 1 ... ... ... : ... .. . ... ... ... : ... .. . ... : ... .. . ... : ... .. . ... ...
ROW A6 : ... .. 0 ... ... ... : ... .. . ... ... ... : ... .. . ... : ... .. . ... : ... .. . ... ...
ROW A7 : ... .. . ... ... ... : ... .. . ... ... ... : ... .. . ... : ... .. . ... : ... .. . ... ...
ROW A8 : B-5 00 A P80 ... ... : ... .. . ... ... ... : ... .. . ... : ... .. . ... : ... .. . ... ...
ROW A9 : ... .. 9 ... ... ... : ... .. . ... ... ... : B-5 00 . ... : ... .. . ... : ... .. . ... ...
ROW AA : ... .. 8 ... ... ... : ... .. . ... ... ... : ... .. . ... : ... .. . ... : ... .. . ... ...
ROW AB : ... .. . ... ... ... : ... .. . ... ... ... : ... .. . ... : ... .. . ... : ... .. . ... ...
ROW AC : ... .. . ... ... ... : ... .. . ... ... ... : ... .. . ... : ... .. . ... : ... .. . ... ...
ROW AD : ... .. . ... ... ... : ... .. . ... ... ... : ... .. . ... : ... .. . ... : ... .. . ... ...
ROW AE : ... .. . ... ... ... : ... .. . ... ... ... : ... .. . ... : ... .. . ... : ... .. . ... ...
ROW AF : ... .. 7 ... ... ... : ... .. . ... ... ... : ... .. . ... : ... .. . ... : ... .. . ... ...
ROW B0 : ... .. 6 ... ... ... : ... .. . ... ... ... : ... .. . ... : ... .. . ... : ... .. . ... ...
ROW B1 : ... .. 5 ... ... ... : ... .. . ... ... ... : --- .. . ... : ... .. . ... : ... .. . ... ...
ROW B2 : ... .. 4 ... ... ... : ... .. . ... ... ... : ... .. . ... : ... .. . ... : ... .. . ... ...
ROW B3 : ... .. 3 ... ... ... : ... .. . ... ... ... : ... .. . ... : ... .. . ... : ... .. . ... ...
ROW B4 : ... .. 2 ... ... ... : ... .. . ... ... ... : ... .. . ... : ... .. . ... : ... .. . ... ...
ROW B5 : ... .. 1 ... ... ... : ... .. . ... ... ... : ... .. . ... : ... .. . ... : ... .. . ... ...
ROW B6 : ... .. 0 ... ... ... : ... .. . ... ... ... : ... .. . ... : ... .. . ... : ... .. . ... ...
ROW B7 : ... .. . ... ... ... : ... .. . ... ... ... : ... .. . ... : ... .. . ... : ... .. . ... ...
ROW B8 : F#5 00 A P80 ... ... : ... .. . ... ... ... : ... .. . ... : ... .. . ... : ... .. . ... ...
ROW B9 : ... .. 9 ... ... ... : ... .. . ... ... ... : F#5 00 . ... : ... .. . ... : ... .. . ... ...
ROW BA : ... .. 8 ... ... ... : ... .. . ... ... ... : ... .. . ... : ... .. . ... : ... .. . ... ...
ROW BB : ... .. . ... ... ... : ... .. . ... ... ... : ... .. . ... : ... .. . ... : ... .. . ... ...
ROW BC : ... .. . ... ... ... : ... .. . ... ... ... : ... .. . ... : ... .. . ... : ... .. . ... ...
ROW BD : ... .. . ... ... ... : ... .. . ... ... ... : ... .. . ... : ... .. . ... : ... .. . ... ...
ROW BE : ... .. . ... ... ... : ... .. . ... ... ... : ... .. . ... : ... .. . ... : ... .. . ... ...
ROW BF : ... .. 7 ... ... ... : ... .. . ... ... ... : ... .. . ... : ... .. . ... : ... .. . ... ...
ROW C0 : ... .. 6 ... ... ... : ... .. . ... ... ... : ... .. . ... : ... .. . ... : ... .. . ... ...
ROW C1 : ... .. 5 ... ... ... : ... .. . ... ... ... : --- .. . ... : ... .. . ... : ... .. . ... ...
ROW C2 : ... .. 4 ... ... ... : ... .. . ... ... ... : ... .. . ... : ... .. . ... : ... .. . ... ...
ROW C3 : ... .. 3 ... ... ... : ... .. . ... ... ... : ... .. . ... : ... .. . ... : ... .. . ... ...
ROW C4 : ... .. 2 ... ... ... : ... .. . ... ... ... : ... .. . ... : ... .. . ... : ... .. . ... ...
ROW C5 : ... .. 1 ... ... ... : ... .. . ... ... ... : ... .. . ... : ... .. . ... : ... .. . ... ...
ROW C6 : ... .. 0 ... ... ... : ... .. . ... ... ... : ... .. . ... : ... .. . ... : ... .. . ... ...
ROW C7 : ... .. . ... ... ... : ... .. . ... ... ... : ... .. . ... : ... .. . ... : ... .. . ... ...
ROW C8 : E-5 00 A P80 ... ... : ... .. . ... ... ... : ... .. . ... : ... .. . ... : ... .. . ... ...
ROW C9 : ... .. 9 ... ... ... : ... .. . ... ... ... : E-5 00 . ... : ... .. . ... : ... .. . ... ...
ROW CA : ... .. 8 ... ... ... : ... .. . ... ... ... : ... .. . ... : ... .. . ... : ... .. . ... ...
ROW CB : ... .. . ... ... ... : ... .. . ... ... ... : ... .. . ... : ... .. . ... : ... .. . ... ...
ROW CC : ... .. . ... ... ... : ... .. . ... ... ... : ... .. . ... : ... .. . ... : ... .. . ... ...
ROW CD : ... .. . ... ... ... : ... .. . ... ... ... : ... .. . ... : ... .. . ... : ... .. . ... ...
ROW CE : ... .. . ... ... ... : ... .. . ... ... ... : ... .. . ... : ... .. . ... : ... .. . ... ...
ROW CF : ... .. 7 ... ... ... : ... .. . ... ... ... : ... .. . ... : ... .. . ... : ... .. . ... ...
ROW D0 : ... .. 6 ... ... ... : ... .. . ... ... ... : ... .. . ... : ... .. . ... : ... .. . ... ...
ROW D1 : ... .. 5 ... ... ... : ... .. . ... ... ... : --- .. . ... : ... .. . ... : ... .. . ... ...
ROW D2 : ... .. 4 ... ... ... : ... .. . ... ... ... : ... .. . ... : ... .. . ... : ... .. . ... ...
ROW D3 : ... .. 3 ... ... ... : ... .. . ... ... ... : ... .. . ... : ... .. . ... : ... .. . ... ...
ROW D4 : ... .. 2 ... ... ... : ... .. . ... ... ... : ... .. . ... : ... .. . ... : ... .. . ... ...
ROW D5 : ... .. 1 ... ... ... : ... .. . ... ... ... : ... .. . ... : ... .. . ... : ... .. . ... ...
ROW D6 : ... .. 0 ... ... ... : ... .. . ... ... ... : ... .. . ... : ... .. . ... : ... .. . ... ...
ROW D7 : ... .. . ... ... ... : ... .. . ... ... ... : ... .. . ... : ... .. . ... : ... .. . ... ...
ROW D8 : B-4 00 A P7F ... ... : ... .. . ... ... ... : ... .. . ... : ... .. . ... : ... .. . ... ...
ROW D9 : ... .. 9 ... ... ... : ... .. . ... ... ... : B-4 00 . P7F : ... .. . ... : ... .. . ... ...
ROW DA : ... .. 8 ... ... ... : ... .. . ... ... ... : ... .. . ... : ... .. . ... : ... .. . ... ...
ROW DB : ... .. 7 ... ... ... : ... .. . ... ... ... : ... .. . ... : ... .. . ... : ... .. . ... ...
ROW DC : ... .. 6 ... ... ... : ... .. . ... ... ... : ... .. . ... : ... .. . ... : ... .. . ... ...
ROW DD : ... .. 5 ... ... ... : ... .. . ... ... ... : ... .. . ... : ... .. . ... : ... .. . ... ...
ROW DE : ... .. 4 ... ... ... : ... .. . ... ... ... : ... .. . ... : ... .. . ... : ... .. . ... ...
ROW DF : ... .. 3 ... ... ... : ... .. . ... ... ... : ... .. . ... : ... .. . ... : ... .. . ... ...
ROW E0 : E-5 00 A P80 ... ... : ... .. . ... ... ... : ... .. . ... : ... .. . ... : ... .. . ... ...
ROW E1 : ... .. 9 ... ... ... : ... .. . ... ... ... : E-5 00 . P80 : ... .. . ... : ... .. . ... ...
ROW E2 : ... .. 8 ... ... ... : ... .. . ... ... ... : ... .. . ... : ... .. . ... : ... .. . ... ...
ROW E3 : ... .. 7 ... ... ... : ... .. . ... ... ... : ... .. . ... : ... .. . ... : ... .. . ... ...
ROW E4 : ... .. 6 ... ... ... : ... .. . ... ... ... : ... .. . ... : ... .. . ... : ... .. . ... ...
ROW E5 : ... .. 5 ... ... ... : ... .. B ... ... ... : ... .. . ... : ... .. . ... : ... .. . ... ...
ROW E6 : ... .. 4 ... ... ... : ... .. A ... ... ... : ... .. . ... : ... .. . ... : ... .. . ... ...
ROW E7 : ... .. 3 ... ... ... : ... .. 9 ... ... ... : ... .. . ... : ... .. . ... : ... .. . ... ...
ROW E8 : B-4 00 A P7F ... ... : ... .. 0 ... V00 ... : ... .. . ... : ... .. . ... : ... .. . ... ...
ROW E9 : ... .. 9 ... ... ... : ... .. . ... ... ... : B-4 00 . P7F : ... .. . ... : ... .. . ... ...
ROW EA : ... .. 8 ... ... ... : ... .. . ... ... ... : ... .. . ... : ... .. . ... : ... .. . ... ...
ROW EB : ... .. 7 ... ... ... : ... .. . ... ... ... : ... .. . ... : ... .. . ... : ... .. . ... ...
ROW EC : ... .. 6 ... ... ... : ... .. . ... ... ... : ... .. . ... : ... .. . ... : ... .. . ... ...
ROW ED : ... .. 5 ... ... ... : ... .. . ... ... ... : ... .. . ... : ... .. . ... : ... .. . ... ...
ROW EE : ... .. 4 ... ... ... : ... .. . ... ... ... : ... .. . ... : ... .. . ... : ... .. . ... ...
ROW EF : ... .. 3 ... ... ... : ... .. . ... ... ... : ... .. . ... : ... .. . ... : ... .. . ... ...
ROW F0 : E-5 00 A P80 ... ... : A-3 00 F P7F V03 ... : ... .. . ... : ... .. . ... : ... .. . ... ...
ROW F1 : ... .. 9 ... ... ... : ... .. E ... ... ... : E-5 00 . P80 : ... .. . ... : ... .. . ... ...
ROW F2 : ... .. 8 ... ... ... : ... .. D ... ... ... : ... .. . ... : ... .. . ... : ... .. . ... ...
ROW F3 : ... .. 7 ... ... ... : ... .. C ... ... ... : ... .. . ... : ... .. . ... : ... .. . ... ...
ROW F4 : ... .. 6 ... ... ... : ... .. . ... ... ... : ... .. . ... : ... .. . ... : ... .. . ... ...
ROW F5 : ... .. 5 ... ... ... : ... .. B ... ... ... : ... .. . ... : ... .. . ... : ... .. . ... ...
ROW F6 : ... .. 4 ... ... ... : ... .. A ... ... ... : ... .. . ... : ... .. . ... : ... .. . ... ...
ROW F7 : ... .. 3 ... ... ... : ... .. 9 ... ... ... : ... .. . ... : ... .. . ... : ... .. . ... ...
ROW F8 : F#5 00 A P80 ... ... : ... .. 0 ... V00 ... : ... .. . ... : ... .. . ... : ... .. . ... ...
ROW F9 : ... .. 9 ... ... ... : ... .. . ... ... ... : F#5 00 . ... : ... .. . ... : ... .. . ... ...
ROW FA : ... .. 8 ... ... ... : ... .. . ... ... ... : ... .. . ... : ... .. . ... : ... .. . ... ...
ROW FB : ... .. 7 ... ... ... : ... .. . ... ... ... : ... .. . ... : ... .. . ... : ... .. . ... ...
ROW FC : ... .. 6 ... ... ... : ... .. . ... ... ... : ... .. . ... : ... .. . ... : ... .. . ... ...
ROW FD : ... .. 5 ... ... ... : ... .. . ... ... ... : ... .. . ... : ... .. . ... : ... .. . ... ...
ROW FE : ... .. 4 ... ... ... : ... .. . ... ... ... : ... .. . ... : ... .. . ... : ... .. . ... ...
ROW FF : ... .. 3 ... ... ... : ... .. . ... ... ... : ... .. . ... : ... .. . ... : ... .. . ... ...

PATTERN 01
ROW 00 : E-5 00 A P80 ... ... : G-3 00 F P7F V03 ... : ... .. . ... : ... .. . ... : ... .. . ... ...
ROW 01 : ... .. 9 ... ... ... : ... .. E ... ... ... : E-5 00 . ... : ... .. . ... : ... .. . ... ...
ROW 02 : ... .. 8 ... ... ... : ... .. D ... ... ... : ... .. . ... : ... .. . ... : ... .. . ... ...
ROW 03 : ... .. 7 ... ... ... : ... .. C ... ... ... : ... .. . ... : ... .. . ... : ... .. . ... ...
ROW 04 : ... .. 6 ... ... ... : ... .. . ... ... ... : ... .. . ... : ... .. . ... : ... .. . ... ...
ROW 05 : ... .. 5 ... ... ... : ... .. . ... ... ... : ... .. . ... : ... .. . ... : ... .. . ... ...
ROW 06 : ... .. 4 ... ... ... : ... .. . ... ... ... : ... .. . ... : ... .. . ... : ... .. . ... ...
ROW 07 : ... .. 3 ... ... ... : ... .. . ... ... ... : ... .. . ... : ... .. . ... : ... .. . ... ...
ROW 08 : B-4 00 A P7F ... ... : ... .. . ... ... ... : ... .. . ... : ... .. . ... : ... .. . ... ...
ROW 09 : ... .. 9 ... ... ... : ... .. . ... ... ... : B-4 00 . P7F : ... .. . ... : ... .. . ... ...
ROW 0A : ... .. 8 ... ... ... : ... .. . ... ... ... : ... .. . ... : ... .. . ... : ... .. . ... ...
ROW 0B : ... .. 7 ... ... ... : ... .. . ... ... ... : ... .. . ... : ... .. . ... : ... .. . ... ...
ROW 0C : ... .. 6 ... ... ... : ... .. . ... ... ... : ... .. . ... : ... .. . ... : ... .. . ... ...
ROW 0D : ... .. 5 ... ... ... : ... .. . ... ... ... : ... .. . ... : ... .. . ... : ... .. . ... ...
ROW 0E : ... .. 4 ... ... ... : ... .. . ... ... ... : ... .. . ... : ... .. . ... : ... .. . ... ...
ROW 0F : ... .. 3 ... ... ... : ... .. . ... ... ... : ... .. . ... : ... .. . ... : ... .. . ... ...
ROW 10 : E-5 00 A P80 ... ... : ... .. . ... ... ... : ... .. . ... : ... .. . ... : ... .. . ... ...
ROW 11 : ... .. 9 ... ... ... : ... .. . ... ... ... : E-5 00 . P80 : ... .. . ... : ... .. . ... ...
ROW 12 : ... .. 8 ... ... ... : ... .. . ... ... ... : ... .. . ... : ... .. . ... : ... .. . ... ...
ROW 13 : ... .. 7 ... ... ... : ... .. . ... ... ... : ... .. . ... : ... .. . ... : ... .. . ... ...
ROW 14 : ... .. 6 ... ... ... : ... .. . ... ... ... : ... .. . ... : ... .. . ... : ... .. . ... ...
ROW 15 : ... .. 5 ... ... ... : ... .. . ... ... ... : ... .. . ... : ... .. . ... : ... .. . ... ...
ROW 16 : ... .. 4 ... ... ... : ... .. . ... ... ... : ... .. . ... : ... .. . ... : ... .. . ... ...
ROW 17 : ... .. 3 ... ... ... : ... .. . ... ... ... : ... .. . ... : ... .. . ... : ... .. . ... ...
ROW 18 : F#5 00 A P80 ... ... : ... .. . ... ... ... : ... .. . ... : ... .. . ... : ... .. . ... ...
ROW 19 : ... .. 9 ... ... ... : ... .. . ... ... ... : F#5 00 . ... : ... .. . ... : ... .. . ... ...
ROW 1A : ... .. 8 ... ... ... : ... .. . ... ... ... : ... .. . ... : ... .. . ... : ... .. . ... ...
ROW 1B : ... .. . ... ... ... : ... .. . ... ... ... : ... .. . ... : ... .. . ... : ... .. . ... ...
ROW 1C : ... .. . ... ... ... : ... .. . ... ... ... : ... .. . ... : ... .. . ... : ... .. . ... ...
ROW 1D : ... .. . ... ... ... : ... .. . ... ... ... : ... .. . ... : ... .. . ... : ... .. . ... ...
ROW 1E : ... .. . ... ... ... : ... .. . ... ... ... : ... .. . ... : ... .. . ... : ... .. . ... ...
ROW 1F : ... .. 7 ... ... ... : ... .. . ... ... ... : ... .. . ... : ... .. . ... : ... .. . ... ...
ROW 20 : ... .. 6 ... ... ... : ... .. . ... ... ... : ... .. . ... : ... .. . ... : ... .. . ... ...
ROW 21 : ... .. 5 ... ... ... : ... .. . ... ... ... : --- .. . ... : ... .. . ... : ... .. . ... ...
ROW 22 : ... .. 4 ... ... ... : ... .. . ... ... ... : ... .. . ... : ... .. . ... : ... .. . ... ...
ROW 23 : ... .. 3 ... ... ... : ... .. . ... ... ... : ... .. . ... : ... .. . ... : ... .. . ... ...
ROW 24 : ... .. 2 ... ... ... : ... .. . ... ... ... : ... .. . ... : ... .. . ... : ... .. . ... ...
ROW 25 : ... .. 1 ... ... ... : ... .. . ... ... ... : ... .. . ... : ... .. . ... : ... .. . ... ...
ROW 26 : ... .. 0 ... ... ... : ... .. . ... ... ... : ... .. . ... : ... .. . ... : ... .. . ... ...
ROW 27 : ... .. . ... ... ... : ... .. . ... ... ... : ... .. . ... : ... .. . ... : ... .. . ... ...
ROW 28 : B-5 00 A P80 ... ... : ... .. . ... ... ... : ... .. . ... : ... .. . ... : ... .. . ... ...
ROW 29 : ... .. 9 ... ... ... : ... .. . ... ... ... : B-5 00 . ... : ... .. . ... : ... .. . ... ...
ROW 2A : ... .. 8 ... ... ... : ... .. . ... ... ... : ... .. . ... : ... .. . ... : ... .. . ... ...
ROW 2B : ... .. . ... ... ... : ... .. . ... ... ... : ... .. . ... : ... .. . ... : ... .. . ... ...
ROW 2C : ... .. . ... ... ... : ... .. . ... ... ... : ... .. . ... : ... .. . ... : ... .. . ... ...
ROW 2D : ... .. . ... ... ... : ... .. . ... ... ... : ... .. . ... : ... .. . ... : ... .. . ... ...
ROW 2E : ... .. . ... ... ... : ... .. . ... ... ... : ... .. . ... : ... .. . ... : ... .. . ... ...
ROW 2F : ... .. 7 ... ... ... : ... .. . ... ... ... : ... .. . ... : ... .. . ... : ... .. . ... ...
ROW 30 : ... .. 6 ... ... ... : ... .. . ... ... ... : ... .. . ... : ... .. . ... : ... .. . ... ...
ROW 31 : ... .. 5 ... ... ... : ... .. . ... ... ... : --- .. . ... : ... .. . ... : ... .. . ... ...
ROW 32 : ... .. 4 ... ... ... : ... .. . ... ... ... : ... .. . ... : ... .. . ... : ... .. . ... ...
ROW 33 : ... .. 3 ... ... ... : ... .. . ... ... ... : ... .. . ... : ... .. . ... : ... .. . ... ...
ROW 34 : ... .. 2 ... ... ... : ... .. . ... ... ... : ... .. . ... : ... .. . ... : ... .. . ... ...
ROW 35 : ... .. 1 ... ... ... : ... .. . ... ... ... : ... .. . ... : ... .. . ... : ... .. . ... ...
ROW 36 : ... .. 0 ... ... ... : ... .. . ... ... ... : ... .. . ... : ... .. . ... : ... .. . ... ...
ROW 37 : ... .. . ... ... ... : ... .. . ... ... ... : ... .. . ... : ... .. . ... : ... .. . ... ...
ROW 38 : F#5 00 A P80 ... ... : ... .. . ... ... ... : ... .. . ... : ... .. . ... : ... .. . ... ...
ROW 39 : ... .. 9 ... ... ... : ... .. . ... ... ... : F#5 00 . ... : ... .. . ... : ... .. . ... ...
ROW 3A : ... .. 8 ... ... ... : ... .. . ... ... ... : ... .. . ... : ... .. . ... : ... .. . ... ...
ROW 3B : ... .. . ... ... ... : ... .. . ... ... ... : ... .. . ... : ... .. . ... : ... .. . ... ...
ROW 3C : ... .. . ... ... ... : ... .. . ... ... ... : ... .. . ... : ... .. . ... : ... .. . ... ...
ROW 3D : ... .. . ... ... ... : ... .. . ... ... ... : ... .. . ... : ... .. . ... : ... .. . ... ...
ROW 3E : ... .. . ... ... ... : ... .. . ... ... ... : ... .. . ... : ... .. . ... : ... .. . ... ...
ROW 3F : ... .. 7 ... ... ... : ... .. . ... ... ... : ... .. . ... : ... .. . ... : ... .. . ... ...
ROW 40 : ... .. 6 ... ... ... : ... .. . ... ... ... : ... .. . ... : ... .. . ... : ... .. . ... ...
ROW 41 : ... .. 5 ... ... ... : ... .. . ... ... ... : --- .. . ... : ... .. . ... : ... .. . ... ...
ROW 42 : ... .. 4 ... ... ... : ... .. . ... ... ... : ... .. . ... : ... .. . ... : ... .. . ... ...
ROW 43 : ... .. 3 ... ... ... : ... .. . ... ... ... : ... .. . ... : ... .. . ... : ... .. . ... ...
ROW 44 : ... .. 2 ... ... ... : ... .. . ... ... ... : ... .. . ... : ... .. . ... : ... .. . ... ...
ROW 45 : ... .. 1 ... ... ... : ... .. . ... ... ... : ... .. . ... : ... .. . ... : ... .. . ... ...
ROW 46 : ... .. 0 ... ... ... : ... .. . ... ... ... : ... .. . ... : ... .. . ... : ... .. . ... ...
ROW 47 : ... .. . ... ... ... : ... .. . ... ... ... : ... .. . ... : ... .. . ... : ... .. . ... ...
ROW 48 : E-5 00 A P80 ... ... : ... .. . ... ... ... : ... .. . ... : ... .. . ... : ... .. . ... ...
ROW 49 : ... .. 9 ... ... ... : ... .. . ... ... ... : E-5 00 . ... : ... .. . ... : ... .. . ... ...
ROW 4A : ... .. 8 ... ... ... : ... .. . ... ... ... : ... .. . ... : ... .. . ... : ... .. . ... ...
ROW 4B : ... .. . ... ... ... : ... .. . ... ... ... : ... .. . ... : ... .. . ... : ... .. . ... ...
ROW 4C : ... .. . ... ... ... : ... .. . ... ... ... : ... .. . ... : ... .. . ... : ... .. . ... ...
ROW 4D : ... .. . ... ... ... : ... .. . ... ... ... : ... .. . ... : ... .. . ... : ... .. . ... ...
ROW 4E : ... .. . ... ... ... : ... .. . ... ... ... : ... .. . ... : ... .. . ... : ... .. . ... ...
ROW 4F : ... .. 7 ... ... ... : ... .. . ... ... ... : ... .. . ... : ... .. . ... : ... .. . ... ...
ROW 50 : ... .. 6 ... ... ... : ... .. . ... ... ... : ... .. . ... : ... .. . ... : ... .. . ... ...
ROW 51 : ... .. 5 ... ... ... : ... .. . ... ... ... : --- .. . ... : ... .. . ... : ... .. . ... ...
ROW 52 : ... .. 4 ... ... ... : ... .. . ... ... ... : ... .. . ... : ... .. . ... : ... .. . ... ...
ROW 53 : ... .. 3 ... ... ... : ... .. . ... ... ... : ... .. . ... : ... .. . ... : ... .. . ... ...
ROW 54 : ... .. 2 ... ... ... : ... .. . ... ... ... : ... .. . ... : ... .. . ... : ... .. . ... ...
ROW 55 : ... .. 1 ... ... ... : ... .. . ... ... ... : ... .. . ... : ... .. . ... : ... .. . ... ...
ROW 56 : ... .. 0 ... ... ... : ... .. . ... ... ... : ... .. . ... : ... .. . ... : ... .. . ... ...
ROW 57 : ... .. . ... ... ... : ... .. . ... ... ... : ... .. . ... : ... .. . ... : ... .. . ... ...
ROW 58 : B-4 00 A P7F ... ... : ... .. . ... ... ... : ... .. . ... : ... .. . ... : ... .. . ... ...
ROW 59 : ... .. 9 ... ... ... : ... .. . ... ... ... : B-4 00 . P7F : ... .. . ... : ... .. . ... ...
ROW 5A : ... .. 8 ... ... ... : ... .. . ... ... ... : ... .. . ... : ... .. . ... : ... .. . ... ...
ROW 5B : ... .. 7 ... ... ... : ... .. . ... ... ... : ... .. . ... : ... .. . ... : ... .. . ... ...
ROW 5C : ... .. 6 ... ... ... : ... .. . ... ... ... : ... .. . ... : ... .. . ... : ... .. . ... ...
ROW 5D : ... .. 5 ... ... ... : ... .. . ... ... ... : ... .. . ... : ... .. . ... : ... .. . ... ...
ROW 5E : ... .. 4 ... ... ... : ... .. . ... ... ... : ... .. . ... : ... .. . ... : ... .. . ... ...
ROW 5F : ... .. 3 ... ... ... : ... .. . ... ... ... : ... .. . ... : ... .. . ... : ... .. . ... ...
ROW 60 : E-5 00 A P80 ... ... : ... .. . ... ... ... : ... .. . ... : ... .. . ... : ... .. . ... ...
ROW 61 : ... .. 9 ... ... ... : ... .. . ... ... ... : E-5 00 . P80 : ... .. . ... : ... .. . ... ...
ROW 62 : ... .. 8 ... ... ... : ... .. . ... ... ... : ... .. . ... : ... .. . ... : ... .. . ... ...
ROW 63 : ... .. 7 ... ... ... : ... .. . ... ... ... : ... .. . ... : ... .. . ... : ... .. . ... ...
ROW 64 : ... .. 6 ... ... ... : ... .. . ... ... ... : ... .. . ... : ... .. . ... : ... .. . ... ...
ROW 65 : ... .. 5 ... ... ... : ... .. B ... ... ... : ... .. . ... : ... .. . ... : ... .. . ... ...
ROW 66 : ... .. 4 ... ... ... : ... .. A ... ... ... : ... .. . ... : ... .. . ... : ... .. . ... ...
ROW 67 : ... .. 3 ... ... ... : ... .. 9 ... ... ... : ... .. . ... : ... .. . ... : ... .. . ... ...
ROW 68 : B-4 00 A P7F ... ... : ... .. 0 ... V00 ... : ... .. . ... : ... .. . ... : ... .. . ... ...
ROW 69 : ... .. 9 ... ... ... : ... .. . ... ... ... : B-4 00 . P7F : ... .. . ... : ... .. . ... ...
ROW 6A : ... .. 8 ... ... ... : ... .. . ... ... ... : ... .. . ... : ... .. . ... : ... .. . ... ...
ROW 6B : ... .. 7 ... ... ... : ... .. . ... ... ... : ... .. . ... : ... .. . ... : ... .. . ... ...
ROW 6C : ... .. 6 ... ... ... : ... .. . ... ... ... : ... .. . ... : ... .. . ... : ... .. . ... ...
ROW 6D : ... .. 5 ... ... ... : ... .. . ... ... ... : ... .. . ... : ... .. . ... : ... .. . ... ...
ROW 6E : ... .. 4 ... ... ... : ... .. . ... ... ... : ... .. . ... : ... .. . ... : ... .. . ... ...
ROW 6F : ... .. 3 ... ... ... : ... .. . ... ... ... : ... .. . ... : ... .. . ... : ... .. . ... ...
ROW 70 : E-5 00 A P80 ... ... : G-3 00 F P7F V03 ... : ... .. . ... : ... .. . ... : ... .. . ... ...
ROW 71 : ... .. 9 ... ... ... : ... .. E ... ... ... : E-5 00 . P80 : ... .. . ... : ... .. . ... ...
ROW 72 : ... .. 8 ... ... ... : ... .. D ... ... ... : ... .. . ... : ... .. . ... : ... .. . ... ...
ROW 73 : ... .. 7 ... ... ... : ... .. C ... ... ... : ... .. . ... : ... .. . ... : ... .. . ... ...
ROW 74 : ... .. 6 ... ... ... : ... .. . ... ... ... : ... .. . ... : ... .. . ... : ... .. . ... ...
ROW 75 : ... .. 5 ... ... ... : ... .. B ... ... ... : ... .. . ... : ... .. . ... : ... .. . ... ...
ROW 76 : ... .. 4 ... ... ... : ... .. A ... ... ... : ... .. . ... : ... .. . ... : ... .. . ... ...
ROW 77 : ... .. 3 ... ... ... : ... .. 9 ... ... ... : ... .. . ... : ... .. . ... : ... .. . ... ...
ROW 78 : F#5 00 A P80 ... ... : ... .. 0 ... V00 ... : ... .. . ... : ... .. . ... : ... .. . ... ...
ROW 79 : ... .. 9 ... ... ... : ... .. . ... ... ... : F#5 00 . ... : ... .. . ... : ... .. . ... ...
ROW 7A : ... .. 8 ... ... ... : ... .. . ... ... ... : ... .. . ... : ... .. . ... : ... .. . ... ...
ROW 7B : ... .. 7 ... ... ... : ... .. . ... ... ... : ... .. . ... : ... .. . ... : ... .. . ... ...
ROW 7C : ... .. 6 ... ... ... : ... .. . ... ... ... : ... .. . ... : ... .. . ... : ... .. . ... ...
ROW 7D : ... .. 5 ... ... ... : ... .. . ... ... ... : ... .. . ... : ... .. . ... : ... .. . ... ...
ROW 7E : ... .. 4 ... ... ... : ... .. . ... ... ... : ... .. . ... : ... .. . ... : ... .. . ... ...
ROW 7F : ... .. 3 ... ... ... : ... .. . ... ... ... : ... .. . ... : ... .. . ... : ... .. . ... ...
ROW 80 : E-5 00 A P80 ... ... : A-3 00 F P7F V03 ... : ... .. . ... : ... .. . ... : ... .. . ... ...
ROW 81 : ... .. 9 ... ... ... : ... .. E ... ... ... : E-5 00 . ... : ... .. . ... : ... .. . ... ...
ROW 82 : ... .. 8 ... ... ... : ... .. D ... ... ... : ... .. . ... : ... .. . ... : ... .. . ... ...
ROW 83 : ... .. 7 ... ... ... : ... .. C ... ... ... : ... .. . ... : ... .. . ... : ... .. . ... ...
ROW 84 : ... .. 6 ... ... ... : ... .. . ... ... ... : ... .. . ... : ... .. . ... : ... .. . ... ...
ROW 85 : ... .. 5 ... ... ... : ... .. . ... ... ... : ... .. . ... : ... .. . ... : ... .. . ... ...
ROW 86 : ... .. 4 ... ... ... : ... .. . ... ... ... : ... .. . ... : ... .. . ... : ... .. . ... ...
ROW 87 : ... .. 3 ... ... ... : ... .. . ... ... ... : ... .. . ... : ... .. . ... : ... .. . ... ...
ROW 88 : B-4 00 A P7F ... ... : ... .. . ... ... ... : ... .. . ... : ... .. . ... : ... .. . ... ...
ROW 89 : ... .. 9 ... ... ... : ... .. . ... ... ... : B-4 00 . P7F : ... .. . ... : ... .. . ... ...
ROW 8A : ... .. 8 ... ... ... : ... .. . ... ... ... : ... .. . ... : ... .. . ... : ... .. . ... ...
ROW 8B : ... .. 7 ... ... ... : ... .. . ... ... ... : ... .. . ... : ... .. . ... : ... .. . ... ...
ROW 8C : ... .. 6 ... ... ... : ... .. . ... ... ... : ... .. . ... : ... .. . ... : ... .. . ... ...
ROW 8D : ... .. 5 ... ... ... : ... .. . ... ... ... : ... .. . ... : ... .. . ... : ... .. . ... ...
ROW 8E : ... .. 4 ... ... ... : ... .. . ... ... ... : ... .. . ... : ... .. . ... : ... .. . ... ...
ROW 8F : ... .. 3 ... ... ... : ... .. . ... ... ... : ... .. . ... : ... .. . ... : ... .. . ... ...
ROW 90 : E-5 00 A P80 ... ... : ... .. . ... ... ... : ... .. . ... : ... .. . ... : ... .. . ... ...
ROW 91 : ... .. 9 ... ... ... : ... .. . ... ... ... : E-5 00 . P80 : ... .. . ... : ... .. . ... ...
ROW 92 : ... .. 8 ... ... ... : ... .. . ... ... ... : ... .. . ... : ... .. . ... : ... .. . ... ...
ROW 93 : ... .. 7 ... ... ... : ... .. . ... ... ... : ... .. . ... : ... .. . ... : ... .. . ... ...
ROW 94 : ... .. 6 ... ... ... : ... .. . ... ... ... : ... .. . ... : ... .. . ... : ... .. . ... ...
ROW 95 : ... .. 5 ... ... ... : ... .. . ... ... ... : ... .. . ... : ... .. . ... : ... .. . ... ...
ROW 96 : ... .. 4 ... ... ... : ... .. . ... ... ... : ... .. . ... : ... .. . ... : ... .. . ... ...
ROW 97 : ... .. 3 ... ... ... : ... .. . ... ... ... : ... .. . ... : ... .. . ... : ... .. . ... ...
ROW 98 : F#5 00 A P80 ... ... : ... .. . ... ... ... : ... .. . ... : ... .. . ... : ... .. . ... ...
ROW 99 : ... .. 9 ... ... ... : ... .. . ... ... ... : F#5 00 . ... : ... .. . ... : ... .. . ... ...
ROW 9A : ... .. 8 ... ... ... : ... .. . ... ... ... : ... .. . ... : ... .. . ... : ... .. . ... ...
ROW 9B : ... .. . ... ... ... : ... .. . ... ... ... : ... .. . ... : ... .. . ... : ... .. . ... ...
ROW 9C : ... .. . ... ... ... : ... .. . ... ... ... : ... .. . ... : ... .. . ... : ... .. . ... ...
ROW 9D : ... .. . ... ... ... : ... .. . ... ... ... : ... .. . ... : ... .. . ... : ... .. . ... ...
ROW 9E : ... .. . ... ... ... : ... .. . ... ... ... : ... .. . ... : ... .. . ... : ... .. . ... ...
ROW 9F : ... .. 7 ... ... ... : ... .. . ... ... ... : ... .. . ... : ... .. . ... : ... .. . ... ...
ROW A0 : ... .. 6 ... ... ... : ... .. . ... ... ... : ... .. . ... : ... .. . ... : ... .. . ... ...
ROW A1 : ... .. 5 ... ... ... : ... .. . ... ... ... : --- .. . ... : ... .. . ... : ... .. . ... ...
ROW A2 : ... .. 4 ... ... ... : ... .. . ... ... ... : ... .. . ... : ... .. . ... : ... .. . ... ...
ROW A3 : ... .. 3 ... ... ... : ... .. . ... ... ... : ... .. . ... : ... .. . ... : ... .. . ... ...
ROW A4 : ... .. 2 ... ... ... : ... .. . ... ... ... : ... .. . ... : ... .. . ... : ... .. . ... ...
ROW A5 : ... .. 1 ... ... ... : ... .. . ... ... ... : ... .. . ... : ... .. . ... : ... .. . ... ...
ROW A6 : ... .. 0 ... ... ... : ... .. . ... ... ... : ... .. . ... : ... .. . ... : ... .. . ... ...
ROW A7 : ... .. . ... ... ... : ... .. . ... ... ... : ... .. . ... : ... .. . ... : ... .. . ... ...
ROW A8 : B-5 00 A P80 ... ... : ... .. . ... ... ... : ... .. . ... : ... .. . ... : ... .. . ... ...
ROW A9 : ... .. 9 ... ... ... : ... .. . ... ... ... : B-5 00 . ... : ... .. . ... : ... .. . ... ...
ROW AA : ... .. 8 ... ... ... : ... .. . ... ... ... : ... .. . ... : ... .. . ... : ... .. . ... ...
ROW AB : ... .. . ... ... ... : ... .. . ... ... ... : ... .. . ... : ... .. . ... : ... .. . ... ...
ROW AC : ... .. . ... ... ... : ... .. . ... ... ... : ... .. . ... : ... .. . ... : ... .. . ... ...
ROW AD : ... .. . ... ... ... : ... .. . ... ... ... : ... .. . ... : ... .. . ... : ... .. . ... ...
ROW AE : ... .. . ... ... ... : ... .. . ... ... ... : ... .. . ... : ... .. . ... : ... .. . ... ...
ROW AF : ... .. 7 ... ... ... : ... .. . ... ... ... : ... .. . ... : ... .. . ... : ... .. . ... ...
ROW B0 : ... .. 6 ... ... ... : ... .. . ... ... ... : ... .. . ... : ... .. . ... : ... .. . ... ...
ROW B1 : ... .. 5 ... ... ... : ... .. . ... ... ... : --- .. . ... : ... .. . ... : ... .. . ... ...
ROW B2 : ... .. 4 ... ... ... : ... .. . ... ... ... : ... .. . ... : ... .. . ... : ... .. . ... ...
ROW B3 : ... .. 3 ... ... ... : ... .. . ... ... ... : ... .. . ... : ... .. . ... : ... .. . ... ...
ROW B4 : ... .. 2 ... ... ... : ... .. . ... ... ... : ... .. . ... : ... .. . ... : ... .. . ... ...
ROW B5 : ... .. 1 ... ... ... : ... .. . ... ... ... : ... .. . ... : ... .. . ... : ... .. . ... ...
ROW B6 : ... .. 0 ... ... ... : ... .. . ... ... ... : ... .. . ... : ... .. . ... : ... .. . ... ...
ROW B7 : ... .. . ... ... ... : ... .. . ... ... ... : ... .. . ... : ... .. . ... : ... .. . ... ...
ROW B8 : F#5 00 A P80 ... ... : ... .. . ... ... ... : ... .. . ... : ... .. . ... : ... .. . ... ...
ROW B9 : ... .. 9 ... ... ... : ... .. . ... ... ... : F#5 00 . ... : ... .. . ... : ... .. . ... ...
ROW BA : ... .. 8 ... ... ... : ... .. . ... ... ... : ... .. . ... : ... .. . ... : ... .. . ... ...
ROW BB : ... .. . ... ... ... : ... .. . ... ... ... : ... .. . ... : ... .. . ... : ... .. . ... ...
ROW BC : ... .. . ... ... ... : ... .. . ... ... ... : ... .. . ... : ... .. . ... : ... .. . ... ...
ROW BD : ... .. . ... ... ... : ... .. . ... ... ... : ... .. . ... : ... .. . ... : ... .. . ... ...
ROW BE : ... .. . ... ... ... : ... .. . ... ... ... : ... .. . ... : ... .. . ... : ... .. . ... ...
ROW BF : ... .. 7 ... ... ... : ... .. . ... ... ... : ... .. . ... : ... .. . ... : ... .. . ... ...
ROW C0 : ... .. 6 ... ... ... : ... .. . ... ... ... : ... .. . ... : ... .. . ... : ... .. . ... ...
ROW C1 : ... .. 5 ... ... ... : ... .. . ... ... ... : --- .. . ... : ... .. . ... : ... .. . ... ...
ROW C2 : ... .. 4 ... ... ... : ... .. . ... ... ... : ... .. . ... : ... .. . ... : ... .. . ... ...
ROW C3 : ... .. 3 ... ... ... : ... .. . ... ... ... : ... .. . ... : ... .. . ... : ... .. . ... ...
ROW C4 : ... .. 2 ... ... ... : ... .. . ... ... ... : ... .. . ... : ... .. . ... : ... .. . ... ...
ROW C5 : ... .. 1 ... ... ... : ... .. . ... ... ... : ... .. . ... : ... .. . ... : ... .. . ... ...
ROW C6 : ... .. 0 ... ... ... : ... .. . ... ... ... : ... .. . ... : ... .. . ... : ... .. . ... ...
ROW C7 : ... .. . ... ... ... : ... .. . ... ... ... : ... .. . ... : ... .. . ... : ... .. . ... ...
ROW C8 : E-5 00 A P80 ... ... : ... .. . ... ... ... : ... .. . ... : ... .. . ... : ... .. . ... ...
ROW C9 : ... .. 9 ... ... ... : ... .. . ... ... ... : E-5 00 . ... : ... .. . ... : ... .. . ... ...
ROW CA : ... .. 8 ... ... ... : ... .. . ... ... ... : ... .. . ... : ... .. . ... : ... .. . ... ...
ROW CB : ... .. . ... ... ... : ... .. . ... ... ... : ... .. . ... : ... .. . ... : ... .. . ... ...
ROW CC : ... .. . ... ... ... : ... .. . ... ... ... : ... .. . ... : ... .. . ... : ... .. . ... ...
ROW CD : ... .. . ... ... ... : ... .. . ... ... ... : ... .. . ... : ... .. . ... : ... .. . ... ...
ROW CE : ... .. . ... ... ... : ... .. . ... ... ... : ... .. . ... : ... .. . ... : ... .. . ... ...
ROW CF : ... .. 7 ... ... ... : ... .. . ... ... ... : ... .. . ... : ... .. . ... : ... .. . ... ...
ROW D0 : ... .. 6 ... ... ... : ... .. . ... ... ... : ... .. . ... : ... .. . ... : ... .. . ... ...
ROW D1 : ... .. 5 ... ... ... : ... .. . ... ... ... : --- .. . ... : ... .. . ... : ... .. . ... ...
ROW D2 : ... .. 4 ... ... ... : ... .. . ... ... ... : ... .. . ... : ... .. . ... : ... .. . ... ...
ROW D3 : ... .. 3 ... ... ... : ... .. . ... ... ... : ... .. . ... : ... .. . ... : ... .. . ... ...
ROW D4 : ... .. 2 ... ... ... : ... .. . ... ... ... : ... .. . ... : ... .. . ... : ... .. . ... ...
ROW D5 : ... .. 1 ... ... ... : ... .. . ... ... ... : ... .. . ... : ... .. . ... : ... .. . ... ...
ROW D6 : ... .. 0 ... ... ... : ... .. . ... ... ... : ... .. . ... : ... .. . ... : ... .. . ... ...
ROW D7 : ... .. . ... ... ... : ... .. . ... ... ... : ... .. . ... : ... .. . ... : ... .. . ... ...
ROW D8 : B-4 00 A P7F ... ... : ... .. . ... ... ... : ... .. . ... : ... .. . ... : ... .. . ... ...
ROW D9 : ... .. 9 ... ... ... : ... .. . ... ... ... : B-4 00 . P7F : ... .. . ... : ... .. . ... ...
ROW DA : ... .. 8 ... ... ... : ... .. . ... ... ... : ... .. . ... : ... .. . ... : ... .. . ... ...
ROW DB : ... .. 7 ... ... ... : ... .. . ... ... ... : ... .. . ... : ... .. . ... : ... .. . ... ...
ROW DC : ... .. 6 ... ... ... : ... .. . ... ... ... : ... .. . ... : ... .. . ... : ... .. . ... ...
ROW DD : ... .. 5 ... ... ... : ... .. . ... ... ... : ... .. . ... : ... .. . ... : ... .. . ... ...
ROW DE : ... .. 4 ... ... ... : ... .. . ... ... ... : ... .. . ... : ... .. . ... : ... .. . ... ...
ROW DF : ... .. 3 ... ... ... : ... .. . ... ... ... : ... .. . ... : ... .. . ... : ... .. . ... ...
ROW E0 : E-5 00 A P80 ... ... : ... .. . ... ... ... : ... .. . ... : ... .. . ... : ... .. . ... ...
ROW E1 : ... .. 9 ... ... ... : ... .. . ... ... ... : E-5 00 . P80 : ... .. . ... : ... .. . ... ...
ROW E2 : ... .. 8 ... ... ... : ... .. . ... ... ... : ... .. . ... : ... .. . ... : ... .. . ... ...
ROW E3 : ... .. 7 ... ... ... : ... .. . ... ... ... : ... .. . ... : ... .. . ... : ... .. . ... ...
ROW E4 : ... .. 6 ... ... ... : ... .. . ... ... ... : ... .. . ... : ... .. . ... : ... .. . ... ...
ROW E5 : ... .. 5 ... ... ... : ... .. B ... ... ... : ... .. . ... : ... .. . ... : ... .. . ... ...
ROW E6 : ... .. 4 ... ... ... : ... .. A ... ... ... : ... .. . ... : ... .. . ... : ... .. . ... ...
ROW E7 : ... .. 3 ... ... ... : ... .. 9 ... ... ... : ... .. . ... : ... .. . ... : ... .. . ... ...
ROW E8 : B-4 00 A P7F ... ... : ... .. 0 ... V00 ... : ... .. . ... : ... .. . ... : ... .. . ... ...
ROW E9 : ... .. 9 ... ... ... : ... .. . ... ... ... : B-4 00 . P7F : ... .. . ... : ... .. . ... ...
ROW EA : ... .. 8 ... ... ... : ... .. . ... ... ... : ... .. . ... : ... .. . ... : ... .. . ... ...
ROW EB : ... .. 7 ... ... ... : ... .. . ... ... ... : ... .. . ... : ... .. . ... : ... .. . ... ...
ROW EC : ... .. 6 ... ... ... : ... .. . ... ... ... : ... .. . ... : ... .. . ... : ... .. . ... ...
ROW ED : ... .. 5 ... ... ... : ... .. . ... ... ... : ... .. . ... : ... .. . ... : ... .. . ... ...
ROW EE : ... .. 4 ... ... ... : ... .. . ... ... ... : ... .. . ... : ... .. . ... : ... .. . ... ...
ROW EF : ... .. 3 ... ... ... : ... .. . ... ... ... : ... .. . ... : ... .. . ... : ... .. . ... ...
ROW F0 : E-5 00 A P80 ... ... : ... .. . ... ... ... : ... .. . ... : ... .. . ... : ... .. . ... ...
ROW F1 : ... .. 9 ... ... ... : ... .. . ... ... ... : E-5 00 . P80 : ... .. . ... : ... .. . ... ...
ROW F2 : ... .. 8 ... ... ... : ... .. . ... ... ... : ... .. . ... : ... .. . ... : ... .. . ... ...
ROW F3 : ... .. 7 ... ... ... : ... .. . ... ... ... : ... .. . ... : ... .. . ... : ... .. . ... ...
ROW F4 : ... .. 6 ... ... ... : ... .. . ... ... ... : ... .. . ... : ... .. . ... : ... .. . ... ...
ROW F5 : ... .. 5 ... ... ... : ... .. . ... ... ... : ... .. . ... : ... .. . ... : ... .. . ... ...
ROW F6 : ... .. 4 ... ... ... : ... .. . ... ... ... : ... .. . ... : ... .. . ... : ... .. . ... ...
ROW F7 : ... .. 3 ... ... ... : ... .. . ... ... ... : ... .. . ... : ... .. . ... : ... .. . ... ...
ROW F8 : F#5 00 A P80 ... ... : ... .. . ... ... ... : ... .. . ... : ... .. . ... : ... .. . ... ...
ROW F9 : ... .. 9 ... ... ... : ... .. . ... ... ... : F#5 00 . ... : ... .. . ... : ... .. . ... ...
ROW FA : ... .. 8 ... ... ... : ... .. . ... ... ... : ... .. . ... : ... .. . ... : ... .. . ... ...
ROW FB : ... .. 7 ... ... ... : ... .. . ... ... ... : ... .. . ... : ... .. . ... : ... .. . ... ...
ROW FC : ... .. 6 ... ... ... : ... .. . ... ... ... : ... .. . ... : ... .. . ... : ... .. . ... ...
ROW FD : ... .. 5 ... ... ... : ... .. . ... ... ... : ... .. . ... : ... .. . ... : ... .. . ... ...
ROW FE : ... .. 4 ... ... ... : ... .. . ... ... ... : ... .. . ... : ... .. . ... : ... .. . ... ...
ROW FF : ... .. 3 ... ... ... : ... .. . ... ... ... : ... .. . ... : ... .. . ... : ... .. . ... ...

PATTERN 02
ROW 00 : ... .. 0 ... V00 ... : G#3 00 F P7F V01 ... : ... .. . ... : ... .. . ... : ... .. . ... ...
ROW 01 : ... .. . ... ... ... : ... .. E ... ... ... : B-3 00 . P7F : ... .. . ... : ... .. . ... ...
ROW 02 : ... .. . ... ... ... : ... .. D ... ... ... : ... .. . ... : ... .. . ... : ... .. . ... ...
ROW 03 : ... .. . ... ... ... : ... .. C ... ... ... : ... .. . ... : ... .. . ... : ... .. . ... ...
ROW 04 : ... .. . ... ... ... : ... .. B ... ... ... : ... .. . ... : ... .. . ... : ... .. . ... ...
ROW 05 : ... .. . ... ... ... : ... .. A ... ... ... : ... .. . ... : ... .. . ... : ... .. . ... ...
ROW 06 : ... .. . ... ... ... : ... .. 9 ... ... ... : ... .. . ... : ... .. . ... : ... .. . ... ...
ROW 07 : ... .. . ... ... ... : ... .. 8 ... ... ... : --- .. . ... : ... .. . ... : ... .. . ... ...
ROW 08 : ... .. . ... ... ... : F#3 00 F P7F ... ... : ... .. . ... : ... .. . ... : ... .. . ... ...
ROW 09 : ... .. . ... ... ... : ... .. E ... ... ... : B-3 00 . ... : ... .. . ... : ... .. . ... ...
ROW 0A : ... .. . ... ... ... : ... .. D ... ... ... : ... .. . ... : ... .. . ... : ... .. . ... ...
ROW 0B : ... .. . ... ... ... : ... .. C ... ... ... : ... .. . ... : ... .. . ... : ... .. . ... ...
ROW 0C : ... .. . ... ... ... : ... .. B ... ... ... : ... .. . ... : ... .. . ... : ... .. . ... ...
ROW 0D : ... .. . ... ... ... : ... .. A ... ... ... : ... .. . ... : ... .. . ... : ... .. . ... ...
ROW 0E : ... .. . ... ... ... : ... .. 9 ... ... ... : ... .. . ... : ... .. . ... : ... .. . ... ...
ROW 0F : ... .. . ... ... ... : ... .. 8 ... ... ... : --- .. . ... : ... .. . ... : ... .. . ... ...
ROW 10 : ... .. . ... ... ... : G#3 00 F P7F ... ... : ... .. . ... : ... .. . ... : ... .. . ... ...
ROW 11 : ... .. . ... ... ... : ... .. E ... ... ... : E-4 00 . P80 : ... .. . ... : ... .. . ... ...
ROW 12 : ... .. . ... ... ... : ... .. D ... ... ... : ... .. . ... : ... .. . ... : ... .. . ... ...
ROW 13 : ... .. . ... ... ... : ... .. C ... ... ... : ... .. . ... : ... .. . ... : ... .. . ... ...
ROW 14 : ... .. . ... ... ... : ... .. B ... ... ... : ... .. . ... : ... .. . ... : ... .. . ... ...
ROW 15 : ... .. . ... ... ... : ... .. A ... ... ... : ... .. . ... : ... .. . ... : ... .. . ... ...
ROW 16 : ... .. . ... ... ... : ... .. 9 ... ... ... : ... .. . ... : ... .. . ... : ... .. . ... ...
ROW 17 : ... .. . ... ... ... : ... .. 8 ... ... ... : --- .. . ... : ... .. . ... : ... .. . ... ...
ROW 18 : ... .. . ... ... ... : A#3 00 F P7F ... ... : ... .. . ... : ... .. . ... : ... .. . ... ...
ROW 19 : ... .. . ... ... ... : ... .. E ... ... ... : E-4 00 . ... : ... .. . ... : ... .. . ... ...
ROW 1A : ... .. . ... ... ... : ... .. D ... ... ... : ... .. . ... : ... .. . ... : ... .. . ... ...
ROW 1B : ... .. . ... ... ... : ... .. C ... ... ... : ... .. . ... : ... .. . ... : ... .. . ... ...
ROW 1C : ... .. . ... ... ... : ... .. B ... ... ... : ... .. . ... : ... .. . ... : ... .. . ... ...
ROW 1D : ... .. . ... ... ... : ... .. A ... ... ... : ... .. . ... : ... .. . ... : ... .. . ... ...
ROW 1E : ... .. . ... ... ... : ... .. 9 ... ... ... : ... .. . ... : ... .. . ... : ... .. . ... ...
ROW 1F : ... .. . ... ... ... : ... .. 8 ... ... ... : --- .. . ... : ... .. . ... : ... .. . ... ...
ROW 20 : ... .. . ... ... ... : ... .. 7 ... ... ... : ... .. . ... : ... .. . ... : ... .. . ... ...
ROW 21 : ... .. . ... ... ... : ... .. 6 ... ... ... : B-3 00 . P7F : ... .. . ... : ... .. . ... ...
ROW 22 : ... .. . ... ... ... : ... .. 5 ... ... ... : ... .. . ... : ... .. . ... : ... .. . ... ...
ROW 23 : ... .. . ... ... ... : ... .. 4 ... ... ... : ... .. . ... : ... .. . ... : ... .. . ... ...
ROW 24 : ... .. . ... ... ... : ... .. 3 ... ... ... : ... .. . ... : ... .. . ... : ... .. . ... ...
ROW 25 : ... .. . ... ... ... : ... .. 2 ... ... ... : ... .. . ... : ... .. . ... : ... .. . ... ...
ROW 26 : ... .. . ... ... ... : ... .. 1 ... ... ... : ... .. . ... : ... .. . ... : ... .. . ... ...
ROW 27 : ... .. . ... ... ... : ... .. 0 ... ... ... : --- .. . ... : ... .. . ... : ... .. . ... ...
ROW 28 : ... .. . ... ... ... : B-3 00 F P7F ... ... : ... .. . ... : ... .. . ... : ... .. . ... ...
ROW 29 : ... .. . ... ... ... : ... .. E ... ... ... : B-3 00 . ... : ... .. . ... : ... .. . ... ...
ROW 2A : ... .. . ... ... ... : ... .. D ... ... ... : ... .. . ... : ... .. . ... : ... .. . ... ...
ROW 2B : ... .. . ... ... ... : ... .. C ... ... ... : ... .. . ... : ... .. . ... : ... .. . ... ...
ROW 2C : ... .. . ... ... ... : ... .. B ... ... ... : ... .. . ... : ... .. . ... : ... .. . ... ...
ROW 2D : ... .. . ... ... ... : ... .. A ... ... ... : ... .. . ... : ... .. . ... : ... .. . ... ...
ROW 2E : ... .. . ... ... ... : ... .. 9 ... ... ... : ... .. . ... : ... .. . ... : ... .. . ... ...
ROW 2F : ... .. . ... ... ... : ... .. 8 ... ... ... : --- .. . ... : ... .. . ... : ... .. . ... ...
ROW 30 : ... .. . ... ... ... : ... .. 7 ... ... ... : ... .. . ... : ... .. . ... : ... .. . ... ...
ROW 31 : ... .. . ... ... ... : ... .. 6 ... ... ... : E-4 00 . P80 : ... .. . ... : ... .. . ... ...
ROW 32 : ... .. . ... ... ... : ... .. 5 ... ... ... : ... .. . ... : ... .. . ... : ... .. . ... ...
ROW 33 : ... .. . ... ... ... : ... .. 4 ... ... ... : ... .. . ... : ... .. . ... : ... .. . ... ...
ROW 34 : ... .. . ... ... ... : ... .. 3 ... ... ... : ... .. . ... : ... .. . ... : ... .. . ... ...
ROW 35 : ... .. . ... ... ... : ... .. 2 ... ... ... : ... .. . ... : ... .. . ... : ... .. . ... ...
ROW 36 : ... .. . ... ... ... : ... .. 1 ... ... ... : ... .. . ... : ... .. . ... : ... .. . ... ...
ROW 37 : ... .. . ... ... ... : ... .. 0 ... ... ... : --- .. . ... : ... .. . ... : ... .. . ... ...
ROW 38 : ... .. . ... ... ... : A#3 00 F P7F ... ... : ... .. . ... : ... .. . ... : ... .. . ... ...
ROW 39 : ... .. . ... ... ... : ... .. E ... ... ... : E-4 00 . ... : ... .. . ... : ... .. . ... ...
ROW 3A : ... .. . ... ... ... : ... .. D ... ... ... : ... .. . ... : ... .. . ... : ... .. . ... ...
ROW 3B : ... .. . ... ... ... : ... .. C ... ... ... : ... .. . ... : ... .. . ... : ... .. . ... ...
ROW 3C : ... .. . ... ... ... : ... .. B ... ... ... : ... .. . ... : ... .. . ... : ... .. . ... ...
ROW 3D : ... .. . ... ... ... : ... .. A ... ... ... : ... .. . ... : ... .. . ... : ... .. . ... ...
ROW 3E : ... .. . ... ... ... : ... .. 9 ... ... ... : ... .. . ... : ... .. . ... : ... .. . ... ...
ROW 3F : ... .. . ... ... ... : ... .. 8 ... ... ... : --- .. . ... : ... .. . ... : ... .. . ... ...
ROW 40 : ... .. . ... ... ... : ... .. 7 ... ... ... : ... .. . ... : ... .. . ... : ... .. . ... ...
ROW 41 : ... .. . ... ... ... : ... .. 6 ... ... ... : B-3 00 . P7F : ... .. . ... : ... .. . ... ...
ROW 42 : ... .. . ... ... ... : ... .. 5 ... ... ... : ... .. . ... : ... .. . ... : ... .. . ... ...
ROW 43 : ... .. . ... ... ... : ... .. 4 ... ... ... : ... .. . ... : ... .. . ... : ... .. . ... ...
ROW 44 : ... .. . ... ... ... : ... .. 3 ... ... ... : ... .. . ... : ... .. . ... : ... .. . ... ...
ROW 45 : ... .. . ... ... ... : ... .. 2 ... ... ... : ... .. . ... : ... .. . ... : ... .. . ... ...
ROW 46 : ... .. . ... ... ... : ... .. 1 ... ... ... : ... .. . ... : ... .. . ... : ... .. . ... ...
ROW 47 : ... .. . ... ... ... : ... .. 0 ... ... ... : --- .. . ... : ... .. . ... : ... .. . ... ...
ROW 48 : ... .. . ... ... ... : G#3 00 F P7F ... ... : ... .. . ... : ... .. . ... : ... .. . ... ...
ROW 49 : ... .. . ... ... ... : ... .. E ... ... ... : B-3 00 . ... : ... .. . ... : ... .. . ... ...
ROW 4A : ... .. . ... ... ... : ... .. D ... ... ... : ... .. . ... : ... .. . ... : ... .. . ... ...
ROW 4B : ... .. . ... ... ... : ... .. C ... ... ... : ... .. . ... : ... .. . ... : ... .. . ... ...
ROW 4C : ... .. . ... ... ... : ... .. B ... ... ... : ... .. . ... : ... .. . ... : ... .. . ... ...
ROW 4D : ... .. . ... ... ... : ... .. A ... ... ... : ... .. . ... : ... .. . ... : ... .. . ... ...
ROW 4E : ... .. . ... ... ... : ... .. 9 ... ... ... : ... .. . ... : ... .. . ... : ... .. . ... ...
ROW 4F : ... .. . ... ... ... : ... .. 8 ... ... ... : --- .. . ... : ... .. . ... : ... .. . ... ...
ROW 50 : ... .. . ... ... ... : ... .. 7 ... ... ... : ... .. . ... : ... .. . ... : ... .. . ... ...
ROW 51 : ... .. . ... ... ... : ... .. 6 ... ... ... : E-4 00 . P80 : ... .. . ... : ... .. . ... ...
ROW 52 : ... .. . ... ... ... : ... .. 5 ... ... ... : ... .. . ... : ... .. . ... : ... .. . ... ...
ROW 53 : ... .. . ... ... ... : ... .. 4 ... ... ... : ... .. . ... : ... .. . ... : ... .. . ... ...
ROW 54 : ... .. . ... ... ... : ... .. 3 ... ... ... : ... .. . ... : ... .. . ... : ... .. . ... ...
ROW 55 : ... .. . ... ... ... : ... .. 2 ... ... ... : ... .. . ... : ... .. . ... : ... .. . ... ...
ROW 56 : ... .. . ... ... ... : ... .. 1 ... ... ... : ... .. . ... : ... .. . ... : ... .. . ... ...
ROW 57 : ... .. . ... ... ... : ... .. 0 ... ... ... : --- .. . ... : ... .. . ... : ... .. . ... ...
ROW 58 : ... .. . ... ... ... : F#3 00 F P7F ... ... : ... .. . ... : ... .. . ... : ... .. . ... ...
ROW 59 : ... .. . ... ... ... : ... .. E ... ... ... : E-4 00 . ... : ... .. . ... : ... .. . ... ...
ROW 5A : ... .. . ... ... ... : ... .. D ... ... ... : ... .. . ... : ... .. . ... : ... .. . ... ...
ROW 5B : ... .. . ... ... ... : ... .. C ... ... ... : ... .. . ... : ... .. . ... : ... .. . ... ...
ROW 5C : ... .. . ... ... ... : ... .. B ... ... ... : ... .. . ... : ... .. . ... : ... .. . ... ...
ROW 5D : ... .. . ... ... ... : ... .. A ... ... ... : ... .. . ... : ... .. . ... : ... .. . ... ...
ROW 5E : ... .. . ... ... ... : ... .. 9 ... ... ... : ... .. . ... : ... .. . ... : ... .. . ... ...
ROW 5F : ... .. . ... ... ... : ... .. 8 ... ... ... : --- .. . ... : ... .. . ... : ... .. . ... ...
ROW 60 : ... .. . ... ... ... : G#3 00 F P7F ... ... : ... .. . ... : ... .. . ... : ... .. . ... ...
ROW 61 : ... .. . ... ... ... : ... .. E ... ... ... : B-3 00 . P7F : ... .. . ... : ... .. . ... ...
ROW 62 : ... .. . ... ... ... : ... .. D ... ... ... : ... .. . ... : ... .. . ... : ... .. . ... ...
ROW 63 : ... .. . ... ... ... : ... .. C ... ... ... : ... .. . ... : ... .. . ... : ... .. . ... ...
ROW 64 : ... .. . ... ... ... : ... .. B ... ... ... : ... .. . ... : ... .. . ... : ... .. . ... ...
ROW 65 : ... .. . ... ... ... : ... .. A ... ... ... : ... .. . ... : ... .. . ... : ... .. . ... ...
ROW 66 : ... .. . ... ... ... : ... .. 9 ... ... ... : ... .. . ... : ... .. . ... : ... .. . ... ...
ROW 67 : ... .. . ... ... ... : ... .. 8 ... ... ... : --- .. . ... : ... .. . ... : ... .. . ... ...
ROW 68 : ... .. . ... ... ... : F#3 00 F P7F ... ... : ... .. . ... : ... .. . ... : ... .. . ... ...
ROW 69 : ... .. . ... ... ... : ... .. E ... ... ... : B-3 00 . ... : ... .. . ... : ... .. . ... ...
ROW 6A : ... .. . ... ... ... : ... .. D ... ... ... : ... .. . ... : ... .. . ... : ... .. . ... ...
ROW 6B : ... .. . ... ... ... : ... .. C ... ... ... : ... .. . ... : ... .. . ... : ... .. . ... ...
ROW 6C : ... .. . ... ... ... : ... .. B ... ... ... : ... .. . ... : ... .. . ... : ... .. . ... ...
ROW 6D : ... .. . ... ... ... : ... .. A ... ... ... : ... .. . ... : ... .. . ... : ... .. . ... ...
ROW 6E : ... .. . ... ... ... : ... .. 9 ... ... ... : ... .. . ... : ... .. . ... : ... .. . ... ...
ROW 6F : ... .. . ... ... ... : ... .. 8 ... ... ... : --- .. . ... : ... .. . ... : ... .. . ... ...
ROW 70 : ... .. . ... ... ... : G#3 00 F P7F ... ... : ... .. . ... : ... .. . ... : ... .. . ... ...
ROW 71 : ... .. . ... ... ... : ... .. E ... ... ... : E-4 00 . P80 : ... .. . ... : ... .. . ... ...
ROW 72 : ... .. . ... ... ... : ... .. D ... ... ... : ... .. . ... : ... .. . ... : ... .. . ... ...
ROW 73 : ... .. . ... ... ... : ... .. C ... ... ... : ... .. . ... : ... .. . ... : ... .. . ... ...
ROW 74 : ... .. . ... ... ... : ... .. B ... ... ... : ... .. . ... : ... .. . ... : ... .. . ... ...
ROW 75 : ... .. . ... ... ... : ... .. A ... ... ... : ... .. . ... : ... .. . ... : ... .. . ... ...
ROW 76 : ... .. . ... ... ... : ... .. 9 ... ... ... : ... .. . ... : ... .. . ... : ... .. . ... ...
ROW 77 : ... .. . ... ... ... : ... .. 8 ... ... ... : --- .. . ... : ... .. . ... : ... .. . ... ...
ROW 78 : ... .. . ... ... ... : E-3 00 F P7F ... ... : ... .. . ... : ... .. . ... : ... .. . ... ...
ROW 79 : ... .. . ... ... ... : ... .. E ... ... ... : E-4 00 . ... : ... .. . ... : ... .. . ... ...
ROW 7A : ... .. . ... ... ... : ... .. D ... ... ... : ... .. . ... : ... .. . ... : ... .. . ... ...
ROW 7B : ... .. . ... ... ... : ... .. C ... ... ... : ... .. . ... : ... .. . ... : ... .. . ... ...
ROW 7C : ... .. . ... ... ... : ... .. B ... ... ... : ... .. . ... : ... .. . ... : ... .. . ... ...
ROW 7D : ... .. . ... ... ... : ... .. A ... ... ... : ... .. . ... : ... .. . ... : ... .. . ... ...
ROW 7E : ... .. . ... ... ... : ... .. 9 ... ... ... : ... .. . ... : ... .. . ... : ... .. . ... ...
ROW 7F : ... .. . ... ... ... : ... .. 8 ... ... ... : --- .. . ... : ... .. . ... : ... .. . ... ...
ROW 80 : ... .. . ... ... ... : G#3 00 F P7F ... ... : ... .. . ... : ... .. . ... : ... .. . ... ...
ROW 81 : ... .. . ... ... ... : ... .. E ... ... ... : B-3 00 . P7F : ... .. . ... : ... .. . ... ...
ROW 82 : ... .. . ... ... ... : ... .. D ... ... ... : ... .. . ... : ... .. . ... : ... .. . ... ...
ROW 83 : ... .. . ... ... ... : ... .. C ... ... ... : ... .. . ... : ... .. . ... : ... .. . ... ...
ROW 84 : ... .. . ... ... ... : ... .. B ... ... ... : ... .. . ... : ... .. . ... : ... .. . ... ...
ROW 85 : ... .. . ... ... ... : ... .. A ... ... ... : ... .. . ... : ... .. . ... : ... .. . ... ...
ROW 86 : ... .. . ... ... ... : ... .. 9 ... ... ... : ... .. . ... : ... .. . ... : ... .. . ... ...
ROW 87 : ... .. . ... ... ... : ... .. 8 ... ... ... : --- .. . ... : ... .. . ... : ... .. . ... ...
ROW 88 : ... .. . ... ... ... : F#3 00 F P7F ... ... : ... .. . ... : ... .. . ... : ... .. . ... ...
ROW 89 : ... .. . ... ... ... : ... .. E ... ... ... : B-3 00 . ... : ... .. . ... : ... .. . ... ...
ROW 8A : ... .. . ... ... ... : ... .. D ... ... ... : ... .. . ... : ... .. . ... : ... .. . ... ...
ROW 8B : ... .. . ... ... ... : ... .. C ... ... ... : ... .. . ... : ... .. . ... : ... .. . ... ...
ROW 8C : ... .. . ... ... ... : ... .. B ... ... ... : ... .. . ... : ... .. . ... : ... .. . ... ...
ROW 8D : ... .. . ... ... ... : ... .. A ... ... ... : ... .. . ... : ... .. . ... : ... .. . ... ...
ROW 8E : ... .. . ... ... ... : ... .. 9 ... ... ... : ... .. . ... : ... .. . ... : ... .. . ... ...
ROW 8F : ... .. . ... ... ... : ... .. 8 ... ... ... : --- .. . ... : ... .. . ... : ... .. . ... ...
ROW 90 : ... .. . ... ... ... : G#3 00 F P7F ... ... : ... .. . ... : ... .. . ... : ... .. . ... ...
ROW 91 : ... .. . ... ... ... : ... .. E ... ... ... : E-4 00 . P80 : ... .. . ... : ... .. . ... ...
ROW 92 : ... .. . ... ... ... : ... .. D ... ... ... : ... .. . ... : ... .. . ... : ... .. . ... ...
ROW 93 : ... .. . ... ... ... : ... .. C ... ... ... : ... .. . ... : ... .. . ... : ... .. . ... ...
ROW 94 : ... .. . ... ... ... : ... .. B ... ... ... : ... .. . ... : ... .. . ... : ... .. . ... ...
ROW 95 : ... .. . ... ... ... : ... .. A ... ... ... : ... .. . ... : ... .. . ... : ... .. . ... ...
ROW 96 : ... .. . ... ... ... : ... .. 9 ... ... ... : ... .. . ... : ... .. . ... : ... .. . ... ...
ROW 97 : ... .. . ... ... ... : ... .. 8 ... ... ... : --- .. . ... : ... .. . ... : ... .. . ... ...
ROW 98 : ... .. . ... ... ... : A#3 00 F P7F ... ... : ... .. . ... : ... .. . ... : ... .. . ... ...
ROW 99 : ... .. . ... ... ... : ... .. E ... ... ... : E-4 00 . ... : ... .. . ... : ... .. . ... ...
ROW 9A : ... .. . ... ... ... : ... .. D ... ... ... : ... .. . ... : ... .. . ... : ... .. . ... ...
ROW 9B : ... .. . ... ... ... : ... .. C ... ... ... : ... .. . ... : ... .. . ... : ... .. . ... ...
ROW 9C : ... .. . ... ... ... : ... .. B ... ... ... : ... .. . ... : ... .. . ... : ... .. . ... ...
ROW 9D : ... .. . ... ... ... : ... .. A ... ... ... : ... .. . ... : ... .. . ... : ... .. . ... ...
ROW 9E : ... .. . ... ... ... : ... .. 9 ... ... ... : ... .. . ... : ... .. . ... : ... .. . ... ...
ROW 9F : ... .. . ... ... ... : ... .. 8 ... ... ... : --- .. . ... : ... .. . ... : ... .. . ... ...
ROW A0 : ... .. . ... ... ... : ... .. 7 ... ... ... : ... .. . ... : ... .. . ... : ... .. . ... ...
ROW A1 : ... .. . ... ... ... : ... .. 6 ... ... ... : B-3 00 . P7F : ... .. . ... : ... .. . ... ...
ROW A2 : ... .. . ... ... ... : ... .. 5 ... ... ... : ... .. . ... : ... .. . ... : ... .. . ... ...
ROW A3 : ... .. . ... ... ... : ... .. 4 ... ... ... : ... .. . ... : ... .. . ... : ... .. . ... ...
ROW A4 : ... .. . ... ... ... : ... .. 3 ... ... ... : ... .. . ... : ... .. . ... : ... .. . ... ...
ROW A5 : ... .. . ... ... ... : ... .. 2 ... ... ... : ... .. . ... : ... .. . ... : ... .. . ... ...
ROW A6 : ... .. . ... ... ... : ... .. 1 ... ... ... : ... .. . ... : ... .. . ... : ... .. . ... ...
ROW A7 : ... .. . ... ... ... : ... .. 0 ... ... ... : --- .. . ... : ... .. . ... : ... .. . ... ...
ROW A8 : ... .. . ... ... ... : B-3 00 F P7F ... ... : ... .. . ... : ... .. . ... : ... .. . ... ...
ROW A9 : ... .. . ... ... ... : ... .. E ... ... ... : B-3 00 . ... : ... .. . ... : ... .. . ... ...
ROW AA : ... .. . ... ... ... : ... .. D ... ... ... : ... .. . ... : ... .. . ... : ... .. . ... ...
ROW AB : ... .. . ... ... ... : ... .. C ... ... ... : ... .. . ... : ... .. . ... : ... .. . ... ...
ROW AC : ... .. . ... ... ... : ... .. B ... ... ... : ... .. . ... : ... .. . ... : ... .. . ... ...
ROW AD : ... .. . ... ... ... : ... .. A ... ... ... : ... .. . ... : ... .. . ... : ... .. . ... ...
ROW AE : ... .. . ... ... ... : ... .. 9 ... ... ... : ... .. . ... : ... .. . ... : ... .. . ... ...
ROW AF : ... .. . ... ... ... : ... .. 8 ... ... ... : --- .. . ... : ... .. . ... : ... .. . ... ...
ROW B0 : ... .. . ... ... ... : ... .. 7 ... ... ... : ... .. . ... : ... .. . ... : ... .. . ... ...
ROW B1 : ... .. . ... ... ... : ... .. 6 ... ... ... : E-4 00 . P80 : ... .. . ... : ... .. . ... ...
ROW B2 : ... .. . ... ... ... : ... .. 5 ... ... ... : ... .. . ... : ... .. . ... : ... .. . ... ...
ROW B3 : ... .. . ... ... ... : ... .. 4 ... ... ... : ... .. . ... : ... .. . ... : ... .. . ... ...
ROW B4 : ... .. . ... ... ... : ... .. 3 ... ... ... : ... .. . ... : ... .. . ... : ... .. . ... ...
ROW B5 : ... .. . ... ... ... : ... .. 2 ... ... ... : ... .. . ... : ... .. . ... : ... .. . ... ...
ROW B6 : ... .. . ... ... ... : ... .. 1 ... ... ... : ... .. . ... : ... .. . ... : ... .. . ... ...
ROW B7 : ... .. . ... ... ... : ... .. 0 ... ... ... : --- .. . ... : ... .. . ... : ... .. . ... ...
ROW B8 : ... .. . ... ... ... : A#3 00 F P7F ... ... : ... .. . ... : ... .. . ... : ... .. . ... ...
ROW B9 : ... .. . ... ... ... : ... .. E ... ... ... : E-4 00 . ... : ... .. . ... : ... .. . ... ...
ROW BA : ... .. . ... ... ... : ... .. D ... ... ... : ... .. . ... : ... .. . ... : ... .. . ... ...
ROW BB : ... .. . ... ... ... : ... .. C ... ... ... : ... .. . ... : ... .. . ... : ... .. . ... ...
ROW BC : ... .. . ... ... ... : ... .. B ... ... ... : ... .. . ... : ... .. . ... : ... .. . ... ...
ROW BD : ... .. . ... ... ... : ... .. A ... ... ... : ... .. . ... : ... .. . ... : ... .. . ... ...
ROW BE : ... .. . ... ... ... : ... .. 9 ... ... ... : ... .. . ... : ... .. . ... : ... .. . ... ...
ROW BF : ... .. . ... ... ... : ... .. 8 ... ... ... : --- .. . ... : ... .. . ... : ... .. . ... ...
ROW C0 : ... .. . ... ... ... : ... .. 7 ... ... ... : ... .. . ... : ... .. . ... : ... .. . ... ...
ROW C1 : ... .. . ... ... ... : ... .. 6 ... ... ... : B-3 00 . P7F : ... .. . ... : ... .. . ... ...
ROW C2 : ... .. . ... ... ... : ... .. 5 ... ... ... : ... .. . ... : ... .. . ... : ... .. . ... ...
ROW C3 : ... .. . ... ... ... : ... .. 4 ... ... ... : ... .. . ... : ... .. . ... : ... .. . ... ...
ROW C4 : ... .. . ... ... ... : ... .. 3 ... ... ... : ... .. . ... : ... .. . ... : ... .. . ... ...
ROW C5 : ... .. . ... ... ... : ... .. 2 ... ... ... : ... .. . ... : ... .. . ... : ... .. . ... ...
ROW C6 : ... .. . ... ... ... : ... .. 1 ... ... ... : ... .. . ... : ... .. . ... : ... .. . ... ...
ROW C7 : ... .. . ... ... ... : ... .. 0 ... ... ... : --- .. . ... : ... .. . ... : ... .. . ... ...
ROW C8 : ... .. . ... ... ... : G#3 00 F P7F ... ... : ... .. . ... : ... .. . ... : ... .. . ... ...
ROW C9 : ... .. . ... ... ... : ... .. E ... ... ... : B-3 00 . ... : ... .. . ... : ... .. . ... ...
ROW CA : ... .. . ... ... ... : ... .. D ... ... ... : ... .. . ... : ... .. . ... : ... .. . ... ...
ROW CB : ... .. . ... ... ... : ... .. C ... ... ... : ... .. . ... : ... .. . ... : ... .. . ... ...
ROW CC : ... .. . ... ... ... : ... .. B ... ... ... : ... .. . ... : ... .. . ... : ... .. . ... ...
ROW CD : ... .. . ... ... ... : ... .. A ... ... ... : ... .. . ... : ... .. . ... : ... .. . ... ...
ROW CE : ... .. . ... ... ... : ... .. 9 ... ... ... : ... .. . ... : ... .. . ... : ... .. . ... ...
ROW CF : ... .. . ... ... ... : ... .. 8 ... ... ... : --- .. . ... : ... .. . ... : ... .. . ... ...
ROW D0 : ... .. . ... ... ... : ... .. 7 ... ... ... : ... .. . ... : ... .. . ... : ... .. . ... ...
ROW D1 : ... .. . ... ... ... : ... .. 6 ... ... ... : E-4 00 . P80 : ... .. . ... : ... .. . ... ...
ROW D2 : ... .. . ... ... ... : ... .. 5 ... ... ... : ... .. . ... : ... .. . ... : ... .. . ... ...
ROW D3 : ... .. . ... ... ... : ... .. 4 ... ... ... : ... .. . ... : ... .. . ... : ... .. . ... ...
ROW D4 : ... .. . ... ... ... : ... .. 3 ... ... ... : ... .. . ... : ... .. . ... : ... .. . ... ...
ROW D5 : ... .. . ... ... ... : ... .. 2 ... ... ... : ... .. . ... : ... .. . ... : ... .. . ... ...
ROW D6 : ... .. . ... ... ... : ... .. 1 ... ... ... : ... .. . ... : ... .. . ... : ... .. . ... ...
ROW D7 : ... .. . ... ... ... : ... .. 0 ... ... ... : --- .. . ... : ... .. . ... : ... .. . ... ...
ROW D8 : ... .. . ... ... ... : F#3 00 F P7F ... ... : ... .. . ... : ... .. . ... : ... .. . ... ...
ROW D9 : ... .. . ... ... ... : ... .. E ... ... ... : E-4 00 . ... : ... .. . ... : ... .. . ... ...
ROW DA : ... .. . ... ... ... : ... .. D ... ... ... : ... .. . ... : ... .. . ... : ... .. . ... ...
ROW DB : ... .. . ... ... ... : ... .. C ... ... ... : ... .. . ... : ... .. . ... : ... .. . ... ...
ROW DC : ... .. . ... ... ... : ... .. B ... ... ... : ... .. . ... : ... .. . ... : ... .. . ... ...
ROW DD : ... .. . ... ... ... : ... .. A ... ... ... : ... .. . ... : ... .. . ... : ... .. . ... ...
ROW DE : ... .. . ... ... ... : ... .. 9 ... ... ... : ... .. . ... : ... .. . ... : ... .. . ... ...
ROW DF : ... .. . ... ... ... : ... .. 8 ... ... ... : --- .. . ... : ... .. . ... : ... .. . ... ...
ROW E0 : ... .. . ... ... ... : G#3 00 F P7F ... ... : ... .. . ... : ... .. . ... : ... .. . ... ...
ROW E1 : ... .. . ... ... ... : ... .. E ... ... ... : B-3 00 . P7F : ... .. . ... : ... .. . ... ...
ROW E2 : ... .. . ... ... ... : ... .. D ... ... ... : ... .. . ... : ... .. . ... : ... .. . ... ...
ROW E3 : ... .. . ... ... ... : ... .. C ... ... ... : ... .. . ... : ... .. . ... : ... .. . ... ...
ROW E4 : ... .. . ... ... ... : ... .. B ... ... ... : ... .. . ... : ... .. . ... : ... .. . ... ...
ROW E5 : ... .. . ... ... ... : ... .. A ... ... ... : ... .. . ... : ... .. . ... : ... .. . ... ...
ROW E6 : ... .. . ... ... ... : ... .. 9 ... ... ... : ... .. . ... : ... .. . ... : ... .. . ... ...
ROW E7 : ... .. . ... ... ... : ... .. 8 ... ... ... : --- .. . ... : ... .. . ... : ... .. . ... ...
ROW E8 : ... .. . ... ... ... : F#3 00 F P7F ... ... : ... .. . ... : ... .. . ... : ... .. . ... ...
ROW E9 : ... .. . ... ... ... : ... .. E ... ... ... : B-3 00 . ... : ... .. . ... : ... .. . ... ...
ROW EA : ... .. . ... ... ... : ... .. D ... ... ... : ... .. . ... : ... .. . ... : ... .. . ... ...
ROW EB : ... .. . ... ... ... : ... .. C ... ... ... : ... .. . ... : ... .. . ... : ... .. . ... ...
ROW EC : ... .. . ... ... ... : ... .. B ... ... ... : ... .. . ... : ... .. . ... : ... .. . ... ...
ROW ED : ... .. . ... ... ... : ... .. A ... ... ... : ... .. . ... : ... .. . ... : ... .. . ... ...
ROW EE : ... .. . ... ... ... : ... .. 9 ... ... ... : ... .. . ... : ... .. . ... : ... .. . ... ...
ROW EF : ... .. . ... ... ... : ... .. 8 ... ... ... : --- .. . ... : ... .. . ... : ... .. . ... ...
ROW F0 : ... .. . ... ... ... : G#3 00 F P7F ... ... : ... .. . ... : ... .. . ... : ... .. . ... ...
ROW F1 : ... .. . ... ... ... : ... .. E ... ... ... : E-4 00 . P80 : ... .. . ... : ... .. . ... ...
ROW F2 : ... .. . ... ... ... : ... .. D ... ... ... : ... .. . ... : ... .. . ... : ... .. . ... ...
ROW F3 : ... .. . ... ... ... : ... .. C ... ... ... : ... .. . ... : ... .. . ... : ... .. . ... ...
ROW F4 : ... .. . ... ... ... : ... .. B ... ... ... : ... .. . ... : ... .. . ... : ... .. . ... ...
ROW F5 : ... .. . ... ... ... : ... .. A ... ... ... : ... .. . ... : ... .. . ... : ... .. . ... ...
ROW F6 : ... .. . ... ... ... : ... .. 9 ... ... ... : ... .. . ... : ... .. . ... : ... .. . ... ...
ROW F7 : ... .. . ... ... ... : ... .. 8 ... ... ... : --- .. . ... : ... .. . ... : ... .. . ... ...
ROW F8 : ... .. . ... ... ... : E-3 00 F P7F ... ... : ... .. . ... : ... .. . ... : ... .. . ... ...
ROW F9 : ... .. . ... ... ... : ... .. E ... ... ... : E-4 00 . ... : ... .. . ... : ... .. . ... ...
ROW FA : ... .. . ... ... ... : ... .. D ... ... ... : ... .. . ... : ... .. . ... : ... .. . ... ...
ROW FB : ... .. . ... ... ... : ... .. C ... ... ... : ... .. . ... : ... .. . ... : ... .. . ... ...
ROW FC : ... .. . ... ... ... : ... .. B ... ... ... : ... .. . ... : ... .. . ... : ... .. . ... ...
ROW FD : ... .. . ... ... ... : ... .. A ... ... ... : ... .. . ... : ... .. . ... : ... .. . ... ...
ROW FE : ... .. . ... ... ... : ... .. 9 ... ... ... : ... .. . ... : ... .. . ... : ... .. . ... ...
ROW FF : ... .. . ... ... ... : ... .. 8 ... ... ... : --- .. . ... : ... .. . ... : ... .. . ... ...

PATTERN 03
ROW 00 : ... .. . ... ... ... : F#3 00 F P7F ... ... : ... .. . ... : ... .. . ... : ... .. . ... ...
ROW 01 : ... .. . ... ... ... : ... .. E ... ... ... : A-3 00 . P7F : ... .. . ... : ... .. . ... ...
ROW 02 : ... .. . ... ... ... : ... .. D ... ... ... : ... .. . ... : ... .. . ... : ... .. . ... ...
ROW 03 : ... .. . ... ... ... : ... .. C ... ... ... : ... .. . ... : ... .. . ... : ... .. . ... ...
ROW 04 : ... .. . ... ... ... : ... .. B ... ... ... : ... .. . ... : ... .. . ... : ... .. . ... ...
ROW 05 : ... .. . ... ... ... : ... .. A ... ... ... : ... .. . ... : ... .. . ... : ... .. . ... ...
ROW 06 : ... .. . ... ... ... : ... .. 9 ... ... ... : ... .. . ... : ... .. . ... : ... .. . ... ...
ROW 07 : ... .. . ... ... ... : ... .. 8 ... ... ... : --- .. . ... : ... .. . ... : ... .. . ... ...
ROW 08 : ... .. . ... ... ... : E-3 00 F P7F ... ... : ... .. . ... : ... .. . ... : ... .. . ... ...
ROW 09 : ... .. . ... ... ... : ... .. E ... ... ... : A-3 00 . ... : ... .. . ... : ... .. . ... ...
ROW 0A : ... .. . ... ... ... : ... .. D ... ... ... : ... .. . ... : ... .. . ... : ... .. . ... ...
ROW 0B : ... .. . ... ... ... : ... .. C ... ... ... : ... .. . ... : ... .. . ... : ... .. . ... ...
ROW 0C : ... .. . ... ... ... : ... .. B ... ... ... : ... .. . ... : ... .. . ... : ... .. . ... ...
ROW 0D : ... .. . ... ... ... : ... .. A ... ... ... : ... .. . ... : ... .. . ... : ... .. . ... ...
ROW 0E : ... .. . ... ... ... : ... .. 9 ... ... ... : ... .. . ... : ... .. . ... : ... .. . ... ...
ROW 0F : ... .. . ... ... ... : ... .. 8 ... ... ... : --- .. . ... : ... .. . ... : ... .. . ... ...
ROW 10 : ... .. . ... ... ... : F#3 00 F P7F ... ... : ... .. . ... : ... .. . ... : ... .. . ... ...
ROW 11 : ... .. . ... ... ... : ... .. E ... ... ... : D-4 00 . ... : ... .. . ... : ... .. . ... ...
ROW 12 : ... .. . ... ... ... : ... .. D ... ... ... : ... .. . ... : ... .. . ... : ... .. . ... ...
ROW 13 : ... .. . ... ... ... : ... .. C ... ... ... : ... .. . ... : ... .. . ... : ... .. . ... ...
ROW 14 : ... .. . ... ... ... : ... .. B ... ... ... : ... .. . ... : ... .. . ... : ... .. . ... ...
ROW 15 : ... .. . ... ... ... : ... .. A ... ... ... : ... .. . ... : ... .. . ... : ... .. . ... ...
ROW 16 : ... .. . ... ... ... : ... .. 9 ... ... ... : ... .. . ... : ... .. . ... : ... .. . ... ...
ROW 17 : ... .. . ... ... ... : ... .. 8 ... ... ... : --- .. . ... : ... .. . ... : ... .. . ... ...
ROW 18 : ... .. . ... ... ... : G#3 00 F P7F ... ... : ... .. . ... : ... .. . ... : ... .. . ... ...
ROW 19 : ... .. . ... ... ... : ... .. E ... ... ... : D-4 00 . ... : ... .. . ... : ... .. . ... ...
ROW 1A : ... .. . ... ... ... : ... .. D ... ... ... : ... .. . ... : ... .. . ... : ... .. . ... ...
ROW 1B : ... .. . ... ... ... : ... .. C ... ... ... : ... .. . ... : ... .. . ... : ... .. . ... ...
ROW 1C : ... .. . ... ... ... : ... .. B ... ... ... : ... .. . ... : ... .. . ... : ... .. . ... ...
ROW 1D : ... .. . ... ... ... : ... .. A ... ... ... : ... .. . ... : ... .. . ... : ... .. . ... ...
ROW 1E : ... .. . ... ... ... : ... .. 9 ... ... ... : ... .. . ... : ... .. . ... : ... .. . ... ...
ROW 1F : ... .. . ... ... ... : ... .. 8 ... ... ... : --- .. . ... : ... .. . ... : ... .. . ... ...
ROW 20 : ... .. . ... ... ... : ... .. 7 ... ... ... : ... .. . ... : ... .. . ... : ... .. . ... ...
ROW 21 : ... .. . ... ... ... : ... .. 6 ... ... ... : A-3 00 . ... : ... .. . ... : ... .. . ... ...
ROW 22 : ... .. . ... ... ... : ... .. 5 ... ... ... : ... .. . ... : ... .. . ... : ... .. . ... ...
ROW 23 : ... .. . ... ... ... : ... .. 4 ... ... ... : ... .. . ... : ... .. . ... : ... .. . ... ...
ROW 24 : ... .. . ... ... ... : ... .. 3 ... ... ... : ... .. . ... : ... .. . ... : ... .. . ... ...
ROW 25 : ... .. . ... ... ... : ... .. 2 ... ... ... : ... .. . ... : ... .. . ... : ... .. . ... ...
ROW 26 : ... .. . ... ... ... : ... .. 1 ... ... ... : ... .. . ... : ... .. . ... : ... .. . ... ...
ROW 27 : ... .. . ... ... ... : ... .. 0 ... ... ... : --- .. . ... : ... .. . ... : ... .. . ... ...
ROW 28 : ... .. . ... ... ... : A-3 00 F P7F ... ... : ... .. . ... : ... .. . ... : ... .. . ... ...
ROW 29 : ... .. . ... ... ... : ... .. E ... ... ... : A-3 00 . ... : ... .. . ... : ... .. . ... ...
ROW 2A : ... .. . ... ... ... : ... .. D ... ... ... : ... .. . ... : ... .. . ... : ... .. . ... ...
ROW 2B : ... .. . ... ... ... : ... .. C ... ... ... : ... .. . ... : ... .. . ... : ... .. . ... ...
ROW 2C : ... .. . ... ... ... : ... .. B ... ... ... : ... .. . ... : ... .. . ... : ... .. . ... ...
ROW 2D : ... .. . ... ... ... : ... .. A ... ... ... : ... .. . ... : ... .. . ... : ... .. . ... ...
ROW 2E : ... .. . ... ... ... : ... .. 9 ... ... ... : ... .. . ... : ... .. . ... : ... .. . ... ...
ROW 2F : ... .. . ... ... ... : ... .. 8 ... ... ... : --- .. . ... : ... .. . ... : ... .. . ... ...
ROW 30 : ... .. . ... ... ... : ... .. 7 ... ... ... : ... .. . ... : ... .. . ... : ... .. . ... ...
ROW 31 : ... .. . ... ... ... : ... .. 6 ... ... ... : D-4 00 . ... : ... .. . ... : ... .. . ... ...
ROW 32 : ... .. . ... ... ... : ... .. 5 ... ... ... : ... .. . ... : ... .. . ... : ... .. . ... ...
ROW 33 : ... .. . ... ... ... : ... .. 4 ... ... ... : ... .. . ... : ... .. . ... : ... .. . ... ...
ROW 34 : ... .. . ... ... ... : ... .. 3 ... ... ... : ... .. . ... : ... .. . ... : ... .. . ... ...
ROW 35 : ... .. . ... ... ... : ... .. 2 ... ... ... : ... .. . ... : ... .. . ... : ... .. . ... ...
ROW 36 : ... .. . ... ... ... : ... .. 1 ... ... ... : ... .. . ... : ... .. . ... : ... .. . ... ...
ROW 37 : ... .. . ... ... ... : ... .. 0 ... ... ... : --- .. . ... : ... .. . ... : ... .. . ... ...
ROW 38 : ... .. . ... ... ... : G#3 00 F P7F ... ... : ... .. . ... : ... .. . ... : ... .. . ... ...
ROW 39 : ... .. . ... ... ... : ... .. E ... ... ... : D-4 00 . ... : ... .. . ... : ... .. . ... ...
ROW 3A : ... .. . ... ... ... : ... .. D ... ... ... : ... .. . ... : ... .. . ... : ... .. . ... ...
ROW 3B : ... .. . ... ... ... : ... .. C ... ... ... : ... .. . ... : ... .. . ... : ... .. . ... ...
ROW 3C : ... .. . ... ... ... : ... .. B ... ... ... : ... .. . ... : ... .. . ... : ... .. . ... ...
ROW 3D : ... .. . ... ... ... : ... .. A ... ... ... : ... .. . ... : ... .. . ... : ... .. . ... ...
ROW 3E : ... .. . ... ... ... : ... .. 9 ... ... ... : ... .. . ... : ... .. . ... : ... .. . ... ...
ROW 3F : ... .. . ... ... ... : ... .. 8 ... ... ... : --- .. . ... : ... .. . ... : ... .. . ... ...
ROW 40 : ... .. . ... ... ... : ... .. 7 ... ... ... : ... .. . ... : ... .. . ... : ... .. . ... ...
ROW 41 : ... .. . ... ... ... : ... .. 6 ... ... ... : A-3 00 . ... : ... .. . ... : ... .. . ... ...
ROW 42 : ... .. . ... ... ... : ... .. 5 ... ... ... : ... .. . ... : ... .. . ... : ... .. . ... ...
ROW 43 : ... .. . ... ... ... : ... .. 4 ... ... ... : ... .. . ... : ... .. . ... : ... .. . ... ...
ROW 44 : ... .. . ... ... ... : ... .. 3 ... ... ... : ... .. . ... : ... .. . ... : ... .. . ... ...
ROW 45 : ... .. . ... ... ... : ... .. 2 ... ... ... : ... .. . ... : ... .. . ... : ... .. . ... ...
ROW 46 : ... .. . ... ... ... : ... .. 1 ... ... ... : ... .. . ... : ... .. . ... : ... .. . ... ...
ROW 47 : ... .. . ... ... ... : ... .. 0 ... ... ... : --- .. . ... : ... .. . ... : ... .. . ... ...
ROW 48 : ... .. . ... ... ... : F#3 00 F P7F ... ... : ... .. . ... : ... .. . ... : ... .. . ... ...
ROW 49 : ... .. . ... ... ... : ... .. E ... ... ... : A-3 00 . ... : ... .. . ... : ... .. . ... ...
ROW 4A : ... .. . ... ... ... : ... .. D ... ... ... : ... .. . ... : ... .. . ... : ... .. . ... ...
ROW 4B : ... .. . ... ... ... : ... .. C ... ... ... : ... .. . ... : ... .. . ... : ... .. . ... ...
ROW 4C : ... .. . ... ... ... : ... .. B ... ... ... : ... .. . ... : ... .. . ... : ... .. . ... ...
ROW 4D : ... .. . ... ... ... : ... .. A ... ... ... : ... .. . ... : ... .. . ... : ... .. . ... ...
ROW 4E : ... .. . ... ... ... : ... .. 9 ... ... ... : ... .. . ... : ... .. . ... : ... .. . ... ...
ROW 4F : ... .. . ... ... ... : ... .. 8 ... ... ... : --- .. . ... : ... .. . ... : ... .. . ... ...
ROW 50 : ... .. . ... ... ... : ... .. 7 ... ... ... : ... .. . ... : ... .. . ... : ... .. . ... ...
ROW 51 : ... .. . ... ... ... : ... .. 6 ... ... ... : D-4 00 . ... : ... .. . ... : ... .. . ... ...
ROW 52 : ... .. . ... ... ... : ... .. 5 ... ... ... : ... .. . ... : ... .. . ... : ... .. . ... ...
ROW 53 : ... .. . ... ... ... : ... .. 4 ... ... ... : ... .. . ... : ... .. . ... : ... .. . ... ...
ROW 54 : ... .. . ... ... ... : ... .. 3 ... ... ... : ... .. . ... : ... .. . ... : ... .. . ... ...
ROW 55 : ... .. . ... ... ... : ... .. 2 ... ... ... : ... .. . ... : ... .. . ... : ... .. . ... ...
ROW 56 : ... .. . ... ... ... : ... .. 1 ... ... ... : ... .. . ... : ... .. . ... : ... .. . ... ...
ROW 57 : ... .. . ... ... ... : ... .. 0 ... ... ... : --- .. . ... : ... .. . ... : ... .. . ... ...
ROW 58 : ... .. . ... ... ... : G#3 00 F P7F ... ... : ... .. . ... : ... .. . ... : ... .. . ... ...
ROW 59 : ... .. . ... ... ... : ... .. E ... ... ... : D-4 00 . ... : ... .. . ... : ... .. . ... ...
ROW 5A : ... .. . ... ... ... : ... .. D ... ... ... : ... .. . ... : ... .. . ... : ... .. . ... ...
ROW 5B : ... .. . ... ... ... : ... .. C ... ... ... : ... .. . ... : ... .. . ... : ... .. . ... ...
ROW 5C : ... .. . ... ... ... : ... .. B ... ... ... : ... .. . ... : ... .. . ... : ... .. . ... ...
ROW 5D : ... .. . ... ... ... : ... .. A ... ... ... : ... .. . ... : ... .. . ... : ... .. . ... ...
ROW 5E : ... .. . ... ... ... : ... .. 9 ... ... ... : ... .. . ... : ... .. . ... : ... .. . ... ...
ROW 5F : ... .. . ... ... ... : ... .. 8 ... ... ... : --- .. . ... : ... .. . ... : ... .. . ... ...
ROW 60 : ... .. . ... ... ... : F#3 00 F P7F ... ... : ... .. . ... : ... .. . ... : ... .. . ... ...
ROW 61 : ... .. . ... ... ... : ... .. E ... ... ... : E-3 00 . ... : ... .. . ... : ... .. . ... ...
ROW 62 : ... .. . ... ... ... : ... .. D ... ... ... : ... .. . ... : ... .. . ... : ... .. . ... ...
ROW 63 : ... .. . ... ... ... : ... .. C ... ... ... : ... .. . ... : ... .. . ... : ... .. . ... ...
ROW 64 : ... .. . ... ... ... : ... .. B ... ... ... : ... .. . ... : ... .. . ... : ... .. . ... ...
ROW 65 : ... .. . ... ... ... : ... .. A ... ... ... : ... .. . ... : ... .. . ... : ... .. . ... ...
ROW 66 : ... .. . ... ... ... : ... .. 9 ... ... ... : ... .. . ... : ... .. . ... : ... .. . ... ...
ROW 67 : ... .. . ... ... ... : ... .. 8 ... ... ... : --- .. . ... : ... .. . ... : ... .. . ... ...
ROW 68 : ... .. . ... ... ... : E-3 00 F P7F ... ... : ... .. . ... : ... .. . ... : ... .. . ... ...
ROW 69 : ... .. . ... ... ... : ... .. E ... ... ... : E-3 00 . ... : ... .. . ... : ... .. . ... ...
ROW 6A : ... .. . ... ... ... : ... .. D ... ... ... : ... .. . ... : ... .. . ... : ... .. . ... ...
ROW 6B : ... .. . ... ... ... : ... .. . ... ... ... : ... .. . ... : ... .. . ... : ... .. . ... ...
ROW 6C : ... .. . ... ... ... : ... .. . ... ... ... : ... .. . ... : ... .. . ... : ... .. . ... ...
ROW 6D : ... .. . ... ... ... : ... .. . ... ... ... : ... .. . ... : ... .. . ... : ... .. . ... ...
ROW 6E : ... .. . ... ... ... : ... .. . ... ... ... : ... .. . ... : ... .. . ... : ... .. . ... ...
ROW 6F : ... .. . ... ... ... : ... .. . ... ... ... : --- .. . ... : ... .. . ... : ... .. . ... ...
ROW 70 : ... .. . ... ... ... : ... .. . ... ... ... : ... .. . ... : ... .. . ... : ... .. . ... ...
ROW 71 : ... .. . ... ... ... : ... .. . ... ... ... : A-3 00 . ... : ... .. . ... : ... .. . ... ...
ROW 72 : ... .. . ... ... ... : ... .. . ... ... ... : ... .. . ... : ... .. . ... : ... .. . ... ...
ROW 73 : ... .. . ... ... ... : ... .. . ... ... ... : ... .. . ... : ... .. . ... : ... .. . ... ...
ROW 74 : ... .. . ... ... ... : ... .. . ... ... ... : ... .. . ... : ... .. . ... : ... .. . ... ...
ROW 75 : ... .. . ... ... ... : ... .. . ... ... ... : ... .. . ... : ... .. . ... : ... .. . ... ...
ROW 76 : ... .. . ... ... ... : ... .. . ... ... ... : ... .. . ... : ... .. . ... : ... .. . ... ...
ROW 77 : ... .. . ... ... ... : ... .. . ... ... ... : --- .. . ... : ... .. . ... : ... .. . ... ...
ROW 78 : ... .. . ... ... ... : ... .. . ... ... ... : ... .. . ... : ... .. . ... : ... .. . ... ...
ROW 79 : ... .. . ... ... ... : ... .. . ... ... ... : A-3 00 . ... : ... .. . ... : ... .. . ... ...
ROW 7A : ... .. . ... ... ... : ... .. . ... ... ... : ... .. . ... : ... .. . ... : ... .. . ... ...
ROW 7B : ... .. . ... ... ... : ... .. . ... ... ... : ... .. . ... : ... .. . ... : ... .. . ... ...
ROW 7C : ... .. . ... ... ... : ... .. . ... ... ... : ... .. . ... : ... .. . ... : ... .. . ... ...
ROW 7D : ... .. . ... ... ... : ... .. . ... ... ... : ... .. . ... : ... .. . ... : ... .. . ... ...
ROW 7E : ... .. . ... ... ... : ... .. . ... ... ... : ... .. . ... : ... .. . ... : ... .. . ... ...
ROW 7F : ... .. . ... ... ... : ... .. . ... ... ... : --- .. . ... : ... .. . ... : ... .. . ... ...
ROW 80 : ... .. . ... ... ... : ... .. . ... ... ... : ... .. . ... : ... .. . ... : ... .. . ... ...
ROW 81 : ... .. . ... ... ... : ... .. . ... ... ... : E-3 00 . ... : ... .. . ... : ... .. . ... ...
ROW 82 : ... .. . ... ... ... : ... .. . ... ... ... : ... .. . ... : ... .. . ... : ... .. . ... ...
ROW 83 : ... .. . ... ... ... : ... .. . ... ... ... : ... .. . ... : ... .. . ... : ... .. . ... ...
ROW 84 : ... .. . ... ... ... : ... .. . ... ... ... : ... .. . ... : ... .. . ... : ... .. . ... ...
ROW 85 : ... .. . ... ... ... : ... .. . ... ... ... : ... .. . ... : ... .. . ... : ... .. . ... ...
ROW 86 : ... .. . ... ... ... : ... .. . ... ... ... : ... .. . ... : ... .. . ... : ... .. . ... ...
ROW 87 : ... .. . ... ... ... : ... .. . ... ... ... : --- .. . ... : ... .. . ... : ... .. . ... ...
ROW 88 : ... .. . ... ... ... : ... .. . ... ... ... : ... .. . ... : ... .. . ... : ... .. . ... ...
ROW 89 : ... .. . ... ... ... : ... .. . ... ... ... : E-3 00 . ... : ... .. . ... : ... .. . ... ...
ROW 8A : ... .. . ... ... ... : ... .. . ... ... ... : ... .. . ... : ... .. . ... : ... .. . ... ...
ROW 8B : ... .. . ... ... ... : ... .. . ... ... ... : ... .. . ... : ... .. . ... : ... .. . ... ...
ROW 8C : ... .. . ... ... ... : ... .. . ... ... ... : ... .. . ... : ... .. . ... : ... .. . ... ...
ROW 8D : ... .. . ... ... ... : ... .. . ... ... ... : ... .. . ... : ... .. . ... : ... .. . ... ...
ROW 8E : ... .. . ... ... ... : ... .. . ... ... ... : ... .. . ... : ... .. . ... : ... .. . ... ...
ROW 8F : ... .. . ... ... ... : ... .. . ... ... ... : --- .. . ... : ... .. . ... : ... .. . ... ...
ROW 90 : ... .. . ... ... ... : ... .. . ... ... ... : ... .. . ... : ... .. . ... : ... .. . ... ...
ROW 91 : ... .. . ... ... ... : ... .. . ... ... ... : A-3 00 . ... : ... .. . ... : ... .. . ... ...
ROW 92 : ... .. . ... ... ... : ... .. . ... ... ... : ... .. . ... : ... .. . ... : ... .. . ... ...
ROW 93 : ... .. . ... ... ... : ... .. . ... ... ... : ... .. . ... : ... .. . ... : ... .. . ... ...
ROW 94 : ... .. . ... ... ... : ... .. . ... ... ... : ... .. . ... : ... .. . ... : ... .. . ... ...
ROW 95 : ... .. . ... ... ... : ... .. . ... ... ... : ... .. . ... : ... .. . ... : ... .. . ... ...
ROW 96 : ... .. . ... ... ... : ... .. . ... ... ... : ... .. . ... : ... .. . ... : ... .. . ... ...
ROW 97 : ... .. . ... ... ... : ... .. . ... ... ... : --- .. . ... : ... .. . ... : ... .. . ... ...
ROW 98 : ... .. . ... ... ... : ... .. . ... ... ... : ... .. . ... : ... .. . ... : ... .. . ... ...
ROW 99 : ... .. . ... ... ... : ... .. . ... ... ... : A-3 00 . ... : ... .. . ... : ... .. . ... ...
ROW 9A : ... .. . ... ... ... : ... .. . ... ... ... : ... .. . ... : ... .. . ... : ... .. . ... ...
ROW 9B : ... .. . ... ... ... : ... .. . ... ... ... : ... .. . ... : ... .. . ... : ... .. . ... ...
ROW 9C : ... .. . ... ... ... : ... .. . ... ... ... : ... .. . ... : ... .. . ... : ... .. . ... ...
ROW 9D : ... .. . ... ... ... : ... .. . ... ... ... : ... .. . ... : ... .. . ... : ... .. . ... ...
ROW 9E : ... .. . ... ... ... : ... .. . ... ... ... : ... .. . ... : ... .. . ... : ... .. . ... ...
ROW 9F : ... .. . ... ... ... : ... .. . ... ... ... : --- .. . ... : ... .. . ... : ... .. . ... ...
ROW A0 : ... .. . ... ... ... : ... .. . ... ... ... : ... .. . ... : ... .. . ... : ... .. . ... ...
ROW A1 : ... .. . ... ... ... : ... .. . ... ... ... : E-3 00 . ... : ... .. . ... : ... .. . ... ...
ROW A2 : ... .. . ... ... ... : ... .. . ... ... ... : ... .. . ... : ... .. . ... : ... .. . ... ...
ROW A3 : ... .. . ... ... ... : ... .. . ... ... ... : ... .. . ... : ... .. . ... : ... .. . ... ...
ROW A4 : ... .. . ... ... ... : ... .. . ... ... ... : ... .. . ... : ... .. . ... : ... .. . ... ...
ROW A5 : ... .. . ... ... ... : ... .. . ... ... ... : ... .. . ... : ... .. . ... : ... .. . ... ...
ROW A6 : ... .. . ... ... ... : ... .. . ... ... ... : ... .. . ... : ... .. . ... : ... .. . ... ...
ROW A7 : ... .. . ... ... ... : ... .. . ... ... ... : --- .. . ... : ... .. . ... : ... .. . ... ...
ROW A8 : ... .. . ... ... ... : ... .. . ... ... ... : ... .. . ... : ... .. . ... : ... .. . ... ...
ROW A9 : ... .. . ... ... ... : ... .. . ... ... ... : E-3 00 . ... : ... .. . ... : ... .. . ... ...
ROW AA : ... .. . ... ... ... : ... .. . ... ... ... : ... .. . ... : ... .. . ... : ... .. . ... ...
ROW AB : ... .. . ... ... ... : ... .. . ... ... ... : ... .. . ... : ... .. . ... : ... .. . ... ...
ROW AC : ... .. . ... ... ... : ... .. . ... ... ... : ... .. . ... : ... .. . ... : ... .. . ... ...
ROW AD : ... .. . ... ... ... : ... .. . ... ... ... : ... .. . ... : ... .. . ... : ... .. . ... ...
ROW AE : ... .. . ... ... ... : ... .. . ... ... ... : ... .. . ... : ... .. . ... : ... .. . ... ...
ROW AF : ... .. . ... ... ... : ... .. . ... ... ... : --- .. . ... : ... .. . ... : ... .. . ... ...
ROW B0 : ... .. . ... ... ... : ... .. . ... ... ... : ... .. . ... : ... .. . ... : ... .. . ... ...
ROW B1 : ... .. . ... ... ... : ... .. C ... ... ... : A-3 00 . ... : ... .. . ... : ... .. . ... ...
ROW B2 : ... .. . ... ... ... : ... .. B ... ... ... : ... .. . ... : ... .. . ... : ... .. . ... ...
ROW B3 : ... .. . ... ... ... : ... .. A ... ... ... : ... .. . ... : ... .. . ... : ... .. . ... ...
ROW B4 : ... .. . ... ... ... : ... .. 9 ... ... ... : ... .. . ... : ... .. . ... : ... .. . ... ...
ROW B5 : ... .. . ... ... ... : ... .. 8 ... ... ... : ... .. . ... : ... .. . ... : ... .. . ... ...
ROW B6 : ... .. . ... ... ... : ... .. 7 ... ... ... : ... .. . ... : ... .. . ... : ... .. . ... ...
ROW B7 : ... .. . ... ... ... : ... .. 6 ... ... ... : --- .. . ... : ... .. . ... : ... .. . ... ...
ROW B8 : ... .. . ... ... ... : ... .. 5 ... ... ... : ... .. . ... : ... .. . ... : ... .. . ... ...
ROW B9 : ... .. . ... ... ... : ... .. 4 ... ... ... : A-3 00 . ... : ... .. . ... : ... .. . ... ...
ROW BA : ... .. . ... ... ... : ... .. 3 ... ... ... : ... .. . ... : ... .. . ... : ... .. . ... ...
ROW BB : ... .. . ... ... ... : ... .. 2 ... ... ... : ... .. . ... : ... .. . ... : ... .. . ... ...
ROW BC : ... .. . ... ... ... : ... .. 1 ... ... ... : ... .. . ... : ... .. . ... : ... .. . ... ...
ROW BD : ... .. . ... ... ... : ... .. 0 ... ... ... : ... .. . ... : ... .. . ... : ... .. . ... ...
ROW BE : ... .. . ... ... ... : ... .. . ... ... ... : ... .. . ... : ... .. . ... : ... .. . ... ...
ROW BF : ... .. . ... ... ... : ... .. . ... ... ... : --- .. . ... : ... .. . ... : ... .. . ... ...
ROW C0 : ... .. . ... ... ... : C#3 00 F P80 ... ... : ... .. . ... : ... .. . ... : ... .. . ... ...
ROW C1 : ... .. . ... ... ... : ... .. E ... ... ... : E-3 00 . ... : ... .. . ... : ... .. . ... ...
ROW C2 : ... .. . ... ... ... : ... .. D ... ... ... : ... .. . ... : ... .. . ... : ... .. . ... ...
ROW C3 : ... .. . ... ... ... : ... .. C ... ... ... : ... .. . ... : ... .. . ... : ... .. . ... ...
ROW C4 : ... .. . ... ... ... : ... .. B ... ... ... : ... .. . ... : ... .. . ... : ... .. . ... ...
ROW C5 : ... .. . ... ... ... : ... .. A ... ... ... : ... .. . ... : ... .. . ... : ... .. . ... ...
ROW C6 : ... .. . ... ... ... : ... .. 9 ... ... ... : ... .. . ... : ... .. . ... : ... .. . ... ...
ROW C7 : ... .. . ... ... ... : ... .. 8 ... ... ... : --- .. . ... : ... .. . ... : ... .. . ... ...
ROW C8 : ... .. . ... ... ... : D#3 00 F P80 ... ... : ... .. . ... : ... .. . ... : ... .. . ... ...
ROW C9 : ... .. . ... ... ... : ... .. E ... ... ... : E-3 00 . ... : ... .. . ... : ... .. . ... ...
ROW CA : ... .. . ... ... ... : ... .. D ... ... ... : ... .. . ... : ... .. . ... : ... .. . ... ...
ROW CB : ... .. . ... ... ... : ... .. C ... ... ... : ... .. . ... : ... .. . ... : ... .. . ... ...
ROW CC : ... .. . ... ... ... : ... .. B ... ... ... : ... .. . ... : ... .. . ... : ... .. . ... ...
ROW CD : ... .. . ... ... ... : ... .. A ... ... ... : ... .. . ... : ... .. . ... : ... .. . ... ...
ROW CE : ... .. . ... ... ... : ... .. 9 ... ... ... : ... .. . ... : ... .. . ... : ... .. . ... ...
ROW CF : ... .. . ... ... ... : ... .. 8 ... ... ... : --- .. . ... : ... .. . ... : ... .. . ... ...
ROW D0 : ... .. . ... ... ... : E-3 00 F P7F ... ... : ... .. . ... : ... .. . ... : ... .. . ... ...
ROW D1 : ... .. . ... ... ... : ... .. E ... ... ... : A-3 00 . ... : ... .. . ... : ... .. . ... ...
ROW D2 : ... .. . ... ... ... : ... .. D ... ... ... : ... .. . ... : ... .. . ... : ... .. . ... ...
ROW D3 : ... .. . ... ... ... : ... .. C ... ... ... : ... .. . ... : ... .. . ... : ... .. . ... ...
ROW D4 : ... .. . ... ... ... : ... .. B ... ... ... : ... .. . ... : ... .. . ... : ... .. . ... ...
ROW D5 : ... .. . ... ... ... : ... .. A ... ... ... : ... .. . ... : ... .. . ... : ... .. . ... ...
ROW D6 : ... .. . ... ... ... : ... .. 9 ... ... ... : ... .. . ... : ... .. . ... : ... .. . ... ...
ROW D7 : ... .. . ... ... ... : ... .. 8 ... ... ... : --- .. . ... : ... .. . ... : ... .. . ... ...
ROW D8 : ... .. . ... ... ... : F#3 00 F P7F ... ... : ... .. . ... : ... .. . ... : ... .. . ... ...
ROW D9 : ... .. . ... ... ... : ... .. E ... ... ... : A-3 00 . ... : ... .. . ... : ... .. . ... ...
ROW DA : ... .. . ... ... ... : ... .. D ... ... ... : ... .. . ... : ... .. . ... : ... .. . ... ...
ROW DB : ... .. . ... ... ... : ... .. C ... ... ... : ... .. . ... : ... .. . ... : ... .. . ... ...
ROW DC : ... .. . ... ... ... : ... .. B ... ... ... : ... .. . ... : ... .. . ... : ... .. . ... ...
ROW DD : ... .. . ... ... ... : ... .. A ... ... ... : ... .. . ... : ... .. . ... : ... .. . ... ...
ROW DE : ... .. . ... ... ... : ... .. 9 ... ... ... : ... .. . ... : ... .. . ... : ... .. . ... ...
ROW DF : ... .. . ... ... ... : ... .. 8 ... ... ... : --- .. . ... : ... .. . ... : ... .. . ... ...
ROW E0 : ... .. . ... ... ... : ... .. 7 ... ... ... : ... .. . ... : ... .. . ... : ... .. . ... ...
ROW E1 : ... .. . ... ... ... : ... .. 6 ... ... ... : E-3 00 . ... : ... .. . ... : ... .. . ... ...
ROW E2 : ... .. . ... ... ... : ... .. 5 ... ... ... : ... .. . ... : ... .. . ... : ... .. . ... ...
ROW E3 : ... .. . ... ... ... : ... .. 4 ... ... ... : ... .. . ... : ... .. . ... : ... .. . ... ...
ROW E4 : ... .. . ... ... ... : ... .. 3 ... ... ... : ... .. . ... : ... .. . ... : ... .. . ... ...
ROW E5 : ... .. . ... ... ... : ... .. 2 ... ... ... : ... .. . ... : ... .. . ... : ... .. . ... ...
ROW E6 : ... .. . ... ... ... : ... .. 1 ... ... ... : ... .. . ... : ... .. . ... : ... .. . ... ...
ROW E7 : ... .. . ... ... ... : ... .. 0 ... ... ... : --- .. . ... : ... .. . ... : ... .. . ... ...
ROW E8 : ... .. . ... ... ... : E-3 00 F P7F ... ... : ... .. . ... : ... .. . ... : ... .. . ... ...
ROW E9 : ... .. . ... ... ... : ... .. E ... ... ... : E-3 00 . ... : ... .. . ... : ... .. . ... ...
ROW EA : ... .. . ... ... ... : ... .. D ... ... ... : ... .. . ... : ... .. . ... : ... .. . ... ...
ROW EB : ... .. . ... ... ... : ... .. C ... ... ... : ... .. . ... : ... .. . ... : ... .. . ... ...
ROW EC : ... .. . ... ... ... : ... .. B ... ... ... : ... .. . ... : ... .. . ... : ... .. . ... ...
ROW ED : ... .. . ... ... ... : ... .. A ... ... ... : ... .. . ... : ... .. . ... : ... .. . ... ...
ROW EE : ... .. . ... ... ... : ... .. 9 ... ... ... : ... .. . ... : ... .. . ... : ... .. . ... ...
ROW EF : ... .. . ... ... ... : ... .. 8 ... ... ... : --- .. . ... : ... .. . ... : ... .. . ... ...
ROW F0 : ... .. . ... ... ... : D#3 00 F P80 ... ... : ... .. . ... : ... .. . ... : ... .. . ... ...
ROW F1 : ... .. . ... ... ... : ... .. E ... ... ... : A-3 00 . ... : ... .. . ... : ... .. . ... ...
ROW F2 : ... .. . ... ... ... : ... .. D ... ... ... : ... .. . ... : ... .. . ... : ... .. . ... ...
ROW F3 : ... .. . ... ... ... : ... .. C ... ... ... : ... .. . ... : ... .. . ... : ... .. . ... ...
ROW F4 : ... .. . ... ... ... : ... .. B ... ... ... : ... .. . ... : ... .. . ... : ... .. . ... ...
ROW F5 : ... .. . ... ... ... : ... .. A ... ... ... : ... .. . ... : ... .. . ... : ... .. . ... ...
ROW F6 : ... .. . ... ... ... : ... .. 9 ... ... ... : ... .. . ... : ... .. . ... : ... .. . ... ...
ROW F7 : ... .. . ... ... ... : ... .. 8 ... ... ... : --- .. . ... : ... .. . ... : ... .. . ... ...
ROW F8 : ... .. . ... ... ... : C#3 00 F P80 ... ... : ... .. . ... : ... .. . ... : ... .. . ... ...
ROW F9 : ... .. . ... ... ... : ... .. E ... ... ... : A-3 00 . ... : ... .. . ... : ... .. . ... ...
ROW FA : ... .. . ... ... ... : ... .. D ... ... ... : ... .. . ... : ... .. . ... : ... .. . ... ...
ROW FB : ... .. . ... ... ... : ... .. C ... ... ... : ... .. . ... : ... .. . ... : ... .. . ... ...
ROW FC : ... .. . ... ... ... : ... .. B ... ... ... : ... .. . ... : ... .. . ... : ... .. . ... ...
ROW FD : ... .. . ... ... ... : ... .. A ... ... ... : ... .. . ... : ... .. . ... : ... .. . ... ...
ROW FE : ... .. . ... ... ... : ... .. 9 ... ... ... : ... .. . ... : ... .. . ... : ... .. . ... ...
ROW FF : ... .. . ... ... ... : ... .. 8 ... ... ... : --- .. . ... : ... .. . ... : ... .. . ... ...

PATTERN 04
ROW 00 : ... .. . ... ... ... : G#3 00 F P7F ... ... : ... .. . ... : ... .. . ... : ... .. . ... ...
ROW 01 : ... .. . ... ... ... : ... .. E ... ... ... : B-3 00 . ... : ... .. . ... : ... .. . ... ...
ROW 02 : ... .. . ... ... ... : ... .. D ... ... ... : ... .. . ... : ... .. . ... : ... .. . ... ...
ROW 03 : ... .. . ... ... ... : ... .. C ... ... ... : ... .. . ... : ... .. . ... : ... .. . ... ...
ROW 04 : ... .. . ... ... ... : ... .. B ... ... ... : ... .. . ... : ... .. . ... : ... .. . ... ...
ROW 05 : ... .. . ... ... ... : ... .. A ... ... ... : ... .. . ... : ... .. . ... : ... .. . ... ...
ROW 06 : ... .. . ... ... ... : ... .. 9 ... ... ... : ... .. . ... : ... .. . ... : ... .. . ... ...
ROW 07 : ... .. . ... ... ... : ... .. 8 ... ... ... : --- .. . ... : ... .. . ... : ... .. . ... ...
ROW 08 : ... .. . ... ... ... : F#3 00 F P7F ... ... : ... .. . ... : ... .. . ... : ... .. . ... ...
ROW 09 : ... .. . ... ... ... : ... .. E ... ... ... : B-3 00 . ... : ... .. . ... : ... .. . ... ...
ROW 0A : ... .. . ... ... ... : ... .. D ... ... ... : ... .. . ... : ... .. . ... : ... .. . ... ...
ROW 0B : ... .. . ... ... ... : ... .. C ... ... ... : ... .. . ... : ... .. . ... : ... .. . ... ...
ROW 0C : ... .. . ... ... ... : ... .. B ... ... ... : ... .. . ... : ... .. . ... : ... .. . ... ...
ROW 0D : ... .. . ... ... ... : ... .. A ... ... ... : ... .. . ... : ... .. . ... : ... .. . ... ...
ROW 0E : ... .. . ... ... ... : ... .. 9 ... ... ... : ... .. . ... : ... .. . ... : ... .. . ... ...
ROW 0F : ... .. . ... ... ... : ... .. 8 ... ... ... : --- .. . ... : ... .. . ... : ... .. . ... ...
ROW 10 : ... .. . ... ... ... : G#3 00 F P7F ... ... : ... .. . ... : ... .. . ... : ... .. . ... ...
ROW 11 : ... .. . ... ... ... : ... .. E ... ... ... : E-4 00 . P80 : ... .. . ... : ... .. . ... ...
ROW 12 : ... .. . ... ... ... : ... .. D ... ... ... : ... .. . ... : ... .. . ... : ... .. . ... ...
ROW 13 : ... .. . ... ... ... : ... .. C ... ... ... : ... .. . ... : ... .. . ... : ... .. . ... ...
ROW 14 : ... .. . ... ... ... : ... .. B ... ... ... : ... .. . ... : ... .. . ... : ... .. . ... ...
ROW 15 : ... .. . ... ... ... : ... .. A ... ... ... : ... .. . ... : ... .. . ... : ... .. . ... ...
ROW 16 : ... .. . ... ... ... : ... .. 9 ... ... ... : ... .. . ... : ... .. . ... : ... .. . ... ...
ROW 17 : ... .. . ... ... ... : ... .. 8 ... ... ... : --- .. . ... : ... .. . ... : ... .. . ... ...
ROW 18 : ... .. . ... ... ... : A#3 00 F P7F ... ... : ... .. . ... : ... .. . ... : ... .. . ... ...
ROW 19 : ... .. . ... ... ... : ... .. E ... ... ... : E-4 00 . ... : ... .. . ... : ... .. . ... ...
ROW 1A : ... .. . ... ... ... : ... .. D ... ... ... : ... .. . ... : ... .. . ... : ... .. . ... ...
ROW 1B : ... .. . ... ... ... : ... .. C ... ... ... : ... .. . ... : ... .. . ... : ... .. . ... ...
ROW 1C : ... .. . ... ... ... : ... .. B ... ... ... : ... .. . ... : ... .. . ... : ... .. . ... ...
ROW 1D : ... .. . ... ... ... : ... .. A ... ... ... : ... .. . ... : ... .. . ... : ... .. . ... ...
ROW 1E : ... .. . ... ... ... : ... .. 9 ... ... ... : ... .. . ... : ... .. . ... : ... .. . ... ...
ROW 1F : ... .. . ... ... ... : ... .. 8 ... ... ... : --- .. . ... : ... .. . ... : ... .. . ... ...
ROW 20 : ... .. . ... ... ... : ... .. 7 ... ... ... : ... .. . ... : ... .. . ... : ... .. . ... ...
ROW 21 : ... .. . ... ... ... : ... .. 6 ... ... ... : B-3 00 . P7F : ... .. . ... : ... .. . ... ...
ROW 22 : ... .. . ... ... ... : ... .. 5 ... ... ... : ... .. . ... : ... .. . ... : ... .. . ... ...
ROW 23 : ... .. . ... ... ... : ... .. 4 ... ... ... : ... .. . ... : ... .. . ... : ... .. . ... ...
ROW 24 : ... .. . ... ... ... : ... .. 3 ... ... ... : ... .. . ... : ... .. . ... : ... .. . ... ...
ROW 25 : ... .. . ... ... ... : ... .. 2 ... ... ... : ... .. . ... : ... .. . ... : ... .. . ... ...
ROW 26 : ... .. . ... ... ... : ... .. 1 ... ... ... : ... .. . ... : ... .. . ... : ... .. . ... ...
ROW 27 : ... .. . ... ... ... : ... .. 0 ... ... ... : --- .. . ... : ... .. . ... : ... .. . ... ...
ROW 28 : ... .. . ... ... ... : B-3 00 F P7F ... ... : ... .. . ... : ... .. . ... : ... .. . ... ...
ROW 29 : ... .. . ... ... ... : ... .. E ... ... ... : B-3 00 . ... : ... .. . ... : ... .. . ... ...
ROW 2A : ... .. . ... ... ... : ... .. D ... ... ... : ... .. . ... : ... .. . ... : ... .. . ... ...
ROW 2B : ... .. . ... ... ... : ... .. C ... ... ... : ... .. . ... : ... .. . ... : ... .. . ... ...
ROW 2C : ... .. . ... ... ... : ... .. B ... ... ... : ... .. . ... : ... .. . ... : ... .. . ... ...
ROW 2D : ... .. . ... ... ... : ... .. A ... ... ... : ... .. . ... : ... .. . ... : ... .. . ... ...
ROW 2E : ... .. . ... ... ... : ... .. 9 ... ... ... : ... .. . ... : ... .. . ... : ... .. . ... ...
ROW 2F : ... .. . ... ... ... : ... .. 8 ... ... ... : --- .. . ... : ... .. . ... : ... .. . ... ...
ROW 30 : ... .. . ... ... ... : ... .. 7 ... ... ... : ... .. . ... : ... .. . ... : ... .. . ... ...
ROW 31 : ... .. . ... ... ... : ... .. 6 ... ... ... : E-4 00 . P80 : ... .. . ... : ... .. . ... ...
ROW 32 : ... .. . ... ... ... : ... .. 5 ... ... ... : ... .. . ... : ... .. . ... : ... .. . ... ...
ROW 33 : ... .. . ... ... ... : ... .. 4 ... ... ... : ... .. . ... : ... .. . ... : ... .. . ... ...
ROW 34 : ... .. . ... ... ... : ... .. 3 ... ... ... : ... .. . ... : ... .. . ... : ... .. . ... ...
ROW 35 : ... .. . ... ... ... : ... .. 2 ... ... ... : ... .. . ... : ... .. . ... : ... .. . ... ...
ROW 36 : ... .. . ... ... ... : ... .. 1 ... ... ... : ... .. . ... : ... .. . ... : ... .. . ... ...
ROW 37 : ... .. . ... ... ... : ... .. 0 ... ... ... : --- .. . ... : ... .. . ... : ... .. . ... ...
ROW 38 : ... .. . ... ... ... : A#3 00 F P7F ... ... : ... .. . ... : ... .. . ... : ... .. . ... ...
ROW 39 : ... .. . ... ... ... : ... .. E ... ... ... : E-4 00 . ... : ... .. . ... : ... .. . ... ...
ROW 3A : ... .. . ... ... ... : ... .. D ... ... ... : ... .. . ... : ... .. . ... : ... .. . ... ...
ROW 3B : ... .. . ... ... ... : ... .. C ... ... ... : ... .. . ... : ... .. . ... : ... .. . ... ...
ROW 3C : ... .. . ... ... ... : ... .. B ... ... ... : ... .. . ... : ... .. . ... : ... .. . ... ...
ROW 3D : ... .. . ... ... ... : ... .. A ... ... ... : ... .. . ... : ... .. . ... : ... .. . ... ...
ROW 3E : ... .. . ... ... ... : ... .. 9 ... ... ... : ... .. . ... : ... .. . ... : ... .. . ... ...
ROW 3F : ... .. . ... ... ... : ... .. 8 ... ... ... : --- .. . ... : ... .. . ... : ... .. . ... ...
ROW 40 : ... .. . ... ... ... : ... .. 7 ... ... ... : ... .. . ... : ... .. . ... : ... .. . ... ...
ROW 41 : ... .. . ... ... ... : ... .. 6 ... ... ... : B-3 00 . P7F : ... .. . ... : ... .. . ... ...
ROW 42 : ... .. . ... ... ... : ... .. 5 ... ... ... : ... .. . ... : ... .. . ... : ... .. . ... ...
ROW 43 : ... .. . ... ... ... : ... .. 4 ... ... ... : ... .. . ... : ... .. . ... : ... .. . ... ...
ROW 44 : ... .. . ... ... ... : ... .. 3 ... ... ... : ... .. . ... : ... .. . ... : ... .. . ... ...
ROW 45 : ... .. . ... ... ... : ... .. 2 ... ... ... : ... .. . ... : ... .. . ... : ... .. . ... ...
ROW 46 : ... .. . ... ... ... : ... .. 1 ... ... ... : ... .. . ... : ... .. . ... : ... .. . ... ...
ROW 47 : ... .. . ... ... ... : ... .. 0 ... ... ... : --- .. . ... : ... .. . ... : ... .. . ... ...
ROW 48 : ... .. . ... ... ... : G#3 00 F P7F ... ... : ... .. . ... : ... .. . ... : ... .. . ... ...
ROW 49 : ... .. . ... ... ... : ... .. E ... ... ... : B-3 00 . ... : ... .. . ... : ... .. . ... ...
ROW 4A : ... .. . ... ... ... : ... .. D ... ... ... : ... .. . ... : ... .. . ... : ... .. . ... ...
ROW 4B : ... .. . ... ... ... : ... .. C ... ... ... : ... .. . ... : ... .. . ... : ... .. . ... ...
ROW 4C : ... .. . ... ... ... : ... .. B ... ... ... : ... .. . ... : ... .. . ... : ... .. . ... ...
ROW 4D : ... .. . ... ... ... : ... .. A ... ... ... : ... .. . ... : ... .. . ... : ... .. . ... ...
ROW 4E : ... .. . ... ... ... : ... .. 9 ... ... ... : ... .. . ... : ... .. . ... : ... .. . ... ...
ROW 4F : ... .. . ... ... ... : ... .. 8 ... ... ... : --- .. . ... : ... .. . ... : ... .. . ... ...
ROW 50 : ... .. . ... ... ... : ... .. 7 ... ... ... : ... .. . ... : ... .. . ... : ... .. . ... ...
ROW 51 : ... .. . ... ... ... : ... .. 6 ... ... ... : E-4 00 . P80 : ... .. . ... : ... .. . ... ...
ROW 52 : ... .. . ... ... ... : ... .. 5 ... ... ... : ... .. . ... : ... .. . ... : ... .. . ... ...
ROW 53 : ... .. . ... ... ... : ... .. 4 ... ... ... : ... .. . ... : ... .. . ... : ... .. . ... ...
ROW 54 : ... .. . ... ... ... : ... .. 3 ... ... ... : ... .. . ... : ... .. . ... : ... .. . ... ...
ROW 55 : ... .. . ... ... ... : ... .. 2 ... ... ... : ... .. . ... : ... .. . ... : ... .. . ... ...
ROW 56 : ... .. . ... ... ... : ... .. 1 ... ... ... : ... .. . ... : ... .. . ... : ... .. . ... ...
ROW 57 : ... .. . ... ... ... : ... .. 0 ... ... ... : --- .. . ... : ... .. . ... : ... .. . ... ...
ROW 58 : ... .. . ... ... ... : F#3 00 F P7F ... ... : ... .. . ... : ... .. . ... : ... .. . ... ...
ROW 59 : ... .. . ... ... ... : ... .. E ... ... ... : E-4 00 . ... : ... .. . ... : ... .. . ... ...
ROW 5A : ... .. . ... ... ... : ... .. D ... ... ... : ... .. . ... : ... .. . ... : ... .. . ... ...
ROW 5B : ... .. . ... ... ... : ... .. C ... ... ... : ... .. . ... : ... .. . ... : ... .. . ... ...
ROW 5C : ... .. . ... ... ... : ... .. B ... ... ... : ... .. . ... : ... .. . ... : ... .. . ... ...
ROW 5D : ... .. . ... ... ... : ... .. A ... ... ... : ... .. . ... : ... .. . ... : ... .. . ... ...
ROW 5E : ... .. . ... ... ... : ... .. 9 ... ... ... : ... .. . ... : ... .. . ... : ... .. . ... ...
ROW 5F : ... .. . ... ... ... : ... .. 8 ... ... ... : --- .. . ... : ... .. . ... : ... .. . ... ...
ROW 60 : ... .. . ... ... ... : G#3 00 F P7F ... ... : ... .. . ... : ... .. . ... : ... .. . ... ...
ROW 61 : ... .. . ... ... ... : ... .. E ... ... ... : B-3 00 . P7F : ... .. . ... : ... .. . ... ...
ROW 62 : ... .. . ... ... ... : ... .. D ... ... ... : ... .. . ... : ... .. . ... : ... .. . ... ...
ROW 63 : ... .. . ... ... ... : ... .. C ... ... ... : ... .. . ... : ... .. . ... : ... .. . ... ...
ROW 64 : ... .. . ... ... ... : ... .. B ... ... ... : ... .. . ... : ... .. . ... : ... .. . ... ...
ROW 65 : ... .. . ... ... ... : ... .. A ... ... ... : ... .. . ... : ... .. . ... : ... .. . ... ...
ROW 66 : ... .. . ... ... ... : ... .. 9 ... ... ... : ... .. . ... : ... .. . ... : ... .. . ... ...
ROW 67 : ... .. . ... ... ... : ... .. 8 ... ... ... : --- .. . ... : ... .. . ... : ... .. . ... ...
ROW 68 : ... .. . ... ... ... : F#3 00 F P7F ... ... : ... .. . ... : ... .. . ... : ... .. . ... ...
ROW 69 : ... .. . ... ... ... : ... .. E ... ... ... : B-3 00 . ... : ... .. . ... : ... .. . ... ...
ROW 6A : ... .. . ... ... ... : ... .. D ... ... ... : ... .. . ... : ... .. . ... : ... .. . ... ...
ROW 6B : ... .. . ... ... ... : ... .. C ... ... ... : ... .. . ... : ... .. . ... : ... .. . ... ...
ROW 6C : ... .. . ... ... ... : ... .. B ... ... ... : ... .. . ... : ... .. . ... : ... .. . ... ...
ROW 6D : ... .. . ... ... ... : ... .. A ... ... ... : ... .. . ... : ... .. . ... : ... .. . ... ...
ROW 6E : ... .. . ... ... ... : ... .. 9 ... ... ... : ... .. . ... : ... .. . ... : ... .. . ... ...
ROW 6F : ... .. . ... ... ... : ... .. 8 ... ... ... : --- .. . ... : ... .. . ... : ... .. . ... ...
ROW 70 : ... .. . ... ... ... : G#3 00 F P7F ... ... : ... .. . ... : ... .. . ... : ... .. . ... ...
ROW 71 : ... .. . ... ... ... : ... .. E ... ... ... : E-4 00 . P80 : ... .. . ... : ... .. . ... ...
ROW 72 : ... .. . ... ... ... : ... .. D ... ... ... : ... .. . ... : ... .. . ... : ... .. . ... ...
ROW 73 : ... .. . ... ... ... : ... .. C ... ... ... : ... .. . ... : ... .. . ... : ... .. . ... ...
ROW 74 : ... .. . ... ... ... : ... .. B ... ... ... : ... .. . ... : ... .. . ... : ... .. . ... ...
ROW 75 : ... .. . ... ... ... : ... .. A ... ... ... : ... .. . ... : ... .. . ... : ... .. . ... ...
ROW 76 : ... .. . ... ... ... : ... .. 9 ... ... ... : ... .. . ... : ... .. . ... : ... .. . ... ...
ROW 77 : ... .. . ... ... ... : ... .. 8 ... ... ... : --- .. . ... : ... .. . ... : ... .. . ... ...
ROW 78 : ... .. . ... ... ... : E-3 00 F P7F ... ... : ... .. . ... : ... .. . ... : ... .. . ... ...
ROW 79 : ... .. . ... ... ... : ... .. E ... ... ... : E-4 00 . ... : ... .. . ... : ... .. . ... ...
ROW 7A : ... .. . ... ... ... : ... .. D ... ... ... : ... .. . ... : ... .. . ... : ... .. . ... ...
ROW 7B : ... .. . ... ... ... : ... .. C ... ... ... : ... .. . ... : ... .. . ... : ... .. . ... ...
ROW 7C : ... .. . ... ... ... : ... .. B ... ... ... : ... .. . ... : ... .. . ... : ... .. . ... ...
ROW 7D : ... .. . ... ... ... : ... .. A ... ... ... : ... .. . ... : ... .. . ... : ... .. . ... ...
ROW 7E : ... .. . ... ... ... : ... .. 9 ... ... ... : ... .. . ... : ... .. . ... : ... .. . ... ...
ROW 7F : ... .. . ... ... ... : ... .. 8 ... ... ... : --- .. . ... : ... .. . ... : ... .. . ... ...
ROW 80 : ... .. . ... ... ... : G#3 00 F P7F ... ... : ... .. . ... : ... .. . ... : ... .. . ... ...
ROW 81 : ... .. . ... ... ... : ... .. E ... ... ... : B-3 00 . P7F : ... .. . ... : ... .. . ... ...
ROW 82 : ... .. . ... ... ... : ... .. D ... ... ... : ... .. . ... : ... .. . ... : ... .. . ... ...
ROW 83 : ... .. . ... ... ... : ... .. C ... ... ... : ... .. . ... : ... .. . ... : ... .. . ... ...
ROW 84 : ... .. . ... ... ... : ... .. B ... ... ... : ... .. . ... : ... .. . ... : ... .. . ... ...
ROW 85 : ... .. . ... ... ... : ... .. A ... ... ... : ... .. . ... : ... .. . ... : ... .. . ... ...
ROW 86 : ... .. . ... ... ... : ... .. 9 ... ... ... : ... .. . ... : ... .. . ... : ... .. . ... ...
ROW 87 : ... .. . ... ... ... : ... .. 8 ... ... ... : --- .. . ... : ... .. . ... : ... .. . ... ...
ROW 88 : ... .. . ... ... ... : F#3 00 F P7F ... ... : ... .. . ... : ... .. . ... : ... .. . ... ...
ROW 89 : ... .. . ... ... ... : ... .. E ... ... ... : B-3 00 . ... : ... .. . ... : ... .. . ... ...
ROW 8A : ... .. . ... ... ... : ... .. D ... ... ... : ... .. . ... : ... .. . ... : ... .. . ... ...
ROW 8B : ... .. . ... ... ... : ... .. C ... ... ... : ... .. . ... : ... .. . ... : ... .. . ... ...
ROW 8C : ... .. . ... ... ... : ... .. B ... ... ... : ... .. . ... : ... .. . ... : ... .. . ... ...
ROW 8D : ... .. . ... ... ... : ... .. A ... ... ... : ... .. . ... : ... .. . ... : ... .. . ... ...
ROW 8E : ... .. . ... ... ... : ... .. 9 ... ... ... : ... .. . ... : ... .. . ... : ... .. . ... ...
ROW 8F : ... .. . ... ... ... : ... .. 8 ... ... ... : --- .. . ... : ... .. . ... : ... .. . ... ...
ROW 90 : ... .. . ... ... ... : G#3 00 F P7F ... ... : ... .. . ... : ... .. . ... : ... .. . ... ...
ROW 91 : ... .. . ... ... ... : ... .. E ... ... ... : E-4 00 . P80 : ... .. . ... : ... .. . ... ...
ROW 92 : ... .. . ... ... ... : ... .. D ... ... ... : ... .. . ... : ... .. . ... : ... .. . ... ...
ROW 93 : ... .. . ... ... ... : ... .. C ... ... ... : ... .. . ... : ... .. . ... : ... .. . ... ...
ROW 94 : ... .. . ... ... ... : ... .. B ... ... ... : ... .. . ... : ... .. . ... : ... .. . ... ...
ROW 95 : ... .. . ... ... ... : ... .. A ... ... ... : ... .. . ... : ... .. . ... : ... .. . ... ...
ROW 96 : ... .. . ... ... ... : ... .. 9 ... ... ... : ... .. . ... : ... .. . ... : ... .. . ... ...
ROW 97 : ... .. . ... ... ... : ... .. 8 ... ... ... : --- .. . ... : ... .. . ... : ... .. . ... ...
ROW 98 : ... .. . ... ... ... : A#3 00 F P7F ... ... : ... .. . ... : ... .. . ... : ... .. . ... ...
ROW 99 : ... .. . ... ... ... : ... .. E ... ... ... : E-4 00 . ... : ... .. . ... : ... .. . ... ...
ROW 9A : ... .. . ... ... ... : ... .. D ... ... ... : ... .. . ... : ... .. . ... : ... .. . ... ...
ROW 9B : ... .. . ... ... ... : ... .. C ... ... ... : ... .. . ... : ... .. . ... : ... .. . ... ...
ROW 9C : ... .. . ... ... ... : ... .. B ... ... ... : ... .. . ... : ... .. . ... : ... .. . ... ...
ROW 9D : ... .. . ... ... ... : ... .. A ... ... ... : ... .. . ... : ... .. . ... : ... .. . ... ...
ROW 9E : ... .. . ... ... ... : ... .. 9 ... ... ... : ... .. . ... : ... .. . ... : ... .. . ... ...
ROW 9F : ... .. . ... ... ... : ... .. 8 ... ... ... : --- .. . ... : ... .. . ... : ... .. . ... ...
ROW A0 : ... .. . ... ... ... : ... .. 7 ... ... ... : ... .. . ... : ... .. . ... : ... .. . ... ...
ROW A1 : ... .. . ... ... ... : ... .. 6 ... ... ... : B-3 00 . P7F : ... .. . ... : ... .. . ... ...
ROW A2 : ... .. . ... ... ... : ... .. 5 ... ... ... : ... .. . ... : ... .. . ... : ... .. . ... ...
ROW A3 : ... .. . ... ... ... : ... .. 4 ... ... ... : ... .. . ... : ... .. . ... : ... .. . ... ...
ROW A4 : ... .. . ... ... ... : ... .. 3 ... ... ... : ... .. . ... : ... .. . ... : ... .. . ... ...
ROW A5 : ... .. . ... ... ... : ... .. 2 ... ... ... : ... .. . ... : ... .. . ... : ... .. . ... ...
ROW A6 : ... .. . ... ... ... : ... .. 1 ... ... ... : ... .. . ... : ... .. . ... : ... .. . ... ...
ROW A7 : ... .. . ... ... ... : ... .. 0 ... ... ... : --- .. . ... : ... .. . ... : ... .. . ... ...
ROW A8 : ... .. . ... ... ... : B-3 00 F P7F ... ... : ... .. . ... : ... .. . ... : ... .. . ... ...
ROW A9 : ... .. . ... ... ... : ... .. E ... ... ... : B-3 00 . ... : ... .. . ... : ... .. . ... ...
ROW AA : ... .. . ... ... ... : ... .. D ... ... ... : ... .. . ... : ... .. . ... : ... .. . ... ...
ROW AB : ... .. . ... ... ... : ... .. C ... ... ... : ... .. . ... : ... .. . ... : ... .. . ... ...
ROW AC : ... .. . ... ... ... : ... .. B ... ... ... : ... .. . ... : ... .. . ... : ... .. . ... ...
ROW AD : ... .. . ... ... ... : ... .. A ... ... ... : ... .. . ... : ... .. . ... : ... .. . ... ...
ROW AE : ... .. . ... ... ... : ... .. 9 ... ... ... : ... .. . ... : ... .. . ... : ... .. . ... ...
ROW AF : ... .. . ... ... ... : ... .. 8 ... ... ... : --- .. . ... : ... .. . ... : ... .. . ... ...
ROW B0 : ... .. . ... ... ... : ... .. 7 ... ... ... : ... .. . ... : ... .. . ... : ... .. . ... ...
ROW B1 : ... .. . ... ... ... : ... .. 6 ... ... ... : E-4 00 . P80 : ... .. . ... : ... .. . ... ...
ROW B2 : ... .. . ... ... ... : ... .. 5 ... ... ... : ... .. . ... : ... .. . ... : ... .. . ... ...
ROW B3 : ... .. . ... ... ... : ... .. 4 ... ... ... : ... .. . ... : ... .. . ... : ... .. . ... ...
ROW B4 : ... .. . ... ... ... : ... .. 3 ... ... ... : ... .. . ... : ... .. . ... : ... .. . ... ...
ROW B5 : ... .. . ... ... ... : ... .. 2 ... ... ... : ... .. . ... : ... .. . ... : ... .. . ... ...
ROW B6 : ... .. . ... ... ... : ... .. 1 ... ... ... : ... .. . ... : ... .. . ... : ... .. . ... ...
ROW B7 : ... .. . ... ... ... : ... .. 0 ... ... ... : --- .. . ... : ... .. . ... : ... .. . ... ...
ROW B8 : ... .. . ... ... ... : A#3 00 F P7F ... ... : ... .. . ... : ... .. . ... : ... .. . ... ...
ROW B9 : ... .. . ... ... ... : ... .. E ... ... ... : E-4 00 . ... : ... .. . ... : ... .. . ... ...
ROW BA : ... .. . ... ... ... : ... .. D ... ... ... : ... .. . ... : ... .. . ... : ... .. . ... ...
ROW BB : ... .. . ... ... ... : ... .. C ... ... ... : ... .. . ... : ... .. . ... : ... .. . ... ...
ROW BC : ... .. . ... ... ... : ... .. B ... ... ... : ... .. . ... : ... .. . ... : ... .. . ... ...
ROW BD : ... .. . ... ... ... : ... .. A ... ... ... : ... .. . ... : ... .. . ... : ... .. . ... ...
ROW BE : ... .. . ... ... ... : ... .. 9 ... ... ... : ... .. . ... : ... .. . ... : ... .. . ... ...
ROW BF : ... .. . ... ... ... : ... .. 8 ... ... ... : --- .. . ... : ... .. . ... : ... .. . ... ...
ROW C0 : ... .. . ... ... ... : ... .. 7 ... ... ... : ... .. . ... : ... .. . ... : ... .. . ... ...
ROW C1 : ... .. . ... ... ... : ... .. 6 ... ... ... : B-3 00 . P7F : ... .. . ... : ... .. . ... ...
ROW C2 : ... .. . ... ... ... : ... .. 5 ... ... ... : ... .. . ... : ... .. . ... : ... .. . ... ...
ROW C3 : ... .. . ... ... ... : ... .. 4 ... ... ... : ... .. . ... : ... .. . ... : ... .. . ... ...
ROW C4 : ... .. . ... ... ... : ... .. 3 ... ... ... : ... .. . ... : ... .. . ... : ... .. . ... ...
ROW C5 : ... .. . ... ... ... : ... .. 2 ... ... ... : ... .. . ... : ... .. . ... : ... .. . ... ...
ROW C6 : ... .. . ... ... ... : ... .. 1 ... ... ... : ... .. . ... : ... .. . ... : ... .. . ... ...
ROW C7 : ... .. . ... ... ... : ... .. 0 ... ... ... : --- .. . ... : ... .. . ... : ... .. . ... ...
ROW C8 : ... .. . ... ... ... : G#3 00 F P7F ... ... : ... .. . ... : ... .. . ... : ... .. . ... ...
ROW C9 : ... .. . ... ... ... : ... .. E ... ... ... : B-3 00 . ... : ... .. . ... : ... .. . ... ...
ROW CA : ... .. . ... ... ... : ... .. D ... ... ... : ... .. . ... : ... .. . ... : ... .. . ... ...
ROW CB : ... .. . ... ... ... : ... .. C ... ... ... : ... .. . ... : ... .. . ... : ... .. . ... ...
ROW CC : ... .. . ... ... ... : ... .. B ... ... ... : ... .. . ... : ... .. . ... : ... .. . ... ...
ROW CD : ... .. . ... ... ... : ... .. A ... ... ... : ... .. . ... : ... .. . ... : ... .. . ... ...
ROW CE : ... .. . ... ... ... : ... .. 9 ... ... ... : ... .. . ... : ... .. . ... : ... .. . ... ...
ROW CF : ... .. . ... ... ... : ... .. 8 ... ... ... : --- .. . ... : ... .. . ... : ... .. . ... ...
ROW D0 : ... .. . ... ... ... : ... .. 7 ... ... ... : ... .. . ... : ... .. . ... : ... .. . ... ...
ROW D1 : ... .. . ... ... ... : ... .. 6 ... ... ... : E-4 00 . P80 : ... .. . ... : ... .. . ... ...
ROW D2 : ... .. . ... ... ... : ... .. 5 ... ... ... : ... .. . ... : ... .. . ... : ... .. . ... ...
ROW D3 : ... .. . ... ... ... : ... .. 4 ... ... ... : ... .. . ... : ... .. . ... : ... .. . ... ...
ROW D4 : ... .. . ... ... ... : ... .. 3 ... ... ... : ... .. . ... : ... .. . ... : ... .. . ... ...
ROW D5 : ... .. . ... ... ... : ... .. 2 ... ... ... : ... .. . ... : ... .. . ... : ... .. . ... ...
ROW D6 : ... .. . ... ... ... : ... .. 1 ... ... ... : ... .. . ... : ... .. . ... : ... .. . ... ...
ROW D7 : ... .. . ... ... ... : ... .. 0 ... ... ... : --- .. . ... : ... .. . ... : ... .. . ... ...
ROW D8 : ... .. . ... ... ... : F#3 00 F P7F ... ... : ... .. . ... : ... .. . ... : ... .. . ... ...
ROW D9 : ... .. . ... ... ... : ... .. E ... ... ... : E-4 00 . ... : ... .. . ... : ... .. . ... ...
ROW DA : ... .. . ... ... ... : ... .. D ... ... ... : ... .. . ... : ... .. . ... : ... .. . ... ...
ROW DB : ... .. . ... ... ... : ... .. C ... ... ... : ... .. . ... : ... .. . ... : ... .. . ... ...
ROW DC : ... .. . ... ... ... : ... .. B ... ... ... : ... .. . ... : ... .. . ... : ... .. . ... ...
ROW DD : ... .. . ... ... ... : ... .. A ... ... ... : ... .. . ... : ... .. . ... : ... .. . ... ...
ROW DE : ... .. . ... ... ... : ... .. 9 ... ... ... : ... .. . ... : ... .. . ... : ... .. . ... ...
ROW DF : ... .. . ... ... ... : ... .. 8 ... ... ... : --- .. . ... : ... .. . ... : ... .. . ... ...
ROW E0 : ... .. . ... ... ... : G#3 00 F P7F ... ... : ... .. . ... : ... .. . ... : ... .. . ... ...
ROW E1 : ... .. . ... ... ... : ... .. E ... ... ... : B-3 00 . P7F : ... .. . ... : ... .. . ... ...
ROW E2 : ... .. . ... ... ... : ... .. D ... ... ... : ... .. . ... : ... .. . ... : ... .. . ... ...
ROW E3 : ... .. . ... ... ... : ... .. C ... ... ... : ... .. . ... : ... .. . ... : ... .. . ... ...
ROW E4 : ... .. . ... ... ... : ... .. B ... ... ... : ... .. . ... : ... .. . ... : ... .. . ... ...
ROW E5 : ... .. . ... ... ... : ... .. A ... ... ... : ... .. . ... : ... .. . ... : ... .. . ... ...
ROW E6 : ... .. . ... ... ... : ... .. 9 ... ... ... : ... .. . ... : ... .. . ... : ... .. . ... ...
ROW E7 : ... .. . ... ... ... : ... .. 8 ... ... ... : --- .. . ... : ... .. . ... : ... .. . ... ...
ROW E8 : ... .. . ... ... ... : F#3 00 F P7F ... ... : ... .. . ... : ... .. . ... : ... .. . ... ...
ROW E9 : ... .. . ... ... ... : ... .. E ... ... ... : B-3 00 . ... : ... .. . ... : ... .. . ... ...
ROW EA : ... .. . ... ... ... : ... .. D ... ... ... : ... .. . ... : ... .. . ... : ... .. . ... ...
ROW EB : ... .. . ... ... ... : ... .. C ... ... ... : ... .. . ... : ... .. . ... : ... .. . ... ...
ROW EC : ... .. . ... ... ... : ... .. B ... ... ... : ... .. . ... : ... .. . ... : ... .. . ... ...
ROW ED : ... .. . ... ... ... : ... .. A ... ... ... : ... .. . ... : ... .. . ... : ... .. . ... ...
ROW EE : ... .. . ... ... ... : ... .. 9 ... ... ... : ... .. . ... : ... .. . ... : ... .. . ... ...
ROW EF : ... .. . ... ... ... : ... .. 8 ... ... ... : --- .. . ... : ... .. . ... : ... .. . ... ...
ROW F0 : ... .. . ... ... ... : G#3 00 F P7F ... ... : ... .. . ... : ... .. . ... : ... .. . ... ...
ROW F1 : ... .. . ... ... ... : ... .. E ... ... ... : E-4 00 . P80 : ... .. . ... : ... .. . ... ...
ROW F2 : ... .. . ... ... ... : ... .. D ... ... ... : ... .. . ... : ... .. . ... : ... .. . ... ...
ROW F3 : ... .. . ... ... ... : ... .. C ... ... ... : ... .. . ... : ... .. . ... : ... .. . ... ...
ROW F4 : ... .. . ... ... ... : ... .. B ... ... ... : ... .. . ... : ... .. . ... : ... .. . ... ...
ROW F5 : ... .. . ... ... ... : ... .. A ... ... ... : ... .. . ... : ... .. . ... : ... .. . ... ...
ROW F6 : ... .. . ... ... ... : ... .. 9 ... ... ... : ... .. . ... : ... .. . ... : ... .. . ... ...
ROW F7 : ... .. . ... ... ... : ... .. 8 ... ... ... : --- .. . ... : ... .. . ... : ... .. . ... ...
ROW F8 : ... .. . ... ... ... : E-3 00 F P7F ... ... : ... .. . ... : ... .. . ... : ... .. . ... ...
ROW F9 : ... .. . ... ... ... : ... .. E ... ... ... : E-4 00 . ... : ... .. . ... : ... .. . ... ...
ROW FA : ... .. . ... ... ... : ... .. D ... ... ... : ... .. . ... : ... .. . ... : ... .. . ... ...
ROW FB : ... .. . ... ... ... : ... .. C ... ... ... : ... .. . ... : ... .. . ... : ... .. . ... ...
ROW FC : ... .. . ... ... ... : ... .. B ... ... ... : ... .. . ... : ... .. . ... : ... .. . ... ...
ROW FD : ... .. . ... ... ... : ... .. A ... ... ... : ... .. . ... : ... .. . ... : ... .. . ... ...
ROW FE : ... .. . ... ... ... : ... .. 9 ... ... ... : ... .. . ... : ... .. . ... : ... .. . ... ...
ROW FF : ... .. . ... ... ... : ... .. 8 ... ... ... : --- .. . ... : ... .. . ... : ... .. . ... ...

PATTERN 05
ROW 00 : ... .. . ... ... ... : F#3 00 F P7F ... ... : ... .. . ... : ... .. . ... : ... .. . ... ...
ROW 01 : ... .. . ... ... ... : ... .. E ... ... ... : A-3 00 . P7F : ... .. . ... : ... .. . ... ...
ROW 02 : ... .. . ... ... ... : ... .. D ... ... ... : ... .. . ... : ... .. . ... : ... .. . ... ...
ROW 03 : ... .. . ... ... ... : ... .. C ... ... ... : ... .. . ... : ... .. . ... : ... .. . ... ...
ROW 04 : ... .. . ... ... ... : ... .. B ... ... ... : ... .. . ... : ... .. . ... : ... .. . ... ...
ROW 05 : ... .. . ... ... ... : ... .. A ... ... ... : ... .. . ... : ... .. . ... : ... .. . ... ...
ROW 06 : ... .. . ... ... ... : ... .. 9 ... ... ... : ... .. . ... : ... .. . ... : ... .. . ... ...
ROW 07 : ... .. . ... ... ... : ... .. 8 ... ... ... : --- .. . ... : ... .. . ... : ... .. . ... ...
ROW 08 : ... .. . ... ... ... : E-3 00 F P7F ... ... : ... .. . ... : ... .. . ... : ... .. . ... ...
ROW 09 : ... .. . ... ... ... : ... .. E ... ... ... : A-3 00 . ... : ... .. . ... : ... .. . ... ...
ROW 0A : ... .. . ... ... ... : ... .. D ... ... ... : ... .. . ... : ... .. . ... : ... .. . ... ...
ROW 0B : ... .. . ... ... ... : ... .. C ... ... ... : ... .. . ... : ... .. . ... : ... .. . ... ...
ROW 0C : ... .. . ... ... ... : ... .. B ... ... ... : ... .. . ... : ... .. . ... : ... .. . ... ...
ROW 0D : ... .. . ... ... ... : ... .. A ... ... ... : ... .. . ... : ... .. . ... : ... .. . ... ...
ROW 0E : ... .. . ... ... ... : ... .. 9 ... ... ... : ... .. . ... : ... .. . ... : ... .. . ... ...
ROW 0F : ... .. . ... ... ... : ... .. 8 ... ... ... : --- .. . ... : ... .. . ... : ... .. . ... ...
ROW 10 : ... .. . ... ... ... : F#3 00 F P7F ... ... : ... .. . ... : ... .. . ... : ... .. . ... ...
ROW 11 : ... .. . ... ... ... : ... .. E ... ... ... : D-4 00 . ... : ... .. . ... : ... .. . ... ...
ROW 12 : ... .. . ... ... ... : ... .. D ... ... ... : ... .. . ... : ... .. . ... : ... .. . ... ...
ROW 13 : ... .. . ... ... ... : ... .. C ... ... ... : ... .. . ... : ... .. . ... : ... .. . ... ...
ROW 14 : ... .. . ... ... ... : ... .. B ... ... ... : ... .. . ... : ... .. . ... : ... .. . ... ...
ROW 15 : ... .. . ... ... ... : ... .. A ... ... ... : ... .. . ... : ... .. . ... : ... .. . ... ...
ROW 16 : ... .. . ... ... ... : ... .. 9 ... ... ... : ... .. . ... : ... .. . ... : ... .. . ... ...
ROW 17 : ... .. . ... ... ... : ... .. 8 ... ... ... : --- .. . ... : ... .. . ... : ... .. . ... ...
ROW 18 : ... .. . ... ... ... : G#3 00 F P7F ... ... : ... .. . ... : ... .. . ... : ... .. . ... ...
ROW 19 : ... .. . ... ... ... : ... .. E ... ... ... : D-4 00 . ... : ... .. . ... : ... .. . ... ...
ROW 1A : ... .. . ... ... ... : ... .. D ... ... ... : ... .. . ... : ... .. . ... : ... .. . ... ...
ROW 1B : ... .. . ... ... ... : ... .. C ... ... ... : ... .. . ... : ... .. . ... : ... .. . ... ...
ROW 1C : ... .. . ... ... ... : ... .. B ... ... ... : ... .. . ... : ... .. . ... : ... .. . ... ...
ROW 1D : ... .. . ... ... ... : ... .. A ... ... ... : ... .. . ... : ... .. . ... : ... .. . ... ...
ROW 1E : ... .. . ... ... ... : ... .. 9 ... ... ... : ... .. . ... : ... .. . ... : ... .. . ... ...
ROW 1F : ... .. . ... ... ... : ... .. 8 ... ... ... : --- .. . ... : ... .. . ... : ... .. . ... ...
ROW 20 : ... .. . ... ... ... : ... .. 7 ... ... ... : ... .. . ... : ... .. . ... : ... .. . ... ...
ROW 21 : ... .. . ... ... ... : ... .. 6 ... ... ... : A-3 00 . ... : ... .. . ... : ... .. . ... ...
ROW 22 : ... .. . ... ... ... : ... .. 5 ... ... ... : ... .. . ... : ... .. . ... : ... .. . ... ...
ROW 23 : ... .. . ... ... ... : ... .. 4 ... ... ... : ... .. . ... : ... .. . ... : ... .. . ... ...
ROW 24 : ... .. . ... ... ... : ... .. 3 ... ... ... : ... .. . ... : ... .. . ... : ... .. . ... ...
ROW 25 : ... .. . ... ... ... : ... .. 2 ... ... ... : ... .. . ... : ... .. . ... : ... .. . ... ...
ROW 26 : ... .. . ... ... ... : ... .. 1 ... ... ... : ... .. . ... : ... .. . ... : ... .. . ... ...
ROW 27 : ... .. . ... ... ... : ... .. 0 ... ... ... : --- .. . ... : ... .. . ... : ... .. . ... ...
ROW 28 : ... .. . ... ... ... : A-3 00 F P7F ... ... : ... .. . ... : ... .. . ... : ... .. . ... ...
ROW 29 : ... .. . ... ... ... : ... .. E ... ... ... : A-3 00 . ... : ... .. . ... : ... .. . ... ...
ROW 2A : ... .. . ... ... ... : ... .. D ... ... ... : ... .. . ... : ... .. . ... : ... .. . ... ...
ROW 2B : ... .. . ... ... ... : ... .. C ... ... ... : ... .. . ... : ... .. . ... : ... .. . ... ...
ROW 2C : ... .. . ... ... ... : ... .. B ... ... ... : ... .. . ... : ... .. . ... : ... .. . ... ...
ROW 2D : ... .. . ... ... ... : ... .. A ... ... ... : ... .. . ... : ... .. . ... : ... .. . ... ...
ROW 2E : ... .. . ... ... ... : ... .. 9 ... ... ... : ... .. . ... : ... .. . ... : ... .. . ... ...
ROW 2F : ... .. . ... ... ... : ... .. 8 ... ... ... : --- .. . ... : ... .. . ... : ... .. . ... ...
ROW 30 : ... .. . ... ... ... : ... .. 7 ... ... ... : ... .. . ... : ... .. . ... : ... .. . ... ...
ROW 31 : ... .. . ... ... ... : ... .. 6 ... ... ... : D-4 00 . ... : ... .. . ... : ... .. . ... ...
ROW 32 : ... .. . ... ... ... : ... .. 5 ... ... ... : ... .. . ... : ... .. . ... : ... .. . ... ...
ROW 33 : ... .. . ... ... ... : ... .. 4 ... ... ... : ... .. . ... : ... .. . ... : ... .. . ... ...
ROW 34 : ... .. . ... ... ... : ... .. 3 ... ... ... : ... .. . ... : ... .. . ... : ... .. . ... ...
ROW 35 : ... .. . ... ... ... : ... .. 2 ... ... ... : ... .. . ... : ... .. . ... : ... .. . ... ...
ROW 36 : ... .. . ... ... ... : ... .. 1 ... ... ... : ... .. . ... : ... .. . ... : ... .. . ... ...
ROW 37 : ... .. . ... ... ... : ... .. 0 ... ... ... : --- .. . ... : ... .. . ... : ... .. . ... ...
ROW 38 : ... .. . ... ... ... : G#3 00 F P7F ... ... : ... .. . ... : ... .. . ... : ... .. . ... ...
ROW 39 : ... .. . ... ... ... : ... .. E ... ... ... : D-4 00 . ... : ... .. . ... : ... .. . ... ...
ROW 3A : ... .. . ... ... ... : ... .. D ... ... ... : ... .. . ... : ... .. . ... : ... .. . ... ...
ROW 3B : ... .. . ... ... ... : ... .. . ... ... ... : ... .. . ... : ... .. . ... : ... .. . ... ...
ROW 3C : ... .. . ... ... ... : ... .. . ... ... ... : ... .. . ... : ... .. . ... : ... .. . ... ...
ROW 3D : ... .. . ... ... ... : ... .. . ... ... ... : ... .. . ... : ... .. . ... : ... .. . ... ...
ROW 3E : ... .. . ... ... ... : ... .. . ... ... ... : ... .. . ... : ... .. . ... : ... .. . ... ...
ROW 3F : ... .. . ... ... ... : ... .. . ... ... ... : --- .. . ... : ... .. . ... : ... .. . ... ...
ROW 40 : ... .. . ... ... ... : ... .. . ... ... ... : ... .. . ... : ... .. . ... : ... .. . ... ...
ROW 41 : ... .. . ... ... ... : ... .. C ... ... ... : A-3 00 . ... : ... .. . ... : ... .. . ... ...
ROW 42 : ... .. . ... ... ... : ... .. B ... ... ... : ... .. . ... : ... .. . ... : ... .. . ... ...
ROW 43 : ... .. . ... ... ... : ... .. A ... ... ... : ... .. . ... : ... .. . ... : ... .. . ... ...
ROW 44 : ... .. . ... ... ... : ... .. 9 ... ... ... : ... .. . ... : ... .. . ... : ... .. . ... ...
ROW 45 : ... .. . ... ... ... : ... .. 8 ... ... ... : ... .. . ... : ... .. . ... : ... .. . ... ...
ROW 46 : ... .. . ... ... ... : ... .. 7 ... ... ... : ... .. . ... : ... .. . ... : ... .. . ... ...
ROW 47 : ... .. . ... ... ... : ... .. 6 ... ... ... : --- .. . ... : ... .. . ... : ... .. . ... ...
ROW 48 : ... .. . ... ... ... : ... .. 5 ... ... ... : ... .. . ... : ... .. . ... : ... .. . ... ...
ROW 49 : ... .. . ... ... ... : ... .. 4 ... ... ... : A-3 00 . ... : ... .. . ... : ... .. . ... ...
ROW 4A : ... .. . ... ... ... : ... .. 3 ... ... ... : ... .. . ... : ... .. . ... : ... .. . ... ...
ROW 4B : ... .. . ... ... ... : ... .. 2 ... ... ... : ... .. . ... : ... .. . ... : ... .. . ... ...
ROW 4C : ... .. . ... ... ... : ... .. 1 ... ... ... : ... .. . ... : ... .. . ... : ... .. . ... ...
ROW 4D : ... .. . ... ... ... : ... .. 0 ... ... ... : ... .. . ... : ... .. . ... : ... .. . ... ...
ROW 4E : ... .. . ... ... ... : ... .. . ... ... ... : ... .. . ... : ... .. . ... : ... .. . ... ...
ROW 4F : ... .. . ... ... ... : ... .. . ... ... ... : --- .. . ... : ... .. . ... : ... .. . ... ...
ROW 50 : ... .. . ... ... ... : F#3 00 F P7F ... ... : ... .. . ... : ... .. . ... : ... .. . ... ...
ROW 51 : ... .. . ... ... ... : ... .. E ... ... ... : D-4 00 . ... : ... .. . ... : ... .. . ... ...
ROW 52 : ... .. . ... ... ... : ... .. D ... ... ... : ... .. . ... : ... .. . ... : ... .. . ... ...
ROW 53 : ... .. . ... ... ... : ... .. C ... ... ... : ... .. . ... : ... .. . ... : ... .. . ... ...
ROW 54 : ... .. . ... ... ... : ... .. B ... ... ... : ... .. . ... : ... .. . ... : ... .. . ... ...
ROW 55 : ... .. . ... ... ... : ... .. A ... ... ... : ... .. . ... : ... .. . ... : ... .. . ... ...
ROW 56 : ... .. . ... ... ... : ... .. 9 ... ... ... : ... .. . ... : ... .. . ... : ... .. . ... ...
ROW 57 : ... .. . ... ... ... : ... .. 8 ... ... ... : --- .. . ... : ... .. . ... : ... .. . ... ...
ROW 58 : ... .. . ... ... ... : ... .. 7 ... ... ... : ... .. . ... : ... .. . ... : ... .. . ... ...
ROW 59 : ... .. . ... ... ... : ... .. 6 ... ... ... : D-4 00 . ... : ... .. . ... : ... .. . ... ...
ROW 5A : ... .. . ... ... ... : ... .. 5 ... ... ... : ... .. . ... : ... .. . ... : ... .. . ... ...
ROW 5B : ... .. . ... ... ... : ... .. 4 ... ... ... : ... .. . ... : ... .. . ... : ... .. . ... ...
ROW 5C : ... .. . ... ... ... : ... .. 3 ... ... ... : ... .. . ... : ... .. . ... : ... .. . ... ...
ROW 5D : ... .. . ... ... ... : ... .. 2 ... ... ... : ... .. . ... : ... .. . ... : ... .. . ... ...
ROW 5E : ... .. . ... ... ... : ... .. 1 ... ... ... : ... .. . ... : ... .. . ... : ... .. . ... ...
ROW 5F : ... .. . ... ... ... : ... .. 0 ... ... ... : --- .. . ... : ... .. . ... : ... .. . ... ...
ROW 60 : ... .. . ... ... ... : G#3 00 F P7F ... ... : ... .. . ... : ... .. . ... : ... .. . ... ...
ROW 61 : ... .. . ... ... ... : ... .. E ... ... ... : G-3 00 . ... : ... .. . ... : ... .. . ... ...
ROW 62 : ... .. . ... ... ... : ... .. D ... ... ... : ... .. . ... : ... .. . ... : ... .. . ... ...
ROW 63 : ... .. . ... ... ... : ... .. C ... ... ... : ... .. . ... : ... .. . ... : ... .. . ... ...
ROW 64 : ... .. . ... ... ... : ... .. B ... ... ... : ... .. . ... : ... .. . ... : ... .. . ... ...
ROW 65 : ... .. . ... ... ... : ... .. A ... ... ... : ... .. . ... : ... .. . ... : ... .. . ... ...
ROW 66 : ... .. . ... ... ... : ... .. 9 ... ... ... : ... .. . ... : ... .. . ... : ... .. . ... ...
ROW 67 : ... .. . ... ... ... : ... .. 8 ... ... ... : --- .. . ... : ... .. . ... : ... .. . ... ...
ROW 68 : ... .. . ... ... ... : E-3 00 F P7F ... ... : ... .. . ... : ... .. . ... : ... .. . ... ...
ROW 69 : ... .. . ... ... ... : ... .. E ... ... ... : G-3 00 . ... : ... .. . ... : ... .. . ... ...
ROW 6A : ... .. . ... ... ... : ... .. D ... ... ... : ... .. . ... : ... .. . ... : ... .. . ... ...
ROW 6B : ... .. . ... ... ... : ... .. . ... ... ... : ... .. . ... : ... .. . ... : ... .. . ... ...
ROW 6C : ... .. . ... ... ... : ... .. . ... ... ... : ... .. . ... : ... .. . ... : ... .. . ... ...
ROW 6D : ... .. . ... ... ... : ... .. . ... ... ... : ... .. . ... : ... .. . ... : ... .. . ... ...
ROW 6E : ... .. . ... ... ... : ... .. . ... ... ... : ... .. . ... : ... .. . ... : ... .. . ... ...
ROW 6F : ... .. . ... ... ... : ... .. . ... ... ... : --- .. . ... : ... .. . ... : ... .. . ... ...
ROW 70 : ... .. . ... ... ... : ... .. . ... ... ... : ... .. . ... : ... .. . ... : ... .. . ... ...
ROW 71 : ... .. . ... ... ... : ... .. . ... ... ... : C-4 00 . P80 : ... .. . ... : ... .. . ... ...
ROW 72 : ... .. . ... ... ... : ... .. . ... ... ... : ... .. . ... : ... .. . ... : ... .. . ... ...
ROW 73 : ... .. . ... ... ... : ... .. . ... ... ... : ... .. . ... : ... .. . ... : ... .. . ... ...
ROW 74 : ... .. . ... ... ... : ... .. . ... ... ... : ... .. . ... : ... .. . ... : ... .. . ... ...
ROW 75 : ... .. . ... ... ... : ... .. . ... ... ... : ... .. . ... : ... .. . ... : ... .. . ... ...
ROW 76 : ... .. . ... ... ... : ... .. . ... ... ... : ... .. . ... : ... .. . ... : ... .. . ... ...
ROW 77 : ... .. . ... ... ... : ... .. . ... ... ... : --- .. . ... : ... .. . ... : ... .. . ... ...
ROW 78 : ... .. . ... ... ... : ... .. . ... ... ... : ... .. . ... : ... .. . ... : ... .. . ... ...
ROW 79 : ... .. . ... ... ... : ... .. . ... ... ... : C-4 00 . ... : ... .. . ... : ... .. . ... ...
ROW 7A : ... .. . ... ... ... : ... .. . ... ... ... : ... .. . ... : ... .. . ... : ... .. . ... ...
ROW 7B : ... .. . ... ... ... : ... .. . ... ... ... : ... .. . ... : ... .. . ... : ... .. . ... ...
ROW 7C : ... .. . ... ... ... : ... .. . ... ... ... : ... .. . ... : ... .. . ... : ... .. . ... ...
ROW 7D : ... .. . ... ... ... : ... .. . ... ... ... : ... .. . ... : ... .. . ... : ... .. . ... ...
ROW 7E : ... .. . ... ... ... : ... .. . ... ... ... : ... .. . ... : ... .. . ... : ... .. . ... ...
ROW 7F : ... .. . ... ... ... : ... .. . ... ... ... : --- .. . ... : ... .. . ... : ... .. . ... ...
ROW 80 : ... .. . ... ... ... : ... .. . ... ... ... : ... .. . ... : ... .. . ... : ... .. . ... ...
ROW 81 : ... .. . ... ... ... : ... .. C ... ... ... : G-3 00 . P7F : ... .. . ... : ... .. . ... ...
ROW 82 : ... .. . ... ... ... : ... .. B ... ... ... : ... .. . ... : ... .. . ... : ... .. . ... ...
ROW 83 : ... .. . ... ... ... : ... .. A ... ... ... : ... .. . ... : ... .. . ... : ... .. . ... ...
ROW 84 : ... .. . ... ... ... : ... .. 9 ... ... ... : ... .. . ... : ... .. . ... : ... .. . ... ...
ROW 85 : ... .. . ... ... ... : ... .. 8 ... ... ... : ... .. . ... : ... .. . ... : ... .. . ... ...
ROW 86 : ... .. . ... ... ... : ... .. 7 ... ... ... : ... .. . ... : ... .. . ... : ... .. . ... ...
ROW 87 : ... .. . ... ... ... : ... .. 6 ... ... ... : --- .. . ... : ... .. . ... : ... .. . ... ...
ROW 88 : ... .. . ... ... ... : ... .. 5 ... ... ... : ... .. . ... : ... .. . ... : ... .. . ... ...
ROW 89 : ... .. . ... ... ... : ... .. 4 ... ... ... : G-3 00 . ... : ... .. . ... : ... .. . ... ...
ROW 8A : ... .. . ... ... ... : ... .. 3 ... ... ... : ... .. . ... : ... .. . ... : ... .. . ... ...
ROW 8B : ... .. . ... ... ... : ... .. 2 ... ... ... : ... .. . ... : ... .. . ... : ... .. . ... ...
ROW 8C : ... .. . ... ... ... : ... .. 1 ... ... ... : ... .. . ... : ... .. . ... : ... .. . ... ...
ROW 8D : ... .. . ... ... ... : ... .. 0 ... ... ... : ... .. . ... : ... .. . ... : ... .. . ... ...
ROW 8E : ... .. . ... ... ... : ... .. . ... ... ... : ... .. . ... : ... .. . ... : ... .. . ... ...
ROW 8F : ... .. . ... ... ... : ... .. . ... ... ... : --- .. . ... : ... .. . ... : ... .. . ... ...
ROW 90 : ... .. . ... ... ... : F#3 00 F P7F ... ... : ... .. . ... : ... .. . ... : ... .. . ... ...
ROW 91 : ... .. . ... ... ... : ... .. E ... ... ... : C-4 00 . P80 : ... .. . ... : ... .. . ... ...
ROW 92 : ... .. . ... ... ... : ... .. D ... ... ... : ... .. . ... : ... .. . ... : ... .. . ... ...
ROW 93 : ... .. . ... ... ... : ... .. C ... ... ... : ... .. . ... : ... .. . ... : ... .. . ... ...
ROW 94 : ... .. . ... ... ... : ... .. B ... ... ... : ... .. . ... : ... .. . ... : ... .. . ... ...
ROW 95 : ... .. . ... ... ... : ... .. A ... ... ... : ... .. . ... : ... .. . ... : ... .. . ... ...
ROW 96 : ... .. . ... ... ... : ... .. 9 ... ... ... : ... .. . ... : ... .. . ... : ... .. . ... ...
ROW 97 : ... .. . ... ... ... : ... .. 8 ... ... ... : --- .. . ... : ... .. . ... : ... .. . ... ...
ROW 98 : ... .. . ... ... ... : E-3 00 F P7F ... ... : ... .. . ... : ... .. . ... : ... .. . ... ...
ROW 99 : ... .. . ... ... ... : ... .. E ... ... ... : C-4 00 . ... : ... .. . ... : ... .. . ... ...
ROW 9A : ... .. . ... ... ... : ... .. D ... ... ... : ... .. . ... : ... .. . ... : ... .. . ... ...
ROW 9B : ... .. . ... ... ... : ... .. C ... ... ... : ... .. . ... : ... .. . ... : ... .. . ... ...
ROW 9C : ... .. . ... ... ... : ... .. B ... ... ... : ... .. . ... : ... .. . ... : ... .. . ... ...
ROW 9D : ... .. . ... ... ... : ... .. A ... ... ... : ... .. . ... : ... .. . ... : ... .. . ... ...
ROW 9E : ... .. . ... ... ... : ... .. 9 ... ... ... : ... .. . ... : ... .. . ... : ... .. . ... ...
ROW 9F : ... .. . ... ... ... : ... .. 8 ... ... ... : --- .. . ... : ... .. . ... : ... .. . ... ...
ROW A0 : ... .. . ... ... ... : D-3 00 F P7F ... ... : ... .. . ... : ... .. . ... : ... .. . ... ...
ROW A1 : ... .. . ... ... ... : ... .. E ... ... ... : F-3 00 . P7F : ... .. . ... : ... .. . ... ...
ROW A2 : ... .. . ... ... ... : ... .. D ... ... ... : ... .. . ... : ... .. . ... : ... .. . ... ...
ROW A3 : ... .. . ... ... ... : ... .. . ... ... ... : ... .. . ... : ... .. . ... : ... .. . ... ...
ROW A4 : ... .. . ... ... ... : ... .. . ... ... ... : ... .. . ... : ... .. . ... : ... .. . ... ...
ROW A5 : ... .. . ... ... ... : ... .. . ... ... ... : ... .. . ... : ... .. . ... : ... .. . ... ...
ROW A6 : ... .. . ... ... ... : ... .. . ... ... ... : ... .. . ... : ... .. . ... : ... .. . ... ...
ROW A7 : ... .. . ... ... ... : ... .. . ... ... ... : --- .. . ... : ... .. . ... : ... .. . ... ...
ROW A8 : ... .. . ... ... ... : ... .. . ... ... ... : ... .. . ... : ... .. . ... : ... .. . ... ...
ROW A9 : ... .. . ... ... ... : ... .. . ... ... ... : F-3 00 . ... : ... .. . ... : ... .. . ... ...
ROW AA : ... .. . ... ... ... : ... .. . ... ... ... : ... .. . ... : ... .. . ... : ... .. . ... ...
ROW AB : ... .. . ... ... ... : ... .. . ... ... ... : ... .. . ... : ... .. . ... : ... .. . ... ...
ROW AC : ... .. . ... ... ... : ... .. . ... ... ... : ... .. . ... : ... .. . ... : ... .. . ... ...
ROW AD : ... .. . ... ... ... : ... .. . ... ... ... : ... .. . ... : ... .. . ... : ... .. . ... ...
ROW AE : ... .. . ... ... ... : ... .. . ... ... ... : ... .. . ... : ... .. . ... : ... .. . ... ...
ROW AF : ... .. . ... ... ... : ... .. . ... ... ... : --- .. . ... : ... .. . ... : ... .. . ... ...
ROW B0 : ... .. . ... ... ... : ... .. . ... ... ... : ... .. . ... : ... .. . ... : ... .. . ... ...
ROW B1 : ... .. . ... ... ... : ... .. . ... ... ... : A#3 00 . ... : ... .. . ... : ... .. . ... ...
ROW B2 : ... .. . ... ... ... : ... .. . ... ... ... : ... .. . ... : ... .. . ... : ... .. . ... ...
ROW B3 : ... .. . ... ... ... : ... .. . ... ... ... : ... .. . ... : ... .. . ... : ... .. . ... ...
ROW B4 : ... .. . ... ... ... : ... .. . ... ... ... : ... .. . ... : ... .. . ... : ... .. . ... ...
ROW B5 : ... .. . ... ... ... : ... .. . ... ... ... : ... .. . ... : ... .. . ... : ... .. . ... ...
ROW B6 : ... .. . ... ... ... : ... .. . ... ... ... : ... .. . ... : ... .. . ... : ... .. . ... ...
ROW B7 : ... .. . ... ... ... : ... .. . ... ... ... : --- .. . ... : ... .. . ... : ... .. . ... ...
ROW B8 : ... .. . ... ... ... : ... .. . ... ... ... : ... .. . ... : ... .. . ... : ... .. . ... ...
ROW B9 : ... .. . ... ... ... : ... .. C ... ... ... : A#3 00 . ... : ... .. . ... : ... .. . ... ...
ROW BA : ... .. . ... ... ... : ... .. B ... ... ... : ... .. . ... : ... .. . ... : ... .. . ... ...
ROW BB : ... .. . ... ... ... : ... .. A ... ... ... : ... .. . ... : ... .. . ... : ... .. . ... ...
ROW BC : ... .. . ... ... ... : ... .. 9 ... ... ... : ... .. . ... : ... .. . ... : ... .. . ... ...
ROW BD : ... .. . ... ... ... : ... .. 8 ... ... ... : ... .. . ... : ... .. . ... : ... .. . ... ...
ROW BE : ... .. . ... ... ... : ... .. 7 ... ... ... : ... .. . ... : ... .. . ... : ... .. . ... ...
ROW BF : ... .. . ... ... ... : ... .. 6 ... ... ... : --- .. . ... : ... .. . ... : ... .. . ... ...
ROW C0 : ... .. . ... ... ... : ... .. 5 ... ... ... : ... .. . ... : ... .. . ... : ... .. . ... ...
ROW C1 : ... .. . ... ... ... : ... .. 4 ... ... ... : F-3 00 . ... : ... .. . ... : ... .. . ... ...
ROW C2 : ... .. . ... ... ... : ... .. 3 ... ... ... : ... .. . ... : ... .. . ... : ... .. . ... ...
ROW C3 : ... .. . ... ... ... : ... .. 2 ... ... ... : ... .. . ... : ... .. . ... : ... .. . ... ...
ROW C4 : ... .. . ... ... ... : ... .. 1 ... ... ... : ... .. . ... : ... .. . ... : ... .. . ... ...
ROW C5 : ... .. . ... ... ... : ... .. 0 ... ... ... : ... .. . ... : ... .. . ... : ... .. . ... ...
ROW C6 : ... .. . ... ... ... : ... .. . ... ... ... : ... .. . ... : ... .. . ... : ... .. . ... ...
ROW C7 : ... .. . ... ... ... : ... .. . ... ... ... : --- .. . ... : ... .. . ... : ... .. . ... ...
ROW C8 : ... .. . ... ... ... : E-3 00 F P7F ... ... : ... .. . ... : ... .. . ... : ... .. . ... ...
ROW C9 : ... .. . ... ... ... : ... .. E ... ... ... : F-3 00 . ... : ... .. . ... : ... .. . ... ...
ROW CA : ... .. . ... ... ... : ... .. D ... ... ... : ... .. . ... : ... .. . ... : ... .. . ... ...
ROW CB : ... .. . ... ... ... : ... .. C ... ... ... : ... .. . ... : ... .. . ... : ... .. . ... ...
ROW CC : ... .. . ... ... ... : ... .. B ... ... ... : ... .. . ... : ... .. . ... : ... .. . ... ...
ROW CD : ... .. . ... ... ... : ... .. A ... ... ... : ... .. . ... : ... .. . ... : ... .. . ... ...
ROW CE : ... .. . ... ... ... : ... .. 9 ... ... ... : ... .. . ... : ... .. . ... : ... .. . ... ...
ROW CF : ... .. . ... ... ... : ... .. 8 ... ... ... : --- .. . ... : ... .. . ... : ... .. . ... ...
ROW D0 : ... .. . ... ... ... : D-3 00 F P7F ... ... : ... .. . ... : ... .. . ... : ... .. . ... ...
ROW D1 : ... .. . ... ... ... : ... .. E ... ... ... : A#3 00 . ... : ... .. . ... : ... .. . ... ...
ROW D2 : ... .. . ... ... ... : ... .. D ... ... ... : ... .. . ... : ... .. . ... : ... .. . ... ...
ROW D3 : ... .. . ... ... ... : ... .. C ... ... ... : ... .. . ... : ... .. . ... : ... .. . ... ...
ROW D4 : ... .. . ... ... ... : ... .. B ... ... ... : ... .. . ... : ... .. . ... : ... .. . ... ...
ROW D5 : ... .. . ... ... ... : ... .. A ... ... ... : ... .. . ... : ... .. . ... : ... .. . ... ...
ROW D6 : ... .. . ... ... ... : ... .. 9 ... ... ... : ... .. . ... : ... .. . ... : ... .. . ... ...
ROW D7 : ... .. . ... ... ... : ... .. 8 ... ... ... : --- .. . ... : ... .. . ... : ... .. . ... ...
ROW D8 : ... .. . ... ... ... : C-3 00 F P80 ... ... : ... .. . ... : ... .. . ... : ... .. . ... ...
ROW D9 : ... .. . ... ... ... : ... .. E ... ... ... : A#3 00 . ... : ... .. . ... : ... .. . ... ...
ROW DA : ... .. . ... ... ... : ... .. D ... ... ... : ... .. . ... : ... .. . ... : ... .. . ... ...
ROW DB : ... .. . ... ... ... : ... .. C ... ... ... : ... .. . ... : ... .. . ... : ... .. . ... ...
ROW DC : ... .. . ... ... ... : ... .. B ... ... ... : ... .. . ... : ... .. . ... : ... .. . ... ...
ROW DD : ... .. . ... ... ... : ... .. A ... ... ... : ... .. . ... : ... .. . ... : ... .. . ... ...
ROW DE : ... .. . ... ... ... : ... .. 9 ... ... ... : ... .. . ... : ... .. . ... : ... .. . ... ...
ROW DF : ... .. . ... ... ... : ... .. 8 ... ... ... : --- .. . ... : ... .. . ... : ... .. . ... ...
ROW E0 : ... .. . ... ... ... : C-3 00 F P80 ... ... : ... .. . ... : ... .. . ... : ... .. . ... ...
ROW E1 : ... .. . ... ... ... : ... .. E ... ... ... : D#3 00 . P80 : ... .. . ... : ... .. . ... ...
ROW E2 : ... .. . ... ... ... : ... .. D ... ... ... : ... .. . ... : ... .. . ... : ... .. . ... ...
ROW E3 : ... .. . ... ... ... : ... .. C ... ... ... : ... .. . ... : ... .. . ... : ... .. . ... ...
ROW E4 : ... .. . ... ... ... : ... .. B ... ... ... : ... .. . ... : ... .. . ... : ... .. . ... ...
ROW E5 : ... .. . ... ... ... : ... .. A ... ... ... : ... .. . ... : ... .. . ... : ... .. . ... ...
ROW E6 : ... .. . ... ... ... : ... .. 9 ... ... ... : ... .. . ... : ... .. . ... : ... .. . ... ...
ROW E7 : ... .. . ... ... ... : ... .. 8 ... ... ... : --- .. . ... : ... .. . ... : ... .. . ... ...
ROW E8 : ... .. . ... ... ... : E-3 00 F P7F ... ... : ... .. . ... : ... .. . ... : ... .. . ... ...
ROW E9 : ... .. . ... ... ... : ... .. E ... ... ... : D#3 00 . ... : ... .. . ... : ... .. . ... ...
ROW EA : ... .. . ... ... ... : ... .. D ... ... ... : ... .. . ... : ... .. . ... : ... .. . ... ...
ROW EB : ... .. . ... ... ... : ... .. C ... ... ... : ... .. . ... : ... .. . ... : ... .. . ... ...
ROW EC : ... .. . ... ... ... : ... .. B ... ... ... : ... .. . ... : ... .. . ... : ... .. . ... ...
ROW ED : ... .. . ... ... ... : ... .. A ... ... ... : ... .. . ... : ... .. . ... : ... .. . ... ...
ROW EE : ... .. . ... ... ... : ... .. 9 ... ... ... : ... .. . ... : ... .. . ... : ... .. . ... ...
ROW EF : ... .. . ... ... ... : ... .. 8 ... ... ... : --- .. . ... : ... .. . ... : ... .. . ... ...
ROW F0 : ... .. . ... ... ... : F#3 00 F P7F ... ... : ... .. . ... : ... .. . ... : ... .. . ... ...
ROW F1 : ... .. . ... ... ... : ... .. E ... ... ... : G#3 00 . P7F : ... .. . ... : ... .. . ... ...
ROW F2 : ... .. . ... ... ... : ... .. D ... ... ... : ... .. . ... : ... .. . ... : ... .. . ... ...
ROW F3 : ... .. . ... ... ... : ... .. C ... ... ... : ... .. . ... : ... .. . ... : ... .. . ... ...
ROW F4 : ... .. . ... ... ... : ... .. B ... ... ... : ... .. . ... : ... .. . ... : ... .. . ... ...
ROW F5 : ... .. . ... ... ... : ... .. A ... ... ... : ... .. . ... : ... .. . ... : ... .. . ... ...
ROW F6 : ... .. . ... ... ... : ... .. 9 ... ... ... : ... .. . ... : ... .. . ... : ... .. . ... ...
ROW F7 : ... .. . ... ... ... : ... .. 8 ... ... ... : --- .. . ... : ... .. . ... : ... .. . ... ...
ROW F8 : ... .. . ... ... ... : G#3 00 F P7F ... ... : ... .. . ... : ... .. . ... : ... .. . ... ...
ROW F9 : ... .. . ... ... ... : ... .. E ... ... ... : G#3 00 . ... : ... .. . ... : ... .. . ... ...
ROW FA : ... .. . ... ... ... : ... .. D ... ... ... : ... .. . ... : ... .. . ... : ... .. . ... ...
ROW FB : ... .. . ... ... ... : ... .. C ... ... ... : ... .. . ... : ... .. . ... : ... .. . ... ...
ROW FC : ... .. . ... ... ... : ... .. B ... ... ... : ... .. . ... : ... .. . ... : ... .. . ... ...
ROW FD : ... .. . ... ... ... : ... .. A ... ... ... : ... .. . ... : ... .. . ... : ... .. . ... ...
ROW FE : ... .. . ... ... ... : ... .. 9 ... ... ... : ... .. . ... : ... .. . ... : ... .. . ... ...
ROW FF : ... .. . ... ... ... : ... .. 8 ... ... ... : --- .. . ... : ... .. . ... : ... .. . ... ...

PATTERN 06
ROW 00 : ... .. . ... ... ... : ... .. 7 ... ... ... : ... .. . ... : ... .. . ... : ... .. . ... ...
ROW 01 : ... .. . ... ... ... : ... .. 6 ... ... ... : B-3 00 . ... : ... .. . ... : ... .. . ... ...
ROW 02 : ... .. . ... ... ... : ... .. 5 ... ... ... : ... .. . ... : ... .. . ... : ... .. . ... ...
ROW 03 : ... .. . ... ... ... : ... .. 4 ... ... ... : ... .. . ... : ... .. . ... : ... .. . ... ...
ROW 04 : ... .. . ... ... ... : ... .. 3 ... ... ... : ... .. . ... : ... .. . ... : ... .. . ... ...
ROW 05 : ... .. . ... ... ... : ... .. 2 ... ... ... : ... .. . ... : ... .. . ... : ... .. . ... ...
ROW 06 : ... .. . ... ... ... : ... .. 1 ... ... ... : ... .. . ... : ... .. . ... : ... .. . ... ...
ROW 07 : ... .. . ... ... ... : ... .. 0 ... ... ... : --- .. . ... : ... .. . ... : ... .. . ... ...
ROW 08 : ... .. . ... ... ... : F#3 00 F P7F ... ... : ... .. . ... : ... .. . ... : ... .. . ... ...
ROW 09 : ... .. . ... ... ... : ... .. E ... ... ... : B-3 00 . ... : ... .. . ... : ... .. . ... ...
ROW 0A : ... .. . ... ... ... : ... .. D ... ... ... : ... .. . ... : ... .. . ... : ... .. . ... ...
ROW 0B : ... .. . ... ... ... : ... .. C ... ... ... : ... .. . ... : ... .. . ... : ... .. . ... ...
ROW 0C : ... .. . ... ... ... : ... .. B ... ... ... : ... .. . ... : ... .. . ... : ... .. . ... ...
ROW 0D : ... .. . ... ... ... : ... .. A ... ... ... : ... .. . ... : ... .. . ... : ... .. . ... ...
ROW 0E : ... .. . ... ... ... : ... .. 9 ... ... ... : ... .. . ... : ... .. . ... : ... .. . ... ...
ROW 0F : ... .. . ... ... ... : ... .. 8 ... ... ... : --- .. . ... : ... .. . ... : ... .. . ... ...
ROW 10 : ... .. . ... ... ... : G#3 00 F P7F ... ... : ... .. . ... : ... .. . ... : ... .. . ... ...
ROW 11 : ... .. . ... ... ... : ... .. E ... ... ... : E-4 00 . P80 : ... .. . ... : ... .. . ... ...
ROW 12 : ... .. . ... ... ... : ... .. D ... ... ... : ... .. . ... : ... .. . ... : ... .. . ... ...
ROW 13 : ... .. . ... ... ... : ... .. C ... ... ... : ... .. . ... : ... .. . ... : ... .. . ... ...
ROW 14 : ... .. . ... ... ... : ... .. B ... ... ... : ... .. . ... : ... .. . ... : ... .. . ... ...
ROW 15 : ... .. . ... ... ... : ... .. A ... ... ... : ... .. . ... : ... .. . ... : ... .. . ... ...
ROW 16 : ... .. . ... ... ... : ... .. 9 ... ... ... : ... .. . ... : ... .. . ... : ... .. . ... ...
ROW 17 : ... .. . ... ... ... : ... .. 8 ... ... ... : --- .. . ... : ... .. . ... : ... .. . ... ...
ROW 18 : ... .. . ... ... ... : A#3 00 F P7F ... ... : ... .. . ... : ... .. . ... : ... .. . ... ...
ROW 19 : ... .. . ... ... ... : ... .. E ... ... ... : E-4 00 . ... : ... .. . ... : ... .. . ... ...
ROW 1A : ... .. . ... ... ... : ... .. D ... ... ... : ... .. . ... : ... .. . ... : ... .. . ... ...
ROW 1B : ... .. . ... ... ... : ... .. C ... ... ... : ... .. . ... : ... .. . ... : ... .. . ... ...
ROW 1C : ... .. . ... ... ... : ... .. B ... ... ... : ... .. . ... : ... .. . ... : ... .. . ... ...
ROW 1D : ... .. . ... ... ... : ... .. A ... ... ... : ... .. . ... : ... .. . ... : ... .. . ... ...
ROW 1E : ... .. . ... ... ... : ... .. 9 ... ... ... : ... .. . ... : ... .. . ... : ... .. . ... ...
ROW 1F : ... .. . ... ... ... : ... .. 8 ... ... ... : --- .. . ... : ... .. . ... : ... .. . ... ...
ROW 20 : ... .. . ... ... ... : ... .. 7 ... ... ... : ... .. . ... : ... .. . ... : ... .. . ... ...
ROW 21 : ... .. . ... ... ... : ... .. 6 ... ... ... : B-3 00 . P7F : ... .. . ... : ... .. . ... ...
ROW 22 : ... .. . ... ... ... : ... .. 5 ... ... ... : ... .. . ... : ... .. . ... : ... .. . ... ...
ROW 23 : ... .. . ... ... ... : ... .. 4 ... ... ... : ... .. . ... : ... .. . ... : ... .. . ... ...
ROW 24 : ... .. . ... ... ... : ... .. 3 ... ... ... : ... .. . ... : ... .. . ... : ... .. . ... ...
ROW 25 : ... .. . ... ... ... : ... .. 2 ... ... ... : ... .. . ... : ... .. . ... : ... .. . ... ...
ROW 26 : ... .. . ... ... ... : ... .. 1 ... ... ... : ... .. . ... : ... .. . ... : ... .. . ... ...
ROW 27 : ... .. . ... ... ... : ... .. 0 ... ... ... : --- .. . ... : ... .. . ... : ... .. . ... ...
ROW 28 : ... .. . ... ... ... : B-3 00 F P7F ... ... : ... .. . ... : ... .. . ... : ... .. . ... ...
ROW 29 : ... .. . ... ... ... : ... .. E ... ... ... : B-3 00 . ... : ... .. . ... : ... .. . ... ...
ROW 2A : ... .. . ... ... ... : ... .. D ... ... ... : ... .. . ... : ... .. . ... : ... .. . ... ...
ROW 2B : ... .. . ... ... ... : ... .. C ... ... ... : ... .. . ... : ... .. . ... : ... .. . ... ...
ROW 2C : ... .. . ... ... ... : ... .. B ... ... ... : ... .. . ... : ... .. . ... : ... .. . ... ...
ROW 2D : ... .. . ... ... ... : ... .. A ... ... ... : ... .. . ... : ... .. . ... : ... .. . ... ...
ROW 2E : ... .. . ... ... ... : ... .. 9 ... ... ... : ... .. . ... : ... .. . ... : ... .. . ... ...
ROW 2F : ... .. . ... ... ... : ... .. 8 ... ... ... : --- .. . ... : ... .. . ... : ... .. . ... ...
ROW 30 : ... .. . ... ... ... : ... .. 7 ... ... ... : ... .. . ... : ... .. . ... : ... .. . ... ...
ROW 31 : ... .. . ... ... ... : ... .. 6 ... ... ... : E-4 00 . P80 : ... .. . ... : ... .. . ... ...
ROW 32 : ... .. . ... ... ... : ... .. 5 ... ... ... : ... .. . ... : ... .. . ... : ... .. . ... ...
ROW 33 : ... .. . ... ... ... : ... .. 4 ... ... ... : ... .. . ... : ... .. . ... : ... .. . ... ...
ROW 34 : ... .. . ... ... ... : ... .. 3 ... ... ... : ... .. . ... : ... .. . ... : ... .. . ... ...
ROW 35 : ... .. . ... ... ... : ... .. 2 ... ... ... : ... .. . ... : ... .. . ... : ... .. . ... ...
ROW 36 : ... .. . ... ... ... : ... .. 1 ... ... ... : ... .. . ... : ... .. . ... : ... .. . ... ...
ROW 37 : ... .. . ... ... ... : ... .. 0 ... ... ... : --- .. . ... : ... .. . ... : ... .. . ... ...
ROW 38 : ... .. . ... ... ... : A#3 00 F P7F ... ... : ... .. . ... : ... .. . ... : ... .. . ... ...
ROW 39 : ... .. . ... ... ... : ... .. E ... ... ... : E-4 00 . ... : ... .. . ... : ... .. . ... ...
ROW 3A : ... .. . ... ... ... : ... .. D ... ... ... : ... .. . ... : ... .. . ... : ... .. . ... ...
ROW 3B : ... .. . ... ... ... : ... .. C ... ... ... : ... .. . ... : ... .. . ... : ... .. . ... ...
ROW 3C : ... .. . ... ... ... : ... .. B ... ... ... : ... .. . ... : ... .. . ... : ... .. . ... ...
ROW 3D : ... .. . ... ... ... : ... .. A ... ... ... : ... .. . ... : ... .. . ... : ... .. . ... ...
ROW 3E : ... .. . ... ... ... : ... .. 9 ... ... ... : ... .. . ... : ... .. . ... : ... .. . ... ...
ROW 3F : ... .. . ... ... ... : ... .. 8 ... ... ... : --- .. . ... : ... .. . ... : ... .. . ... ...
ROW 40 : ... .. . ... ... ... : ... .. 7 ... ... ... : ... .. . ... : ... .. . ... : ... .. . ... ...
ROW 41 : ... .. . ... ... ... : ... .. 6 ... ... ... : B-3 00 . P7F : ... .. . ... : ... .. . ... ...
ROW 42 : ... .. . ... ... ... : ... .. 5 ... ... ... : ... .. . ... : ... .. . ... : ... .. . ... ...
ROW 43 : ... .. . ... ... ... : ... .. 4 ... ... ... : ... .. . ... : ... .. . ... : ... .. . ... ...
ROW 44 : ... .. . ... ... ... : ... .. 3 ... ... ... : ... .. . ... : ... .. . ... : ... .. . ... ...
ROW 45 : ... .. . ... ... ... : ... .. 2 ... ... ... : ... .. . ... : ... .. . ... : ... .. . ... ...
ROW 46 : ... .. . ... ... ... : ... .. 1 ... ... ... : ... .. . ... : ... .. . ... : ... .. . ... ...
ROW 47 : ... .. . ... ... ... : ... .. 0 ... ... ... : --- .. . ... : ... .. . ... : ... .. . ... ...
ROW 48 : ... .. . ... ... ... : G#3 00 F P7F ... ... : ... .. . ... : ... .. . ... : ... .. . ... ...
ROW 49 : ... .. . ... ... ... : ... .. E ... ... ... : B-3 00 . ... : ... .. . ... : ... .. . ... ...
ROW 4A : ... .. . ... ... ... : ... .. D ... ... ... : ... .. . ... : ... .. . ... : ... .. . ... ...
ROW 4B : ... .. . ... ... ... : ... .. C ... ... ... : ... .. . ... : ... .. . ... : ... .. . ... ...
ROW 4C : ... .. . ... ... ... : ... .. B ... ... ... : ... .. . ... : ... .. . ... : ... .. . ... ...
ROW 4D : ... .. . ... ... ... : ... .. A ... ... ... : ... .. . ... : ... .. . ... : ... .. . ... ...
ROW 4E : ... .. . ... ... ... : ... .. 9 ... ... ... : ... .. . ... : ... .. . ... : ... .. . ... ...
ROW 4F : ... .. . ... ... ... : ... .. 8 ... ... ... : --- .. . ... : ... .. . ... : ... .. . ... ...
ROW 50 : ... .. . ... ... ... : ... .. 7 ... ... ... : ... .. . ... : ... .. . ... : ... .. . ... ...
ROW 51 : ... .. . ... ... ... : ... .. 6 ... ... ... : E-4 00 . P80 : ... .. . ... : ... .. . ... ...
ROW 52 : ... .. . ... ... ... : ... .. 5 ... ... ... : ... .. . ... : ... .. . ... : ... .. . ... ...
ROW 53 : ... .. . ... ... ... : ... .. 4 ... ... ... : ... .. . ... : ... .. . ... : ... .. . ... ...
ROW 54 : ... .. . ... ... ... : ... .. 3 ... ... ... : ... .. . ... : ... .. . ... : ... .. . ... ...
ROW 55 : ... .. . ... ... ... : ... .. 2 ... ... ... : ... .. . ... : ... .. . ... : ... .. . ... ...
ROW 56 : ... .. . ... ... ... : ... .. 1 ... ... ... : ... .. . ... : ... .. . ... : ... .. . ... ...
ROW 57 : ... .. . ... ... ... : ... .. 0 ... ... ... : --- .. . ... : ... .. . ... : ... .. . ... ...
ROW 58 : ... .. . ... ... ... : F#3 00 F P7F ... ... : ... .. . ... : ... .. . ... : ... .. . ... ...
ROW 59 : ... .. . ... ... ... : ... .. E ... ... ... : E-4 00 . ... : ... .. . ... : ... .. . ... ...
ROW 5A : ... .. . ... ... ... : ... .. D ... ... ... : ... .. . ... : ... .. . ... : ... .. . ... ...
ROW 5B : ... .. . ... ... ... : ... .. C ... ... ... : ... .. . ... : ... .. . ... : ... .. . ... ...
ROW 5C : ... .. . ... ... ... : ... .. B ... ... ... : ... .. . ... : ... .. . ... : ... .. . ... ...
ROW 5D : ... .. . ... ... ... : ... .. A ... ... ... : ... .. . ... : ... .. . ... : ... .. . ... ...
ROW 5E : ... .. . ... ... ... : ... .. 9 ... ... ... : ... .. . ... : ... .. . ... : ... .. . ... ...
ROW 5F : ... .. . ... ... ... : ... .. 8 ... ... ... : --- .. . ... : ... .. . ... : ... .. . ... ...
ROW 60 : ... .. . ... ... ... : G#3 00 F P7F ... ... : ... .. . ... : ... .. . ... : ... .. . ... ...
ROW 61 : ... .. . ... ... ... : ... .. E ... ... ... : B-3 00 . P7F : ... .. . ... : ... .. . ... ...
ROW 62 : ... .. . ... ... ... : ... .. D ... ... ... : ... .. . ... : ... .. . ... : ... .. . ... ...
ROW 63 : ... .. . ... ... ... : ... .. C ... ... ... : ... .. . ... : ... .. . ... : ... .. . ... ...
ROW 64 : ... .. . ... ... ... : ... .. B ... ... ... : ... .. . ... : ... .. . ... : ... .. . ... ...
ROW 65 : ... .. . ... ... ... : ... .. A ... ... ... : ... .. . ... : ... .. . ... : ... .. . ... ...
ROW 66 : ... .. . ... ... ... : ... .. 9 ... ... ... : ... .. . ... : ... .. . ... : ... .. . ... ...
ROW 67 : ... .. . ... ... ... : ... .. 8 ... ... ... : --- .. . ... : ... .. . ... : ... .. . ... ...
ROW 68 : ... .. . ... ... ... : F#3 00 F P7F ... ... : ... .. . ... : ... .. . ... : ... .. . ... ...
ROW 69 : ... .. . ... ... ... : ... .. E ... ... ... : B-3 00 . ... : ... .. . ... : ... .. . ... ...
ROW 6A : ... .. . ... ... ... : ... .. D ... ... ... : ... .. . ... : ... .. . ... : ... .. . ... ...
ROW 6B : ... .. . ... ... ... : ... .. C ... ... ... : ... .. . ... : ... .. . ... : ... .. . ... ...
ROW 6C : ... .. . ... ... ... : ... .. B ... ... ... : ... .. . ... : ... .. . ... : ... .. . ... ...
ROW 6D : ... .. . ... ... ... : ... .. A ... ... ... : ... .. . ... : ... .. . ... : ... .. . ... ...
ROW 6E : ... .. . ... ... ... : ... .. 9 ... ... ... : ... .. . ... : ... .. . ... : ... .. . ... ...
ROW 6F : ... .. . ... ... ... : ... .. 8 ... ... ... : --- .. . ... : ... .. . ... : ... .. . ... ...
ROW 70 : ... .. . ... ... ... : G#3 00 F P7F ... ... : ... .. . ... : ... .. . ... : ... .. . ... ...
ROW 71 : ... .. . ... ... ... : ... .. E ... ... ... : E-4 00 . P80 : ... .. . ... : ... .. . ... ...
ROW 72 : ... .. . ... ... ... : ... .. D ... ... ... : ... .. . ... : ... .. . ... : ... .. . ... ...
ROW 73 : ... .. . ... ... ... : ... .. C ... ... ... : ... .. . ... : ... .. . ... : ... .. . ... ...
ROW 74 : ... .. . ... ... ... : ... .. B ... ... ... : ... .. . ... : ... .. . ... : ... .. . ... ...
ROW 75 : ... .. . ... ... ... : ... .. A ... ... ... : ... .. . ... : ... .. . ... : ... .. . ... ...
ROW 76 : ... .. . ... ... ... : ... .. 9 ... ... ... : ... .. . ... : ... .. . ... : ... .. . ... ...
ROW 77 : ... .. . ... ... ... : ... .. 8 ... ... ... : --- .. . ... : ... .. . ... : ... .. . ... ...
ROW 78 : ... .. . ... ... ... : E-3 00 F P7F ... ... : ... .. . ... : ... .. . ... : ... .. . ... ...
ROW 79 : ... .. . ... ... ... : ... .. E ... ... ... : E-4 00 . ... : ... .. . ... : ... .. . ... ...
ROW 7A : ... .. . ... ... ... : ... .. D ... ... ... : ... .. . ... : ... .. . ... : ... .. . ... ...
ROW 7B : ... .. . ... ... ... : ... .. C ... ... ... : ... .. . ... : ... .. . ... : ... .. . ... ...
ROW 7C : ... .. . ... ... ... : ... .. B ... ... ... : ... .. . ... : ... .. . ... : ... .. . ... ...
ROW 7D : ... .. . ... ... ... : ... .. A ... ... ... : ... .. . ... : ... .. . ... : ... .. . ... ...
ROW 7E : ... .. . ... ... ... : ... .. 9 ... ... ... : ... .. . ... : ... .. . ... : ... .. . ... ...
ROW 7F : ... .. . ... ... ... : ... .. 8 ... ... ... : --- .. . ... : ... .. . ... : ... .. . ... ...
ROW 80 : ... .. . ... ... ... : G#3 00 F P7F ... ... : ... .. . ... : ... .. . ... : ... .. . ... ...
ROW 81 : ... .. . ... ... ... : ... .. E ... ... ... : B-3 00 . P7F : ... .. . ... : ... .. . ... ...
ROW 82 : ... .. . ... ... ... : ... .. D ... ... ... : ... .. . ... : ... .. . ... : ... .. . ... ...
ROW 83 : ... .. . ... ... ... : ... .. C ... ... ... : ... .. . ... : ... .. . ... : ... .. . ... ...
ROW 84 : ... .. . ... ... ... : ... .. B ... ... ... : ... .. . ... : ... .. . ... : ... .. . ... ...
ROW 85 : ... .. . ... ... ... : ... .. A ... ... ... : ... .. . ... : ... .. . ... : ... .. . ... ...
ROW 86 : ... .. . ... ... ... : ... .. 9 ... ... ... : ... .. . ... : ... .. . ... : ... .. . ... ...
ROW 87 : ... .. . ... ... ... : ... .. 8 ... ... ... : --- .. . ... : ... .. . ... : ... .. . ... ...
ROW 88 : ... .. . ... ... ... : F#3 00 F P7F ... ... : ... .. . ... : ... .. . ... : ... .. . ... ...
ROW 89 : ... .. . ... ... ... : ... .. E ... ... ... : B-3 00 . ... : ... .. . ... : ... .. . ... ...
ROW 8A : ... .. . ... ... ... : ... .. D ... ... ... : ... .. . ... : ... .. . ... : ... .. . ... ...
ROW 8B : ... .. . ... ... ... : ... .. C ... ... ... : ... .. . ... : ... .. . ... : ... .. . ... ...
ROW 8C : ... .. . ... ... ... : ... .. B ... ... ... : ... .. . ... : ... .. . ... : ... .. . ... ...
ROW 8D : ... .. . ... ... ... : ... .. A ... ... ... : ... .. . ... : ... .. . ... : ... .. . ... ...
ROW 8E : ... .. . ... ... ... : ... .. 9 ... ... ... : ... .. . ... : ... .. . ... : ... .. . ... ...
ROW 8F : ... .. . ... ... ... : ... .. 8 ... ... ... : --- .. . ... : ... .. . ... : ... .. . ... ...
ROW 90 : ... .. . ... ... ... : G#3 00 F P7F ... ... : ... .. . ... : ... .. . ... : ... .. . ... ...
ROW 91 : ... .. . ... ... ... : ... .. E ... ... ... : E-4 00 . P80 : ... .. . ... : ... .. . ... ...
ROW 92 : ... .. . ... ... ... : ... .. D ... ... ... : ... .. . ... : ... .. . ... : ... .. . ... ...
ROW 93 : ... .. . ... ... ... : ... .. C ... ... ... : ... .. . ... : ... .. . ... : ... .. . ... ...
ROW 94 : ... .. . ... ... ... : ... .. B ... ... ... : ... .. . ... : ... .. . ... : ... .. . ... ...
ROW 95 : ... .. . ... ... ... : ... .. A ... ... ... : ... .. . ... : ... .. . ... : ... .. . ... ...
ROW 96 : ... .. . ... ... ... : ... .. 9 ... ... ... : ... .. . ... : ... .. . ... : ... .. . ... ...
ROW 97 : ... .. . ... ... ... : ... .. 8 ... ... ... : --- .. . ... : ... .. . ... : ... .. . ... ...
ROW 98 : ... .. . ... ... ... : A#3 00 F P7F ... ... : ... .. . ... : ... .. . ... : ... .. . ... ...
ROW 99 : ... .. . ... ... ... : ... .. E ... ... ... : E-4 00 . ... : ... .. . ... : ... .. . ... ...
ROW 9A : ... .. . ... ... ... : ... .. D ... ... ... : ... .. . ... : ... .. . ... : ... .. . ... ...
ROW 9B : ... .. . ... ... ... : ... .. C ... ... ... : ... .. . ... : ... .. . ... : ... .. . ... ...
ROW 9C : ... .. . ... ... ... : ... .. B ... ... ... : ... .. . ... : ... .. . ... : ... .. . ... ...
ROW 9D : ... .. . ... ... ... : ... .. A ... ... ... : ... .. . ... : ... .. . ... : ... .. . ... ...
ROW 9E : ... .. . ... ... ... : ... .. 9 ... ... ... : ... .. . ... : ... .. . ... : ... .. . ... ...
ROW 9F : ... .. . ... ... ... : ... .. 8 ... ... ... : --- .. . ... : ... .. . ... : ... .. . ... ...
ROW A0 : ... .. . ... ... ... : ... .. 7 ... ... ... : ... .. . ... : ... .. . ... : ... .. . ... ...
ROW A1 : ... .. . ... ... ... : ... .. 6 ... ... ... : B-3 00 . P7F : ... .. . ... : ... .. . ... ...
ROW A2 : ... .. . ... ... ... : ... .. 5 ... ... ... : ... .. . ... : ... .. . ... : ... .. . ... ...
ROW A3 : ... .. . ... ... ... : ... .. 4 ... ... ... : ... .. . ... : ... .. . ... : ... .. . ... ...
ROW A4 : ... .. . ... ... ... : ... .. 3 ... ... ... : ... .. . ... : ... .. . ... : ... .. . ... ...
ROW A5 : ... .. . ... ... ... : ... .. 2 ... ... ... : ... .. . ... : ... .. . ... : ... .. . ... ...
ROW A6 : ... .. . ... ... ... : ... .. 1 ... ... ... : ... .. . ... : ... .. . ... : ... .. . ... ...
ROW A7 : ... .. . ... ... ... : ... .. 0 ... ... ... : --- .. . ... : ... .. . ... : ... .. . ... ...
ROW A8 : ... .. . ... ... ... : B-3 00 F P7F ... ... : ... .. . ... : ... .. . ... : ... .. . ... ...
ROW A9 : ... .. . ... ... ... : ... .. E ... ... ... : B-3 00 . ... : ... .. . ... : ... .. . ... ...
ROW AA : ... .. . ... ... ... : ... .. D ... ... ... : ... .. . ... : ... .. . ... : ... .. . ... ...
ROW AB : ... .. . ... ... ... : ... .. C ... ... ... : ... .. . ... : ... .. . ... : ... .. . ... ...
ROW AC : ... .. . ... ... ... : ... .. B ... ... ... : ... .. . ... : ... .. . ... : ... .. . ... ...
ROW AD : ... .. . ... ... ... : ... .. A ... ... ... : ... .. . ... : ... .. . ... : ... .. . ... ...
ROW AE : ... .. . ... ... ... : ... .. 9 ... ... ... : ... .. . ... : ... .. . ... : ... .. . ... ...
ROW AF : ... .. . ... ... ... : ... .. 8 ... ... ... : --- .. . ... : ... .. . ... : ... .. . ... ...
ROW B0 : ... .. . ... ... ... : ... .. 7 ... ... ... : ... .. . ... : ... .. . ... : ... .. . ... ...
ROW B1 : ... .. . ... ... ... : ... .. 6 ... ... ... : E-4 00 . P80 : ... .. . ... : ... .. . ... ...
ROW B2 : ... .. . ... ... ... : ... .. 5 ... ... ... : ... .. . ... : ... .. . ... : ... .. . ... ...
ROW B3 : ... .. . ... ... ... : ... .. 4 ... ... ... : ... .. . ... : ... .. . ... : ... .. . ... ...
ROW B4 : ... .. . ... ... ... : ... .. 3 ... ... ... : ... .. . ... : ... .. . ... : ... .. . ... ...
ROW B5 : ... .. . ... ... ... : ... .. 2 ... ... ... : ... .. . ... : ... .. . ... : ... .. . ... ...
ROW B6 : ... .. . ... ... ... : ... .. 1 ... ... ... : ... .. . ... : ... .. . ... : ... .. . ... ...
ROW B7 : ... .. . ... ... ... : ... .. 0 ... ... ... : --- .. . ... : ... .. . ... : ... .. . ... ...
ROW B8 : ... .. . ... ... ... : A#3 00 F P7F ... ... : ... .. . ... : ... .. . ... : ... .. . ... ...
ROW B9 : ... .. . ... ... ... : ... .. E ... ... ... : E-4 00 . ... : ... .. . ... : ... .. . ... ...
ROW BA : ... .. . ... ... ... : ... .. D ... ... ... : ... .. . ... : ... .. . ... : ... .. . ... ...
ROW BB : ... .. . ... ... ... : ... .. C ... ... ... : ... .. . ... : ... .. . ... : ... .. . ... ...
ROW BC : ... .. . ... ... ... : ... .. B ... ... ... : ... .. . ... : ... .. . ... : ... .. . ... ...
ROW BD : ... .. . ... ... ... : ... .. A ... ... ... : ... .. . ... : ... .. . ... : ... .. . ... ...
ROW BE : ... .. . ... ... ... : ... .. 9 ... ... ... : ... .. . ... : ... .. . ... : ... .. . ... ...
ROW BF : ... .. . ... ... ... : ... .. 8 ... ... ... : --- .. . ... : ... .. . ... : ... .. . ... ...
ROW C0 : ... .. . ... ... ... : ... .. 7 ... ... ... : ... .. . ... : ... .. . ... : ... .. . ... ...
ROW C1 : ... .. . ... ... ... : ... .. 6 ... ... ... : B-3 00 . P7F : ... .. . ... : ... .. . ... ...
ROW C2 : ... .. . ... ... ... : ... .. 5 ... ... ... : ... .. . ... : ... .. . ... : ... .. . ... ...
ROW C3 : ... .. . ... ... ... : ... .. 4 ... ... ... : ... .. . ... : ... .. . ... : ... .. . ... ...
ROW C4 : ... .. . ... ... ... : ... .. 3 ... ... ... : ... .. . ... : ... .. . ... : ... .. . ... ...
ROW C5 : ... .. . ... ... ... : ... .. 2 ... ... ... : ... .. . ... : ... .. . ... : ... .. . ... ...
ROW C6 : ... .. . ... ... ... : ... .. 1 ... ... ... : ... .. . ... : ... .. . ... : ... .. . ... ...
ROW C7 : ... .. . ... ... ... : ... .. 0 ... ... ... : --- .. . ... : ... .. . ... : ... .. . ... ...
ROW C8 : ... .. . ... ... ... : G#3 00 F P7F ... ... : ... .. . ... : ... .. . ... : ... .. . ... ...
ROW C9 : ... .. . ... ... ... : ... .. E ... ... ... : B-3 00 . ... : ... .. . ... : ... .. . ... ...
ROW CA : ... .. . ... ... ... : ... .. D ... ... ... : ... .. . ... : ... .. . ... : ... .. . ... ...
ROW CB : ... .. . ... ... ... : ... .. C ... ... ... : ... .. . ... : ... .. . ... : ... .. . ... ...
ROW CC : ... .. . ... ... ... : ... .. B ... ... ... : ... .. . ... : ... .. . ... : ... .. . ... ...
ROW CD : ... .. . ... ... ... : ... .. A ... ... ... : ... .. . ... : ... .. . ... : ... .. . ... ...
ROW CE : ... .. . ... ... ... : ... .. 9 ... ... ... : ... .. . ... : ... .. . ... : ... .. . ... ...
ROW CF : ... .. . ... ... ... : ... .. 8 ... ... ... : --- .. . ... : ... .. . ... : ... .. . ... ...
ROW D0 : ... .. . ... ... ... : ... .. 7 ... ... ... : ... .. . ... : ... .. . ... : ... .. . ... ...
ROW D1 : ... .. . ... ... ... : ... .. 6 ... ... ... : E-4 00 . P80 : ... .. . ... : ... .. . ... ...
ROW D2 : ... .. . ... ... ... : ... .. 5 ... ... ... : ... .. . ... : ... .. . ... : ... .. . ... ...
ROW D3 : ... .. . ... ... ... : ... .. 4 ... ... ... : ... .. . ... : ... .. . ... : ... .. . ... ...
ROW D4 : ... .. . ... ... ... : ... .. 3 ... ... ... : ... .. . ... : ... .. . ... : ... .. . ... ...
ROW D5 : ... .. . ... ... ... : ... .. 2 ... ... ... : ... .. . ... : ... .. . ... : ... .. . ... ...
ROW D6 : ... .. . ... ... ... : ... .. 1 ... ... ... : ... .. . ... : ... .. . ... : ... .. . ... ...
ROW D7 : ... .. . ... ... ... : ... .. 0 ... ... ... : --- .. . ... : ... .. . ... : ... .. . ... ...
ROW D8 : ... .. . ... ... ... : F#3 00 F P7F ... ... : ... .. . ... : ... .. . ... : ... .. . ... ...
ROW D9 : ... .. . ... ... ... : ... .. E ... ... ... : E-4 00 . ... : ... .. . ... : ... .. . ... ...
ROW DA : ... .. . ... ... ... : ... .. D ... ... ... : ... .. . ... : ... .. . ... : ... .. . ... ...
ROW DB : ... .. . ... ... ... : ... .. C ... ... ... : ... .. . ... : ... .. . ... : ... .. . ... ...
ROW DC : ... .. . ... ... ... : ... .. B ... ... ... : ... .. . ... : ... .. . ... : ... .. . ... ...
ROW DD : ... .. . ... ... ... : ... .. A ... ... ... : ... .. . ... : ... .. . ... : ... .. . ... ...
ROW DE : ... .. . ... ... ... : ... .. 9 ... ... ... : ... .. . ... : ... .. . ... : ... .. . ... ...
ROW DF : ... .. . ... ... ... : ... .. 8 ... ... ... : --- .. . ... : ... .. . ... : ... .. . ... ...
ROW E0 : ... .. . ... ... ... : G#3 00 F P7F ... ... : ... .. . ... : ... .. . ... : ... .. . ... ...
ROW E1 : ... .. . ... ... ... : ... .. E ... ... ... : B-3 00 . P7F : ... .. . ... : ... .. . ... ...
ROW E2 : ... .. . ... ... ... : ... .. D ... ... ... : ... .. . ... : ... .. . ... : ... .. . ... ...
ROW E3 : ... .. . ... ... ... : ... .. C ... ... ... : ... .. . ... : ... .. . ... : ... .. . ... ...
ROW E4 : ... .. . ... ... ... : ... .. B ... ... ... : ... .. . ... : ... .. . ... : ... .. . ... ...
ROW E5 : ... .. . ... ... ... : ... .. A ... ... ... : ... .. . ... : ... .. . ... : ... .. . ... ...
ROW E6 : ... .. . ... ... ... : ... .. 9 ... ... ... : ... .. . ... : ... .. . ... : ... .. . ... ...
ROW E7 : ... .. . ... ... ... : ... .. 8 ... ... ... : --- .. . ... : ... .. . ... : ... .. . ... ...
ROW E8 : ... .. . ... ... ... : F#3 00 F P7F ... ... : ... .. . ... : ... .. . ... : ... .. . ... ...
ROW E9 : ... .. . ... ... ... : ... .. E ... ... ... : B-3 00 . ... : ... .. . ... : ... .. . ... ...
ROW EA : ... .. . ... ... ... : ... .. D ... ... ... : ... .. . ... : ... .. . ... : ... .. . ... ...
ROW EB : ... .. . ... ... ... : ... .. C ... ... ... : ... .. . ... : ... .. . ... : ... .. . ... ...
ROW EC : ... .. . ... ... ... : ... .. B ... ... ... : ... .. . ... : ... .. . ... : ... .. . ... ...
ROW ED : ... .. . ... ... ... : ... .. A ... ... ... : ... .. . ... : ... .. . ... : ... .. . ... ...
ROW EE : ... .. . ... ... ... : ... .. 9 ... ... ... : ... .. . ... : ... .. . ... : ... .. . ... ...
ROW EF : ... .. . ... ... ... : ... .. 8 ... ... ... : --- .. . ... : ... .. . ... : ... .. . ... ...
ROW F0 : ... .. . ... ... ... : G#3 00 F P7F ... ... : ... .. . ... : ... .. . ... : ... .. . ... ...
ROW F1 : ... .. . ... ... ... : ... .. E ... ... ... : E-4 00 . P80 : ... .. . ... : ... .. . ... ...
ROW F2 : ... .. . ... ... ... : ... .. D ... ... ... : ... .. . ... : ... .. . ... : ... .. . ... ...
ROW F3 : ... .. . ... ... ... : ... .. C ... ... ... : ... .. . ... : ... .. . ... : ... .. . ... ...
ROW F4 : ... .. . ... ... ... : ... .. B ... ... ... : ... .. . ... : ... .. . ... : ... .. . ... ...
ROW F5 : ... .. . ... ... ... : ... .. A ... ... ... : ... .. . ... : ... .. . ... : ... .. . ... ...
ROW F6 : ... .. . ... ... ... : ... .. 9 ... ... ... : ... .. . ... : ... .. . ... : ... .. . ... ...
ROW F7 : ... .. . ... ... ... : ... .. 8 ... ... ... : --- .. . ... : ... .. . ... : ... .. . ... ...
ROW F8 : ... .. . ... ... ... : E-3 00 F P7F ... ... : ... .. . ... : ... .. . ... : ... .. . ... ...
ROW F9 : ... .. . ... ... ... : ... .. E ... ... ... : E-4 00 . ... : ... .. . ... : ... .. . ... ...
ROW FA : ... .. . ... ... ... : ... .. D ... ... ... : ... .. . ... : ... .. . ... : ... .. . ... ...
ROW FB : ... .. . ... ... ... : ... .. C ... ... ... : ... .. . ... : ... .. . ... : ... .. . ... ...
ROW FC : ... .. . ... ... ... : ... .. B ... ... ... : ... .. . ... : ... .. . ... : ... .. . ... ...
ROW FD : ... .. . ... ... ... : ... .. A ... ... ... : ... .. . ... : ... .. . ... : ... .. . ... ...
ROW FE : ... .. . ... ... ... : ... .. 9 ... ... ... : ... .. . ... : ... .. . ... : ... .. . ... ...
ROW FF : ... .. . ... ... ... : ... .. 8 ... ... ... : --- .. . ... : ... .. . ... : ... .. . ... ...

PATTERN 07
ROW 00 : ... .. . ... ... ... : F#3 00 F P7F ... ... : ... .. . ... : ... .. . ... : ... .. . ... ...
ROW 01 : ... .. . ... ... ... : ... .. E ... ... ... : A-3 00 . P7F : ... .. . ... : ... .. . ... ...
ROW 02 : ... .. . ... ... ... : ... .. D ... ... ... : ... .. . ... : ... .. . ... : ... .. . ... ...
ROW 03 : ... .. . ... ... ... : ... .. C ... ... ... : ... .. . ... : ... .. . ... : ... .. . ... ...
ROW 04 : ... .. . ... ... ... : ... .. B ... ... ... : ... .. . ... : ... .. . ... : ... .. . ... ...
ROW 05 : ... .. . ... ... ... : ... .. A ... ... ... : ... .. . ... : ... .. . ... : ... .. . ... ...
ROW 06 : ... .. . ... ... ... : ... .. 9 ... ... ... : ... .. . ... : ... .. . ... : ... .. . ... ...
ROW 07 : ... .. . ... ... ... : ... .. 8 ... ... ... : --- .. . ... : ... .. . ... : ... .. . ... ...
ROW 08 : ... .. . ... ... ... : E-3 00 F P7F ... ... : ... .. . ... : ... .. . ... : ... .. . ... ...
ROW 09 : ... .. . ... ... ... : ... .. E ... ... ... : A-3 00 . ... : ... .. . ... : ... .. . ... ...
ROW 0A : ... .. . ... ... ... : ... .. D ... ... ... : ... .. . ... : ... .. . ... : ... .. . ... ...
ROW 0B : ... .. . ... ... ... : ... .. C ... ... ... : ... .. . ... : ... .. . ... : ... .. . ... ...
ROW 0C : ... .. . ... ... ... : ... .. B ... ... ... : ... .. . ... : ... .. . ... : ... .. . ... ...
ROW 0D : ... .. . ... ... ... : ... .. A ... ... ... : ... .. . ... : ... .. . ... : ... .. . ... ...
ROW 0E : ... .. . ... ... ... : ... .. 9 ... ... ... : ... .. . ... : ... .. . ... : ... .. . ... ...
ROW 0F : ... .. . ... ... ... : ... .. 8 ... ... ... : --- .. . ... : ... .. . ... : ... .. . ... ...
ROW 10 : ... .. . ... ... ... : F#3 00 F P7F ... ... : ... .. . ... : ... .. . ... : ... .. . ... ...
ROW 11 : ... .. . ... ... ... : ... .. E ... ... ... : D-4 00 . ... : ... .. . ... : ... .. . ... ...
ROW 12 : ... .. . ... ... ... : ... .. D ... ... ... : ... .. . ... : ... .. . ... : ... .. . ... ...
ROW 13 : ... .. . ... ... ... : ... .. C ... ... ... : ... .. . ... : ... .. . ... : ... .. . ... ...
ROW 14 : ... .. . ... ... ... : ... .. B ... ... ... : ... .. . ... : ... .. . ... : ... .. . ... ...
ROW 15 : ... .. . ... ... ... : ... .. A ... ... ... : ... .. . ... : ... .. . ... : ... .. . ... ...
ROW 16 : ... .. . ... ... ... : ... .. 9 ... ... ... : ... .. . ... : ... .. . ... : ... .. . ... ...
ROW 17 : ... .. . ... ... ... : ... .. 8 ... ... ... : --- .. . ... : ... .. . ... : ... .. . ... ...
ROW 18 : ... .. . ... ... ... : G#3 00 F P7F ... ... : ... .. . ... : ... .. . ... : ... .. . ... ...
ROW 19 : ... .. . ... ... ... : ... .. E ... ... ... : D-4 00 . ... : ... .. . ... : ... .. . ... ...
ROW 1A : ... .. . ... ... ... : ... .. D ... ... ... : ... .. . ... : ... .. . ... : ... .. . ... ...
ROW 1B : ... .. . ... ... ... : ... .. C ... ... ... : ... .. . ... : ... .. . ... : ... .. . ... ...
ROW 1C : ... .. . ... ... ... : ... .. B ... ... ... : ... .. . ... : ... .. . ... : ... .. . ... ...
ROW 1D : ... .. . ... ... ... : ... .. A ... ... ... : ... .. . ... : ... .. . ... : ... .. . ... ...
ROW 1E : ... .. . ... ... ... : ... .. 9 ... ... ... : ... .. . ... : ... .. . ... : ... .. . ... ...
ROW 1F : ... .. . ... ... ... : ... .. 8 ... ... ... : --- .. . ... : ... .. . ... : ... .. . ... ...
ROW 20 : ... .. . ... ... ... : ... .. 7 ... ... ... : ... .. . ... : ... .. . ... : ... .. . ... ...
ROW 21 : ... .. . ... ... ... : ... .. 6 ... ... ... : A-3 00 . ... : ... .. . ... : ... .. . ... ...
ROW 22 : ... .. . ... ... ... : ... .. 5 ... ... ... : ... .. . ... : ... .. . ... : ... .. . ... ...
ROW 23 : ... .. . ... ... ... : ... .. 4 ... ... ... : ... .. . ... : ... .. . ... : ... .. . ... ...
ROW 24 : ... .. . ... ... ... : ... .. 3 ... ... ... : ... .. . ... : ... .. . ... : ... .. . ... ...
ROW 25 : ... .. . ... ... ... : ... .. 2 ... ... ... : ... .. . ... : ... .. . ... : ... .. . ... ...
ROW 26 : ... .. . ... ... ... : ... .. 1 ... ... ... : ... .. . ... : ... .. . ... : ... .. . ... ...
ROW 27 : ... .. . ... ... ... : ... .. 0 ... ... ... : --- .. . ... : ... .. . ... : ... .. . ... ...
ROW 28 : ... .. . ... ... ... : A-3 00 F P7F ... ... : ... .. . ... : ... .. . ... : ... .. . ... ...
ROW 29 : ... .. . ... ... ... : ... .. E ... ... ... : A-3 00 . ... : ... .. . ... : ... .. . ... ...
ROW 2A : ... .. . ... ... ... : ... .. D ... ... ... : ... .. . ... : ... .. . ... : ... .. . ... ...
ROW 2B : ... .. . ... ... ... : ... .. C ... ... ... : ... .. . ... : ... .. . ... : ... .. . ... ...
ROW 2C : ... .. . ... ... ... : ... .. B ... ... ... : ... .. . ... : ... .. . ... : ... .. . ... ...
ROW 2D : ... .. . ... ... ... : ... .. A ... ... ... : ... .. . ... : ... .. . ... : ... .. . ... ...
ROW 2E : ... .. . ... ... ... : ... .. 9 ... ... ... : ... .. . ... : ... .. . ... : ... .. . ... ...
ROW 2F : ... .. . ... ... ... : ... .. 8 ... ... ... : --- .. . ... : ... .. . ... : ... .. . ... ...
ROW 30 : ... .. . ... ... ... : ... .. 7 ... ... ... : ... .. . ... : ... .. . ... : ... .. . ... ...
ROW 31 : ... .. . ... ... ... : ... .. 6 ... ... ... : D-4 00 . ... : ... .. . ... : ... .. . ... ...
ROW 32 : ... .. . ... ... ... : ... .. 5 ... ... ... : ... .. . ... : ... .. . ... : ... .. . ... ...
ROW 33 : ... .. . ... ... ... : ... .. 4 ... ... ... : ... .. . ... : ... .. . ... : ... .. . ... ...
ROW 34 : ... .. . ... ... ... : ... .. 3 ... ... ... : ... .. . ... : ... .. . ... : ... .. . ... ...
ROW 35 : ... .. . ... ... ... : ... .. 2 ... ... ... : ... .. . ... : ... .. . ... : ... .. . ... ...
ROW 36 : ... .. . ... ... ... : ... .. 1 ... ... ... : ... .. . ... : ... .. . ... : ... .. . ... ...
ROW 37 : ... .. . ... ... ... : ... .. 0 ... ... ... : --- .. . ... : ... .. . ... : ... .. . ... ...
ROW 38 : ... .. . ... ... ... : G#3 00 F P7F ... ... : ... .. . ... : ... .. . ... : ... .. . ... ...
ROW 39 : ... .. . ... ... ... : ... .. E ... ... ... : D-4 00 . ... : ... .. . ... : ... .. . ... ...
ROW 3A : ... .. . ... ... ... : ... .. D ... ... ... : ... .. . ... : ... .. . ... : ... .. . ... ...
ROW 3B : ... .. . ... ... ... : ... .. C ... ... ... : ... .. . ... : ... .. . ... : ... .. . ... ...
ROW 3C : ... .. . ... ... ... : ... .. B ... ... ... : ... .. . ... : ... .. . ... : ... .. . ... ...
ROW 3D : ... .. . ... ... ... : ... .. A ... ... ... : ... .. . ... : ... .. . ... : ... .. . ... ...
ROW 3E : ... .. . ... ... ... : ... .. 9 ... ... ... : ... .. . ... : ... .. . ... : ... .. . ... ...
ROW 3F : ... .. . ... ... ... : ... .. 8 ... ... ... : --- .. . ... : ... .. . ... : ... .. . ... ...
ROW 40 : ... .. . ... ... ... : ... .. 7 ... ... ... : ... .. . ... : ... .. . ... : ... .. . ... ...
ROW 41 : ... .. . ... ... ... : ... .. 6 ... ... ... : A-3 00 . ... : ... .. . ... : ... .. . ... ...
ROW 42 : ... .. . ... ... ... : ... .. 5 ... ... ... : ... .. . ... : ... .. . ... : ... .. . ... ...
ROW 43 : ... .. . ... ... ... : ... .. 4 ... ... ... : ... .. . ... : ... .. . ... : ... .. . ... ...
ROW 44 : ... .. . ... ... ... : ... .. 3 ... ... ... : ... .. . ... : ... .. . ... : ... .. . ... ...
ROW 45 : ... .. . ... ... ... : ... .. 2 ... ... ... : ... .. . ... : ... .. . ... : ... .. . ... ...
ROW 46 : ... .. . ... ... ... : ... .. 1 ... ... ... : ... .. . ... : ... .. . ... : ... .. . ... ...
ROW 47 : ... .. . ... ... ... : ... .. 0 ... ... ... : --- .. . ... : ... .. . ... : ... .. . ... ...
ROW 48 : ... .. . ... ... ... : F#3 00 F P7F ... ... : ... .. . ... : ... .. . ... : ... .. . ... ...
ROW 49 : ... .. . ... ... ... : ... .. E ... ... ... : A-3 00 . ... : ... .. . ... : ... .. . ... ...
ROW 4A : ... .. . ... ... ... : ... .. D ... ... ... : ... .. . ... : ... .. . ... : ... .. . ... ...
ROW 4B : ... .. . ... ... ... : ... .. C ... ... ... : ... .. . ... : ... .. . ... : ... .. . ... ...
ROW 4C : ... .. . ... ... ... : ... .. B ... ... ... : ... .. . ... : ... .. . ... : ... .. . ... ...
ROW 4D : ... .. . ... ... ... : ... .. A ... ... ... : ... .. . ... : ... .. . ... : ... .. . ... ...
ROW 4E : ... .. . ... ... ... : ... .. 9 ... ... ... : ... .. . ... : ... .. . ... : ... .. . ... ...
ROW 4F : ... .. . ... ... ... : ... .. 8 ... ... ... : --- .. . ... : ... .. . ... : ... .. . ... ...
ROW 50 : ... .. . ... ... ... : ... .. 7 ... ... ... : ... .. . ... : ... .. . ... : ... .. . ... ...
ROW 51 : ... .. . ... ... ... : ... .. 6 ... ... ... : D-4 00 . ... : ... .. . ... : ... .. . ... ...
ROW 52 : ... .. . ... ... ... : ... .. 5 ... ... ... : ... .. . ... : ... .. . ... : ... .. . ... ...
ROW 53 : ... .. . ... ... ... : ... .. 4 ... ... ... : ... .. . ... : ... .. . ... : ... .. . ... ...
ROW 54 : ... .. . ... ... ... : ... .. 3 ... ... ... : ... .. . ... : ... .. . ... : ... .. . ... ...
ROW 55 : ... .. . ... ... ... : ... .. 2 ... ... ... : ... .. . ... : ... .. . ... : ... .. . ... ...
ROW 56 : ... .. . ... ... ... : ... .. 1 ... ... ... : ... .. . ... : ... .. . ... : ... .. . ... ...
ROW 57 : ... .. . ... ... ... : ... .. 0 ... ... ... : --- .. . ... : ... .. . ... : ... .. . ... ...
ROW 58 : ... .. . ... ... ... : G#3 00 F P7F ... ... : ... .. . ... : ... .. . ... : ... .. . ... ...
ROW 59 : ... .. . ... ... ... : ... .. E ... ... ... : D-4 00 . ... : ... .. . ... : ... .. . ... ...
ROW 5A : ... .. . ... ... ... : ... .. D ... ... ... : ... .. . ... : ... .. . ... : ... .. . ... ...
ROW 5B : ... .. . ... ... ... : ... .. C ... ... ... : ... .. . ... : ... .. . ... : ... .. . ... ...
ROW 5C : ... .. . ... ... ... : ... .. B ... ... ... : ... .. . ... : ... .. . ... : ... .. . ... ...
ROW 5D : ... .. . ... ... ... : ... .. A ... ... ... : ... .. . ... : ... .. . ... : ... .. . ... ...
ROW 5E : ... .. . ... ... ... : ... .. 9 ... ... ... : ... .. . ... : ... .. . ... : ... .. . ... ...
ROW 5F : ... .. . ... ... ... : ... .. 8 ... ... ... : --- .. . ... : ... .. . ... : ... .. . ... ...
ROW 60 : ... .. . ... ... ... : F#3 00 F P7F ... ... : ... .. . ... : ... .. . ... : ... .. . ... ...
ROW 61 : ... .. . ... ... ... : ... .. E ... ... ... : E-3 00 . ... : ... .. . ... : ... .. . ... ...
ROW 62 : ... .. . ... ... ... : ... .. D ... ... ... : ... .. . ... : ... .. . ... : ... .. . ... ...
ROW 63 : ... .. . ... ... ... : ... .. C ... ... ... : ... .. . ... : ... .. . ... : ... .. . ... ...
ROW 64 : ... .. . ... ... ... : ... .. B ... ... ... : ... .. . ... : ... .. . ... : ... .. . ... ...
ROW 65 : ... .. . ... ... ... : ... .. A ... ... ... : ... .. . ... : ... .. . ... : ... .. . ... ...
ROW 66 : ... .. . ... ... ... : ... .. 9 ... ... ... : ... .. . ... : ... .. . ... : ... .. . ... ...
ROW 67 : ... .. . ... ... ... : ... .. 8 ... ... ... : --- .. . ... : ... .. . ... : ... .. . ... ...
ROW 68 : ... .. . ... ... ... : E-3 00 F P7F ... ... : ... .. . ... : ... .. . ... : ... .. . ... ...
ROW 69 : ... .. . ... ... ... : ... .. E ... ... ... : E-3 00 . ... : ... .. . ... : ... .. . ... ...
ROW 6A : ... .. . ... ... ... : ... .. D ... ... ... : ... .. . ... : ... .. . ... : ... .. . ... ...
ROW 6B : ... .. . ... ... ... : ... .. . ... ... ... : ... .. . ... : ... .. . ... : ... .. . ... ...
ROW 6C : ... .. . ... ... ... : ... .. . ... ... ... : ... .. . ... : ... .. . ... : ... .. . ... ...
ROW 6D : ... .. . ... ... ... : ... .. . ... ... ... : ... .. . ... : ... .. . ... : ... .. . ... ...
ROW 6E : ... .. . ... ... ... : ... .. . ... ... ... : ... .. . ... : ... .. . ... : ... .. . ... ...
ROW 6F : ... .. . ... ... ... : ... .. . ... ... ... : --- .. . ... : ... .. . ... : ... .. . ... ...
ROW 70 : ... .. . ... ... ... : ... .. . ... ... ... : ... .. . ... : ... .. . ... : ... .. . ... ...
ROW 71 : ... .. . ... ... ... : ... .. . ... ... ... : A-3 00 . ... : ... .. . ... : ... .. . ... ...
ROW 72 : ... .. . ... ... ... : ... .. . ... ... ... : ... .. . ... : ... .. . ... : ... .. . ... ...
ROW 73 : ... .. . ... ... ... : ... .. . ... ... ... : ... .. . ... : ... .. . ... : ... .. . ... ...
ROW 74 : ... .. . ... ... ... : ... .. . ... ... ... : ... .. . ... : ... .. . ... : ... .. . ... ...
ROW 75 : ... .. . ... ... ... : ... .. . ... ... ... : ... .. . ... : ... .. . ... : ... .. . ... ...
ROW 76 : ... .. . ... ... ... : ... .. . ... ... ... : ... .. . ... : ... .. . ... : ... .. . ... ...
ROW 77 : ... .. . ... ... ... : ... .. . ... ... ... : --- .. . ... : ... .. . ... : ... .. . ... ...
ROW 78 : ... .. . ... ... ... : ... .. . ... ... ... : ... .. . ... : ... .. . ... : ... .. . ... ...
ROW 79 : ... .. . ... ... ... : ... .. . ... ... ... : A-3 00 . ... : ... .. . ... : ... .. . ... ...
ROW 7A : ... .. . ... ... ... : ... .. . ... ... ... : ... .. . ... : ... .. . ... : ... .. . ... ...
ROW 7B : ... .. . ... ... ... : ... .. . ... ... ... : ... .. . ... : ... .. . ... : ... .. . ... ...
ROW 7C : ... .. . ... ... ... : ... .. . ... ... ... : ... .. . ... : ... .. . ... : ... .. . ... ...
ROW 7D : ... .. . ... ... ... : ... .. . ... ... ... : ... .. . ... : ... .. . ... : ... .. . ... ...
ROW 7E : ... .. . ... ... ... : ... .. . ... ... ... : ... .. . ... : ... .. . ... : ... .. . ... ...
ROW 7F : ... .. . ... ... ... : ... .. . ... ... ... : --- .. . ... : ... .. . ... : ... .. . ... ...
ROW 80 : ... .. . ... ... ... : ... .. . ... ... ... : ... .. . ... : ... .. . ... : ... .. . ... ...
ROW 81 : ... .. . ... ... ... : ... .. . ... ... ... : E-3 00 . ... : ... .. . ... : ... .. . ... ...
ROW 82 : ... .. . ... ... ... : ... .. . ... ... ... : ... .. . ... : ... .. . ... : ... .. . ... ...
ROW 83 : ... .. . ... ... ... : ... .. . ... ... ... : ... .. . ... : ... .. . ... : ... .. . ... ...
ROW 84 : ... .. . ... ... ... : ... .. . ... ... ... : ... .. . ... : ... .. . ... : ... .. . ... ...
ROW 85 : ... .. . ... ... ... : ... .. . ... ... ... : ... .. . ... : ... .. . ... : ... .. . ... ...
ROW 86 : ... .. . ... ... ... : ... .. . ... ... ... : ... .. . ... : ... .. . ... : ... .. . ... ...
ROW 87 : ... .. . ... ... ... : ... .. . ... ... ... : --- .. . ... : ... .. . ... : ... .. . ... ...
ROW 88 : ... .. . ... ... ... : ... .. . ... ... ... : ... .. . ... : ... .. . ... : ... .. . ... ...
ROW 89 : ... .. . ... ... ... : ... .. . ... ... ... : E-3 00 . ... : ... .. . ... : ... .. . ... ...
ROW 8A : ... .. . ... ... ... : ... .. . ... ... ... : ... .. . ... : ... .. . ... : ... .. . ... ...
ROW 8B : ... .. . ... ... ... : ... .. . ... ... ... : ... .. . ... : ... .. . ... : ... .. . ... ...
ROW 8C : ... .. . ... ... ... : ... .. . ... ... ... : ... .. . ... : ... .. . ... : ... .. . ... ...
ROW 8D : ... .. . ... ... ... : ... .. . ... ... ... : ... .. . ... : ... .. . ... : ... .. . ... ...
ROW 8E : ... .. . ... ... ... : ... .. . ... ... ... : ... .. . ... : ... .. . ... : ... .. . ... ...
ROW 8F : ... .. . ... ... ... : ... .. . ... ... ... : --- .. . ... : ... .. . ... : ... .. . ... ...
ROW 90 : ... .. . ... ... ... : ... .. . ... ... ... : ... .. . ... : ... .. . ... : ... .. . ... ...
ROW 91 : ... .. . ... ... ... : ... .. . ... ... ... : A-3 00 . ... : ... .. . ... : ... .. . ... ...
ROW 92 : ... .. . ... ... ... : ... .. . ... ... ... : ... .. . ... : ... .. . ... : ... .. . ... ...
ROW 93 : ... .. . ... ... ... : ... .. . ... ... ... : ... .. . ... : ... .. . ... : ... .. . ... ...
ROW 94 : ... .. . ... ... ... : ... .. . ... ... ... : ... .. . ... : ... .. . ... : ... .. . ... ...
ROW 95 : ... .. . ... ... ... : ... .. . ... ... ... : ... .. . ... : ... .. . ... : ... .. . ... ...
ROW 96 : ... .. . ... ... ... : ... .. . ... ... ... : ... .. . ... : ... .. . ... : ... .. . ... ...
ROW 97 : ... .. . ... ... ... : ... .. . ... ... ... : --- .. . ... : ... .. . ... : ... .. . ... ...
ROW 98 : ... .. . ... ... ... : ... .. . ... ... ... : ... .. . ... : ... .. . ... : ... .. . ... ...
ROW 99 : ... .. . ... ... ... : ... .. . ... ... ... : A-3 00 . ... : ... .. . ... : ... .. . ... ...
ROW 9A : ... .. . ... ... ... : ... .. . ... ... ... : ... .. . ... : ... .. . ... : ... .. . ... ...
ROW 9B : ... .. . ... ... ... : ... .. . ... ... ... : ... .. . ... : ... .. . ... : ... .. . ... ...
ROW 9C : ... .. . ... ... ... : ... .. . ... ... ... : ... .. . ... : ... .. . ... : ... .. . ... ...
ROW 9D : ... .. . ... ... ... : ... .. . ... ... ... : ... .. . ... : ... .. . ... : ... .. . ... ...
ROW 9E : ... .. . ... ... ... : ... .. . ... ... ... : ... .. . ... : ... .. . ... : ... .. . ... ...
ROW 9F : ... .. . ... ... ... : ... .. . ... ... ... : --- .. . ... : ... .. . ... : ... .. . ... ...
ROW A0 : ... .. . ... ... ... : ... .. . ... ... ... : ... .. . ... : ... .. . ... : ... .. . ... ...
ROW A1 : ... .. . ... ... ... : ... .. . ... ... ... : E-3 00 . ... : ... .. . ... : ... .. . ... ...
ROW A2 : ... .. . ... ... ... : ... .. . ... ... ... : ... .. . ... : ... .. . ... : ... .. . ... ...
ROW A3 : ... .. . ... ... ... : ... .. . ... ... ... : ... .. . ... : ... .. . ... : ... .. . ... ...
ROW A4 : ... .. . ... ... ... : ... .. . ... ... ... : ... .. . ... : ... .. . ... : ... .. . ... ...
ROW A5 : ... .. . ... ... ... : ... .. . ... ... ... : ... .. . ... : ... .. . ... : ... .. . ... ...
ROW A6 : ... .. . ... ... ... : ... .. . ... ... ... : ... .. . ... : ... .. . ... : ... .. . ... ...
ROW A7 : ... .. . ... ... ... : ... .. . ... ... ... : --- .. . ... : ... .. . ... : ... .. . ... ...
ROW A8 : ... .. . ... ... ... : ... .. . ... ... ... : ... .. . ... : ... .. . ... : ... .. . ... ...
ROW A9 : ... .. . ... ... ... : ... .. . ... ... ... : E-3 00 . ... : ... .. . ... : ... .. . ... ...
ROW AA : ... .. . ... ... ... : ... .. . ... ... ... : ... .. . ... : ... .. . ... : ... .. . ... ...
ROW AB : ... .. . ... ... ... : ... .. . ... ... ... : ... .. . ... : ... .. . ... : ... .. . ... ...
ROW AC : ... .. . ... ... ... : ... .. . ... ... ... : ... .. . ... : ... .. . ... : ... .. . ... ...
ROW AD : ... .. . ... ... ... : ... .. . ... ... ... : ... .. . ... : ... .. . ... : ... .. . ... ...
ROW AE : ... .. . ... ... ... : ... .. . ... ... ... : ... .. . ... : ... .. . ... : ... .. . ... ...
ROW AF : ... .. . ... ... ... : ... .. . ... ... ... : --- .. . ... : ... .. . ... : ... .. . ... ...
ROW B0 : ... .. . ... ... ... : ... .. . ... ... ... : ... .. . ... : ... .. . ... : ... .. . ... ...
ROW B1 : ... .. . ... ... ... : ... .. C ... ... ... : A-3 00 . ... : ... .. . ... : ... .. . ... ...
ROW B2 : ... .. . ... ... ... : ... .. B ... ... ... : ... .. . ... : ... .. . ... : ... .. . ... ...
ROW B3 : ... .. . ... ... ... : ... .. A ... ... ... : ... .. . ... : ... .. . ... : ... .. . ... ...
ROW B4 : ... .. . ... ... ... : ... .. 9 ... ... ... : ... .. . ... : ... .. . ... : ... .. . ... ...
ROW B5 : ... .. . ... ... ... : ... .. 8 ... ... ... : ... .. . ... : ... .. . ... : ... .. . ... ...
ROW B6 : ... .. . ... ... ... : ... .. 7 ... ... ... : ... .. . ... : ... .. . ... : ... .. . ... ...
ROW B7 : ... .. . ... ... ... : ... .. 6 ... ... ... : --- .. . ... : ... .. . ... : ... .. . ... ...
ROW B8 : ... .. . ... ... ... : ... .. 5 ... ... ... : ... .. . ... : ... .. . ... : ... .. . ... ...
ROW B9 : ... .. . ... ... ... : ... .. 4 ... ... ... : A-3 00 . ... : ... .. . ... : ... .. . ... ...
ROW BA : ... .. . ... ... ... : ... .. 3 ... ... ... : ... .. . ... : ... .. . ... : ... .. . ... ...
ROW BB : ... .. . ... ... ... : ... .. 2 ... ... ... : ... .. . ... : ... .. . ... : ... .. . ... ...
ROW BC : ... .. . ... ... ... : ... .. 1 ... ... ... : ... .. . ... : ... .. . ... : ... .. . ... ...
ROW BD : ... .. . ... ... ... : ... .. 0 ... ... ... : ... .. . ... : ... .. . ... : ... .. . ... ...
ROW BE : ... .. . ... ... ... : ... .. . ... ... ... : ... .. . ... : ... .. . ... : ... .. . ... ...
ROW BF : ... .. . ... ... ... : ... .. . ... ... ... : --- .. . ... : ... .. . ... : ... .. . ... ...
ROW C0 : ... .. . ... ... ... : C#3 00 F P80 ... ... : ... .. . ... : ... .. . ... : ... .. . ... ...
ROW C1 : ... .. . ... ... ... : ... .. E ... ... ... : E-3 00 . ... : ... .. . ... : ... .. . ... ...
ROW C2 : ... .. . ... ... ... : ... .. D ... ... ... : ... .. . ... : ... .. . ... : ... .. . ... ...
ROW C3 : ... .. . ... ... ... : ... .. C ... ... ... : ... .. . ... : ... .. . ... : ... .. . ... ...
ROW C4 : ... .. . ... ... ... : ... .. B ... ... ... : ... .. . ... : ... .. . ... : ... .. . ... ...
ROW C5 : ... .. . ... ... ... : ... .. A ... ... ... : ... .. . ... : ... .. . ... : ... .. . ... ...
ROW C6 : ... .. . ... ... ... : ... .. 9 ... ... ... : ... .. . ... : ... .. . ... : ... .. . ... ...
ROW C7 : ... .. . ... ... ... : ... .. 8 ... ... ... : --- .. . ... : ... .. . ... : ... .. . ... ...
ROW C8 : ... .. . ... ... ... : D#3 00 F P80 ... ... : ... .. . ... : ... .. . ... : ... .. . ... ...
ROW C9 : ... .. . ... ... ... : ... .. E ... ... ... : E-3 00 . ... : ... .. . ... : ... .. . ... ...
ROW CA : ... .. . ... ... ... : ... .. D ... ... ... : ... .. . ... : ... .. . ... : ... .. . ... ...
ROW CB : ... .. . ... ... ... : ... .. C ... ... ... : ... .. . ... : ... .. . ... : ... .. . ... ...
ROW CC : ... .. . ... ... ... : ... .. B ... ... ... : ... .. . ... : ... .. . ... : ... .. . ... ...
ROW CD : ... .. . ... ... ... : ... .. A ... ... ... : ... .. . ... : ... .. . ... : ... .. . ... ...
ROW CE : ... .. . ... ... ... : ... .. 9 ... ... ... : ... .. . ... : ... .. . ... : ... .. . ... ...
ROW CF : ... .. . ... ... ... : ... .. 8 ... ... ... : --- .. . ... : ... .. . ... : ... .. . ... ...
ROW D0 : ... .. . ... ... ... : E-3 00 F P7F ... ... : ... .. . ... : ... .. . ... : ... .. . ... ...
ROW D1 : ... .. . ... ... ... : ... .. E ... ... ... : A-3 00 . ... : ... .. . ... : ... .. . ... ...
ROW D2 : ... .. . ... ... ... : ... .. D ... ... ... : ... .. . ... : ... .. . ... : ... .. . ... ...
ROW D3 : ... .. . ... ... ... : ... .. C ... ... ... : ... .. . ... : ... .. . ... : ... .. . ... ...
ROW D4 : ... .. . ... ... ... : ... .. B ... ... ... : ... .. . ... : ... .. . ... : ... .. . ... ...
ROW D5 : ... .. . ... ... ... : ... .. A ... ... ... : ... .. . ... : ... .. . ... : ... .. . ... ...
ROW D6 : ... .. . ... ... ... : ... .. 9 ... ... ... : ... .. . ... : ... .. . ... : ... .. . ... ...
ROW D7 : ... .. . ... ... ... : ... .. 8 ... ... ... : --- .. . ... : ... .. . ... : ... .. . ... ...
ROW D8 : ... .. . ... ... ... : F#3 00 F P7F ... ... : ... .. . ... : ... .. . ... : ... .. . ... ...
ROW D9 : ... .. . ... ... ... : ... .. E ... ... ... : A-3 00 . ... : ... .. . ... : ... .. . ... ...
ROW DA : ... .. . ... ... ... : ... .. D ... ... ... : ... .. . ... : ... .. . ... : ... .. . ... ...
ROW DB : ... .. . ... ... ... : ... .. C ... ... ... : ... .. . ... : ... .. . ... : ... .. . ... ...
ROW DC : ... .. . ... ... ... : ... .. B ... ... ... : ... .. . ... : ... .. . ... : ... .. . ... ...
ROW DD : ... .. . ... ... ... : ... .. A ... ... ... : ... .. . ... : ... .. . ... : ... .. . ... ...
ROW DE : ... .. . ... ... ... : ... .. 9 ... ... ... : ... .. . ... : ... .. . ... : ... .. . ... ...
ROW DF : ... .. . ... ... ... : ... .. 8 ... ... ... : --- .. . ... : ... .. . ... : ... .. . ... ...
ROW E0 : ... .. . ... ... ... : ... .. 7 ... ... ... : ... .. . ... : ... .. . ... : ... .. . ... ...
ROW E1 : ... .. . ... ... ... : ... .. 6 ... ... ... : E-3 00 . ... : ... .. . ... : ... .. . ... ...
ROW E2 : ... .. . ... ... ... : ... .. 5 ... ... ... : ... .. . ... : ... .. . ... : ... .. . ... ...
ROW E3 : ... .. . ... ... ... : ... .. 4 ... ... ... : ... .. . ... : ... .. . ... : ... .. . ... ...
ROW E4 : ... .. . ... ... ... : ... .. 3 ... ... ... : ... .. . ... : ... .. . ... : ... .. . ... ...
ROW E5 : ... .. . ... ... ... : ... .. 2 ... ... ... : ... .. . ... : ... .. . ... : ... .. . ... ...
ROW E6 : ... .. . ... ... ... : ... .. 1 ... ... ... : ... .. . ... : ... .. . ... : ... .. . ... ...
ROW E7 : ... .. . ... ... ... : ... .. 0 ... ... ... : --- .. . ... : ... .. . ... : ... .. . ... ...
ROW E8 : ... .. . ... ... ... : E-3 00 F P7F ... ... : ... .. . ... : ... .. . ... : ... .. . ... ...
ROW E9 : ... .. . ... ... ... : ... .. E ... ... ... : E-3 00 . ... : ... .. . ... : ... .. . ... ...
ROW EA : ... .. . ... ... ... : ... .. D ... ... ... : ... .. . ... : ... .. . ... : ... .. . ... ...
ROW EB : ... .. . ... ... ... : ... .. C ... ... ... : ... .. . ... : ... .. . ... : ... .. . ... ...
ROW EC : ... .. . ... ... ... : ... .. B ... ... ... : ... .. . ... : ... .. . ... : ... .. . ... ...
ROW ED : ... .. . ... ... ... : ... .. A ... ... ... : ... .. . ... : ... .. . ... : ... .. . ... ...
ROW EE : ... .. . ... ... ... : ... .. 9 ... ... ... : ... .. . ... : ... .. . ... : ... .. . ... ...
ROW EF : ... .. . ... ... ... : ... .. 8 ... ... ... : --- .. . ... : ... .. . ... : ... .. . ... ...
ROW F0 : ... .. . ... ... ... : D#3 00 F P80 ... ... : ... .. . ... : ... .. . ... : ... .. . ... ...
ROW F1 : ... .. . ... ... ... : ... .. E ... ... ... : A-3 00 . ... : ... .. . ... : ... .. . ... ...
ROW F2 : ... .. . ... ... ... : ... .. D ... ... ... : ... .. . ... : ... .. . ... : ... .. . ... ...
ROW F3 : ... .. . ... ... ... : ... .. C ... ... ... : ... .. . ... : ... .. . ... : ... .. . ... ...
ROW F4 : ... .. . ... ... ... : ... .. B ... ... ... : ... .. . ... : ... .. . ... : ... .. . ... ...
ROW F5 : ... .. . ... ... ... : ... .. A ... ... ... : ... .. . ... : ... .. . ... : ... .. . ... ...
ROW F6 : ... .. . ... ... ... : ... .. 9 ... ... ... : ... .. . ... : ... .. . ... : ... .. . ... ...
ROW F7 : ... .. . ... ... ... : ... .. 8 ... ... ... : --- .. . ... : ... .. . ... : ... .. . ... ...
ROW F8 : ... .. . ... ... ... : C#3 00 F P80 ... ... : ... .. . ... : ... .. . ... : ... .. . ... ...
ROW F9 : ... .. . ... ... ... : ... .. E ... ... ... : A-3 00 . ... : ... .. . ... : ... .. . ... ...
ROW FA : ... .. . ... ... ... : ... .. D ... ... ... : ... .. . ... : ... .. . ... : ... .. . ... ...
ROW FB : ... .. . ... ... ... : ... .. C ... ... ... : ... .. . ... : ... .. . ... : ... .. . ... ...
ROW FC : ... .. . ... ... ... : ... .. B ... ... ... : ... .. . ... : ... .. . ... : ... .. . ... ...
ROW FD : ... .. . ... ... ... : ... .. A ... ... ... : ... .. . ... : ... .. . ... : ... .. . ... ...
ROW FE : ... .. . ... ... ... : ... .. 9 ... ... ... : ... .. . ... : ... .. . ... : ... .. . ... ...
ROW FF : ... .. . ... ... ... : ... .. 8 ... ... ... : --- .. . ... : ... .. . ... : ... .. . ... ...

PATTERN 08
ROW 00 : ... .. . ... ... ... : G#3 00 F P7F ... ... : ... .. . ... : ... .. . ... : ... .. . ... ...
ROW 01 : ... .. . ... ... ... : ... .. E ... ... ... : B-3 00 . ... : ... .. . ... : ... .. . ... ...
ROW 02 : ... .. . ... ... ... : ... .. D ... ... ... : ... .. . ... : ... .. . ... : ... .. . ... ...
ROW 03 : ... .. . ... ... ... : ... .. C ... ... ... : ... .. . ... : ... .. . ... : ... .. . ... ...
ROW 04 : ... .. . ... ... ... : ... .. B ... ... ... : ... .. . ... : ... .. . ... : ... .. . ... ...
ROW 05 : ... .. . ... ... ... : ... .. A ... ... ... : ... .. . ... : ... .. . ... : ... .. . ... ...
ROW 06 : ... .. . ... ... ... : ... .. 9 ... ... ... : ... .. . ... : ... .. . ... : ... .. . ... ...
ROW 07 : ... .. . ... ... ... : ... .. 8 ... ... ... : --- .. . ... : ... .. . ... : ... .. . ... ...
ROW 08 : ... .. . ... ... ... : F#3 00 F P7F ... ... : ... .. . ... : ... .. . ... : ... .. . ... ...
ROW 09 : ... .. . ... ... ... : ... .. E ... ... ... : B-3 00 . ... : ... .. . ... : ... .. . ... ...
ROW 0A : ... .. . ... ... ... : ... .. D ... ... ... : ... .. . ... : ... .. . ... : ... .. . ... ...
ROW 0B : ... .. . ... ... ... : ... .. C ... ... ... : ... .. . ... : ... .. . ... : ... .. . ... ...
ROW 0C : ... .. . ... ... ... : ... .. B ... ... ... : ... .. . ... : ... .. . ... : ... .. . ... ...
ROW 0D : ... .. . ... ... ... : ... .. A ... ... ... : ... .. . ... : ... .. . ... : ... .. . ... ...
ROW 0E : ... .. . ... ... ... : ... .. 9 ... ... ... : ... .. . ... : ... .. . ... : ... .. . ... ...
ROW 0F : ... .. . ... ... ... : ... .. 8 ... ... ... : --- .. . ... : ... .. . ... : ... .. . ... ...
ROW 10 : ... .. . ... ... ... : G#3 00 F P7F ... ... : ... .. . ... : ... .. . ... : ... .. . ... ...
ROW 11 : ... .. . ... ... ... : ... .. E ... ... ... : E-4 00 . P80 : ... .. . ... : ... .. . ... ...
ROW 12 : ... .. . ... ... ... : ... .. D ... ... ... : ... .. . ... : ... .. . ... : ... .. . ... ...
ROW 13 : ... .. . ... ... ... : ... .. C ... ... ... : ... .. . ... : ... .. . ... : ... .. . ... ...
ROW 14 : ... .. . ... ... ... : ... .. B ... ... ... : ... .. . ... : ... .. . ... : ... .. . ... ...
ROW 15 : ... .. . ... ... ... : ... .. A ... ... ... : ... .. . ... : ... .. . ... : ... .. . ... ...
ROW 16 : ... .. . ... ... ... : ... .. 9 ... ... ... : ... .. . ... : ... .. . ... : ... .. . ... ...
ROW 17 : ... .. . ... ... ... : ... .. 8 ... ... ... : --- .. . ... : ... .. . ... : ... .. . ... ...
ROW 18 : ... .. . ... ... ... : A#3 00 F P7F ... ... : ... .. . ... : ... .. . ... : ... .. . ... ...
ROW 19 : ... .. . ... ... ... : ... .. E ... ... ... : E-4 00 . ... : ... .. . ... : ... .. . ... ...
ROW 1A : ... .. . ... ... ... : ... .. D ... ... ... : ... .. . ... : ... .. . ... : ... .. . ... ...
ROW 1B : ... .. . ... ... ... : ... .. C ... ... ... : ... .. . ... : ... .. . ... : ... .. . ... ...
ROW 1C : ... .. . ... ... ... : ... .. B ... ... ... : ... .. . ... : ... .. . ... : ... .. . ... ...
ROW 1D : ... .. . ... ... ... : ... .. A ... ... ... : ... .. . ... : ... .. . ... : ... .. . ... ...
ROW 1E : ... .. . ... ... ... : ... .. 9 ... ... ... : ... .. . ... : ... .. . ... : ... .. . ... ...
ROW 1F : ... .. . ... ... ... : ... .. 8 ... ... ... : --- .. . ... : ... .. . ... : ... .. . ... ...
ROW 20 : ... .. . ... ... ... : ... .. 7 ... ... ... : ... .. . ... : ... .. . ... : ... .. . ... ...
ROW 21 : ... .. . ... ... ... : ... .. 6 ... ... ... : B-3 00 . P7F : ... .. . ... : ... .. . ... ...
ROW 22 : ... .. . ... ... ... : ... .. 5 ... ... ... : ... .. . ... : ... .. . ... : ... .. . ... ...
ROW 23 : ... .. . ... ... ... : ... .. 4 ... ... ... : ... .. . ... : ... .. . ... : ... .. . ... ...
ROW 24 : ... .. . ... ... ... : ... .. 3 ... ... ... : ... .. . ... : ... .. . ... : ... .. . ... ...
ROW 25 : ... .. . ... ... ... : ... .. 2 ... ... ... : ... .. . ... : ... .. . ... : ... .. . ... ...
ROW 26 : ... .. . ... ... ... : ... .. 1 ... ... ... : ... .. . ... : ... .. . ... : ... .. . ... ...
ROW 27 : ... .. . ... ... ... : ... .. 0 ... ... ... : --- .. . ... : ... .. . ... : ... .. . ... ...
ROW 28 : ... .. . ... ... ... : B-3 00 F P7F ... ... : ... .. . ... : ... .. . ... : ... .. . ... ...
ROW 29 : ... .. . ... ... ... : ... .. E ... ... ... : B-3 00 . ... : ... .. . ... : ... .. . ... ...
ROW 2A : ... .. . ... ... ... : ... .. D ... ... ... : ... .. . ... : ... .. . ... : ... .. . ... ...
ROW 2B : ... .. . ... ... ... : ... .. C ... ... ... : ... .. . ... : ... .. . ... : ... .. . ... ...
ROW 2C : ... .. . ... ... ... : ... .. B ... ... ... : ... .. . ... : ... .. . ... : ... .. . ... ...
ROW 2D : ... .. . ... ... ... : ... .. A ... ... ... : ... .. . ... : ... .. . ... : ... .. . ... ...
ROW 2E : ... .. . ... ... ... : ... .. 9 ... ... ... : ... .. . ... : ... .. . ... : ... .. . ... ...
ROW 2F : ... .. . ... ... ... : ... .. 8 ... ... ... : --- .. . ... : ... .. . ... : ... .. . ... ...
ROW 30 : ... .. . ... ... ... : ... .. 7 ... ... ... : ... .. . ... : ... .. . ... : ... .. . ... ...
ROW 31 : ... .. . ... ... ... : ... .. 6 ... ... ... : E-4 00 . P80 : ... .. . ... : ... .. . ... ...
ROW 32 : ... .. . ... ... ... : ... .. 5 ... ... ... : ... .. . ... : ... .. . ... : ... .. . ... ...
ROW 33 : ... .. . ... ... ... : ... .. 4 ... ... ... : ... .. . ... : ... .. . ... : ... .. . ... ...
ROW 34 : ... .. . ... ... ... : ... .. 3 ... ... ... : ... .. . ... : ... .. . ... : ... .. . ... ...
ROW 35 : ... .. . ... ... ... : ... .. 2 ... ... ... : ... .. . ... : ... .. . ... : ... .. . ... ...
ROW 36 : ... .. . ... ... ... : ... .. 1 ... ... ... : ... .. . ... : ... .. . ... : ... .. . ... ...
ROW 37 : ... .. . ... ... ... : ... .. 0 ... ... ... : --- .. . ... : ... .. . ... : ... .. . ... ...
ROW 38 : ... .. . ... ... ... : A#3 00 F P7F ... ... : ... .. . ... : ... .. . ... : ... .. . ... ...
ROW 39 : ... .. . ... ... ... : ... .. E ... ... ... : E-4 00 . ... : ... .. . ... : ... .. . ... ...
ROW 3A : ... .. . ... ... ... : ... .. D ... ... ... : ... .. . ... : ... .. . ... : ... .. . ... ...
ROW 3B : ... .. . ... ... ... : ... .. C ... ... ... : ... .. . ... : ... .. . ... : ... .. . ... ...
ROW 3C : ... .. . ... ... ... : ... .. B ... ... ... : ... .. . ... : ... .. . ... : ... .. . ... ...
ROW 3D : ... .. . ... ... ... : ... .. A ... ... ... : ... .. . ... : ... .. . ... : ... .. . ... ...
ROW 3E : ... .. . ... ... ... : ... .. 9 ... ... ... : ... .. . ... : ... .. . ... : ... .. . ... ...
ROW 3F : ... .. . ... ... ... : ... .. 8 ... ... ... : --- .. . ... : ... .. . ... : ... .. . ... ...
ROW 40 : ... .. . ... ... ... : ... .. 7 ... ... ... : ... .. . ... : ... .. . ... : ... .. . ... ...
ROW 41 : ... .. . ... ... ... : ... .. 6 ... ... ... : B-3 00 . P7F : ... .. . ... : ... .. . ... ...
ROW 42 : ... .. . ... ... ... : ... .. 5 ... ... ... : ... .. . ... : ... .. . ... : ... .. . ... ...
ROW 43 : ... .. . ... ... ... : ... .. 4 ... ... ... : ... .. . ... : ... .. . ... : ... .. . ... ...
ROW 44 : ... .. . ... ... ... : ... .. 3 ... ... ... : ... .. . ... : ... .. . ... : ... .. . ... ...
ROW 45 : ... .. . ... ... ... : ... .. 2 ... ... ... : ... .. . ... : ... .. . ... : ... .. . ... ...
ROW 46 : ... .. . ... ... ... : ... .. 1 ... ... ... : ... .. . ... : ... .. . ... : ... .. . ... ...
ROW 47 : ... .. . ... ... ... : ... .. 0 ... ... ... : --- .. . ... : ... .. . ... : ... .. . ... ...
ROW 48 : ... .. . ... ... ... : G#3 00 F P7F ... ... : ... .. . ... : ... .. . ... : ... .. . ... ...
ROW 49 : ... .. . ... ... ... : ... .. E ... ... ... : B-3 00 . ... : ... .. . ... : ... .. . ... ...
ROW 4A : ... .. . ... ... ... : ... .. D ... ... ... : ... .. . ... : ... .. . ... : ... .. . ... ...
ROW 4B : ... .. . ... ... ... : ... .. C ... ... ... : ... .. . ... : ... .. . ... : ... .. . ... ...
ROW 4C : ... .. . ... ... ... : ... .. B ... ... ... : ... .. . ... : ... .. . ... : ... .. . ... ...
ROW 4D : ... .. . ... ... ... : ... .. A ... ... ... : ... .. . ... : ... .. . ... : ... .. . ... ...
ROW 4E : ... .. . ... ... ... : ... .. 9 ... ... ... : ... .. . ... : ... .. . ... : ... .. . ... ...
ROW 4F : ... .. . ... ... ... : ... .. 8 ... ... ... : --- .. . ... : ... .. . ... : ... .. . ... ...
ROW 50 : ... .. . ... ... ... : ... .. 7 ... ... ... : ... .. . ... : ... .. . ... : ... .. . ... ...
ROW 51 : ... .. . ... ... ... : ... .. 6 ... ... ... : E-4 00 . P80 : ... .. . ... : ... .. . ... ...
ROW 52 : ... .. . ... ... ... : ... .. 5 ... ... ... : ... .. . ... : ... .. . ... : ... .. . ... ...
ROW 53 : ... .. . ... ... ... : ... .. 4 ... ... ... : ... .. . ... : ... .. . ... : ... .. . ... ...
ROW 54 : ... .. . ... ... ... : ... .. 3 ... ... ... : ... .. . ... : ... .. . ... : ... .. . ... ...
ROW 55 : ... .. . ... ... ... : ... .. 2 ... ... ... : ... .. . ... : ... .. . ... : ... .. . ... ...
ROW 56 : ... .. . ... ... ... : ... .. 1 ... ... ... : ... .. . ... : ... .. . ... : ... .. . ... ...
ROW 57 : ... .. . ... ... ... : ... .. 0 ... ... ... : --- .. . ... : ... .. . ... : ... .. . ... ...
ROW 58 : ... .. . ... ... ... : F#3 00 F P7F ... ... : ... .. . ... : ... .. . ... : ... .. . ... ...
ROW 59 : ... .. . ... ... ... : ... .. E ... ... ... : E-4 00 . ... : ... .. . ... : ... .. . ... ...
ROW 5A : ... .. . ... ... ... : ... .. D ... ... ... : ... .. . ... : ... .. . ... : ... .. . ... ...
ROW 5B : ... .. . ... ... ... : ... .. C ... ... ... : ... .. . ... : ... .. . ... : ... .. . ... ...
ROW 5C : ... .. . ... ... ... : ... .. B ... ... ... : ... .. . ... : ... .. . ... : ... .. . ... ...
ROW 5D : ... .. . ... ... ... : ... .. A ... ... ... : ... .. . ... : ... .. . ... : ... .. . ... ...
ROW 5E : ... .. . ... ... ... : ... .. 9 ... ... ... : ... .. . ... : ... .. . ... : ... .. . ... ...
ROW 5F : ... .. . ... ... ... : ... .. 8 ... ... ... : --- .. . ... : ... .. . ... : ... .. . ... ...
ROW 60 : ... .. . ... ... ... : G#3 00 F P7F ... ... : ... .. . ... : ... .. . ... : ... .. . ... ...
ROW 61 : ... .. . ... ... ... : ... .. E ... ... ... : B-3 00 . P7F : ... .. . ... : ... .. . ... ...
ROW 62 : ... .. . ... ... ... : ... .. D ... ... ... : ... .. . ... : ... .. . ... : ... .. . ... ...
ROW 63 : ... .. . ... ... ... : ... .. C ... ... ... : ... .. . ... : ... .. . ... : ... .. . ... ...
ROW 64 : ... .. . ... ... ... : ... .. B ... ... ... : ... .. . ... : ... .. . ... : ... .. . ... ...
ROW 65 : ... .. . ... ... ... : ... .. A ... ... ... : ... .. . ... : ... .. . ... : ... .. . ... ...
ROW 66 : ... .. . ... ... ... : ... .. 9 ... ... ... : ... .. . ... : ... .. . ... : ... .. . ... ...
ROW 67 : ... .. . ... ... ... : ... .. 8 ... ... ... : --- .. . ... : ... .. . ... : ... .. . ... ...
ROW 68 : ... .. . ... ... ... : F#3 00 F P7F ... ... : ... .. . ... : ... .. . ... : ... .. . ... ...
ROW 69 : ... .. . ... ... ... : ... .. E ... ... ... : B-3 00 . ... : ... .. . ... : ... .. . ... ...
ROW 6A : ... .. . ... ... ... : ... .. D ... ... ... : ... .. . ... : ... .. . ... : ... .. . ... ...
ROW 6B : ... .. . ... ... ... : ... .. C ... ... ... : ... .. . ... : ... .. . ... : ... .. . ... ...
ROW 6C : ... .. . ... ... ... : ... .. B ... ... ... : ... .. . ... : ... .. . ... : ... .. . ... ...
ROW 6D : ... .. . ... ... ... : ... .. A ... ... ... : ... .. . ... : ... .. . ... : ... .. . ... ...
ROW 6E : ... .. . ... ... ... : ... .. 9 ... ... ... : ... .. . ... : ... .. . ... : ... .. . ... ...
ROW 6F : ... .. . ... ... ... : ... .. 8 ... ... ... : --- .. . ... : ... .. . ... : ... .. . ... ...
ROW 70 : ... .. . ... ... ... : G#3 00 F P7F ... ... : ... .. . ... : ... .. . ... : ... .. . ... ...
ROW 71 : ... .. . ... ... ... : ... .. E ... ... ... : E-4 00 . P80 : ... .. . ... : ... .. . ... ...
ROW 72 : ... .. . ... ... ... : ... .. D ... ... ... : ... .. . ... : ... .. . ... : ... .. . ... ...
ROW 73 : ... .. . ... ... ... : ... .. C ... ... ... : ... .. . ... : ... .. . ... : ... .. . ... ...
ROW 74 : ... .. . ... ... ... : ... .. B ... ... ... : ... .. . ... : ... .. . ... : ... .. . ... ...
ROW 75 : ... .. . ... ... ... : ... .. A ... ... ... : ... .. . ... : ... .. . ... : ... .. . ... ...
ROW 76 : ... .. . ... ... ... : ... .. 9 ... ... ... : ... .. . ... : ... .. . ... : ... .. . ... ...
ROW 77 : ... .. . ... ... ... : ... .. 8 ... ... ... : --- .. . ... : ... .. . ... : ... .. . ... ...
ROW 78 : ... .. . ... ... ... : E-3 00 F P7F ... ... : ... .. . ... : ... .. . ... : ... .. . ... ...
ROW 79 : ... .. . ... ... ... : ... .. E ... ... ... : E-4 00 . ... : ... .. . ... : ... .. . ... ...
ROW 7A : ... .. . ... ... ... : ... .. D ... ... ... : ... .. . ... : ... .. . ... : ... .. . ... ...
ROW 7B : ... .. . ... ... ... : ... .. C ... ... ... : ... .. . ... : ... .. . ... : ... .. . ... ...
ROW 7C : ... .. . ... ... ... : ... .. B ... ... ... : ... .. . ... : ... .. . ... : ... .. . ... ...
ROW 7D : ... .. . ... ... ... : ... .. A ... ... ... : ... .. . ... : ... .. . ... : ... .. . ... ...
ROW 7E : ... .. . ... ... ... : ... .. 9 ... ... ... : ... .. . ... : ... .. . ... : ... .. . ... ...
ROW 7F : ... .. . ... ... ... : ... .. 8 ... ... ... : --- .. . ... : ... .. . ... : ... .. . ... ...
ROW 80 : ... .. . ... ... ... : G#3 00 F P7F ... ... : ... .. . ... : ... .. . ... : ... .. . ... ...
ROW 81 : ... .. . ... ... ... : ... .. E ... ... ... : B-3 00 . P7F : ... .. . ... : ... .. . ... ...
ROW 82 : ... .. . ... ... ... : ... .. D ... ... ... : ... .. . ... : ... .. . ... : ... .. . ... ...
ROW 83 : ... .. . ... ... ... : ... .. C ... ... ... : ... .. . ... : ... .. . ... : ... .. . ... ...
ROW 84 : ... .. . ... ... ... : ... .. B ... ... ... : ... .. . ... : ... .. . ... : ... .. . ... ...
ROW 85 : ... .. . ... ... ... : ... .. A ... ... ... : ... .. . ... : ... .. . ... : ... .. . ... ...
ROW 86 : ... .. . ... ... ... : ... .. 9 ... ... ... : ... .. . ... : ... .. . ... : ... .. . ... ...
ROW 87 : ... .. . ... ... ... : ... .. 8 ... ... ... : --- .. . ... : ... .. . ... : ... .. . ... ...
ROW 88 : ... .. . ... ... ... : F#3 00 F P7F ... ... : ... .. . ... : ... .. . ... : ... .. . ... ...
ROW 89 : ... .. . ... ... ... : ... .. E ... ... ... : B-3 00 . ... : ... .. . ... : ... .. . ... ...
ROW 8A : ... .. . ... ... ... : ... .. D ... ... ... : ... .. . ... : ... .. . ... : ... .. . ... ...
ROW 8B : ... .. . ... ... ... : ... .. C ... ... ... : ... .. . ... : ... .. . ... : ... .. . ... ...
ROW 8C : ... .. . ... ... ... : ... .. B ... ... ... : ... .. . ... : ... .. . ... : ... .. . ... ...
ROW 8D : ... .. . ... ... ... : ... .. A ... ... ... : ... .. . ... : ... .. . ... : ... .. . ... ...
ROW 8E : ... .. . ... ... ... : ... .. 9 ... ... ... : ... .. . ... : ... .. . ... : ... .. . ... ...
ROW 8F : ... .. . ... ... ... : ... .. 8 ... ... ... : --- .. . ... : ... .. . ... : ... .. . ... ...
ROW 90 : ... .. . ... ... ... : G#3 00 F P7F ... ... : ... .. . ... : ... .. . ... : ... .. . ... ...
ROW 91 : ... .. . ... ... ... : ... .. E ... ... ... : E-4 00 . P80 : ... .. . ... : ... .. . ... ...
ROW 92 : ... .. . ... ... ... : ... .. D ... ... ... : ... .. . ... : ... .. . ... : ... .. . ... ...
ROW 93 : ... .. . ... ... ... : ... .. C ... ... ... : ... .. . ... : ... .. . ... : ... .. . ... ...
ROW 94 : ... .. . ... ... ... : ... .. B ... ... ... : ... .. . ... : ... .. . ... : ... .. . ... ...
ROW 95 : ... .. . ... ... ... : ... .. A ... ... ... : ... .. . ... : ... .. . ... : ... .. . ... ...
ROW 96 : ... .. . ... ... ... : ... .. 9 ... ... ... : ... .. . ... : ... .. . ... : ... .. . ... ...
ROW 97 : ... .. . ... ... ... : ... .. 8 ... ... ... : --- .. . ... : ... .. . ... : ... .. . ... ...
ROW 98 : ... .. . ... ... ... : A#3 00 F P7F ... ... : ... .. . ... : ... .. . ... : ... .. . ... ...
ROW 99 : ... .. . ... ... ... : ... .. E ... ... ... : E-4 00 . ... : ... .. . ... : ... .. . ... ...
ROW 9A : ... .. . ... ... ... : ... .. D ... ... ... : ... .. . ... : ... .. . ... : ... .. . ... ...
ROW 9B : ... .. . ... ... ... : ... .. C ... ... ... : ... .. . ... : ... .. . ... : ... .. . ... ...
ROW 9C : ... .. . ... ... ... : ... .. B ... ... ... : ... .. . ... : ... .. . ... : ... .. . ... ...
ROW 9D : ... .. . ... ... ... : ... .. A ... ... ... : ... .. . ... : ... .. . ... : ... .. . ... ...
ROW 9E : ... .. . ... ... ... : ... .. 9 ... ... ... : ... .. . ... : ... .. . ... : ... .. . ... ...
ROW 9F : ... .. . ... ... ... : ... .. 8 ... ... ... : --- .. . ... : ... .. . ... : ... .. . ... ...
ROW A0 : ... .. . ... ... ... : ... .. 7 ... ... ... : ... .. . ... : ... .. . ... : ... .. . ... ...
ROW A1 : ... .. . ... ... ... : ... .. 6 ... ... ... : B-3 00 . P7F : ... .. . ... : ... .. . ... ...
ROW A2 : ... .. . ... ... ... : ... .. 5 ... ... ... : ... .. . ... : ... .. . ... : ... .. . ... ...
ROW A3 : ... .. . ... ... ... : ... .. 4 ... ... ... : ... .. . ... : ... .. . ... : ... .. . ... ...
ROW A4 : ... .. . ... ... ... : ... .. 3 ... ... ... : ... .. . ... : ... .. . ... : ... .. . ... ...
ROW A5 : ... .. . ... ... ... : ... .. 2 ... ... ... : ... .. . ... : ... .. . ... : ... .. . ... ...
ROW A6 : ... .. . ... ... ... : ... .. 1 ... ... ... : ... .. . ... : ... .. . ... : ... .. . ... ...
ROW A7 : ... .. . ... ... ... : ... .. 0 ... ... ... : --- .. . ... : ... .. . ... : ... .. . ... ...
ROW A8 : ... .. . ... ... ... : B-3 00 F P7F ... ... : ... .. . ... : ... .. . ... : ... .. . ... ...
ROW A9 : ... .. . ... ... ... : ... .. E ... ... ... : B-3 00 . ... : ... .. . ... : ... .. . ... ...
ROW AA : ... .. . ... ... ... : ... .. D ... ... ... : ... .. . ... : ... .. . ... : ... .. . ... ...
ROW AB : ... .. . ... ... ... : ... .. C ... ... ... : ... .. . ... : ... .. . ... : ... .. . ... ...
ROW AC : ... .. . ... ... ... : ... .. B ... ... ... : ... .. . ... : ... .. . ... : ... .. . ... ...
ROW AD : ... .. . ... ... ... : ... .. A ... ... ... : ... .. . ... : ... .. . ... : ... .. . ... ...
ROW AE : ... .. . ... ... ... : ... .. 9 ... ... ... : ... .. . ... : ... .. . ... : ... .. . ... ...
ROW AF : ... .. . ... ... ... : ... .. 8 ... ... ... : --- .. . ... : ... .. . ... : ... .. . ... ...
ROW B0 : ... .. . ... ... ... : ... .. 7 ... ... ... : ... .. . ... : ... .. . ... : ... .. . ... ...
ROW B1 : ... .. . ... ... ... : ... .. 6 ... ... ... : E-4 00 . P80 : ... .. . ... : ... .. . ... ...
ROW B2 : ... .. . ... ... ... : ... .. 5 ... ... ... : ... .. . ... : ... .. . ... : ... .. . ... ...
ROW B3 : ... .. . ... ... ... : ... .. 4 ... ... ... : ... .. . ... : ... .. . ... : ... .. . ... ...
ROW B4 : ... .. . ... ... ... : ... .. 3 ... ... ... : ... .. . ... : ... .. . ... : ... .. . ... ...
ROW B5 : ... .. . ... ... ... : ... .. 2 ... ... ... : ... .. . ... : ... .. . ... : ... .. . ... ...
ROW B6 : ... .. . ... ... ... : ... .. 1 ... ... ... : ... .. . ... : ... .. . ... : ... .. . ... ...
ROW B7 : ... .. . ... ... ... : ... .. 0 ... ... ... : --- .. . ... : ... .. . ... : ... .. . ... ...
ROW B8 : ... .. . ... ... ... : A#3 00 F P7F ... ... : ... .. . ... : ... .. . ... : ... .. . ... ...
ROW B9 : ... .. . ... ... ... : ... .. E ... ... ... : E-4 00 . ... : ... .. . ... : ... .. . ... ...
ROW BA : ... .. . ... ... ... : ... .. D ... ... ... : ... .. . ... : ... .. . ... : ... .. . ... ...
ROW BB : ... .. . ... ... ... : ... .. C ... ... ... : ... .. . ... : ... .. . ... : ... .. . ... ...
ROW BC : ... .. . ... ... ... : ... .. B ... ... ... : ... .. . ... : ... .. . ... : ... .. . ... ...
ROW BD : ... .. . ... ... ... : ... .. A ... ... ... : ... .. . ... : ... .. . ... : ... .. . ... ...
ROW BE : ... .. . ... ... ... : ... .. 9 ... ... ... : ... .. . ... : ... .. . ... : ... .. . ... ...
ROW BF : ... .. . ... ... ... : ... .. 8 ... ... ... : --- .. . ... : ... .. . ... : ... .. . ... ...
ROW C0 : ... .. . ... ... ... : ... .. 7 ... ... ... : ... .. . ... : ... .. . ... : ... .. . ... ...
ROW C1 : ... .. . ... ... ... : ... .. 6 ... ... ... : B-3 00 . P7F : ... .. . ... : ... .. . ... ...
ROW C2 : ... .. . ... ... ... : ... .. 5 ... ... ... : ... .. . ... : ... .. . ... : ... .. . ... ...
ROW C3 : ... .. . ... ... ... : ... .. 4 ... ... ... : ... .. . ... : ... .. . ... : ... .. . ... ...
ROW C4 : ... .. . ... ... ... : ... .. 3 ... ... ... : ... .. . ... : ... .. . ... : ... .. . ... ...
ROW C5 : ... .. . ... ... ... : ... .. 2 ... ... ... : ... .. . ... : ... .. . ... : ... .. . ... ...
ROW C6 : ... .. . ... ... ... : ... .. 1 ... ... ... : ... .. . ... : ... .. . ... : ... .. . ... ...
ROW C7 : ... .. . ... ... ... : ... .. 0 ... ... ... : --- .. . ... : ... .. . ... : ... .. . ... ...
ROW C8 : ... .. . ... ... ... : G#3 00 F P7F ... ... : ... .. . ... : ... .. . ... : ... .. . ... ...
ROW C9 : ... .. . ... ... ... : ... .. E ... ... ... : B-3 00 . ... : ... .. . ... : ... .. . ... ...
ROW CA : ... .. . ... ... ... : ... .. D ... ... ... : ... .. . ... : ... .. . ... : ... .. . ... ...
ROW CB : ... .. . ... ... ... : ... .. C ... ... ... : ... .. . ... : ... .. . ... : ... .. . ... ...
ROW CC : ... .. . ... ... ... : ... .. B ... ... ... : ... .. . ... : ... .. . ... : ... .. . ... ...
ROW CD : ... .. . ... ... ... : ... .. A ... ... ... : ... .. . ... : ... .. . ... : ... .. . ... ...
ROW CE : ... .. . ... ... ... : ... .. 9 ... ... ... : ... .. . ... : ... .. . ... : ... .. . ... ...
ROW CF : ... .. . ... ... ... : ... .. 8 ... ... ... : --- .. . ... : ... .. . ... : ... .. . ... ...
ROW D0 : ... .. . ... ... ... : ... .. 7 ... ... ... : ... .. . ... : ... .. . ... : ... .. . ... ...
ROW D1 : ... .. . ... ... ... : ... .. 6 ... ... ... : E-4 00 . P80 : ... .. . ... : ... .. . ... ...
ROW D2 : ... .. . ... ... ... : ... .. 5 ... ... ... : ... .. . ... : ... .. . ... : ... .. . ... ...
ROW D3 : ... .. . ... ... ... : ... .. 4 ... ... ... : ... .. . ... : ... .. . ... : ... .. . ... ...
ROW D4 : ... .. . ... ... ... : ... .. 3 ... ... ... : ... .. . ... : ... .. . ... : ... .. . ... ...
ROW D5 : ... .. . ... ... ... : ... .. 2 ... ... ... : ... .. . ... : ... .. . ... : ... .. . ... ...
ROW D6 : ... .. . ... ... ... : ... .. 1 ... ... ... : ... .. . ... : ... .. . ... : ... .. . ... ...
ROW D7 : ... .. . ... ... ... : ... .. 0 ... ... ... : --- .. . ... : ... .. . ... : ... .. . ... ...
ROW D8 : ... .. . ... ... ... : F#3 00 F P7F ... ... : ... .. . ... : ... .. . ... : ... .. . ... ...
ROW D9 : ... .. . ... ... ... : ... .. E ... ... ... : E-4 00 . ... : ... .. . ... : ... .. . ... ...
ROW DA : ... .. . ... ... ... : ... .. D ... ... ... : ... .. . ... : ... .. . ... : ... .. . ... ...
ROW DB : ... .. . ... ... ... : ... .. C ... ... ... : ... .. . ... : ... .. . ... : ... .. . ... ...
ROW DC : ... .. . ... ... ... : ... .. B ... ... ... : ... .. . ... : ... .. . ... : ... .. . ... ...
ROW DD : ... .. . ... ... ... : ... .. A ... ... ... : ... .. . ... : ... .. . ... : ... .. . ... ...
ROW DE : ... .. . ... ... ... : ... .. 9 ... ... ... : ... .. . ... : ... .. . ... : ... .. . ... ...
ROW DF : ... .. . ... ... ... : ... .. 8 ... ... ... : --- .. . ... : ... .. . ... : ... .. . ... ...
ROW E0 : ... .. . ... ... ... : G#3 00 F P7F ... ... : ... .. . ... : ... .. . ... : ... .. . ... ...
ROW E1 : ... .. . ... ... ... : ... .. E ... ... ... : B-3 00 . P7F : ... .. . ... : ... .. . ... ...
ROW E2 : ... .. . ... ... ... : ... .. D ... ... ... : ... .. . ... : ... .. . ... : ... .. . ... ...
ROW E3 : ... .. . ... ... ... : ... .. C ... ... ... : ... .. . ... : ... .. . ... : ... .. . ... ...
ROW E4 : ... .. . ... ... ... : ... .. B ... ... ... : ... .. . ... : ... .. . ... : ... .. . ... ...
ROW E5 : ... .. . ... ... ... : ... .. A ... ... ... : ... .. . ... : ... .. . ... : ... .. . ... ...
ROW E6 : ... .. . ... ... ... : ... .. 9 ... ... ... : ... .. . ... : ... .. . ... : ... .. . ... ...
ROW E7 : ... .. . ... ... ... : ... .. 8 ... ... ... : --- .. . ... : ... .. . ... : ... .. . ... ...
ROW E8 : ... .. . ... ... ... : F#3 00 F P7F ... ... : ... .. . ... : ... .. . ... : ... .. . ... ...
ROW E9 : ... .. . ... ... ... : ... .. E ... ... ... : B-3 00 . ... : ... .. . ... : ... .. . ... ...
ROW EA : ... .. . ... ... ... : ... .. D ... ... ... : ... .. . ... : ... .. . ... : ... .. . ... ...
ROW EB : ... .. . ... ... ... : ... .. C ... ... ... : ... .. . ... : ... .. . ... : ... .. . ... ...
ROW EC : ... .. . ... ... ... : ... .. B ... ... ... : ... .. . ... : ... .. . ... : ... .. . ... ...
ROW ED : ... .. . ... ... ... : ... .. A ... ... ... : ... .. . ... : ... .. . ... : ... .. . ... ...
ROW EE : ... .. . ... ... ... : ... .. 9 ... ... ... : ... .. . ... : ... .. . ... : ... .. . ... ...
ROW EF : ... .. . ... ... ... : ... .. 8 ... ... ... : --- .. . ... : ... .. . ... : ... .. . ... ...
ROW F0 : ... .. . ... ... ... : G#3 00 F P7F ... ... : ... .. . ... : ... .. . ... : ... .. . ... ...
ROW F1 : ... .. . ... ... ... : ... .. E ... ... ... : E-4 00 . P80 : ... .. . ... : ... .. . ... ...
ROW F2 : ... .. . ... ... ... : ... .. D ... ... ... : ... .. . ... : ... .. . ... : ... .. . ... ...
ROW F3 : ... .. . ... ... ... : ... .. C ... ... ... : ... .. . ... : ... .. . ... : ... .. . ... ...
ROW F4 : ... .. . ... ... ... : ... .. B ... ... ... : ... .. . ... : ... .. . ... : ... .. . ... ...
ROW F5 : ... .. . ... ... ... : ... .. A ... ... ... : ... .. . ... : ... .. . ... : ... .. . ... ...
ROW F6 : ... .. . ... ... ... : ... .. 9 ... ... ... : ... .. . ... : ... .. . ... : ... .. . ... ...
ROW F7 : ... .. . ... ... ... : ... .. 8 ... ... ... : --- .. . ... : ... .. . ... : ... .. . ... ...
ROW F8 : ... .. . ... ... ... : E-3 00 F P7F ... ... : ... .. . ... : ... .. . ... : ... .. . ... ...
ROW F9 : ... .. . ... ... ... : ... .. E ... ... ... : E-4 00 . ... : ... .. . ... : ... .. . ... ...
ROW FA : ... .. . ... ... ... : ... .. D ... ... ... : ... .. . ... : ... .. . ... : ... .. . ... ...
ROW FB : ... .. . ... ... ... : ... .. C ... ... ... : ... .. . ... : ... .. . ... : ... .. . ... ...
ROW FC : ... .. . ... ... ... : ... .. B ... ... ... : ... .. . ... : ... .. . ... : ... .. . ... ...
ROW FD : ... .. . ... ... ... : ... .. A ... ... ... : ... .. . ... : ... .. . ... : ... .. . ... ...
ROW FE : ... .. . ... ... ... : ... .. 9 ... ... ... : ... .. . ... : ... .. . ... : ... .. . ... ...
ROW FF : ... .. . ... ... ... : ... .. 8 ... ... ... : --- .. . ... : ... .. . ... : ... .. . ... ...

PATTERN 09
ROW 00 : ... .. . ... ... ... : F#3 00 F P7F ... ... : ... .. . ... : ... .. . ... : ... .. . ... ...
ROW 01 : ... .. . ... ... ... : ... .. E ... ... ... : A-3 00 . P7F : ... .. . ... : ... .. . ... ...
ROW 02 : ... .. . ... ... ... : ... .. D ... ... ... : ... .. . ... : ... .. . ... : ... .. . ... ...
ROW 03 : ... .. . ... ... ... : ... .. C ... ... ... : ... .. . ... : ... .. . ... : ... .. . ... ...
ROW 04 : ... .. . ... ... ... : ... .. B ... ... ... : ... .. . ... : ... .. . ... : ... .. . ... ...
ROW 05 : ... .. . ... ... ... : ... .. A ... ... ... : ... .. . ... : ... .. . ... : ... .. . ... ...
ROW 06 : ... .. . ... ... ... : ... .. 9 ... ... ... : ... .. . ... : ... .. . ... : ... .. . ... ...
ROW 07 : ... .. . ... ... ... : ... .. 8 ... ... ... : --- .. . ... : ... .. . ... : ... .. . ... ...
ROW 08 : ... .. . ... ... ... : E-3 00 F P7F ... ... : ... .. . ... : ... .. . ... : ... .. . ... ...
ROW 09 : ... .. . ... ... ... : ... .. E ... ... ... : A-3 00 . ... : ... .. . ... : ... .. . ... ...
ROW 0A : ... .. . ... ... ... : ... .. D ... ... ... : ... .. . ... : ... .. . ... : ... .. . ... ...
ROW 0B : ... .. . ... ... ... : ... .. C ... ... ... : ... .. . ... : ... .. . ... : ... .. . ... ...
ROW 0C : ... .. . ... ... ... : ... .. B ... ... ... : ... .. . ... : ... .. . ... : ... .. . ... ...
ROW 0D : ... .. . ... ... ... : ... .. A ... ... ... : ... .. . ... : ... .. . ... : ... .. . ... ...
ROW 0E : ... .. . ... ... ... : ... .. 9 ... ... ... : ... .. . ... : ... .. . ... : ... .. . ... ...
ROW 0F : ... .. . ... ... ... : ... .. 8 ... ... ... : --- .. . ... : ... .. . ... : ... .. . ... ...
ROW 10 : ... .. . ... ... ... : F#3 00 F P7F ... ... : ... .. . ... : ... .. . ... : ... .. . ... ...
ROW 11 : ... .. . ... ... ... : ... .. E ... ... ... : D-4 00 . ... : ... .. . ... : ... .. . ... ...
ROW 12 : ... .. . ... ... ... : ... .. D ... ... ... : ... .. . ... : ... .. . ... : ... .. . ... ...
ROW 13 : ... .. . ... ... ... : ... .. C ... ... ... : ... .. . ... : ... .. . ... : ... .. . ... ...
ROW 14 : ... .. . ... ... ... : ... .. B ... ... ... : ... .. . ... : ... .. . ... : ... .. . ... ...
ROW 15 : ... .. . ... ... ... : ... .. A ... ... ... : ... .. . ... : ... .. . ... : ... .. . ... ...
ROW 16 : ... .. . ... ... ... : ... .. 9 ... ... ... : ... .. . ... : ... .. . ... : ... .. . ... ...
ROW 17 : ... .. . ... ... ... : ... .. 8 ... ... ... : --- .. . ... : ... .. . ... : ... .. . ... ...
ROW 18 : ... .. . ... ... ... : G#3 00 F P7F ... ... : ... .. . ... : ... .. . ... : ... .. . ... ...
ROW 19 : ... .. . ... ... ... : ... .. E ... ... ... : D-4 00 . ... : ... .. . ... : ... .. . ... ...
ROW 1A : ... .. . ... ... ... : ... .. D ... ... ... : ... .. . ... : ... .. . ... : ... .. . ... ...
ROW 1B : ... .. . ... ... ... : ... .. C ... ... ... : ... .. . ... : ... .. . ... : ... .. . ... ...
ROW 1C : ... .. . ... ... ... : ... .. B ... ... ... : ... .. . ... : ... .. . ... : ... .. . ... ...
ROW 1D : ... .. . ... ... ... : ... .. A ... ... ... : ... .. . ... : ... .. . ... : ... .. . ... ...
ROW 1E : ... .. . ... ... ... : ... .. 9 ... ... ... : ... .. . ... : ... .. . ... : ... .. . ... ...
ROW 1F : ... .. . ... ... ... : ... .. 8 ... ... ... : --- .. . ... : ... .. . ... : ... .. . ... ...
ROW 20 : ... .. . ... ... ... : ... .. 7 ... ... ... : ... .. . ... : ... .. . ... : ... .. . ... ...
ROW 21 : ... .. . ... ... ... : ... .. 6 ... ... ... : A-3 00 . ... : ... .. . ... : ... .. . ... ...
ROW 22 : ... .. . ... ... ... : ... .. 5 ... ... ... : ... .. . ... : ... .. . ... : ... .. . ... ...
ROW 23 : ... .. . ... ... ... : ... .. 4 ... ... ... : ... .. . ... : ... .. . ... : ... .. . ... ...
ROW 24 : ... .. . ... ... ... : ... .. 3 ... ... ... : ... .. . ... : ... .. . ... : ... .. . ... ...
ROW 25 : ... .. . ... ... ... : ... .. 2 ... ... ... : ... .. . ... : ... .. . ... : ... .. . ... ...
ROW 26 : ... .. . ... ... ... : ... .. 1 ... ... ... : ... .. . ... : ... .. . ... : ... .. . ... ...
ROW 27 : ... .. . ... ... ... : ... .. 0 ... ... ... : --- .. . ... : ... .. . ... : ... .. . ... ...
ROW 28 : ... .. . ... ... ... : A-3 00 F P7F ... ... : ... .. . ... : ... .. . ... : ... .. . ... ...
ROW 29 : ... .. . ... ... ... : ... .. E ... ... ... : A-3 00 . ... : ... .. . ... : ... .. . ... ...
ROW 2A : ... .. . ... ... ... : ... .. D ... ... ... : ... .. . ... : ... .. . ... : ... .. . ... ...
ROW 2B : ... .. . ... ... ... : ... .. C ... ... ... : ... .. . ... : ... .. . ... : ... .. . ... ...
ROW 2C : ... .. . ... ... ... : ... .. B ... ... ... : ... .. . ... : ... .. . ... : ... .. . ... ...
ROW 2D : ... .. . ... ... ... : ... .. A ... ... ... : ... .. . ... : ... .. . ... : ... .. . ... ...
ROW 2E : ... .. . ... ... ... : ... .. 9 ... ... ... : ... .. . ... : ... .. . ... : ... .. . ... ...
ROW 2F : ... .. . ... ... ... : ... .. 8 ... ... ... : --- .. . ... : ... .. . ... : ... .. . ... ...
ROW 30 : ... .. . ... ... ... : ... .. 7 ... ... ... : ... .. . ... : ... .. . ... : ... .. . ... ...
ROW 31 : ... .. . ... ... ... : ... .. 6 ... ... ... : D-4 00 . ... : ... .. . ... : ... .. . ... ...
ROW 32 : ... .. . ... ... ... : ... .. 5 ... ... ... : ... .. . ... : ... .. . ... : ... .. . ... ...
ROW 33 : ... .. . ... ... ... : ... .. 4 ... ... ... : ... .. . ... : ... .. . ... : ... .. . ... ...
ROW 34 : ... .. . ... ... ... : ... .. 3 ... ... ... : ... .. . ... : ... .. . ... : ... .. . ... ...
ROW 35 : ... .. . ... ... ... : ... .. 2 ... ... ... : ... .. . ... : ... .. . ... : ... .. . ... ...
ROW 36 : ... .. . ... ... ... : ... .. 1 ... ... ... : ... .. . ... : ... .. . ... : ... .. . ... ...
ROW 37 : ... .. . ... ... ... : ... .. 0 ... ... ... : --- .. . ... : ... .. . ... : ... .. . ... ...
ROW 38 : ... .. . ... ... ... : G#3 00 F P7F ... ... : ... .. . ... : ... .. . ... : ... .. . ... ...
ROW 39 : ... .. . ... ... ... : ... .. E ... ... ... : D-4 00 . ... : ... .. . ... : ... .. . ... ...
ROW 3A : ... .. . ... ... ... : ... .. D ... ... ... : ... .. . ... : ... .. . ... : ... .. . ... ...
ROW 3B : ... .. . ... ... ... : ... .. . ... ... ... : ... .. . ... : ... .. . ... : ... .. . ... ...
ROW 3C : ... .. . ... ... ... : ... .. . ... ... ... : ... .. . ... : ... .. . ... : ... .. . ... ...
ROW 3D : ... .. . ... ... ... : ... .. . ... ... ... : ... .. . ... : ... .. . ... : ... .. . ... ...
ROW 3E : ... .. . ... ... ... : ... .. . ... ... ... : ... .. . ... : ... .. . ... : ... .. . ... ...
ROW 3F : ... .. . ... ... ... : ... .. . ... ... ... : --- .. . ... : ... .. . ... : ... .. . ... ...
ROW 40 : ... .. . ... ... ... : ... .. . ... ... ... : ... .. . ... : ... .. . ... : ... .. . ... ...
ROW 41 : ... .. . ... ... ... : ... .. C ... ... ... : A-3 00 . ... : ... .. . ... : ... .. . ... ...
ROW 42 : ... .. . ... ... ... : ... .. B ... ... ... : ... .. . ... : ... .. . ... : ... .. . ... ...
ROW 43 : ... .. . ... ... ... : ... .. A ... ... ... : ... .. . ... : ... .. . ... : ... .. . ... ...
ROW 44 : ... .. . ... ... ... : ... .. 9 ... ... ... : ... .. . ... : ... .. . ... : ... .. . ... ...
ROW 45 : ... .. . ... ... ... : ... .. 8 ... ... ... : ... .. . ... : ... .. . ... : ... .. . ... ...
ROW 46 : ... .. . ... ... ... : ... .. 7 ... ... ... : ... .. . ... : ... .. . ... : ... .. . ... ...
ROW 47 : ... .. . ... ... ... : ... .. 6 ... ... ... : --- .. . ... : ... .. . ... : ... .. . ... ...
ROW 48 : ... .. . ... ... ... : ... .. 5 ... ... ... : ... .. . ... : ... .. . ... : ... .. . ... ...
ROW 49 : ... .. . ... ... ... : ... .. 4 ... ... ... : A-3 00 . ... : ... .. . ... : ... .. . ... ...
ROW 4A : ... .. . ... ... ... : ... .. 3 ... ... ... : ... .. . ... : ... .. . ... : ... .. . ... ...
ROW 4B : ... .. . ... ... ... : ... .. 2 ... ... ... : ... .. . ... : ... .. . ... : ... .. . ... ...
ROW 4C : ... .. . ... ... ... : ... .. 1 ... ... ... : ... .. . ... : ... .. . ... : ... .. . ... ...
ROW 4D : ... .. . ... ... ... : ... .. 0 ... ... ... : ... .. . ... : ... .. . ... : ... .. . ... ...
ROW 4E : ... .. . ... ... ... : ... .. . ... ... ... : ... .. . ... : ... .. . ... : ... .. . ... ...
ROW 4F : ... .. . ... ... ... : ... .. . ... ... ... : --- .. . ... : ... .. . ... : ... .. . ... ...
ROW 50 : ... .. . ... ... ... : F#3 00 F P7F ... ... : ... .. . ... : ... .. . ... : ... .. . ... ...
ROW 51 : ... .. . ... ... ... : ... .. E ... ... ... : D-4 00 . ... : ... .. . ... : ... .. . ... ...
ROW 52 : ... .. . ... ... ... : ... .. D ... ... ... : ... .. . ... : ... .. . ... : ... .. . ... ...
ROW 53 : ... .. . ... ... ... : ... .. C ... ... ... : ... .. . ... : ... .. . ... : ... .. . ... ...
ROW 54 : ... .. . ... ... ... : ... .. B ... ... ... : ... .. . ... : ... .. . ... : ... .. . ... ...
ROW 55 : ... .. . ... ... ... : ... .. A ... ... ... : ... .. . ... : ... .. . ... : ... .. . ... ...
ROW 56 : ... .. . ... ... ... : ... .. 9 ... ... ... : ... .. . ... : ... .. . ... : ... .. . ... ...
ROW 57 : ... .. . ... ... ... : ... .. 8 ... ... ... : --- .. . ... : ... .. . ... : ... .. . ... ...
ROW 58 : ... .. . ... ... ... : ... .. 7 ... ... ... : ... .. . ... : ... .. . ... : ... .. . ... ...
ROW 59 : ... .. . ... ... ... : ... .. 6 ... ... ... : D-4 00 . ... : ... .. . ... : ... .. . ... ...
ROW 5A : ... .. . ... ... ... : ... .. 5 ... ... ... : ... .. . ... : ... .. . ... : ... .. . ... ...
ROW 5B : ... .. . ... ... ... : ... .. 4 ... ... ... : ... .. . ... : ... .. . ... : ... .. . ... ...
ROW 5C : ... .. . ... ... ... : ... .. 3 ... ... ... : ... .. . ... : ... .. . ... : ... .. . ... ...
ROW 5D : ... .. . ... ... ... : ... .. 2 ... ... ... : ... .. . ... : ... .. . ... : ... .. . ... ...
ROW 5E : ... .. . ... ... ... : ... .. 1 ... ... ... : ... .. . ... : ... .. . ... : ... .. . ... ...
ROW 5F : ... .. . ... ... ... : ... .. 0 ... ... ... : --- .. . ... : ... .. . ... : ... .. . ... ...
ROW 60 : ... .. . ... ... ... : G#3 00 F P7F ... ... : ... .. . ... : ... .. . ... : ... .. . ... ...
ROW 61 : ... .. . ... ... ... : ... .. E ... ... ... : G-3 00 . ... : ... .. . ... : ... .. . ... ...
ROW 62 : ... .. . ... ... ... : ... .. D ... ... ... : ... .. . ... : ... .. . ... : ... .. . ... ...
ROW 63 : ... .. . ... ... ... : ... .. C ... ... ... : ... .. . ... : ... .. . ... : ... .. . ... ...
ROW 64 : ... .. . ... ... ... : ... .. B ... ... ... : ... .. . ... : ... .. . ... : ... .. . ... ...
ROW 65 : ... .. . ... ... ... : ... .. A ... ... ... : ... .. . ... : ... .. . ... : ... .. . ... ...
ROW 66 : ... .. . ... ... ... : ... .. 9 ... ... ... : ... .. . ... : ... .. . ... : ... .. . ... ...
ROW 67 : ... .. . ... ... ... : ... .. 8 ... ... ... : --- .. . ... : ... .. . ... : ... .. . ... ...
ROW 68 : ... .. . ... ... ... : E-3 00 F P7F ... ... : ... .. . ... : ... .. . ... : ... .. . ... ...
ROW 69 : ... .. . ... ... ... : ... .. E ... ... ... : G-3 00 . ... : ... .. . ... : ... .. . ... ...
ROW 6A : ... .. . ... ... ... : ... .. D ... ... ... : ... .. . ... : ... .. . ... : ... .. . ... ...
ROW 6B : ... .. . ... ... ... : ... .. . ... ... ... : ... .. . ... : ... .. . ... : ... .. . ... ...
ROW 6C : ... .. . ... ... ... : ... .. . ... ... ... : ... .. . ... : ... .. . ... : ... .. . ... ...
ROW 6D : ... .. . ... ... ... : ... .. . ... ... ... : ... .. . ... : ... .. . ... : ... .. . ... ...
ROW 6E : ... .. . ... ... ... : ... .. . ... ... ... : ... .. . ... : ... .. . ... : ... .. . ... ...
ROW 6F : ... .. . ... ... ... : ... .. . ... ... ... : --- .. . ... : ... .. . ... : ... .. . ... ...
ROW 70 : ... .. . ... ... ... : ... .. . ... ... ... : ... .. . ... : ... .. . ... : ... .. . ... ...
ROW 71 : ... .. . ... ... ... : ... .. . ... ... ... : C-4 00 . P80 : ... .. . ... : ... .. . ... ...
ROW 72 : ... .. . ... ... ... : ... .. . ... ... ... : ... .. . ... : ... .. . ... : ... .. . ... ...
ROW 73 : ... .. . ... ... ... : ... .. . ... ... ... : ... .. . ... : ... .. . ... : ... .. . ... ...
ROW 74 : ... .. . ... ... ... : ... .. . ... ... ... : ... .. . ... : ... .. . ... : ... .. . ... ...
ROW 75 : ... .. . ... ... ... : ... .. . ... ... ... : ... .. . ... : ... .. . ... : ... .. . ... ...
ROW 76 : ... .. . ... ... ... : ... .. . ... ... ... : ... .. . ... : ... .. . ... : ... .. . ... ...
ROW 77 : ... .. . ... ... ... : ... .. . ... ... ... : --- .. . ... : ... .. . ... : ... .. . ... ...
ROW 78 : ... .. . ... ... ... : ... .. . ... ... ... : ... .. . ... : ... .. . ... : ... .. . ... ...
ROW 79 : ... .. . ... ... ... : ... .. . ... ... ... : C-4 00 . ... : ... .. . ... : ... .. . ... ...
ROW 7A : ... .. . ... ... ... : ... .. . ... ... ... : ... .. . ... : ... .. . ... : ... .. . ... ...
ROW 7B : ... .. . ... ... ... : ... .. . ... ... ... : ... .. . ... : ... .. . ... : ... .. . ... ...
ROW 7C : ... .. . ... ... ... : ... .. . ... ... ... : ... .. . ... : ... .. . ... : ... .. . ... ...
ROW 7D : ... .. . ... ... ... : ... .. . ... ... ... : ... .. . ... : ... .. . ... : ... .. . ... ...
ROW 7E : ... .. . ... ... ... : ... .. . ... ... ... : ... .. . ... : ... .. . ... : ... .. . ... ...
ROW 7F : ... .. . ... ... ... : ... .. . ... ... ... : --- .. . ... : ... .. . ... : ... .. . ... ...
ROW 80 : ... .. . ... ... ... : ... .. . ... ... ... : ... .. . ... : ... .. . ... : ... .. . ... ...
ROW 81 : ... .. . ... ... ... : ... .. C ... ... ... : G-3 00 . P7F : ... .. . ... : ... .. . ... ...
ROW 82 : ... .. . ... ... ... : ... .. B ... ... ... : ... .. . ... : ... .. . ... : ... .. . ... ...
ROW 83 : ... .. . ... ... ... : ... .. A ... ... ... : ... .. . ... : ... .. . ... : ... .. . ... ...
ROW 84 : ... .. . ... ... ... : ... .. 9 ... ... ... : ... .. . ... : ... .. . ... : ... .. . ... ...
ROW 85 : ... .. . ... ... ... : ... .. 8 ... ... ... : ... .. . ... : ... .. . ... : ... .. . ... ...
ROW 86 : ... .. . ... ... ... : ... .. 7 ... ... ... : ... .. . ... : ... .. . ... : ... .. . ... ...
ROW 87 : ... .. . ... ... ... : ... .. 6 ... ... ... : --- .. . ... : ... .. . ... : ... .. . ... ...
ROW 88 : ... .. . ... ... ... : ... .. 5 ... ... ... : ... .. . ... : ... .. . ... : ... .. . ... ...
ROW 89 : ... .. . ... ... ... : ... .. 4 ... ... ... : G-3 00 . ... : ... .. . ... : ... .. . ... ...
ROW 8A : ... .. . ... ... ... : ... .. 3 ... ... ... : ... .. . ... : ... .. . ... : ... .. . ... ...
ROW 8B : ... .. . ... ... ... : ... .. 2 ... ... ... : ... .. . ... : ... .. . ... : ... .. . ... ...
ROW 8C : ... .. . ... ... ... : ... .. 1 ... ... ... : ... .. . ... : ... .. . ... : ... .. . ... ...
ROW 8D : ... .. . ... ... ... : ... .. 0 ... ... ... : ... .. . ... : ... .. . ... : ... .. . ... ...
ROW 8E : ... .. . ... ... ... : ... .. . ... ... ... : ... .. . ... : ... .. . ... : ... .. . ... ...
ROW 8F : ... .. . ... ... ... : ... .. . ... ... ... : --- .. . ... : ... .. . ... : ... .. . ... ...
ROW 90 : ... .. . ... ... ... : F#3 00 F P7F ... ... : ... .. . ... : ... .. . ... : ... .. . ... ...
ROW 91 : ... .. . ... ... ... : ... .. E ... ... ... : C-4 00 . P80 : ... .. . ... : ... .. . ... ...
ROW 92 : ... .. . ... ... ... : ... .. D ... ... ... : ... .. . ... : ... .. . ... : ... .. . ... ...
ROW 93 : ... .. . ... ... ... : ... .. C ... ... ... : ... .. . ... : ... .. . ... : ... .. . ... ...
ROW 94 : ... .. . ... ... ... : ... .. B ... ... ... : ... .. . ... : ... .. . ... : ... .. . ... ...
ROW 95 : ... .. . ... ... ... : ... .. A ... ... ... : ... .. . ... : ... .. . ... : ... .. . ... ...
ROW 96 : ... .. . ... ... ... : ... .. 9 ... ... ... : ... .. . ... : ... .. . ... : ... .. . ... ...
ROW 97 : ... .. . ... ... ... : ... .. 8 ... ... ... : --- .. . ... : ... .. . ... : ... .. . ... ...
ROW 98 : ... .. . ... ... ... : E-3 00 F P7F ... ... : ... .. . ... : ... .. . ... : ... .. . ... ...
ROW 99 : ... .. . ... ... ... : ... .. E ... ... ... : C-4 00 . ... : ... .. . ... : ... .. . ... ...
ROW 9A : ... .. . ... ... ... : ... .. D ... ... ... : ... .. . ... : ... .. . ... : ... .. . ... ...
ROW 9B : ... .. . ... ... ... : ... .. C ... ... ... : ... .. . ... : ... .. . ... : ... .. . ... ...
ROW 9C : ... .. . ... ... ... : ... .. B ... ... ... : ... .. . ... : ... .. . ... : ... .. . ... ...
ROW 9D : ... .. . ... ... ... : ... .. A ... ... ... : ... .. . ... : ... .. . ... : ... .. . ... ...
ROW 9E : ... .. . ... ... ... : ... .. 9 ... ... ... : ... .. . ... : ... .. . ... : ... .. . ... ...
ROW 9F : ... .. . ... ... ... : ... .. 8 ... ... ... : --- .. . ... : ... .. . ... : ... .. . ... ...
ROW A0 : ... .. . ... ... ... : D-3 00 F P7F ... ... : ... .. . ... : ... .. . ... : ... .. . ... ...
ROW A1 : ... .. . ... ... ... : ... .. E ... ... ... : F-3 00 . P7F : ... .. . ... : ... .. . ... ...
ROW A2 : ... .. . ... ... ... : ... .. D ... ... ... : ... .. . ... : ... .. . ... : ... .. . ... ...
ROW A3 : ... .. . ... ... ... : ... .. . ... ... ... : ... .. . ... : ... .. . ... : ... .. . ... ...
ROW A4 : ... .. . ... ... ... : ... .. . ... ... ... : ... .. . ... : ... .. . ... : ... .. . ... ...
ROW A5 : ... .. . ... ... ... : ... .. . ... ... ... : ... .. . ... : ... .. . ... : ... .. . ... ...
ROW A6 : ... .. . ... ... ... : ... .. . ... ... ... : ... .. . ... : ... .. . ... : ... .. . ... ...
ROW A7 : ... .. . ... ... ... : ... .. . ... ... ... : --- .. . ... : ... .. . ... : ... .. . ... ...
ROW A8 : ... .. . ... ... ... : ... .. . ... ... ... : ... .. . ... : ... .. . ... : ... .. . ... ...
ROW A9 : ... .. . ... ... ... : ... .. . ... ... ... : F-3 00 . ... : ... .. . ... : ... .. . ... ...
ROW AA : ... .. . ... ... ... : ... .. . ... ... ... : ... .. . ... : ... .. . ... : ... .. . ... ...
ROW AB : ... .. . ... ... ... : ... .. . ... ... ... : ... .. . ... : ... .. . ... : ... .. . ... ...
ROW AC : ... .. . ... ... ... : ... .. . ... ... ... : ... .. . ... : ... .. . ... : ... .. . ... ...
ROW AD : ... .. . ... ... ... : ... .. . ... ... ... : ... .. . ... : ... .. . ... : ... .. . ... ...
ROW AE : ... .. . ... ... ... : ... .. . ... ... ... : ... .. . ... : ... .. . ... : ... .. . ... ...
ROW AF : ... .. . ... ... ... : ... .. . ... ... ... : --- .. . ... : ... .. . ... : ... .. . ... ...
ROW B0 : ... .. . ... ... ... : ... .. . ... ... ... : ... .. . ... : ... .. . ... : ... .. . ... ...
ROW B1 : ... .. . ... ... ... : ... .. . ... ... ... : A#3 00 . ... : ... .. . ... : ... .. . ... ...
ROW B2 : ... .. . ... ... ... : ... .. . ... ... ... : ... .. . ... : ... .. . ... : ... .. . ... ...
ROW B3 : ... .. . ... ... ... : ... .. . ... ... ... : ... .. . ... : ... .. . ... : ... .. . ... ...
ROW B4 : ... .. . ... ... ... : ... .. . ... ... ... : ... .. . ... : ... .. . ... : ... .. . ... ...
ROW B5 : ... .. . ... ... ... : ... .. . ... ... ... : ... .. . ... : ... .. . ... : ... .. . ... ...
ROW B6 : ... .. . ... ... ... : ... .. . ... ... ... : ... .. . ... : ... .. . ... : ... .. . ... ...
ROW B7 : ... .. . ... ... ... : ... .. . ... ... ... : --- .. . ... : ... .. . ... : ... .. . ... ...
ROW B8 : ... .. . ... ... ... : ... .. . ... ... ... : ... .. . ... : ... .. . ... : ... .. . ... ...
ROW B9 : ... .. . ... ... ... : ... .. C ... ... ... : A#3 00 . ... : ... .. . ... : ... .. . ... ...
ROW BA : ... .. . ... ... ... : ... .. B ... ... ... : ... .. . ... : ... .. . ... : ... .. . ... ...
ROW BB : ... .. . ... ... ... : ... .. A ... ... ... : ... .. . ... : ... .. . ... : ... .. . ... ...
ROW BC : ... .. . ... ... ... : ... .. 9 ... ... ... : ... .. . ... : ... .. . ... : ... .. . ... ...
ROW BD : ... .. . ... ... ... : ... .. 8 ... ... ... : ... .. . ... : ... .. . ... : ... .. . ... ...
ROW BE : ... .. . ... ... ... : ... .. 7 ... ... ... : ... .. . ... : ... .. . ... : ... .. . ... ...
ROW BF : ... .. . ... ... ... : ... .. 6 ... ... ... : --- .. . ... : ... .. . ... : ... .. . ... ...
ROW C0 : ... .. . ... ... ... : ... .. 5 ... ... ... : ... .. . ... : ... .. . ... : ... .. . ... ...
ROW C1 : ... .. . ... ... ... : ... .. 4 ... ... ... : F-3 00 . ... : ... .. . ... : ... .. . ... ...
ROW C2 : ... .. . ... ... ... : ... .. 3 ... ... ... : ... .. . ... : ... .. . ... : ... .. . ... ...
ROW C3 : ... .. . ... ... ... : ... .. 2 ... ... ... : ... .. . ... : ... .. . ... : ... .. . ... ...
ROW C4 : ... .. . ... ... ... : ... .. 1 ... ... ... : ... .. . ... : ... .. . ... : ... .. . ... ...
ROW C5 : ... .. . ... ... ... : ... .. 0 ... ... ... : ... .. . ... : ... .. . ... : ... .. . ... ...
ROW C6 : ... .. . ... ... ... : ... .. . ... ... ... : ... .. . ... : ... .. . ... : ... .. . ... ...
ROW C7 : ... .. . ... ... ... : ... .. . ... ... ... : --- .. . ... : ... .. . ... : ... .. . ... ...
ROW C8 : ... .. . ... ... ... : E-3 00 F P7F ... ... : ... .. . ... : ... .. . ... : ... .. . ... ...
ROW C9 : ... .. . ... ... ... : ... .. E ... ... ... : F-3 00 . ... : ... .. . ... : ... .. . ... ...
ROW CA : ... .. . ... ... ... : ... .. D ... ... ... : ... .. . ... : ... .. . ... : ... .. . ... ...
ROW CB : ... .. . ... ... ... : ... .. C ... ... ... : ... .. . ... : ... .. . ... : ... .. . ... ...
ROW CC : ... .. . ... ... ... : ... .. B ... ... ... : ... .. . ... : ... .. . ... : ... .. . ... ...
ROW CD : ... .. . ... ... ... : ... .. A ... ... ... : ... .. . ... : ... .. . ... : ... .. . ... ...
ROW CE : ... .. . ... ... ... : ... .. 9 ... ... ... : ... .. . ... : ... .. . ... : ... .. . ... ...
ROW CF : ... .. . ... ... ... : ... .. 8 ... ... ... : --- .. . ... : ... .. . ... : ... .. . ... ...
ROW D0 : ... .. . ... ... ... : D-3 00 F P7F ... ... : ... .. . ... : ... .. . ... : ... .. . ... ...
ROW D1 : ... .. . ... ... ... : ... .. E ... ... ... : A#3 00 . ... : ... .. . ... : ... .. . ... ...
ROW D2 : ... .. . ... ... ... : ... .. D ... ... ... : ... .. . ... : ... .. . ... : ... .. . ... ...
ROW D3 : ... .. . ... ... ... : ... .. C ... ... ... : ... .. . ... : ... .. . ... : ... .. . ... ...
ROW D4 : ... .. . ... ... ... : ... .. B ... ... ... : ... .. . ... : ... .. . ... : ... .. . ... ...
ROW D5 : ... .. . ... ... ... : ... .. A ... ... ... : ... .. . ... : ... .. . ... : ... .. . ... ...
ROW D6 : ... .. . ... ... ... : ... .. 9 ... ... ... : ... .. . ... : ... .. . ... : ... .. . ... ...
ROW D7 : ... .. . ... ... ... : ... .. 8 ... ... ... : --- .. . ... : ... .. . ... : ... .. . ... ...
ROW D8 : ... .. . ... ... ... : C-3 00 F P80 ... ... : ... .. . ... : ... .. . ... : ... .. . ... ...
ROW D9 : ... .. . ... ... ... : ... .. E ... ... ... : A#3 00 . ... : ... .. . ... : ... .. . ... ...
ROW DA : ... .. . ... ... ... : ... .. D ... ... ... : ... .. . ... : ... .. . ... : ... .. . ... ...
ROW DB : ... .. . ... ... ... : ... .. C ... ... ... : ... .. . ... : ... .. . ... : ... .. . ... ...
ROW DC : ... .. . ... ... ... : ... .. B ... ... ... : ... .. . ... : ... .. . ... : ... .. . ... ...
ROW DD : ... .. . ... ... ... : ... .. A ... ... ... : ... .. . ... : ... .. . ... : ... .. . ... ...
ROW DE : ... .. . ... ... ... : ... .. 9 ... ... ... : ... .. . ... : ... .. . ... : ... .. . ... ...
ROW DF : ... .. . ... ... ... : ... .. 8 ... ... ... : --- .. . ... : ... .. . ... : ... .. . ... ...
ROW E0 : ... .. . ... ... ... : C-3 00 F P80 ... ... : ... .. . ... : ... .. . ... : ... .. . ... ...
ROW E1 : ... .. . ... ... ... : ... .. E ... ... ... : D#3 00 . P80 : ... .. . ... : ... .. . ... ...
ROW E2 : ... .. . ... ... ... : ... .. D ... ... ... : ... .. . ... : ... .. . ... : ... .. . ... ...
ROW E3 : ... .. . ... ... ... : ... .. C ... ... ... : ... .. . ... : ... .. . ... : ... .. . ... ...
ROW E4 : ... .. . ... ... ... : ... .. B ... ... ... : ... .. . ... : ... .. . ... : ... .. . ... ...
ROW E5 : ... .. . ... ... ... : ... .. A ... ... ... : ... .. . ... : ... .. . ... : ... .. . ... ...
ROW E6 : ... .. . ... ... ... : ... .. 9 ... ... ... : ... .. . ... : ... .. . ... : ... .. . ... ...
ROW E7 : ... .. . ... ... ... : ... .. 8 ... ... ... : --- .. . ... : ... .. . ... : ... .. . ... ...
ROW E8 : ... .. . ... ... ... : E-3 00 F P7F ... ... : ... .. . ... : ... .. . ... : ... .. . ... ...
ROW E9 : ... .. . ... ... ... : ... .. E ... ... ... : D#3 00 . ... : ... .. . ... : ... .. . ... ...
ROW EA : ... .. . ... ... ... : ... .. D ... ... ... : ... .. . ... : ... .. . ... : ... .. . ... ...
ROW EB : ... .. . ... ... ... : ... .. C ... ... ... : ... .. . ... : ... .. . ... : ... .. . ... ...
ROW EC : ... .. . ... ... ... : ... .. B ... ... ... : ... .. . ... : ... .. . ... : ... .. . ... ...
ROW ED : ... .. . ... ... ... : ... .. A ... ... ... : ... .. . ... : ... .. . ... : ... .. . ... ...
ROW EE : ... .. . ... ... ... : ... .. 9 ... ... ... : ... .. . ... : ... .. . ... : ... .. . ... ...
ROW EF : ... .. . ... ... ... : ... .. 8 ... ... ... : --- .. . ... : ... .. . ... : ... .. . ... ...
ROW F0 : ... .. . ... ... ... : F#3 00 F P7F ... ... : ... .. . ... : ... .. . ... : ... .. . ... ...
ROW F1 : ... .. . ... ... ... : ... .. E ... ... ... : G#3 00 . P7F : ... .. . ... : ... .. . ... ...
ROW F2 : ... .. . ... ... ... : ... .. D ... ... ... : ... .. . ... : ... .. . ... : ... .. . ... ...
ROW F3 : ... .. . ... ... ... : ... .. C ... ... ... : ... .. . ... : ... .. . ... : ... .. . ... ...
ROW F4 : ... .. . ... ... ... : ... .. B ... ... ... : ... .. . ... : ... .. . ... : ... .. . ... ...
ROW F5 : ... .. . ... ... ... : ... .. A ... ... ... : ... .. . ... : ... .. . ... : ... .. . ... ...
ROW F6 : ... .. . ... ... ... : ... .. 9 ... ... ... : ... .. . ... : ... .. . ... : ... .. . ... ...
ROW F7 : ... .. . ... ... ... : ... .. 8 ... ... ... : --- .. . ... : ... .. . ... : ... .. . ... ...
ROW F8 : ... .. . ... ... ... : G#3 00 F P7F ... ... : ... .. . ... : ... .. . ... : ... .. . ... ...
ROW F9 : ... .. . ... ... ... : ... .. E ... ... ... : G#3 00 . ... : ... .. . ... : ... .. . ... ...
ROW FA : ... .. . ... ... ... : ... .. D ... ... ... : ... .. . ... : ... .. . ... : ... .. . ... ...
ROW FB : ... .. . ... ... ... : ... .. C ... ... ... : ... .. . ... : ... .. . ... : ... .. . ... ...
ROW FC : ... .. . ... ... ... : ... .. B ... ... ... : ... .. . ... : ... .. . ... : ... .. . ... ...
ROW FD : ... .. . ... ... ... : ... .. A ... ... ... : ... .. . ... : ... .. . ... : ... .. . ... ...
ROW FE : ... .. . ... ... ... : ... .. 9 ... ... ... : ... .. . ... : ... .. . ... : ... .. . ... ...
ROW FF : ... .. . ... ... ... : ... .. 8 ... ... ... : --- .. . ... : ... .. . ... : ... .. . ... ...

PATTERN 0A
ROW 00 : ... .. . ... ... ... : ... .. 7 ... ... ... : ... .. . ... : ... .. . ... : ... .. . ... ...
ROW 01 : ... .. . ... ... ... : ... .. 6 ... ... ... : B-3 00 . ... : ... .. . ... : ... .. . ... ...
ROW 02 : ... .. . ... ... ... : ... .. 5 ... ... ... : ... .. . ... : ... .. . ... : ... .. . ... ...
ROW 03 : ... .. . ... ... ... : ... .. 4 ... ... ... : ... .. . ... : ... .. . ... : ... .. . ... ...
ROW 04 : ... .. . ... ... ... : ... .. 3 ... ... ... : ... .. . ... : ... .. . ... : ... .. . ... ...
ROW 05 : ... .. . ... ... ... : ... .. 2 ... ... ... : ... .. . ... : ... .. . ... : ... .. . ... ...
ROW 06 : ... .. . ... ... ... : ... .. 1 ... ... ... : ... .. . ... : ... .. . ... : ... .. . ... ...
ROW 07 : ... .. . ... ... ... : ... .. 0 ... ... ... : --- .. . ... : ... .. . ... : ... .. . ... ...
ROW 08 : ... .. . ... ... ... : F#3 00 F P7F ... ... : ... .. . ... : ... .. . ... : ... .. . ... ...
ROW 09 : ... .. . ... ... ... : ... .. E ... ... ... : B-3 00 . ... : ... .. . ... : ... .. . ... ...
ROW 0A : ... .. . ... ... ... : ... .. D ... ... ... : ... .. . ... : ... .. . ... : ... .. . ... ...
ROW 0B : ... .. . ... ... ... : ... .. C ... ... ... : ... .. . ... : ... .. . ... : ... .. . ... ...
ROW 0C : ... .. . ... ... ... : ... .. B ... ... ... : ... .. . ... : ... .. . ... : ... .. . ... ...
ROW 0D : ... .. . ... ... ... : ... .. A ... ... ... : ... .. . ... : ... .. . ... : ... .. . ... ...
ROW 0E : ... .. . ... ... ... : ... .. 9 ... ... ... : ... .. . ... : ... .. . ... : ... .. . ... ...
ROW 0F : ... .. . ... ... ... : ... .. 8 ... ... ... : --- .. . ... : ... .. . ... : ... .. . ... ...
ROW 10 : ... .. . ... ... ... : G#3 00 F P7F ... ... : ... .. . ... : ... .. . ... : ... .. . ... ...
ROW 11 : ... .. . ... ... ... : ... .. E ... ... ... : E-4 00 . P80 : ... .. . ... : ... .. . ... ...
ROW 12 : ... .. . ... ... ... : ... .. D ... ... ... : ... .. . ... : ... .. . ... : ... .. . ... ...
ROW 13 : ... .. . ... ... ... : ... .. C ... ... ... : ... .. . ... : ... .. . ... : ... .. . ... ...
ROW 14 : ... .. . ... ... ... : ... .. B ... ... ... : ... .. . ... : ... .. . ... : ... .. . ... ...
ROW 15 : ... .. . ... ... ... : ... .. A ... ... ... : ... .. . ... : ... .. . ... : ... .. . ... ...
ROW 16 : ... .. . ... ... ... : ... .. 9 ... ... ... : ... .. . ... : ... .. . ... : ... .. . ... ...
ROW 17 : ... .. . ... ... ... : ... .. 8 ... ... ... : --- .. . ... : ... .. . ... : ... .. . ... ...
ROW 18 : ... .. . ... ... ... : A#3 00 F P7F ... ... : ... .. . ... : ... .. . ... : ... .. . ... ...
ROW 19 : ... .. . ... ... ... : ... .. E ... ... ... : E-4 00 . ... : ... .. . ... : ... .. . ... ...
ROW 1A : ... .. . ... ... ... : ... .. D ... ... ... : ... .. . ... : ... .. . ... : ... .. . ... ...
ROW 1B : ... .. . ... ... ... : ... .. C ... ... ... : ... .. . ... : ... .. . ... : ... .. . ... ...
ROW 1C : ... .. . ... ... ... : ... .. B ... ... ... : ... .. . ... : ... .. . ... : ... .. . ... ...
ROW 1D : ... .. . ... ... ... : ... .. A ... ... ... : ... .. . ... : ... .. . ... : ... .. . ... ...
ROW 1E : ... .. . ... ... ... : ... .. 9 ... ... ... : ... .. . ... : ... .. . ... : ... .. . ... ...
ROW 1F : ... .. . ... ... ... : ... .. 8 ... ... ... : --- .. . ... : ... .. . ... : ... .. . ... ...
ROW 20 : ... .. . ... ... ... : ... .. 7 ... ... ... : ... .. . ... : ... .. . ... : ... .. . ... ...
ROW 21 : ... .. . ... ... ... : ... .. 6 ... ... ... : B-3 00 . P7F : ... .. . ... : ... .. . ... ...
ROW 22 : ... .. . ... ... ... : ... .. 5 ... ... ... : ... .. . ... : ... .. . ... : ... .. . ... ...
ROW 23 : ... .. . ... ... ... : ... .. 4 ... ... ... : ... .. . ... : ... .. . ... : ... .. . ... ...
ROW 24 : ... .. . ... ... ... : ... .. 3 ... ... ... : ... .. . ... : ... .. . ... : ... .. . ... ...
ROW 25 : ... .. . ... ... ... : ... .. 2 ... ... ... : ... .. . ... : ... .. . ... : ... .. . ... ...
ROW 26 : ... .. . ... ... ... : ... .. 1 ... ... ... : ... .. . ... : ... .. . ... : ... .. . ... ...
ROW 27 : ... .. . ... ... ... : ... .. 0 ... ... ... : --- .. . ... : ... .. . ... : ... .. . ... ...
ROW 28 : ... .. . ... ... ... : B-3 00 F P7F ... ... : ... .. . ... : ... .. . ... : ... .. . ... ...
ROW 29 : ... .. . ... ... ... : ... .. E ... ... ... : B-3 00 . ... : ... .. . ... : ... .. . ... ...
ROW 2A : ... .. . ... ... ... : ... .. D ... ... ... : ... .. . ... : ... .. . ... : ... .. . ... ...
ROW 2B : ... .. . ... ... ... : ... .. C ... ... ... : ... .. . ... : ... .. . ... : ... .. . ... ...
ROW 2C : ... .. . ... ... ... : ... .. B ... ... ... : ... .. . ... : ... .. . ... : ... .. . ... ...
ROW 2D : ... .. . ... ... ... : ... .. A ... ... ... : ... .. . ... : ... .. . ... : ... .. . ... ...
ROW 2E : ... .. . ... ... ... : ... .. 9 ... ... ... : ... .. . ... : ... .. . ... : ... .. . ... ...
ROW 2F : ... .. . ... ... ... : ... .. 8 ... ... ... : --- .. . ... : ... .. . ... : ... .. . ... ...
ROW 30 : ... .. . ... ... ... : ... .. 7 ... ... ... : ... .. . ... : ... .. . ... : ... .. . ... ...
ROW 31 : ... .. . ... ... ... : ... .. 6 ... ... ... : E-4 00 . P80 : ... .. . ... : ... .. . ... ...
ROW 32 : ... .. . ... ... ... : ... .. 5 ... ... ... : ... .. . ... : ... .. . ... : ... .. . ... ...
ROW 33 : ... .. . ... ... ... : ... .. 4 ... ... ... : ... .. . ... : ... .. . ... : ... .. . ... ...
ROW 34 : ... .. . ... ... ... : ... .. 3 ... ... ... : ... .. . ... : ... .. . ... : ... .. . ... ...
ROW 35 : ... .. . ... ... ... : ... .. 2 ... ... ... : ... .. . ... : ... .. . ... : ... .. . ... ...
ROW 36 : ... .. . ... ... ... : ... .. 1 ... ... ... : ... .. . ... : ... .. . ... : ... .. . ... ...
ROW 37 : ... .. . ... ... ... : ... .. 0 ... ... ... : --- .. . ... : ... .. . ... : ... .. . ... ...
ROW 38 : ... .. . ... ... ... : A#3 00 F P7F ... ... : ... .. . ... : ... .. . ... : ... .. . ... ...
ROW 39 : ... .. . ... ... ... : ... .. E ... ... ... : E-4 00 . ... : ... .. . ... : ... .. . ... ...
ROW 3A : ... .. . ... ... ... : ... .. D ... ... ... : ... .. . ... : ... .. . ... : ... .. . ... ...
ROW 3B : ... .. . ... ... ... : ... .. C ... ... ... : ... .. . ... : ... .. . ... : ... .. . ... ...
ROW 3C : ... .. . ... ... ... : ... .. B ... ... ... : ... .. . ... : ... .. . ... : ... .. . ... ...
ROW 3D : ... .. . ... ... ... : ... .. A ... ... ... : ... .. . ... : ... .. . ... : ... .. . ... ...
ROW 3E : ... .. . ... ... ... : ... .. 9 ... ... ... : ... .. . ... : ... .. . ... : ... .. . ... ...
ROW 3F : ... .. . ... ... ... : ... .. 8 ... ... ... : --- .. . ... : ... .. . ... : ... .. . ... ...
ROW 40 : ... .. . ... ... ... : ... .. 7 ... ... ... : ... .. . ... : ... .. . ... : ... .. . ... ...
ROW 41 : ... .. . ... ... ... : ... .. 6 ... ... ... : B-3 00 . P7F : ... .. . ... : ... .. . ... ...
ROW 42 : ... .. . ... ... ... : ... .. 5 ... ... ... : ... .. . ... : ... .. . ... : ... .. . ... ...
ROW 43 : ... .. . ... ... ... : ... .. 4 ... ... ... : ... .. . ... : ... .. . ... : ... .. . ... ...
ROW 44 : ... .. . ... ... ... : ... .. 3 ... ... ... : ... .. . ... : ... .. . ... : ... .. . ... ...
ROW 45 : ... .. . ... ... ... : ... .. 2 ... ... ... : ... .. . ... : ... .. . ... : ... .. . ... ...
ROW 46 : ... .. . ... ... ... : ... .. 1 ... ... ... : ... .. . ... : ... .. . ... : ... .. . ... ...
ROW 47 : ... .. . ... ... ... : ... .. 0 ... ... ... : --- .. . ... : ... .. . ... : ... .. . ... ...
ROW 48 : ... .. . ... ... ... : G#3 00 F P7F ... ... : ... .. . ... : ... .. . ... : ... .. . ... ...
ROW 49 : ... .. . ... ... ... : ... .. E ... ... ... : B-3 00 . ... : ... .. . ... : ... .. . ... ...
ROW 4A : ... .. . ... ... ... : ... .. D ... ... ... : ... .. . ... : ... .. . ... : ... .. . ... ...
ROW 4B : ... .. . ... ... ... : ... .. C ... ... ... : ... .. . ... : ... .. . ... : ... .. . ... ...
ROW 4C : ... .. . ... ... ... : ... .. B ... ... ... : ... .. . ... : ... .. . ... : ... .. . ... ...
ROW 4D : ... .. . ... ... ... : ... .. A ... ... ... : ... .. . ... : ... .. . ... : ... .. . ... ...
ROW 4E : ... .. . ... ... ... : ... .. 9 ... ... ... : ... .. . ... : ... .. . ... : ... .. . ... ...
ROW 4F : ... .. . ... ... ... : ... .. 8 ... ... ... : --- .. . ... : ... .. . ... : ... .. . ... ...
ROW 50 : ... .. . ... ... ... : ... .. 7 ... ... ... : ... .. . ... : ... .. . ... : ... .. . ... ...
ROW 51 : ... .. . ... ... ... : ... .. 6 ... ... ... : E-4 00 . P80 : ... .. . ... : ... .. . ... ...
ROW 52 : ... .. . ... ... ... : ... .. 5 ... ... ... : ... .. . ... : ... .. . ... : ... .. . ... ...
ROW 53 : ... .. . ... ... ... : ... .. 4 ... ... ... : ... .. . ... : ... .. . ... : ... .. . ... ...
ROW 54 : ... .. . ... ... ... : ... .. 3 ... ... ... : ... .. . ... : ... .. . ... : ... .. . ... ...
ROW 55 : ... .. . ... ... ... : ... .. 2 ... ... ... : ... .. . ... : ... .. . ... : ... .. . ... ...
ROW 56 : ... .. . ... ... ... : ... .. 1 ... ... ... : ... .. . ... : ... .. . ... : ... .. . ... ...
ROW 57 : ... .. . ... ... ... : ... .. 0 ... ... ... : --- .. . ... : ... .. . ... : ... .. . ... ...
ROW 58 : ... .. . ... ... ... : F#3 00 F P7F ... ... : ... .. . ... : ... .. . ... : ... .. . ... ...
ROW 59 : ... .. . ... ... ... : ... .. E ... ... ... : E-4 00 . ... : ... .. . ... : ... .. . ... ...
ROW 5A : ... .. . ... ... ... : ... .. D ... ... ... : ... .. . ... : ... .. . ... : ... .. . ... ...
ROW 5B : ... .. . ... ... ... : ... .. C ... ... ... : ... .. . ... : ... .. . ... : ... .. . ... ...
ROW 5C : ... .. . ... ... ... : ... .. B ... ... ... : ... .. . ... : ... .. . ... : ... .. . ... ...
ROW 5D : ... .. . ... ... ... : ... .. A ... ... ... : ... .. . ... : ... .. . ... : ... .. . ... ...
ROW 5E : ... .. . ... ... ... : ... .. 9 ... ... ... : ... .. . ... : ... .. . ... : ... .. . ... ...
ROW 5F : ... .. . ... ... ... : ... .. 8 ... ... ... : --- .. . ... : ... .. . ... : ... .. . ... ...
ROW 60 : ... .. . ... ... ... : G#3 00 F P7F ... ... : ... .. . ... : ... .. . ... : ... .. . ... ...
ROW 61 : ... .. . ... ... ... : ... .. E ... ... ... : B-3 00 . P7F : ... .. . ... : ... .. . ... ...
ROW 62 : ... .. . ... ... ... : ... .. D ... ... ... : ... .. . ... : ... .. . ... : ... .. . ... ...
ROW 63 : ... .. . ... ... ... : ... .. C ... ... ... : ... .. . ... : ... .. . ... : ... .. . ... ...
ROW 64 : ... .. . ... ... ... : ... .. B ... ... ... : ... .. . ... : ... .. . ... : ... .. . ... ...
ROW 65 : ... .. . ... ... ... : ... .. A ... ... ... : ... .. . ... : ... .. . ... : ... .. . ... ...
ROW 66 : ... .. . ... ... ... : ... .. 9 ... ... ... : ... .. . ... : ... .. . ... : ... .. . ... ...
ROW 67 : ... .. . ... ... ... : ... .. 8 ... ... ... : --- .. . ... : ... .. . ... : ... .. . ... ...
ROW 68 : ... .. . ... ... ... : F#3 00 F P7F ... ... : ... .. . ... : ... .. . ... : ... .. . ... ...
ROW 69 : ... .. . ... ... ... : ... .. E ... ... ... : B-3 00 . ... : ... .. . ... : ... .. . ... ...
ROW 6A : ... .. . ... ... ... : ... .. D ... ... ... : ... .. . ... : ... .. . ... : ... .. . ... ...
ROW 6B : ... .. . ... ... ... : ... .. C ... ... ... : ... .. . ... : ... .. . ... : ... .. . ... ...
ROW 6C : ... .. . ... ... ... : ... .. B ... ... ... : ... .. . ... : ... .. . ... : ... .. . ... ...
ROW 6D : ... .. . ... ... ... : ... .. A ... ... ... : ... .. . ... : ... .. . ... : ... .. . ... ...
ROW 6E : ... .. . ... ... ... : ... .. 9 ... ... ... : ... .. . ... : ... .. . ... : ... .. . ... ...
ROW 6F : ... .. . ... ... ... : ... .. 8 ... ... ... : --- .. . ... : ... .. . ... : ... .. . ... ...
ROW 70 : ... .. . ... ... ... : G#3 00 F P7F ... ... : ... .. . ... : ... .. . ... : ... .. . ... ...
ROW 71 : ... .. . ... ... ... : ... .. E ... ... ... : E-4 00 . P80 : ... .. . ... : ... .. . ... ...
ROW 72 : ... .. . ... ... ... : ... .. D ... ... ... : ... .. . ... : ... .. . ... : ... .. . ... ...
ROW 73 : ... .. . ... ... ... : ... .. C ... ... ... : ... .. . ... : ... .. . ... : ... .. . ... ...
ROW 74 : ... .. . ... ... ... : ... .. B ... ... ... : ... .. . ... : ... .. . ... : ... .. . ... ...
ROW 75 : ... .. . ... ... ... : ... .. A ... ... ... : ... .. . ... : ... .. . ... : ... .. . ... ...
ROW 76 : ... .. . ... ... ... : ... .. 9 ... ... ... : ... .. . ... : ... .. . ... : ... .. . ... ...
ROW 77 : ... .. . ... ... ... : ... .. 8 ... ... ... : --- .. . ... : ... .. . ... : ... .. . ... ...
ROW 78 : ... .. . ... ... ... : E-3 00 F P7F ... ... : ... .. . ... : ... .. . ... : ... .. . ... ...
ROW 79 : ... .. . ... ... ... : ... .. E ... ... ... : E-4 00 . ... : ... .. . ... : ... .. . ... ...
ROW 7A : ... .. . ... ... ... : ... .. D ... ... ... : ... .. . ... : ... .. . ... : ... .. . ... ...
ROW 7B : ... .. . ... ... ... : ... .. C ... ... ... : ... .. . ... : ... .. . ... : ... .. . ... ...
ROW 7C : ... .. . ... ... ... : ... .. B ... ... ... : ... .. . ... : ... .. . ... : ... .. . ... ...
ROW 7D : ... .. . ... ... ... : ... .. A ... ... ... : ... .. . ... : ... .. . ... : ... .. . ... ...
ROW 7E : ... .. . ... ... ... : ... .. 9 ... ... ... : ... .. . ... : ... .. . ... : ... .. . ... ...
ROW 7F : ... .. . ... ... ... : ... .. 8 ... ... ... : --- .. . ... : ... .. . ... : ... .. . ... ...
ROW 80 : ... .. . ... ... ... : G#3 00 F P7F ... ... : ... .. . ... : ... .. . ... : ... .. . ... ...
ROW 81 : ... .. . ... ... ... : ... .. E ... ... ... : B-3 00 . P7F : ... .. . ... : ... .. . ... ...
ROW 82 : ... .. . ... ... ... : ... .. D ... ... ... : ... .. . ... : ... .. . ... : ... .. . ... ...
ROW 83 : ... .. . ... ... ... : ... .. C ... ... ... : ... .. . ... : ... .. . ... : ... .. . ... ...
ROW 84 : ... .. . ... ... ... : ... .. B ... ... ... : ... .. . ... : ... .. . ... : ... .. . ... ...
ROW 85 : ... .. . ... ... ... : ... .. A ... ... ... : ... .. . ... : ... .. . ... : ... .. . ... ...
ROW 86 : ... .. . ... ... ... : ... .. 9 ... ... ... : ... .. . ... : ... .. . ... : ... .. . ... ...
ROW 87 : ... .. . ... ... ... : ... .. 8 ... ... ... : --- .. . ... : ... .. . ... : ... .. . ... ...
ROW 88 : ... .. . ... ... ... : F#3 00 F P7F ... ... : ... .. . ... : ... .. . ... : ... .. . ... ...
ROW 89 : ... .. . ... ... ... : ... .. E ... ... ... : B-3 00 . ... : ... .. . ... : ... .. . ... ...
ROW 8A : ... .. . ... ... ... : ... .. D ... ... ... : ... .. . ... : ... .. . ... : ... .. . ... ...
ROW 8B : ... .. . ... ... ... : ... .. C ... ... ... : ... .. . ... : ... .. . ... : ... .. . ... ...
ROW 8C : ... .. . ... ... ... : ... .. B ... ... ... : ... .. . ... : ... .. . ... : ... .. . ... ...
ROW 8D : ... .. . ... ... ... : ... .. A ... ... ... : ... .. . ... : ... .. . ... : ... .. . ... ...
ROW 8E : ... .. . ... ... ... : ... .. 9 ... ... ... : ... .. . ... : ... .. . ... : ... .. . ... ...
ROW 8F : ... .. . ... ... ... : ... .. 8 ... ... ... : --- .. . ... : ... .. . ... : ... .. . ... ...
ROW 90 : ... .. . ... ... ... : G#3 00 F P7F ... ... : ... .. . ... : ... .. . ... : ... .. . ... ...
ROW 91 : ... .. . ... ... ... : ... .. E ... ... ... : E-4 00 . P80 : ... .. . ... : ... .. . ... ...
ROW 92 : ... .. . ... ... ... : ... .. D ... ... ... : ... .. . ... : ... .. . ... : ... .. . ... ...
ROW 93 : ... .. . ... ... ... : ... .. C ... ... ... : ... .. . ... : ... .. . ... : ... .. . ... ...
ROW 94 : ... .. . ... ... ... : ... .. B ... ... ... : ... .. . ... : ... .. . ... : ... .. . ... ...
ROW 95 : ... .. . ... ... ... : ... .. A ... ... ... : ... .. . ... : ... .. . ... : ... .. . ... ...
ROW 96 : ... .. . ... ... ... : ... .. 9 ... ... ... : ... .. . ... : ... .. . ... : ... .. . ... ...
ROW 97 : ... .. . ... ... ... : ... .. 8 ... ... ... : --- .. . ... : ... .. . ... : ... .. . ... ...
ROW 98 : ... .. . ... ... ... : A#3 00 F P7F ... ... : ... .. . ... : ... .. . ... : ... .. . ... ...
ROW 99 : ... .. . ... ... ... : ... .. E ... ... ... : E-4 00 . ... : ... .. . ... : ... .. . ... ...
ROW 9A : ... .. . ... ... ... : ... .. D ... ... ... : ... .. . ... : ... .. . ... : ... .. . ... ...
ROW 9B : ... .. . ... ... ... : ... .. C ... ... ... : ... .. . ... : ... .. . ... : ... .. . ... ...
ROW 9C : ... .. . ... ... ... : ... .. B ... ... ... : ... .. . ... : ... .. . ... : ... .. . ... ...
ROW 9D : ... .. . ... ... ... : ... .. A ... ... ... : ... .. . ... : ... .. . ... : ... .. . ... ...
ROW 9E : ... .. . ... ... ... : ... .. 9 ... ... ... : ... .. . ... : ... .. . ... : ... .. . ... ...
ROW 9F : ... .. . ... ... ... : ... .. 8 ... ... ... : --- .. . ... : ... .. . ... : ... .. . ... ...
ROW A0 : ... .. . ... ... ... : ... .. 7 ... ... ... : ... .. . ... : ... .. . ... : ... .. . ... ...
ROW A1 : ... .. . ... ... ... : ... .. 6 ... ... ... : B-3 00 . P7F : ... .. . ... : ... .. . ... ...
ROW A2 : ... .. . ... ... ... : ... .. 5 ... ... ... : ... .. . ... : ... .. . ... : ... .. . ... ...
ROW A3 : ... .. . ... ... ... : ... .. 4 ... ... ... : ... .. . ... : ... .. . ... : ... .. . ... ...
ROW A4 : ... .. . ... ... ... : ... .. 3 ... ... ... : ... .. . ... : ... .. . ... : ... .. . ... ...
ROW A5 : ... .. . ... ... ... : ... .. 2 ... ... ... : ... .. . ... : ... .. . ... : ... .. . ... ...
ROW A6 : ... .. . ... ... ... : ... .. 1 ... ... ... : ... .. . ... : ... .. . ... : ... .. . ... ...
ROW A7 : ... .. . ... ... ... : ... .. 0 ... ... ... : --- .. . ... : ... .. . ... : ... .. . ... ...
ROW A8 : ... .. . ... ... ... : B-3 00 F P7F ... ... : ... .. . ... : ... .. . ... : ... .. . ... ...
ROW A9 : ... .. . ... ... ... : ... .. E ... ... ... : B-3 00 . ... : ... .. . ... : ... .. . ... ...
ROW AA : ... .. . ... ... ... : ... .. D ... ... ... : ... .. . ... : ... .. . ... : ... .. . ... ...
ROW AB : ... .. . ... ... ... : ... .. C ... ... ... : ... .. . ... : ... .. . ... : ... .. . ... ...
ROW AC : ... .. . ... ... ... : ... .. B ... ... ... : ... .. . ... : ... .. . ... : ... .. . ... ...
ROW AD : ... .. . ... ... ... : ... .. A ... ... ... : ... .. . ... : ... .. . ... : ... .. . ... ...
ROW AE : ... .. . ... ... ... : ... .. 9 ... ... ... : ... .. . ... : ... .. . ... : ... .. . ... ...
ROW AF : ... .. . ... ... ... : ... .. 8 ... ... ... : --- .. . ... : ... .. . ... : ... .. . ... ...
ROW B0 : ... .. . ... ... ... : ... .. 7 ... ... ... : ... .. . ... : ... .. . ... : ... .. . ... ...
ROW B1 : ... .. . ... ... ... : ... .. 6 ... ... ... : E-4 00 . P80 : ... .. . ... : ... .. . ... ...
ROW B2 : ... .. . ... ... ... : ... .. 5 ... ... ... : ... .. . ... : ... .. . ... : ... .. . ... ...
ROW B3 : ... .. . ... ... ... : ... .. 4 ... ... ... : ... .. . ... : ... .. . ... : ... .. . ... ...
ROW B4 : ... .. . ... ... ... : ... .. 3 ... ... ... : ... .. . ... : ... .. . ... : ... .. . ... ...
ROW B5 : ... .. . ... ... ... : ... .. 2 ... ... ... : ... .. . ... : ... .. . ... : ... .. . ... ...
ROW B6 : ... .. . ... ... ... : ... .. 1 ... ... ... : ... .. . ... : ... .. . ... : ... .. . ... ...
ROW B7 : ... .. . ... ... ... : ... .. 0 ... ... ... : --- .. . ... : ... .. . ... : ... .. . ... ...
ROW B8 : ... .. . ... ... ... : A#3 00 F P7F ... ... : ... .. . ... : ... .. . ... : ... .. . ... ...
ROW B9 : ... .. . ... ... ... : ... .. E ... ... ... : E-4 00 . ... : ... .. . ... : ... .. . ... ...
ROW BA : ... .. . ... ... ... : ... .. D ... ... ... : ... .. . ... : ... .. . ... : ... .. . ... ...
ROW BB : ... .. . ... ... ... : ... .. C ... ... ... : ... .. . ... : ... .. . ... : ... .. . ... ...
ROW BC : ... .. . ... ... ... : ... .. B ... ... ... : ... .. . ... : ... .. . ... : ... .. . ... ...
ROW BD : ... .. . ... ... ... : ... .. A ... ... ... : ... .. . ... : ... .. . ... : ... .. . ... ...
ROW BE : ... .. . ... ... ... : ... .. 9 ... ... ... : ... .. . ... : ... .. . ... : ... .. . ... ...
ROW BF : ... .. . ... ... ... : ... .. 8 ... ... ... : --- .. . ... : ... .. . ... : ... .. . ... ...
ROW C0 : ... .. . ... ... ... : ... .. 7 ... ... ... : ... .. . ... : ... .. . ... : ... .. . ... ...
ROW C1 : ... .. . ... ... ... : ... .. 6 ... ... ... : B-3 00 . P7F : ... .. . ... : ... .. . ... ...
ROW C2 : ... .. . ... ... ... : ... .. 5 ... ... ... : ... .. . ... : ... .. . ... : ... .. . ... ...
ROW C3 : ... .. . ... ... ... : ... .. 4 ... ... ... : ... .. . ... : ... .. . ... : ... .. . ... ...
ROW C4 : ... .. . ... ... ... : ... .. 3 ... ... ... : ... .. . ... : ... .. . ... : ... .. . ... ...
ROW C5 : ... .. . ... ... ... : ... .. 2 ... ... ... : ... .. . ... : ... .. . ... : ... .. . ... ...
ROW C6 : ... .. . ... ... ... : ... .. 1 ... ... ... : ... .. . ... : ... .. . ... : ... .. . ... ...
ROW C7 : ... .. . ... ... ... : ... .. 0 ... ... ... : --- .. . ... : ... .. . ... : ... .. . ... ...
ROW C8 : ... .. . ... ... ... : G#3 00 F P7F ... ... : ... .. . ... : ... .. . ... : ... .. . ... ...
ROW C9 : ... .. . ... ... ... : ... .. E ... ... ... : B-3 00 . ... : ... .. . ... : ... .. . ... ...
ROW CA : ... .. . ... ... ... : ... .. D ... ... ... : ... .. . ... : ... .. . ... : ... .. . ... ...
ROW CB : ... .. . ... ... ... : ... .. C ... ... ... : ... .. . ... : ... .. . ... : ... .. . ... ...
ROW CC : ... .. . ... ... ... : ... .. B ... ... ... : ... .. . ... : ... .. . ... : ... .. . ... ...
ROW CD : ... .. . ... ... ... : ... .. A ... ... ... : ... .. . ... : ... .. . ... : ... .. . ... ...
ROW CE : ... .. . ... ... ... : ... .. 9 ... ... ... : ... .. . ... : ... .. . ... : ... .. . ... ...
ROW CF : ... .. . ... ... ... : ... .. 8 ... ... ... : --- .. . ... : ... .. . ... : ... .. . ... ...
ROW D0 : ... .. . ... ... ... : ... .. 7 ... ... ... : ... .. . ... : ... .. . ... : ... .. . ... ...
ROW D1 : ... .. . ... ... ... : ... .. 6 ... ... ... : E-4 00 . P80 : ... .. . ... : ... .. . ... ...
ROW D2 : ... .. . ... ... ... : ... .. 5 ... ... ... : ... .. . ... : ... .. . ... : ... .. . ... ...
ROW D3 : ... .. . ... ... ... : ... .. 4 ... ... ... : ... .. . ... : ... .. . ... : ... .. . ... ...
ROW D4 : ... .. . ... ... ... : ... .. 3 ... ... ... : ... .. . ... : ... .. . ... : ... .. . ... ...
ROW D5 : ... .. . ... ... ... : ... .. 2 ... ... ... : ... .. . ... : ... .. . ... : ... .. . ... ...
ROW D6 : ... .. . ... ... ... : ... .. 1 ... ... ... : ... .. . ... : ... .. . ... : ... .. . ... ...
ROW D7 : ... .. . ... ... ... : ... .. 0 ... ... ... : --- .. . ... : ... .. . ... : ... .. . ... ...
ROW D8 : ... .. . ... ... ... : F#3 00 F P7F ... ... : ... .. . ... : ... .. . ... : ... .. . ... ...
ROW D9 : ... .. . ... ... ... : ... .. E ... ... ... : E-4 00 . ... : ... .. . ... : ... .. . ... ...
ROW DA : ... .. . ... ... ... : ... .. D ... ... ... : ... .. . ... : ... .. . ... : ... .. . ... ...
ROW DB : ... .. . ... ... ... : ... .. C ... ... ... : ... .. . ... : ... .. . ... : ... .. . ... ...
ROW DC : ... .. . ... ... ... : ... .. B ... ... ... : ... .. . ... : ... .. . ... : ... .. . ... ...
ROW DD : ... .. . ... ... ... : ... .. A ... ... ... : ... .. . ... : ... .. . ... : ... .. . ... ...
ROW DE : ... .. . ... ... ... : ... .. 9 ... ... ... : ... .. . ... : ... .. . ... : ... .. . ... ...
ROW DF : ... .. . ... ... ... : ... .. 8 ... ... ... : --- .. . ... : ... .. . ... : ... .. . ... ...
ROW E0 : ... .. . ... ... ... : G#3 00 F P7F ... ... : ... .. . ... : ... .. . ... : ... .. . ... ...
ROW E1 : ... .. . ... ... ... : ... .. E ... ... ... : B-3 00 . P7F : ... .. . ... : ... .. . ... ...
ROW E2 : ... .. . ... ... ... : ... .. D ... ... ... : ... .. . ... : ... .. . ... : ... .. . ... ...
ROW E3 : ... .. . ... ... ... : ... .. C ... ... ... : ... .. . ... : ... .. . ... : ... .. . ... ...
ROW E4 : ... .. . ... ... ... : ... .. B ... ... ... : ... .. . ... : ... .. . ... : ... .. . ... ...
ROW E5 : ... .. . ... ... ... : ... .. A ... ... ... : ... .. . ... : ... .. . ... : ... .. . ... ...
ROW E6 : ... .. . ... ... ... : ... .. 9 ... ... ... : ... .. . ... : ... .. . ... : ... .. . ... ...
ROW E7 : ... .. . ... ... ... : ... .. 8 ... ... ... : --- .. . ... : ... .. . ... : ... .. . ... ...
ROW E8 : ... .. . ... ... ... : F#3 00 F P7F ... ... : ... .. . ... : ... .. . ... : ... .. . ... ...
ROW E9 : ... .. . ... ... ... : ... .. E ... ... ... : B-3 00 . ... : ... .. . ... : ... .. . ... ...
ROW EA : ... .. . ... ... ... : ... .. D ... ... ... : ... .. . ... : ... .. . ... : ... .. . ... ...
ROW EB : ... .. . ... ... ... : ... .. C ... ... ... : ... .. . ... : ... .. . ... : ... .. . ... ...
ROW EC : ... .. . ... ... ... : ... .. B ... ... ... : ... .. . ... : ... .. . ... : ... .. . ... ...
ROW ED : ... .. . ... ... ... : ... .. A ... ... ... : ... .. . ... : ... .. . ... : ... .. . ... ...
ROW EE : ... .. . ... ... ... : ... .. 9 ... ... ... : ... .. . ... : ... .. . ... : ... .. . ... ...
ROW EF : ... .. . ... ... ... : ... .. 8 ... ... ... : --- .. . ... : ... .. . ... : ... .. . ... ...
ROW F0 : ... .. . ... ... ... : G#3 00 F P7F ... ... : ... .. . ... : ... .. . ... : ... .. . ... ...
ROW F1 : ... .. . ... ... ... : ... .. E ... ... ... : E-4 00 . P80 : ... .. . ... : ... .. . ... ...
ROW F2 : ... .. . ... ... ... : ... .. D ... ... ... : ... .. . ... : ... .. . ... : ... .. . ... ...
ROW F3 : ... .. . ... ... ... : ... .. C ... ... ... : ... .. . ... : ... .. . ... : ... .. . ... ...
ROW F4 : ... .. . ... ... ... : ... .. B ... ... ... : ... .. . ... : ... .. . ... : ... .. . ... ...
ROW F5 : ... .. . ... ... ... : ... .. A ... ... ... : ... .. . ... : ... .. . ... : ... .. . ... ...
ROW F6 : ... .. . ... ... ... : ... .. 9 ... ... ... : ... .. . ... : ... .. . ... : ... .. . ... ...
ROW F7 : ... .. . ... ... ... : ... .. 8 ... ... ... : --- .. . ... : ... .. . ... : ... .. . ... ...
ROW F8 : ... .. . ... ... ... : E-3 00 F P7F ... ... : ... .. . ... : ... .. . ... : ... .. . ... ...
ROW F9 : ... .. . ... ... ... : ... .. E ... ... ... : E-4 00 . ... : ... .. . ... : ... .. . ... ...
ROW FA : ... .. . ... ... ... : ... .. D ... ... ... : ... .. . ... : ... .. . ... : ... .. . ... ...
ROW FB : ... .. . ... ... ... : ... .. C ... ... ... : ... .. . ... : ... .. . ... : ... .. . ... ...
ROW FC : ... .. . ... ... ... : ... .. B ... ... ... : ... .. . ... : ... .. . ... : ... .. . ... ...
ROW FD : ... .. . ... ... ... : ... .. A ... ... ... : ... .. . ... : ... .. . ... : ... .. . ... ...
ROW FE : ... .. . ... ... ... : ... .. 9 ... ... ... : ... .. . ... : ... .. . ... : ... .. . ... ...
ROW FF : ... .. . ... ... ... : ... .. 8 ... ... ... : --- .. . ... : ... .. . ... : ... .. . ... ...

PATTERN 0B
ROW 00 : ... .. . ... ... ... : F#3 00 F P7F ... ... : ... .. . ... : ... .. . ... : ... .. . ... ...
ROW 01 : ... .. . ... ... ... : ... .. E ... ... ... : A-3 00 . P7F : ... .. . ... : ... .. . ... ...
ROW 02 : ... .. . ... ... ... : ... .. D ... ... ... : ... .. . ... : ... .. . ... : ... .. . ... ...
ROW 03 : ... .. . ... ... ... : ... .. C ... ... ... : ... .. . ... : ... .. . ... : ... .. . ... ...
ROW 04 : ... .. . ... ... ... : ... .. B ... ... ... : ... .. . ... : ... .. . ... : ... .. . ... ...
ROW 05 : ... .. . ... ... ... : ... .. A ... ... ... : ... .. . ... : ... .. . ... : ... .. . ... ...
ROW 06 : ... .. . ... ... ... : ... .. 9 ... ... ... : ... .. . ... : ... .. . ... : ... .. . ... ...
ROW 07 : ... .. . ... ... ... : ... .. 8 ... ... ... : --- .. . ... : ... .. . ... : ... .. . ... ...
ROW 08 : ... .. . ... ... ... : E-3 00 F P7F ... ... : ... .. . ... : ... .. . ... : ... .. . ... ...
ROW 09 : ... .. . ... ... ... : ... .. E ... ... ... : A-3 00 . ... : ... .. . ... : ... .. . ... ...
ROW 0A : ... .. . ... ... ... : ... .. D ... ... ... : ... .. . ... : ... .. . ... : ... .. . ... ...
ROW 0B : ... .. . ... ... ... : ... .. C ... ... ... : ... .. . ... : ... .. . ... : ... .. . ... ...
ROW 0C : ... .. . ... ... ... : ... .. B ... ... ... : ... .. . ... : ... .. . ... : ... .. . ... ...
ROW 0D : ... .. . ... ... ... : ... .. A ... ... ... : ... .. . ... : ... .. . ... : ... .. . ... ...
ROW 0E : ... .. . ... ... ... : ... .. 9 ... ... ... : ... .. . ... : ... .. . ... : ... .. . ... ...
ROW 0F : ... .. . ... ... ... : ... .. 8 ... ... ... : --- .. . ... : ... .. . ... : ... .. . ... ...
ROW 10 : ... .. . ... ... ... : F#3 00 F P7F ... ... : ... .. . ... : ... .. . ... : ... .. . ... ...
ROW 11 : ... .. . ... ... ... : ... .. E ... ... ... : D-4 00 . ... : ... .. . ... : ... .. . ... ...
ROW 12 : ... .. . ... ... ... : ... .. D ... ... ... : ... .. . ... : ... .. . ... : ... .. . ... ...
ROW 13 : ... .. . ... ... ... : ... .. C ... ... ... : ... .. . ... : ... .. . ... : ... .. . ... ...
ROW 14 : ... .. . ... ... ... : ... .. B ... ... ... : ... .. . ... : ... .. . ... : ... .. . ... ...
ROW 15 : ... .. . ... ... ... : ... .. A ... ... ... : ... .. . ... : ... .. . ... : ... .. . ... ...
ROW 16 : ... .. . ... ... ... : ... .. 9 ... ... ... : ... .. . ... : ... .. . ... : ... .. . ... ...
ROW 17 : ... .. . ... ... ... : ... .. 8 ... ... ... : --- .. . ... : ... .. . ... : ... .. . ... ...
ROW 18 : ... .. . ... ... ... : G#3 00 F P7F ... ... : ... .. . ... : ... .. . ... : ... .. . ... ...
ROW 19 : ... .. . ... ... ... : ... .. E ... ... ... : D-4 00 . ... : ... .. . ... : ... .. . ... ...
ROW 1A : ... .. . ... ... ... : ... .. D ... ... ... : ... .. . ... : ... .. . ... : ... .. . ... ...
ROW 1B : ... .. . ... ... ... : ... .. C ... ... ... : ... .. . ... : ... .. . ... : ... .. . ... ...
ROW 1C : ... .. . ... ... ... : ... .. B ... ... ... : ... .. . ... : ... .. . ... : ... .. . ... ...
ROW 1D : ... .. . ... ... ... : ... .. A ... ... ... : ... .. . ... : ... .. . ... : ... .. . ... ...
ROW 1E : ... .. . ... ... ... : ... .. 9 ... ... ... : ... .. . ... : ... .. . ... : ... .. . ... ...
ROW 1F : ... .. . ... ... ... : ... .. 8 ... ... ... : --- .. . ... : ... .. . ... : ... .. . ... ...
ROW 20 : ... .. . ... ... ... : ... .. 7 ... ... ... : ... .. . ... : ... .. . ... : ... .. . ... ...
ROW 21 : ... .. . ... ... ... : ... .. 6 ... ... ... : A-3 00 . ... : ... .. . ... : ... .. . ... ...
ROW 22 : ... .. . ... ... ... : ... .. 5 ... ... ... : ... .. . ... : ... .. . ... : ... .. . ... ...
ROW 23 : ... .. . ... ... ... : ... .. 4 ... ... ... : ... .. . ... : ... .. . ... : ... .. . ... ...
ROW 24 : ... .. . ... ... ... : ... .. 3 ... ... ... : ... .. . ... : ... .. . ... : ... .. . ... ...
ROW 25 : ... .. . ... ... ... : ... .. 2 ... ... ... : ... .. . ... : ... .. . ... : ... .. . ... ...
ROW 26 : ... .. . ... ... ... : ... .. 1 ... ... ... : ... .. . ... : ... .. . ... : ... .. . ... ...
ROW 27 : ... .. . ... ... ... : ... .. 0 ... ... ... : --- .. . ... : ... .. . ... : ... .. . ... ...
ROW 28 : ... .. . ... ... ... : A-3 00 F P7F ... ... : ... .. . ... : ... .. . ... : ... .. . ... ...
ROW 29 : ... .. . ... ... ... : ... .. E ... ... ... : A-3 00 . ... : ... .. . ... : ... .. . ... ...
ROW 2A : ... .. . ... ... ... : ... .. D ... ... ... : ... .. . ... : ... .. . ... : ... .. . ... ...
ROW 2B : ... .. . ... ... ... : ... .. C ... ... ... : ... .. . ... : ... .. . ... : ... .. . ... ...
ROW 2C : ... .. . ... ... ... : ... .. B ... ... ... : ... .. . ... : ... .. . ... : ... .. . ... ...
ROW 2D : ... .. . ... ... ... : ... .. A ... ... ... : ... .. . ... : ... .. . ... : ... .. . ... ...
ROW 2E : ... .. . ... ... ... : ... .. 9 ... ... ... : ... .. . ... : ... .. . ... : ... .. . ... ...
ROW 2F : ... .. . ... ... ... : ... .. 8 ... ... ... : --- .. . ... : ... .. . ... : ... .. . ... ...
ROW 30 : ... .. . ... ... ... : ... .. 7 ... ... ... : ... .. . ... : ... .. . ... : ... .. . ... ...
ROW 31 : ... .. . ... ... ... : ... .. 6 ... ... ... : D-4 00 . ... : ... .. . ... : ... .. . ... ...
ROW 32 : ... .. . ... ... ... : ... .. 5 ... ... ... : ... .. . ... : ... .. . ... : ... .. . ... ...
ROW 33 : ... .. . ... ... ... : ... .. 4 ... ... ... : ... .. . ... : ... .. . ... : ... .. . ... ...
ROW 34 : ... .. . ... ... ... : ... .. 3 ... ... ... : ... .. . ... : ... .. . ... : ... .. . ... ...
ROW 35 : ... .. . ... ... ... : ... .. 2 ... ... ... : ... .. . ... : ... .. . ... : ... .. . ... ...
ROW 36 : ... .. . ... ... ... : ... .. 1 ... ... ... : ... .. . ... : ... .. . ... : ... .. . ... ...
ROW 37 : ... .. . ... ... ... : ... .. 0 ... ... ... : --- .. . ... : ... .. . ... : ... .. . ... ...
ROW 38 : ... .. . ... ... ... : G#3 00 F P7F ... ... : ... .. . ... : ... .. . ... : ... .. . ... ...
ROW 39 : ... .. . ... ... ... : ... .. E ... ... ... : D-4 00 . ... : ... .. . ... : ... .. . ... ...
ROW 3A : ... .. . ... ... ... : ... .. D ... ... ... : ... .. . ... : ... .. . ... : ... .. . ... ...
ROW 3B : ... .. . ... ... ... : ... .. C ... ... ... : ... .. . ... : ... .. . ... : ... .. . ... ...
ROW 3C : ... .. . ... ... ... : ... .. B ... ... ... : ... .. . ... : ... .. . ... : ... .. . ... ...
ROW 3D : ... .. . ... ... ... : ... .. A ... ... ... : ... .. . ... : ... .. . ... : ... .. . ... ...
ROW 3E : ... .. . ... ... ... : ... .. 9 ... ... ... : ... .. . ... : ... .. . ... : ... .. . ... ...
ROW 3F : ... .. . ... ... ... : ... .. 8 ... ... ... : --- .. . ... : ... .. . ... : ... .. . ... ...
ROW 40 : ... .. . ... ... ... : ... .. 7 ... ... ... : ... .. . ... : ... .. . ... : ... .. . ... ...
ROW 41 : ... .. . ... ... ... : ... .. 6 ... ... ... : A-3 00 . ... : ... .. . ... : ... .. . ... ...
ROW 42 : ... .. . ... ... ... : ... .. 5 ... ... ... : ... .. . ... : ... .. . ... : ... .. . ... ...
ROW 43 : ... .. . ... ... ... : ... .. 4 ... ... ... : ... .. . ... : ... .. . ... : ... .. . ... ...
ROW 44 : ... .. . ... ... ... : ... .. 3 ... ... ... : ... .. . ... : ... .. . ... : ... .. . ... ...
ROW 45 : ... .. . ... ... ... : ... .. 2 ... ... ... : ... .. . ... : ... .. . ... : ... .. . ... ...
ROW 46 : ... .. . ... ... ... : ... .. 1 ... ... ... : ... .. . ... : ... .. . ... : ... .. . ... ...
ROW 47 : ... .. . ... ... ... : ... .. 0 ... ... ... : --- .. . ... : ... .. . ... : ... .. . ... ...
ROW 48 : ... .. . ... ... ... : F#3 00 F P7F ... ... : ... .. . ... : ... .. . ... : ... .. . ... ...
ROW 49 : ... .. . ... ... ... : ... .. E ... ... ... : A-3 00 . ... : ... .. . ... : ... .. . ... ...
ROW 4A : ... .. . ... ... ... : ... .. D ... ... ... : ... .. . ... : ... .. . ... : ... .. . ... ...
ROW 4B : ... .. . ... ... ... : ... .. C ... ... ... : ... .. . ... : ... .. . ... : ... .. . ... ...
ROW 4C : ... .. . ... ... ... : ... .. B ... ... ... : ... .. . ... : ... .. . ... : ... .. . ... ...
ROW 4D : ... .. . ... ... ... : ... .. A ... ... ... : ... .. . ... : ... .. . ... : ... .. . ... ...
ROW 4E : ... .. . ... ... ... : ... .. 9 ... ... ... : ... .. . ... : ... .. . ... : ... .. . ... ...
ROW 4F : ... .. . ... ... ... : ... .. 8 ... ... ... : --- .. . ... : ... .. . ... : ... .. . ... ...
ROW 50 : ... .. . ... ... ... : ... .. 7 ... ... ... : ... .. . ... : ... .. . ... : ... .. . ... ...
ROW 51 : ... .. . ... ... ... : ... .. 6 ... ... ... : D-4 00 . ... : ... .. . ... : ... .. . ... ...
ROW 52 : ... .. . ... ... ... : ... .. 5 ... ... ... : ... .. . ... : ... .. . ... : ... .. . ... ...
ROW 53 : ... .. . ... ... ... : ... .. 4 ... ... ... : ... .. . ... : ... .. . ... : ... .. . ... ...
ROW 54 : ... .. . ... ... ... : ... .. 3 ... ... ... : ... .. . ... : ... .. . ... : ... .. . ... ...
ROW 55 : ... .. . ... ... ... : ... .. 2 ... ... ... : ... .. . ... : ... .. . ... : ... .. . ... ...
ROW 56 : ... .. . ... ... ... : ... .. 1 ... ... ... : ... .. . ... : ... .. . ... : ... .. . ... ...
ROW 57 : ... .. . ... ... ... : ... .. 0 ... ... ... : --- .. . ... : ... .. . ... : ... .. . ... ...
ROW 58 : ... .. . ... ... ... : G#3 00 F P7F ... ... : ... .. . ... : ... .. . ... : ... .. . ... ...
ROW 59 : ... .. . ... ... ... : ... .. E ... ... ... : D-4 00 . ... : ... .. . ... : ... .. . ... ...
ROW 5A : ... .. . ... ... ... : ... .. D ... ... ... : ... .. . ... : ... .. . ... : ... .. . ... ...
ROW 5B : ... .. . ... ... ... : ... .. C ... ... ... : ... .. . ... : ... .. . ... : ... .. . ... ...
ROW 5C : ... .. . ... ... ... : ... .. B ... ... ... : ... .. . ... : ... .. . ... : ... .. . ... ...
ROW 5D : ... .. . ... ... ... : ... .. A ... ... ... : ... .. . ... : ... .. . ... : ... .. . ... ...
ROW 5E : ... .. . ... ... ... : ... .. 9 ... ... ... : ... .. . ... : ... .. . ... : ... .. . ... ...
ROW 5F : ... .. . ... ... ... : ... .. 8 ... ... ... : --- .. . ... : ... .. . ... : ... .. . ... ...
ROW 60 : ... .. . ... ... ... : F#3 00 F P7F ... ... : ... .. . ... : ... .. . ... : ... .. . ... ...
ROW 61 : ... .. . ... ... ... : ... .. E ... ... ... : E-3 00 . ... : ... .. . ... : ... .. . ... ...
ROW 62 : ... .. . ... ... ... : ... .. D ... ... ... : ... .. . ... : ... .. . ... : ... .. . ... ...
ROW 63 : ... .. . ... ... ... : ... .. C ... ... ... : ... .. . ... : ... .. . ... : ... .. . ... ...
ROW 64 : ... .. . ... ... ... : ... .. B ... ... ... : ... .. . ... : ... .. . ... : ... .. . ... ...
ROW 65 : ... .. . ... ... ... : ... .. A ... ... ... : ... .. . ... : ... .. . ... : ... .. . ... ...
ROW 66 : ... .. . ... ... ... : ... .. 9 ... ... ... : ... .. . ... : ... .. . ... : ... .. . ... ...
ROW 67 : ... .. . ... ... ... : ... .. 8 ... ... ... : --- .. . ... : ... .. . ... : ... .. . ... ...
ROW 68 : ... .. . ... ... ... : E-3 00 F P7F ... ... : ... .. . ... : ... .. . ... : ... .. . ... ...
ROW 69 : ... .. . ... ... ... : ... .. E ... ... ... : E-3 00 . ... : ... .. . ... : ... .. . ... ...
ROW 6A : ... .. . ... ... ... : ... .. D ... ... ... : ... .. . ... : ... .. . ... : ... .. . ... ...
ROW 6B : ... .. . ... ... ... : ... .. . ... ... ... : ... .. . ... : ... .. . ... : ... .. . ... ...
ROW 6C : ... .. . ... ... ... : ... .. . ... ... ... : ... .. . ... : ... .. . ... : ... .. . ... ...
ROW 6D : ... .. . ... ... ... : ... .. . ... ... ... : ... .. . ... : ... .. . ... : ... .. . ... ...
ROW 6E : ... .. . ... ... ... : ... .. . ... ... ... : ... .. . ... : ... .. . ... : ... .. . ... ...
ROW 6F : ... .. . ... ... ... : ... .. . ... ... ... : --- .. . ... : ... .. . ... : ... .. . ... ...
ROW 70 : ... .. . ... ... ... : ... .. . ... ... ... : ... .. . ... : ... .. . ... : ... .. . ... ...
ROW 71 : ... .. . ... ... ... : ... .. . ... ... ... : A-3 00 . ... : ... .. . ... : ... .. . ... ...
ROW 72 : ... .. . ... ... ... : ... .. . ... ... ... : ... .. . ... : ... .. . ... : ... .. . ... ...
ROW 73 : ... .. . ... ... ... : ... .. . ... ... ... : ... .. . ... : ... .. . ... : ... .. . ... ...
ROW 74 : ... .. . ... ... ... : ... .. . ... ... ... : ... .. . ... : ... .. . ... : ... .. . ... ...
ROW 75 : ... .. . ... ... ... : ... .. . ... ... ... : ... .. . ... : ... .. . ... : ... .. . ... ...
ROW 76 : ... .. . ... ... ... : ... .. . ... ... ... : ... .. . ... : ... .. . ... : ... .. . ... ...
ROW 77 : ... .. . ... ... ... : ... .. . ... ... ... : --- .. . ... : ... .. . ... : ... .. . ... ...
ROW 78 : ... .. . ... ... ... : ... .. . ... ... ... : ... .. . ... : ... .. . ... : ... .. . ... ...
ROW 79 : ... .. . ... ... ... : ... .. . ... ... ... : A-3 00 . ... : ... .. . ... : ... .. . ... ...
ROW 7A : ... .. . ... ... ... : ... .. . ... ... ... : ... .. . ... : ... .. . ... : ... .. . ... ...
ROW 7B : ... .. . ... ... ... : ... .. . ... ... ... : ... .. . ... : ... .. . ... : ... .. . ... ...
ROW 7C : ... .. . ... ... ... : ... .. . ... ... ... : ... .. . ... : ... .. . ... : ... .. . ... ...
ROW 7D : ... .. . ... ... ... : ... .. . ... ... ... : ... .. . ... : ... .. . ... : ... .. . ... ...
ROW 7E : ... .. . ... ... ... : ... .. . ... ... ... : ... .. . ... : ... .. . ... : ... .. . ... ...
ROW 7F : ... .. . ... ... ... : ... .. . ... ... ... : --- .. . ... : ... .. . ... : ... .. . ... ...
ROW 80 : ... .. . ... ... ... : ... .. . ... ... ... : ... .. . ... : ... .. . ... : ... .. . ... ...
ROW 81 : ... .. . ... ... ... : ... .. . ... ... ... : E-3 00 . ... : ... .. . ... : ... .. . ... ...
ROW 82 : ... .. . ... ... ... : ... .. . ... ... ... : ... .. . ... : ... .. . ... : ... .. . ... ...
ROW 83 : ... .. . ... ... ... : ... .. . ... ... ... : ... .. . ... : ... .. . ... : ... .. . ... ...
ROW 84 : ... .. . ... ... ... : ... .. . ... ... ... : ... .. . ... : ... .. . ... : ... .. . ... ...
ROW 85 : ... .. . ... ... ... : ... .. . ... ... ... : ... .. . ... : ... .. . ... : ... .. . ... ...
ROW 86 : ... .. . ... ... ... : ... .. . ... ... ... : ... .. . ... : ... .. . ... : ... .. . ... ...
ROW 87 : ... .. . ... ... ... : ... .. . ... ... ... : --- .. . ... : ... .. . ... : ... .. . ... ...
ROW 88 : ... .. . ... ... ... : ... .. . ... ... ... : ... .. . ... : ... .. . ... : ... .. . ... ...
ROW 89 : ... .. . ... ... ... : ... .. . ... ... ... : E-3 00 . ... : ... .. . ... : ... .. . ... ...
ROW 8A : ... .. . ... ... ... : ... .. . ... ... ... : ... .. . ... : ... .. . ... : ... .. . ... ...
ROW 8B : ... .. . ... ... ... : ... .. . ... ... ... : ... .. . ... : ... .. . ... : ... .. . ... ...
ROW 8C : ... .. . ... ... ... : ... .. . ... ... ... : ... .. . ... : ... .. . ... : ... .. . ... ...
ROW 8D : ... .. . ... ... ... : ... .. . ... ... ... : ... .. . ... : ... .. . ... : ... .. . ... ...
ROW 8E : ... .. . ... ... ... : ... .. . ... ... ... : ... .. . ... : ... .. . ... : ... .. . ... ...
ROW 8F : ... .. . ... ... ... : ... .. . ... ... ... : --- .. . ... : ... .. . ... : ... .. . ... ...
ROW 90 : ... .. . ... ... ... : ... .. . ... ... ... : ... .. . ... : ... .. . ... : ... .. . ... ...
ROW 91 : ... .. . ... ... ... : ... .. . ... ... ... : A-3 00 . ... : ... .. . ... : ... .. . ... ...
ROW 92 : ... .. . ... ... ... : ... .. . ... ... ... : ... .. . ... : ... .. . ... : ... .. . ... ...
ROW 93 : ... .. . ... ... ... : ... .. . ... ... ... : ... .. . ... : ... .. . ... : ... .. . ... ...
ROW 94 : ... .. . ... ... ... : ... .. . ... ... ... : ... .. . ... : ... .. . ... : ... .. . ... ...
ROW 95 : ... .. . ... ... ... : ... .. . ... ... ... : ... .. . ... : ... .. . ... : ... .. . ... ...
ROW 96 : ... .. . ... ... ... : ... .. . ... ... ... : ... .. . ... : ... .. . ... : ... .. . ... ...
ROW 97 : ... .. . ... ... ... : ... .. . ... ... ... : --- .. . ... : ... .. . ... : ... .. . ... ...
ROW 98 : ... .. . ... ... ... : ... .. . ... ... ... : ... .. . ... : ... .. . ... : ... .. . ... ...
ROW 99 : ... .. . ... ... ... : ... .. . ... ... ... : A-3 00 . ... : ... .. . ... : ... .. . ... ...
ROW 9A : ... .. . ... ... ... : ... .. . ... ... ... : ... .. . ... : ... .. . ... : ... .. . ... ...
ROW 9B : ... .. . ... ... ... : ... .. . ... ... ... : ... .. . ... : ... .. . ... : ... .. . ... ...
ROW 9C : ... .. . ... ... ... : ... .. . ... ... ... : ... .. . ... : ... .. . ... : ... .. . ... ...
ROW 9D : ... .. . ... ... ... : ... .. . ... ... ... : ... .. . ... : ... .. . ... : ... .. . ... ...
ROW 9E : ... .. . ... ... ... : ... .. . ... ... ... : ... .. . ... : ... .. . ... : ... .. . ... ...
ROW 9F : ... .. . ... ... ... : ... .. . ... ... ... : --- .. . ... : ... .. . ... : ... .. . ... ...
ROW A0 : ... .. . ... ... ... : ... .. . ... ... ... : ... .. . ... : ... .. . ... : ... .. . ... ...
ROW A1 : ... .. . ... ... ... : ... .. . ... ... ... : E-3 00 . ... : ... .. . ... : ... .. . ... ...
ROW A2 : ... .. . ... ... ... : ... .. . ... ... ... : ... .. . ... : ... .. . ... : ... .. . ... ...
ROW A3 : ... .. . ... ... ... : ... .. . ... ... ... : ... .. . ... : ... .. . ... : ... .. . ... ...
ROW A4 : ... .. . ... ... ... : ... .. . ... ... ... : ... .. . ... : ... .. . ... : ... .. . ... ...
ROW A5 : ... .. . ... ... ... : ... .. . ... ... ... : ... .. . ... : ... .. . ... : ... .. . ... ...
ROW A6 : ... .. . ... ... ... : ... .. . ... ... ... : ... .. . ... : ... .. . ... : ... .. . ... ...
ROW A7 : ... .. . ... ... ... : ... .. . ... ... ... : --- .. . ... : ... .. . ... : ... .. . ... ...
ROW A8 : ... .. . ... ... ... : ... .. . ... ... ... : ... .. . ... : ... .. . ... : ... .. . ... ...
ROW A9 : ... .. . ... ... ... : ... .. . ... ... ... : E-3 00 . ... : ... .. . ... : ... .. . ... ...
ROW AA : ... .. . ... ... ... : ... .. . ... ... ... : ... .. . ... : ... .. . ... : ... .. . ... ...
ROW AB : ... .. . ... ... ... : ... .. . ... ... ... : ... .. . ... : ... .. . ... : ... .. . ... ...
ROW AC : ... .. . ... ... ... : ... .. . ... ... ... : ... .. . ... : ... .. . ... : ... .. . ... ...
ROW AD : ... .. . ... ... ... : ... .. . ... ... ... : ... .. . ... : ... .. . ... : ... .. . ... ...
ROW AE : ... .. . ... ... ... : ... .. . ... ... ... : ... .. . ... : ... .. . ... : ... .. . ... ...
ROW AF : ... .. . ... ... ... : ... .. . ... ... ... : --- .. . ... : ... .. . ... : ... .. . ... ...
ROW B0 : ... .. . ... ... ... : ... .. . ... ... ... : ... .. . ... : ... .. . ... : ... .. . ... ...
ROW B1 : ... .. . ... ... ... : ... .. C ... ... ... : A-3 00 . ... : ... .. . ... : ... .. . ... ...
ROW B2 : ... .. . ... ... ... : ... .. B ... ... ... : ... .. . ... : ... .. . ... : ... .. . ... ...
ROW B3 : ... .. . ... ... ... : ... .. A ... ... ... : ... .. . ... : ... .. . ... : ... .. . ... ...
ROW B4 : ... .. . ... ... ... : ... .. 9 ... ... ... : ... .. . ... : ... .. . ... : ... .. . ... ...
ROW B5 : ... .. . ... ... ... : ... .. 8 ... ... ... : ... .. . ... : ... .. . ... : ... .. . ... ...
ROW B6 : ... .. . ... ... ... : ... .. 7 ... ... ... : ... .. . ... : ... .. . ... : ... .. . ... ...
ROW B7 : ... .. . ... ... ... : ... .. 6 ... ... ... : --- .. . ... : ... .. . ... : ... .. . ... ...
ROW B8 : ... .. . ... ... ... : ... .. 5 ... ... ... : ... .. . ... : ... .. . ... : ... .. . ... ...
ROW B9 : ... .. . ... ... ... : ... .. 4 ... ... ... : A-3 00 . ... : ... .. . ... : ... .. . ... ...
ROW BA : ... .. . ... ... ... : ... .. 3 ... ... ... : ... .. . ... : ... .. . ... : ... .. . ... ...
ROW BB : ... .. . ... ... ... : ... .. 2 ... ... ... : ... .. . ... : ... .. . ... : ... .. . ... ...
ROW BC : ... .. . ... ... ... : ... .. 1 ... ... ... : ... .. . ... : ... .. . ... : ... .. . ... ...
ROW BD : ... .. . ... ... ... : ... .. 0 ... ... ... : ... .. . ... : ... .. . ... : ... .. . ... ...
ROW BE : ... .. . ... ... ... : ... .. . ... ... ... : ... .. . ... : ... .. . ... : ... .. . ... ...
ROW BF : ... .. . ... ... ... : ... .. . ... ... ... : --- .. . ... : ... .. . ... : ... .. . ... ...
ROW C0 : ... .. . ... ... ... : C#3 00 F P80 ... ... : ... .. . ... : ... .. . ... : ... .. . ... ...
ROW C1 : ... .. . ... ... ... : ... .. E ... ... ... : E-3 00 . ... : ... .. . ... : ... .. . ... ...
ROW C2 : ... .. . ... ... ... : ... .. D ... ... ... : ... .. . ... : ... .. . ... : ... .. . ... ...
ROW C3 : ... .. . ... ... ... : ... .. C ... ... ... : ... .. . ... : ... .. . ... : ... .. . ... ...
ROW C4 : ... .. . ... ... ... : ... .. B ... ... ... : ... .. . ... : ... .. . ... : ... .. . ... ...
ROW C5 : ... .. . ... ... ... : ... .. A ... ... ... : ... .. . ... : ... .. . ... : ... .. . ... ...
ROW C6 : ... .. . ... ... ... : ... .. 9 ... ... ... : ... .. . ... : ... .. . ... : ... .. . ... ...
ROW C7 : ... .. . ... ... ... : ... .. 8 ... ... ... : --- .. . ... : ... .. . ... : ... .. . ... ...
ROW C8 : ... .. . ... ... ... : D#3 00 F P80 ... ... : ... .. . ... : ... .. . ... : ... .. . ... ...
ROW C9 : ... .. . ... ... ... : ... .. E ... ... ... : E-3 00 . ... : ... .. . ... : ... .. . ... ...
ROW CA : ... .. . ... ... ... : ... .. D ... ... ... : ... .. . ... : ... .. . ... : ... .. . ... ...
ROW CB : ... .. . ... ... ... : ... .. C ... ... ... : ... .. . ... : ... .. . ... : ... .. . ... ...
ROW CC : ... .. . ... ... ... : ... .. B ... ... ... : ... .. . ... : ... .. . ... : ... .. . ... ...
ROW CD : ... .. . ... ... ... : ... .. A ... ... ... : ... .. . ... : ... .. . ... : ... .. . ... ...
ROW CE : ... .. . ... ... ... : ... .. 9 ... ... ... : ... .. . ... : ... .. . ... : ... .. . ... ...
ROW CF : ... .. . ... ... ... : ... .. 8 ... ... ... : --- .. . ... : ... .. . ... : ... .. . ... ...
ROW D0 : ... .. . ... ... ... : E-3 00 F P7F ... ... : ... .. . ... : ... .. . ... : ... .. . ... ...
ROW D1 : ... .. . ... ... ... : ... .. E ... ... ... : A-3 00 . ... : ... .. . ... : ... .. . ... ...
ROW D2 : ... .. . ... ... ... : ... .. D ... ... ... : ... .. . ... : ... .. . ... : ... .. . ... ...
ROW D3 : ... .. . ... ... ... : ... .. C ... ... ... : ... .. . ... : ... .. . ... : ... .. . ... ...
ROW D4 : ... .. . ... ... ... : ... .. B ... ... ... : ... .. . ... : ... .. . ... : ... .. . ... ...
ROW D5 : ... .. . ... ... ... : ... .. A ... ... ... : ... .. . ... : ... .. . ... : ... .. . ... ...
ROW D6 : ... .. . ... ... ... : ... .. 9 ... ... ... : ... .. . ... : ... .. . ... : ... .. . ... ...
ROW D7 : ... .. . ... ... ... : ... .. 8 ... ... ... : --- .. . ... : ... .. . ... : ... .. . ... ...
ROW D8 : ... .. . ... ... ... : F#3 00 F P7F ... ... : ... .. . ... : ... .. . ... : ... .. . ... ...
ROW D9 : ... .. . ... ... ... : ... .. E ... ... ... : A-3 00 . ... : ... .. . ... : ... .. . ... ...
ROW DA : ... .. . ... ... ... : ... .. D ... ... ... : ... .. . ... : ... .. . ... : ... .. . ... ...
ROW DB : ... .. . ... ... ... : ... .. C ... ... ... : ... .. . ... : ... .. . ... : ... .. . ... ...
ROW DC : ... .. . ... ... ... : ... .. B ... ... ... : ... .. . ... : ... .. . ... : ... .. . ... ...
ROW DD : ... .. . ... ... ... : ... .. A ... ... ... : ... .. . ... : ... .. . ... : ... .. . ... ...
ROW DE : ... .. . ... ... ... : ... .. 9 ... ... ... : ... .. . ... : ... .. . ... : ... .. . ... ...
ROW DF : ... .. . ... ... ... : ... .. 8 ... ... ... : --- .. . ... : ... .. . ... : ... .. . ... ...
ROW E0 : ... .. . ... ... ... : ... .. 7 ... ... ... : ... .. . ... : ... .. . ... : ... .. . ... ...
ROW E1 : ... .. . ... ... ... : ... .. 6 ... ... ... : E-3 00 . ... : ... .. . ... : ... .. . ... ...
ROW E2 : ... .. . ... ... ... : ... .. 5 ... ... ... : ... .. . ... : ... .. . ... : ... .. . ... ...
ROW E3 : ... .. . ... ... ... : ... .. 4 ... ... ... : ... .. . ... : ... .. . ... : ... .. . ... ...
ROW E4 : ... .. . ... ... ... : ... .. 3 ... ... ... : ... .. . ... : ... .. . ... : ... .. . ... ...
ROW E5 : ... .. . ... ... ... : ... .. 2 ... ... ... : ... .. . ... : ... .. . ... : ... .. . ... ...
ROW E6 : ... .. . ... ... ... : ... .. 1 ... ... ... : ... .. . ... : ... .. . ... : ... .. . ... ...
ROW E7 : ... .. . ... ... ... : ... .. 0 ... ... ... : --- .. . ... : ... .. . ... : ... .. . ... ...
ROW E8 : ... .. . ... ... ... : E-3 00 F P7F ... ... : ... .. . ... : ... .. . ... : ... .. . ... ...
ROW E9 : ... .. . ... ... ... : ... .. E ... ... ... : E-3 00 . ... : ... .. . ... : ... .. . ... ...
ROW EA : ... .. . ... ... ... : ... .. D ... ... ... : ... .. . ... : ... .. . ... : ... .. . ... ...
ROW EB : ... .. . ... ... ... : ... .. C ... ... ... : ... .. . ... : ... .. . ... : ... .. . ... ...
ROW EC : ... .. . ... ... ... : ... .. B ... ... ... : ... .. . ... : ... .. . ... : ... .. . ... ...
ROW ED : ... .. . ... ... ... : ... .. A ... ... ... : ... .. . ... : ... .. . ... : ... .. . ... ...
ROW EE : ... .. . ... ... ... : ... .. 9 ... ... ... : ... .. . ... : ... .. . ... : ... .. . ... ...
ROW EF : ... .. . ... ... ... : ... .. 8 ... ... ... : --- .. . ... : ... .. . ... : ... .. . ... ...
ROW F0 : ... .. . ... ... ... : D#3 00 F P80 ... ... : ... .. . ... : ... .. . ... : ... .. . ... ...
ROW F1 : ... .. . ... ... ... : ... .. E ... ... ... : A-3 00 . ... : ... .. . ... : ... .. . ... ...
ROW F2 : ... .. . ... ... ... : ... .. D ... ... ... : ... .. . ... : ... .. . ... : ... .. . ... ...
ROW F3 : ... .. . ... ... ... : ... .. C ... ... ... : ... .. . ... : ... .. . ... : ... .. . ... ...
ROW F4 : ... .. . ... ... ... : ... .. B ... ... ... : ... .. . ... : ... .. . ... : ... .. . ... ...
ROW F5 : ... .. . ... ... ... : ... .. A ... ... ... : ... .. . ... : ... .. . ... : ... .. . ... ...
ROW F6 : ... .. . ... ... ... : ... .. 9 ... ... ... : ... .. . ... : ... .. . ... : ... .. . ... ...
ROW F7 : ... .. . ... ... ... : ... .. 8 ... ... ... : --- .. . ... : ... .. . ... : ... .. . ... ...
ROW F8 : ... .. . ... ... ... : C#3 00 F P80 ... ... : ... .. . ... : ... .. . ... : ... .. . ... ...
ROW F9 : ... .. . ... ... ... : ... .. E ... ... ... : A-3 00 . ... : ... .. . ... : ... .. . ... ...
ROW FA : ... .. . ... ... ... : ... .. D ... ... ... : ... .. . ... : ... .. . ... : ... .. . ... ...
ROW FB : ... .. . ... ... ... : ... .. C ... ... ... : ... .. . ... : ... .. . ... : ... .. . ... ...
ROW FC : ... .. . ... ... ... : ... .. B ... ... ... : ... .. . ... : ... .. . ... : ... .. . ... ...
ROW FD : ... .. . ... ... ... : ... .. A ... ... ... : ... .. . ... : ... .. . ... : ... .. . ... ...
ROW FE : ... .. . ... ... ... : ... .. 9 ... ... ... : ... .. . ... : ... .. . ... : ... .. . ... ...
ROW FF : ... .. . ... ... ... : ... .. 8 ... ... ... : --- .. . ... : ... .. . ... : ... .. . ... ...

PATTERN 0C
ROW 00 : ... .. . ... ... ... : G#3 00 F P7F ... ... : ... .. . ... : ... .. . ... : ... .. . ... ...
ROW 01 : ... .. . ... ... ... : ... .. E ... ... ... : B-3 00 . ... : ... .. . ... : ... .. . ... ...
ROW 02 : ... .. . ... ... ... : ... .. D ... ... ... : ... .. . ... : ... .. . ... : ... .. . ... ...
ROW 03 : ... .. . ... ... ... : ... .. C ... ... ... : ... .. . ... : ... .. . ... : ... .. . ... ...
ROW 04 : ... .. . ... ... ... : ... .. B ... ... ... : ... .. . ... : ... .. . ... : ... .. . ... ...
ROW 05 : ... .. . ... ... ... : ... .. A ... ... ... : ... .. . ... : ... .. . ... : ... .. . ... ...
ROW 06 : ... .. . ... ... ... : ... .. 9 ... ... ... : ... .. . ... : ... .. . ... : ... .. . ... ...
ROW 07 : ... .. . ... ... ... : ... .. 8 ... ... ... : --- .. . ... : ... .. . ... : ... .. . ... ...
ROW 08 : ... .. . ... ... ... : F#3 00 F P7F ... ... : ... .. . ... : ... .. . ... : ... .. . ... ...
ROW 09 : ... .. . ... ... ... : ... .. E ... ... ... : B-3 00 . ... : ... .. . ... : ... .. . ... ...
ROW 0A : ... .. . ... ... ... : ... .. D ... ... ... : ... .. . ... : ... .. . ... : ... .. . ... ...
ROW 0B : ... .. . ... ... ... : ... .. C ... ... ... : ... .. . ... : ... .. . ... : ... .. . ... ...
ROW 0C : ... .. . ... ... ... : ... .. B ... ... ... : ... .. . ... : ... .. . ... : ... .. . ... ...
ROW 0D : ... .. . ... ... ... : ... .. A ... ... ... : ... .. . ... : ... .. . ... : ... .. . ... ...
ROW 0E : ... .. . ... ... ... : ... .. 9 ... ... ... : ... .. . ... : ... .. . ... : ... .. . ... ...
ROW 0F : ... .. . ... ... ... : ... .. 8 ... ... ... : --- .. . ... : ... .. . ... : ... .. . ... ...
ROW 10 : ... .. . ... ... ... : G#3 00 F P7F ... ... : ... .. . ... : ... .. . ... : ... .. . ... ...
ROW 11 : ... .. . ... ... ... : ... .. E ... ... ... : E-4 00 . P80 : ... .. . ... : ... .. . ... ...
ROW 12 : ... .. . ... ... ... : ... .. D ... ... ... : ... .. . ... : ... .. . ... : ... .. . ... ...
ROW 13 : ... .. . ... ... ... : ... .. C ... ... ... : ... .. . ... : ... .. . ... : ... .. . ... ...
ROW 14 : ... .. . ... ... ... : ... .. B ... ... ... : ... .. . ... : ... .. . ... : ... .. . ... ...
ROW 15 : ... .. . ... ... ... : ... .. A ... ... ... : ... .. . ... : ... .. . ... : ... .. . ... ...
ROW 16 : ... .. . ... ... ... : ... .. 9 ... ... ... : ... .. . ... : ... .. . ... : ... .. . ... ...
ROW 17 : ... .. . ... ... ... : ... .. 8 ... ... ... : --- .. . ... : ... .. . ... : ... .. . ... ...
ROW 18 : ... .. . ... ... ... : A#3 00 F P7F ... ... : ... .. . ... : ... .. . ... : ... .. . ... ...
ROW 19 : ... .. . ... ... ... : ... .. E ... ... ... : E-4 00 . ... : ... .. . ... : ... .. . ... ...
ROW 1A : ... .. . ... ... ... : ... .. D ... ... ... : ... .. . ... : ... .. . ... : ... .. . ... ...
ROW 1B : ... .. . ... ... ... : ... .. C ... ... ... : ... .. . ... : ... .. . ... : ... .. . ... ...
ROW 1C : ... .. . ... ... ... : ... .. B ... ... ... : ... .. . ... : ... .. . ... : ... .. . ... ...
ROW 1D : ... .. . ... ... ... : ... .. A ... ... ... : ... .. . ... : ... .. . ... : ... .. . ... ...
ROW 1E : ... .. . ... ... ... : ... .. 9 ... ... ... : ... .. . ... : ... .. . ... : ... .. . ... ...
ROW 1F : ... .. . ... ... ... : ... .. 8 ... ... ... : --- .. . ... : ... .. . ... : ... .. . ... ...
ROW 20 : ... .. . ... ... ... : ... .. 7 ... ... ... : ... .. . ... : ... .. . ... : ... .. . ... ...
ROW 21 : ... .. . ... ... ... : ... .. 6 ... ... ... : B-3 00 . P7F : ... .. . ... : ... .. . ... ...
ROW 22 : ... .. . ... ... ... : ... .. 5 ... ... ... : ... .. . ... : ... .. . ... : ... .. . ... ...
ROW 23 : ... .. . ... ... ... : ... .. 4 ... ... ... : ... .. . ... : ... .. . ... : ... .. . ... ...
ROW 24 : ... .. . ... ... ... : ... .. 3 ... ... ... : ... .. . ... : ... .. . ... : ... .. . ... ...
ROW 25 : ... .. . ... ... ... : ... .. 2 ... ... ... : ... .. . ... : ... .. . ... : ... .. . ... ...
ROW 26 : ... .. . ... ... ... : ... .. 1 ... ... ... : ... .. . ... : ... .. . ... : ... .. . ... ...
ROW 27 : ... .. . ... ... ... : ... .. 0 ... ... ... : --- .. . ... : ... .. . ... : ... .. . ... ...
ROW 28 : ... .. . ... ... ... : B-3 00 F P7F ... ... : ... .. . ... : ... .. . ... : ... .. . ... ...
ROW 29 : ... .. . ... ... ... : ... .. E ... ... ... : B-3 00 . ... : ... .. . ... : ... .. . ... ...
ROW 2A : ... .. . ... ... ... : ... .. D ... ... ... : ... .. . ... : ... .. . ... : ... .. . ... ...
ROW 2B : ... .. . ... ... ... : ... .. C ... ... ... : ... .. . ... : ... .. . ... : ... .. . ... ...
ROW 2C : ... .. . ... ... ... : ... .. B ... ... ... : ... .. . ... : ... .. . ... : ... .. . ... ...
ROW 2D : ... .. . ... ... ... : ... .. A ... ... ... : ... .. . ... : ... .. . ... : ... .. . ... ...
ROW 2E : ... .. . ... ... ... : ... .. 9 ... ... ... : ... .. . ... : ... .. . ... : ... .. . ... ...
ROW 2F : ... .. . ... ... ... : ... .. 8 ... ... ... : --- .. . ... : ... .. . ... : ... .. . ... ...
ROW 30 : ... .. . ... ... ... : ... .. 7 ... ... ... : ... .. . ... : ... .. . ... : ... .. . ... ...
ROW 31 : ... .. . ... ... ... : ... .. 6 ... ... ... : E-4 00 . P80 : ... .. . ... : ... .. . ... ...
ROW 32 : ... .. . ... ... ... : ... .. 5 ... ... ... : ... .. . ... : ... .. . ... : ... .. . ... ...
ROW 33 : ... .. . ... ... ... : ... .. 4 ... ... ... : ... .. . ... : ... .. . ... : ... .. . ... ...
ROW 34 : ... .. . ... ... ... : ... .. 3 ... ... ... : ... .. . ... : ... .. . ... : ... .. . ... ...
ROW 35 : ... .. . ... ... ... : ... .. 2 ... ... ... : ... .. . ... : ... .. . ... : ... .. . ... ...
ROW 36 : ... .. . ... ... ... : ... .. 1 ... ... ... : ... .. . ... : ... .. . ... : ... .. . ... ...
ROW 37 : ... .. . ... ... ... : ... .. 0 ... ... ... : --- .. . ... : ... .. . ... : ... .. . ... ...
ROW 38 : ... .. . ... ... ... : A#3 00 F P7F ... ... : ... .. . ... : ... .. . ... : ... .. . ... ...
ROW 39 : ... .. . ... ... ... : ... .. E ... ... ... : E-4 00 . ... : ... .. . ... : ... .. . ... ...
ROW 3A : ... .. . ... ... ... : ... .. D ... ... ... : ... .. . ... : ... .. . ... : ... .. . ... ...
ROW 3B : ... .. . ... ... ... : ... .. C ... ... ... : ... .. . ... : ... .. . ... : ... .. . ... ...
ROW 3C : ... .. . ... ... ... : ... .. B ... ... ... : ... .. . ... : ... .. . ... : ... .. . ... ...
ROW 3D : ... .. . ... ... ... : ... .. A ... ... ... : ... .. . ... : ... .. . ... : ... .. . ... ...
ROW 3E : ... .. . ... ... ... : ... .. 9 ... ... ... : ... .. . ... : ... .. . ... : ... .. . ... ...
ROW 3F : ... .. . ... ... ... : ... .. 8 ... ... ... : --- .. . ... : ... .. . ... : ... .. . ... ...
ROW 40 : ... .. . ... ... ... : ... .. 7 ... ... ... : ... .. . ... : ... .. . ... : ... .. . ... ...
ROW 41 : ... .. . ... ... ... : ... .. 6 ... ... ... : B-3 00 . P7F : ... .. . ... : ... .. . ... ...
ROW 42 : ... .. . ... ... ... : ... .. 5 ... ... ... : ... .. . ... : ... .. . ... : ... .. . ... ...
ROW 43 : ... .. . ... ... ... : ... .. 4 ... ... ... : ... .. . ... : ... .. . ... : ... .. . ... ...
ROW 44 : ... .. . ... ... ... : ... .. 3 ... ... ... : ... .. . ... : ... .. . ... : ... .. . ... ...
ROW 45 : ... .. . ... ... ... : ... .. 2 ... ... ... : ... .. . ... : ... .. . ... : ... .. . ... ...
ROW 46 : ... .. . ... ... ... : ... .. 1 ... ... ... : ... .. . ... : ... .. . ... : ... .. . ... ...
ROW 47 : ... .. . ... ... ... : ... .. 0 ... ... ... : --- .. . ... : ... .. . ... : ... .. . ... ...
ROW 48 : ... .. . ... ... ... : G#3 00 F P7F ... ... : ... .. . ... : ... .. . ... : ... .. . ... ...
ROW 49 : ... .. . ... ... ... : ... .. E ... ... ... : B-3 00 . ... : ... .. . ... : ... .. . ... ...
ROW 4A : ... .. . ... ... ... : ... .. D ... ... ... : ... .. . ... : ... .. . ... : ... .. . ... ...
ROW 4B : ... .. . ... ... ... : ... .. C ... ... ... : ... .. . ... : ... .. . ... : ... .. . ... ...
ROW 4C : ... .. . ... ... ... : ... .. B ... ... ... : ... .. . ... : ... .. . ... : ... .. . ... ...
ROW 4D : ... .. . ... ... ... : ... .. A ... ... ... : ... .. . ... : ... .. . ... : ... .. . ... ...
ROW 4E : ... .. . ... ... ... : ... .. 9 ... ... ... : ... .. . ... : ... .. . ... : ... .. . ... ...
ROW 4F : ... .. . ... ... ... : ... .. 8 ... ... ... : --- .. . ... : ... .. . ... : ... .. . ... ...
ROW 50 : ... .. . ... ... ... : ... .. 7 ... ... ... : ... .. . ... : ... .. . ... : ... .. . ... ...
ROW 51 : ... .. . ... ... ... : ... .. 6 ... ... ... : E-4 00 . P80 : ... .. . ... : ... .. . ... ...
ROW 52 : ... .. . ... ... ... : ... .. 5 ... ... ... : ... .. . ... : ... .. . ... : ... .. . ... ...
ROW 53 : ... .. . ... ... ... : ... .. 4 ... ... ... : ... .. . ... : ... .. . ... : ... .. . ... ...
ROW 54 : ... .. . ... ... ... : ... .. 3 ... ... ... : ... .. . ... : ... .. . ... : ... .. . ... ...
ROW 55 : ... .. . ... ... ... : ... .. 2 ... ... ... : ... .. . ... : ... .. . ... : ... .. . ... ...
ROW 56 : ... .. . ... ... ... : ... .. 1 ... ... ... : ... .. . ... : ... .. . ... : ... .. . ... ...
ROW 57 : ... .. . ... ... ... : ... .. 0 ... ... ... : --- .. . ... : ... .. . ... : ... .. . ... ...
ROW 58 : ... .. . ... ... ... : F#3 00 F P7F ... ... : ... .. . ... : ... .. . ... : ... .. . ... ...
ROW 59 : ... .. . ... ... ... : ... .. E ... ... ... : E-4 00 . ... : ... .. . ... : ... .. . ... ...
ROW 5A : ... .. . ... ... ... : ... .. D ... ... ... : ... .. . ... : ... .. . ... : ... .. . ... ...
ROW 5B : ... .. . ... ... ... : ... .. C ... ... ... : ... .. . ... : ... .. . ... : ... .. . ... ...
ROW 5C : ... .. . ... ... ... : ... .. B ... ... ... : ... .. . ... : ... .. . ... : ... .. . ... ...
ROW 5D : ... .. . ... ... ... : ... .. A ... ... ... : ... .. . ... : ... .. . ... : ... .. . ... ...
ROW 5E : ... .. . ... ... ... : ... .. 9 ... ... ... : ... .. . ... : ... .. . ... : ... .. . ... ...
ROW 5F : ... .. . ... ... ... : ... .. 8 ... ... ... : --- .. . ... : ... .. . ... : ... .. . ... ...
ROW 60 : ... .. . ... ... ... : G#3 00 F P7F ... ... : ... .. . ... : ... .. . ... : ... .. . ... ...
ROW 61 : ... .. . ... ... ... : ... .. E ... ... ... : B-3 00 . P7F : ... .. . ... : ... .. . ... ...
ROW 62 : ... .. . ... ... ... : ... .. D ... ... ... : ... .. . ... : ... .. . ... : ... .. . ... ...
ROW 63 : ... .. . ... ... ... : ... .. C ... ... ... : ... .. . ... : ... .. . ... : ... .. . ... ...
ROW 64 : ... .. . ... ... ... : ... .. B ... ... ... : ... .. . ... : ... .. . ... : ... .. . ... ...
ROW 65 : ... .. . ... ... ... : ... .. A ... ... ... : ... .. . ... : ... .. . ... : ... .. . ... ...
ROW 66 : ... .. . ... ... ... : ... .. 9 ... ... ... : ... .. . ... : ... .. . ... : ... .. . ... ...
ROW 67 : ... .. . ... ... ... : ... .. 8 ... ... ... : --- .. . ... : ... .. . ... : ... .. . ... ...
ROW 68 : ... .. . ... ... ... : F#3 00 F P7F ... ... : ... .. . ... : ... .. . ... : ... .. . ... ...
ROW 69 : ... .. . ... ... ... : ... .. E ... ... ... : B-3 00 . ... : ... .. . ... : ... .. . ... ...
ROW 6A : ... .. . ... ... ... : ... .. D ... ... ... : ... .. . ... : ... .. . ... : ... .. . ... ...
ROW 6B : ... .. . ... ... ... : ... .. C ... ... ... : ... .. . ... : ... .. . ... : ... .. . ... ...
ROW 6C : ... .. . ... ... ... : ... .. B ... ... ... : ... .. . ... : ... .. . ... : ... .. . ... ...
ROW 6D : ... .. . ... ... ... : ... .. A ... ... ... : ... .. . ... : ... .. . ... : ... .. . ... ...
ROW 6E : ... .. . ... ... ... : ... .. 9 ... ... ... : ... .. . ... : ... .. . ... : ... .. . ... ...
ROW 6F : ... .. . ... ... ... : ... .. 8 ... ... ... : --- .. . ... : ... .. . ... : ... .. . ... ...
ROW 70 : ... .. . ... ... ... : G#3 00 F P7F ... ... : ... .. . ... : ... .. . ... : ... .. . ... ...
ROW 71 : ... .. . ... ... ... : ... .. E ... ... ... : E-4 00 . P80 : ... .. . ... : ... .. . ... ...
ROW 72 : ... .. . ... ... ... : ... .. D ... ... ... : ... .. . ... : ... .. . ... : ... .. . ... ...
ROW 73 : ... .. . ... ... ... : ... .. C ... ... ... : ... .. . ... : ... .. . ... : ... .. . ... ...
ROW 74 : ... .. . ... ... ... : ... .. B ... ... ... : ... .. . ... : ... .. . ... : ... .. . ... ...
ROW 75 : ... .. . ... ... ... : ... .. A ... ... ... : ... .. . ... : ... .. . ... : ... .. . ... ...
ROW 76 : ... .. . ... ... ... : ... .. 9 ... ... ... : ... .. . ... : ... .. . ... : ... .. . ... ...
ROW 77 : ... .. . ... ... ... : ... .. 8 ... ... ... : --- .. . ... : ... .. . ... : ... .. . ... ...
ROW 78 : ... .. . ... ... ... : E-3 00 F P7F ... ... : ... .. . ... : ... .. . ... : ... .. . ... ...
ROW 79 : ... .. . ... ... ... : ... .. E ... ... ... : E-4 00 . ... : ... .. . ... : ... .. . ... ...
ROW 7A : ... .. . ... ... ... : ... .. D ... ... ... : ... .. . ... : ... .. . ... : ... .. . ... ...
ROW 7B : ... .. . ... ... ... : ... .. C ... ... ... : ... .. . ... : ... .. . ... : ... .. . ... ...
ROW 7C : ... .. . ... ... ... : ... .. B ... ... ... : ... .. . ... : ... .. . ... : ... .. . ... ...
ROW 7D : ... .. . ... ... ... : ... .. A ... ... ... : ... .. . ... : ... .. . ... : ... .. . ... ...
ROW 7E : ... .. . ... ... ... : ... .. 9 ... ... ... : ... .. . ... : ... .. . ... : ... .. . ... ...
ROW 7F : ... .. . ... ... ... : ... .. 8 ... ... ... : --- .. . ... : ... .. . ... : ... .. . ... ...
ROW 80 : ... .. . ... ... ... : G#3 00 F P7F ... ... : ... .. . ... : ... .. . ... : ... .. . ... ...
ROW 81 : ... .. . ... ... ... : ... .. E ... ... ... : B-3 00 . P7F : ... .. . ... : ... .. . ... ...
ROW 82 : ... .. . ... ... ... : ... .. D ... ... ... : ... .. . ... : ... .. . ... : ... .. . ... ...
ROW 83 : ... .. . ... ... ... : ... .. C ... ... ... : ... .. . ... : ... .. . ... : ... .. . ... ...
ROW 84 : ... .. . ... ... ... : ... .. B ... ... ... : ... .. . ... : ... .. . ... : ... .. . ... ...
ROW 85 : ... .. . ... ... ... : ... .. A ... ... ... : ... .. . ... : ... .. . ... : ... .. . ... ...
ROW 86 : ... .. . ... ... ... : ... .. 9 ... ... ... : ... .. . ... : ... .. . ... : ... .. . ... ...
ROW 87 : ... .. . ... ... ... : ... .. 8 ... ... ... : --- .. . ... : ... .. . ... : ... .. . ... ...
ROW 88 : ... .. . ... ... ... : F#3 00 F P7F ... ... : ... .. . ... : ... .. . ... : ... .. . ... ...
ROW 89 : ... .. . ... ... ... : ... .. E ... ... ... : B-3 00 . ... : ... .. . ... : ... .. . ... ...
ROW 8A : ... .. . ... ... ... : ... .. D ... ... ... : ... .. . ... : ... .. . ... : ... .. . ... ...
ROW 8B : ... .. . ... ... ... : ... .. C ... ... ... : ... .. . ... : ... .. . ... : ... .. . ... ...
ROW 8C : ... .. . ... ... ... : ... .. B ... ... ... : ... .. . ... : ... .. . ... : ... .. . ... ...
ROW 8D : ... .. . ... ... ... : ... .. A ... ... ... : ... .. . ... : ... .. . ... : ... .. . ... ...
ROW 8E : ... .. . ... ... ... : ... .. 9 ... ... ... : ... .. . ... : ... .. . ... : ... .. . ... ...
ROW 8F : ... .. . ... ... ... : ... .. 8 ... ... ... : --- .. . ... : ... .. . ... : ... .. . ... ...
ROW 90 : ... .. . ... ... ... : G#3 00 F P7F ... ... : ... .. . ... : ... .. . ... : ... .. . ... ...
ROW 91 : ... .. . ... ... ... : ... .. E ... ... ... : E-4 00 . P80 : ... .. . ... : ... .. . ... ...
ROW 92 : ... .. . ... ... ... : ... .. D ... ... ... : ... .. . ... : ... .. . ... : ... .. . ... ...
ROW 93 : ... .. . ... ... ... : ... .. C ... ... ... : ... .. . ... : ... .. . ... : ... .. . ... ...
ROW 94 : ... .. . ... ... ... : ... .. B ... ... ... : ... .. . ... : ... .. . ... : ... .. . ... ...
ROW 95 : ... .. . ... ... ... : ... .. A ... ... ... : ... .. . ... : ... .. . ... : ... .. . ... ...
ROW 96 : ... .. . ... ... ... : ... .. 9 ... ... ... : ... .. . ... : ... .. . ... : ... .. . ... ...
ROW 97 : ... .. . ... ... ... : ... .. 8 ... ... ... : --- .. . ... : ... .. . ... : ... .. . ... ...
ROW 98 : ... .. . ... ... ... : A#3 00 F P7F ... ... : ... .. . ... : ... .. . ... : ... .. . ... ...
ROW 99 : ... .. . ... ... ... : ... .. E ... ... ... : E-4 00 . ... : ... .. . ... : ... .. . ... ...
ROW 9A : ... .. . ... ... ... : ... .. D ... ... ... : ... .. . ... : ... .. . ... : ... .. . ... ...
ROW 9B : ... .. . ... ... ... : ... .. C ... ... ... : ... .. . ... : ... .. . ... : ... .. . ... ...
ROW 9C : ... .. . ... ... ... : ... .. B ... ... ... : ... .. . ... : ... .. . ... : ... .. . ... ...
ROW 9D : ... .. . ... ... ... : ... .. A ... ... ... : ... .. . ... : ... .. . ... : ... .. . ... ...
ROW 9E : ... .. . ... ... ... : ... .. 9 ... ... ... : ... .. . ... : ... .. . ... : ... .. . ... ...
ROW 9F : ... .. . ... ... ... : ... .. 8 ... ... ... : --- .. . ... : ... .. . ... : ... .. . ... ...
ROW A0 : ... .. . ... ... ... : ... .. 7 ... ... ... : ... .. . ... : ... .. . ... : ... .. . ... ...
ROW A1 : ... .. . ... ... ... : ... .. 6 ... ... ... : B-3 00 . P7F : ... .. . ... : ... .. . ... ...
ROW A2 : ... .. . ... ... ... : ... .. 5 ... ... ... : ... .. . ... : ... .. . ... : ... .. . ... ...
ROW A3 : ... .. . ... ... ... : ... .. 4 ... ... ... : ... .. . ... : ... .. . ... : ... .. . ... ...
ROW A4 : ... .. . ... ... ... : ... .. 3 ... ... ... : ... .. . ... : ... .. . ... : ... .. . ... ...
ROW A5 : ... .. . ... ... ... : ... .. 2 ... ... ... : ... .. . ... : ... .. . ... : ... .. . ... ...
ROW A6 : ... .. . ... ... ... : ... .. 1 ... ... ... : ... .. . ... : ... .. . ... : ... .. . ... ...
ROW A7 : ... .. . ... ... ... : ... .. 0 ... ... ... : --- .. . ... : ... .. . ... : ... .. . ... ...
ROW A8 : ... .. . ... ... ... : B-3 00 F P7F ... ... : ... .. . ... : ... .. . ... : ... .. . ... ...
ROW A9 : ... .. . ... ... ... : ... .. E ... ... ... : B-3 00 . ... : ... .. . ... : ... .. . ... ...
ROW AA : ... .. . ... ... ... : ... .. D ... ... ... : ... .. . ... : ... .. . ... : ... .. . ... ...
ROW AB : ... .. . ... ... ... : ... .. C ... ... ... : ... .. . ... : ... .. . ... : ... .. . ... ...
ROW AC : ... .. . ... ... ... : ... .. B ... ... ... : ... .. . ... : ... .. . ... : ... .. . ... ...
ROW AD : ... .. . ... ... ... : ... .. A ... ... ... : ... .. . ... : ... .. . ... : ... .. . ... ...
ROW AE : ... .. . ... ... ... : ... .. 9 ... ... ... : ... .. . ... : ... .. . ... : ... .. . ... ...
ROW AF : ... .. . ... ... ... : ... .. 8 ... ... ... : --- .. . ... : ... .. . ... : ... .. . ... ...
ROW B0 : ... .. . ... ... ... : ... .. 7 ... ... ... : ... .. . ... : ... .. . ... : ... .. . ... ...
ROW B1 : ... .. . ... ... ... : ... .. 6 ... ... ... : E-4 00 . P80 : ... .. . ... : ... .. . ... ...
ROW B2 : ... .. . ... ... ... : ... .. 5 ... ... ... : ... .. . ... : ... .. . ... : ... .. . ... ...
ROW B3 : ... .. . ... ... ... : ... .. 4 ... ... ... : ... .. . ... : ... .. . ... : ... .. . ... ...
ROW B4 : ... .. . ... ... ... : ... .. 3 ... ... ... : ... .. . ... : ... .. . ... : ... .. . ... ...
ROW B5 : ... .. . ... ... ... : ... .. 2 ... ... ... : ... .. . ... : ... .. . ... : ... .. . ... ...
ROW B6 : ... .. . ... ... ... : ... .. 1 ... ... ... : ... .. . ... : ... .. . ... : ... .. . ... ...
ROW B7 : ... .. . ... ... ... : ... .. 0 ... ... ... : --- .. . ... : ... .. . ... : ... .. . ... ...
ROW B8 : ... .. . ... ... ... : A#3 00 F P7F ... ... : ... .. . ... : ... .. . ... : ... .. . ... ...
ROW B9 : ... .. . ... ... ... : ... .. E ... ... ... : E-4 00 . ... : ... .. . ... : ... .. . ... ...
ROW BA : ... .. . ... ... ... : ... .. D ... ... ... : ... .. . ... : ... .. . ... : ... .. . ... ...
ROW BB : ... .. . ... ... ... : ... .. C ... ... ... : ... .. . ... : ... .. . ... : ... .. . ... ...
ROW BC : ... .. . ... ... ... : ... .. B ... ... ... : ... .. . ... : ... .. . ... : ... .. . ... ...
ROW BD : ... .. . ... ... ... : ... .. A ... ... ... : ... .. . ... : ... .. . ... : ... .. . ... ...
ROW BE : ... .. . ... ... ... : ... .. 9 ... ... ... : ... .. . ... : ... .. . ... : ... .. . ... ...
ROW BF : ... .. . ... ... ... : ... .. 8 ... ... ... : --- .. . ... : ... .. . ... : ... .. . ... ...
ROW C0 : ... .. . ... ... ... : ... .. 7 ... ... ... : ... .. . ... : ... .. . ... : ... .. . ... ...
ROW C1 : ... .. . ... ... ... : ... .. 6 ... ... ... : B-3 00 . P7F : ... .. . ... : ... .. . ... ...
ROW C2 : ... .. . ... ... ... : ... .. 5 ... ... ... : ... .. . ... : ... .. . ... : ... .. . ... ...
ROW C3 : ... .. . ... ... ... : ... .. 4 ... ... ... : ... .. . ... : ... .. . ... : ... .. . ... ...
ROW C4 : ... .. . ... ... ... : ... .. 3 ... ... ... : ... .. . ... : ... .. . ... : ... .. . ... ...
ROW C5 : ... .. . ... ... ... : ... .. 2 ... ... ... : ... .. . ... : ... .. . ... : ... .. . ... ...
ROW C6 : ... .. . ... ... ... : ... .. 1 ... ... ... : ... .. . ... : ... .. . ... : ... .. . ... ...
ROW C7 : ... .. . ... ... ... : ... .. 0 ... ... ... : --- .. . ... : ... .. . ... : ... .. . ... ...
ROW C8 : ... .. . ... ... ... : G#3 00 F P7F ... ... : ... .. . ... : ... .. . ... : ... .. . ... ...
ROW C9 : ... .. . ... ... ... : ... .. E ... ... ... : B-3 00 . ... : ... .. . ... : ... .. . ... ...
ROW CA : ... .. . ... ... ... : ... .. D ... ... ... : ... .. . ... : ... .. . ... : ... .. . ... ...
ROW CB : ... .. . ... ... ... : ... .. C ... ... ... : ... .. . ... : ... .. . ... : ... .. . ... ...
ROW CC : ... .. . ... ... ... : ... .. B ... ... ... : ... .. . ... : ... .. . ... : ... .. . ... ...
ROW CD : ... .. . ... ... ... : ... .. A ... ... ... : ... .. . ... : ... .. . ... : ... .. . ... ...
ROW CE : ... .. . ... ... ... : ... .. 9 ... ... ... : ... .. . ... : ... .. . ... : ... .. . ... ...
ROW CF : ... .. . ... ... ... : ... .. 8 ... ... ... : --- .. . ... : ... .. . ... : ... .. . ... ...
ROW D0 : ... .. . ... ... ... : ... .. 7 ... ... ... : ... .. . ... : ... .. . ... : ... .. . ... ...
ROW D1 : ... .. . ... ... ... : ... .. 6 ... ... ... : E-4 00 . P80 : ... .. . ... : ... .. . ... ...
ROW D2 : ... .. . ... ... ... : ... .. 5 ... ... ... : ... .. . ... : ... .. . ... : ... .. . ... ...
ROW D3 : ... .. . ... ... ... : ... .. 4 ... ... ... : ... .. . ... : ... .. . ... : ... .. . ... ...
ROW D4 : ... .. . ... ... ... : ... .. 3 ... ... ... : ... .. . ... : ... .. . ... : ... .. . ... ...
ROW D5 : ... .. . ... ... ... : ... .. 2 ... ... ... : ... .. . ... : ... .. . ... : ... .. . ... ...
ROW D6 : ... .. . ... ... ... : ... .. 1 ... ... ... : ... .. . ... : ... .. . ... : ... .. . ... ...
ROW D7 : ... .. . ... ... ... : ... .. 0 ... ... ... : --- .. . ... : ... .. . ... : ... .. . ... ...
ROW D8 : ... .. . ... ... ... : F#3 00 F P7F ... ... : ... .. . ... : ... .. . ... : ... .. . ... ...
ROW D9 : ... .. . ... ... ... : ... .. E ... ... ... : E-4 00 . ... : ... .. . ... : ... .. . ... ...
ROW DA : ... .. . ... ... ... : ... .. D ... ... ... : ... .. . ... : ... .. . ... : ... .. . ... ...
ROW DB : ... .. . ... ... ... : ... .. C ... ... ... : ... .. . ... : ... .. . ... : ... .. . ... ...
ROW DC : ... .. . ... ... ... : ... .. B ... ... ... : ... .. . ... : ... .. . ... : ... .. . ... ...
ROW DD : ... .. . ... ... ... : ... .. A ... ... ... : ... .. . ... : ... .. . ... : ... .. . ... ...
ROW DE : ... .. . ... ... ... : ... .. 9 ... ... ... : ... .. . ... : ... .. . ... : ... .. . ... ...
ROW DF : ... .. . ... ... ... : ... .. 8 ... ... ... : --- .. . ... : ... .. . ... : ... .. . ... ...
ROW E0 : ... .. . ... ... ... : G#3 00 F P7F ... ... : ... .. . ... : ... .. . ... : ... .. . ... ...
ROW E1 : ... .. . ... ... ... : ... .. E ... ... ... : B-3 00 . P7F : ... .. . ... : ... .. . ... ...
ROW E2 : ... .. . ... ... ... : ... .. D ... ... ... : ... .. . ... : ... .. . ... : ... .. . ... ...
ROW E3 : ... .. . ... ... ... : ... .. C ... ... ... : ... .. . ... : ... .. . ... : ... .. . ... ...
ROW E4 : ... .. . ... ... ... : ... .. B ... ... ... : ... .. . ... : ... .. . ... : ... .. . ... ...
ROW E5 : ... .. . ... ... ... : ... .. A ... ... ... : ... .. . ... : ... .. . ... : ... .. . ... ...
ROW E6 : ... .. . ... ... ... : ... .. 9 ... ... ... : ... .. . ... : ... .. . ... : ... .. . ... ...
ROW E7 : ... .. . ... ... ... : ... .. 8 ... ... ... : --- .. . ... : ... .. . ... : ... .. . ... ...
ROW E8 : ... .. . ... ... ... : F#3 00 F P7F ... ... : ... .. . ... : ... .. . ... : ... .. . ... ...
ROW E9 : ... .. . ... ... ... : ... .. E ... ... ... : B-3 00 . ... : ... .. . ... : ... .. . ... ...
ROW EA : ... .. . ... ... ... : ... .. D ... ... ... : ... .. . ... : ... .. . ... : ... .. . ... ...
ROW EB : ... .. . ... ... ... : ... .. C ... ... ... : ... .. . ... : ... .. . ... : ... .. . ... ...
ROW EC : ... .. . ... ... ... : ... .. B ... ... ... : ... .. . ... : ... .. . ... : ... .. . ... ...
ROW ED : ... .. . ... ... ... : ... .. A ... ... ... : ... .. . ... : ... .. . ... : ... .. . ... ...
ROW EE : ... .. . ... ... ... : ... .. 9 ... ... ... : ... .. . ... : ... .. . ... : ... .. . ... ...
ROW EF : ... .. . ... ... ... : ... .. 8 ... ... ... : --- .. . ... : ... .. . ... : ... .. . ... ...
ROW F0 : ... .. . ... ... ... : G#3 00 F P7F ... ... : ... .. . ... : ... .. . ... : ... .. . ... ...
ROW F1 : ... .. . ... ... ... : ... .. E ... ... ... : E-4 00 . P80 : ... .. . ... : ... .. . ... ...
ROW F2 : ... .. . ... ... ... : ... .. D ... ... ... : ... .. . ... : ... .. . ... : ... .. . ... ...
ROW F3 : ... .. . ... ... ... : ... .. C ... ... ... : ... .. . ... : ... .. . ... : ... .. . ... ...
ROW F4 : ... .. . ... ... ... : ... .. B ... ... ... : ... .. . ... : ... .. . ... : ... .. . ... ...
ROW F5 : ... .. . ... ... ... : ... .. A ... ... ... : ... .. . ... : ... .. . ... : ... .. . ... ...
ROW F6 : ... .. . ... ... ... : ... .. 9 ... ... ... : ... .. . ... : ... .. . ... : ... .. . ... ...
ROW F7 : ... .. . ... ... ... : ... .. 8 ... ... ... : --- .. . ... : ... .. . ... : ... .. . ... ...
ROW F8 : ... .. . ... ... ... : E-3 00 F P7F ... ... : ... .. . ... : ... .. . ... : ... .. . ... ...
ROW F9 : ... .. . ... ... ... : ... .. E ... ... ... : E-4 00 . ... : ... .. . ... : ... .. . ... ...
ROW FA : ... .. . ... ... ... : ... .. D ... ... ... : ... .. . ... : ... .. . ... : ... .. . ... ...
ROW FB : ... .. . ... ... ... : ... .. C ... ... ... : ... .. . ... : ... .. . ... : ... .. . ... ...
ROW FC : ... .. . ... ... ... : ... .. B ... ... ... : ... .. . ... : ... .. . ... : ... .. . ... ...
ROW FD : ... .. . ... ... ... : ... .. A ... ... ... : ... .. . ... : ... .. . ... : ... .. . ... ...
ROW FE : ... .. . ... ... ... : ... .. 9 ... ... ... : ... .. . ... : ... .. . ... : ... .. . ... ...
ROW FF : ... .. . ... ... ... : ... .. 8 ... ... ... : --- .. . ... : ... .. . ... : ... .. . ... ...

PATTERN 0D
ROW 00 : ... .. . ... ... ... : F#3 00 F P7F ... ... : ... .. . ... : ... .. . ... : ... .. . ... ...
ROW 01 : ... .. . ... ... ... : ... .. E ... ... ... : A-3 00 . P7F : ... .. . ... : ... .. . ... ...
ROW 02 : ... .. . ... ... ... : ... .. D ... ... ... : ... .. . ... : ... .. . ... : ... .. . ... ...
ROW 03 : ... .. . ... ... ... : ... .. C ... ... ... : ... .. . ... : ... .. . ... : ... .. . ... ...
ROW 04 : ... .. . ... ... ... : ... .. B ... ... ... : ... .. . ... : ... .. . ... : ... .. . ... ...
ROW 05 : ... .. . ... ... ... : ... .. A ... ... ... : ... .. . ... : ... .. . ... : ... .. . ... ...
ROW 06 : ... .. . ... ... ... : ... .. 9 ... ... ... : ... .. . ... : ... .. . ... : ... .. . ... ...
ROW 07 : ... .. . ... ... ... : ... .. 8 ... ... ... : --- .. . ... : ... .. . ... : ... .. . ... ...
ROW 08 : ... .. . ... ... ... : E-3 00 F P7F ... ... : ... .. . ... : ... .. . ... : ... .. . ... ...
ROW 09 : ... .. . ... ... ... : ... .. E ... ... ... : A-3 00 . ... : ... .. . ... : ... .. . ... ...
ROW 0A : ... .. . ... ... ... : ... .. D ... ... ... : ... .. . ... : ... .. . ... : ... .. . ... ...
ROW 0B : ... .. . ... ... ... : ... .. C ... ... ... : ... .. . ... : ... .. . ... : ... .. . ... ...
ROW 0C : ... .. . ... ... ... : ... .. B ... ... ... : ... .. . ... : ... .. . ... : ... .. . ... ...
ROW 0D : ... .. . ... ... ... : ... .. A ... ... ... : ... .. . ... : ... .. . ... : ... .. . ... ...
ROW 0E : ... .. . ... ... ... : ... .. 9 ... ... ... : ... .. . ... : ... .. . ... : ... .. . ... ...
ROW 0F : ... .. . ... ... ... : ... .. 8 ... ... ... : --- .. . ... : ... .. . ... : ... .. . ... ...
ROW 10 : ... .. . ... ... ... : F#3 00 F P7F ... ... : ... .. . ... : ... .. . ... : ... .. . ... ...
ROW 11 : ... .. . ... ... ... : ... .. E ... ... ... : D-4 00 . ... : ... .. . ... : ... .. . ... ...
ROW 12 : ... .. . ... ... ... : ... .. D ... ... ... : ... .. . ... : ... .. . ... : ... .. . ... ...
ROW 13 : ... .. . ... ... ... : ... .. C ... ... ... : ... .. . ... : ... .. . ... : ... .. . ... ...
ROW 14 : ... .. . ... ... ... : ... .. B ... ... ... : ... .. . ... : ... .. . ... : ... .. . ... ...
ROW 15 : ... .. . ... ... ... : ... .. A ... ... ... : ... .. . ... : ... .. . ... : ... .. . ... ...
ROW 16 : ... .. . ... ... ... : ... .. 9 ... ... ... : ... .. . ... : ... .. . ... : ... .. . ... ...
ROW 17 : ... .. . ... ... ... : ... .. 8 ... ... ... : --- .. . ... : ... .. . ... : ... .. . ... ...
ROW 18 : ... .. . ... ... ... : G#3 00 F P7F ... ... : ... .. . ... : ... .. . ... : ... .. . ... ...
ROW 19 : ... .. . ... ... ... : ... .. E ... ... ... : D-4 00 . ... : ... .. . ... : ... .. . ... ...
ROW 1A : ... .. . ... ... ... : ... .. D ... ... ... : ... .. . ... : ... .. . ... : ... .. . ... ...
ROW 1B : ... .. . ... ... ... : ... .. C ... ... ... : ... .. . ... : ... .. . ... : ... .. . ... ...
ROW 1C : ... .. . ... ... ... : ... .. B ... ... ... : ... .. . ... : ... .. . ... : ... .. . ... ...
ROW 1D : ... .. . ... ... ... : ... .. A ... ... ... : ... .. . ... : ... .. . ... : ... .. . ... ...
ROW 1E : ... .. . ... ... ... : ... .. 9 ... ... ... : ... .. . ... : ... .. . ... : ... .. . ... ...
ROW 1F : ... .. . ... ... ... : ... .. 8 ... ... ... : --- .. . ... : ... .. . ... : ... .. . ... ...
ROW 20 : ... .. . ... ... ... : ... .. 7 ... ... ... : ... .. . ... : ... .. . ... : ... .. . ... ...
ROW 21 : ... .. . ... ... ... : ... .. 6 ... ... ... : A-3 00 . ... : ... .. . ... : ... .. . ... ...
ROW 22 : ... .. . ... ... ... : ... .. 5 ... ... ... : ... .. . ... : ... .. . ... : ... .. . ... ...
ROW 23 : ... .. . ... ... ... : ... .. 4 ... ... ... : ... .. . ... : ... .. . ... : ... .. . ... ...
ROW 24 : ... .. . ... ... ... : ... .. 3 ... ... ... : ... .. . ... : ... .. . ... : ... .. . ... ...
ROW 25 : ... .. . ... ... ... : ... .. 2 ... ... ... : ... .. . ... : ... .. . ... : ... .. . ... ...
ROW 26 : ... .. . ... ... ... : ... .. 1 ... ... ... : ... .. . ... : ... .. . ... : ... .. . ... ...
ROW 27 : ... .. . ... ... ... : ... .. 0 ... ... ... : --- .. . ... : ... .. . ... : ... .. . ... ...
ROW 28 : ... .. . ... ... ... : A-3 00 F P7F ... ... : ... .. . ... : ... .. . ... : ... .. . ... ...
ROW 29 : ... .. . ... ... ... : ... .. E ... ... ... : A-3 00 . ... : ... .. . ... : ... .. . ... ...
ROW 2A : ... .. . ... ... ... : ... .. D ... ... ... : ... .. . ... : ... .. . ... : ... .. . ... ...
ROW 2B : ... .. . ... ... ... : ... .. C ... ... ... : ... .. . ... : ... .. . ... : ... .. . ... ...
ROW 2C : ... .. . ... ... ... : ... .. B ... ... ... : ... .. . ... : ... .. . ... : ... .. . ... ...
ROW 2D : ... .. . ... ... ... : ... .. A ... ... ... : ... .. . ... : ... .. . ... : ... .. . ... ...
ROW 2E : ... .. . ... ... ... : ... .. 9 ... ... ... : ... .. . ... : ... .. . ... : ... .. . ... ...
ROW 2F : ... .. . ... ... ... : ... .. 8 ... ... ... : --- .. . ... : ... .. . ... : ... .. . ... ...
ROW 30 : ... .. . ... ... ... : ... .. 7 ... ... ... : ... .. . ... : ... .. . ... : ... .. . ... ...
ROW 31 : ... .. . ... ... ... : ... .. 6 ... ... ... : D-4 00 . ... : ... .. . ... : ... .. . ... ...
ROW 32 : ... .. . ... ... ... : ... .. 5 ... ... ... : ... .. . ... : ... .. . ... : ... .. . ... ...
ROW 33 : ... .. . ... ... ... : ... .. 4 ... ... ... : ... .. . ... : ... .. . ... : ... .. . ... ...
ROW 34 : ... .. . ... ... ... : ... .. 3 ... ... ... : ... .. . ... : ... .. . ... : ... .. . ... ...
ROW 35 : ... .. . ... ... ... : ... .. 2 ... ... ... : ... .. . ... : ... .. . ... : ... .. . ... ...
ROW 36 : ... .. . ... ... ... : ... .. 1 ... ... ... : ... .. . ... : ... .. . ... : ... .. . ... ...
ROW 37 : ... .. . ... ... ... : ... .. 0 ... ... ... : --- .. . ... : ... .. . ... : ... .. . ... ...
ROW 38 : ... .. . ... ... ... : G#3 00 F P7F ... ... : ... .. . ... : ... .. . ... : ... .. . ... ...
ROW 39 : ... .. . ... ... ... : ... .. E ... ... ... : D-4 00 . ... : ... .. . ... : ... .. . ... ...
ROW 3A : ... .. . ... ... ... : ... .. D ... ... ... : ... .. . ... : ... .. . ... : ... .. . ... ...
ROW 3B : ... .. . ... ... ... : ... .. . ... ... ... : ... .. . ... : ... .. . ... : ... .. . ... ...
ROW 3C : ... .. . ... ... ... : ... .. . ... ... ... : ... .. . ... : ... .. . ... : ... .. . ... ...
ROW 3D : ... .. . ... ... ... : ... .. . ... ... ... : ... .. . ... : ... .. . ... : ... .. . ... ...
ROW 3E : ... .. . ... ... ... : ... .. . ... ... ... : ... .. . ... : ... .. . ... : ... .. . ... ...
ROW 3F : ... .. . ... ... ... : ... .. . ... ... ... : --- .. . ... : ... .. . ... : ... .. . ... ...
ROW 40 : ... .. . ... ... ... : ... .. . ... ... ... : ... .. . ... : ... .. . ... : ... .. . ... ...
ROW 41 : ... .. . ... ... ... : ... .. C ... ... ... : A-3 00 . ... : ... .. . ... : ... .. . ... ...
ROW 42 : ... .. . ... ... ... : ... .. B ... ... ... : ... .. . ... : ... .. . ... : ... .. . ... ...
ROW 43 : ... .. . ... ... ... : ... .. A ... ... ... : ... .. . ... : ... .. . ... : ... .. . ... ...
ROW 44 : ... .. . ... ... ... : ... .. 9 ... ... ... : ... .. . ... : ... .. . ... : ... .. . ... ...
ROW 45 : ... .. . ... ... ... : ... .. 8 ... ... ... : ... .. . ... : ... .. . ... : ... .. . ... ...
ROW 46 : ... .. . ... ... ... : ... .. 7 ... ... ... : ... .. . ... : ... .. . ... : ... .. . ... ...
ROW 47 : ... .. . ... ... ... : ... .. 6 ... ... ... : --- .. . ... : ... .. . ... : ... .. . ... ...
ROW 48 : ... .. . ... ... ... : ... .. 5 ... ... ... : ... .. . ... : ... .. . ... : ... .. . ... ...
ROW 49 : ... .. . ... ... ... : ... .. 4 ... ... ... : A-3 00 . ... : ... .. . ... : ... .. . ... ...
ROW 4A : ... .. . ... ... ... : ... .. 3 ... ... ... : ... .. . ... : ... .. . ... : ... .. . ... ...
ROW 4B : ... .. . ... ... ... : ... .. 2 ... ... ... : ... .. . ... : ... .. . ... : ... .. . ... ...
ROW 4C : ... .. . ... ... ... : ... .. 1 ... ... ... : ... .. . ... : ... .. . ... : ... .. . ... ...
ROW 4D : ... .. . ... ... ... : ... .. 0 ... ... ... : ... .. . ... : ... .. . ... : ... .. . ... ...
ROW 4E : ... .. . ... ... ... : ... .. . ... ... ... : ... .. . ... : ... .. . ... : ... .. . ... ...
ROW 4F : ... .. . ... ... ... : ... .. . ... ... ... : --- .. . ... : ... .. . ... : ... .. . ... ...
ROW 50 : ... .. . ... ... ... : F#3 00 F P7F ... ... : ... .. . ... : ... .. . ... : ... .. . ... ...
ROW 51 : ... .. . ... ... ... : ... .. E ... ... ... : D-4 00 . ... : ... .. . ... : ... .. . ... ...
ROW 52 : ... .. . ... ... ... : ... .. D ... ... ... : ... .. . ... : ... .. . ... : ... .. . ... ...
ROW 53 : ... .. . ... ... ... : ... .. C ... ... ... : ... .. . ... : ... .. . ... : ... .. . ... ...
ROW 54 : ... .. . ... ... ... : ... .. B ... ... ... : ... .. . ... : ... .. . ... : ... .. . ... ...
ROW 55 : ... .. . ... ... ... : ... .. A ... ... ... : ... .. . ... : ... .. . ... : ... .. . ... ...
ROW 56 : ... .. . ... ... ... : ... .. 9 ... ... ... : ... .. . ... : ... .. . ... : ... .. . ... ...
ROW 57 : ... .. . ... ... ... : ... .. 8 ... ... ... : --- .. . ... : ... .. . ... : ... .. . ... ...
ROW 58 : ... .. . ... ... ... : ... .. 7 ... ... ... : ... .. . ... : ... .. . ... : ... .. . ... ...
ROW 59 : ... .. . ... ... ... : ... .. 6 ... ... ... : D-4 00 . ... : ... .. . ... : ... .. . ... ...
ROW 5A : ... .. . ... ... ... : ... .. 5 ... ... ... : ... .. . ... : ... .. . ... : ... .. . ... ...
ROW 5B : ... .. . ... ... ... : ... .. 4 ... ... ... : ... .. . ... : ... .. . ... : ... .. . ... ...
ROW 5C : ... .. . ... ... ... : ... .. 3 ... ... ... : ... .. . ... : ... .. . ... : ... .. . ... ...
ROW 5D : ... .. . ... ... ... : ... .. 2 ... ... ... : ... .. . ... : ... .. . ... : ... .. . ... ...
ROW 5E : ... .. . ... ... ... : ... .. 1 ... ... ... : ... .. . ... : ... .. . ... : ... .. . ... ...
ROW 5F : ... .. . ... ... ... : ... .. 0 ... ... ... : --- .. . ... : ... .. . ... : ... .. . ... ...
ROW 60 : ... .. . ... ... ... : G#3 00 F P7F ... ... : ... .. . ... : ... .. . ... : ... .. . ... ...
ROW 61 : ... .. . ... ... ... : ... .. E ... ... ... : G-3 00 . ... : ... .. . ... : ... .. . ... ...
ROW 62 : ... .. . ... ... ... : ... .. D ... ... ... : ... .. . ... : ... .. . ... : ... .. . ... ...
ROW 63 : ... .. . ... ... ... : ... .. C ... ... ... : ... .. . ... : ... .. . ... : ... .. . ... ...
ROW 64 : ... .. . ... ... ... : ... .. B ... ... ... : ... .. . ... : ... .. . ... : ... .. . ... ...
ROW 65 : ... .. . ... ... ... : ... .. A ... ... ... : ... .. . ... : ... .. . ... : ... .. . ... ...
ROW 66 : ... .. . ... ... ... : ... .. 9 ... ... ... : ... .. . ... : ... .. . ... : ... .. . ... ...
ROW 67 : ... .. . ... ... ... : ... .. 8 ... ... ... : --- .. . ... : ... .. . ... : ... .. . ... ...
ROW 68 : ... .. . ... ... ... : E-3 00 F P7F ... ... : ... .. . ... : ... .. . ... : ... .. . ... ...
ROW 69 : ... .. . ... ... ... : ... .. E ... ... ... : G-3 00 . ... : ... .. . ... : ... .. . ... ...
ROW 6A : ... .. . ... ... ... : ... .. D ... ... ... : ... .. . ... : ... .. . ... : ... .. . ... ...
ROW 6B : ... .. . ... ... ... : ... .. . ... ... ... : ... .. . ... : ... .. . ... : ... .. . ... ...
ROW 6C : ... .. . ... ... ... : ... .. . ... ... ... : ... .. . ... : ... .. . ... : ... .. . ... ...
ROW 6D : ... .. . ... ... ... : ... .. . ... ... ... : ... .. . ... : ... .. . ... : ... .. . ... ...
ROW 6E : ... .. . ... ... ... : ... .. . ... ... ... : ... .. . ... : ... .. . ... : ... .. . ... ...
ROW 6F : ... .. . ... ... ... : ... .. . ... ... ... : --- .. . ... : ... .. . ... : ... .. . ... ...
ROW 70 : ... .. . ... ... ... : ... .. . ... ... ... : ... .. . ... : ... .. . ... : ... .. . ... ...
ROW 71 : ... .. . ... ... ... : ... .. . ... ... ... : C-4 00 . P80 : ... .. . ... : ... .. . ... ...
ROW 72 : ... .. . ... ... ... : ... .. . ... ... ... : ... .. . ... : ... .. . ... : ... .. . ... ...
ROW 73 : ... .. . ... ... ... : ... .. . ... ... ... : ... .. . ... : ... .. . ... : ... .. . ... ...
ROW 74 : ... .. . ... ... ... : ... .. . ... ... ... : ... .. . ... : ... .. . ... : ... .. . ... ...
ROW 75 : ... .. . ... ... ... : ... .. . ... ... ... : ... .. . ... : ... .. . ... : ... .. . ... ...
ROW 76 : ... .. . ... ... ... : ... .. . ... ... ... : ... .. . ... : ... .. . ... : ... .. . ... ...
ROW 77 : ... .. . ... ... ... : ... .. . ... ... ... : --- .. . ... : ... .. . ... : ... .. . ... ...
ROW 78 : ... .. . ... ... ... : ... .. . ... ... ... : ... .. . ... : ... .. . ... : ... .. . ... ...
ROW 79 : ... .. . ... ... ... : ... .. . ... ... ... : C-4 00 . ... : ... .. . ... : ... .. . ... ...
ROW 7A : ... .. . ... ... ... : ... .. . ... ... ... : ... .. . ... : ... .. . ... : ... .. . ... ...
ROW 7B : ... .. . ... ... ... : ... .. . ... ... ... : ... .. . ... : ... .. . ... : ... .. . ... ...
ROW 7C : ... .. . ... ... ... : ... .. . ... ... ... : ... .. . ... : ... .. . ... : ... .. . ... ...
ROW 7D : ... .. . ... ... ... : ... .. . ... ... ... : ... .. . ... : ... .. . ... : ... .. . ... ...
ROW 7E : ... .. . ... ... ... : ... .. . ... ... ... : ... .. . ... : ... .. . ... : ... .. . ... ...
ROW 7F : ... .. . ... ... ... : ... .. . ... ... ... : --- .. . ... : ... .. . ... : ... .. . ... ...
ROW 80 : ... .. . ... ... ... : ... .. . ... ... ... : ... .. . ... : ... .. . ... : ... .. . ... ...
ROW 81 : ... .. . ... ... ... : ... .. C ... ... ... : G-3 00 . P7F : ... .. . ... : ... .. . ... ...
ROW 82 : ... .. . ... ... ... : ... .. B ... ... ... : ... .. . ... : ... .. . ... : ... .. . ... ...
ROW 83 : ... .. . ... ... ... : ... .. A ... ... ... : ... .. . ... : ... .. . ... : ... .. . ... ...
ROW 84 : ... .. . ... ... ... : ... .. 9 ... ... ... : ... .. . ... : ... .. . ... : ... .. . ... ...
ROW 85 : ... .. . ... ... ... : ... .. 8 ... ... ... : ... .. . ... : ... .. . ... : ... .. . ... ...
ROW 86 : ... .. . ... ... ... : ... .. 7 ... ... ... : ... .. . ... : ... .. . ... : ... .. . ... ...
ROW 87 : ... .. . ... ... ... : ... .. 6 ... ... ... : --- .. . ... : ... .. . ... : ... .. . ... ...
ROW 88 : ... .. . ... ... ... : ... .. 5 ... ... ... : ... .. . ... : ... .. . ... : ... .. . ... ...
ROW 89 : ... .. . ... ... ... : ... .. 4 ... ... ... : G-3 00 . ... : ... .. . ... : ... .. . ... ...
ROW 8A : ... .. . ... ... ... : ... .. 3 ... ... ... : ... .. . ... : ... .. . ... : ... .. . ... ...
ROW 8B : ... .. . ... ... ... : ... .. 2 ... ... ... : ... .. . ... : ... .. . ... : ... .. . ... ...
ROW 8C : ... .. . ... ... ... : ... .. 1 ... ... ... : ... .. . ... : ... .. . ... : ... .. . ... ...
ROW 8D : ... .. . ... ... ... : ... .. 0 ... ... ... : ... .. . ... : ... .. . ... : ... .. . ... ...
ROW 8E : ... .. . ... ... ... : ... .. . ... ... ... : ... .. . ... : ... .. . ... : ... .. . ... ...
ROW 8F : ... .. . ... ... ... : ... .. . ... ... ... : --- .. . ... : ... .. . ... : ... .. . ... ...
ROW 90 : ... .. . ... ... ... : F#3 00 F P7F ... ... : ... .. . ... : ... .. . ... : ... .. . ... ...
ROW 91 : ... .. . ... ... ... : ... .. E ... ... ... : C-4 00 . P80 : ... .. . ... : ... .. . ... ...
ROW 92 : ... .. . ... ... ... : ... .. D ... ... ... : ... .. . ... : ... .. . ... : ... .. . ... ...
ROW 93 : ... .. . ... ... ... : ... .. C ... ... ... : ... .. . ... : ... .. . ... : ... .. . ... ...
ROW 94 : ... .. . ... ... ... : ... .. B ... ... ... : ... .. . ... : ... .. . ... : ... .. . ... ...
ROW 95 : ... .. . ... ... ... : ... .. A ... ... ... : ... .. . ... : ... .. . ... : ... .. . ... ...
ROW 96 : ... .. . ... ... ... : ... .. 9 ... ... ... : ... .. . ... : ... .. . ... : ... .. . ... ...
ROW 97 : ... .. . ... ... ... : ... .. 8 ... ... ... : --- .. . ... : ... .. . ... : ... .. . ... ...
ROW 98 : ... .. . ... ... ... : E-3 00 F P7F ... ... : ... .. . ... : ... .. . ... : ... .. . ... ...
ROW 99 : ... .. . ... ... ... : ... .. E ... ... ... : C-4 00 . ... : ... .. . ... : ... .. . ... ...
ROW 9A : ... .. . ... ... ... : ... .. D ... ... ... : ... .. . ... : ... .. . ... : ... .. . ... ...
ROW 9B : ... .. . ... ... ... : ... .. C ... ... ... : ... .. . ... : ... .. . ... : ... .. . ... ...
ROW 9C : ... .. . ... ... ... : ... .. B ... ... ... : ... .. . ... : ... .. . ... : ... .. . ... ...
ROW 9D : ... .. . ... ... ... : ... .. A ... ... ... : ... .. . ... : ... .. . ... : ... .. . ... ...
ROW 9E : ... .. . ... ... ... : ... .. 9 ... ... ... : ... .. . ... : ... .. . ... : ... .. . ... ...
ROW 9F : ... .. . ... ... ... : ... .. 8 ... ... ... : --- .. . ... : ... .. . ... : ... .. . ... ...
ROW A0 : ... .. . ... ... ... : D-3 00 F P7F ... ... : ... .. . ... : ... .. . ... : ... .. . ... ...
ROW A1 : ... .. . ... ... ... : ... .. E ... ... ... : F-3 00 . P7F : ... .. . ... : ... .. . ... ...
ROW A2 : ... .. . ... ... ... : ... .. D ... ... ... : ... .. . ... : ... .. . ... : ... .. . ... ...
ROW A3 : ... .. . ... ... ... : ... .. . ... ... ... : ... .. . ... : ... .. . ... : ... .. . ... ...
ROW A4 : ... .. . ... ... ... : ... .. . ... ... ... : ... .. . ... : ... .. . ... : ... .. . ... ...
ROW A5 : ... .. . ... ... ... : ... .. . ... ... ... : ... .. . ... : ... .. . ... : ... .. . ... ...
ROW A6 : ... .. . ... ... ... : ... .. . ... ... ... : ... .. . ... : ... .. . ... : ... .. . ... ...
ROW A7 : ... .. . ... ... ... : ... .. . ... ... ... : --- .. . ... : ... .. . ... : ... .. . ... ...
ROW A8 : ... .. . ... ... ... : ... .. . ... ... ... : ... .. . ... : ... .. . ... : ... .. . ... ...
ROW A9 : ... .. . ... ... ... : ... .. . ... ... ... : F-3 00 . ... : ... .. . ... : ... .. . ... ...
ROW AA : ... .. . ... ... ... : ... .. . ... ... ... : ... .. . ... : ... .. . ... : ... .. . ... ...
ROW AB : ... .. . ... ... ... : ... .. . ... ... ... : ... .. . ... : ... .. . ... : ... .. . ... ...
ROW AC : ... .. . ... ... ... : ... .. . ... ... ... : ... .. . ... : ... .. . ... : ... .. . ... ...
ROW AD : ... .. . ... ... ... : ... .. . ... ... ... : ... .. . ... : ... .. . ... : ... .. . ... ...
ROW AE : ... .. . ... ... ... : ... .. . ... ... ... : ... .. . ... : ... .. . ... : ... .. . ... ...
ROW AF : ... .. . ... ... ... : ... .. . ... ... ... : --- .. . ... : ... .. . ... : ... .. . ... ...
ROW B0 : ... .. . ... ... ... : ... .. . ... ... ... : ... .. . ... : ... .. . ... : ... .. . ... ...
ROW B1 : ... .. . ... ... ... : ... .. . ... ... ... : A#3 00 . ... : ... .. . ... : ... .. . ... ...
ROW B2 : ... .. . ... ... ... : ... .. . ... ... ... : ... .. . ... : ... .. . ... : ... .. . ... ...
ROW B3 : ... .. . ... ... ... : ... .. . ... ... ... : ... .. . ... : ... .. . ... : ... .. . ... ...
ROW B4 : ... .. . ... ... ... : ... .. . ... ... ... : ... .. . ... : ... .. . ... : ... .. . ... ...
ROW B5 : ... .. . ... ... ... : ... .. . ... ... ... : ... .. . ... : ... .. . ... : ... .. . ... ...
ROW B6 : ... .. . ... ... ... : ... .. . ... ... ... : ... .. . ... : ... .. . ... : ... .. . ... ...
ROW B7 : ... .. . ... ... ... : ... .. . ... ... ... : --- .. . ... : ... .. . ... : ... .. . ... ...
ROW B8 : ... .. . ... ... ... : ... .. . ... ... ... : ... .. . ... : ... .. . ... : ... .. . ... ...
ROW B9 : ... .. . ... ... ... : ... .. C ... ... ... : A#3 00 . ... : ... .. . ... : ... .. . ... ...
ROW BA : ... .. . ... ... ... : ... .. B ... ... ... : ... .. . ... : ... .. . ... : ... .. . ... ...
ROW BB : ... .. . ... ... ... : ... .. A ... ... ... : ... .. . ... : ... .. . ... : ... .. . ... ...
ROW BC : ... .. . ... ... ... : ... .. 9 ... ... ... : ... .. . ... : ... .. . ... : ... .. . ... ...
ROW BD : ... .. . ... ... ... : ... .. 8 ... ... ... : ... .. . ... : ... .. . ... : ... .. . ... ...
ROW BE : ... .. . ... ... ... : ... .. 7 ... ... ... : ... .. . ... : ... .. . ... : ... .. . ... ...
ROW BF : ... .. . ... ... ... : ... .. 6 ... ... ... : --- .. . ... : ... .. . ... : ... .. . ... ...
ROW C0 : ... .. . ... ... ... : ... .. 5 ... ... ... : ... .. . ... : ... .. . ... : ... .. . ... ...
ROW C1 : ... .. . ... ... ... : ... .. 4 ... ... ... : F-3 00 . ... : ... .. . ... : ... .. . ... ...
ROW C2 : ... .. . ... ... ... : ... .. 3 ... ... ... : ... .. . ... : ... .. . ... : ... .. . ... ...
ROW C3 : ... .. . ... ... ... : ... .. 2 ... ... ... : ... .. . ... : ... .. . ... : ... .. . ... ...
ROW C4 : ... .. . ... ... ... : ... .. 1 ... ... ... : ... .. . ... : ... .. . ... : ... .. . ... ...
ROW C5 : ... .. . ... ... ... : ... .. 0 ... ... ... : ... .. . ... : ... .. . ... : ... .. . ... ...
ROW C6 : ... .. . ... ... ... : ... .. . ... ... ... : ... .. . ... : ... .. . ... : ... .. . ... ...
ROW C7 : ... .. . ... ... ... : ... .. . ... ... ... : --- .. . ... : ... .. . ... : ... .. . ... ...
ROW C8 : ... .. . ... ... ... : E-3 00 F P7F ... ... : ... .. . ... : ... .. . ... : ... .. . ... ...
ROW C9 : ... .. . ... ... ... : ... .. E ... ... ... : F-3 00 . ... : ... .. . ... : ... .. . ... ...
ROW CA : ... .. . ... ... ... : ... .. D ... ... ... : ... .. . ... : ... .. . ... : ... .. . ... ...
ROW CB : ... .. . ... ... ... : ... .. C ... ... ... : ... .. . ... : ... .. . ... : ... .. . ... ...
ROW CC : ... .. . ... ... ... : ... .. B ... ... ... : ... .. . ... : ... .. . ... : ... .. . ... ...
ROW CD : ... .. . ... ... ... : ... .. A ... ... ... : ... .. . ... : ... .. . ... : ... .. . ... ...
ROW CE : ... .. . ... ... ... : ... .. 9 ... ... ... : ... .. . ... : ... .. . ... : ... .. . ... ...
ROW CF : ... .. . ... ... ... : ... .. 8 ... ... ... : --- .. . ... : ... .. . ... : ... .. . ... ...
ROW D0 : ... .. . ... ... ... : D-3 00 F P7F ... ... : ... .. . ... : ... .. . ... : ... .. . ... ...
ROW D1 : ... .. . ... ... ... : ... .. E ... ... ... : A#3 00 . ... : ... .. . ... : ... .. . ... ...
ROW D2 : ... .. . ... ... ... : ... .. D ... ... ... : ... .. . ... : ... .. . ... : ... .. . ... ...
ROW D3 : ... .. . ... ... ... : ... .. C ... ... ... : ... .. . ... : ... .. . ... : ... .. . ... ...
ROW D4 : ... .. . ... ... ... : ... .. B ... ... ... : ... .. . ... : ... .. . ... : ... .. . ... ...
ROW D5 : ... .. . ... ... ... : ... .. A ... ... ... : ... .. . ... : ... .. . ... : ... .. . ... ...
ROW D6 : ... .. . ... ... ... : ... .. 9 ... ... ... : ... .. . ... : ... .. . ... : ... .. . ... ...
ROW D7 : ... .. . ... ... ... : ... .. 8 ... ... ... : --- .. . ... : ... .. . ... : ... .. . ... ...
ROW D8 : ... .. . ... ... ... : C-3 00 F P80 ... ... : ... .. . ... : ... .. . ... : ... .. . ... ...
ROW D9 : ... .. . ... ... ... : ... .. E ... ... ... : A#3 00 . ... : ... .. . ... : ... .. . ... ...
ROW DA : ... .. . ... ... ... : ... .. D ... ... ... : ... .. . ... : ... .. . ... : ... .. . ... ...
ROW DB : ... .. . ... ... ... : ... .. C ... ... ... : ... .. . ... : ... .. . ... : ... .. . ... ...
ROW DC : ... .. . ... ... ... : ... .. B ... ... ... : ... .. . ... : ... .. . ... : ... .. . ... ...
ROW DD : ... .. . ... ... ... : ... .. A ... ... ... : ... .. . ... : ... .. . ... : ... .. . ... ...
ROW DE : ... .. . ... ... ... : ... .. 9 ... ... ... : ... .. . ... : ... .. . ... : ... .. . ... ...
ROW DF : ... .. . ... ... ... : ... .. 8 ... ... ... : --- .. . ... : ... .. . ... : ... .. . ... ...
ROW E0 : ... .. . ... ... ... : C-3 00 F P80 ... ... : ... .. . ... : ... .. . ... : ... .. . ... ...
ROW E1 : ... .. . ... ... ... : ... .. E ... ... ... : D#3 00 . P80 : ... .. . ... : ... .. . ... ...
ROW E2 : ... .. . ... ... ... : ... .. D ... ... ... : ... .. . ... : ... .. . ... : ... .. . ... ...
ROW E3 : ... .. . ... ... ... : ... .. C ... ... ... : ... .. . ... : ... .. . ... : ... .. . ... ...
ROW E4 : ... .. . ... ... ... : ... .. B ... ... ... : ... .. . ... : ... .. . ... : ... .. . ... ...
ROW E5 : ... .. . ... ... ... : ... .. A ... ... ... : ... .. . ... : ... .. . ... : ... .. . ... ...
ROW E6 : ... .. . ... ... ... : ... .. 9 ... ... ... : ... .. . ... : ... .. . ... : ... .. . ... ...
ROW E7 : ... .. . ... ... ... : ... .. 8 ... ... ... : --- .. . ... : ... .. . ... : ... .. . ... ...
ROW E8 : ... .. . ... ... ... : E-3 00 F P7F ... ... : ... .. . ... : ... .. . ... : ... .. . ... ...
ROW E9 : ... .. . ... ... ... : ... .. E ... ... ... : D#3 00 . ... : ... .. . ... : ... .. . ... ...
ROW EA : ... .. . ... ... ... : ... .. D ... ... ... : ... .. . ... : ... .. . ... : ... .. . ... ...
ROW EB : ... .. . ... ... ... : ... .. C ... ... ... : ... .. . ... : ... .. . ... : ... .. . ... ...
ROW EC : ... .. . ... ... ... : ... .. B ... ... ... : ... .. . ... : ... .. . ... : ... .. . ... ...
ROW ED : ... .. . ... ... ... : ... .. A ... ... ... : ... .. . ... : ... .. . ... : ... .. . ... ...
ROW EE : ... .. . ... ... ... : ... .. 9 ... ... ... : ... .. . ... : ... .. . ... : ... .. . ... ...
ROW EF : ... .. . ... ... ... : ... .. 8 ... ... ... : --- .. . ... : ... .. . ... : ... .. . ... ...
ROW F0 : ... .. . ... ... ... : F#3 00 F P7F ... ... : ... .. . ... : ... .. . ... : ... .. . ... ...
ROW F1 : ... .. . ... ... ... : ... .. E ... ... ... : G#3 00 . P7F : ... .. . ... : ... .. . ... ...
ROW F2 : ... .. . ... ... ... : ... .. D ... ... ... : ... .. . ... : ... .. . ... : ... .. . ... ...
ROW F3 : ... .. . ... ... ... : ... .. C ... ... ... : ... .. . ... : ... .. . ... : ... .. . ... ...
ROW F4 : ... .. . ... ... ... : ... .. B ... ... ... : ... .. . ... : ... .. . ... : ... .. . ... ...
ROW F5 : ... .. . ... ... ... : ... .. A ... ... ... : ... .. . ... : ... .. . ... : ... .. . ... ...
ROW F6 : ... .. . ... ... ... : ... .. 9 ... ... ... : ... .. . ... : ... .. . ... : ... .. . ... ...
ROW F7 : ... .. . ... ... ... : ... .. 8 ... ... ... : --- .. . ... : ... .. . ... : ... .. . ... ...
ROW F8 : ... .. . ... ... ... : G#3 00 F P7F ... ... : ... .. . ... : ... .. . ... : ... .. . ... ...
ROW F9 : ... .. . ... ... ... : ... .. E ... ... ... : G#3 00 . ... : ... .. . ... : ... .. . ... ...
ROW FA : ... .. . ... ... ... : ... .. D ... ... ... : ... .. . ... : ... .. . ... : ... .. . ... ...
ROW FB : ... .. . ... ... ... : ... .. C ... ... ... : ... .. . ... : ... .. . ... : ... .. . ... ...
ROW FC : ... .. . ... ... ... : ... .. B ... ... ... : ... .. . ... : ... .. . ... : ... .. . ... ...
ROW FD : ... .. . ... ... ... : ... .. A ... ... ... : ... .. . ... : ... .. . ... : ... .. . ... ...
ROW FE : ... .. . ... ... ... : ... .. 9 ... ... ... : ... .. . ... : ... .. . ... : ... .. . ... ...
ROW FF : ... .. . ... ... ... : ... .. 8 ... ... ... : --- .. . ... : ... .. . ... : ... .. . ... ...

PATTERN 0E
ROW 00 : ... .. . ... ... ... : ... .. 7 ... ... ... : ... .. . ... : ... .. . ... : ... .. . ... ...
ROW 01 : ... .. . ... ... ... : ... .. 6 ... ... ... : B-3 00 . ... : ... .. . ... : ... .. . ... ...
ROW 02 : ... .. . ... ... ... : ... .. 5 ... ... ... : ... .. . ... : ... .. . ... : ... .. . ... ...
ROW 03 : ... .. . ... ... ... : ... .. 4 ... ... ... : ... .. . ... : ... .. . ... : ... .. . ... ...
ROW 04 : ... .. . ... ... ... : ... .. 3 ... ... ... : ... .. . ... : ... .. . ... : ... .. . ... ...
ROW 05 : ... .. . ... ... ... : ... .. 2 ... ... ... : ... .. . ... : ... .. . ... : ... .. . ... ...
ROW 06 : ... .. . ... ... ... : ... .. 1 ... ... ... : ... .. . ... : ... .. . ... : ... .. . ... ...
ROW 07 : ... .. . ... ... ... : ... .. 0 ... ... ... : --- .. . ... : ... .. . ... : ... .. . ... ...
ROW 08 : ... .. . ... ... ... : F#3 00 F P7F ... ... : ... .. . ... : ... .. . ... : ... .. . ... ...
ROW 09 : ... .. . ... ... ... : ... .. E ... ... ... : B-3 00 . ... : ... .. . ... : ... .. . ... ...
ROW 0A : ... .. . ... ... ... : ... .. D ... ... ... : ... .. . ... : ... .. . ... : ... .. . ... ...
ROW 0B : ... .. . ... ... ... : ... .. C ... ... ... : ... .. . ... : ... .. . ... : ... .. . ... ...
ROW 0C : ... .. . ... ... ... : ... .. B ... ... ... : ... .. . ... : ... .. . ... : ... .. . ... ...
ROW 0D : ... .. . ... ... ... : ... .. A ... ... ... : ... .. . ... : ... .. . ... : ... .. . ... ...
ROW 0E : ... .. . ... ... ... : ... .. 9 ... ... ... : ... .. . ... : ... .. . ... : ... .. . ... ...
ROW 0F : ... .. . ... ... ... : ... .. . ... ... ... : ... .. . ... : ... .. . ... : ... .. . ... ...
ROW 10 : ... .. . ... ... ... : ... .. . ... ... ... : ... .. . ... : ... .. . ... : ... .. . ... ...
ROW 11 : ... .. . ... ... ... : ... .. . ... ... ... : ... .. . ... : ... .. . ... : ... .. . ... ...
ROW 12 : ... .. . ... ... ... : ... .. . ... ... ... : ... .. . ... : ... .. . ... : ... .. . ... ...
ROW 13 : ... .. . ... ... ... : ... .. . ... ... ... : ... .. . ... : ... .. . ... : ... .. . ... ...
ROW 14 : ... .. . ... ... ... : ... .. . ... ... ... : ... .. . ... : ... .. . ... : ... .. . ... ...
ROW 15 : ... .. . ... ... ... : ... .. . ... ... ... : ... .. . ... : ... .. . ... : ... .. . ... ...
ROW 16 : ... .. . ... ... ... : ... .. . ... ... ... : ... .. . ... : ... .. . ... : ... .. . ... ...
ROW 17 : ... .. . ... ... ... : ... .. . ... ... ... : ... .. . ... : ... .. . ... : ... .. . ... ...
ROW 18 : ... .. . ... ... ... : ... .. . ... ... ... : ... .. . ... : ... .. . ... : ... .. . ... ...
ROW 19 : ... .. . ... ... ... : ... .. . ... ... ... : ... .. . ... : ... .. . ... : ... .. . ... ...
ROW 1A : ... .. . ... ... ... : ... .. . ... ... ... : ... .. . ... : ... .. . ... : ... .. . ... ...
ROW 1B : ... .. . ... ... ... : ... .. . ... ... ... : ... .. . ... : ... .. . ... : ... .. . ... ...
ROW 1C : ... .. . ... ... ... : ... .. . ... ... ... : ... .. . ... : ... .. . ... : ... .. . ... ...
ROW 1D : ... .. . ... ... ... : ... .. . ... ... ... : ... .. . ... : ... .. . ... : ... .. . ... ...
ROW 1E : ... .. . ... ... ... : ... .. . ... ... ... : ... .. . ... : ... .. . ... : ... .. . ... ...
ROW 1F : ... .. . ... ... ... : ... .. . ... ... ... : ... .. . ... : ... .. . ... : ... .. . ... ...
ROW 20 : ... .. . ... ... ... : ... .. . ... ... ... : ... .. . ... : ... .. . ... : ... .. . ... ...
ROW 21 : ... .. . ... ... ... : ... .. . ... ... ... : ... .. . ... : ... .. . ... : ... .. . ... ...
ROW 22 : ... .. . ... ... ... : ... .. . ... ... ... : ... .. . ... : ... .. . ... : ... .. . ... ...
ROW 23 : ... .. . ... ... ... : ... .. . ... ... ... : ... .. . ... : ... .. . ... : ... .. . ... ...
ROW 24 : ... .. . ... ... ... : ... .. . ... ... ... : ... .. . ... : ... .. . ... : ... .. . ... ...
ROW 25 : ... .. . ... ... ... : ... .. . ... ... ... : ... .. . ... : ... .. . ... : ... .. . ... ...
ROW 26 : ... .. . ... ... ... : ... .. . ... ... ... : ... .. . ... : ... .. . ... : ... .. . ... ...
ROW 27 : ... .. . ... ... ... : ... .. . ... ... ... : ... .. . ... : ... .. . ... : ... .. . ... ...
ROW 28 : ... .. . ... ... ... : ... .. . ... ... ... : ... .. . ... : ... .. . ... : ... .. . ... ...
ROW 29 : ... .. . ... ... ... : ... .. . ... ... ... : ... .. . ... : ... .. . ... : ... .. . ... ...
ROW 2A : ... .. . ... ... ... : ... .. . ... ... ... : ... .. . ... : ... .. . ... : ... .. . ... ...
ROW 2B : ... .. . ... ... ... : ... .. . ... ... ... : ... .. . ... : ... .. . ... : ... .. . ... ...
ROW 2C : ... .. . ... ... ... : ... .. . ... ... ... : ... .. . ... : ... .. . ... : ... .. . ... ...
ROW 2D : ... .. . ... ... ... : ... .. . ... ... ... : ... .. . ... : ... .. . ... : ... .. . ... ...
ROW 2E : ... .. . ... ... ... : ... .. . ... ... ... : ... .. . ... : ... .. . ... : ... .. . ... ...
ROW 2F : ... .. . ... ... ... : ... .. . ... ... ... : ... .. . ... : ... .. . ... : ... .. . ... ...
ROW 30 : ... .. . ... ... ... : ... .. . ... ... ... : ... .. . ... : ... .. . ... : ... .. . ... ...
ROW 31 : ... .. . ... ... ... : ... .. . ... ... ... : ... .. . ... : ... .. . ... : ... .. . ... ...
ROW 32 : ... .. . ... ... ... : ... .. . ... ... ... : ... .. . ... : ... .. . ... : ... .. . ... ...
ROW 33 : ... .. . ... ... ... : ... .. . ... ... ... : ... .. . ... : ... .. . ... : ... .. . ... ...
ROW 34 : ... .. . ... ... ... : ... .. . ... ... ... : ... .. . ... : ... .. . ... : ... .. . ... ...
ROW 35 : ... .. . ... ... ... : ... .. . ... ... ... : ... .. . ... : ... .. . ... : ... .. . ... ...
ROW 36 : ... .. . ... ... ... : ... .. . ... ... ... : ... .. . ... : ... .. . ... : ... .. . ... ...
ROW 37 : ... .. . ... ... ... : ... .. . ... ... ... : ... .. . ... : ... .. . ... : ... .. . ... ...
ROW 38 : ... .. . ... ... ... : ... .. . ... ... ... : ... .. . ... : ... .. . ... : ... .. . ... ...
ROW 39 : ... .. . ... ... ... : ... .. . ... ... ... : ... .. . ... : ... .. . ... : ... .. . ... ...
ROW 3A : ... .. . ... ... ... : ... .. . ... ... ... : ... .. . ... : ... .. . ... : ... .. . ... ...
ROW 3B : ... .. . ... ... ... : ... .. . ... ... ... : ... .. . ... : ... .. . ... : ... .. . ... ...
ROW 3C : ... .. . ... ... ... : ... .. . ... ... ... : ... .. . ... : ... .. . ... : ... .. . ... ...
ROW 3D : ... .. . ... ... ... : ... .. . ... ... ... : ... .. . ... : ... .. . ... : ... .. . ... ...
ROW 3E : ... .. . ... ... ... : ... .. . ... ... ... : ... .. . ... : ... .. . ... : ... .. . ... ...
ROW 3F : ... .. . ... ... ... : ... .. . ... ... ... : ... .. . ... : ... .. . ... : ... .. . ... ...
ROW 40 : ... .. . ... ... ... : ... .. . ... ... ... : ... .. . ... : ... .. . ... : ... .. . ... ...
ROW 41 : ... .. . ... ... ... : ... .. . ... ... ... : ... .. . ... : ... .. . ... : ... .. . ... ...
ROW 42 : ... .. . ... ... ... : ... .. . ... ... ... : ... .. . ... : ... .. . ... : ... .. . ... ...
ROW 43 : ... .. . ... ... ... : ... .. . ... ... ... : ... .. . ... : ... .. . ... : ... .. . ... ...
ROW 44 : ... .. . ... ... ... : ... .. . ... ... ... : ... .. . ... : ... .. . ... : ... .. . ... ...
ROW 45 : ... .. . ... ... ... : ... .. . ... ... ... : ... .. . ... : ... .. . ... : ... .. . ... ...
ROW 46 : ... .. . ... ... ... : ... .. . ... ... ... : ... .. . ... : ... .. . ... : ... .. . ... ...
ROW 47 : ... .. . ... ... ... : ... .. . ... ... ... : ... .. . ... : ... .. . ... : ... .. . ... ...
ROW 48 : ... .. . ... ... ... : ... .. . ... ... ... : ... .. . ... : ... .. . ... : ... .. . ... ...
ROW 49 : ... .. . ... ... ... : ... .. . ... ... ... : ... .. . ... : ... .. . ... : ... .. . ... ...
ROW 4A : ... .. . ... ... ... : ... .. . ... ... ... : ... .. . ... : ... .. . ... : ... .. . ... ...
ROW 4B : ... .. . ... ... ... : ... .. . ... ... ... : ... .. . ... : ... .. . ... : ... .. . ... ...
ROW 4C : ... .. . ... ... ... : ... .. . ... ... ... : ... .. . ... : ... .. . ... : ... .. . ... ...
ROW 4D : ... .. . ... ... ... : ... .. . ... ... ... : ... .. . ... : ... .. . ... : ... .. . ... ...
ROW 4E : ... .. . ... ... ... : ... .. . ... ... ... : ... .. . ... : ... .. . ... : ... .. . ... ...
ROW 4F : ... .. . ... ... ... : ... .. . ... ... ... : ... .. . ... : ... .. . ... : ... .. . ... ...
ROW 50 : ... .. . ... ... ... : ... .. . ... ... ... : ... .. . ... : ... .. . ... : ... .. . ... ...
ROW 51 : ... .. . ... ... ... : ... .. . ... ... ... : ... .. . ... : ... .. . ... : ... .. . ... ...
ROW 52 : ... .. . ... ... ... : ... .. . ... ... ... : ... .. . ... : ... .. . ... : ... .. . ... ...
ROW 53 : ... .. . ... ... ... : ... .. . ... ... ... : ... .. . ... : ... .. . ... : ... .. . ... ...
ROW 54 : ... .. . ... ... ... : ... .. . ... ... ... : ... .. . ... : ... .. . ... : ... .. . ... ...
ROW 55 : ... .. . ... ... ... : ... .. . ... ... ... : ... .. . ... : ... .. . ... : ... .. . ... ...
ROW 56 : ... .. . ... ... ... : ... .. . ... ... ... : ... .. . ... : ... .. . ... : ... .. . ... ...
ROW 57 : ... .. . ... ... ... : ... .. . ... ... ... : ... .. . ... : ... .. . ... : ... .. . ... ...
ROW 58 : ... .. . ... ... ... : ... .. . ... ... ... : ... .. . ... : ... .. . ... : ... .. . ... ...
ROW 59 : ... .. . ... ... ... : ... .. . ... ... ... : ... .. . ... : ... .. . ... : ... .. . ... ...
ROW 5A : ... .. . ... ... ... : ... .. . ... ... ... : ... .. . ... : ... .. . ... : ... .. . ... ...
ROW 5B : ... .. . ... ... ... : ... .. . ... ... ... : ... .. . ... : ... .. . ... : ... .. . ... ...
ROW 5C : ... .. . ... ... ... : ... .. . ... ... ... : ... .. . ... : ... .. . ... : ... .. . ... ...
ROW 5D : ... .. . ... ... ... : ... .. . ... ... ... : ... .. . ... : ... .. . ... : ... .. . ... ...
ROW 5E : ... .. . ... ... ... : ... .. . ... ... ... : ... .. . ... : ... .. . ... : ... .. . ... ...
ROW 5F : ... .. . ... ... ... : ... .. . ... ... ... : ... .. . ... : ... .. . ... : ... .. . ... ...
ROW 60 : ... .. . ... ... ... : ... .. . ... ... ... : ... .. . ... : ... .. . ... : ... .. . ... ...
ROW 61 : ... .. . ... ... ... : ... .. . ... ... ... : ... .. . ... : ... .. . ... : ... .. . ... ...
ROW 62 : ... .. . ... ... ... : ... .. . ... ... ... : ... .. . ... : ... .. . ... : ... .. . ... ...
ROW 63 : ... .. . ... ... ... : ... .. . ... ... ... : ... .. . ... : ... .. . ... : ... .. . ... ...
ROW 64 : ... .. . ... ... ... : ... .. . ... ... ... : ... .. . ... : ... .. . ... : ... .. . ... ...
ROW 65 : ... .. . ... ... ... : ... .. . ... ... ... : ... .. . ... : ... .. . ... : ... .. . ... ...
ROW 66 : ... .. . ... ... ... : ... .. . ... ... ... : ... .. . ... : ... .. . ... : ... .. . ... ...
ROW 67 : ... .. . ... ... ... : ... .. . ... ... ... : ... .. . ... : ... .. . ... : ... .. . ... ...
ROW 68 : ... .. . ... ... ... : ... .. . ... ... ... : ... .. . ... : ... .. . ... : ... .. . ... ...
ROW 69 : ... .. . ... ... ... : ... .. . ... ... ... : ... .. . ... : ... .. . ... : ... .. . ... ...
ROW 6A : ... .. . ... ... ... : ... .. . ... ... ... : ... .. . ... : ... .. . ... : ... .. . ... ...
ROW 6B : ... .. . ... ... ... : ... .. . ... ... ... : ... .. . ... : ... .. . ... : ... .. . ... ...
ROW 6C : ... .. . ... ... ... : ... .. . ... ... ... : ... .. . ... : ... .. . ... : ... .. . ... ...
ROW 6D : ... .. . ... ... ... : ... .. . ... ... ... : ... .. . ... : ... .. . ... : ... .. . ... ...
ROW 6E : ... .. . ... ... ... : ... .. . ... ... ... : ... .. . ... : ... .. . ... : ... .. . ... ...
ROW 6F : ... .. . ... ... ... : ... .. . ... ... ... : ... .. . ... : ... .. . ... : ... .. . ... ...
ROW 70 : ... .. . ... ... ... : ... .. . ... ... ... : ... .. . ... : ... .. . ... : ... .. . ... ...
ROW 71 : ... .. . ... ... ... : ... .. . ... ... ... : ... .. . ... : ... .. . ... : ... .. . ... ...
ROW 72 : ... .. . ... ... ... : ... .. . ... ... ... : ... .. . ... : ... .. . ... : ... .. . ... ...
ROW 73 : ... .. . ... ... ... : ... .. . ... ... ... : ... .. . ... : ... .. . ... : ... .. . ... ...
ROW 74 : ... .. . ... ... ... : ... .. . ... ... ... : ... .. . ... : ... .. . ... : ... .. . ... ...
ROW 75 : ... .. . ... ... ... : ... .. . ... ... ... : ... .. . ... : ... .. . ... : ... .. . ... ...
ROW 76 : ... .. . ... ... ... : ... .. . ... ... ... : ... .. . ... : ... .. . ... : ... .. . ... ...
ROW 77 : ... .. . ... ... ... : ... .. . ... ... ... : ... .. . ... : ... .. . ... : ... .. . ... ...
ROW 78 : ... .. . ... ... ... : ... .. . ... ... ... : ... .. . ... : ... .. . ... : ... .. . ... ...
ROW 79 : ... .. . ... ... ... : ... .. . ... ... ... : ... .. . ... : ... .. . ... : ... .. . ... ...
ROW 7A : ... .. . ... ... ... : ... .. . ... ... ... : ... .. . ... : ... .. . ... : ... .. . ... ...
ROW 7B : ... .. . ... ... ... : ... .. . ... ... ... : ... .. . ... : ... .. . ... : ... .. . ... ...
ROW 7C : ... .. . ... ... ... : ... .. . ... ... ... : ... .. . ... : ... .. . ... : ... .. . ... ...
ROW 7D : ... .. . ... ... ... : ... .. . ... ... ... : ... .. . ... : ... .. . ... : ... .. . ... ...
ROW 7E : ... .. . ... ... ... : ... .. . ... ... ... : ... .. . ... : ... .. . ... : ... .. . ... ...
ROW 7F : ... .. . ... ... ... : ... .. . ... ... ... : ... .. . ... : ... .. . ... : ... .. . ... ...
ROW 80 : ... .. . ... ... ... : ... .. . ... ... ... : ... .. . ... : ... .. . ... : ... .. . ... ...
ROW 81 : ... .. . ... ... ... : ... .. . ... ... ... : ... .. . ... : ... .. . ... : ... .. . ... ...
ROW 82 : ... .. . ... ... ... : ... .. . ... ... ... : ... .. . ... : ... .. . ... : ... .. . ... ...
ROW 83 : ... .. . ... ... ... : ... .. . ... ... ... : ... .. . ... : ... .. . ... : ... .. . ... ...
ROW 84 : ... .. . ... ... ... : ... .. . ... ... ... : ... .. . ... : ... .. . ... : ... .. . ... ...
ROW 85 : ... .. . ... ... ... : ... .. . ... ... ... : ... .. . ... : ... .. . ... : ... .. . ... ...
ROW 86 : ... .. . ... ... ... : ... .. . ... ... ... : ... .. . ... : ... .. . ... : ... .. . ... ...
ROW 87 : ... .. . ... ... ... : ... .. . ... ... ... : ... .. . ... : ... .. . ... : ... .. . ... ...
ROW 88 : ... .. . ... ... ... : ... .. . ... ... ... : ... .. . ... : ... .. . ... : ... .. . ... ...
ROW 89 : ... .. . ... ... ... : ... .. . ... ... ... : ... .. . ... : ... .. . ... : ... .. . ... ...
ROW 8A : ... .. . ... ... ... : ... .. . ... ... ... : ... .. . ... : ... .. . ... : ... .. . ... ...
ROW 8B : ... .. . ... ... ... : ... .. . ... ... ... : ... .. . ... : ... .. . ... : ... .. . ... ...
ROW 8C : ... .. . ... ... ... : ... .. . ... ... ... : ... .. . ... : ... .. . ... : ... .. . ... ...
ROW 8D : ... .. . ... ... ... : ... .. . ... ... ... : ... .. . ... : ... .. . ... : ... .. . ... ...
ROW 8E : ... .. . ... ... ... : ... .. . ... ... ... : ... .. . ... : ... .. . ... : ... .. . ... ...
ROW 8F : ... .. . ... ... ... : ... .. . ... ... ... : ... .. . ... : ... .. . ... : ... .. . ... ...
ROW 90 : ... .. . ... ... ... : ... .. . ... ... ... : ... .. . ... : ... .. . ... : ... .. . ... ...
ROW 91 : ... .. . ... ... ... : ... .. . ... ... ... : ... .. . ... : ... .. . ... : ... .. . ... ...
ROW 92 : ... .. . ... ... ... : ... .. . ... ... ... : ... .. . ... : ... .. . ... : ... .. . ... ...
ROW 93 : ... .. . ... ... ... : ... .. . ... ... ... : ... .. . ... : ... .. . ... : ... .. . ... ...
ROW 94 : ... .. . ... ... ... : ... .. . ... ... ... : ... .. . ... : ... .. . ... : ... .. . ... ...
ROW 95 : ... .. . ... ... ... : ... .. . ... ... ... : ... .. . ... : ... .. . ... : ... .. . ... ...
ROW 96 : ... .. . ... ... ... : ... .. . ... ... ... : ... .. . ... : ... .. . ... : ... .. . ... ...
ROW 97 : ... .. . ... ... ... : ... .. . ... ... ... : ... .. . ... : ... .. . ... : ... .. . ... ...
ROW 98 : ... .. . ... ... ... : ... .. . ... ... ... : ... .. . ... : ... .. . ... : ... .. . ... ...
ROW 99 : ... .. . ... ... ... : ... .. . ... ... ... : ... .. . ... : ... .. . ... : ... .. . ... ...
ROW 9A : ... .. . ... ... ... : ... .. . ... ... ... : ... .. . ... : ... .. . ... : ... .. . ... ...
ROW 9B : ... .. . ... ... ... : ... .. . ... ... ... : ... .. . ... : ... .. . ... : ... .. . ... ...
ROW 9C : ... .. . ... ... ... : ... .. . ... ... ... : ... .. . ... : ... .. . ... : ... .. . ... ...
ROW 9D : ... .. . ... ... ... : ... .. . ... ... ... : ... .. . ... : ... .. . ... : ... .. . ... ...
ROW 9E : ... .. . ... ... ... : ... .. . ... ... ... : ... .. . ... : ... .. . ... : ... .. . ... ...
ROW 9F : ... .. . ... ... ... : ... .. . ... ... ... : ... .. . ... : ... .. . ... : ... .. . ... ...
ROW A0 : ... .. . ... ... ... : ... .. . ... ... ... : ... .. . ... : ... .. . ... : ... .. . ... ...
ROW A1 : ... .. . ... ... ... : ... .. . ... ... ... : ... .. . ... : ... .. . ... : ... .. . ... ...
ROW A2 : ... .. . ... ... ... : ... .. . ... ... ... : ... .. . ... : ... .. . ... : ... .. . ... ...
ROW A3 : ... .. . ... ... ... : ... .. . ... ... ... : ... .. . ... : ... .. . ... : ... .. . ... ...
ROW A4 : ... .. . ... ... ... : ... .. . ... ... ... : ... .. . ... : ... .. . ... : ... .. . ... ...
ROW A5 : ... .. . ... ... ... : ... .. . ... ... ... : ... .. . ... : ... .. . ... : ... .. . ... ...
ROW A6 : ... .. . ... ... ... : ... .. . ... ... ... : ... .. . ... : ... .. . ... : ... .. . ... ...
ROW A7 : ... .. . ... ... ... : ... .. . ... ... ... : ... .. . ... : ... .. . ... : ... .. . ... ...
ROW A8 : ... .. . ... ... ... : ... .. . ... ... ... : ... .. . ... : ... .. . ... : ... .. . ... ...
ROW A9 : ... .. . ... ... ... : ... .. . ... ... ... : ... .. . ... : ... .. . ... : ... .. . ... ...
ROW AA : ... .. . ... ... ... : ... .. . ... ... ... : ... .. . ... : ... .. . ... : ... .. . ... ...
ROW AB : ... .. . ... ... ... : ... .. . ... ... ... : ... .. . ... : ... .. . ... : ... .. . ... ...
ROW AC : ... .. . ... ... ... : ... .. . ... ... ... : ... .. . ... : ... .. . ... : ... .. . ... ...
ROW AD : ... .. . ... ... ... : ... .. . ... ... ... : ... .. . ... : ... .. . ... : ... .. . ... ...
ROW AE : ... .. . ... ... ... : ... .. . ... ... ... : ... .. . ... : ... .. . ... : ... .. . ... ...
ROW AF : ... .. . ... ... ... : ... .. . ... ... ... : ... .. . ... : ... .. . ... : ... .. . ... ...
ROW B0 : ... .. . ... ... ... : ... .. . ... ... ... : ... .. . ... : ... .. . ... : ... .. . ... ...
ROW B1 : ... .. . ... ... ... : ... .. . ... ... ... : ... .. . ... : ... .. . ... : ... .. . ... ...
ROW B2 : ... .. . ... ... ... : ... .. . ... ... ... : ... .. . ... : ... .. . ... : ... .. . ... ...
ROW B3 : ... .. . ... ... ... : ... .. . ... ... ... : ... .. . ... : ... .. . ... : ... .. . ... ...
ROW B4 : ... .. . ... ... ... : ... .. . ... ... ... : ... .. . ... : ... .. . ... : ... .. . ... ...
ROW B5 : ... .. . ... ... ... : ... .. . ... ... ... : ... .. . ... : ... .. . ... : ... .. . ... ...
ROW B6 : ... .. . ... ... ... : ... .. . ... ... ... : ... .. . ... : ... .. . ... : ... .. . ... ...
ROW B7 : ... .. . ... ... ... : ... .. . ... ... ... : ... .. . ... : ... .. . ... : ... .. . ... ...
ROW B8 : ... .. . ... ... ... : ... .. . ... ... ... : ... .. . ... : ... .. . ... : ... .. . ... ...
ROW B9 : ... .. . ... ... ... : ... .. . ... ... ... : ... .. . ... : ... .. . ... : ... .. . ... ...
ROW BA : ... .. . ... ... ... : ... .. . ... ... ... : ... .. . ... : ... .. . ... : ... .. . ... ...
ROW BB : ... .. . ... ... ... : ... .. . ... ... ... : ... .. . ... : ... .. . ... : ... .. . ... ...
ROW BC : ... .. . ... ... ... : ... .. . ... ... ... : ... .. . ... : ... .. . ... : ... .. . ... ...
ROW BD : ... .. . ... ... ... : ... .. . ... ... ... : ... .. . ... : ... .. . ... : ... .. . ... ...
ROW BE : ... .. . ... ... ... : ... .. . ... ... ... : ... .. . ... : ... .. . ... : ... .. . ... ...
ROW BF : ... .. . ... ... ... : ... .. . ... ... ... : ... .. . ... : ... .. . ... : ... .. . ... ...
ROW C0 : ... .. . ... ... ... : ... .. . ... ... ... : ... .. . ... : ... .. . ... : ... .. . ... ...
ROW C1 : ... .. . ... ... ... : ... .. . ... ... ... : ... .. . ... : ... .. . ... : ... .. . ... ...
ROW C2 : ... .. . ... ... ... : ... .. . ... ... ... : ... .. . ... : ... .. . ... : ... .. . ... ...
ROW C3 : ... .. . ... ... ... : ... .. . ... ... ... : ... .. . ... : ... .. . ... : ... .. . ... ...
ROW C4 : ... .. . ... ... ... : ... .. . ... ... ... : ... .. . ... : ... .. . ... : ... .. . ... ...
ROW C5 : ... .. . ... ... ... : ... .. . ... ... ... : ... .. . ... : ... .. . ... : ... .. . ... ...
ROW C6 : ... .. . ... ... ... : ... .. . ... ... ... : ... .. . ... : ... .. . ... : ... .. . ... ...
ROW C7 : ... .. . ... ... ... : ... .. . ... ... ... : ... .. . ... : ... .. . ... : ... .. . ... ...
ROW C8 : ... .. . ... ... ... : ... .. . ... ... ... : ... .. . ... : ... .. . ... : ... .. . ... ...
ROW C9 : ... .. . ... ... ... : ... .. . ... ... ... : ... .. . ... : ... .. . ... : ... .. . ... ...
ROW CA : ... .. . ... ... ... : ... .. . ... ... ... : ... .. . ... : ... .. . ... : ... .. . ... ...
ROW CB : ... .. . ... ... ... : ... .. . ... ... ... : ... .. . ... : ... .. . ... : ... .. . ... ...
ROW CC : ... .. . ... ... ... : ... .. . ... ... ... : ... .. . ... : ... .. . ... : ... .. . ... ...
ROW CD : ... .. . ... ... ... : ... .. . ... ... ... : ... .. . ... : ... .. . ... : ... .. . ... ...
ROW CE : ... .. . ... ... ... : ... .. . ... ... ... : ... .. . ... : ... .. . ... : ... .. . ... ...
ROW CF : ... .. . ... ... ... : ... .. . ... ... ... : ... .. . ... : ... .. . ... : ... .. . ... ...
ROW D0 : ... .. . ... ... ... : ... .. . ... ... ... : ... .. . ... : ... .. . ... : ... .. . ... ...
ROW D1 : ... .. . ... ... ... : ... .. . ... ... ... : ... .. . ... : ... .. . ... : ... .. . ... ...
ROW D2 : ... .. . ... ... ... : ... .. . ... ... ... : ... .. . ... : ... .. . ... : ... .. . ... ...
ROW D3 : ... .. . ... ... ... : ... .. . ... ... ... : ... .. . ... : ... .. . ... : ... .. . ... ...
ROW D4 : ... .. . ... ... ... : ... .. . ... ... ... : ... .. . ... : ... .. . ... : ... .. . ... ...
ROW D5 : ... .. . ... ... ... : ... .. . ... ... ... : ... .. . ... : ... .. . ... : ... .. . ... ...
ROW D6 : ... .. . ... ... ... : ... .. . ... ... ... : ... .. . ... : ... .. . ... : ... .. . ... ...
ROW D7 : ... .. . ... ... ... : ... .. . ... ... ... : ... .. . ... : ... .. . ... : ... .. . ... ...
ROW D8 : ... .. . ... ... ... : ... .. . ... ... ... : ... .. . ... : ... .. . ... : ... .. . ... ...
ROW D9 : ... .. . ... ... ... : ... .. . ... ... ... : ... .. . ... : ... .. . ... : ... .. . ... ...
ROW DA : ... .. . ... ... ... : ... .. . ... ... ... : ... .. . ... : ... .. . ... : ... .. . ... ...
ROW DB : ... .. . ... ... ... : ... .. . ... ... ... : ... .. . ... : ... .. . ... : ... .. . ... ...
ROW DC : ... .. . ... ... ... : ... .. . ... ... ... : ... .. . ... : ... .. . ... : ... .. . ... ...
ROW DD : ... .. . ... ... ... : ... .. . ... ... ... : ... .. . ... : ... .. . ... : ... .. . ... ...
ROW DE : ... .. . ... ... ... : ... .. . ... ... ... : ... .. . ... : ... .. . ... : ... .. . ... ...
ROW DF : ... .. . ... ... ... : ... .. . ... ... ... : ... .. . ... : ... .. . ... : ... .. . ... ...
ROW E0 : ... .. . ... ... ... : ... .. . ... ... ... : ... .. . ... : ... .. . ... : ... .. . ... ...
ROW E1 : ... .. . ... ... ... : ... .. . ... ... ... : ... .. . ... : ... .. . ... : ... .. . ... ...
ROW E2 : ... .. . ... ... ... : ... .. . ... ... ... : ... .. . ... : ... .. . ... : ... .. . ... ...
ROW E3 : ... .. . ... ... ... : ... .. . ... ... ... : ... .. . ... : ... .. . ... : ... .. . ... ...
ROW E4 : ... .. . ... ... ... : ... .. . ... ... ... : ... .. . ... : ... .. . ... : ... .. . ... ...
ROW E5 : ... .. . ... ... ... : ... .. . ... ... ... : ... .. . ... : ... .. . ... : ... .. . ... ...
ROW E6 : ... .. . ... ... ... : ... .. . ... ... ... : ... .. . ... : ... .. . ... : ... .. . ... ...
ROW E7 : ... .. . ... ... ... : ... .. . ... ... ... : ... .. . ... : ... .. . ... : ... .. . ... ...
ROW E8 : ... .. . ... ... ... : ... .. . ... ... ... : ... .. . ... : ... .. . ... : ... .. . ... ...
ROW E9 : ... .. . ... ... ... : ... .. . ... ... ... : ... .. . ... : ... .. . ... : ... .. . ... ...
ROW EA : ... .. . ... ... ... : ... .. . ... ... ... : ... .. . ... : ... .. . ... : ... .. . ... ...
ROW EB : ... .. . ... ... ... : ... .. . ... ... ... : ... .. . ... : ... .. . ... : ... .. . ... ...
ROW EC : ... .. . ... ... ... : ... .. . ... ... ... : ... .. . ... : ... .. . ... : ... .. . ... ...
ROW ED : ... .. . ... ... ... : ... .. . ... ... ... : ... .. . ... : ... .. . ... : ... .. . ... ...
ROW EE : ... .. . ... ... ... : ... .. . ... ... ... : ... .. . ... : ... .. . ... : ... .. . ... ...
ROW EF : ... .. . ... ... ... : ... .. . ... ... ... : ... .. . ... : ... .. . ... : ... .. . ... ...
ROW F0 : ... .. . ... ... ... : ... .. . ... ... ... : ... .. . ... : ... .. . ... : ... .. . ... ...
ROW F1 : ... .. . ... ... ... : ... .. . ... ... ... : ... .. . ... : ... .. . ... : ... .. . ... ...
ROW F2 : ... .. . ... ... ... : ... .. . ... ... ... : ... .. . ... : ... .. . ... : ... .. . ... ...
ROW F3 : ... .. . ... ... ... : ... .. . ... ... ... : ... .. . ... : ... .. . ... : ... .. . ... ...
ROW F4 : ... .. . ... ... ... : ... .. . ... ... ... : ... .. . ... : ... .. . ... : ... .. . ... ...
ROW F5 : ... .. . ... ... ... : ... .. . ... ... ... : ... .. . ... : ... .. . ... : ... .. . ... ...
ROW F6 : ... .. . ... ... ... : ... .. . ... ... ... : ... .. . ... : ... .. . ... : ... .. . ... ...
ROW F7 : ... .. . ... ... ... : ... .. . ... ... ... : ... .. . ... : ... .. . ... : ... .. . ... ...
ROW F8 : ... .. . ... ... ... : ... .. . ... ... ... : ... .. . ... : ... .. . ... : ... .. . ... ...
ROW F9 : ... .. . ... ... ... : ... .. . ... ... ... : ... .. . ... : ... .. . ... : ... .. . ... ...
ROW FA : ... .. . ... ... ... : ... .. . ... ... ... : ... .. . ... : ... .. . ... : ... .. . ... ...
ROW FB : ... .. . ... ... ... : ... .. . ... ... ... : ... .. . ... : ... .. . ... : ... .. . ... ...
ROW FC : ... .. . ... ... ... : ... .. . ... ... ... : ... .. . ... : ... .. . ... : ... .. . ... ...
ROW FD : ... .. . ... ... ... : ... .. . ... ... ... : ... .. . ... : ... .. . ... : ... .. . ... ...
ROW FE : ... .. . ... ... ... : ... .. . ... ... ... : ... .. . ... : ... .. . ... : ... .. . ... ...
ROW FF : ... .. . ... ... ... : ... .. . ... ... ... : ... .. . ... : ... .. . ... : ... .. . ... ...

# End of export
