# FamiTracker text export 0.4.2

# Song information
TITLE           "Mega Man"
AUTHOR          "C. Manami, Yukichan's Papa"
COPYRIGHT       "1987 Capcom"

# Song comment
COMMENT ""

# Global settings
MACHINE         0
FRAMERATE       0
EXPANSION       0
VIBRATO         1
SPLIT           21

# Macros

# DPCM samples

# Instruments
INST2A03   0    -1  -1  -1  -1  -1 "blank"

# Tracks

TRACK 256   1 150 "New song"
COLUMNS : 3 3 1 1 2

ORDER 00 : 00 00 00 00 00
ORDER 01 : 01 01 01 01 01
ORDER 02 : 02 02 02 02 02
ORDER 03 : 03 03 03 03 03
ORDER 04 : 04 04 04 04 04
ORDER 05 : 05 05 05 05 05
ORDER 06 : 06 06 06 06 06
ORDER 07 : 07 07 07 07 07
ORDER 08 : 08 08 08 08 08
ORDER 09 : 09 09 09 09 09
ORDER 0A : 0A 0A 0A 0A 0A
ORDER 0B : 0B 0B 0B 0B 0B
ORDER 0C : 0C 0C 0C 0C 0C
ORDER 0D : 0D 0D 0D 0D 0D
ORDER 0E : 0E 0E 0E 0E 0E

PATTERN 00
ROW 00 : --- .. 0 P80 V00 ... : --- .. 0 P80 V00 ... : --- .. . P80 : F-# 00 0 V00 : === 00 . ... ...
ROW 01 : E-4 00 A ... V01 ... : G#3 00 7 P7F V01 ... : E-2 00 . P7C : A-# 00 7 ... : ... .. . ... ...
ROW 02 : ... .. . ... ... ... : ... .. . ... ... ... : ... .. . P79 : ... .. . ... : ... .. . ... ...
ROW 03 : ... .. . ... ... ... : ... .. . ... ... ... : ... .. . P7C : ... .. 4 ... : ... .. . ... ...
ROW 04 : ... .. . ... ... ... : ... .. . ... ... ... : ... .. . P7F : ... .. . ... : ... .. . ... ...
ROW 05 : ... .. . ... ... ... : ... .. . ... ... ... : ... .. . P82 : ... .. . ... : ... .. . ... ...
ROW 06 : ... .. . ... ... ... : ... .. . ... ... ... : ... .. . P85 : ... .. 1 ... : ... .. . ... ...
ROW 07 : ... .. . ... ... ... : ... .. . ... ... ... : ... .. . P82 : ... .. . ... : ... .. . ... ...
ROW 08 : ... .. . ... ... ... : ... .. . ... ... ... : ... .. . P7F : ... .. . ... : ... .. . ... ...
ROW 09 : ... .. . ... ... ... : ... .. . ... ... ... : ... .. . P7C : ... .. 0 ... : ... .. . ... ...
ROW 0A : ... .. . ... ... ... : ... .. . ... ... ... : ... .. . P79 : ... .. . ... : ... .. . ... ...
ROW 0B : ... .. . ... ... ... : ... .. . ... ... ... : ... .. . P7C : ... .. . ... : ... .. . ... ...
ROW 0C : --- .. 0 ... ... ... : --- .. 0 P80 ... ... : --- .. . P80 : ... .. . ... : ... .. . ... ...
ROW 0D : E-4 00 A ... ... ... : G#3 00 7 P7F ... ... : E-2 00 . P7C : ... .. 7 ... : ... .. . ... ...
ROW 0E : ... .. . ... ... ... : ... .. . ... ... ... : ... .. . P79 : ... .. . ... : ... .. . ... ...
ROW 0F : ... .. . ... ... ... : ... .. . ... ... ... : ... .. . P7C : ... .. 4 ... : ... .. . ... ...
ROW 10 : ... .. . ... ... ... : ... .. . ... ... ... : ... .. . P7F : ... .. . ... : ... .. . ... ...
ROW 11 : ... .. . ... ... ... : ... .. . ... ... ... : ... .. . P82 : ... .. . ... : ... .. . ... ...
ROW 12 : ... .. . ... ... ... : ... .. . ... ... ... : ... .. . P85 : ... .. 0 ... : ... .. . ... ...
ROW 13 : ... .. . ... ... ... : ... .. . ... ... ... : ... .. . P82 : ... .. 7 ... : ... .. . ... ...
ROW 14 : ... .. . ... ... ... : ... .. . ... ... ... : ... .. . P7F : ... .. . ... : ... .. . ... ...
ROW 15 : ... .. . ... ... ... : ... .. . ... ... ... : ... .. . P7C : ... .. 4 ... : ... .. . ... ...
ROW 16 : ... .. . ... ... ... : ... .. . ... ... ... : ... .. . P79 : ... .. . ... : ... .. . ... ...
ROW 17 : ... .. . ... ... ... : ... .. . ... ... ... : ... .. . P7C : ... .. . ... : ... .. . ... ...
ROW 18 : --- .. 0 ... ... ... : --- .. 0 P80 ... ... : --- .. . P80 : ... .. 0 ... : ... .. . ... ...
ROW 19 : E-4 00 A ... ... ... : G#3 00 7 P7F ... ... : B-2 00 . P7C : ... .. 7 ... : ... .. . ... ...
ROW 1A : ... .. . ... ... ... : ... .. . ... ... ... : ... .. . P79 : ... .. . ... : ... .. . ... ...
ROW 1B : ... .. . ... ... ... : ... .. . ... ... ... : ... .. . P7C : ... .. 4 ... : ... .. . ... ...
ROW 1C : ... .. . ... ... ... : ... .. . ... ... ... : ... .. . P7F : ... .. . ... : ... .. . ... ...
ROW 1D : ... .. . ... ... ... : ... .. . ... ... ... : ... .. . P82 : ... .. . ... : ... .. . ... ...
ROW 1E : ... .. . ... ... ... : ... .. . ... ... ... : --- .. . P80 : ... .. 1 ... : ... .. . ... ...
ROW 1F : ... .. . ... ... ... : ... .. . ... ... ... : B-2 00 . P7C : ... .. . ... : ... .. . ... ...
ROW 20 : ... .. . ... ... ... : ... .. . ... ... ... : ... .. . P79 : ... .. . ... : ... .. . ... ...
ROW 21 : ... .. . ... ... ... : ... .. . ... ... ... : ... .. . P7C : ... .. 0 ... : ... .. . ... ...
ROW 22 : ... .. . ... ... ... : ... .. . ... ... ... : ... .. . P7F : ... .. . ... : ... .. . ... ...
ROW 23 : ... .. . ... ... ... : ... .. . ... ... ... : ... .. . P82 : ... .. . ... : ... .. . ... ...
ROW 24 : --- .. 0 ... ... ... : --- .. 0 P80 ... ... : ... .. . P85 : ... .. . ... : ... .. . ... ...
ROW 25 : E-4 00 A ... ... ... : G#3 00 7 P7F ... ... : ... .. . P82 : ... .. 7 ... : ... .. . ... ...
ROW 26 : ... .. . ... ... ... : ... .. . ... ... ... : ... .. . P7F : ... .. . ... : ... .. . ... ...
ROW 27 : ... .. . ... ... ... : ... .. . ... ... ... : ... .. . P7C : ... .. 4 ... : ... .. . ... ...
ROW 28 : ... .. . ... ... ... : ... .. . ... ... ... : ... .. . P79 : ... .. . ... : ... .. . ... ...
ROW 29 : ... .. . ... ... ... : ... .. . ... ... ... : ... .. . P7C : ... .. . ... : ... .. . ... ...
ROW 2A : --- .. 0 ... ... ... : --- .. 0 P80 ... ... : --- .. . P80 : ... .. 0 ... : ... .. . ... ...
ROW 2B : E-4 00 A ... ... ... : G#3 00 7 P7F ... ... : B-2 00 . P7C : ... .. 7 ... : ... .. . ... ...
ROW 2C : ... .. . ... ... ... : ... .. . ... ... ... : ... .. . P79 : ... .. . ... : ... .. . ... ...
ROW 2D : ... .. . ... ... ... : ... .. . ... ... ... : ... .. . P7C : ... .. 4 ... : ... .. . ... ...
ROW 2E : ... .. . ... ... ... : ... .. . ... ... ... : ... .. . P7F : ... .. . ... : ... .. . ... ...
ROW 2F : ... .. . ... ... ... : ... .. . ... ... ... : ... .. . P82 : ... .. . ... : ... .. . ... ...
ROW 30 : --- .. 0 ... ... ... : --- .. 0 P80 ... ... : --- .. . P80 : ... .. 0 ... : ... .. . ... ...
ROW 31 : ... .. . ... ... ... : ... .. . ... ... ... : E-2 00 . P7C : ... .. . ... : ... .. . ... ...
ROW 32 : ... .. . ... ... ... : ... .. . ... ... ... : ... .. . P79 : ... .. . ... : ... .. . ... ...
ROW 33 : ... .. . ... ... ... : ... .. . ... ... ... : ... .. . P7C : ... .. . ... : ... .. . ... ...
ROW 34 : ... .. . ... ... ... : ... .. . ... ... ... : ... .. . P7F : ... .. . ... : ... .. . ... ...
ROW 35 : ... .. . ... ... ... : ... .. . ... ... ... : ... .. . P82 : ... .. . ... : ... .. . ... ...
ROW 36 : --- .. . P80 ... ... : --- .. . P80 ... ... : --- .. . P80 : ... .. . ... : === 00 . ... ...
ROW 37 : E-4 00 A ... ... ... : G#3 00 7 P7F ... ... : E-2 00 . P7C : ... .. 7 ... : ... .. . ... ...
ROW 38 : ... .. . ... ... ... : ... .. . ... ... ... : ... .. . P79 : ... .. . ... : ... .. . ... ...
ROW 39 : ... .. . ... ... ... : ... .. . ... ... ... : ... .. . P7C : ... .. 4 ... : ... .. . ... ...
ROW 3A : ... .. . ... ... ... : ... .. . ... ... ... : ... .. . P7F : ... .. . ... : ... .. . ... ...
ROW 3B : ... .. . ... ... ... : ... .. . ... ... ... : ... .. . P82 : ... .. . ... : ... .. . ... ...
ROW 3C : --- .. 0 ... ... ... : --- .. 0 P80 ... ... : ... .. . P85 : ... .. 0 ... : ... .. . ... ...
ROW 3D : E-4 00 A ... ... ... : G#3 00 7 P7F ... ... : ... .. . P82 : ... .. 7 ... : ... .. . ... ...
ROW 3E : ... .. . ... ... ... : ... .. . ... ... ... : ... .. . P7F : ... .. . ... : ... .. . ... ...
ROW 3F : ... .. . ... ... ... : ... .. . ... ... ... : ... .. . P7C : ... .. 4 ... : ... .. . ... ...
ROW 40 : ... .. . ... ... ... : ... .. . ... ... ... : ... .. . P79 : ... .. . ... : ... .. . ... ...
ROW 41 : ... .. . ... ... ... : ... .. . ... ... ... : ... .. . P7C : ... .. . ... : ... .. . ... ...
ROW 42 : --- .. 0 ... ... ... : --- .. 0 P80 ... ... : --- .. . P80 : ... .. 0 ... : ... .. . ... ...
ROW 43 : E-4 00 A ... ... ... : G#3 00 7 P7F ... ... : E-2 00 . P7C : ... .. 7 ... : ... .. . ... ...
ROW 44 : ... .. . ... ... ... : ... .. . ... ... ... : ... .. . P79 : ... .. . ... : ... .. . ... ...
ROW 45 : ... .. . ... ... ... : ... .. . ... ... ... : ... .. . P7C : ... .. 4 ... : ... .. . ... ...
ROW 46 : ... .. . ... ... ... : ... .. . ... ... ... : ... .. . P7F : ... .. . ... : ... .. . ... ...
ROW 47 : ... .. . ... ... ... : ... .. . ... ... ... : ... .. . P82 : ... .. . ... : ... .. . ... ...
ROW 48 : --- .. 0 ... ... ... : --- .. 0 P80 ... ... : --- .. . P80 : ... .. 0 ... : ... .. . ... ...
ROW 49 : E-4 00 A ... ... ... : G#3 00 7 P7F ... ... : E-3 00 . P7C : ... .. 7 ... : ... .. . ... ...
ROW 4A : ... .. . ... ... ... : ... .. . ... ... ... : ... .. . P79 : ... .. . ... : ... .. . ... ...
ROW 4B : ... .. . ... ... ... : ... .. . ... ... ... : ... .. . P7C : ... .. 4 ... : ... .. . ... ...
ROW 4C : ... .. . ... ... ... : ... .. . ... ... ... : ... .. . P7F : ... .. . ... : ... .. . ... ...
ROW 4D : ... .. . ... ... ... : ... .. . ... ... ... : ... .. . P82 : ... .. . ... : ... .. . ... ...
ROW 4E : ... .. . ... ... ... : ... .. . ... ... ... : ... .. . P85 : ... .. 1 ... : ... .. . ... ...
ROW 4F : ... .. . ... ... ... : ... .. . ... ... ... : ... .. . P82 : ... .. . ... : ... .. . ... ...
ROW 50 : ... .. . ... ... ... : ... .. . ... ... ... : ... .. . P7F : ... .. . ... : ... .. . ... ...
ROW 51 : ... .. . ... ... ... : ... .. . ... ... ... : ... .. . P7C : ... .. 0 ... : ... .. . ... ...
ROW 52 : ... .. . ... ... ... : ... .. . ... ... ... : ... .. . P79 : ... .. . ... : ... .. . ... ...
ROW 53 : ... .. . ... ... ... : ... .. . ... ... ... : ... .. . P7C : ... .. . ... : ... .. . ... ...
ROW 54 : --- .. 0 ... ... ... : --- .. 0 P80 ... ... : --- .. . P80 : ... .. . ... : ... .. . ... ...
ROW 55 : E-4 00 A ... ... ... : G#3 00 7 P7F ... ... : E-2 00 . P7C : ... .. 7 ... : ... .. . ... ...
ROW 56 : ... .. . ... ... ... : ... .. . ... ... ... : ... .. . P79 : ... .. . ... : ... .. . ... ...
ROW 57 : ... .. . ... ... ... : ... .. . ... ... ... : ... .. . P7C : ... .. 4 ... : ... .. . ... ...
ROW 58 : ... .. . ... ... ... : ... .. . ... ... ... : ... .. . P7F : ... .. . ... : ... .. . ... ...
ROW 59 : ... .. . ... ... ... : ... .. . ... ... ... : ... .. . P82 : ... .. . ... : ... .. . ... ...
ROW 5A : ... .. . ... ... ... : ... .. . ... ... ... : ... .. . P85 : ... .. 1 ... : ... .. . ... ...
ROW 5B : ... .. . ... ... ... : ... .. . ... ... ... : ... .. . P82 : ... .. . ... : ... .. . ... ...
ROW 5C : ... .. . ... ... ... : ... .. . ... ... ... : ... .. . P7F : ... .. . ... : ... .. . ... ...
ROW 5D : ... .. . ... ... ... : ... .. . ... ... ... : ... .. . P7C : ... .. 0 ... : ... .. . ... ...
ROW 5E : ... .. . ... ... ... : ... .. . ... ... ... : ... .. . P79 : ... .. . ... : ... .. . ... ...
ROW 5F : ... .. . ... ... ... : ... .. . ... ... ... : ... .. . P7C : ... .. . ... : ... .. . ... ...
ROW 60 : --- .. 0 ... ... ... : --- .. 0 P80 ... ... : --- .. . P80 : ... .. . ... : ... .. . ... ...
ROW 61 : E-4 00 A ... ... ... : G#3 00 7 P7F ... ... : E-2 00 . P7C : ... .. 7 ... : ... .. . ... ...
ROW 62 : ... .. . ... ... ... : ... .. . ... ... ... : ... .. . P79 : ... .. . ... : ... .. . ... ...
ROW 63 : ... .. . ... ... ... : ... .. . ... ... ... : ... .. . P7C : ... .. 4 ... : ... .. . ... ...
ROW 64 : ... .. . ... ... ... : ... .. . ... ... ... : ... .. . P7F : ... .. . ... : ... .. . ... ...
ROW 65 : ... .. . ... ... ... : ... .. . ... ... ... : ... .. . P82 : ... .. . ... : ... .. . ... ...
ROW 66 : ... .. . ... ... ... : ... .. . ... ... ... : ... .. . P85 : ... .. 1 ... : ... .. . ... ...
ROW 67 : ... .. . ... ... ... : ... .. . ... ... ... : ... .. . P82 : ... .. . ... : ... .. . ... ...
ROW 68 : ... .. . ... ... ... : ... .. . ... ... ... : ... .. . P7F : ... .. . ... : ... .. . ... ...
ROW 69 : ... .. . ... ... ... : ... .. . ... ... ... : ... .. . P7C : ... .. 0 ... : ... .. . ... ...
ROW 6A : ... .. . ... ... ... : ... .. . ... ... ... : ... .. . P79 : ... .. . ... : ... .. . ... ...
ROW 6B : ... .. . ... ... ... : ... .. . ... ... ... : ... .. . P7C : ... .. . ... : ... .. . ... ...
ROW 6C : --- .. 0 ... ... ... : --- .. 0 P80 ... ... : --- .. . P80 : ... .. . ... : ... .. . ... ...
ROW 6D : E-4 00 A ... ... ... : G#3 00 7 P7F ... ... : E-2 00 . P7C : ... .. 7 ... : ... .. . ... ...
ROW 6E : ... .. . ... ... ... : ... .. . ... ... ... : ... .. . P79 : ... .. . ... : ... .. . ... ...
ROW 6F : ... .. . ... ... ... : ... .. . ... ... ... : ... .. . P7C : ... .. 4 ... : ... .. . ... ...
ROW 70 : ... .. . ... ... ... : ... .. . ... ... ... : ... .. . P7F : ... .. . ... : ... .. . ... ...
ROW 71 : ... .. . ... ... ... : ... .. . ... ... ... : ... .. . P82 : ... .. . ... : ... .. . ... ...
ROW 72 : ... .. . ... ... ... : ... .. . ... ... ... : ... .. . P85 : ... .. 0 ... : ... .. . ... ...
ROW 73 : ... .. . ... ... ... : ... .. . ... ... ... : ... .. . P82 : ... .. 7 ... : ... .. . ... ...
ROW 74 : ... .. . ... ... ... : ... .. . ... ... ... : ... .. . P7F : ... .. . ... : ... .. . ... ...
ROW 75 : ... .. . ... ... ... : ... .. . ... ... ... : ... .. . P7C : ... .. 4 ... : ... .. . ... ...
ROW 76 : ... .. . ... ... ... : ... .. . ... ... ... : ... .. . P79 : ... .. . ... : ... .. . ... ...
ROW 77 : ... .. . ... ... ... : ... .. . ... ... ... : ... .. . P7C : ... .. . ... : ... .. . ... ...
ROW 78 : --- .. 0 ... ... ... : --- .. 0 P80 ... ... : --- .. . P80 : ... .. 0 ... : ... .. . ... ...
ROW 79 : E-4 00 A ... ... ... : G#3 00 7 P7F ... ... : B-2 00 . P7C : ... .. 7 ... : ... .. . ... ...
ROW 7A : ... .. . ... ... ... : ... .. . ... ... ... : ... .. . P79 : ... .. . ... : ... .. . ... ...
ROW 7B : ... .. . ... ... ... : ... .. . ... ... ... : ... .. . P7C : ... .. 4 ... : ... .. . ... ...
ROW 7C : ... .. . ... ... ... : ... .. . ... ... ... : ... .. . P7F : ... .. . ... : ... .. . ... ...
ROW 7D : ... .. . ... ... ... : ... .. . ... ... ... : ... .. . P82 : ... .. . ... : ... .. . ... ...
ROW 7E : --- .. 0 ... ... ... : --- .. 0 P80 ... ... : --- .. . P80 : ... .. 1 ... : ... .. . ... ...
ROW 7F : E-4 00 A ... ... ... : G#3 00 7 P7F ... ... : B-2 00 . P7C : ... .. . ... : ... .. . ... ...
ROW 80 : ... .. . ... ... ... : ... .. . ... ... ... : ... .. . P79 : ... .. . ... : ... .. . ... ...
ROW 81 : ... .. . ... ... ... : ... .. . ... ... ... : ... .. . P7C : ... .. 0 ... : ... .. . ... ...
ROW 82 : ... .. . ... ... ... : ... .. . ... ... ... : ... .. . P7F : ... .. . ... : ... .. . ... ...
ROW 83 : ... .. . ... ... ... : ... .. . ... ... ... : ... .. . P82 : ... .. . ... : ... .. . ... ...
ROW 84 : --- .. 0 ... ... ... : --- .. 0 P80 ... ... : ... .. . P85 : ... .. . ... : ... .. . ... ...
ROW 85 : E-4 00 A ... ... ... : G#3 00 7 P7F ... ... : ... .. . P82 : ... .. 7 ... : ... .. . ... ...
ROW 86 : ... .. . ... ... ... : ... .. . ... ... ... : ... .. . P7F : ... .. . ... : ... .. . ... ...
ROW 87 : ... .. . ... ... ... : ... .. . ... ... ... : ... .. . P7C : ... .. 4 ... : ... .. . ... ...
ROW 88 : ... .. . ... ... ... : ... .. . ... ... ... : ... .. . P79 : ... .. . ... : ... .. . ... ...
ROW 89 : ... .. . ... ... ... : ... .. . ... ... ... : ... .. . P7C : ... .. . ... : ... .. . ... ...
ROW 8A : --- .. 0 ... ... ... : --- .. 0 P80 ... ... : --- .. . P80 : ... .. 0 ... : ... .. . ... ...
ROW 8B : E-4 00 A ... ... ... : G#3 00 7 P7F ... ... : B-2 00 . P7C : ... .. 7 ... : ... .. . ... ...
ROW 8C : ... .. . ... ... ... : ... .. . ... ... ... : ... .. . P79 : ... .. . ... : ... .. . ... ...
ROW 8D : ... .. . ... ... ... : ... .. . ... ... ... : ... .. . P7C : ... .. 4 ... : ... .. . ... ...
ROW 8E : ... .. . ... ... ... : ... .. . ... ... ... : ... .. . P7F : ... .. . ... : ... .. . ... ...
ROW 8F : ... .. . ... ... ... : ... .. . ... ... ... : ... .. . P82 : ... .. . ... : ... .. . ... ...
ROW 90 : --- .. 0 ... ... ... : --- .. 0 P80 ... ... : --- .. . P80 : ... .. 0 ... : ... .. . ... ...
ROW 91 : E-4 00 A ... ... ... : G#3 00 7 P7F ... ... : E-2 00 . P7C : ... .. . ... : ... .. . ... ...
ROW 92 : ... .. . ... ... ... : ... .. . ... ... ... : ... .. . P79 : ... .. . ... : ... .. . ... ...
ROW 93 : ... .. . ... ... ... : ... .. . ... ... ... : ... .. . P7C : ... .. . ... : ... .. . ... ...
ROW 94 : ... .. . ... ... ... : ... .. . ... ... ... : ... .. . P7F : ... .. . ... : ... .. . ... ...
ROW 95 : ... .. . ... ... ... : ... .. . ... ... ... : ... .. . P82 : ... .. . ... : ... .. . ... ...
ROW 96 : --- .. 0 ... ... ... : --- .. 0 P80 ... ... : --- .. . P80 : ... .. . ... : === 00 . ... ...
ROW 97 : E-4 00 A ... ... ... : G#3 00 7 P7F ... ... : E-2 00 . P7C : ... .. 7 ... : ... .. . ... ...
ROW 98 : ... .. . ... ... ... : ... .. . ... ... ... : ... .. . P79 : ... .. . ... : ... .. . ... ...
ROW 99 : ... .. . ... ... ... : ... .. . ... ... ... : ... .. . P7C : ... .. 4 ... : ... .. . ... ...
ROW 9A : ... .. . ... ... ... : ... .. . ... ... ... : ... .. . P7F : ... .. . ... : ... .. . ... ...
ROW 9B : ... .. . ... ... ... : ... .. . ... ... ... : ... .. . P82 : ... .. . ... : ... .. . ... ...
ROW 9C : --- .. 0 ... ... ... : --- .. 0 P80 ... ... : ... .. . P85 : ... .. 0 ... : ... .. . ... ...
ROW 9D : E-4 00 A ... ... ... : G#3 00 7 P7F ... ... : ... .. . P82 : ... .. 7 ... : ... .. . ... ...
ROW 9E : ... .. . ... ... ... : ... .. . ... ... ... : ... .. . P7F : ... .. . ... : ... .. . ... ...
ROW 9F : ... .. . ... ... ... : ... .. . ... ... ... : ... .. . P7C : ... .. 4 ... : ... .. . ... ...
ROW A0 : ... .. . ... ... ... : ... .. . ... ... ... : ... .. . P79 : ... .. . ... : ... .. . ... ...
ROW A1 : ... .. . ... ... ... : ... .. . ... ... ... : ... .. . P7C : ... .. . ... : ... .. . ... ...
ROW A2 : --- .. 0 ... ... ... : --- .. 0 P80 ... ... : --- .. . P80 : ... .. 0 ... : ... .. . ... ...
ROW A3 : E-4 00 A ... ... ... : G#3 00 7 P7F ... ... : E-2 00 . P7C : ... .. 7 ... : ... .. . ... ...
ROW A4 : ... .. . ... ... ... : ... .. . ... ... ... : ... .. . P79 : ... .. . ... : ... .. . ... ...
ROW A5 : ... .. . ... ... ... : ... .. . ... ... ... : ... .. . P7C : ... .. 4 ... : ... .. . ... ...
ROW A6 : ... .. . ... ... ... : ... .. . ... ... ... : ... .. . P7F : ... .. . ... : ... .. . ... ...
ROW A7 : ... .. . ... ... ... : ... .. . ... ... ... : ... .. . P82 : ... .. . ... : ... .. . ... ...
ROW A8 : --- .. 0 ... ... ... : --- .. 0 P80 ... ... : --- .. . P80 : ... .. 0 ... : ... .. . ... ...
ROW A9 : F#4 00 A P7F ... ... : A-3 00 7 P7F ... ... : E-3 00 . P7C : ... .. 7 ... : ... .. . ... ...
ROW AA : ... .. . ... ... ... : ... .. . ... ... ... : ... .. . P79 : ... .. . ... : ... .. . ... ...
ROW AB : ... .. . ... ... ... : ... .. . ... ... ... : ... .. . P7C : ... .. 4 ... : ... .. . ... ...
ROW AC : ... .. . ... ... ... : ... .. . ... ... ... : ... .. . P7F : ... .. . ... : ... .. . ... ...
ROW AD : ... .. . ... ... ... : ... .. . ... ... ... : ... .. . P82 : ... .. . ... : ... .. . ... ...
ROW AE : ... .. . ... ... ... : ... .. . ... ... ... : ... .. . P85 : ... .. 0 ... : ... .. . ... ...
ROW AF : ... .. . ... ... ... : ... .. . ... ... ... : ... .. . P82 : ... .. 7 ... : ... .. . ... ...
ROW B0 : ... .. . ... ... ... : ... .. . ... ... ... : ... .. . P7F : ... .. . ... : ... .. . ... ...
ROW B1 : ... .. . ... ... ... : ... .. . ... ... ... : ... .. . P7C : ... .. 4 ... : ... .. . ... ...
ROW B2 : ... .. . ... ... ... : ... .. . ... ... ... : ... .. . P79 : ... .. . ... : ... .. . ... ...
ROW B3 : ... .. . ... ... ... : ... .. . ... ... ... : ... .. . P7C : ... .. . ... : ... .. . ... ...
ROW B4 : --- .. 0 P80 ... ... : --- .. 0 P80 ... ... : --- .. . P80 : ... .. 0 ... : ... .. . ... ...
ROW B5 : G#4 00 A ... ... ... : B-3 00 7 P7F ... ... : E-2 00 . P7C : ... .. 7 ... : ... .. . ... ...
ROW B6 : ... .. . ... ... ... : ... .. . ... ... ... : ... .. . P79 : ... .. . ... : ... .. . ... ...
ROW B7 : ... .. . ... ... ... : ... .. . ... ... ... : ... .. . P7C : ... .. 4 ... : ... .. . ... ...
ROW B8 : ... .. . ... ... ... : ... .. . ... ... ... : ... .. . P7F : ... .. . ... : ... .. . ... ...
ROW B9 : ... .. . ... ... ... : ... .. . ... ... ... : ... .. . P82 : ... .. . ... : ... .. . ... ...
ROW BA : ... .. . ... ... ... : ... .. . ... ... ... : ... .. . P85 : ... .. 0 ... : ... .. . ... ...
ROW BB : ... .. . ... ... ... : ... .. . ... ... ... : ... .. . P82 : ... .. 7 ... : ... .. . ... ...
ROW BC : ... .. . ... ... ... : ... .. . ... ... ... : ... .. . P7F : ... .. . ... : ... .. . ... ...
ROW BD : ... .. . ... ... ... : ... .. . ... ... ... : ... .. . P7C : ... .. 4 ... : ... .. . ... ...
ROW BE : ... .. . ... ... ... : ... .. . ... ... ... : ... .. . P79 : ... .. . ... : ... .. . ... ...
ROW BF : ... .. . ... ... ... : ... .. . ... ... ... : ... .. . P7C : ... .. . ... : ... .. . ... ...
ROW C0 : --- .. 0 ... ... ... : --- .. 0 P80 ... ... : --- .. . P80 : ... .. 0 ... : ... .. . ... ...
ROW C1 : A-4 00 9 P7F ... ... : A-3 00 6 P7F ... ... : A-2 00 . P7C : ... .. 7 ... : ... .. . ... ...
ROW C2 : ... .. . ... ... ... : ... .. . ... ... ... : ... .. . P79 : ... .. . ... : ... .. . ... ...
ROW C3 : --- .. 0 P80 ... ... : ... .. . ... ... ... : ... .. . P7C : ... .. 4 ... : ... .. . ... ...
ROW C4 : A-5 00 9 ... ... ... : ... .. . ... ... ... : ... .. . P7F : ... .. . ... : ... .. . ... ...
ROW C5 : ... .. . ... ... ... : ... .. . ... ... ... : ... .. . P82 : ... .. . ... : ... .. . ... ...
ROW C6 : --- .. 0 ... ... ... : --- .. 0 P80 ... ... : ... .. . P85 : ... .. 1 ... : ... .. . ... ...
ROW C7 : ... .. . ... ... ... : A-3 00 6 P7F ... ... : ... .. . P82 : ... .. . ... : ... .. . ... ...
ROW C8 : ... .. . ... ... ... : ... .. . ... ... ... : ... .. . P7F : ... .. . ... : ... .. . ... ...
ROW C9 : --- .. . P80 ... ... : ... .. . ... ... ... : ... .. . P7C : ... .. 0 ... : ... .. . ... ...
ROW CA : A-5 00 9 ... ... ... : ... .. . ... ... ... : ... .. . P79 : ... .. . ... : ... .. . ... ...
ROW CB : ... .. . ... ... ... : ... .. . ... ... ... : ... .. . P7C : ... .. . ... : ... .. . ... ...
ROW CC : --- .. 0 ... ... ... : --- .. 0 P80 ... ... : --- .. . P80 : ... .. . ... : ... .. . ... ...
ROW CD : ... .. . ... ... ... : E-3 00 6 P7F ... ... : A-2 00 . P7C : ... .. 7 ... : ... .. . ... ...
ROW CE : ... .. . ... ... ... : ... .. . ... ... ... : ... .. . P79 : ... .. . ... : ... .. . ... ...
ROW CF : ... .. . ... ... ... : ... .. . ... ... ... : ... .. . P7C : ... .. 4 ... : ... .. . ... ...
ROW D0 : ... .. . ... ... ... : ... .. . ... ... ... : ... .. . P7F : ... .. . ... : ... .. . ... ...
ROW D1 : ... .. . ... ... ... : ... .. . ... ... ... : ... .. . P82 : ... .. . ... : ... .. . ... ...
ROW D2 : ... .. . ... ... ... : --- .. 0 P80 ... ... : ... .. . P85 : ... .. 0 ... : ... .. . ... ...
ROW D3 : ... .. . ... ... ... : G-3 00 6 P7F ... ... : ... .. . P82 : ... .. 7 ... : ... .. . ... ...
ROW D4 : ... .. . ... ... ... : ... .. . ... ... ... : ... .. . P7F : ... .. . ... : ... .. . ... ...
ROW D5 : ... .. . ... ... ... : ... .. . ... ... ... : ... .. . P7C : ... .. 4 ... : ... .. . ... ...
ROW D6 : ... .. . ... ... ... : ... .. . ... ... ... : ... .. . P79 : ... .. . ... : ... .. . ... ...
ROW D7 : ... .. . ... ... ... : ... .. . ... ... ... : ... .. . P7C : ... .. . ... : ... .. . ... ...
ROW D8 : ... .. . ... ... ... : --- .. 0 P80 ... ... : --- .. . P80 : ... .. 0 ... : ... .. . ... ...
ROW D9 : ... .. . ... ... ... : ... .. . ... ... ... : E-3 00 . P7C : ... .. 7 ... : ... .. . ... ...
ROW DA : ... .. . ... ... ... : ... .. . ... ... ... : ... .. . P79 : ... .. . ... : ... .. . ... ...
ROW DB : ... .. . ... ... ... : ... .. . ... ... ... : ... .. . P7C : ... .. 4 ... : ... .. . ... ...
ROW DC : ... .. . ... ... ... : ... .. . ... ... ... : ... .. . P7F : ... .. . ... : ... .. . ... ...
ROW DD : ... .. . ... ... ... : ... .. . ... ... ... : ... .. . P82 : ... .. . ... : ... .. . ... ...
ROW DE : ... .. . ... ... ... : --- .. . P80 ... ... : --- .. . P80 : ... .. 1 ... : ... .. . ... ...
ROW DF : ... .. . ... ... ... : A-3 00 6 P7F ... ... : E-3 00 . P7C : ... .. . ... : ... .. . ... ...
ROW E0 : ... .. . ... ... ... : ... .. . ... ... ... : ... .. . P79 : ... .. . ... : ... .. . ... ...
ROW E1 : ... .. . ... ... ... : ... .. . ... ... ... : ... .. . P7C : ... .. 0 ... : ... .. . ... ...
ROW E2 : ... .. . ... ... ... : ... .. . ... ... ... : ... .. . P7F : ... .. . ... : ... .. . ... ...
ROW E3 : ... .. . ... ... ... : ... .. . ... ... ... : ... .. . P82 : ... .. . ... : ... .. . ... ...
ROW E4 : --- .. . P80 ... ... : --- .. 0 P80 ... ... : ... .. . P85 : ... .. . ... : ... .. . ... ...
ROW E5 : ... .. . ... ... ... : E-3 00 6 P7F ... ... : ... .. . P82 : ... .. 7 ... : ... .. . ... ...
ROW E6 : ... .. . ... ... ... : ... .. . ... ... ... : ... .. . P7F : ... .. . ... : ... .. . ... ...
ROW E7 : ... .. . ... ... ... : ... .. . ... ... ... : ... .. . P7C : ... .. 4 ... : ... .. . ... ...
ROW E8 : ... .. . ... ... ... : ... .. . ... ... ... : ... .. . P79 : ... .. . ... : ... .. . ... ...
ROW E9 : ... .. . ... ... ... : ... .. . ... ... ... : ... .. . P7C : ... .. . ... : ... .. . ... ...
ROW EA : ... .. . ... ... ... : --- .. 0 P80 ... ... : --- .. . P80 : ... .. 0 ... : ... .. . ... ...
ROW EB : ... .. . ... ... ... : G-3 00 6 P7F ... ... : E-3 00 . P7C : ... .. 7 ... : ... .. . ... ...
ROW EC : ... .. . ... ... ... : ... .. . ... ... ... : ... .. . P79 : ... .. . ... : ... .. . ... ...
ROW ED : ... .. . ... ... ... : ... .. . ... ... ... : ... .. . P7C : ... .. 4 ... : ... .. . ... ...
ROW EE : ... .. . ... ... ... : ... .. . ... ... ... : ... .. . P7F : ... .. . ... : ... .. . ... ...
ROW EF : ... .. . ... ... ... : ... .. . ... ... ... : ... .. . P82 : ... .. . ... : ... .. . ... ...
ROW F0 : --- .. . P80 ... ... : --- .. 0 P80 ... ... : --- .. . P80 : ... .. 0 ... : ... .. . ... ...
ROW F1 : B-3 00 A P7F ... ... : ... .. . ... ... ... : A-2 00 . P7C : ... .. . ... : ... .. . ... ...
ROW F2 : ... .. . ... ... ... : ... .. . ... ... ... : ... .. . P79 : ... .. . ... : ... .. . ... ...
ROW F3 : ... .. . ... ... ... : ... .. . ... ... ... : ... .. . P7C : ... .. . ... : ... .. . ... ...
ROW F4 : ... .. . ... ... ... : ... .. . ... ... ... : ... .. . P7F : ... .. . ... : ... .. . ... ...
ROW F5 : ... .. . ... ... ... : ... .. . ... ... ... : ... .. . P82 : ... .. . ... : ... .. . ... ...
ROW F6 : --- .. 0 P80 ... ... : --- .. . P80 ... ... : --- .. . P80 : ... .. . ... : === 00 . ... ...
ROW F7 : C-4 00 A ... ... ... : A-3 00 6 P7F ... ... : A-2 00 . P7C : ... .. 7 ... : ... .. . ... ...
ROW F8 : ... .. . ... ... ... : ... .. . ... ... ... : ... .. . P79 : ... .. . ... : ... .. . ... ...
ROW F9 : ... .. . ... ... ... : ... .. . ... ... ... : ... .. . P7C : ... .. 4 ... : ... .. . ... ...
ROW FA : ... .. . ... ... ... : ... .. . ... ... ... : ... .. . P7F : ... .. . ... : ... .. . ... ...
ROW FB : ... .. . ... ... ... : ... .. . ... ... ... : ... .. . P82 : ... .. . ... : ... .. . ... ...
ROW FC : --- .. 0 ... ... ... : --- .. 0 P80 ... ... : ... .. . P85 : ... .. 0 ... : ... .. . ... ...
ROW FD : ... .. . ... ... ... : E-3 00 6 P7F ... ... : ... .. . P82 : ... .. 7 ... : ... .. . ... ...
ROW FE : ... .. . ... ... ... : ... .. . ... ... ... : ... .. . P7F : ... .. . ... : ... .. . ... ...
ROW FF : ... .. . ... ... ... : ... .. . ... ... ... : ... .. . P7C : ... .. 4 ... : ... .. . ... ...

PATTERN 01
ROW 00 : ... .. . ... ... ... : ... .. . ... ... ... : ... .. . P79 : ... .. . ... : ... .. . ... ...
ROW 01 : ... .. . ... ... ... : ... .. . ... ... ... : ... .. . P7C : ... .. . ... : ... .. . ... ...
ROW 02 : --- .. . P80 ... ... : --- .. 0 P80 ... ... : --- .. . P80 : ... .. 0 ... : ... .. . ... ...
ROW 03 : D-4 00 A P7F ... ... : G-3 00 6 P7F ... ... : A-2 00 . P7C : ... .. 7 ... : ... .. . ... ...
ROW 04 : ... .. . ... ... ... : ... .. . ... ... ... : ... .. . P79 : ... .. . ... : ... .. . ... ...
ROW 05 : ... .. . ... ... ... : ... .. . ... ... ... : ... .. . P7C : ... .. 4 ... : ... .. . ... ...
ROW 06 : ... .. . ... ... ... : ... .. . ... ... ... : ... .. . P7F : ... .. . ... : ... .. . ... ...
ROW 07 : ... .. . ... ... ... : ... .. . ... ... ... : ... .. . P82 : ... .. . ... : ... .. . ... ...
ROW 08 : --- .. 0 P80 ... ... : --- .. 0 P80 ... ... : --- .. . P80 : ... .. 0 ... : ... .. . ... ...
ROW 09 : ... .. . ... ... ... : A-3 00 6 P7F ... ... : E-3 00 . P7C : ... .. 7 ... : ... .. . ... ...
ROW 0A : ... .. . ... ... ... : ... .. . ... ... ... : ... .. . P79 : ... .. . ... : ... .. . ... ...
ROW 0B : ... .. . ... ... ... : ... .. . ... ... ... : ... .. . P7C : ... .. 4 ... : ... .. . ... ...
ROW 0C : ... .. . ... ... ... : ... .. . ... ... ... : ... .. . P7F : ... .. . ... : ... .. . ... ...
ROW 0D : ... .. . ... ... ... : ... .. . ... ... ... : ... .. . P82 : ... .. . ... : ... .. . ... ...
ROW 0E : --- .. . P80 ... ... : --- .. 0 P80 ... ... : ... .. . P85 : ... .. 1 ... : ... .. . ... ...
ROW 0F : C-4 00 A ... ... ... : A-3 00 6 P7F ... ... : ... .. . P82 : ... .. . ... : ... .. . ... ...
ROW 10 : ... .. . ... ... ... : ... .. . ... ... ... : ... .. . P7F : ... .. . ... : ... .. . ... ...
ROW 11 : ... .. . ... ... ... : ... .. . ... ... ... : ... .. . P7C : ... .. 0 ... : ... .. . ... ...
ROW 12 : ... .. . ... ... ... : ... .. . ... ... ... : ... .. . P79 : ... .. . ... : ... .. . ... ...
ROW 13 : ... .. . ... ... ... : ... .. . ... ... ... : ... .. . P7C : ... .. . ... : ... .. . ... ...
ROW 14 : --- .. 0 ... ... ... : --- .. 0 P80 ... ... : --- .. . P80 : ... .. . ... : ... .. . ... ...
ROW 15 : ... .. . ... ... ... : ... .. . ... ... ... : E-2 00 . P7C : ... .. 7 ... : ... .. . ... ...
ROW 16 : ... .. . ... ... ... : ... .. . ... ... ... : ... .. . P79 : ... .. . ... : ... .. . ... ...
ROW 17 : ... .. . ... ... ... : ... .. . ... ... ... : ... .. . P7C : ... .. 4 ... : ... .. . ... ...
ROW 18 : ... .. . ... ... ... : ... .. . ... ... ... : ... .. . P7F : ... .. . ... : ... .. . ... ...
ROW 19 : ... .. . ... ... ... : ... .. . ... ... ... : ... .. . P82 : ... .. . ... : ... .. . ... ...
ROW 1A : --- .. . P80 ... ... : --- .. . P80 ... ... : ... .. . P85 : ... .. 1 ... : ... .. . ... ...
ROW 1B : B-3 00 A P7F ... ... : A-3 00 6 P7F ... ... : ... .. . P82 : ... .. . ... : ... .. . ... ...
ROW 1C : ... .. . ... ... ... : ... .. . ... ... ... : ... .. . P7F : ... .. . ... : ... .. . ... ...
ROW 1D : ... .. . ... ... ... : ... .. . ... ... ... : ... .. . P7C : ... .. 0 ... : ... .. . ... ...
ROW 1E : ... .. . ... ... ... : ... .. . ... ... ... : ... .. . P79 : ... .. . ... : ... .. . ... ...
ROW 1F : ... .. . ... ... ... : ... .. . ... ... ... : ... .. . P7C : ... .. . ... : ... .. . ... ...
ROW 20 : --- .. 0 P80 ... ... : --- .. 0 P80 ... ... : --- .. . P80 : ... .. . ... : ... .. . ... ...
ROW 21 : ... .. . ... ... ... : A-3 00 6 P7F ... ... : A-2 00 . P7C : ... .. 7 ... : ... .. . ... ...
ROW 22 : ... .. . ... ... ... : ... .. . ... ... ... : ... .. . P79 : ... .. . ... : ... .. . ... ...
ROW 23 : ... .. . ... ... ... : ... .. . ... ... ... : ... .. . P7C : ... .. 4 ... : ... .. . ... ...
ROW 24 : ... .. . ... ... ... : ... .. . ... ... ... : ... .. . P7F : ... .. . ... : ... .. . ... ...
ROW 25 : ... .. . ... ... ... : ... .. . ... ... ... : ... .. . P82 : ... .. . ... : ... .. . ... ...
ROW 26 : --- .. . P80 ... ... : --- .. 0 P80 ... ... : ... .. . P85 : ... .. 1 ... : ... .. . ... ...
ROW 27 : C-4 00 A ... ... ... : A-3 00 6 P7F ... ... : ... .. . P82 : ... .. . ... : ... .. . ... ...
ROW 28 : ... .. . ... ... ... : ... .. . ... ... ... : ... .. . P7F : ... .. . ... : ... .. . ... ...
ROW 29 : ... .. . ... ... ... : ... .. . ... ... ... : ... .. . P7C : ... .. 0 ... : ... .. . ... ...
ROW 2A : ... .. . ... ... ... : ... .. . ... ... ... : ... .. . P79 : ... .. . ... : ... .. . ... ...
ROW 2B : ... .. . ... ... ... : ... .. . ... ... ... : ... .. . P7C : ... .. . ... : ... .. . ... ...
ROW 2C : --- .. 0 ... ... ... : --- .. 0 P80 ... ... : --- .. . P80 : ... .. . ... : ... .. . ... ...
ROW 2D : E-3 00 A P7F ... ... : E-3 00 6 P7F ... ... : A-2 00 . P7C : ... .. 7 ... : ... .. . ... ...
ROW 2E : ... .. . ... ... ... : ... .. . ... ... ... : ... .. . P79 : ... .. . ... : ... .. . ... ...
ROW 2F : ... .. . ... ... ... : ... .. . ... ... ... : ... .. . P7C : ... .. 4 ... : ... .. . ... ...
ROW 30 : ... .. . ... ... ... : ... .. . ... ... ... : ... .. . P7F : ... .. . ... : ... .. . ... ...
ROW 31 : ... .. . ... ... ... : ... .. . ... ... ... : ... .. . P82 : ... .. . ... : ... .. . ... ...
ROW 32 : ... .. . ... ... ... : --- .. 0 P80 ... ... : ... .. . P85 : ... .. 0 ... : ... .. . ... ...
ROW 33 : ... .. . ... ... ... : G-3 00 6 P7F ... ... : ... .. . P82 : ... .. 7 ... : ... .. . ... ...
ROW 34 : ... .. . ... ... ... : ... .. . ... ... ... : ... .. . P7F : ... .. . ... : ... .. . ... ...
ROW 35 : ... .. . ... ... ... : ... .. . ... ... ... : ... .. . P7C : ... .. 4 ... : ... .. . ... ...
ROW 36 : ... .. . ... ... ... : ... .. . ... ... ... : ... .. . P79 : ... .. . ... : ... .. . ... ...
ROW 37 : ... .. . ... ... ... : ... .. . ... ... ... : ... .. . P7C : ... .. . ... : ... .. . ... ...
ROW 38 : ... .. . ... ... ... : --- .. 0 P80 ... ... : --- .. . P80 : ... .. 0 ... : ... .. . ... ...
ROW 39 : E-3 00 A P7C ... ... : ... .. . ... ... ... : E-3 00 . P7C : ... .. 7 ... : ... .. . ... ...
ROW 3A : ... .. . P79 ... ... : ... .. . ... ... ... : ... .. . P79 : ... .. . ... : ... .. . ... ...
ROW 3B : ... .. . P7C ... ... : ... .. . ... ... ... : ... .. . P7C : ... .. 4 ... : ... .. . ... ...
ROW 3C : ... .. . P7F ... ... : ... .. . ... ... ... : ... .. . P7F : ... .. . ... : ... .. . ... ...
ROW 3D : ... .. . P82 ... ... : ... .. . ... ... ... : ... .. . P82 : ... .. . ... : ... .. . ... ...
ROW 3E : ... .. . P85 ... ... : --- .. . P80 ... ... : --- .. . P80 : ... .. 1 ... : ... .. . ... ...
ROW 3F : ... .. . P82 ... ... : A-3 00 6 P7F ... ... : E-3 00 . P7C : ... .. . ... : ... .. . ... ...
ROW 40 : ... .. . P7F ... ... : ... .. . ... ... ... : ... .. . P79 : ... .. . ... : ... .. . ... ...
ROW 41 : ... .. . P7C ... ... : ... .. . ... ... ... : ... .. . P7C : ... .. 0 ... : ... .. . ... ...
ROW 42 : ... .. . P79 ... ... : ... .. . ... ... ... : ... .. . P7F : ... .. . ... : ... .. . ... ...
ROW 43 : ... .. . P7C ... ... : ... .. . ... ... ... : ... .. . P82 : ... .. . ... : ... .. . ... ...
ROW 44 : ... .. . P7F ... ... : --- .. 0 P80 ... ... : ... .. . P85 : ... .. . ... : ... .. . ... ...
ROW 45 : ... .. . P82 ... ... : E-3 00 6 P7F ... ... : ... .. . P82 : ... .. 7 ... : ... .. . ... ...
ROW 46 : ... .. . P85 ... ... : ... .. . ... ... ... : ... .. . P7F : ... .. . ... : ... .. . ... ...
ROW 47 : ... .. . P82 ... ... : ... .. . ... ... ... : ... .. . P7C : ... .. 4 ... : ... .. . ... ...
ROW 48 : ... .. . P7F ... ... : ... .. . ... ... ... : ... .. . P79 : ... .. . ... : ... .. . ... ...
ROW 49 : ... .. . P7C ... ... : ... .. . ... ... ... : ... .. . P7C : ... .. . ... : ... .. . ... ...
ROW 4A : ... .. . P79 ... ... : --- .. 0 P80 ... ... : --- .. . P80 : ... .. 0 ... : ... .. . ... ...
ROW 4B : ... .. . P7C ... ... : G-3 00 6 P7F ... ... : E-3 00 . P7C : ... .. 7 ... : ... .. . ... ...
ROW 4C : ... .. . P7F ... ... : ... .. . ... ... ... : ... .. . P79 : ... .. . ... : ... .. . ... ...
ROW 4D : ... .. . P82 ... ... : ... .. . ... ... ... : ... .. . P7C : ... .. 4 ... : ... .. . ... ...
ROW 4E : ... .. . P85 ... ... : ... .. . ... ... ... : ... .. . P7F : ... .. . ... : ... .. . ... ...
ROW 4F : ... .. . P82 ... ... : ... .. . ... ... ... : ... .. . P82 : ... .. . ... : ... .. . ... ...
ROW 50 : ... .. . P7F ... ... : --- .. 0 P80 ... ... : --- .. . P80 : ... .. 0 ... : ... .. . ... ...
ROW 51 : ... .. . P7C ... ... : ... .. . ... ... ... : A-2 00 . P7C : ... .. . ... : ... .. . ... ...
ROW 52 : ... .. . P79 ... ... : ... .. . ... ... ... : ... .. . P79 : ... .. . ... : ... .. . ... ...
ROW 53 : ... .. . P7C ... ... : ... .. . ... ... ... : ... .. . P7C : ... .. . ... : ... .. . ... ...
ROW 54 : ... .. . P7F ... ... : ... .. . ... ... ... : ... .. . P7F : ... .. . ... : ... .. . ... ...
ROW 55 : ... .. . P82 ... ... : ... .. . ... ... ... : ... .. . P82 : ... .. . ... : ... .. . ... ...
ROW 56 : ... .. . P85 ... ... : --- .. . P80 ... ... : --- .. . P80 : ... .. . ... : === 00 . ... ...
ROW 57 : ... .. . P82 ... ... : A-3 00 6 P7F ... ... : A-2 00 . P7C : ... .. 7 ... : ... .. . ... ...
ROW 58 : ... .. . P7F ... ... : ... .. . ... ... ... : ... .. . P79 : ... .. . ... : ... .. . ... ...
ROW 59 : ... .. . P7C ... ... : ... .. . ... ... ... : ... .. . P7C : ... .. 4 ... : ... .. . ... ...
ROW 5A : ... .. . P79 ... ... : ... .. . ... ... ... : ... .. . P7F : ... .. . ... : ... .. . ... ...
ROW 5B : ... .. . P7C ... ... : ... .. . ... ... ... : ... .. . P82 : ... .. . ... : ... .. . ... ...
ROW 5C : ... .. . P7F ... ... : --- .. 0 P80 ... ... : ... .. . P85 : ... .. 0 ... : ... .. . ... ...
ROW 5D : ... .. . P82 ... ... : E-3 00 6 P7F ... ... : ... .. . P82 : ... .. 7 ... : ... .. . ... ...
ROW 5E : ... .. . P85 ... ... : ... .. . ... ... ... : ... .. . P7F : ... .. . ... : ... .. . ... ...
ROW 5F : ... .. . P82 ... ... : ... .. . ... ... ... : ... .. . P7C : ... .. 4 ... : ... .. . ... ...
ROW 60 : ... .. . P7F ... ... : ... .. . ... ... ... : ... .. . P79 : ... .. . ... : ... .. . ... ...
ROW 61 : ... .. . P7C ... ... : ... .. . ... ... ... : ... .. . P7C : ... .. . ... : ... .. . ... ...
ROW 62 : ... .. . P79 ... ... : --- .. 0 P80 ... ... : --- .. . P80 : ... .. 0 ... : ... .. . ... ...
ROW 63 : ... .. . P7C ... ... : G-3 00 6 P7F ... ... : A-2 00 . P7C : ... .. 7 ... : ... .. . ... ...
ROW 64 : ... .. . P7F ... ... : ... .. . ... ... ... : ... .. . P79 : ... .. . ... : ... .. . ... ...
ROW 65 : ... .. . P82 ... ... : ... .. . ... ... ... : ... .. . P7C : ... .. 4 ... : ... .. . ... ...
ROW 66 : ... .. . P85 ... ... : ... .. . ... ... ... : ... .. . P7F : ... .. . ... : ... .. . ... ...
ROW 67 : ... .. . P82 ... ... : ... .. . ... ... ... : ... .. . P82 : ... .. . ... : ... .. . ... ...
ROW 68 : ... .. . P7F ... ... : --- .. 0 P80 ... ... : --- .. . P80 : ... .. 0 ... : ... .. . ... ...
ROW 69 : ... .. . P7C ... ... : A-3 00 6 P7F ... ... : E-3 00 . P7C : ... .. 7 ... : ... .. . ... ...
ROW 6A : ... .. . P79 ... ... : ... .. . ... ... ... : ... .. . P79 : ... .. . ... : ... .. . ... ...
ROW 6B : ... .. . P7C ... ... : ... .. . ... ... ... : ... .. . P7C : ... .. 4 ... : ... .. . ... ...
ROW 6C : ... .. . P7F ... ... : ... .. . ... ... ... : ... .. . P7F : ... .. . ... : ... .. . ... ...
ROW 6D : ... .. . P82 ... ... : ... .. . ... ... ... : ... .. . P82 : ... .. . ... : ... .. . ... ...
ROW 6E : ... .. . P85 ... ... : --- .. 0 P80 ... ... : ... .. . P85 : ... .. 0 ... : ... .. . ... ...
ROW 6F : ... .. . P82 ... ... : A-3 00 6 P7F ... ... : ... .. . P82 : ... .. 7 ... : ... .. . ... ...
ROW 70 : ... .. . P7F ... ... : ... .. . ... ... ... : ... .. . P7F : ... .. . ... : ... .. . ... ...
ROW 71 : ... .. . P7C ... ... : ... .. . ... ... ... : ... .. . P7C : ... .. 4 ... : ... .. . ... ...
ROW 72 : ... .. . P79 ... ... : ... .. . ... ... ... : ... .. . P79 : ... .. . ... : ... .. . ... ...
ROW 73 : ... .. . P7C ... ... : ... .. . ... ... ... : ... .. . P7C : ... .. . ... : ... .. . ... ...
ROW 74 : ... .. . P7F ... ... : --- .. 0 P80 ... ... : --- .. . P80 : ... .. 0 ... : ... .. . ... ...
ROW 75 : ... .. . P82 ... ... : ... .. . ... ... ... : E-2 00 . P7C : ... .. 7 ... : ... .. . ... ...
ROW 76 : ... .. . P85 ... ... : ... .. . ... ... ... : ... .. . P79 : ... .. . ... : ... .. . ... ...
ROW 77 : ... .. . P82 ... ... : ... .. . ... ... ... : ... .. . P7C : ... .. 4 ... : ... .. . ... ...
ROW 78 : ... .. . P7F ... ... : ... .. . ... ... ... : ... .. . P7F : ... .. . ... : ... .. . ... ...
ROW 79 : ... .. . P7C ... ... : ... .. . ... ... ... : ... .. . P82 : ... .. . ... : ... .. . ... ...
ROW 7A : ... .. . P79 ... ... : --- .. . P80 ... ... : ... .. . P85 : ... .. 0 ... : ... .. . ... ...
ROW 7B : ... .. 6 P7C ... ... : A-3 00 6 P7F ... ... : ... .. . P82 : ... .. 7 ... : ... .. . ... ...
ROW 7C : ... .. . P7F ... ... : ... .. . ... ... ... : ... .. . P7F : ... .. . ... : ... .. . ... ...
ROW 7D : ... .. . P82 ... ... : ... .. . ... ... ... : ... .. . P7C : ... .. 4 ... : ... .. . ... ...
ROW 7E : ... .. . P85 ... ... : ... .. . ... ... ... : ... .. . P79 : ... .. . ... : ... .. . ... ...
ROW 7F : ... .. . P82 ... ... : ... .. . ... ... ... : ... .. . P7C : ... .. . ... : ... .. . ... ...
ROW 80 : --- .. 0 P80 ... ... : --- .. 0 P80 ... ... : --- .. . P80 : ... .. 0 ... : ... .. . ... ...
ROW 81 : A-4 00 A P7F ... ... : A-3 00 6 P7F ... ... : A-2 00 . P7C : ... .. 7 ... : ... .. . ... ...
ROW 82 : ... .. . ... ... ... : ... .. . ... ... ... : ... .. . P79 : ... .. . ... : ... .. . ... ...
ROW 83 : --- .. 0 P80 ... ... : ... .. . ... ... ... : ... .. . P7C : ... .. 4 ... : ... .. . ... ...
ROW 84 : A-5 00 A ... ... ... : ... .. . ... ... ... : ... .. . P7F : ... .. . ... : ... .. . ... ...
ROW 85 : ... .. . ... ... ... : ... .. . ... ... ... : ... .. . P82 : ... .. . ... : ... .. . ... ...
ROW 86 : --- .. 0 ... ... ... : --- .. 0 P80 ... ... : ... .. . P85 : ... .. 1 ... : ... .. . ... ...
ROW 87 : ... .. . ... ... ... : A-3 00 6 P7F ... ... : ... .. . P82 : ... .. . ... : ... .. . ... ...
ROW 88 : ... .. . ... ... ... : ... .. . ... ... ... : ... .. . P7F : ... .. . ... : ... .. . ... ...
ROW 89 : --- .. . P80 ... ... : ... .. . ... ... ... : ... .. . P7C : ... .. 0 ... : ... .. . ... ...
ROW 8A : A-5 00 9 ... ... ... : ... .. . ... ... ... : ... .. . P79 : ... .. . ... : ... .. . ... ...
ROW 8B : ... .. . ... ... ... : ... .. . ... ... ... : ... .. . P7C : ... .. . ... : ... .. . ... ...
ROW 8C : --- .. 0 ... ... ... : --- .. 0 P80 ... ... : --- .. . P80 : ... .. . ... : ... .. . ... ...
ROW 8D : ... .. . ... ... ... : E-3 00 6 P7F ... ... : A-2 00 . P7C : ... .. 7 ... : ... .. . ... ...
ROW 8E : ... .. . ... ... ... : ... .. . ... ... ... : ... .. . P79 : ... .. . ... : ... .. . ... ...
ROW 8F : ... .. . ... ... ... : ... .. . ... ... ... : ... .. . P7C : ... .. 4 ... : ... .. . ... ...
ROW 90 : ... .. . ... ... ... : ... .. . ... ... ... : ... .. . P7F : ... .. . ... : ... .. . ... ...
ROW 91 : ... .. . ... ... ... : ... .. . ... ... ... : ... .. . P82 : ... .. . ... : ... .. . ... ...
ROW 92 : ... .. . ... ... ... : --- .. 0 P80 ... ... : ... .. . P85 : ... .. 0 ... : ... .. . ... ...
ROW 93 : ... .. . ... ... ... : G-3 00 6 P7F ... ... : ... .. . P82 : ... .. 7 ... : ... .. . ... ...
ROW 94 : ... .. . ... ... ... : ... .. . ... ... ... : ... .. . P7F : ... .. . ... : ... .. . ... ...
ROW 95 : ... .. . ... ... ... : ... .. . ... ... ... : ... .. . P7C : ... .. 4 ... : ... .. . ... ...
ROW 96 : ... .. . ... ... ... : ... .. . ... ... ... : ... .. . P79 : ... .. . ... : ... .. . ... ...
ROW 97 : ... .. . ... ... ... : ... .. . ... ... ... : ... .. . P7C : ... .. . ... : ... .. . ... ...
ROW 98 : ... .. . ... ... ... : --- .. 0 P80 ... ... : --- .. . P80 : ... .. 0 ... : ... .. . ... ...
ROW 99 : ... .. . ... ... ... : ... .. . ... ... ... : E-3 00 . P7C : ... .. 7 ... : ... .. . ... ...
ROW 9A : ... .. . ... ... ... : ... .. . ... ... ... : ... .. . P79 : ... .. . ... : ... .. . ... ...
ROW 9B : ... .. . ... ... ... : ... .. . ... ... ... : ... .. . P7C : ... .. 4 ... : ... .. . ... ...
ROW 9C : ... .. . ... ... ... : ... .. . ... ... ... : ... .. . P7F : ... .. . ... : ... .. . ... ...
ROW 9D : ... .. . ... ... ... : ... .. . ... ... ... : ... .. . P82 : ... .. . ... : ... .. . ... ...
ROW 9E : ... .. . ... ... ... : --- .. . P80 ... ... : --- .. . P80 : ... .. 1 ... : ... .. . ... ...
ROW 9F : ... .. . ... ... ... : A-3 00 6 P7F ... ... : E-3 00 . P7C : ... .. . ... : ... .. . ... ...
ROW A0 : ... .. . ... ... ... : ... .. . ... ... ... : ... .. . P79 : ... .. . ... : ... .. . ... ...
ROW A1 : ... .. . ... ... ... : ... .. . ... ... ... : ... .. . P7C : ... .. 0 ... : ... .. . ... ...
ROW A2 : ... .. . ... ... ... : ... .. . ... ... ... : ... .. . P7F : ... .. . ... : ... .. . ... ...
ROW A3 : ... .. . ... ... ... : ... .. . ... ... ... : ... .. . P82 : ... .. . ... : ... .. . ... ...
ROW A4 : --- .. . P80 ... ... : --- .. 0 P80 ... ... : ... .. . P85 : ... .. . ... : ... .. . ... ...
ROW A5 : ... .. . ... ... ... : E-3 00 6 P7F ... ... : ... .. . P82 : ... .. 7 ... : ... .. . ... ...
ROW A6 : ... .. . ... ... ... : ... .. . ... ... ... : ... .. . P7F : ... .. . ... : ... .. . ... ...
ROW A7 : ... .. . ... ... ... : ... .. . ... ... ... : ... .. . P7C : ... .. 4 ... : ... .. . ... ...
ROW A8 : ... .. . ... ... ... : ... .. . ... ... ... : ... .. . P79 : ... .. . ... : ... .. . ... ...
ROW A9 : ... .. . ... ... ... : ... .. . ... ... ... : ... .. . P7C : ... .. . ... : ... .. . ... ...
ROW AA : ... .. . ... ... ... : --- .. 0 P80 ... ... : --- .. . P80 : ... .. 0 ... : ... .. . ... ...
ROW AB : ... .. . ... ... ... : G-3 00 6 P7F ... ... : E-3 00 . P7C : ... .. 7 ... : ... .. . ... ...
ROW AC : ... .. . ... ... ... : ... .. . ... ... ... : ... .. . P79 : ... .. . ... : ... .. . ... ...
ROW AD : ... .. . ... ... ... : ... .. . ... ... ... : ... .. . P7C : ... .. 4 ... : ... .. . ... ...
ROW AE : ... .. . ... ... ... : ... .. . ... ... ... : ... .. . P7F : ... .. . ... : ... .. . ... ...
ROW AF : ... .. . ... ... ... : ... .. . ... ... ... : ... .. . P82 : ... .. . ... : ... .. . ... ...
ROW B0 : --- .. . P80 ... ... : --- .. 0 P80 ... ... : --- .. . P80 : ... .. 0 ... : ... .. . ... ...
ROW B1 : B-3 00 A P7F ... ... : ... .. . ... ... ... : A-2 00 . P7C : ... .. . ... : ... .. . ... ...
ROW B2 : ... .. . ... ... ... : ... .. . ... ... ... : ... .. . P79 : ... .. . ... : ... .. . ... ...
ROW B3 : ... .. . ... ... ... : ... .. . ... ... ... : ... .. . P7C : ... .. . ... : ... .. . ... ...
ROW B4 : ... .. . ... ... ... : ... .. . ... ... ... : ... .. . P7F : ... .. . ... : ... .. . ... ...
ROW B5 : ... .. . ... ... ... : ... .. . ... ... ... : ... .. . P82 : ... .. . ... : ... .. . ... ...
ROW B6 : --- .. 0 P80 ... ... : --- .. . P80 ... ... : --- .. . P80 : ... .. . ... : === 00 . ... ...
ROW B7 : C-4 00 A ... ... ... : A-3 00 6 P7F ... ... : A-2 00 . P7C : ... .. 7 ... : ... .. . ... ...
ROW B8 : ... .. . ... ... ... : ... .. . ... ... ... : ... .. . P79 : ... .. . ... : ... .. . ... ...
ROW B9 : ... .. . ... ... ... : ... .. . ... ... ... : ... .. . P7C : ... .. 4 ... : ... .. . ... ...
ROW BA : ... .. . ... ... ... : ... .. . ... ... ... : ... .. . P7F : ... .. . ... : ... .. . ... ...
ROW BB : ... .. . ... ... ... : ... .. . ... ... ... : ... .. . P82 : ... .. . ... : ... .. . ... ...
ROW BC : --- .. 0 ... ... ... : --- .. 0 P80 ... ... : ... .. . P85 : ... .. 0 ... : ... .. . ... ...
ROW BD : ... .. . ... ... ... : E-3 00 6 P7F ... ... : ... .. . P82 : ... .. 7 ... : ... .. . ... ...
ROW BE : ... .. . ... ... ... : ... .. . ... ... ... : ... .. . P7F : ... .. . ... : ... .. . ... ...
ROW BF : ... .. . ... ... ... : ... .. . ... ... ... : ... .. . P7C : ... .. 4 ... : ... .. . ... ...
ROW C0 : ... .. . ... ... ... : ... .. . ... ... ... : ... .. . P79 : ... .. . ... : ... .. . ... ...
ROW C1 : ... .. . ... ... ... : ... .. . ... ... ... : ... .. . P7C : ... .. . ... : ... .. . ... ...
ROW C2 : --- .. . P80 ... ... : --- .. 0 P80 ... ... : --- .. . P80 : ... .. 0 ... : ... .. . ... ...
ROW C3 : D-4 00 A P7F ... ... : G-3 00 6 P7F ... ... : A-2 00 . P7C : ... .. 7 ... : ... .. . ... ...
ROW C4 : ... .. . ... ... ... : ... .. . ... ... ... : ... .. . P79 : ... .. . ... : ... .. . ... ...
ROW C5 : ... .. . ... ... ... : ... .. . ... ... ... : ... .. . P7C : ... .. 4 ... : ... .. . ... ...
ROW C6 : ... .. . ... ... ... : ... .. . ... ... ... : ... .. . P7F : ... .. . ... : ... .. . ... ...
ROW C7 : ... .. . ... ... ... : ... .. . ... ... ... : ... .. . P82 : ... .. . ... : ... .. . ... ...
ROW C8 : --- .. 0 P80 ... ... : --- .. 0 P80 ... ... : --- .. . P80 : ... .. 0 ... : ... .. . ... ...
ROW C9 : ... .. . ... ... ... : A-3 00 6 P7F ... ... : E-3 00 . P7C : ... .. 7 ... : ... .. . ... ...
ROW CA : ... .. . ... ... ... : ... .. . ... ... ... : ... .. . P79 : ... .. . ... : ... .. . ... ...
ROW CB : ... .. . ... ... ... : ... .. . ... ... ... : ... .. . P7C : ... .. 4 ... : ... .. . ... ...
ROW CC : ... .. . ... ... ... : ... .. . ... ... ... : ... .. . P7F : ... .. . ... : ... .. . ... ...
ROW CD : ... .. . ... ... ... : ... .. . ... ... ... : ... .. . P82 : ... .. . ... : ... .. . ... ...
ROW CE : --- .. . P80 ... ... : --- .. 0 P80 ... ... : ... .. . P85 : ... .. 1 ... : ... .. . ... ...
ROW CF : C-4 00 A ... ... ... : A-3 00 6 P7F ... ... : ... .. . P82 : ... .. . ... : ... .. . ... ...
ROW D0 : ... .. . ... ... ... : ... .. . ... ... ... : ... .. . P7F : ... .. . ... : ... .. . ... ...
ROW D1 : ... .. . ... ... ... : ... .. . ... ... ... : ... .. . P7C : ... .. 0 ... : ... .. . ... ...
ROW D2 : ... .. . ... ... ... : ... .. . ... ... ... : ... .. . P79 : ... .. . ... : ... .. . ... ...
ROW D3 : ... .. . ... ... ... : ... .. . ... ... ... : ... .. . P7C : ... .. . ... : ... .. . ... ...
ROW D4 : --- .. 0 ... ... ... : --- .. 0 P80 ... ... : --- .. . P80 : ... .. . ... : ... .. . ... ...
ROW D5 : ... .. . ... ... ... : ... .. . ... ... ... : E-2 00 . P7C : ... .. 7 ... : ... .. . ... ...
ROW D6 : ... .. . ... ... ... : ... .. . ... ... ... : ... .. . P79 : ... .. . ... : ... .. . ... ...
ROW D7 : ... .. . ... ... ... : ... .. . ... ... ... : ... .. . P7C : ... .. 4 ... : ... .. . ... ...
ROW D8 : ... .. . ... ... ... : ... .. . ... ... ... : ... .. . P7F : ... .. . ... : ... .. . ... ...
ROW D9 : ... .. . ... ... ... : ... .. . ... ... ... : ... .. . P82 : ... .. . ... : ... .. . ... ...
ROW DA : --- .. . P80 ... ... : --- .. . P80 ... ... : ... .. . P85 : ... .. 1 ... : ... .. . ... ...
ROW DB : B-3 00 A P7F ... ... : A-3 00 6 P7F ... ... : ... .. . P82 : ... .. . ... : ... .. . ... ...
ROW DC : ... .. . ... ... ... : ... .. . ... ... ... : ... .. . P7F : ... .. . ... : ... .. . ... ...
ROW DD : ... .. . ... ... ... : ... .. . ... ... ... : ... .. . P7C : ... .. 0 ... : ... .. . ... ...
ROW DE : ... .. . ... ... ... : ... .. . ... ... ... : ... .. . P79 : ... .. . ... : ... .. . ... ...
ROW DF : ... .. . ... ... ... : ... .. . ... ... ... : ... .. . P7C : ... .. . ... : ... .. . ... ...
ROW E0 : --- .. 0 P80 ... ... : --- .. 0 P80 ... ... : --- .. . P80 : ... .. . ... : ... .. . ... ...
ROW E1 : ... .. . ... ... ... : A-3 00 6 P7F ... ... : A-2 00 . P7C : ... .. 7 ... : ... .. . ... ...
ROW E2 : ... .. . ... ... ... : ... .. . ... ... ... : ... .. . P79 : ... .. . ... : ... .. . ... ...
ROW E3 : ... .. . ... ... ... : ... .. . ... ... ... : ... .. . P7C : ... .. 4 ... : ... .. . ... ...
ROW E4 : ... .. . ... ... ... : ... .. . ... ... ... : ... .. . P7F : ... .. . ... : ... .. . ... ...
ROW E5 : ... .. . ... ... ... : ... .. . ... ... ... : ... .. . P82 : ... .. . ... : ... .. . ... ...
ROW E6 : --- .. . P80 ... ... : --- .. 0 P80 ... ... : ... .. . P85 : ... .. 1 ... : ... .. . ... ...
ROW E7 : D-4 00 A P7F ... ... : A-3 00 6 P7F ... ... : ... .. . P82 : ... .. . ... : ... .. . ... ...
ROW E8 : ... .. . ... ... ... : ... .. . ... ... ... : ... .. . P7F : ... .. . ... : ... .. . ... ...
ROW E9 : ... .. . ... ... ... : ... .. . ... ... ... : ... .. . P7C : ... .. 0 ... : ... .. . ... ...
ROW EA : ... .. . ... ... ... : ... .. . ... ... ... : ... .. . P79 : ... .. . ... : ... .. . ... ...
ROW EB : ... .. . ... ... ... : ... .. . ... ... ... : ... .. . P7C : ... .. . ... : ... .. . ... ...
ROW EC : --- .. 0 P80 ... ... : --- .. 0 P80 ... ... : --- .. . P80 : ... .. . ... : ... .. . ... ...
ROW ED : E-4 00 A ... ... ... : E-3 00 6 P7F ... ... : A-2 00 . P7C : ... .. 7 ... : ... .. . ... ...
ROW EE : ... .. . ... ... ... : ... .. . ... ... ... : ... .. . P79 : ... .. . ... : ... .. . ... ...
ROW EF : ... .. . ... ... ... : ... .. . ... ... ... : ... .. . P7C : ... .. 4 ... : ... .. . ... ...
ROW F0 : ... .. . ... ... ... : ... .. . ... ... ... : ... .. . P7F : ... .. . ... : ... .. . ... ...
ROW F1 : ... .. . ... ... ... : ... .. . ... ... ... : ... .. . P82 : ... .. . ... : ... .. . ... ...
ROW F2 : ... .. . ... ... ... : --- .. 0 P80 ... ... : ... .. . P85 : ... .. 0 ... : ... .. . ... ...
ROW F3 : ... .. . ... ... ... : G-3 00 6 P7F ... ... : ... .. . P82 : ... .. 7 ... : ... .. . ... ...
ROW F4 : ... .. . ... ... ... : ... .. . ... ... ... : ... .. . P7F : ... .. . ... : ... .. . ... ...
ROW F5 : ... .. . ... ... ... : ... .. . ... ... ... : ... .. . P7C : ... .. 4 ... : ... .. . ... ...
ROW F6 : ... .. . ... ... ... : ... .. . ... ... ... : ... .. . P79 : ... .. . ... : ... .. . ... ...
ROW F7 : ... .. . ... ... ... : ... .. . ... ... ... : ... .. . P7C : ... .. . ... : ... .. . ... ...
ROW F8 : ... .. . ... ... ... : --- .. 0 P80 ... ... : --- .. . P80 : ... .. 0 ... : ... .. . ... ...
ROW F9 : E-4 00 A P7D ... ... : ... .. . ... ... ... : E-3 00 . P7C : ... .. 7 ... : ... .. . ... ...
ROW FA : D#4 00 A P84 ... ... : ... .. . ... ... ... : ... .. . P79 : ... .. . ... : ... .. . ... ...
ROW FB : E-4 00 A P7D ... ... : ... .. . ... ... ... : ... .. . P7C : ... .. 4 ... : ... .. . ... ...
ROW FC : ... .. . P80 ... ... : ... .. . ... ... ... : ... .. . P7F : ... .. . ... : ... .. . ... ...
ROW FD : ... .. . P83 ... ... : ... .. . ... ... ... : ... .. . P82 : ... .. . ... : ... .. . ... ...
ROW FE : F-4 00 A P7C ... ... : --- .. . P80 ... ... : --- .. . P80 : ... .. 1 ... : ... .. . ... ...
ROW FF : E-4 00 A P83 ... ... : A-3 00 6 P7F ... ... : E-3 00 . P7C : ... .. . ... : ... .. . ... ...

PATTERN 02
ROW 00 : ... .. . P80 ... ... : ... .. . ... ... ... : ... .. . P79 : ... .. . ... : ... .. . ... ...
ROW 01 : ... .. . P7D ... ... : ... .. . ... ... ... : ... .. . P7C : ... .. 0 ... : ... .. . ... ...
ROW 02 : D#4 00 A P84 ... ... : ... .. . ... ... ... : ... .. . P7F : ... .. . ... : ... .. . ... ...
ROW 03 : E-4 00 A P7D ... ... : ... .. . ... ... ... : ... .. . P82 : ... .. . ... : ... .. . ... ...
ROW 04 : ... .. . P80 ... ... : --- .. 0 P80 ... ... : ... .. . P85 : ... .. . ... : ... .. . ... ...
ROW 05 : ... .. . P83 ... ... : E-3 00 6 P7F ... ... : ... .. . P82 : ... .. 7 ... : ... .. . ... ...
ROW 06 : F-4 00 A P7C ... ... : ... .. . ... ... ... : ... .. . P7F : ... .. . ... : ... .. . ... ...
ROW 07 : E-4 00 A P83 ... ... : ... .. . ... ... ... : ... .. . P7C : ... .. 4 ... : ... .. . ... ...
ROW 08 : ... .. . P80 ... ... : ... .. . ... ... ... : ... .. . P79 : ... .. . ... : ... .. . ... ...
ROW 09 : ... .. . P7D ... ... : ... .. . ... ... ... : ... .. . P7C : ... .. . ... : ... .. . ... ...
ROW 0A : D#4 00 A P84 ... ... : --- .. 0 P80 ... ... : --- .. . P80 : ... .. 0 ... : ... .. . ... ...
ROW 0B : E-4 00 A P7D ... ... : G-3 00 6 P7F ... ... : E-3 00 . P7C : ... .. 7 ... : ... .. . ... ...
ROW 0C : ... .. . P80 ... ... : ... .. . ... ... ... : ... .. . P79 : ... .. . ... : ... .. . ... ...
ROW 0D : ... .. . P83 ... ... : ... .. . ... ... ... : ... .. . P7C : ... .. 4 ... : ... .. . ... ...
ROW 0E : F-4 00 A P7C ... ... : ... .. . ... ... ... : ... .. . P7F : ... .. . ... : ... .. . ... ...
ROW 0F : E-4 00 A P83 ... ... : ... .. . ... ... ... : ... .. . P82 : ... .. . ... : ... .. . ... ...
ROW 10 : ... .. . P80 ... ... : --- .. 0 P80 ... ... : --- .. . P80 : ... .. 0 ... : ... .. . ... ...
ROW 11 : ... .. . P7D ... ... : ... .. . ... ... ... : A-2 00 . P7C : ... .. . ... : ... .. . ... ...
ROW 12 : D#4 00 A P84 ... ... : ... .. . ... ... ... : ... .. . P79 : ... .. . ... : ... .. . ... ...
ROW 13 : E-4 00 A P7D ... ... : ... .. . ... ... ... : ... .. . P7C : ... .. . ... : ... .. . ... ...
ROW 14 : ... .. . P80 ... ... : ... .. . ... ... ... : ... .. . P7F : ... .. . ... : ... .. . ... ...
ROW 15 : ... .. . P83 ... ... : ... .. . ... ... ... : ... .. . P82 : ... .. . ... : ... .. . ... ...
ROW 16 : F-4 00 A P7C ... ... : --- .. . P80 ... ... : --- .. . P80 : ... .. . ... : === 00 . ... ...
ROW 17 : E-4 00 A P83 ... ... : A-3 00 6 P7F ... ... : A-2 00 . P7C : ... .. 7 ... : ... .. . ... ...
ROW 18 : ... .. . P80 ... ... : ... .. . ... ... ... : ... .. . P79 : ... .. . ... : ... .. . ... ...
ROW 19 : ... .. . P7D ... ... : ... .. . ... ... ... : ... .. . P7C : ... .. 4 ... : ... .. . ... ...
ROW 1A : D#4 00 A P84 ... ... : ... .. . ... ... ... : ... .. . P7F : ... .. . ... : ... .. . ... ...
ROW 1B : E-4 00 A P7D ... ... : ... .. . ... ... ... : ... .. . P82 : ... .. . ... : ... .. . ... ...
ROW 1C : ... .. . P80 ... ... : --- .. 0 P80 ... ... : ... .. . P85 : ... .. 0 ... : ... .. . ... ...
ROW 1D : ... .. . P83 ... ... : E-3 00 6 P7F ... ... : ... .. . P82 : ... .. 7 ... : ... .. . ... ...
ROW 1E : F-4 00 A P7C ... ... : ... .. . ... ... ... : ... .. . P7F : ... .. . ... : ... .. . ... ...
ROW 1F : E-4 00 A P83 ... ... : ... .. . ... ... ... : ... .. . P7C : ... .. 4 ... : ... .. . ... ...
ROW 20 : ... .. . P80 ... ... : ... .. . ... ... ... : ... .. . P79 : ... .. . ... : ... .. . ... ...
ROW 21 : ... .. . P7D ... ... : ... .. . ... ... ... : ... .. . P7C : ... .. . ... : ... .. . ... ...
ROW 22 : D#4 00 A P84 ... ... : --- .. 0 P80 ... ... : --- .. . P80 : ... .. 0 ... : ... .. . ... ...
ROW 23 : E-4 00 A P7D ... ... : G-3 00 6 P7F ... ... : A-2 00 . P7C : ... .. 7 ... : ... .. . ... ...
ROW 24 : ... .. . P80 ... ... : ... .. . ... ... ... : ... .. . P79 : ... .. . ... : ... .. . ... ...
ROW 25 : ... .. . P83 ... ... : ... .. . ... ... ... : ... .. . P7C : ... .. 4 ... : ... .. . ... ...
ROW 26 : F-4 00 A P7C ... ... : ... .. . ... ... ... : ... .. . P7F : ... .. . ... : ... .. . ... ...
ROW 27 : E-4 00 A P83 ... ... : ... .. . ... ... ... : ... .. . P82 : ... .. . ... : ... .. . ... ...
ROW 28 : ... .. . P80 ... ... : --- .. 0 P80 ... ... : --- .. . P80 : ... .. 0 ... : ... .. . ... ...
ROW 29 : ... .. . P7D ... ... : A-3 00 6 P7F ... ... : E-3 00 . P7C : ... .. 7 ... : ... .. . ... ...
ROW 2A : D#4 00 A P84 ... ... : ... .. . ... ... ... : ... .. . P79 : ... .. . ... : ... .. . ... ...
ROW 2B : E-4 00 A P7D ... ... : ... .. . ... ... ... : ... .. . P7C : ... .. 4 ... : ... .. . ... ...
ROW 2C : ... .. . P80 ... ... : ... .. . ... ... ... : ... .. . P7F : ... .. . ... : ... .. . ... ...
ROW 2D : ... .. . P83 ... ... : ... .. . ... ... ... : ... .. . P82 : ... .. . ... : ... .. . ... ...
ROW 2E : F-4 00 A P7C ... ... : --- .. 0 P80 ... ... : ... .. . P85 : ... .. 0 ... : ... .. . ... ...
ROW 2F : E-4 00 A P83 ... ... : A-3 00 6 P7F ... ... : ... .. . P82 : ... .. 7 ... : ... .. . ... ...
ROW 30 : ... .. . P80 ... ... : ... .. . ... ... ... : ... .. . P7F : ... .. . ... : ... .. . ... ...
ROW 31 : ... .. . P7D ... ... : ... .. . ... ... ... : ... .. . P7C : ... .. 4 ... : ... .. . ... ...
ROW 32 : D#4 00 A P84 ... ... : ... .. . ... ... ... : ... .. . P79 : ... .. . ... : ... .. . ... ...
ROW 33 : E-4 00 A P7D ... ... : ... .. . ... ... ... : ... .. . P7C : ... .. . ... : ... .. . ... ...
ROW 34 : ... .. . P80 ... ... : --- .. 0 P80 ... ... : --- .. . P80 : ... .. 0 ... : ... .. . ... ...
ROW 35 : ... .. . P83 ... ... : ... .. . ... ... ... : E-2 00 . P7C : ... .. 7 ... : ... .. . ... ...
ROW 36 : F-4 00 A P7C ... ... : ... .. . ... ... ... : ... .. . P79 : ... .. . ... : ... .. . ... ...
ROW 37 : E-4 00 A P83 ... ... : ... .. . ... ... ... : ... .. . P7C : ... .. 4 ... : ... .. . ... ...
ROW 38 : ... .. . P80 ... ... : ... .. . ... ... ... : ... .. . P7F : ... .. . ... : ... .. . ... ...
ROW 39 : ... .. . P7D ... ... : ... .. . ... ... ... : ... .. . P82 : ... .. . ... : ... .. . ... ...
ROW 3A : D#4 00 A P84 ... ... : --- .. . P80 ... ... : ... .. . P85 : ... .. 0 ... : ... .. . ... ...
ROW 3B : E-4 00 6 P7D ... ... : A-3 00 6 P7F ... ... : ... .. . P82 : ... .. 7 ... : ... .. . ... ...
ROW 3C : ... .. . P80 ... ... : ... .. . ... ... ... : ... .. . P7F : ... .. . ... : ... .. . ... ...
ROW 3D : ... .. . P83 ... ... : ... .. . ... ... ... : ... .. . P7C : ... .. 4 ... : ... .. . ... ...
ROW 3E : F-4 00 6 P7C ... ... : ... .. . ... ... ... : ... .. . P79 : ... .. . ... : ... .. . ... ...
ROW 3F : E-4 00 6 P83 ... ... : ... .. . ... ... ... : ... .. . P7C : ... .. . ... : ... .. . ... ...
ROW 40 : --- .. 0 P80 ... ... : --- .. 0 P80 ... ... : --- .. . P80 : ... .. 0 ... : ... .. . ... ...
ROW 41 : F-4 00 A P7F ... ... : D-3 00 6 P7F ... ... : D-2 00 . P7C : ... .. 7 ... : ... .. . ... ...
ROW 42 : ... .. . ... ... ... : ... .. . ... ... ... : ... .. . P79 : ... .. . ... : ... .. . ... ...
ROW 43 : ... .. . ... ... ... : ... .. . ... ... ... : ... .. . P7C : ... .. 4 ... : ... .. . ... ...
ROW 44 : ... .. . ... ... ... : ... .. . ... ... ... : ... .. . P7F : ... .. . ... : ... .. . ... ...
ROW 45 : ... .. . ... ... ... : ... .. . ... ... ... : ... .. . P82 : ... .. . ... : ... .. . ... ...
ROW 46 : --- .. 0 P80 ... ... : --- .. 0 P80 ... ... : ... .. . P85 : ... .. 1 ... : ... .. . ... ...
ROW 47 : ... .. . ... ... ... : D-3 00 6 P7F ... ... : ... .. . P82 : ... .. . ... : ... .. . ... ...
ROW 48 : ... .. . ... ... ... : ... .. . ... ... ... : ... .. . P7F : ... .. . ... : ... .. . ... ...
ROW 49 : ... .. . ... ... ... : ... .. . ... ... ... : ... .. . P7C : ... .. 0 ... : ... .. . ... ...
ROW 4A : ... .. . ... ... ... : ... .. . ... ... ... : ... .. . P79 : ... .. . ... : ... .. . ... ...
ROW 4B : ... .. . ... ... ... : ... .. . ... ... ... : ... .. . P7C : ... .. . ... : ... .. . ... ...
ROW 4C : --- .. . P80 ... ... : --- .. 0 P80 ... ... : --- .. . P80 : ... .. . ... : ... .. . ... ...
ROW 4D : ... .. . ... ... ... : A-2 00 6 P7F ... ... : D-2 00 . P7C : ... .. 7 ... : ... .. . ... ...
ROW 4E : ... .. . ... ... ... : ... .. . ... ... ... : ... .. . P79 : ... .. . ... : ... .. . ... ...
ROW 4F : ... .. . ... ... ... : ... .. . ... ... ... : ... .. . P7C : ... .. 4 ... : ... .. . ... ...
ROW 50 : ... .. . ... ... ... : ... .. . ... ... ... : ... .. . P7F : ... .. . ... : ... .. . ... ...
ROW 51 : ... .. . ... ... ... : ... .. . ... ... ... : ... .. . P82 : ... .. . ... : ... .. . ... ...
ROW 52 : ... .. . ... ... ... : --- .. 0 P80 ... ... : ... .. . P85 : ... .. 0 ... : ... .. . ... ...
ROW 53 : ... .. . ... ... ... : C-3 00 6 ... ... ... : ... .. . P82 : ... .. 7 ... : ... .. . ... ...
ROW 54 : ... .. . ... ... ... : ... .. . ... ... ... : ... .. . P7F : ... .. . ... : ... .. . ... ...
ROW 55 : ... .. . ... ... ... : ... .. . ... ... ... : ... .. . P7C : ... .. 4 ... : ... .. . ... ...
ROW 56 : ... .. . ... ... ... : ... .. . ... ... ... : ... .. . P79 : ... .. . ... : ... .. . ... ...
ROW 57 : ... .. . ... ... ... : ... .. . ... ... ... : ... .. . P7C : ... .. . ... : ... .. . ... ...
ROW 58 : --- .. . P80 ... ... : --- .. 0 ... ... ... : --- .. . P80 : ... .. 0 ... : ... .. . ... ...
ROW 59 : ... .. . ... ... ... : ... .. . ... ... ... : A-2 00 . P7C : ... .. 7 ... : ... .. . ... ...
ROW 5A : ... .. . ... ... ... : ... .. . ... ... ... : ... .. . P79 : ... .. . ... : ... .. . ... ...
ROW 5B : ... .. . ... ... ... : ... .. . ... ... ... : ... .. . P7C : ... .. 4 ... : ... .. . ... ...
ROW 5C : ... .. . ... ... ... : ... .. . ... ... ... : ... .. . P7F : ... .. . ... : ... .. . ... ...
ROW 5D : ... .. . ... ... ... : ... .. . ... ... ... : ... .. . P82 : ... .. . ... : ... .. . ... ...
ROW 5E : ... .. . ... ... ... : --- .. . P80 ... ... : --- .. . P80 : ... .. 1 ... : ... .. . ... ...
ROW 5F : ... .. . ... ... ... : D-3 00 6 P7F ... ... : A-2 00 . P7C : ... .. . ... : ... .. . ... ...
ROW 60 : ... .. . ... ... ... : ... .. . ... ... ... : ... .. . P79 : ... .. . ... : ... .. . ... ...
ROW 61 : ... .. . ... ... ... : ... .. . ... ... ... : ... .. . P7C : ... .. 0 ... : ... .. . ... ...
ROW 62 : ... .. . ... ... ... : ... .. . ... ... ... : ... .. . P7F : ... .. . ... : ... .. . ... ...
ROW 63 : ... .. . ... ... ... : ... .. . ... ... ... : ... .. . P82 : ... .. . ... : ... .. . ... ...
ROW 64 : ... .. . ... ... ... : --- .. 0 P80 ... ... : ... .. . P85 : ... .. . ... : ... .. . ... ...
ROW 65 : ... .. . ... ... ... : A-2 00 6 P7F ... ... : ... .. . P82 : ... .. 7 ... : ... .. . ... ...
ROW 66 : ... .. . ... ... ... : ... .. . ... ... ... : ... .. . P7F : ... .. . ... : ... .. . ... ...
ROW 67 : ... .. . ... ... ... : ... .. . ... ... ... : ... .. . P7C : ... .. 4 ... : ... .. . ... ...
ROW 68 : ... .. . ... ... ... : ... .. . ... ... ... : ... .. . P79 : ... .. . ... : ... .. . ... ...
ROW 69 : ... .. . ... ... ... : ... .. . ... ... ... : ... .. . P7C : ... .. . ... : ... .. . ... ...
ROW 6A : ... .. . ... ... ... : --- .. 0 P80 ... ... : --- .. . P80 : ... .. 0 ... : ... .. . ... ...
ROW 6B : ... .. . ... ... ... : C-3 00 6 ... ... ... : A-2 00 . P7C : ... .. 7 ... : ... .. . ... ...
ROW 6C : ... .. . ... ... ... : ... .. . ... ... ... : ... .. . P79 : ... .. . ... : ... .. . ... ...
ROW 6D : ... .. . ... ... ... : ... .. . ... ... ... : ... .. . P7C : ... .. 4 ... : ... .. . ... ...
ROW 6E : ... .. . ... ... ... : ... .. . ... ... ... : ... .. . P7F : ... .. . ... : ... .. . ... ...
ROW 6F : ... .. . ... ... ... : ... .. . ... ... ... : ... .. . P82 : ... .. . ... : ... .. . ... ...
ROW 70 : --- .. . P80 ... ... : --- .. 0 ... ... ... : --- .. . P80 : ... .. 0 ... : ... .. . ... ...
ROW 71 : F-4 00 A P7F ... ... : ... .. . ... ... ... : D-2 00 . P7C : ... .. . ... : ... .. . ... ...
ROW 72 : ... .. . ... ... ... : ... .. . ... ... ... : ... .. . P79 : ... .. . ... : ... .. . ... ...
ROW 73 : ... .. . ... ... ... : ... .. . ... ... ... : ... .. . P7C : ... .. . ... : ... .. . ... ...
ROW 74 : ... .. . ... ... ... : ... .. . ... ... ... : ... .. . P7F : ... .. . ... : ... .. . ... ...
ROW 75 : ... .. . ... ... ... : ... .. . ... ... ... : ... .. . P82 : ... .. . ... : ... .. . ... ...
ROW 76 : --- .. 0 P80 ... ... : --- .. . P80 ... ... : --- .. . P80 : ... .. . ... : === 00 . ... ...
ROW 77 : G-4 00 A ... ... ... : D-3 00 6 P7F ... ... : D-2 00 . P7C : ... .. 7 ... : ... .. . ... ...
ROW 78 : ... .. . ... ... ... : ... .. . ... ... ... : ... .. . P79 : ... .. . ... : ... .. . ... ...
ROW 79 : ... .. . ... ... ... : ... .. . ... ... ... : ... .. . P7C : ... .. 4 ... : ... .. . ... ...
ROW 7A : ... .. . ... ... ... : ... .. . ... ... ... : ... .. . P7F : ... .. . ... : ... .. . ... ...
ROW 7B : ... .. . ... ... ... : ... .. . ... ... ... : ... .. . P82 : ... .. . ... : ... .. . ... ...
ROW 7C : --- .. 0 ... ... ... : --- .. 0 P80 ... ... : ... .. . P85 : ... .. 0 ... : ... .. . ... ...
ROW 7D : ... .. . ... ... ... : A-2 00 6 P7F ... ... : ... .. . P82 : ... .. 7 ... : ... .. . ... ...
ROW 7E : ... .. . ... ... ... : ... .. . ... ... ... : ... .. . P7F : ... .. . ... : ... .. . ... ...
ROW 7F : ... .. . ... ... ... : ... .. . ... ... ... : ... .. . P7C : ... .. 4 ... : ... .. . ... ...
ROW 80 : ... .. . ... ... ... : ... .. . ... ... ... : ... .. . P79 : ... .. . ... : ... .. . ... ...
ROW 81 : ... .. . ... ... ... : ... .. . ... ... ... : ... .. . P7C : ... .. . ... : ... .. . ... ...
ROW 82 : --- .. . P80 ... ... : --- .. 0 P80 ... ... : --- .. . P80 : ... .. 0 ... : ... .. . ... ...
ROW 83 : F-4 00 A P7F ... ... : C-3 00 6 ... ... ... : D-2 00 . P7C : ... .. 7 ... : ... .. . ... ...
ROW 84 : ... .. . ... ... ... : ... .. . ... ... ... : ... .. . P79 : ... .. . ... : ... .. . ... ...
ROW 85 : ... .. . ... ... ... : ... .. . ... ... ... : ... .. . P7C : ... .. 4 ... : ... .. . ... ...
ROW 86 : ... .. . ... ... ... : ... .. . ... ... ... : ... .. . P7F : ... .. . ... : ... .. . ... ...
ROW 87 : ... .. . ... ... ... : ... .. . ... ... ... : ... .. . P82 : ... .. . ... : ... .. . ... ...
ROW 88 : --- .. 0 P80 ... ... : --- .. 0 ... ... ... : --- .. . P80 : ... .. 0 ... : ... .. . ... ...
ROW 89 : ... .. . ... ... ... : D-3 00 6 P7F ... ... : A-2 00 . P7C : ... .. 7 ... : ... .. . ... ...
ROW 8A : ... .. . ... ... ... : ... .. . ... ... ... : ... .. . P79 : ... .. . ... : ... .. . ... ...
ROW 8B : ... .. . ... ... ... : ... .. . ... ... ... : ... .. . P7C : ... .. 4 ... : ... .. . ... ...
ROW 8C : ... .. . ... ... ... : ... .. . ... ... ... : ... .. . P7F : ... .. . ... : ... .. . ... ...
ROW 8D : ... .. . ... ... ... : ... .. . ... ... ... : ... .. . P82 : ... .. . ... : ... .. . ... ...
ROW 8E : --- .. . P80 ... ... : --- .. 0 P80 ... ... : ... .. . P85 : ... .. 1 ... : ... .. . ... ...
ROW 8F : E-4 00 A ... ... ... : D-3 00 6 P7F ... ... : ... .. . P82 : ... .. . ... : ... .. . ... ...
ROW 90 : ... .. . ... ... ... : ... .. . ... ... ... : ... .. . P7F : ... .. . ... : ... .. . ... ...
ROW 91 : ... .. . ... ... ... : ... .. . ... ... ... : ... .. . P7C : ... .. 0 ... : ... .. . ... ...
ROW 92 : ... .. . ... ... ... : ... .. . ... ... ... : ... .. . P79 : ... .. . ... : ... .. . ... ...
ROW 93 : ... .. . ... ... ... : ... .. . ... ... ... : ... .. . P7C : ... .. . ... : ... .. . ... ...
ROW 94 : --- .. 0 ... ... ... : --- .. 0 P80 ... ... : --- .. . P80 : ... .. . ... : ... .. . ... ...
ROW 95 : ... .. . ... ... ... : ... .. . ... ... ... : D-2 00 . P7C : ... .. 7 ... : ... .. . ... ...
ROW 96 : ... .. . ... ... ... : ... .. . ... ... ... : ... .. . P79 : ... .. . ... : ... .. . ... ...
ROW 97 : ... .. . ... ... ... : ... .. . ... ... ... : ... .. . P7C : ... .. 4 ... : ... .. . ... ...
ROW 98 : ... .. . ... ... ... : ... .. . ... ... ... : ... .. . P7F : ... .. . ... : ... .. . ... ...
ROW 99 : ... .. . ... ... ... : ... .. . ... ... ... : ... .. . P82 : ... .. . ... : ... .. . ... ...
ROW 9A : --- .. . P80 ... ... : --- .. . P80 ... ... : ... .. . P85 : ... .. 1 ... : ... .. . ... ...
ROW 9B : D-4 00 A P7F ... ... : D-3 00 6 P7F ... ... : ... .. . P82 : ... .. . ... : ... .. . ... ...
ROW 9C : ... .. . ... ... ... : ... .. . ... ... ... : ... .. . P7F : ... .. . ... : ... .. . ... ...
ROW 9D : ... .. . ... ... ... : ... .. . ... ... ... : ... .. . P7C : ... .. 0 ... : ... .. . ... ...
ROW 9E : ... .. . ... ... ... : ... .. . ... ... ... : ... .. . P79 : ... .. . ... : ... .. . ... ...
ROW 9F : ... .. . ... ... ... : ... .. . ... ... ... : ... .. . P7C : ... .. . ... : ... .. . ... ...
ROW A0 : --- .. 0 P80 ... ... : --- .. 0 P80 ... ... : --- .. . P80 : ... .. . ... : ... .. . ... ...
ROW A1 : E-4 00 A ... ... ... : A-3 00 6 P7F ... ... : A-2 00 . P7C : ... .. 7 ... : ... .. . ... ...
ROW A2 : ... .. . ... ... ... : ... .. . ... ... ... : ... .. . P79 : ... .. . ... : ... .. . ... ...
ROW A3 : ... .. . ... ... ... : ... .. . ... ... ... : ... .. . P7C : ... .. 4 ... : ... .. . ... ...
ROW A4 : ... .. . ... ... ... : ... .. . ... ... ... : ... .. . P7F : ... .. . ... : ... .. . ... ...
ROW A5 : ... .. . ... ... ... : ... .. . ... ... ... : ... .. . P82 : ... .. . ... : ... .. . ... ...
ROW A6 : --- .. 0 ... ... ... : --- .. 0 P80 ... ... : ... .. . P85 : ... .. 1 ... : ... .. . ... ...
ROW A7 : ... .. . ... ... ... : A-3 00 6 P7F ... ... : ... .. . P82 : ... .. . ... : ... .. . ... ...
ROW A8 : ... .. . ... ... ... : ... .. . ... ... ... : ... .. . P7F : ... .. . ... : ... .. . ... ...
ROW A9 : ... .. . ... ... ... : ... .. . ... ... ... : ... .. . P7C : ... .. 0 ... : ... .. . ... ...
ROW AA : ... .. . ... ... ... : ... .. . ... ... ... : ... .. . P79 : ... .. . ... : ... .. . ... ...
ROW AB : ... .. . ... ... ... : ... .. . ... ... ... : ... .. . P7C : ... .. . ... : ... .. . ... ...
ROW AC : --- .. . P80 ... ... : --- .. 0 P80 ... ... : --- .. . P80 : ... .. . ... : ... .. . ... ...
ROW AD : ... .. . ... ... ... : E-3 00 6 P7F ... ... : A-2 00 . P7C : ... .. 7 ... : ... .. . ... ...
ROW AE : ... .. . ... ... ... : ... .. . ... ... ... : ... .. . P79 : ... .. . ... : ... .. . ... ...
ROW AF : ... .. . ... ... ... : ... .. . ... ... ... : ... .. . P7C : ... .. 4 ... : ... .. . ... ...
ROW B0 : ... .. . ... ... ... : ... .. . ... ... ... : ... .. . P7F : ... .. . ... : ... .. . ... ...
ROW B1 : ... .. . ... ... ... : ... .. . ... ... ... : ... .. . P82 : ... .. . ... : ... .. . ... ...
ROW B2 : ... .. . ... ... ... : --- .. 0 P80 ... ... : ... .. . P85 : ... .. 0 ... : ... .. . ... ...
ROW B3 : ... .. . ... ... ... : G-3 00 6 P7F ... ... : ... .. . P82 : ... .. 7 ... : ... .. . ... ...
ROW B4 : ... .. . ... ... ... : ... .. . ... ... ... : ... .. . P7F : ... .. . ... : ... .. . ... ...
ROW B5 : ... .. . ... ... ... : ... .. . ... ... ... : ... .. . P7C : ... .. 4 ... : ... .. . ... ...
ROW B6 : ... .. . ... ... ... : ... .. . ... ... ... : ... .. . P79 : ... .. . ... : ... .. . ... ...
ROW B7 : ... .. . ... ... ... : ... .. . ... ... ... : ... .. . P7C : ... .. . ... : ... .. . ... ...
ROW B8 : --- .. . P80 ... ... : --- .. 0 P80 ... ... : --- .. . P80 : ... .. 0 ... : ... .. . ... ...
ROW B9 : ... .. . ... ... ... : ... .. . ... ... ... : E-3 00 . P7C : ... .. 7 ... : ... .. . ... ...
ROW BA : ... .. . ... ... ... : ... .. . ... ... ... : ... .. . P79 : ... .. . ... : ... .. . ... ...
ROW BB : ... .. . ... ... ... : ... .. . ... ... ... : ... .. . P7C : ... .. 4 ... : ... .. . ... ...
ROW BC : ... .. . ... ... ... : ... .. . ... ... ... : ... .. . P7F : ... .. . ... : ... .. . ... ...
ROW BD : ... .. . ... ... ... : ... .. . ... ... ... : ... .. . P82 : ... .. . ... : ... .. . ... ...
ROW BE : ... .. . ... ... ... : --- .. . P80 ... ... : --- .. . P80 : ... .. 1 ... : ... .. . ... ...
ROW BF : ... .. . ... ... ... : A-3 00 6 P7F ... ... : E-3 00 . P7C : ... .. . ... : ... .. . ... ...
ROW C0 : ... .. . ... ... ... : ... .. . ... ... ... : ... .. . P79 : ... .. . ... : ... .. . ... ...
ROW C1 : ... .. . ... ... ... : ... .. . ... ... ... : ... .. . P7C : ... .. 0 ... : ... .. . ... ...
ROW C2 : ... .. . ... ... ... : ... .. . ... ... ... : ... .. . P7F : ... .. . ... : ... .. . ... ...
ROW C3 : ... .. . ... ... ... : ... .. . ... ... ... : ... .. . P82 : ... .. . ... : ... .. . ... ...
ROW C4 : ... .. . ... ... ... : --- .. 0 P80 ... ... : ... .. . P85 : ... .. . ... : ... .. . ... ...
ROW C5 : ... .. . ... ... ... : E-3 00 6 P7F ... ... : ... .. . P82 : ... .. 7 ... : ... .. . ... ...
ROW C6 : ... .. . ... ... ... : ... .. . ... ... ... : ... .. . P7F : ... .. . ... : ... .. . ... ...
ROW C7 : ... .. . ... ... ... : ... .. . ... ... ... : ... .. . P7C : ... .. 4 ... : ... .. . ... ...
ROW C8 : ... .. . ... ... ... : ... .. . ... ... ... : ... .. . P79 : ... .. . ... : ... .. . ... ...
ROW C9 : ... .. . ... ... ... : ... .. . ... ... ... : ... .. . P7C : ... .. . ... : ... .. . ... ...
ROW CA : ... .. . ... ... ... : --- .. 0 P80 ... ... : --- .. . P80 : ... .. 0 ... : ... .. . ... ...
ROW CB : ... .. . ... ... ... : G-3 00 6 P7F ... ... : E-3 00 . P7C : ... .. 7 ... : ... .. . ... ...
ROW CC : ... .. . ... ... ... : ... .. . ... ... ... : ... .. . P79 : ... .. . ... : ... .. . ... ...
ROW CD : ... .. . ... ... ... : ... .. . ... ... ... : ... .. . P7C : ... .. 4 ... : ... .. . ... ...
ROW CE : ... .. . ... ... ... : ... .. . ... ... ... : ... .. . P7F : ... .. . ... : ... .. . ... ...
ROW CF : ... .. . ... ... ... : ... .. . ... ... ... : ... .. . P82 : ... .. . ... : ... .. . ... ...
ROW D0 : --- .. . P80 ... ... : --- .. 0 P80 ... ... : --- .. . P80 : ... .. 0 ... : ... .. . ... ...
ROW D1 : E-4 00 A ... ... ... : ... .. . ... ... ... : A-2 00 . P7C : ... .. . ... : ... .. . ... ...
ROW D2 : ... .. . ... ... ... : ... .. . ... ... ... : ... .. . P79 : ... .. . ... : ... .. . ... ...
ROW D3 : ... .. . ... ... ... : ... .. . ... ... ... : ... .. . P7C : ... .. . ... : ... .. . ... ...
ROW D4 : ... .. . ... ... ... : ... .. . ... ... ... : ... .. . P7F : ... .. . ... : ... .. . ... ...
ROW D5 : ... .. . ... ... ... : ... .. . ... ... ... : ... .. . P82 : ... .. . ... : ... .. . ... ...
ROW D6 : --- .. 0 ... ... ... : --- .. . P80 ... ... : --- .. . P80 : ... .. . ... : === 00 . ... ...
ROW D7 : F-4 00 A P7F ... ... : A-3 00 6 P7F ... ... : A-2 00 . P7C : ... .. 7 ... : ... .. . ... ...
ROW D8 : ... .. . ... ... ... : ... .. . ... ... ... : ... .. . P79 : ... .. . ... : ... .. . ... ...
ROW D9 : ... .. . ... ... ... : ... .. . ... ... ... : ... .. . P7C : ... .. 4 ... : ... .. . ... ...
ROW DA : ... .. . ... ... ... : ... .. . ... ... ... : ... .. . P7F : ... .. . ... : ... .. . ... ...
ROW DB : ... .. . ... ... ... : ... .. . ... ... ... : ... .. . P82 : ... .. . ... : ... .. . ... ...
ROW DC : --- .. 0 P80 ... ... : --- .. 0 P80 ... ... : ... .. . P85 : ... .. 0 ... : ... .. . ... ...
ROW DD : ... .. . ... ... ... : E-3 00 6 P7F ... ... : ... .. . P82 : ... .. 7 ... : ... .. . ... ...
ROW DE : ... .. . ... ... ... : ... .. . ... ... ... : ... .. . P7F : ... .. . ... : ... .. . ... ...
ROW DF : ... .. . ... ... ... : ... .. . ... ... ... : ... .. . P7C : ... .. 4 ... : ... .. . ... ...
ROW E0 : ... .. . ... ... ... : ... .. . ... ... ... : ... .. . P79 : ... .. . ... : ... .. . ... ...
ROW E1 : ... .. . ... ... ... : ... .. . ... ... ... : ... .. . P7C : ... .. . ... : ... .. . ... ...
ROW E2 : --- .. . P80 ... ... : --- .. 0 P80 ... ... : --- .. . P80 : ... .. 0 ... : ... .. . ... ...
ROW E3 : E-4 00 A ... ... ... : G-3 00 6 P7F ... ... : A-2 00 . P7C : ... .. 7 ... : ... .. . ... ...
ROW E4 : ... .. . ... ... ... : ... .. . ... ... ... : ... .. . P79 : ... .. . ... : ... .. . ... ...
ROW E5 : ... .. . ... ... ... : ... .. . ... ... ... : ... .. . P7C : ... .. 4 ... : ... .. . ... ...
ROW E6 : ... .. . ... ... ... : ... .. . ... ... ... : ... .. . P7F : ... .. . ... : ... .. . ... ...
ROW E7 : ... .. . ... ... ... : ... .. . ... ... ... : ... .. . P82 : ... .. . ... : ... .. . ... ...
ROW E8 : --- .. 0 ... ... ... : --- .. 0 P80 ... ... : --- .. . P80 : ... .. 0 ... : ... .. . ... ...
ROW E9 : ... .. . ... ... ... : A-3 00 6 P7F ... ... : E-3 00 . P7C : ... .. 7 ... : ... .. . ... ...
ROW EA : ... .. . ... ... ... : ... .. . ... ... ... : ... .. . P79 : ... .. . ... : ... .. . ... ...
ROW EB : ... .. . ... ... ... : ... .. . ... ... ... : ... .. . P7C : ... .. 4 ... : ... .. . ... ...
ROW EC : ... .. . ... ... ... : ... .. . ... ... ... : ... .. . P7F : ... .. . ... : ... .. . ... ...
ROW ED : ... .. . ... ... ... : ... .. . ... ... ... : ... .. . P82 : ... .. . ... : ... .. . ... ...
ROW EE : --- .. . P80 ... ... : --- .. 0 P80 ... ... : ... .. . P85 : ... .. 0 ... : ... .. . ... ...
ROW EF : D-4 00 A P7F ... ... : A-3 00 6 P7F ... ... : ... .. . P82 : ... .. 7 ... : ... .. . ... ...
ROW F0 : ... .. . ... ... ... : ... .. . ... ... ... : ... .. . P7F : ... .. . ... : ... .. . ... ...
ROW F1 : ... .. . ... ... ... : ... .. . ... ... ... : ... .. . P7C : ... .. 4 ... : ... .. . ... ...
ROW F2 : ... .. . ... ... ... : ... .. . ... ... ... : ... .. . P79 : ... .. . ... : ... .. . ... ...
ROW F3 : ... .. . ... ... ... : ... .. . ... ... ... : ... .. . P7C : ... .. . ... : ... .. . ... ...
ROW F4 : --- .. 0 P80 ... ... : --- .. 0 P80 ... ... : --- .. . P80 : ... .. 0 ... : ... .. . ... ...
ROW F5 : ... .. . ... ... ... : ... .. . ... ... ... : E-2 00 . P7C : ... .. 7 ... : ... .. . ... ...
ROW F6 : ... .. . ... ... ... : ... .. . ... ... ... : ... .. . P79 : ... .. . ... : ... .. . ... ...
ROW F7 : ... .. . ... ... ... : ... .. . ... ... ... : ... .. . P7C : ... .. 4 ... : ... .. . ... ...
ROW F8 : ... .. . ... ... ... : ... .. . ... ... ... : ... .. . P7F : ... .. . ... : ... .. . ... ...
ROW F9 : ... .. . ... ... ... : ... .. . ... ... ... : ... .. . P82 : ... .. . ... : ... .. . ... ...
ROW FA : --- .. . P80 ... ... : --- .. . P80 ... ... : ... .. . P85 : ... .. 0 ... : ... .. . ... ...
ROW FB : C-4 00 A ... ... ... : A-3 00 6 P7F ... ... : ... .. . P82 : ... .. 7 ... : ... .. . ... ...
ROW FC : ... .. . ... ... ... : ... .. . ... ... ... : ... .. . P7F : ... .. . ... : ... .. . ... ...
ROW FD : ... .. . ... ... ... : ... .. . ... ... ... : ... .. . P7C : ... .. 4 ... : ... .. . ... ...
ROW FE : ... .. . ... ... ... : ... .. . ... ... ... : ... .. . P79 : ... .. . ... : ... .. . ... ...
ROW FF : ... .. . ... ... ... : ... .. . ... ... ... : ... .. . P7C : ... .. . ... : ... .. . ... ...

PATTERN 03
ROW 00 : --- .. 0 ... ... ... : --- .. 0 P80 ... ... : --- .. . P80 : ... .. 0 ... : ... .. . ... ...
ROW 01 : D#4 00 A ... ... ... : B-2 00 6 P7F ... ... : F#2 00 . P7C : ... .. 7 ... : ... .. . ... ...
ROW 02 : ... .. . ... ... ... : ... .. . ... ... ... : ... .. . P79 : ... .. . ... : ... .. . ... ...
ROW 03 : ... .. . ... ... ... : ... .. . ... ... ... : ... .. . P7C : ... .. 4 ... : ... .. . ... ...
ROW 04 : ... .. . ... ... ... : ... .. . ... ... ... : ... .. . P7F : ... .. . ... : ... .. . ... ...
ROW 05 : ... .. . ... ... ... : ... .. . ... ... ... : ... .. . P82 : ... .. . ... : ... .. . ... ...
ROW 06 : ... .. . ... ... ... : --- .. 0 P80 ... ... : ... .. . P85 : ... .. 1 ... : ... .. . ... ...
ROW 07 : ... .. . ... ... ... : B-2 00 6 P7F ... ... : ... .. . P82 : ... .. . ... : ... .. . ... ...
ROW 08 : ... .. . ... ... ... : ... .. . ... ... ... : ... .. . P7F : ... .. . ... : ... .. . ... ...
ROW 09 : ... .. . ... ... ... : ... .. . ... ... ... : ... .. . P7C : ... .. 0 ... : ... .. . ... ...
ROW 0A : ... .. . ... ... ... : ... .. . ... ... ... : ... .. . P79 : ... .. . ... : ... .. . ... ...
ROW 0B : ... .. . ... ... ... : ... .. . ... ... ... : ... .. . P7C : ... .. . ... : ... .. . ... ...
ROW 0C : --- .. 0 ... ... ... : --- .. 0 P80 ... ... : --- .. . P80 : ... .. . ... : ... .. . ... ...
ROW 0D : ... .. . ... ... ... : F#2 00 6 P7F ... ... : F#2 00 . P7C : ... .. 7 ... : ... .. . ... ...
ROW 0E : ... .. . ... ... ... : ... .. . ... ... ... : ... .. . P79 : ... .. . ... : ... .. . ... ...
ROW 0F : ... .. . ... ... ... : ... .. . ... ... ... : ... .. . P7C : ... .. 4 ... : ... .. . ... ...
ROW 10 : ... .. . ... ... ... : ... .. . ... ... ... : ... .. . P7F : ... .. . ... : ... .. . ... ...
ROW 11 : ... .. . ... ... ... : ... .. . ... ... ... : ... .. . P82 : ... .. . ... : ... .. . ... ...
ROW 12 : ... .. . ... ... ... : --- .. 0 P80 ... ... : ... .. . P85 : ... .. 0 ... : ... .. . ... ...
ROW 13 : ... .. . ... ... ... : A-2 00 6 P7F ... ... : ... .. . P82 : ... .. 7 ... : ... .. . ... ...
ROW 14 : ... .. . ... ... ... : ... .. . ... ... ... : ... .. . P7F : ... .. . ... : ... .. . ... ...
ROW 15 : ... .. . ... ... ... : ... .. . ... ... ... : ... .. . P7C : ... .. 4 ... : ... .. . ... ...
ROW 16 : ... .. . ... ... ... : ... .. . ... ... ... : ... .. . P79 : ... .. . ... : ... .. . ... ...
ROW 17 : ... .. . ... ... ... : ... .. . ... ... ... : ... .. . P7C : ... .. . ... : ... .. . ... ...
ROW 18 : ... .. . ... ... ... : --- .. 0 P80 ... ... : --- .. . P80 : ... .. 0 ... : ... .. . ... ...
ROW 19 : ... .. . ... ... ... : ... .. . ... ... ... : D#3 00 . P7D : ... .. 7 ... : ... .. . ... ...
ROW 1A : ... .. . ... ... ... : ... .. . ... ... ... : ... .. . P7A : ... .. . ... : ... .. . ... ...
ROW 1B : ... .. . ... ... ... : ... .. . ... ... ... : ... .. . P7D : ... .. 4 ... : ... .. . ... ...
ROW 1C : ... .. . ... ... ... : ... .. . ... ... ... : ... .. . P80 : ... .. . ... : ... .. . ... ...
ROW 1D : ... .. . ... ... ... : ... .. . ... ... ... : ... .. . P83 : ... .. . ... : ... .. . ... ...
ROW 1E : ... .. . ... ... ... : --- .. . P80 ... ... : --- .. . P80 : ... .. 1 ... : ... .. . ... ...
ROW 1F : ... .. . ... ... ... : B-2 00 6 P7F ... ... : D#3 00 . P7D : ... .. . ... : ... .. . ... ...
ROW 20 : ... .. . ... ... ... : ... .. . ... ... ... : ... .. . P7A : ... .. . ... : ... .. . ... ...
ROW 21 : ... .. . ... ... ... : ... .. . ... ... ... : ... .. . P7D : ... .. 0 ... : ... .. . ... ...
ROW 22 : ... .. . ... ... ... : ... .. . ... ... ... : ... .. . P80 : ... .. . ... : ... .. . ... ...
ROW 23 : ... .. . ... ... ... : ... .. . ... ... ... : ... .. . P83 : ... .. . ... : ... .. . ... ...
ROW 24 : --- .. . P80 ... ... : --- .. 0 P80 ... ... : ... .. . P86 : ... .. . ... : ... .. . ... ...
ROW 25 : B-3 00 A P7F ... ... : F#2 00 6 P7F ... ... : ... .. . P83 : ... .. 7 ... : ... .. . ... ...
ROW 26 : ... .. . ... ... ... : ... .. . ... ... ... : ... .. . P80 : ... .. . ... : ... .. . ... ...
ROW 27 : ... .. . ... ... ... : ... .. . ... ... ... : ... .. . P7D : ... .. 4 ... : ... .. . ... ...
ROW 28 : ... .. . ... ... ... : ... .. . ... ... ... : ... .. . P7A : ... .. . ... : ... .. . ... ...
ROW 29 : ... .. . ... ... ... : ... .. . ... ... ... : ... .. . P7D : ... .. . ... : ... .. . ... ...
ROW 2A : ... .. . ... ... ... : --- .. 0 P80 ... ... : --- .. . P80 : ... .. 0 ... : ... .. . ... ...
ROW 2B : ... .. . ... ... ... : A-2 00 6 P7F ... ... : D#3 00 . P7D : ... .. 7 ... : ... .. . ... ...
ROW 2C : ... .. . ... ... ... : ... .. . ... ... ... : ... .. . P7A : ... .. . ... : ... .. . ... ...
ROW 2D : ... .. . ... ... ... : ... .. . ... ... ... : ... .. . P7D : ... .. 4 ... : ... .. . ... ...
ROW 2E : ... .. . ... ... ... : ... .. . ... ... ... : ... .. . P80 : ... .. . ... : ... .. . ... ...
ROW 2F : ... .. . ... ... ... : ... .. . ... ... ... : ... .. . P83 : ... .. . ... : ... .. . ... ...
ROW 30 : ... .. . ... ... ... : --- .. 0 P80 ... ... : --- .. . P80 : ... .. 0 ... : ... .. . ... ...
ROW 31 : B-3 00 A P7F ... ... : ... .. . ... ... ... : F#2 00 . P7C : ... .. . ... : ... .. . ... ...
ROW 32 : ... .. . ... ... ... : ... .. . ... ... ... : ... .. . P79 : ... .. . ... : ... .. . ... ...
ROW 33 : ... .. . ... ... ... : ... .. . ... ... ... : ... .. . P7C : ... .. . ... : ... .. . ... ...
ROW 34 : ... .. . ... ... ... : ... .. . ... ... ... : ... .. . P7F : ... .. . ... : ... .. . ... ...
ROW 35 : ... .. . ... ... ... : ... .. . ... ... ... : ... .. . P82 : ... .. . ... : ... .. . ... ...
ROW 36 : ... .. . ... ... ... : --- .. . P80 ... ... : --- .. . P80 : ... .. . ... : === 00 . ... ...
ROW 37 : ... .. . ... ... ... : B-2 00 6 P7F ... ... : F#2 00 . P7C : ... .. 7 ... : ... .. . ... ...
ROW 38 : ... .. . ... ... ... : ... .. . ... ... ... : ... .. . P79 : ... .. . ... : ... .. . ... ...
ROW 39 : ... .. . ... ... ... : ... .. . ... ... ... : ... .. . P7C : ... .. 4 ... : ... .. . ... ...
ROW 3A : ... .. . ... ... ... : ... .. . ... ... ... : ... .. . P7F : ... .. . ... : ... .. . ... ...
ROW 3B : ... .. . ... ... ... : ... .. . ... ... ... : ... .. . P82 : ... .. . ... : ... .. . ... ...
ROW 3C : --- .. 0 P80 ... ... : --- .. 0 P80 ... ... : ... .. . P85 : ... .. 0 ... : ... .. . ... ...
ROW 3D : B-3 00 A P7F ... ... : F#2 00 6 P7F ... ... : ... .. . P82 : ... .. 7 ... : ... .. . ... ...
ROW 3E : ... .. . ... ... ... : ... .. . ... ... ... : ... .. . P7F : ... .. . ... : ... .. . ... ...
ROW 3F : ... .. . ... ... ... : ... .. . ... ... ... : ... .. . P7C : ... .. 4 ... : ... .. . ... ...
ROW 40 : ... .. . ... ... ... : ... .. . ... ... ... : ... .. . P79 : ... .. . ... : ... .. . ... ...
ROW 41 : ... .. . ... ... ... : ... .. . ... ... ... : ... .. . P7C : ... .. . ... : ... .. . ... ...
ROW 42 : ... .. . ... ... ... : --- .. 0 P80 ... ... : --- .. . P80 : ... .. 0 ... : ... .. . ... ...
ROW 43 : ... .. . ... ... ... : A-2 00 6 P7F ... ... : F#2 00 . P7C : ... .. 7 ... : ... .. . ... ...
ROW 44 : ... .. . ... ... ... : ... .. . ... ... ... : ... .. . P79 : ... .. . ... : ... .. . ... ...
ROW 45 : ... .. . ... ... ... : ... .. . ... ... ... : ... .. . P7C : ... .. 4 ... : ... .. . ... ...
ROW 46 : ... .. . ... ... ... : ... .. . ... ... ... : ... .. . P7F : ... .. . ... : ... .. . ... ...
ROW 47 : ... .. . ... ... ... : ... .. . ... ... ... : ... .. . P82 : ... .. . ... : ... .. . ... ...
ROW 48 : --- .. 0 P80 ... ... : --- .. 0 P80 ... ... : --- .. . P80 : ... .. 0 ... : ... .. . ... ...
ROW 49 : C#4 00 A ... ... ... : B-2 00 6 P7F ... ... : D#3 00 . P7D : ... .. 7 ... : ... .. . ... ...
ROW 4A : ... .. . ... ... ... : ... .. . ... ... ... : ... .. . P7A : ... .. . ... : ... .. . ... ...
ROW 4B : ... .. . ... ... ... : ... .. . ... ... ... : ... .. . P7D : ... .. 4 ... : ... .. . ... ...
ROW 4C : ... .. . ... ... ... : ... .. . ... ... ... : ... .. . P80 : ... .. . ... : ... .. . ... ...
ROW 4D : ... .. . ... ... ... : ... .. . ... ... ... : ... .. . P83 : ... .. . ... : ... .. . ... ...
ROW 4E : ... .. . ... ... ... : --- .. 0 P80 ... ... : ... .. . P86 : ... .. 1 ... : ... .. . ... ...
ROW 4F : ... .. . ... ... ... : B-2 00 6 P7F ... ... : ... .. . P83 : ... .. . ... : ... .. . ... ...
ROW 50 : ... .. . ... ... ... : ... .. . ... ... ... : ... .. . P80 : ... .. . ... : ... .. . ... ...
ROW 51 : ... .. . ... ... ... : ... .. . ... ... ... : ... .. . P7D : ... .. 0 ... : ... .. . ... ...
ROW 52 : ... .. . ... ... ... : ... .. . ... ... ... : ... .. . P7A : ... .. . ... : ... .. . ... ...
ROW 53 : ... .. . ... ... ... : ... .. . ... ... ... : ... .. . P7D : ... .. . ... : ... .. . ... ...
ROW 54 : --- .. 0 ... ... ... : --- .. 0 P80 ... ... : --- .. . P80 : ... .. . ... : ... .. . ... ...
ROW 55 : D#4 00 A ... ... ... : ... .. . ... ... ... : D#2 00 . P7C : ... .. 7 ... : ... .. . ... ...
ROW 56 : ... .. . ... ... ... : ... .. . ... ... ... : ... .. . P79 : ... .. . ... : ... .. . ... ...
ROW 57 : ... .. . ... ... ... : ... .. . ... ... ... : ... .. . P7C : ... .. 4 ... : ... .. . ... ...
ROW 58 : ... .. . ... ... ... : ... .. . ... ... ... : ... .. . P7F : ... .. . ... : ... .. . ... ...
ROW 59 : ... .. . ... ... ... : ... .. . ... ... ... : ... .. . P82 : ... .. . ... : ... .. . ... ...
ROW 5A : ... .. . ... ... ... : --- .. . P80 ... ... : ... .. . P85 : ... .. 1 ... : ... .. . ... ...
ROW 5B : ... .. . ... ... ... : B-2 00 6 P7F ... ... : ... .. . P82 : ... .. . ... : ... .. . ... ...
ROW 5C : ... .. . ... ... ... : ... .. . ... ... ... : ... .. . P7F : ... .. . ... : ... .. . ... ...
ROW 5D : ... .. . ... ... ... : ... .. . ... ... ... : ... .. . P7C : ... .. 0 ... : ... .. . ... ...
ROW 5E : ... .. . ... ... ... : ... .. . ... ... ... : ... .. . P79 : ... .. . ... : ... .. . ... ...
ROW 5F : ... .. . ... ... ... : ... .. . ... ... ... : ... .. . P7C : ... .. . ... : ... .. . ... ...
ROW 60 : --- .. 0 ... ... ... : --- .. 0 P80 ... ... : --- .. . P80 : ... .. . ... : ... .. . ... ...
ROW 61 : E-4 00 A ... ... ... : E-3 00 6 P7F ... ... : E-2 00 . P7C : ... .. 7 ... : ... .. . ... ...
ROW 62 : ... .. . ... ... ... : ... .. . ... ... ... : ... .. . P79 : ... .. . ... : ... .. . ... ...
ROW 63 : ... .. . ... ... ... : ... .. . ... ... ... : ... .. . P7C : ... .. 4 ... : ... .. . ... ...
ROW 64 : ... .. . ... ... ... : ... .. . ... ... ... : ... .. . P7F : ... .. . ... : ... .. . ... ...
ROW 65 : ... .. . ... ... ... : ... .. . ... ... ... : ... .. . P82 : ... .. . ... : ... .. . ... ...
ROW 66 : ... .. . ... ... ... : --- .. 0 P80 ... ... : ... .. . P85 : ... .. 1 ... : ... .. . ... ...
ROW 67 : ... .. . ... ... ... : E-3 00 6 P7F ... ... : ... .. . P82 : ... .. . ... : ... .. . ... ...
ROW 68 : ... .. . ... ... ... : ... .. . ... ... ... : ... .. . P7F : ... .. . ... : ... .. . ... ...
ROW 69 : ... .. . ... ... ... : ... .. . ... ... ... : ... .. . P7C : ... .. 0 ... : ... .. . ... ...
ROW 6A : ... .. . ... ... ... : ... .. . ... ... ... : ... .. . P79 : ... .. . ... : ... .. . ... ...
ROW 6B : ... .. . ... ... ... : ... .. . ... ... ... : ... .. . P7C : ... .. . ... : ... .. . ... ...
ROW 6C : ... .. . ... ... ... : --- .. 0 P80 ... ... : --- .. . P80 : ... .. . ... : ... .. . ... ...
ROW 6D : ... .. . ... ... ... : B-2 00 6 P7F ... ... : E-2 00 . P7C : ... .. 7 ... : ... .. . ... ...
ROW 6E : ... .. . ... ... ... : ... .. . ... ... ... : ... .. . P79 : ... .. . ... : ... .. . ... ...
ROW 6F : ... .. . ... ... ... : ... .. . ... ... ... : ... .. . P7C : ... .. 4 ... : ... .. . ... ...
ROW 70 : ... .. . ... ... ... : ... .. . ... ... ... : ... .. . P7F : ... .. . ... : ... .. . ... ...
ROW 71 : ... .. . ... ... ... : ... .. . ... ... ... : ... .. . P82 : ... .. . ... : ... .. . ... ...
ROW 72 : ... .. . ... ... ... : --- .. 0 P80 ... ... : ... .. . P85 : ... .. 0 ... : ... .. . ... ...
ROW 73 : ... .. . ... ... ... : D-3 00 6 P7F ... ... : ... .. . P82 : ... .. 7 ... : ... .. . ... ...
ROW 74 : ... .. . ... ... ... : ... .. . ... ... ... : ... .. . P7F : ... .. . ... : ... .. . ... ...
ROW 75 : ... .. . ... ... ... : ... .. . ... ... ... : ... .. . P7C : ... .. 4 ... : ... .. . ... ...
ROW 76 : ... .. . ... ... ... : ... .. . ... ... ... : ... .. . P79 : ... .. . ... : ... .. . ... ...
ROW 77 : ... .. . ... ... ... : ... .. . ... ... ... : ... .. . P7C : ... .. . ... : ... .. . ... ...
ROW 78 : ... .. . ... ... ... : --- .. 0 P80 ... ... : --- .. . P80 : ... .. 0 ... : ... .. . ... ...
ROW 79 : ... .. . ... ... ... : ... .. . ... ... ... : B-2 00 . P7C : ... .. 7 ... : ... .. . ... ...
ROW 7A : ... .. . ... ... ... : ... .. . ... ... ... : ... .. . P79 : ... .. . ... : ... .. . ... ...
ROW 7B : ... .. . ... ... ... : ... .. . ... ... ... : ... .. . P7C : ... .. 4 ... : ... .. . ... ...
ROW 7C : ... .. . ... ... ... : ... .. . ... ... ... : ... .. . P7F : ... .. . ... : ... .. . ... ...
ROW 7D : ... .. . ... ... ... : ... .. . ... ... ... : ... .. . P82 : ... .. . ... : ... .. . ... ...
ROW 7E : ... .. . ... ... ... : --- .. . P80 ... ... : --- .. . P80 : ... .. 1 ... : ... .. . ... ...
ROW 7F : ... .. . ... ... ... : E-3 00 6 P7F ... ... : B-2 00 . P7C : ... .. . ... : ... .. . ... ...
ROW 80 : ... .. . ... ... ... : ... .. . ... ... ... : ... .. . P79 : ... .. . ... : ... .. . ... ...
ROW 81 : ... .. . ... ... ... : ... .. . ... ... ... : ... .. . P7C : ... .. 0 ... : ... .. . ... ...
ROW 82 : ... .. . ... ... ... : ... .. . ... ... ... : ... .. . P7F : ... .. . ... : ... .. . ... ...
ROW 83 : ... .. . ... ... ... : ... .. . ... ... ... : ... .. . P82 : ... .. . ... : ... .. . ... ...
ROW 84 : ... .. . ... ... ... : --- .. 0 P80 ... ... : ... .. . P85 : ... .. . ... : ... .. . ... ...
ROW 85 : ... .. . ... ... ... : B-2 00 6 P7F ... ... : ... .. . P82 : ... .. 7 ... : ... .. . ... ...
ROW 86 : ... .. . ... ... ... : ... .. . ... ... ... : ... .. . P7F : ... .. . ... : ... .. . ... ...
ROW 87 : ... .. . ... ... ... : ... .. . ... ... ... : ... .. . P7C : ... .. 4 ... : ... .. . ... ...
ROW 88 : ... .. . ... ... ... : ... .. . ... ... ... : ... .. . P79 : ... .. . ... : ... .. . ... ...
ROW 89 : ... .. . ... ... ... : ... .. . ... ... ... : ... .. . P7C : ... .. . ... : ... .. . ... ...
ROW 8A : ... .. . ... ... ... : --- .. 0 P80 ... ... : --- .. . P80 : ... .. 0 ... : ... .. . ... ...
ROW 8B : ... .. . ... ... ... : D-3 00 6 P7F ... ... : B-2 00 . P7C : ... .. 7 ... : ... .. . ... ...
ROW 8C : ... .. . ... ... ... : ... .. . ... ... ... : ... .. . P79 : ... .. . ... : ... .. . ... ...
ROW 8D : ... .. . ... ... ... : ... .. . ... ... ... : ... .. . P7C : ... .. 4 ... : ... .. . ... ...
ROW 8E : ... .. . ... ... ... : ... .. . ... ... ... : ... .. . P7F : ... .. . ... : ... .. . ... ...
ROW 8F : ... .. . ... ... ... : ... .. . ... ... ... : ... .. . P82 : ... .. . ... : ... .. . ... ...
ROW 90 : ... .. . ... ... ... : --- .. 0 P80 ... ... : --- .. . P80 : ... .. 0 ... : ... .. . ... ...
ROW 91 : ... .. . ... ... ... : ... .. . ... ... ... : E-2 00 . P7C : ... .. . ... : ... .. . ... ...
ROW 92 : ... .. . ... ... ... : ... .. . ... ... ... : ... .. . P79 : ... .. . ... : ... .. . ... ...
ROW 93 : ... .. . ... ... ... : ... .. . ... ... ... : ... .. . P7C : ... .. . ... : ... .. . ... ...
ROW 94 : ... .. . ... ... ... : ... .. . ... ... ... : ... .. . P7F : ... .. . ... : ... .. . ... ...
ROW 95 : ... .. . ... ... ... : ... .. . ... ... ... : ... .. . P82 : ... .. . ... : ... .. . ... ...
ROW 96 : ... .. . ... ... ... : --- .. . P80 ... ... : --- .. . P80 : ... .. . ... : === 00 . ... ...
ROW 97 : ... .. . ... ... ... : E-3 00 6 P7F ... ... : E-2 00 . P7C : ... .. 7 ... : ... .. . ... ...
ROW 98 : ... .. . ... ... ... : ... .. . ... ... ... : ... .. . P79 : ... .. . ... : ... .. . ... ...
ROW 99 : ... .. . ... ... ... : ... .. . ... ... ... : ... .. . P7C : ... .. 4 ... : ... .. . ... ...
ROW 9A : ... .. . ... ... ... : ... .. . ... ... ... : ... .. . P7F : ... .. . ... : ... .. . ... ...
ROW 9B : ... .. . ... ... ... : ... .. . ... ... ... : ... .. . P82 : ... .. . ... : ... .. . ... ...
ROW 9C : ... .. . ... ... ... : --- .. 0 P80 ... ... : ... .. . P85 : ... .. 0 ... : ... .. . ... ...
ROW 9D : ... .. . ... ... ... : B-2 00 6 P7F ... ... : ... .. . P82 : ... .. 7 ... : ... .. . ... ...
ROW 9E : ... .. . ... ... ... : ... .. . ... ... ... : ... .. . P7F : ... .. . ... : ... .. . ... ...
ROW 9F : ... .. . ... ... ... : ... .. . ... ... ... : ... .. . P7C : ... .. 4 ... : ... .. . ... ...
ROW A0 : ... .. . ... ... ... : ... .. . ... ... ... : ... .. . P79 : ... .. . ... : ... .. . ... ...
ROW A1 : ... .. . ... ... ... : ... .. . ... ... ... : ... .. . P7C : ... .. . ... : ... .. . ... ...
ROW A2 : ... .. . ... ... ... : --- .. 0 P80 ... ... : --- .. . P80 : ... .. 0 ... : ... .. . ... ...
ROW A3 : ... .. . ... ... ... : D-3 00 6 P7F ... ... : E-2 00 . P7C : ... .. 7 ... : ... .. . ... ...
ROW A4 : ... .. . ... ... ... : ... .. . ... ... ... : ... .. . P79 : ... .. . ... : ... .. . ... ...
ROW A5 : ... .. . ... ... ... : ... .. . ... ... ... : ... .. . P7C : ... .. 4 ... : ... .. . ... ...
ROW A6 : ... .. . ... ... ... : ... .. . ... ... ... : ... .. . P7F : ... .. . ... : ... .. . ... ...
ROW A7 : ... .. . ... ... ... : ... .. . ... ... ... : ... .. . P82 : ... .. . ... : ... .. . ... ...
ROW A8 : ... .. . ... ... ... : --- .. 0 P80 ... ... : --- .. . P80 : ... .. 0 ... : ... .. . ... ...
ROW A9 : ... .. . ... ... ... : E-3 00 6 P7F ... ... : E-3 00 . P7C : ... .. 7 ... : ... .. . ... ...
ROW AA : ... .. . ... ... ... : ... .. . ... ... ... : ... .. . P79 : ... .. . ... : ... .. . ... ...
ROW AB : ... .. . ... ... ... : ... .. . ... ... ... : ... .. . P7C : ... .. 4 ... : ... .. . ... ...
ROW AC : ... .. . ... ... ... : ... .. . ... ... ... : ... .. . P7F : ... .. . ... : ... .. . ... ...
ROW AD : ... .. . ... ... ... : ... .. . ... ... ... : ... .. . P82 : ... .. . ... : ... .. . ... ...
ROW AE : ... .. . ... ... ... : --- .. 0 P80 ... ... : ... .. . P85 : ... .. 0 ... : ... .. . ... ...
ROW AF : ... .. 6 ... ... ... : E-3 00 6 P7F ... ... : ... .. . P82 : ... .. 7 ... : ... .. . ... ...
ROW B0 : ... .. . ... ... ... : ... .. . ... ... ... : ... .. . P7F : ... .. . ... : ... .. . ... ...
ROW B1 : ... .. . ... ... ... : ... .. . ... ... ... : ... .. . P7C : ... .. 4 ... : ... .. . ... ...
ROW B2 : ... .. . ... ... ... : ... .. . ... ... ... : ... .. . P79 : ... .. . ... : ... .. . ... ...
ROW B3 : ... .. . ... ... ... : ... .. . ... ... ... : ... .. . P7C : ... .. . ... : ... .. . ... ...
ROW B4 : ... .. . ... ... ... : --- .. 0 P80 ... ... : --- .. . P80 : ... .. 0 ... : ... .. . ... ...
ROW B5 : ... .. . ... ... ... : ... .. . ... ... ... : E-2 00 . P7C : ... .. 7 ... : ... .. . ... ...
ROW B6 : ... .. . ... ... ... : ... .. . ... ... ... : ... .. . P79 : ... .. . ... : ... .. . ... ...
ROW B7 : ... .. . ... ... ... : ... .. . ... ... ... : ... .. . P7C : ... .. 4 ... : ... .. . ... ...
ROW B8 : ... .. . ... ... ... : ... .. . ... ... ... : ... .. . P7F : ... .. . ... : ... .. . ... ...
ROW B9 : ... .. . ... ... ... : ... .. . ... ... ... : ... .. . P82 : ... .. . ... : ... .. . ... ...
ROW BA : ... .. . ... ... ... : --- .. . P80 ... ... : ... .. . P85 : ... .. 0 ... : ... .. . ... ...
ROW BB : ... .. . ... ... ... : E-3 00 6 P7F ... ... : ... .. . P82 : ... .. 7 ... : ... .. . ... ...
ROW BC : ... .. . ... ... ... : ... .. . ... ... ... : ... .. . P7F : ... .. . ... : ... .. . ... ...
ROW BD : ... .. . ... ... ... : ... .. . ... ... ... : ... .. . P7C : ... .. 4 ... : ... .. . ... ...
ROW BE : ... .. . ... ... ... : ... .. . ... ... ... : ... .. . P79 : ... .. . ... : ... .. . ... ...
ROW BF : ... .. . ... ... ... : ... .. . ... ... ... : ... .. . P7C : ... .. . ... : ... .. . ... ...
ROW C0 : --- .. 0 ... ... ... : --- .. 0 P80 ... ... : --- .. . P80 : ... .. 0 ... : ... .. . ... ...
ROW C1 : A-4 00 A P7F ... ... : A-3 00 6 P7F ... ... : A-2 00 . P7C : ... .. 7 ... : ... .. . ... ...
ROW C2 : ... .. . ... ... ... : ... .. . ... ... ... : ... .. . P79 : ... .. . ... : ... .. . ... ...
ROW C3 : --- .. 0 P80 ... ... : ... .. . ... ... ... : ... .. . P7C : ... .. 4 ... : ... .. . ... ...
ROW C4 : A-5 00 A ... ... ... : ... .. . ... ... ... : ... .. . P7F : ... .. . ... : ... .. . ... ...
ROW C5 : ... .. . ... ... ... : ... .. . ... ... ... : ... .. . P82 : ... .. . ... : ... .. . ... ...
ROW C6 : --- .. 0 ... ... ... : --- .. 0 P80 ... ... : ... .. . P85 : ... .. 1 ... : ... .. . ... ...
ROW C7 : ... .. . ... ... ... : A-3 00 6 P7F ... ... : ... .. . P82 : ... .. . ... : ... .. . ... ...
ROW C8 : ... .. . ... ... ... : ... .. . ... ... ... : ... .. . P7F : ... .. . ... : ... .. . ... ...
ROW C9 : --- .. . P80 ... ... : ... .. . ... ... ... : ... .. . P7C : ... .. 0 ... : ... .. . ... ...
ROW CA : A-5 00 9 ... ... ... : ... .. . ... ... ... : ... .. . P79 : ... .. . ... : ... .. . ... ...
ROW CB : ... .. . ... ... ... : ... .. . ... ... ... : ... .. . P7C : ... .. . ... : ... .. . ... ...
ROW CC : --- .. 0 ... ... ... : --- .. 0 P80 ... ... : --- .. . P80 : ... .. . ... : ... .. . ... ...
ROW CD : ... .. . ... ... ... : E-3 00 6 P7F ... ... : A-2 00 . P7C : ... .. 7 ... : ... .. . ... ...
ROW CE : ... .. . ... ... ... : ... .. . ... ... ... : ... .. . P79 : ... .. . ... : ... .. . ... ...
ROW CF : ... .. . ... ... ... : ... .. . ... ... ... : ... .. . P7C : ... .. 4 ... : ... .. . ... ...
ROW D0 : ... .. . ... ... ... : ... .. . ... ... ... : ... .. . P7F : ... .. . ... : ... .. . ... ...
ROW D1 : ... .. . ... ... ... : ... .. . ... ... ... : ... .. . P82 : ... .. . ... : ... .. . ... ...
ROW D2 : ... .. . ... ... ... : --- .. 0 P80 ... ... : ... .. . P85 : ... .. 0 ... : ... .. . ... ...
ROW D3 : ... .. . ... ... ... : G-3 00 6 P7F ... ... : ... .. . P82 : ... .. 7 ... : ... .. . ... ...
ROW D4 : ... .. . ... ... ... : ... .. . ... ... ... : ... .. . P7F : ... .. . ... : ... .. . ... ...
ROW D5 : ... .. . ... ... ... : ... .. . ... ... ... : ... .. . P7C : ... .. 4 ... : ... .. . ... ...
ROW D6 : ... .. . ... ... ... : ... .. . ... ... ... : ... .. . P79 : ... .. . ... : ... .. . ... ...
ROW D7 : ... .. . ... ... ... : ... .. . ... ... ... : ... .. . P7C : ... .. . ... : ... .. . ... ...
ROW D8 : ... .. . ... ... ... : --- .. 0 P80 ... ... : --- .. . P80 : ... .. 0 ... : ... .. . ... ...
ROW D9 : ... .. . ... ... ... : ... .. . ... ... ... : E-3 00 . P7C : ... .. 7 ... : ... .. . ... ...
ROW DA : ... .. . ... ... ... : ... .. . ... ... ... : ... .. . P79 : ... .. . ... : ... .. . ... ...
ROW DB : ... .. . ... ... ... : ... .. . ... ... ... : ... .. . P7C : ... .. 4 ... : ... .. . ... ...
ROW DC : ... .. . ... ... ... : ... .. . ... ... ... : ... .. . P7F : ... .. . ... : ... .. . ... ...
ROW DD : ... .. . ... ... ... : ... .. . ... ... ... : ... .. . P82 : ... .. . ... : ... .. . ... ...
ROW DE : ... .. . ... ... ... : --- .. . P80 ... ... : --- .. . P80 : ... .. 1 ... : ... .. . ... ...
ROW DF : ... .. . ... ... ... : A-3 00 6 P7F ... ... : E-3 00 . P7C : ... .. . ... : ... .. . ... ...
ROW E0 : ... .. . ... ... ... : ... .. . ... ... ... : ... .. . P79 : ... .. . ... : ... .. . ... ...
ROW E1 : ... .. . ... ... ... : ... .. . ... ... ... : ... .. . P7C : ... .. 0 ... : ... .. . ... ...
ROW E2 : ... .. . ... ... ... : ... .. . ... ... ... : ... .. . P7F : ... .. . ... : ... .. . ... ...
ROW E3 : ... .. . ... ... ... : ... .. . ... ... ... : ... .. . P82 : ... .. . ... : ... .. . ... ...
ROW E4 : --- .. . P80 ... ... : --- .. 0 P80 ... ... : ... .. . P85 : ... .. . ... : ... .. . ... ...
ROW E5 : ... .. . ... ... ... : E-3 00 6 P7F ... ... : ... .. . P82 : ... .. 7 ... : ... .. . ... ...
ROW E6 : ... .. . ... ... ... : ... .. . ... ... ... : ... .. . P7F : ... .. . ... : ... .. . ... ...
ROW E7 : ... .. . ... ... ... : ... .. . ... ... ... : ... .. . P7C : ... .. 4 ... : ... .. . ... ...
ROW E8 : ... .. . ... ... ... : ... .. . ... ... ... : ... .. . P79 : ... .. . ... : ... .. . ... ...
ROW E9 : ... .. . ... ... ... : ... .. . ... ... ... : ... .. . P7C : ... .. . ... : ... .. . ... ...
ROW EA : ... .. . ... ... ... : --- .. 0 P80 ... ... : --- .. . P80 : ... .. 0 ... : ... .. . ... ...
ROW EB : ... .. . ... ... ... : G-3 00 6 P7F ... ... : E-3 00 . P7C : ... .. 7 ... : ... .. . ... ...
ROW EC : ... .. . ... ... ... : ... .. . ... ... ... : ... .. . P79 : ... .. . ... : ... .. . ... ...
ROW ED : ... .. . ... ... ... : ... .. . ... ... ... : ... .. . P7C : ... .. 4 ... : ... .. . ... ...
ROW EE : ... .. . ... ... ... : ... .. . ... ... ... : ... .. . P7F : ... .. . ... : ... .. . ... ...
ROW EF : ... .. . ... ... ... : ... .. . ... ... ... : ... .. . P82 : ... .. . ... : ... .. . ... ...
ROW F0 : --- .. . P80 ... ... : --- .. 0 P80 ... ... : --- .. . P80 : ... .. 0 ... : ... .. . ... ...
ROW F1 : B-3 00 A P7F ... ... : ... .. . ... ... ... : A-2 00 . P7C : ... .. . ... : ... .. . ... ...
ROW F2 : ... .. . ... ... ... : ... .. . ... ... ... : ... .. . P79 : ... .. . ... : ... .. . ... ...
ROW F3 : ... .. . ... ... ... : ... .. . ... ... ... : ... .. . P7C : ... .. . ... : ... .. . ... ...
ROW F4 : ... .. . ... ... ... : ... .. . ... ... ... : ... .. . P7F : ... .. . ... : ... .. . ... ...
ROW F5 : ... .. . ... ... ... : ... .. . ... ... ... : ... .. . P82 : ... .. . ... : ... .. . ... ...
ROW F6 : --- .. 0 P80 ... ... : --- .. . P80 ... ... : --- .. . P80 : ... .. . ... : === 00 . ... ...
ROW F7 : C-4 00 A ... ... ... : A-3 00 6 P7F ... ... : A-2 00 . P7C : ... .. 7 ... : ... .. . ... ...
ROW F8 : ... .. . ... ... ... : ... .. . ... ... ... : ... .. . P79 : ... .. . ... : ... .. . ... ...
ROW F9 : ... .. . ... ... ... : ... .. . ... ... ... : ... .. . P7C : ... .. 4 ... : ... .. . ... ...
ROW FA : ... .. . ... ... ... : ... .. . ... ... ... : ... .. . P7F : ... .. . ... : ... .. . ... ...
ROW FB : ... .. . ... ... ... : ... .. . ... ... ... : ... .. . P82 : ... .. . ... : ... .. . ... ...
ROW FC : --- .. 0 ... ... ... : --- .. 0 P80 ... ... : ... .. . P85 : ... .. 0 ... : ... .. . ... ...
ROW FD : ... .. . ... ... ... : E-3 00 6 P7F ... ... : ... .. . P82 : ... .. 7 ... : ... .. . ... ...
ROW FE : ... .. . ... ... ... : ... .. . ... ... ... : ... .. . P7F : ... .. . ... : ... .. . ... ...
ROW FF : ... .. . ... ... ... : ... .. . ... ... ... : ... .. . P7C : ... .. 4 ... : ... .. . ... ...

PATTERN 04
ROW 00 : ... .. . ... ... ... : ... .. . ... ... ... : ... .. . P79 : ... .. . ... : ... .. . ... ...
ROW 01 : ... .. . ... ... ... : ... .. . ... ... ... : ... .. . P7C : ... .. . ... : ... .. . ... ...
ROW 02 : --- .. . P80 ... ... : --- .. 0 P80 ... ... : --- .. . P80 : ... .. 0 ... : ... .. . ... ...
ROW 03 : D-4 00 A P7F ... ... : G-3 00 6 P7F ... ... : A-2 00 . P7C : ... .. 7 ... : ... .. . ... ...
ROW 04 : ... .. . ... ... ... : ... .. . ... ... ... : ... .. . P79 : ... .. . ... : ... .. . ... ...
ROW 05 : ... .. . ... ... ... : ... .. . ... ... ... : ... .. . P7C : ... .. 4 ... : ... .. . ... ...
ROW 06 : ... .. . ... ... ... : ... .. . ... ... ... : ... .. . P7F : ... .. . ... : ... .. . ... ...
ROW 07 : ... .. . ... ... ... : ... .. . ... ... ... : ... .. . P82 : ... .. . ... : ... .. . ... ...
ROW 08 : --- .. 0 P80 ... ... : --- .. 0 P80 ... ... : --- .. . P80 : ... .. 0 ... : ... .. . ... ...
ROW 09 : ... .. . ... ... ... : A-3 00 6 P7F ... ... : E-3 00 . P7C : ... .. 7 ... : ... .. . ... ...
ROW 0A : ... .. . ... ... ... : ... .. . ... ... ... : ... .. . P79 : ... .. . ... : ... .. . ... ...
ROW 0B : ... .. . ... ... ... : ... .. . ... ... ... : ... .. . P7C : ... .. 4 ... : ... .. . ... ...
ROW 0C : ... .. . ... ... ... : ... .. . ... ... ... : ... .. . P7F : ... .. . ... : ... .. . ... ...
ROW 0D : ... .. . ... ... ... : ... .. . ... ... ... : ... .. . P82 : ... .. . ... : ... .. . ... ...
ROW 0E : --- .. . P80 ... ... : --- .. 0 P80 ... ... : ... .. . P85 : ... .. 1 ... : ... .. . ... ...
ROW 0F : C-4 00 A ... ... ... : A-3 00 6 P7F ... ... : ... .. . P82 : ... .. . ... : ... .. . ... ...
ROW 10 : ... .. . ... ... ... : ... .. . ... ... ... : ... .. . P7F : ... .. . ... : ... .. . ... ...
ROW 11 : ... .. . ... ... ... : ... .. . ... ... ... : ... .. . P7C : ... .. 0 ... : ... .. . ... ...
ROW 12 : ... .. . ... ... ... : ... .. . ... ... ... : ... .. . P79 : ... .. . ... : ... .. . ... ...
ROW 13 : ... .. . ... ... ... : ... .. . ... ... ... : ... .. . P7C : ... .. . ... : ... .. . ... ...
ROW 14 : --- .. 0 ... ... ... : --- .. 0 P80 ... ... : --- .. . P80 : ... .. . ... : ... .. . ... ...
ROW 15 : ... .. . ... ... ... : ... .. . ... ... ... : E-2 00 . P7C : ... .. 7 ... : ... .. . ... ...
ROW 16 : ... .. . ... ... ... : ... .. . ... ... ... : ... .. . P79 : ... .. . ... : ... .. . ... ...
ROW 17 : ... .. . ... ... ... : ... .. . ... ... ... : ... .. . P7C : ... .. 4 ... : ... .. . ... ...
ROW 18 : ... .. . ... ... ... : ... .. . ... ... ... : ... .. . P7F : ... .. . ... : ... .. . ... ...
ROW 19 : ... .. . ... ... ... : ... .. . ... ... ... : ... .. . P82 : ... .. . ... : ... .. . ... ...
ROW 1A : --- .. . P80 ... ... : --- .. . P80 ... ... : ... .. . P85 : ... .. 1 ... : ... .. . ... ...
ROW 1B : B-3 00 A P7F ... ... : A-3 00 6 P7F ... ... : ... .. . P82 : ... .. . ... : ... .. . ... ...
ROW 1C : ... .. . ... ... ... : ... .. . ... ... ... : ... .. . P7F : ... .. . ... : ... .. . ... ...
ROW 1D : ... .. . ... ... ... : ... .. . ... ... ... : ... .. . P7C : ... .. 0 ... : ... .. . ... ...
ROW 1E : ... .. . ... ... ... : ... .. . ... ... ... : ... .. . P79 : ... .. . ... : ... .. . ... ...
ROW 1F : ... .. . ... ... ... : ... .. . ... ... ... : ... .. . P7C : ... .. . ... : ... .. . ... ...
ROW 20 : --- .. 0 P80 ... ... : --- .. 0 P80 ... ... : --- .. . P80 : ... .. . ... : ... .. . ... ...
ROW 21 : ... .. . ... ... ... : A-3 00 6 P7F ... ... : A-2 00 . P7C : ... .. 7 ... : ... .. . ... ...
ROW 22 : ... .. . ... ... ... : ... .. . ... ... ... : ... .. . P79 : ... .. . ... : ... .. . ... ...
ROW 23 : ... .. . ... ... ... : ... .. . ... ... ... : ... .. . P7C : ... .. 4 ... : ... .. . ... ...
ROW 24 : ... .. . ... ... ... : ... .. . ... ... ... : ... .. . P7F : ... .. . ... : ... .. . ... ...
ROW 25 : ... .. . ... ... ... : ... .. . ... ... ... : ... .. . P82 : ... .. . ... : ... .. . ... ...
ROW 26 : --- .. . P80 ... ... : --- .. 0 P80 ... ... : ... .. . P85 : ... .. 1 ... : ... .. . ... ...
ROW 27 : C-4 00 A ... ... ... : A-3 00 6 P7F ... ... : ... .. . P82 : ... .. . ... : ... .. . ... ...
ROW 28 : ... .. . ... ... ... : ... .. . ... ... ... : ... .. . P7F : ... .. . ... : ... .. . ... ...
ROW 29 : ... .. . ... ... ... : ... .. . ... ... ... : ... .. . P7C : ... .. 0 ... : ... .. . ... ...
ROW 2A : ... .. . ... ... ... : ... .. . ... ... ... : ... .. . P79 : ... .. . ... : ... .. . ... ...
ROW 2B : ... .. . ... ... ... : ... .. . ... ... ... : ... .. . P7C : ... .. . ... : ... .. . ... ...
ROW 2C : --- .. 0 ... ... ... : --- .. 0 P80 ... ... : --- .. . P80 : ... .. . ... : ... .. . ... ...
ROW 2D : E-3 00 A P7F ... ... : E-3 00 6 P7F ... ... : A-2 00 . P7C : ... .. 7 ... : ... .. . ... ...
ROW 2E : ... .. . ... ... ... : ... .. . ... ... ... : ... .. . P79 : ... .. . ... : ... .. . ... ...
ROW 2F : ... .. . ... ... ... : ... .. . ... ... ... : ... .. . P7C : ... .. 4 ... : ... .. . ... ...
ROW 30 : ... .. . ... ... ... : ... .. . ... ... ... : ... .. . P7F : ... .. . ... : ... .. . ... ...
ROW 31 : ... .. . ... ... ... : ... .. . ... ... ... : ... .. . P82 : ... .. . ... : ... .. . ... ...
ROW 32 : ... .. . ... ... ... : --- .. 0 P80 ... ... : ... .. . P85 : ... .. 0 ... : ... .. . ... ...
ROW 33 : ... .. . ... ... ... : G-3 00 6 P7F ... ... : ... .. . P82 : ... .. 7 ... : ... .. . ... ...
ROW 34 : ... .. . ... ... ... : ... .. . ... ... ... : ... .. . P7F : ... .. . ... : ... .. . ... ...
ROW 35 : ... .. . ... ... ... : ... .. . ... ... ... : ... .. . P7C : ... .. 4 ... : ... .. . ... ...
ROW 36 : ... .. . ... ... ... : ... .. . ... ... ... : ... .. . P79 : ... .. . ... : ... .. . ... ...
ROW 37 : ... .. . ... ... ... : ... .. . ... ... ... : ... .. . P7C : ... .. . ... : ... .. . ... ...
ROW 38 : ... .. . ... ... ... : --- .. 0 P80 ... ... : --- .. . P80 : ... .. 0 ... : ... .. . ... ...
ROW 39 : E-3 00 A P7C ... ... : ... .. . ... ... ... : E-3 00 . P7C : ... .. 7 ... : ... .. . ... ...
ROW 3A : ... .. . P79 ... ... : ... .. . ... ... ... : ... .. . P79 : ... .. . ... : ... .. . ... ...
ROW 3B : ... .. . P7C ... ... : ... .. . ... ... ... : ... .. . P7C : ... .. 4 ... : ... .. . ... ...
ROW 3C : ... .. . P7F ... ... : ... .. . ... ... ... : ... .. . P7F : ... .. . ... : ... .. . ... ...
ROW 3D : ... .. . P82 ... ... : ... .. . ... ... ... : ... .. . P82 : ... .. . ... : ... .. . ... ...
ROW 3E : ... .. . P85 ... ... : --- .. . P80 ... ... : --- .. . P80 : ... .. 1 ... : ... .. . ... ...
ROW 3F : ... .. . P82 ... ... : A-3 00 6 P7F ... ... : E-3 00 . P7C : ... .. . ... : ... .. . ... ...
ROW 40 : ... .. . P7F ... ... : ... .. . ... ... ... : ... .. . P79 : ... .. . ... : ... .. . ... ...
ROW 41 : ... .. . P7C ... ... : ... .. . ... ... ... : ... .. . P7C : ... .. 0 ... : ... .. . ... ...
ROW 42 : ... .. . P79 ... ... : ... .. . ... ... ... : ... .. . P7F : ... .. . ... : ... .. . ... ...
ROW 43 : ... .. . P7C ... ... : ... .. . ... ... ... : ... .. . P82 : ... .. . ... : ... .. . ... ...
ROW 44 : ... .. . P7F ... ... : --- .. 0 P80 ... ... : ... .. . P85 : ... .. . ... : ... .. . ... ...
ROW 45 : ... .. . P82 ... ... : E-3 00 6 P7F ... ... : ... .. . P82 : ... .. 7 ... : ... .. . ... ...
ROW 46 : ... .. . P85 ... ... : ... .. . ... ... ... : ... .. . P7F : ... .. . ... : ... .. . ... ...
ROW 47 : ... .. . P82 ... ... : ... .. . ... ... ... : ... .. . P7C : ... .. 4 ... : ... .. . ... ...
ROW 48 : ... .. . P7F ... ... : ... .. . ... ... ... : ... .. . P79 : ... .. . ... : ... .. . ... ...
ROW 49 : ... .. . P7C ... ... : ... .. . ... ... ... : ... .. . P7C : ... .. . ... : ... .. . ... ...
ROW 4A : ... .. . P79 ... ... : --- .. 0 P80 ... ... : --- .. . P80 : ... .. 0 ... : ... .. . ... ...
ROW 4B : ... .. . P7C ... ... : G-3 00 6 P7F ... ... : E-3 00 . P7C : ... .. 7 ... : ... .. . ... ...
ROW 4C : ... .. . P7F ... ... : ... .. . ... ... ... : ... .. . P79 : ... .. . ... : ... .. . ... ...
ROW 4D : ... .. . P82 ... ... : ... .. . ... ... ... : ... .. . P7C : ... .. 4 ... : ... .. . ... ...
ROW 4E : ... .. . P85 ... ... : ... .. . ... ... ... : ... .. . P7F : ... .. . ... : ... .. . ... ...
ROW 4F : ... .. . P82 ... ... : ... .. . ... ... ... : ... .. . P82 : ... .. . ... : ... .. . ... ...
ROW 50 : ... .. . P7F ... ... : --- .. 0 P80 ... ... : --- .. . P80 : ... .. 0 ... : ... .. . ... ...
ROW 51 : ... .. . P7C ... ... : ... .. . ... ... ... : A-2 00 . P7C : ... .. . ... : ... .. . ... ...
ROW 52 : ... .. . P79 ... ... : ... .. . ... ... ... : ... .. . P79 : ... .. . ... : ... .. . ... ...
ROW 53 : ... .. . P7C ... ... : ... .. . ... ... ... : ... .. . P7C : ... .. . ... : ... .. . ... ...
ROW 54 : ... .. . P7F ... ... : ... .. . ... ... ... : ... .. . P7F : ... .. . ... : ... .. . ... ...
ROW 55 : ... .. . P82 ... ... : ... .. . ... ... ... : ... .. . P82 : ... .. . ... : ... .. . ... ...
ROW 56 : ... .. . P85 ... ... : --- .. . P80 ... ... : --- .. . P80 : ... .. . ... : === 00 . ... ...
ROW 57 : ... .. . P82 ... ... : A-3 00 6 P7F ... ... : A-2 00 . P7C : ... .. 7 ... : ... .. . ... ...
ROW 58 : ... .. . P7F ... ... : ... .. . ... ... ... : ... .. . P79 : ... .. . ... : ... .. . ... ...
ROW 59 : ... .. . P7C ... ... : ... .. . ... ... ... : ... .. . P7C : ... .. 4 ... : ... .. . ... ...
ROW 5A : ... .. . P79 ... ... : ... .. . ... ... ... : ... .. . P7F : ... .. . ... : ... .. . ... ...
ROW 5B : ... .. . P7C ... ... : ... .. . ... ... ... : ... .. . P82 : ... .. . ... : ... .. . ... ...
ROW 5C : ... .. . P7F ... ... : --- .. 0 P80 ... ... : ... .. . P85 : ... .. 0 ... : ... .. . ... ...
ROW 5D : ... .. . P82 ... ... : E-3 00 6 P7F ... ... : ... .. . P82 : ... .. 7 ... : ... .. . ... ...
ROW 5E : ... .. . P85 ... ... : ... .. . ... ... ... : ... .. . P7F : ... .. . ... : ... .. . ... ...
ROW 5F : ... .. . P82 ... ... : ... .. . ... ... ... : ... .. . P7C : ... .. 4 ... : ... .. . ... ...
ROW 60 : ... .. . P7F ... ... : ... .. . ... ... ... : ... .. . P79 : ... .. . ... : ... .. . ... ...
ROW 61 : ... .. . P7C ... ... : ... .. . ... ... ... : ... .. . P7C : ... .. . ... : ... .. . ... ...
ROW 62 : ... .. . P79 ... ... : --- .. 0 P80 ... ... : --- .. . P80 : ... .. 0 ... : ... .. . ... ...
ROW 63 : ... .. . P7C ... ... : G-3 00 6 P7F ... ... : A-2 00 . P7C : ... .. 7 ... : ... .. . ... ...
ROW 64 : ... .. . P7F ... ... : ... .. . ... ... ... : ... .. . P79 : ... .. . ... : ... .. . ... ...
ROW 65 : ... .. . P82 ... ... : ... .. . ... ... ... : ... .. . P7C : ... .. 4 ... : ... .. . ... ...
ROW 66 : ... .. . P85 ... ... : ... .. . ... ... ... : ... .. . P7F : ... .. . ... : ... .. . ... ...
ROW 67 : ... .. . P82 ... ... : ... .. . ... ... ... : ... .. . P82 : ... .. . ... : ... .. . ... ...
ROW 68 : ... .. . P7F ... ... : --- .. 0 P80 ... ... : --- .. . P80 : ... .. 0 ... : ... .. . ... ...
ROW 69 : ... .. . P7C ... ... : A-3 00 6 P7F ... ... : E-3 00 . P7C : ... .. 7 ... : ... .. . ... ...
ROW 6A : ... .. . P79 ... ... : ... .. . ... ... ... : ... .. . P79 : ... .. . ... : ... .. . ... ...
ROW 6B : ... .. . P7C ... ... : ... .. . ... ... ... : ... .. . P7C : ... .. 4 ... : ... .. . ... ...
ROW 6C : ... .. . P7F ... ... : ... .. . ... ... ... : ... .. . P7F : ... .. . ... : ... .. . ... ...
ROW 6D : ... .. . P82 ... ... : ... .. . ... ... ... : ... .. . P82 : ... .. . ... : ... .. . ... ...
ROW 6E : ... .. . P85 ... ... : --- .. 0 P80 ... ... : ... .. . P85 : ... .. 0 ... : ... .. . ... ...
ROW 6F : ... .. . P82 ... ... : A-3 00 6 P7F ... ... : ... .. . P82 : ... .. 7 ... : ... .. . ... ...
ROW 70 : ... .. . P7F ... ... : ... .. . ... ... ... : ... .. . P7F : ... .. . ... : ... .. . ... ...
ROW 71 : ... .. . P7C ... ... : ... .. . ... ... ... : ... .. . P7C : ... .. 4 ... : ... .. . ... ...
ROW 72 : ... .. . P79 ... ... : ... .. . ... ... ... : ... .. . P79 : ... .. . ... : ... .. . ... ...
ROW 73 : ... .. . P7C ... ... : ... .. . ... ... ... : ... .. . P7C : ... .. . ... : ... .. . ... ...
ROW 74 : ... .. . P7F ... ... : --- .. 0 P80 ... ... : --- .. . P80 : ... .. 0 ... : ... .. . ... ...
ROW 75 : ... .. . P82 ... ... : ... .. . ... ... ... : E-2 00 . P7C : ... .. 7 ... : ... .. . ... ...
ROW 76 : ... .. . P85 ... ... : ... .. . ... ... ... : ... .. . P79 : ... .. . ... : ... .. . ... ...
ROW 77 : ... .. . P82 ... ... : ... .. . ... ... ... : ... .. . P7C : ... .. 4 ... : ... .. . ... ...
ROW 78 : ... .. . P7F ... ... : ... .. . ... ... ... : ... .. . P7F : ... .. . ... : ... .. . ... ...
ROW 79 : ... .. . P7C ... ... : ... .. . ... ... ... : ... .. . P82 : ... .. . ... : ... .. . ... ...
ROW 7A : ... .. . P79 ... ... : --- .. . P80 ... ... : ... .. . P85 : ... .. 0 ... : ... .. . ... ...
ROW 7B : ... .. 6 P7C ... ... : A-3 00 6 P7F ... ... : ... .. . P82 : ... .. 7 ... : ... .. . ... ...
ROW 7C : ... .. . P7F ... ... : ... .. . ... ... ... : ... .. . P7F : ... .. . ... : ... .. . ... ...
ROW 7D : ... .. . P82 ... ... : ... .. . ... ... ... : ... .. . P7C : ... .. 4 ... : ... .. . ... ...
ROW 7E : ... .. . P85 ... ... : ... .. . ... ... ... : ... .. . P79 : ... .. . ... : ... .. . ... ...
ROW 7F : ... .. . P82 ... ... : ... .. . ... ... ... : ... .. . P7C : ... .. . ... : ... .. . ... ...
ROW 80 : --- .. 0 P80 ... ... : --- .. 0 P80 ... ... : --- .. . P80 : ... .. 0 ... : ... .. . ... ...
ROW 81 : A-4 00 A P7F ... ... : A-3 00 6 P7F ... ... : A-2 00 . P7C : ... .. 7 ... : ... .. . ... ...
ROW 82 : ... .. . ... ... ... : ... .. . ... ... ... : ... .. . P79 : ... .. . ... : ... .. . ... ...
ROW 83 : --- .. 0 P80 ... ... : ... .. . ... ... ... : ... .. . P7C : ... .. 4 ... : ... .. . ... ...
ROW 84 : A-5 00 A ... ... ... : ... .. . ... ... ... : ... .. . P7F : ... .. . ... : ... .. . ... ...
ROW 85 : ... .. . ... ... ... : ... .. . ... ... ... : ... .. . P82 : ... .. . ... : ... .. . ... ...
ROW 86 : --- .. 0 ... ... ... : --- .. 0 P80 ... ... : ... .. . P85 : ... .. 1 ... : ... .. . ... ...
ROW 87 : ... .. . ... ... ... : A-3 00 6 P7F ... ... : ... .. . P82 : ... .. . ... : ... .. . ... ...
ROW 88 : ... .. . ... ... ... : ... .. . ... ... ... : ... .. . P7F : ... .. . ... : ... .. . ... ...
ROW 89 : --- .. . P80 ... ... : ... .. . ... ... ... : ... .. . P7C : ... .. 0 ... : ... .. . ... ...
ROW 8A : A-5 00 7 ... ... ... : ... .. . ... ... ... : ... .. . P79 : ... .. . ... : ... .. . ... ...
ROW 8B : ... .. . ... ... ... : ... .. . ... ... ... : ... .. . P7C : ... .. . ... : ... .. . ... ...
ROW 8C : --- .. 0 ... ... ... : --- .. 0 P80 ... ... : --- .. . P80 : ... .. . ... : ... .. . ... ...
ROW 8D : ... .. . ... ... ... : E-3 00 6 P7F ... ... : A-2 00 . P7C : ... .. 7 ... : ... .. . ... ...
ROW 8E : ... .. . ... ... ... : ... .. . ... ... ... : ... .. . P79 : ... .. . ... : ... .. . ... ...
ROW 8F : ... .. . ... ... ... : ... .. . ... ... ... : ... .. . P7C : ... .. 4 ... : ... .. . ... ...
ROW 90 : ... .. . ... ... ... : ... .. . ... ... ... : ... .. . P7F : ... .. . ... : ... .. . ... ...
ROW 91 : ... .. . ... ... ... : ... .. . ... ... ... : ... .. . P82 : ... .. . ... : ... .. . ... ...
ROW 92 : ... .. . ... ... ... : --- .. 0 P80 ... ... : ... .. . P85 : ... .. 0 ... : ... .. . ... ...
ROW 93 : ... .. . ... ... ... : G-3 00 6 P7F ... ... : ... .. . P82 : ... .. 7 ... : ... .. . ... ...
ROW 94 : ... .. . ... ... ... : ... .. . ... ... ... : ... .. . P7F : ... .. . ... : ... .. . ... ...
ROW 95 : ... .. . ... ... ... : ... .. . ... ... ... : ... .. . P7C : ... .. 4 ... : ... .. . ... ...
ROW 96 : ... .. . ... ... ... : ... .. . ... ... ... : ... .. . P79 : ... .. . ... : ... .. . ... ...
ROW 97 : ... .. . ... ... ... : ... .. . ... ... ... : ... .. . P7C : ... .. . ... : ... .. . ... ...
ROW 98 : ... .. . ... ... ... : --- .. 0 P80 ... ... : --- .. . P80 : ... .. 0 ... : ... .. . ... ...
ROW 99 : ... .. . ... ... ... : ... .. . ... ... ... : E-3 00 . P7C : ... .. 7 ... : ... .. . ... ...
ROW 9A : ... .. . ... ... ... : ... .. . ... ... ... : ... .. . P79 : ... .. . ... : ... .. . ... ...
ROW 9B : ... .. . ... ... ... : ... .. . ... ... ... : ... .. . P7C : ... .. 4 ... : ... .. . ... ...
ROW 9C : ... .. . ... ... ... : ... .. . ... ... ... : ... .. . P7F : ... .. . ... : ... .. . ... ...
ROW 9D : ... .. . ... ... ... : ... .. . ... ... ... : ... .. . P82 : ... .. . ... : ... .. . ... ...
ROW 9E : ... .. . ... ... ... : --- .. . P80 ... ... : --- .. . P80 : ... .. 1 ... : ... .. . ... ...
ROW 9F : ... .. . ... ... ... : A-3 00 6 P7F ... ... : E-3 00 . P7C : ... .. . ... : ... .. . ... ...
ROW A0 : ... .. . ... ... ... : ... .. . ... ... ... : ... .. . P79 : ... .. . ... : ... .. . ... ...
ROW A1 : ... .. . ... ... ... : ... .. . ... ... ... : ... .. . P7C : ... .. 0 ... : ... .. . ... ...
ROW A2 : ... .. . ... ... ... : ... .. . ... ... ... : ... .. . P7F : ... .. . ... : ... .. . ... ...
ROW A3 : ... .. . ... ... ... : ... .. . ... ... ... : ... .. . P82 : ... .. . ... : ... .. . ... ...
ROW A4 : --- .. . P80 ... ... : --- .. 0 P80 ... ... : ... .. . P85 : ... .. . ... : ... .. . ... ...
ROW A5 : ... .. . ... ... ... : E-3 00 6 P7F ... ... : ... .. . P82 : ... .. 7 ... : ... .. . ... ...
ROW A6 : ... .. . ... ... ... : ... .. . ... ... ... : ... .. . P7F : ... .. . ... : ... .. . ... ...
ROW A7 : ... .. . ... ... ... : ... .. . ... ... ... : ... .. . P7C : ... .. 4 ... : ... .. . ... ...
ROW A8 : ... .. . ... ... ... : ... .. . ... ... ... : ... .. . P79 : ... .. . ... : ... .. . ... ...
ROW A9 : ... .. . ... ... ... : ... .. . ... ... ... : ... .. . P7C : ... .. . ... : ... .. . ... ...
ROW AA : ... .. . ... ... ... : --- .. 0 P80 ... ... : --- .. . P80 : ... .. 0 ... : ... .. . ... ...
ROW AB : ... .. . ... ... ... : G-3 00 6 P7F ... ... : E-3 00 . P7C : ... .. 7 ... : ... .. . ... ...
ROW AC : ... .. . ... ... ... : ... .. . ... ... ... : ... .. . P79 : ... .. . ... : ... .. . ... ...
ROW AD : ... .. . ... ... ... : ... .. . ... ... ... : ... .. . P7C : ... .. 4 ... : ... .. . ... ...
ROW AE : ... .. . ... ... ... : ... .. . ... ... ... : ... .. . P7F : ... .. . ... : ... .. . ... ...
ROW AF : ... .. . ... ... ... : ... .. . ... ... ... : ... .. . P82 : ... .. . ... : ... .. . ... ...
ROW B0 : --- .. . P80 ... ... : --- .. 0 P80 ... ... : --- .. . P80 : ... .. 0 ... : ... .. . ... ...
ROW B1 : B-3 00 9 P7F ... ... : ... .. . ... ... ... : A-2 00 . P7C : ... .. . ... : ... .. . ... ...
ROW B2 : ... .. . ... ... ... : ... .. . ... ... ... : ... .. . P79 : ... .. . ... : ... .. . ... ...
ROW B3 : ... .. . ... ... ... : ... .. . ... ... ... : ... .. . P7C : ... .. . ... : ... .. . ... ...
ROW B4 : ... .. . ... ... ... : ... .. . ... ... ... : ... .. . P7F : ... .. . ... : ... .. . ... ...
ROW B5 : ... .. . ... ... ... : ... .. . ... ... ... : ... .. . P82 : ... .. . ... : ... .. . ... ...
ROW B6 : --- .. 0 P80 ... ... : --- .. . P80 ... ... : --- .. . P80 : ... .. . ... : === 00 . ... ...
ROW B7 : C-4 00 9 ... ... ... : A-3 00 6 P7F ... ... : A-2 00 . P7C : ... .. 7 ... : ... .. . ... ...
ROW B8 : ... .. . ... ... ... : ... .. . ... ... ... : ... .. . P79 : ... .. . ... : ... .. . ... ...
ROW B9 : ... .. . ... ... ... : ... .. . ... ... ... : ... .. . P7C : ... .. 4 ... : ... .. . ... ...
ROW BA : ... .. . ... ... ... : ... .. . ... ... ... : ... .. . P7F : ... .. . ... : ... .. . ... ...
ROW BB : ... .. . ... ... ... : ... .. . ... ... ... : ... .. . P82 : ... .. . ... : ... .. . ... ...
ROW BC : --- .. 0 ... ... ... : --- .. 0 P80 ... ... : ... .. . P85 : ... .. 0 ... : ... .. . ... ...
ROW BD : ... .. . ... ... ... : E-3 00 6 P7F ... ... : ... .. . P82 : ... .. 7 ... : ... .. . ... ...
ROW BE : ... .. . ... ... ... : ... .. . ... ... ... : ... .. . P7F : ... .. . ... : ... .. . ... ...
ROW BF : ... .. . ... ... ... : ... .. . ... ... ... : ... .. . P7C : ... .. 4 ... : ... .. . ... ...
ROW C0 : ... .. . ... ... ... : ... .. . ... ... ... : ... .. . P79 : ... .. . ... : ... .. . ... ...
ROW C1 : ... .. . ... ... ... : ... .. . ... ... ... : ... .. . P7C : ... .. . ... : ... .. . ... ...
ROW C2 : --- .. . P80 ... ... : --- .. 0 P80 ... ... : --- .. . P80 : ... .. 0 ... : ... .. . ... ...
ROW C3 : D-4 00 9 P7F ... ... : G-3 00 6 P7F ... ... : A-2 00 . P7C : ... .. 7 ... : ... .. . ... ...
ROW C4 : ... .. . ... ... ... : ... .. . ... ... ... : ... .. . P79 : ... .. . ... : ... .. . ... ...
ROW C5 : ... .. . ... ... ... : ... .. . ... ... ... : ... .. . P7C : ... .. 4 ... : ... .. . ... ...
ROW C6 : ... .. . ... ... ... : ... .. . ... ... ... : ... .. . P7F : ... .. . ... : ... .. . ... ...
ROW C7 : ... .. . ... ... ... : ... .. . ... ... ... : ... .. . P82 : ... .. . ... : ... .. . ... ...
ROW C8 : --- .. 0 P80 ... ... : --- .. 0 P80 ... ... : --- .. . P80 : ... .. 0 ... : ... .. . ... ...
ROW C9 : ... .. . ... ... ... : A-3 00 6 P7F ... ... : E-3 00 . P7C : ... .. 7 ... : ... .. . ... ...
ROW CA : ... .. . ... ... ... : ... .. . ... ... ... : ... .. . P79 : ... .. . ... : ... .. . ... ...
ROW CB : ... .. . ... ... ... : ... .. . ... ... ... : ... .. . P7C : ... .. 4 ... : ... .. . ... ...
ROW CC : ... .. . ... ... ... : ... .. . ... ... ... : ... .. . P7F : ... .. . ... : ... .. . ... ...
ROW CD : ... .. . ... ... ... : ... .. . ... ... ... : ... .. . P82 : ... .. . ... : ... .. . ... ...
ROW CE : --- .. . P80 ... ... : --- .. 0 P80 ... ... : ... .. . P85 : ... .. 1 ... : ... .. . ... ...
ROW CF : C-4 00 9 ... ... ... : A-3 00 6 P7F ... ... : ... .. . P82 : ... .. . ... : ... .. . ... ...
ROW D0 : ... .. . ... ... ... : ... .. . ... ... ... : ... .. . P7F : ... .. . ... : ... .. . ... ...
ROW D1 : ... .. . ... ... ... : ... .. . ... ... ... : ... .. . P7C : ... .. 0 ... : ... .. . ... ...
ROW D2 : ... .. . ... ... ... : ... .. . ... ... ... : ... .. . P79 : ... .. . ... : ... .. . ... ...
ROW D3 : ... .. . ... ... ... : ... .. . ... ... ... : ... .. . P7C : ... .. . ... : ... .. . ... ...
ROW D4 : --- .. 0 ... ... ... : --- .. 0 P80 ... ... : --- .. . P80 : ... .. . ... : ... .. . ... ...
ROW D5 : ... .. . ... ... ... : ... .. . ... ... ... : E-2 00 . P7C : ... .. 7 ... : ... .. . ... ...
ROW D6 : ... .. . ... ... ... : ... .. . ... ... ... : ... .. . P79 : ... .. . ... : ... .. . ... ...
ROW D7 : ... .. . ... ... ... : ... .. . ... ... ... : ... .. . P7C : ... .. 4 ... : ... .. . ... ...
ROW D8 : ... .. . ... ... ... : ... .. . ... ... ... : ... .. . P7F : ... .. . ... : ... .. . ... ...
ROW D9 : ... .. . ... ... ... : ... .. . ... ... ... : ... .. . P82 : ... .. . ... : ... .. . ... ...
ROW DA : --- .. . P80 ... ... : --- .. . P80 ... ... : ... .. . P85 : ... .. 1 ... : ... .. . ... ...
ROW DB : B-3 00 9 P7F ... ... : A-3 00 6 P7F ... ... : ... .. . P82 : ... .. . ... : ... .. . ... ...
ROW DC : ... .. . ... ... ... : ... .. . ... ... ... : ... .. . P7F : ... .. . ... : ... .. . ... ...
ROW DD : ... .. . ... ... ... : ... .. . ... ... ... : ... .. . P7C : ... .. 0 ... : ... .. . ... ...
ROW DE : ... .. . ... ... ... : ... .. . ... ... ... : ... .. . P79 : ... .. . ... : ... .. . ... ...
ROW DF : ... .. . ... ... ... : ... .. . ... ... ... : ... .. . P7C : ... .. . ... : ... .. . ... ...
ROW E0 : --- .. 0 P80 ... ... : --- .. 0 P80 ... ... : --- .. . P80 : ... .. . ... : ... .. . ... ...
ROW E1 : ... .. . ... ... ... : A-3 00 6 P7F ... ... : A-2 00 . P7C : ... .. 7 ... : ... .. . ... ...
ROW E2 : ... .. . ... ... ... : ... .. . ... ... ... : ... .. . P79 : ... .. . ... : ... .. . ... ...
ROW E3 : ... .. . ... ... ... : ... .. . ... ... ... : ... .. . P7C : ... .. 4 ... : ... .. . ... ...
ROW E4 : ... .. . ... ... ... : ... .. . ... ... ... : ... .. . P7F : ... .. . ... : ... .. . ... ...
ROW E5 : ... .. . ... ... ... : ... .. . ... ... ... : ... .. . P82 : ... .. . ... : ... .. . ... ...
ROW E6 : --- .. . P80 ... ... : --- .. 0 P80 ... ... : ... .. . P85 : ... .. 1 ... : ... .. . ... ...
ROW E7 : D-4 00 9 P7F ... ... : A-3 00 6 P7F ... ... : ... .. . P82 : ... .. . ... : ... .. . ... ...
ROW E8 : ... .. . ... ... ... : ... .. . ... ... ... : ... .. . P7F : ... .. . ... : ... .. . ... ...
ROW E9 : ... .. . ... ... ... : ... .. . ... ... ... : ... .. . P7C : ... .. 0 ... : ... .. . ... ...
ROW EA : ... .. . ... ... ... : ... .. . ... ... ... : ... .. . P79 : ... .. . ... : ... .. . ... ...
ROW EB : ... .. . ... ... ... : ... .. . ... ... ... : ... .. . P7C : ... .. . ... : ... .. . ... ...
ROW EC : --- .. 0 P80 ... ... : --- .. 0 P80 ... ... : --- .. . P80 : ... .. . ... : ... .. . ... ...
ROW ED : E-4 00 9 ... ... ... : E-3 00 6 P7F ... ... : A-2 00 . P7C : ... .. 7 ... : ... .. . ... ...
ROW EE : ... .. . ... ... ... : ... .. . ... ... ... : ... .. . P79 : ... .. . ... : ... .. . ... ...
ROW EF : ... .. . ... ... ... : ... .. . ... ... ... : ... .. . P7C : ... .. 4 ... : ... .. . ... ...
ROW F0 : ... .. . ... ... ... : ... .. . ... ... ... : ... .. . P7F : ... .. . ... : ... .. . ... ...
ROW F1 : ... .. . ... ... ... : ... .. . ... ... ... : ... .. . P82 : ... .. . ... : ... .. . ... ...
ROW F2 : ... .. . ... ... ... : --- .. 0 P80 ... ... : ... .. . P85 : ... .. 0 ... : ... .. . ... ...
ROW F3 : ... .. . ... ... ... : G-3 00 6 P7F ... ... : ... .. . P82 : ... .. 7 ... : ... .. . ... ...
ROW F4 : ... .. . ... ... ... : ... .. . ... ... ... : ... .. . P7F : ... .. . ... : ... .. . ... ...
ROW F5 : ... .. . ... ... ... : ... .. . ... ... ... : ... .. . P7C : ... .. 4 ... : ... .. . ... ...
ROW F6 : ... .. . ... ... ... : ... .. . ... ... ... : ... .. . P79 : ... .. . ... : ... .. . ... ...
ROW F7 : ... .. . ... ... ... : ... .. . ... ... ... : ... .. . P7C : ... .. . ... : ... .. . ... ...
ROW F8 : ... .. . ... ... ... : --- .. 0 P80 ... ... : --- .. . P80 : ... .. 0 ... : ... .. . ... ...
ROW F9 : E-4 00 9 P7D ... ... : ... .. . ... ... ... : E-3 00 . P7C : ... .. 7 ... : ... .. . ... ...
ROW FA : D#4 00 9 P84 ... ... : ... .. . ... ... ... : ... .. . P79 : ... .. . ... : ... .. . ... ...
ROW FB : E-4 00 9 P7D ... ... : ... .. . ... ... ... : ... .. . P7C : ... .. 4 ... : ... .. . ... ...
ROW FC : ... .. . P80 ... ... : ... .. . ... ... ... : ... .. . P7F : ... .. . ... : ... .. . ... ...
ROW FD : ... .. . P83 ... ... : ... .. . ... ... ... : ... .. . P82 : ... .. . ... : ... .. . ... ...
ROW FE : F-4 00 9 P7C ... ... : --- .. . P80 ... ... : --- .. . P80 : ... .. 1 ... : ... .. . ... ...
ROW FF : E-4 00 9 P83 ... ... : A-3 00 6 P7F ... ... : E-3 00 . P7C : ... .. . ... : ... .. . ... ...

PATTERN 05
ROW 00 : ... .. . P80 ... ... : ... .. . ... ... ... : ... .. . P79 : ... .. . ... : ... .. . ... ...
ROW 01 : ... .. . P7D ... ... : ... .. . ... ... ... : ... .. . P7C : ... .. 0 ... : ... .. . ... ...
ROW 02 : D#4 00 9 P84 ... ... : ... .. . ... ... ... : ... .. . P7F : ... .. . ... : ... .. . ... ...
ROW 03 : E-4 00 9 P7D ... ... : ... .. . ... ... ... : ... .. . P82 : ... .. . ... : ... .. . ... ...
ROW 04 : ... .. . P80 ... ... : --- .. 0 P80 ... ... : ... .. . P85 : ... .. . ... : ... .. . ... ...
ROW 05 : ... .. . P83 ... ... : E-3 00 6 P7F ... ... : ... .. . P82 : ... .. 7 ... : ... .. . ... ...
ROW 06 : F-4 00 9 P7C ... ... : ... .. . ... ... ... : ... .. . P7F : ... .. . ... : ... .. . ... ...
ROW 07 : E-4 00 9 P83 ... ... : ... .. . ... ... ... : ... .. . P7C : ... .. 4 ... : ... .. . ... ...
ROW 08 : ... .. . P80 ... ... : ... .. . ... ... ... : ... .. . P79 : ... .. . ... : ... .. . ... ...
ROW 09 : ... .. . P7D ... ... : ... .. . ... ... ... : ... .. . P7C : ... .. . ... : ... .. . ... ...
ROW 0A : D#4 00 9 P84 ... ... : --- .. 0 P80 ... ... : --- .. . P80 : ... .. 0 ... : ... .. . ... ...
ROW 0B : E-4 00 9 P7D ... ... : G-3 00 6 P7F ... ... : E-3 00 . P7C : ... .. 7 ... : ... .. . ... ...
ROW 0C : ... .. . P80 ... ... : ... .. . ... ... ... : ... .. . P79 : ... .. . ... : ... .. . ... ...
ROW 0D : ... .. . P83 ... ... : ... .. . ... ... ... : ... .. . P7C : ... .. 4 ... : ... .. . ... ...
ROW 0E : F-4 00 9 P7C ... ... : ... .. . ... ... ... : ... .. . P7F : ... .. . ... : ... .. . ... ...
ROW 0F : E-4 00 9 P83 ... ... : ... .. . ... ... ... : ... .. . P82 : ... .. . ... : ... .. . ... ...
ROW 10 : ... .. . P80 ... ... : --- .. 0 P80 ... ... : --- .. . P80 : ... .. 0 ... : ... .. . ... ...
ROW 11 : ... .. . P7D ... ... : ... .. . ... ... ... : A-2 00 . P7C : ... .. . ... : ... .. . ... ...
ROW 12 : D#4 00 9 P84 ... ... : ... .. . ... ... ... : ... .. . P79 : ... .. . ... : ... .. . ... ...
ROW 13 : E-4 00 9 P7D ... ... : ... .. . ... ... ... : ... .. . P7C : ... .. . ... : ... .. . ... ...
ROW 14 : ... .. . P80 ... ... : ... .. . ... ... ... : ... .. . P7F : ... .. . ... : ... .. . ... ...
ROW 15 : ... .. . P83 ... ... : ... .. . ... ... ... : ... .. . P82 : ... .. . ... : ... .. . ... ...
ROW 16 : F-4 00 9 P7C ... ... : --- .. . P80 ... ... : --- .. . P80 : ... .. . ... : === 00 . ... ...
ROW 17 : E-4 00 9 P83 ... ... : A-3 00 6 P7F ... ... : A-2 00 . P7C : ... .. 7 ... : ... .. . ... ...
ROW 18 : ... .. . P80 ... ... : ... .. . ... ... ... : ... .. . P79 : ... .. . ... : ... .. . ... ...
ROW 19 : ... .. . P7D ... ... : ... .. . ... ... ... : ... .. . P7C : ... .. 4 ... : ... .. . ... ...
ROW 1A : D#4 00 9 P84 ... ... : ... .. . ... ... ... : ... .. . P7F : ... .. . ... : ... .. . ... ...
ROW 1B : E-4 00 9 P7D ... ... : ... .. . ... ... ... : ... .. . P82 : ... .. . ... : ... .. . ... ...
ROW 1C : ... .. . P80 ... ... : --- .. 0 P80 ... ... : ... .. . P85 : ... .. 0 ... : ... .. . ... ...
ROW 1D : ... .. . P83 ... ... : E-3 00 6 P7F ... ... : ... .. . P82 : ... .. 7 ... : ... .. . ... ...
ROW 1E : F-4 00 9 P7C ... ... : ... .. . ... ... ... : ... .. . P7F : ... .. . ... : ... .. . ... ...
ROW 1F : E-4 00 9 P83 ... ... : ... .. . ... ... ... : ... .. . P7C : ... .. 4 ... : ... .. . ... ...
ROW 20 : ... .. . P80 ... ... : ... .. . ... ... ... : ... .. . P79 : ... .. . ... : ... .. . ... ...
ROW 21 : ... .. . P7D ... ... : ... .. . ... ... ... : ... .. . P7C : ... .. . ... : ... .. . ... ...
ROW 22 : D#4 00 9 P84 ... ... : --- .. 0 P80 ... ... : --- .. . P80 : ... .. 0 ... : ... .. . ... ...
ROW 23 : E-4 00 9 P7D ... ... : G-3 00 6 P7F ... ... : A-2 00 . P7C : ... .. 7 ... : ... .. . ... ...
ROW 24 : ... .. . P80 ... ... : ... .. . ... ... ... : ... .. . P79 : ... .. . ... : ... .. . ... ...
ROW 25 : ... .. . P83 ... ... : ... .. . ... ... ... : ... .. . P7C : ... .. 4 ... : ... .. . ... ...
ROW 26 : F-4 00 9 P7C ... ... : ... .. . ... ... ... : ... .. . P7F : ... .. . ... : ... .. . ... ...
ROW 27 : E-4 00 9 P83 ... ... : ... .. . ... ... ... : ... .. . P82 : ... .. . ... : ... .. . ... ...
ROW 28 : ... .. . P80 ... ... : --- .. 0 P80 ... ... : --- .. . P80 : ... .. 0 ... : ... .. . ... ...
ROW 29 : ... .. . P7D ... ... : A-3 00 6 P7F ... ... : E-3 00 . P7C : ... .. 7 ... : ... .. . ... ...
ROW 2A : D#4 00 9 P84 ... ... : ... .. . ... ... ... : ... .. . P79 : ... .. . ... : ... .. . ... ...
ROW 2B : E-4 00 9 P7D ... ... : ... .. . ... ... ... : ... .. . P7C : ... .. 4 ... : ... .. . ... ...
ROW 2C : ... .. . P80 ... ... : ... .. . ... ... ... : ... .. . P7F : ... .. . ... : ... .. . ... ...
ROW 2D : ... .. . P83 ... ... : ... .. . ... ... ... : ... .. . P82 : ... .. . ... : ... .. . ... ...
ROW 2E : F-4 00 9 P7C ... ... : --- .. 0 P80 ... ... : ... .. . P85 : ... .. 0 ... : ... .. . ... ...
ROW 2F : E-4 00 9 P83 ... ... : A-3 00 6 P7F ... ... : ... .. . P82 : ... .. 7 ... : ... .. . ... ...
ROW 30 : ... .. . P80 ... ... : ... .. . ... ... ... : ... .. . P7F : ... .. . ... : ... .. . ... ...
ROW 31 : ... .. . P7D ... ... : ... .. . ... ... ... : ... .. . P7C : ... .. 4 ... : ... .. . ... ...
ROW 32 : D#4 00 9 P84 ... ... : ... .. . ... ... ... : ... .. . P79 : ... .. . ... : ... .. . ... ...
ROW 33 : E-4 00 9 P7D ... ... : ... .. . ... ... ... : ... .. . P7C : ... .. . ... : ... .. . ... ...
ROW 34 : ... .. . P80 ... ... : --- .. 0 P80 ... ... : --- .. . P80 : ... .. 0 ... : ... .. . ... ...
ROW 35 : ... .. . P83 ... ... : ... .. . ... ... ... : E-2 00 . P7C : ... .. 7 ... : ... .. . ... ...
ROW 36 : F-4 00 9 P7C ... ... : ... .. . ... ... ... : ... .. . P79 : ... .. . ... : ... .. . ... ...
ROW 37 : E-4 00 9 P83 ... ... : ... .. . ... ... ... : ... .. . P7C : ... .. 4 ... : ... .. . ... ...
ROW 38 : ... .. . P80 ... ... : ... .. . ... ... ... : ... .. . P7F : ... .. . ... : ... .. . ... ...
ROW 39 : ... .. . P7D ... ... : ... .. . ... ... ... : ... .. . P82 : ... .. . ... : ... .. . ... ...
ROW 3A : D#4 00 9 P84 ... ... : --- .. . P80 ... ... : ... .. . P85 : ... .. 0 ... : ... .. . ... ...
ROW 3B : E-4 00 5 P7D ... ... : A-3 00 6 P7F ... ... : ... .. . P82 : ... .. 7 ... : ... .. . ... ...
ROW 3C : ... .. . P80 ... ... : ... .. . ... ... ... : ... .. . P7F : ... .. . ... : ... .. . ... ...
ROW 3D : ... .. . P83 ... ... : ... .. . ... ... ... : ... .. . P7C : ... .. 4 ... : ... .. . ... ...
ROW 3E : F-4 00 5 P7C ... ... : ... .. . ... ... ... : ... .. . P79 : ... .. . ... : ... .. . ... ...
ROW 3F : E-4 00 5 P83 ... ... : ... .. . ... ... ... : ... .. . P7C : ... .. . ... : ... .. . ... ...
ROW 40 : --- .. 0 P80 ... ... : --- .. 0 P80 ... ... : --- .. . P80 : ... .. 0 ... : ... .. . ... ...
ROW 41 : F-4 00 9 P7F ... ... : D-3 00 6 P7F ... ... : D-2 00 . P7C : ... .. 7 ... : ... .. . ... ...
ROW 42 : ... .. . ... ... ... : ... .. . ... ... ... : ... .. . P79 : ... .. . ... : ... .. . ... ...
ROW 43 : ... .. . ... ... ... : ... .. . ... ... ... : ... .. . P7C : ... .. 4 ... : ... .. . ... ...
ROW 44 : ... .. . ... ... ... : ... .. . ... ... ... : ... .. . P7F : ... .. . ... : ... .. . ... ...
ROW 45 : ... .. . ... ... ... : ... .. . ... ... ... : ... .. . P82 : ... .. . ... : ... .. . ... ...
ROW 46 : --- .. 0 P80 ... ... : --- .. 0 P80 ... ... : ... .. . P85 : ... .. 1 ... : ... .. . ... ...
ROW 47 : ... .. . ... ... ... : D-3 00 6 P7F ... ... : ... .. . P82 : ... .. . ... : ... .. . ... ...
ROW 48 : ... .. . ... ... ... : ... .. . ... ... ... : ... .. . P7F : ... .. . ... : ... .. . ... ...
ROW 49 : ... .. . ... ... ... : ... .. . ... ... ... : ... .. . P7C : ... .. 0 ... : ... .. . ... ...
ROW 4A : ... .. . ... ... ... : ... .. . ... ... ... : ... .. . P79 : ... .. . ... : ... .. . ... ...
ROW 4B : ... .. . ... ... ... : ... .. . ... ... ... : ... .. . P7C : ... .. . ... : ... .. . ... ...
ROW 4C : --- .. . P80 ... ... : --- .. 0 P80 ... ... : --- .. . P80 : ... .. . ... : ... .. . ... ...
ROW 4D : ... .. . ... ... ... : A-2 00 6 P7F ... ... : D-2 00 . P7C : ... .. 7 ... : ... .. . ... ...
ROW 4E : ... .. . ... ... ... : ... .. . ... ... ... : ... .. . P79 : ... .. . ... : ... .. . ... ...
ROW 4F : ... .. . ... ... ... : ... .. . ... ... ... : ... .. . P7C : ... .. 4 ... : ... .. . ... ...
ROW 50 : ... .. . ... ... ... : ... .. . ... ... ... : ... .. . P7F : ... .. . ... : ... .. . ... ...
ROW 51 : ... .. . ... ... ... : ... .. . ... ... ... : ... .. . P82 : ... .. . ... : ... .. . ... ...
ROW 52 : ... .. . ... ... ... : --- .. 0 P80 ... ... : ... .. . P85 : ... .. 0 ... : ... .. . ... ...
ROW 53 : ... .. . ... ... ... : C-3 00 6 ... ... ... : ... .. . P82 : ... .. 7 ... : ... .. . ... ...
ROW 54 : ... .. . ... ... ... : ... .. . ... ... ... : ... .. . P7F : ... .. . ... : ... .. . ... ...
ROW 55 : ... .. . ... ... ... : ... .. . ... ... ... : ... .. . P7C : ... .. 4 ... : ... .. . ... ...
ROW 56 : ... .. . ... ... ... : ... .. . ... ... ... : ... .. . P79 : ... .. . ... : ... .. . ... ...
ROW 57 : ... .. . ... ... ... : ... .. . ... ... ... : ... .. . P7C : ... .. . ... : ... .. . ... ...
ROW 58 : --- .. . P80 ... ... : --- .. 0 ... ... ... : --- .. . P80 : ... .. 0 ... : ... .. . ... ...
ROW 59 : ... .. . ... ... ... : ... .. . ... ... ... : A-2 00 . P7C : ... .. 7 ... : ... .. . ... ...
ROW 5A : ... .. . ... ... ... : ... .. . ... ... ... : ... .. . P79 : ... .. . ... : ... .. . ... ...
ROW 5B : ... .. . ... ... ... : ... .. . ... ... ... : ... .. . P7C : ... .. 4 ... : ... .. . ... ...
ROW 5C : ... .. . ... ... ... : ... .. . ... ... ... : ... .. . P7F : ... .. . ... : ... .. . ... ...
ROW 5D : ... .. . ... ... ... : ... .. . ... ... ... : ... .. . P82 : ... .. . ... : ... .. . ... ...
ROW 5E : ... .. . ... ... ... : --- .. . P80 ... ... : --- .. . P80 : ... .. 1 ... : ... .. . ... ...
ROW 5F : ... .. . ... ... ... : D-3 00 6 P7F ... ... : A-2 00 . P7C : ... .. . ... : ... .. . ... ...
ROW 60 : ... .. . ... ... ... : ... .. . ... ... ... : ... .. . P79 : ... .. . ... : ... .. . ... ...
ROW 61 : ... .. . ... ... ... : ... .. . ... ... ... : ... .. . P7C : ... .. 0 ... : ... .. . ... ...
ROW 62 : ... .. . ... ... ... : ... .. . ... ... ... : ... .. . P7F : ... .. . ... : ... .. . ... ...
ROW 63 : ... .. . ... ... ... : ... .. . ... ... ... : ... .. . P82 : ... .. . ... : ... .. . ... ...
ROW 64 : ... .. . ... ... ... : --- .. 0 P80 ... ... : ... .. . P85 : ... .. . ... : ... .. . ... ...
ROW 65 : ... .. . ... ... ... : A-2 00 6 P7F ... ... : ... .. . P82 : ... .. 7 ... : ... .. . ... ...
ROW 66 : ... .. . ... ... ... : ... .. . ... ... ... : ... .. . P7F : ... .. . ... : ... .. . ... ...
ROW 67 : ... .. . ... ... ... : ... .. . ... ... ... : ... .. . P7C : ... .. 4 ... : ... .. . ... ...
ROW 68 : ... .. . ... ... ... : ... .. . ... ... ... : ... .. . P79 : ... .. . ... : ... .. . ... ...
ROW 69 : ... .. . ... ... ... : ... .. . ... ... ... : ... .. . P7C : ... .. . ... : ... .. . ... ...
ROW 6A : ... .. . ... ... ... : --- .. 0 P80 ... ... : --- .. . P80 : ... .. 0 ... : ... .. . ... ...
ROW 6B : ... .. . ... ... ... : C-3 00 6 ... ... ... : A-2 00 . P7C : ... .. 7 ... : ... .. . ... ...
ROW 6C : ... .. . ... ... ... : ... .. . ... ... ... : ... .. . P79 : ... .. . ... : ... .. . ... ...
ROW 6D : ... .. . ... ... ... : ... .. . ... ... ... : ... .. . P7C : ... .. 4 ... : ... .. . ... ...
ROW 6E : ... .. . ... ... ... : ... .. . ... ... ... : ... .. . P7F : ... .. . ... : ... .. . ... ...
ROW 6F : ... .. . ... ... ... : ... .. . ... ... ... : ... .. . P82 : ... .. . ... : ... .. . ... ...
ROW 70 : --- .. . P80 ... ... : --- .. 0 ... ... ... : --- .. . P80 : ... .. 0 ... : ... .. . ... ...
ROW 71 : F-4 00 9 P7F ... ... : ... .. . ... ... ... : D-2 00 . P7C : ... .. . ... : ... .. . ... ...
ROW 72 : ... .. . ... ... ... : ... .. . ... ... ... : ... .. . P79 : ... .. . ... : ... .. . ... ...
ROW 73 : ... .. . ... ... ... : ... .. . ... ... ... : ... .. . P7C : ... .. . ... : ... .. . ... ...
ROW 74 : ... .. . ... ... ... : ... .. . ... ... ... : ... .. . P7F : ... .. . ... : ... .. . ... ...
ROW 75 : ... .. . ... ... ... : ... .. . ... ... ... : ... .. . P82 : ... .. . ... : ... .. . ... ...
ROW 76 : --- .. 0 P80 ... ... : --- .. . P80 ... ... : --- .. . P80 : ... .. . ... : === 00 . ... ...
ROW 77 : G-4 00 9 ... ... ... : D-3 00 6 P7F ... ... : D-2 00 . P7C : ... .. 7 ... : ... .. . ... ...
ROW 78 : ... .. . ... ... ... : ... .. . ... ... ... : ... .. . P79 : ... .. . ... : ... .. . ... ...
ROW 79 : ... .. . ... ... ... : ... .. . ... ... ... : ... .. . P7C : ... .. 4 ... : ... .. . ... ...
ROW 7A : ... .. . ... ... ... : ... .. . ... ... ... : ... .. . P7F : ... .. . ... : ... .. . ... ...
ROW 7B : ... .. . ... ... ... : ... .. . ... ... ... : ... .. . P82 : ... .. . ... : ... .. . ... ...
ROW 7C : --- .. 0 ... ... ... : --- .. 0 P80 ... ... : ... .. . P85 : ... .. 0 ... : ... .. . ... ...
ROW 7D : ... .. . ... ... ... : A-2 00 6 P7F ... ... : ... .. . P82 : ... .. 7 ... : ... .. . ... ...
ROW 7E : ... .. . ... ... ... : ... .. . ... ... ... : ... .. . P7F : ... .. . ... : ... .. . ... ...
ROW 7F : ... .. . ... ... ... : ... .. . ... ... ... : ... .. . P7C : ... .. 4 ... : ... .. . ... ...
ROW 80 : ... .. . ... ... ... : ... .. . ... ... ... : ... .. . P79 : ... .. . ... : ... .. . ... ...
ROW 81 : ... .. . ... ... ... : ... .. . ... ... ... : ... .. . P7C : ... .. . ... : ... .. . ... ...
ROW 82 : --- .. . P80 ... ... : --- .. 0 P80 ... ... : --- .. . P80 : ... .. 0 ... : ... .. . ... ...
ROW 83 : F-4 00 9 P7F ... ... : C-3 00 6 ... ... ... : D-2 00 . P7C : ... .. 7 ... : ... .. . ... ...
ROW 84 : ... .. . ... ... ... : ... .. . ... ... ... : ... .. . P79 : ... .. . ... : ... .. . ... ...
ROW 85 : ... .. . ... ... ... : ... .. . ... ... ... : ... .. . P7C : ... .. 4 ... : ... .. . ... ...
ROW 86 : ... .. . ... ... ... : ... .. . ... ... ... : ... .. . P7F : ... .. . ... : ... .. . ... ...
ROW 87 : ... .. . ... ... ... : ... .. . ... ... ... : ... .. . P82 : ... .. . ... : ... .. . ... ...
ROW 88 : --- .. 0 P80 ... ... : --- .. 0 ... ... ... : --- .. . P80 : ... .. 0 ... : ... .. . ... ...
ROW 89 : ... .. . ... ... ... : D-3 00 6 P7F ... ... : A-2 00 . P7C : ... .. 7 ... : ... .. . ... ...
ROW 8A : ... .. . ... ... ... : ... .. . ... ... ... : ... .. . P79 : ... .. . ... : ... .. . ... ...
ROW 8B : ... .. . ... ... ... : ... .. . ... ... ... : ... .. . P7C : ... .. 4 ... : ... .. . ... ...
ROW 8C : ... .. . ... ... ... : ... .. . ... ... ... : ... .. . P7F : ... .. . ... : ... .. . ... ...
ROW 8D : ... .. . ... ... ... : ... .. . ... ... ... : ... .. . P82 : ... .. . ... : ... .. . ... ...
ROW 8E : --- .. . P80 ... ... : --- .. 0 P80 ... ... : ... .. . P85 : ... .. 1 ... : ... .. . ... ...
ROW 8F : E-4 00 9 ... ... ... : D-3 00 6 P7F ... ... : ... .. . P82 : ... .. . ... : ... .. . ... ...
ROW 90 : ... .. . ... ... ... : ... .. . ... ... ... : ... .. . P7F : ... .. . ... : ... .. . ... ...
ROW 91 : ... .. . ... ... ... : ... .. . ... ... ... : ... .. . P7C : ... .. 0 ... : ... .. . ... ...
ROW 92 : ... .. . ... ... ... : ... .. . ... ... ... : ... .. . P79 : ... .. . ... : ... .. . ... ...
ROW 93 : ... .. . ... ... ... : ... .. . ... ... ... : ... .. . P7C : ... .. . ... : ... .. . ... ...
ROW 94 : --- .. 0 ... ... ... : --- .. 0 P80 ... ... : --- .. . P80 : ... .. . ... : ... .. . ... ...
ROW 95 : ... .. . ... ... ... : ... .. . ... ... ... : D-2 00 . P7C : ... .. 7 ... : ... .. . ... ...
ROW 96 : ... .. . ... ... ... : ... .. . ... ... ... : ... .. . P79 : ... .. . ... : ... .. . ... ...
ROW 97 : ... .. . ... ... ... : ... .. . ... ... ... : ... .. . P7C : ... .. 4 ... : ... .. . ... ...
ROW 98 : ... .. . ... ... ... : ... .. . ... ... ... : ... .. . P7F : ... .. . ... : ... .. . ... ...
ROW 99 : ... .. . ... ... ... : ... .. . ... ... ... : ... .. . P82 : ... .. . ... : ... .. . ... ...
ROW 9A : --- .. . P80 ... ... : --- .. . P80 ... ... : ... .. . P85 : ... .. 1 ... : ... .. . ... ...
ROW 9B : D-4 00 9 P7F ... ... : D-3 00 6 P7F ... ... : ... .. . P82 : ... .. . ... : ... .. . ... ...
ROW 9C : ... .. . ... ... ... : ... .. . ... ... ... : ... .. . P7F : ... .. . ... : ... .. . ... ...
ROW 9D : ... .. . ... ... ... : ... .. . ... ... ... : ... .. . P7C : ... .. 0 ... : ... .. . ... ...
ROW 9E : ... .. . ... ... ... : ... .. . ... ... ... : ... .. . P79 : ... .. . ... : ... .. . ... ...
ROW 9F : ... .. . ... ... ... : ... .. . ... ... ... : ... .. . P7C : ... .. . ... : ... .. . ... ...
ROW A0 : --- .. 0 P80 ... ... : --- .. 0 P80 ... ... : --- .. . P80 : ... .. . ... : ... .. . ... ...
ROW A1 : E-4 00 9 ... ... ... : A-3 00 6 P7F ... ... : A-2 00 . P7C : ... .. 7 ... : ... .. . ... ...
ROW A2 : ... .. . ... ... ... : ... .. . ... ... ... : ... .. . P79 : ... .. . ... : ... .. . ... ...
ROW A3 : ... .. . ... ... ... : ... .. . ... ... ... : ... .. . P7C : ... .. 4 ... : ... .. . ... ...
ROW A4 : ... .. . ... ... ... : ... .. . ... ... ... : ... .. . P7F : ... .. . ... : ... .. . ... ...
ROW A5 : ... .. . ... ... ... : ... .. . ... ... ... : ... .. . P82 : ... .. . ... : ... .. . ... ...
ROW A6 : --- .. 0 ... ... ... : --- .. 0 P80 ... ... : ... .. . P85 : ... .. 1 ... : ... .. . ... ...
ROW A7 : ... .. . ... ... ... : A-3 00 6 P7F ... ... : ... .. . P82 : ... .. . ... : ... .. . ... ...
ROW A8 : ... .. . ... ... ... : ... .. . ... ... ... : ... .. . P7F : ... .. . ... : ... .. . ... ...
ROW A9 : ... .. . ... ... ... : ... .. . ... ... ... : ... .. . P7C : ... .. 0 ... : ... .. . ... ...
ROW AA : ... .. . ... ... ... : ... .. . ... ... ... : ... .. . P79 : ... .. . ... : ... .. . ... ...
ROW AB : ... .. . ... ... ... : ... .. . ... ... ... : ... .. . P7C : ... .. . ... : ... .. . ... ...
ROW AC : --- .. . P80 ... ... : --- .. 0 P80 ... ... : --- .. . P80 : ... .. . ... : ... .. . ... ...
ROW AD : ... .. . ... ... ... : E-3 00 6 P7F ... ... : A-2 00 . P7C : ... .. 7 ... : ... .. . ... ...
ROW AE : ... .. . ... ... ... : ... .. . ... ... ... : ... .. . P79 : ... .. . ... : ... .. . ... ...
ROW AF : ... .. . ... ... ... : ... .. . ... ... ... : ... .. . P7C : ... .. 4 ... : ... .. . ... ...
ROW B0 : ... .. . ... ... ... : ... .. . ... ... ... : ... .. . P7F : ... .. . ... : ... .. . ... ...
ROW B1 : ... .. . ... ... ... : ... .. . ... ... ... : ... .. . P82 : ... .. . ... : ... .. . ... ...
ROW B2 : ... .. . ... ... ... : --- .. 0 P80 ... ... : ... .. . P85 : ... .. 0 ... : ... .. . ... ...
ROW B3 : ... .. . ... ... ... : G-3 00 6 P7F ... ... : ... .. . P82 : ... .. 7 ... : ... .. . ... ...
ROW B4 : ... .. . ... ... ... : ... .. . ... ... ... : ... .. . P7F : ... .. . ... : ... .. . ... ...
ROW B5 : ... .. . ... ... ... : ... .. . ... ... ... : ... .. . P7C : ... .. 4 ... : ... .. . ... ...
ROW B6 : ... .. . ... ... ... : ... .. . ... ... ... : ... .. . P79 : ... .. . ... : ... .. . ... ...
ROW B7 : ... .. . ... ... ... : ... .. . ... ... ... : ... .. . P7C : ... .. . ... : ... .. . ... ...
ROW B8 : --- .. . P80 ... ... : --- .. 0 P80 ... ... : --- .. . P80 : ... .. 0 ... : ... .. . ... ...
ROW B9 : ... .. . ... ... ... : ... .. . ... ... ... : E-3 00 . P7C : ... .. 7 ... : ... .. . ... ...
ROW BA : ... .. . ... ... ... : ... .. . ... ... ... : ... .. . P79 : ... .. . ... : ... .. . ... ...
ROW BB : ... .. . ... ... ... : ... .. . ... ... ... : ... .. . P7C : ... .. 4 ... : ... .. . ... ...
ROW BC : ... .. . ... ... ... : ... .. . ... ... ... : ... .. . P7F : ... .. . ... : ... .. . ... ...
ROW BD : ... .. . ... ... ... : ... .. . ... ... ... : ... .. . P82 : ... .. . ... : ... .. . ... ...
ROW BE : ... .. . ... ... ... : --- .. . P80 ... ... : --- .. . P80 : ... .. 1 ... : ... .. . ... ...
ROW BF : ... .. . ... ... ... : A-3 00 6 P7F ... ... : E-3 00 . P7C : ... .. . ... : ... .. . ... ...
ROW C0 : ... .. . ... ... ... : ... .. . ... ... ... : ... .. . P79 : ... .. . ... : ... .. . ... ...
ROW C1 : ... .. . ... ... ... : ... .. . ... ... ... : ... .. . P7C : ... .. 0 ... : ... .. . ... ...
ROW C2 : ... .. . ... ... ... : ... .. . ... ... ... : ... .. . P7F : ... .. . ... : ... .. . ... ...
ROW C3 : ... .. . ... ... ... : ... .. . ... ... ... : ... .. . P82 : ... .. . ... : ... .. . ... ...
ROW C4 : ... .. . ... ... ... : --- .. 0 P80 ... ... : ... .. . P85 : ... .. . ... : ... .. . ... ...
ROW C5 : ... .. . ... ... ... : E-3 00 6 P7F ... ... : ... .. . P82 : ... .. 7 ... : ... .. . ... ...
ROW C6 : ... .. . ... ... ... : ... .. . ... ... ... : ... .. . P7F : ... .. . ... : ... .. . ... ...
ROW C7 : ... .. . ... ... ... : ... .. . ... ... ... : ... .. . P7C : ... .. 4 ... : ... .. . ... ...
ROW C8 : ... .. . ... ... ... : ... .. . ... ... ... : ... .. . P79 : ... .. . ... : ... .. . ... ...
ROW C9 : ... .. . ... ... ... : ... .. . ... ... ... : ... .. . P7C : ... .. . ... : ... .. . ... ...
ROW CA : ... .. . ... ... ... : --- .. 0 P80 ... ... : --- .. . P80 : ... .. 0 ... : ... .. . ... ...
ROW CB : ... .. . ... ... ... : G-3 00 6 P7F ... ... : E-3 00 . P7C : ... .. 7 ... : ... .. . ... ...
ROW CC : ... .. . ... ... ... : ... .. . ... ... ... : ... .. . P79 : ... .. . ... : ... .. . ... ...
ROW CD : ... .. . ... ... ... : ... .. . ... ... ... : ... .. . P7C : ... .. 4 ... : ... .. . ... ...
ROW CE : ... .. . ... ... ... : ... .. . ... ... ... : ... .. . P7F : ... .. . ... : ... .. . ... ...
ROW CF : ... .. . ... ... ... : ... .. . ... ... ... : ... .. . P82 : ... .. . ... : ... .. . ... ...
ROW D0 : --- .. . P80 ... ... : --- .. 0 P80 ... ... : --- .. . P80 : ... .. 0 ... : ... .. . ... ...
ROW D1 : E-4 00 9 ... ... ... : ... .. . ... ... ... : A-2 00 . P7C : ... .. . ... : ... .. . ... ...
ROW D2 : ... .. . ... ... ... : ... .. . ... ... ... : ... .. . P79 : ... .. . ... : ... .. . ... ...
ROW D3 : ... .. . ... ... ... : ... .. . ... ... ... : ... .. . P7C : ... .. . ... : ... .. . ... ...
ROW D4 : ... .. . ... ... ... : ... .. . ... ... ... : ... .. . P7F : ... .. . ... : ... .. . ... ...
ROW D5 : ... .. . ... ... ... : ... .. . ... ... ... : ... .. . P82 : ... .. . ... : ... .. . ... ...
ROW D6 : --- .. 0 ... ... ... : --- .. . P80 ... ... : --- .. . P80 : ... .. . ... : === 00 . ... ...
ROW D7 : F-4 00 9 P7F ... ... : A-3 00 6 P7F ... ... : A-2 00 . P7C : ... .. 7 ... : ... .. . ... ...
ROW D8 : ... .. . ... ... ... : ... .. . ... ... ... : ... .. . P79 : ... .. . ... : ... .. . ... ...
ROW D9 : ... .. . ... ... ... : ... .. . ... ... ... : ... .. . P7C : ... .. 4 ... : ... .. . ... ...
ROW DA : ... .. . ... ... ... : ... .. . ... ... ... : ... .. . P7F : ... .. . ... : ... .. . ... ...
ROW DB : ... .. . ... ... ... : ... .. . ... ... ... : ... .. . P82 : ... .. . ... : ... .. . ... ...
ROW DC : --- .. 0 P80 ... ... : --- .. 0 P80 ... ... : ... .. . P85 : ... .. 0 ... : ... .. . ... ...
ROW DD : ... .. . ... ... ... : E-3 00 6 P7F ... ... : ... .. . P82 : ... .. 7 ... : ... .. . ... ...
ROW DE : ... .. . ... ... ... : ... .. . ... ... ... : ... .. . P7F : ... .. . ... : ... .. . ... ...
ROW DF : ... .. . ... ... ... : ... .. . ... ... ... : ... .. . P7C : ... .. 4 ... : ... .. . ... ...
ROW E0 : ... .. . ... ... ... : ... .. . ... ... ... : ... .. . P79 : ... .. . ... : ... .. . ... ...
ROW E1 : ... .. . ... ... ... : ... .. . ... ... ... : ... .. . P7C : ... .. . ... : ... .. . ... ...
ROW E2 : --- .. . P80 ... ... : --- .. 0 P80 ... ... : --- .. . P80 : ... .. 0 ... : ... .. . ... ...
ROW E3 : E-4 00 9 ... ... ... : G-3 00 6 P7F ... ... : A-2 00 . P7C : ... .. 7 ... : ... .. . ... ...
ROW E4 : ... .. . ... ... ... : ... .. . ... ... ... : ... .. . P79 : ... .. . ... : ... .. . ... ...
ROW E5 : ... .. . ... ... ... : ... .. . ... ... ... : ... .. . P7C : ... .. 4 ... : ... .. . ... ...
ROW E6 : ... .. . ... ... ... : ... .. . ... ... ... : ... .. . P7F : ... .. . ... : ... .. . ... ...
ROW E7 : ... .. . ... ... ... : ... .. . ... ... ... : ... .. . P82 : ... .. . ... : ... .. . ... ...
ROW E8 : --- .. 0 ... ... ... : --- .. 0 P80 ... ... : --- .. . P80 : ... .. 0 ... : ... .. . ... ...
ROW E9 : ... .. . ... ... ... : A-3 00 6 P7F ... ... : E-3 00 . P7C : ... .. 7 ... : ... .. . ... ...
ROW EA : ... .. . ... ... ... : ... .. . ... ... ... : ... .. . P79 : ... .. . ... : ... .. . ... ...
ROW EB : ... .. . ... ... ... : ... .. . ... ... ... : ... .. . P7C : ... .. 4 ... : ... .. . ... ...
ROW EC : ... .. . ... ... ... : ... .. . ... ... ... : ... .. . P7F : ... .. . ... : ... .. . ... ...
ROW ED : ... .. . ... ... ... : ... .. . ... ... ... : ... .. . P82 : ... .. . ... : ... .. . ... ...
ROW EE : --- .. . P80 ... ... : --- .. 0 P80 ... ... : ... .. . P85 : ... .. 0 ... : ... .. . ... ...
ROW EF : D-4 00 9 P7F ... ... : A-3 00 6 P7F ... ... : ... .. . P82 : ... .. 7 ... : ... .. . ... ...
ROW F0 : ... .. . ... ... ... : ... .. . ... ... ... : ... .. . P7F : ... .. . ... : ... .. . ... ...
ROW F1 : ... .. . ... ... ... : ... .. . ... ... ... : ... .. . P7C : ... .. 4 ... : ... .. . ... ...
ROW F2 : ... .. . ... ... ... : ... .. . ... ... ... : ... .. . P79 : ... .. . ... : ... .. . ... ...
ROW F3 : ... .. . ... ... ... : ... .. . ... ... ... : ... .. . P7C : ... .. . ... : ... .. . ... ...
ROW F4 : --- .. 0 P80 ... ... : --- .. 0 P80 ... ... : --- .. . P80 : ... .. 0 ... : ... .. . ... ...
ROW F5 : ... .. . ... ... ... : ... .. . ... ... ... : E-2 00 . P7C : ... .. 7 ... : ... .. . ... ...
ROW F6 : ... .. . ... ... ... : ... .. . ... ... ... : ... .. . P79 : ... .. . ... : ... .. . ... ...
ROW F7 : ... .. . ... ... ... : ... .. . ... ... ... : ... .. . P7C : ... .. 4 ... : ... .. . ... ...
ROW F8 : ... .. . ... ... ... : ... .. . ... ... ... : ... .. . P7F : ... .. . ... : ... .. . ... ...
ROW F9 : ... .. . ... ... ... : ... .. . ... ... ... : ... .. . P82 : ... .. . ... : ... .. . ... ...
ROW FA : --- .. . P80 ... ... : --- .. . P80 ... ... : ... .. . P85 : ... .. 0 ... : ... .. . ... ...
ROW FB : C-4 00 9 ... ... ... : A-3 00 6 P7F ... ... : ... .. . P82 : ... .. 7 ... : ... .. . ... ...
ROW FC : ... .. . ... ... ... : ... .. . ... ... ... : ... .. . P7F : ... .. . ... : ... .. . ... ...
ROW FD : ... .. . ... ... ... : ... .. . ... ... ... : ... .. . P7C : ... .. 4 ... : ... .. . ... ...
ROW FE : ... .. . ... ... ... : ... .. . ... ... ... : ... .. . P79 : ... .. . ... : ... .. . ... ...
ROW FF : ... .. . ... ... ... : ... .. . ... ... ... : ... .. . P7C : ... .. . ... : ... .. . ... ...

PATTERN 06
ROW 00 : --- .. 0 ... ... ... : --- .. 0 P80 ... ... : --- .. . P80 : ... .. 0 ... : ... .. . ... ...
ROW 01 : B-3 00 9 P7F ... ... : B-2 00 6 P7F ... ... : F#2 00 . P7C : ... .. 7 ... : ... .. . ... ...
ROW 02 : ... .. . ... ... ... : ... .. . ... ... ... : ... .. . P79 : ... .. . ... : ... .. . ... ...
ROW 03 : ... .. . ... ... ... : ... .. . ... ... ... : ... .. . P7C : ... .. 4 ... : ... .. . ... ...
ROW 04 : ... .. . ... ... ... : ... .. . ... ... ... : ... .. . P7F : ... .. . ... : ... .. . ... ...
ROW 05 : ... .. . ... ... ... : ... .. . ... ... ... : ... .. . P82 : ... .. . ... : ... .. . ... ...
ROW 06 : ... .. . ... ... ... : --- .. 0 P80 ... ... : ... .. . P85 : ... .. 1 ... : ... .. . ... ...
ROW 07 : ... .. . ... ... ... : B-2 00 6 P7F ... ... : ... .. . P82 : ... .. . ... : ... .. . ... ...
ROW 08 : ... .. . ... ... ... : ... .. . ... ... ... : ... .. . P7F : ... .. . ... : ... .. . ... ...
ROW 09 : ... .. . ... ... ... : ... .. . ... ... ... : ... .. . P7C : ... .. 0 ... : ... .. . ... ...
ROW 0A : ... .. . ... ... ... : ... .. . ... ... ... : ... .. . P79 : ... .. . ... : ... .. . ... ...
ROW 0B : ... .. . ... ... ... : ... .. . ... ... ... : ... .. . P7C : ... .. . ... : ... .. . ... ...
ROW 0C : --- .. 0 P80 ... ... : --- .. 0 P80 ... ... : --- .. . P80 : ... .. . ... : ... .. . ... ...
ROW 0D : ... .. . ... ... ... : F#2 00 6 P7F ... ... : F#2 00 . P7C : ... .. 7 ... : ... .. . ... ...
ROW 0E : ... .. . ... ... ... : ... .. . ... ... ... : ... .. . P79 : ... .. . ... : ... .. . ... ...
ROW 0F : ... .. . ... ... ... : ... .. . ... ... ... : ... .. . P7C : ... .. 4 ... : ... .. . ... ...
ROW 10 : ... .. . ... ... ... : ... .. . ... ... ... : ... .. . P7F : ... .. . ... : ... .. . ... ...
ROW 11 : ... .. . ... ... ... : ... .. . ... ... ... : ... .. . P82 : ... .. . ... : ... .. . ... ...
ROW 12 : ... .. . ... ... ... : --- .. 0 P80 ... ... : ... .. . P85 : ... .. 0 ... : ... .. . ... ...
ROW 13 : ... .. . ... ... ... : A-2 00 6 P7F ... ... : ... .. . P82 : ... .. 7 ... : ... .. . ... ...
ROW 14 : ... .. . ... ... ... : ... .. . ... ... ... : ... .. . P7F : ... .. . ... : ... .. . ... ...
ROW 15 : ... .. . ... ... ... : ... .. . ... ... ... : ... .. . P7C : ... .. 4 ... : ... .. . ... ...
ROW 16 : ... .. . ... ... ... : ... .. . ... ... ... : ... .. . P79 : ... .. . ... : ... .. . ... ...
ROW 17 : ... .. . ... ... ... : ... .. . ... ... ... : ... .. . P7C : ... .. . ... : ... .. . ... ...
ROW 18 : ... .. . ... ... ... : --- .. 0 P80 ... ... : --- .. . P80 : ... .. 0 ... : ... .. . ... ...
ROW 19 : ... .. . ... ... ... : ... .. . ... ... ... : D#3 00 . P7D : ... .. 7 ... : ... .. . ... ...
ROW 1A : ... .. . ... ... ... : ... .. . ... ... ... : ... .. . P7A : ... .. . ... : ... .. . ... ...
ROW 1B : ... .. . ... ... ... : ... .. . ... ... ... : ... .. . P7D : ... .. 4 ... : ... .. . ... ...
ROW 1C : ... .. . ... ... ... : ... .. . ... ... ... : ... .. . P80 : ... .. . ... : ... .. . ... ...
ROW 1D : ... .. . ... ... ... : ... .. . ... ... ... : ... .. . P83 : ... .. . ... : ... .. . ... ...
ROW 1E : ... .. . ... ... ... : --- .. . P80 ... ... : --- .. . P80 : ... .. 1 ... : ... .. . ... ...
ROW 1F : ... .. . ... ... ... : B-2 00 6 P7F ... ... : D#3 00 . P7D : ... .. . ... : ... .. . ... ...
ROW 20 : ... .. . ... ... ... : ... .. . ... ... ... : ... .. . P7A : ... .. . ... : ... .. . ... ...
ROW 21 : ... .. . ... ... ... : ... .. . ... ... ... : ... .. . P7D : ... .. 0 ... : ... .. . ... ...
ROW 22 : ... .. . ... ... ... : ... .. . ... ... ... : ... .. . P80 : ... .. . ... : ... .. . ... ...
ROW 23 : ... .. . ... ... ... : ... .. . ... ... ... : ... .. . P83 : ... .. . ... : ... .. . ... ...
ROW 24 : --- .. . P80 ... ... : --- .. 0 P80 ... ... : ... .. . P86 : ... .. . ... : ... .. . ... ...
ROW 25 : A-3 00 9 P7F ... ... : F#2 00 6 P7F ... ... : ... .. . P83 : ... .. 7 ... : ... .. . ... ...
ROW 26 : ... .. . ... ... ... : ... .. . ... ... ... : ... .. . P80 : ... .. . ... : ... .. . ... ...
ROW 27 : ... .. . ... ... ... : ... .. . ... ... ... : ... .. . P7D : ... .. 4 ... : ... .. . ... ...
ROW 28 : ... .. . ... ... ... : ... .. . ... ... ... : ... .. . P7A : ... .. . ... : ... .. . ... ...
ROW 29 : ... .. . ... ... ... : ... .. . ... ... ... : ... .. . P7D : ... .. . ... : ... .. . ... ...
ROW 2A : ... .. . ... ... ... : --- .. 0 P80 ... ... : --- .. . P80 : ... .. 0 ... : ... .. . ... ...
ROW 2B : ... .. . ... ... ... : A-2 00 6 P7F ... ... : D#3 00 . P7D : ... .. 7 ... : ... .. . ... ...
ROW 2C : ... .. . ... ... ... : ... .. . ... ... ... : ... .. . P7A : ... .. . ... : ... .. . ... ...
ROW 2D : ... .. . ... ... ... : ... .. . ... ... ... : ... .. . P7D : ... .. 4 ... : ... .. . ... ...
ROW 2E : ... .. . ... ... ... : ... .. . ... ... ... : ... .. . P80 : ... .. . ... : ... .. . ... ...
ROW 2F : ... .. . ... ... ... : ... .. . ... ... ... : ... .. . P83 : ... .. . ... : ... .. . ... ...
ROW 30 : ... .. . ... ... ... : --- .. 0 P80 ... ... : --- .. . P80 : ... .. 0 ... : ... .. . ... ...
ROW 31 : ... .. . ... ... ... : E-3 00 6 P7F ... ... : E-2 00 . P7C : ... .. . ... : ... .. . ... ...
ROW 32 : ... .. . ... ... ... : ... .. . ... ... ... : ... .. . P79 : ... .. . ... : ... .. . ... ...
ROW 33 : ... .. . ... ... ... : ... .. . ... ... ... : ... .. . P7C : ... .. . ... : ... .. . ... ...
ROW 34 : ... .. . ... ... ... : ... .. . ... ... ... : ... .. . P7F : ... .. . ... : ... .. . ... ...
ROW 35 : ... .. . ... ... ... : ... .. . ... ... ... : ... .. . P82 : ... .. . ... : ... .. . ... ...
ROW 36 : ... .. . ... ... ... : --- .. 0 P80 ... ... : --- .. . P80 : ... .. . ... : === 00 . ... ...
ROW 37 : ... .. . ... ... ... : E-3 00 6 P7F ... ... : E-2 00 . P7C : ... .. 7 ... : ... .. . ... ...
ROW 38 : ... .. . ... ... ... : ... .. . ... ... ... : ... .. . P79 : ... .. . ... : ... .. . ... ...
ROW 39 : ... .. . ... ... ... : ... .. . ... ... ... : ... .. . P7C : ... .. 4 ... : ... .. . ... ...
ROW 3A : ... .. . ... ... ... : ... .. . ... ... ... : ... .. . P7F : ... .. . ... : ... .. . ... ...
ROW 3B : ... .. . ... ... ... : ... .. . ... ... ... : ... .. . P82 : ... .. . ... : ... .. . ... ...
ROW 3C : --- .. 0 P80 ... ... : --- .. 0 P80 ... ... : ... .. . P85 : ... .. 0 ... : ... .. . ... ...
ROW 3D : G#3 00 9 P7F ... ... : B-2 00 6 P7F ... ... : ... .. . P82 : ... .. 7 ... : ... .. . ... ...
ROW 3E : ... .. . ... ... ... : ... .. . ... ... ... : ... .. . P7F : ... .. . ... : ... .. . ... ...
ROW 3F : ... .. . ... ... ... : ... .. . ... ... ... : ... .. . P7C : ... .. 4 ... : ... .. . ... ...
ROW 40 : ... .. . ... ... ... : ... .. . ... ... ... : ... .. . P79 : ... .. . ... : ... .. . ... ...
ROW 41 : ... .. . ... ... ... : ... .. . ... ... ... : ... .. . P7C : ... .. . ... : ... .. . ... ...
ROW 42 : ... .. . ... ... ... : --- .. 0 P80 ... ... : --- .. . P80 : ... .. 0 ... : ... .. . ... ...
ROW 43 : ... .. . ... ... ... : D-3 00 6 P7F ... ... : E-2 00 . P7C : ... .. 7 ... : ... .. . ... ...
ROW 44 : ... .. . ... ... ... : ... .. . ... ... ... : ... .. . P79 : ... .. . ... : ... .. . ... ...
ROW 45 : ... .. . ... ... ... : ... .. . ... ... ... : ... .. . P7C : ... .. 4 ... : ... .. . ... ...
ROW 46 : ... .. . ... ... ... : ... .. . ... ... ... : ... .. . P7F : ... .. . ... : ... .. . ... ...
ROW 47 : ... .. . ... ... ... : ... .. . ... ... ... : ... .. . P82 : ... .. . ... : ... .. . ... ...
ROW 48 : --- .. 0 P80 ... ... : --- .. 0 P80 ... ... : --- .. . P80 : ... .. 0 ... : ... .. . ... ...
ROW 49 : F#3 00 9 P7F ... ... : E-3 00 6 P7F ... ... : E-3 00 . P7C : ... .. 7 ... : ... .. . ... ...
ROW 4A : ... .. . ... ... ... : ... .. . ... ... ... : ... .. . P79 : ... .. . ... : ... .. . ... ...
ROW 4B : ... .. . ... ... ... : ... .. . ... ... ... : ... .. . P7C : ... .. 4 ... : ... .. . ... ...
ROW 4C : ... .. . ... ... ... : ... .. . ... ... ... : ... .. . P7F : ... .. . ... : ... .. . ... ...
ROW 4D : ... .. . ... ... ... : ... .. . ... ... ... : ... .. . P82 : ... .. . ... : ... .. . ... ...
ROW 4E : ... .. . ... ... ... : --- .. 0 P80 ... ... : ... .. . P85 : ... .. 1 ... : ... .. . ... ...
ROW 4F : ... .. . ... ... ... : E-3 00 6 P7F ... ... : ... .. . P82 : ... .. . ... : ... .. . ... ...
ROW 50 : ... .. . ... ... ... : ... .. . ... ... ... : ... .. . P7F : ... .. . ... : ... .. . ... ...
ROW 51 : ... .. . ... ... ... : ... .. . ... ... ... : ... .. . P7C : ... .. 0 ... : ... .. . ... ...
ROW 52 : ... .. . ... ... ... : ... .. . ... ... ... : ... .. . P79 : ... .. . ... : ... .. . ... ...
ROW 53 : ... .. . ... ... ... : ... .. . ... ... ... : ... .. . P7C : ... .. . ... : ... .. . ... ...
ROW 54 : --- .. 0 P80 ... ... : --- .. 0 P80 ... ... : --- .. . P80 : ... .. . ... : ... .. . ... ...
ROW 55 : G#3 00 9 P7F ... ... : ... .. . ... ... ... : E-2 00 . P7C : ... .. 7 ... : ... .. . ... ...
ROW 56 : ... .. . ... ... ... : ... .. . ... ... ... : ... .. . P79 : ... .. . ... : ... .. . ... ...
ROW 57 : ... .. . ... ... ... : ... .. . ... ... ... : ... .. . P7C : ... .. 4 ... : ... .. . ... ...
ROW 58 : ... .. . ... ... ... : ... .. . ... ... ... : ... .. . P7F : ... .. . ... : ... .. . ... ...
ROW 59 : ... .. . ... ... ... : ... .. . ... ... ... : ... .. . P82 : ... .. . ... : ... .. . ... ...
ROW 5A : ... .. . ... ... ... : --- .. . P80 ... ... : ... .. . P85 : ... .. 1 ... : ... .. . ... ...
ROW 5B : ... .. . ... ... ... : E-3 00 6 P7F ... ... : ... .. . P82 : ... .. . ... : ... .. . ... ...
ROW 5C : ... .. . ... ... ... : ... .. . ... ... ... : ... .. . P7F : ... .. . ... : ... .. . ... ...
ROW 5D : ... .. . ... ... ... : ... .. . ... ... ... : ... .. . P7C : ... .. 0 ... : ... .. . ... ...
ROW 5E : ... .. . ... ... ... : ... .. . ... ... ... : ... .. . P79 : ... .. . ... : ... .. . ... ...
ROW 5F : ... .. . ... ... ... : ... .. . ... ... ... : ... .. . P7C : ... .. . ... : ... .. . ... ...
ROW 60 : --- .. 0 P80 ... ... : --- .. 0 P80 ... ... : --- .. . P80 : ... .. . ... : ... .. . ... ...
ROW 61 : A-3 00 9 P7F ... ... : A-3 00 6 P7F ... ... : A-2 00 . P7C : ... .. 7 ... : ... .. . ... ...
ROW 62 : ... .. . ... ... ... : ... .. . ... ... ... : ... .. . P79 : ... .. . ... : ... .. . ... ...
ROW 63 : ... .. . ... ... ... : ... .. . ... ... ... : ... .. . P7C : ... .. 4 ... : ... .. . ... ...
ROW 64 : ... .. . ... ... ... : ... .. . ... ... ... : ... .. . P7F : ... .. . ... : ... .. . ... ...
ROW 65 : ... .. . ... ... ... : ... .. . ... ... ... : ... .. . P82 : ... .. . ... : ... .. . ... ...
ROW 66 : ... .. . ... ... ... : --- .. 0 P80 ... ... : ... .. . P85 : ... .. 1 ... : ... .. . ... ...
ROW 67 : ... .. . ... ... ... : A-3 00 6 P7F ... ... : ... .. . P82 : ... .. . ... : ... .. . ... ...
ROW 68 : ... .. . ... ... ... : ... .. . ... ... ... : ... .. . P7F : ... .. . ... : ... .. . ... ...
ROW 69 : ... .. . ... ... ... : ... .. . ... ... ... : ... .. . P7C : ... .. 0 ... : ... .. . ... ...
ROW 6A : ... .. . ... ... ... : ... .. . ... ... ... : ... .. . P79 : ... .. . ... : ... .. . ... ...
ROW 6B : ... .. . ... ... ... : ... .. . ... ... ... : ... .. . P7C : ... .. . ... : ... .. . ... ...
ROW 6C : ... .. . ... ... ... : --- .. 0 P80 ... ... : --- .. . P80 : ... .. . ... : ... .. . ... ...
ROW 6D : ... .. . ... ... ... : E-3 00 6 P7F ... ... : A-2 00 . P7C : ... .. 7 ... : ... .. . ... ...
ROW 6E : ... .. . ... ... ... : ... .. . ... ... ... : ... .. . P79 : ... .. . ... : ... .. . ... ...
ROW 6F : ... .. . ... ... ... : ... .. . ... ... ... : ... .. . P7C : ... .. 4 ... : ... .. . ... ...
ROW 70 : ... .. . ... ... ... : ... .. . ... ... ... : ... .. . P7F : ... .. . ... : ... .. . ... ...
ROW 71 : ... .. . ... ... ... : ... .. . ... ... ... : ... .. . P82 : ... .. . ... : ... .. . ... ...
ROW 72 : ... .. . ... ... ... : --- .. 0 P80 ... ... : ... .. . P85 : ... .. 0 ... : ... .. . ... ...
ROW 73 : ... .. . ... ... ... : G-3 00 6 P7F ... ... : ... .. . P82 : ... .. 7 ... : ... .. . ... ...
ROW 74 : ... .. . ... ... ... : ... .. . ... ... ... : ... .. . P7F : ... .. . ... : ... .. . ... ...
ROW 75 : ... .. . ... ... ... : ... .. . ... ... ... : ... .. . P7C : ... .. 4 ... : ... .. . ... ...
ROW 76 : ... .. . ... ... ... : ... .. . ... ... ... : ... .. . P79 : ... .. . ... : ... .. . ... ...
ROW 77 : ... .. . ... ... ... : ... .. . ... ... ... : ... .. . P7C : ... .. . ... : ... .. . ... ...
ROW 78 : ... .. . ... ... ... : --- .. 0 P80 ... ... : --- .. . P80 : ... .. 0 ... : ... .. . ... ...
ROW 79 : ... .. . ... ... ... : ... .. . ... ... ... : E-3 00 . P7C : ... .. 7 ... : ... .. . ... ...
ROW 7A : ... .. . ... ... ... : ... .. . ... ... ... : ... .. . P79 : ... .. . ... : ... .. . ... ...
ROW 7B : ... .. . ... ... ... : ... .. . ... ... ... : ... .. . P7C : ... .. 4 ... : ... .. . ... ...
ROW 7C : ... .. . ... ... ... : ... .. . ... ... ... : ... .. . P7F : ... .. . ... : ... .. . ... ...
ROW 7D : ... .. . ... ... ... : ... .. . ... ... ... : ... .. . P82 : ... .. . ... : ... .. . ... ...
ROW 7E : ... .. . ... ... ... : --- .. . P80 ... ... : --- .. . P80 : ... .. 1 ... : ... .. . ... ...
ROW 7F : ... .. . ... ... ... : A-3 00 6 P7F ... ... : E-3 00 . P7C : ... .. . ... : ... .. . ... ...
ROW 80 : ... .. . ... ... ... : ... .. . ... ... ... : ... .. . P79 : ... .. . ... : ... .. . ... ...
ROW 81 : ... .. . ... ... ... : ... .. . ... ... ... : ... .. . P7C : ... .. 0 ... : ... .. . ... ...
ROW 82 : ... .. . ... ... ... : ... .. . ... ... ... : ... .. . P7F : ... .. . ... : ... .. . ... ...
ROW 83 : ... .. . ... ... ... : ... .. . ... ... ... : ... .. . P82 : ... .. . ... : ... .. . ... ...
ROW 84 : ... .. . ... ... ... : --- .. 0 P80 ... ... : ... .. . P85 : ... .. . ... : ... .. . ... ...
ROW 85 : ... .. . ... ... ... : E-3 00 6 P7F ... ... : ... .. . P82 : ... .. 7 ... : ... .. . ... ...
ROW 86 : ... .. . ... ... ... : ... .. . ... ... ... : ... .. . P7F : ... .. . ... : ... .. . ... ...
ROW 87 : ... .. . ... ... ... : ... .. . ... ... ... : ... .. . P7C : ... .. 4 ... : ... .. . ... ...
ROW 88 : ... .. . ... ... ... : ... .. . ... ... ... : ... .. . P79 : ... .. . ... : ... .. . ... ...
ROW 89 : ... .. . ... ... ... : ... .. . ... ... ... : ... .. . P7C : ... .. . ... : ... .. . ... ...
ROW 8A : ... .. . ... ... ... : --- .. 0 P80 ... ... : --- .. . P80 : ... .. 0 ... : ... .. . ... ...
ROW 8B : ... .. . ... ... ... : G-3 00 6 P7F ... ... : E-3 00 . P7C : ... .. 7 ... : ... .. . ... ...
ROW 8C : ... .. . ... ... ... : ... .. . ... ... ... : ... .. . P79 : ... .. . ... : ... .. . ... ...
ROW 8D : ... .. . ... ... ... : ... .. . ... ... ... : ... .. . P7C : ... .. 4 ... : ... .. . ... ...
ROW 8E : ... .. . ... ... ... : ... .. . ... ... ... : ... .. . P7F : ... .. . ... : ... .. . ... ...
ROW 8F : ... .. . ... ... ... : ... .. . ... ... ... : ... .. . P82 : ... .. . ... : ... .. . ... ...
ROW 90 : --- .. 0 P80 ... ... : --- .. 0 P80 ... ... : --- .. . P80 : ... .. 0 ... : ... .. . ... ...
ROW 91 : A-2 00 9 P7C ... ... : ... .. . ... ... ... : A-2 00 . P7C : ... .. . ... : ... .. . ... ...
ROW 92 : --- .. 0 P80 ... ... : ... .. . ... ... ... : ... .. . P79 : ... .. . ... : ... .. . ... ...
ROW 93 : B-2 00 9 P7C ... ... : ... .. . ... ... ... : ... .. . P7C : ... .. . ... : ... .. . ... ...
ROW 94 : --- .. 0 P80 ... ... : ... .. . ... ... ... : ... .. . P7F : ... .. . ... : ... .. . ... ...
ROW 95 : C-3 00 9 P7D ... ... : ... .. . ... ... ... : ... .. . P82 : ... .. . ... : ... .. . ... ...
ROW 96 : --- .. 0 P80 ... ... : --- .. . P80 ... ... : --- .. . P80 : ... .. . ... : === 00 . ... ...
ROW 97 : C#3 00 9 P7D ... ... : A-3 00 6 P7F ... ... : A-2 00 . P7C : ... .. 7 ... : ... .. . ... ...
ROW 98 : --- .. 0 P80 ... ... : ... .. . ... ... ... : ... .. . P79 : ... .. . ... : ... .. . ... ...
ROW 99 : D-3 00 9 P7C ... ... : ... .. . ... ... ... : ... .. . P7C : ... .. 4 ... : ... .. . ... ...
ROW 9A : --- .. 0 P80 ... ... : ... .. . ... ... ... : ... .. . P7F : ... .. . ... : ... .. . ... ...
ROW 9B : D#3 00 9 P7D ... ... : ... .. . ... ... ... : ... .. . P82 : ... .. . ... : ... .. . ... ...
ROW 9C : --- .. 0 P80 ... ... : --- .. 0 P80 ... ... : ... .. . P85 : ... .. 0 ... : ... .. . ... ...
ROW 9D : E-3 00 9 P7C ... ... : E-3 00 6 P7F ... ... : ... .. . P82 : ... .. 7 ... : ... .. . ... ...
ROW 9E : --- .. 0 P80 ... ... : ... .. . ... ... ... : ... .. . P7F : ... .. . ... : ... .. . ... ...
ROW 9F : F-3 00 9 P7C ... ... : ... .. . ... ... ... : ... .. . P7C : ... .. 4 ... : ... .. . ... ...
ROW A0 : --- .. 0 P80 ... ... : ... .. . ... ... ... : ... .. . P79 : ... .. . ... : ... .. . ... ...
ROW A1 : F#3 00 9 P7C ... ... : ... .. . ... ... ... : ... .. . P7C : ... .. . ... : ... .. . ... ...
ROW A2 : --- .. 0 P80 ... ... : --- .. 0 P80 ... ... : --- .. . P80 : ... .. 0 ... : ... .. . ... ...
ROW A3 : G-3 00 9 P7C ... ... : G-3 00 6 P7F ... ... : A-2 00 . P7C : ... .. 7 ... : ... .. . ... ...
ROW A4 : --- .. 0 P80 ... ... : ... .. . ... ... ... : ... .. . P79 : ... .. . ... : ... .. . ... ...
ROW A5 : G#3 00 9 P7C ... ... : ... .. . ... ... ... : ... .. . P7C : ... .. 4 ... : ... .. . ... ...
ROW A6 : --- .. 0 P80 ... ... : ... .. . ... ... ... : ... .. . P7F : ... .. . ... : ... .. . ... ...
ROW A7 : A-3 00 9 P7C ... ... : ... .. . ... ... ... : ... .. . P82 : ... .. . ... : ... .. . ... ...
ROW A8 : --- .. 0 P80 ... ... : --- .. 0 P80 ... ... : --- .. . P80 : ... .. 0 ... : ... .. . ... ...
ROW A9 : A#3 00 9 P7C ... ... : A-3 00 6 P7F ... ... : E-3 00 . P7C : ... .. 7 ... : ... .. . ... ...
ROW AA : --- .. 0 P80 ... ... : ... .. . ... ... ... : ... .. . P79 : ... .. . ... : ... .. . ... ...
ROW AB : B-3 00 9 P7C ... ... : ... .. . ... ... ... : ... .. . P7C : ... .. 4 ... : ... .. . ... ...
ROW AC : --- .. 0 P80 ... ... : ... .. . ... ... ... : ... .. . P7F : ... .. . ... : ... .. . ... ...
ROW AD : C-4 00 9 P7D ... ... : ... .. . ... ... ... : ... .. . P82 : ... .. . ... : ... .. . ... ...
ROW AE : --- .. 0 P80 ... ... : --- .. 0 P80 ... ... : ... .. . P85 : ... .. 0 ... : ... .. . ... ...
ROW AF : C#4 00 9 P7D ... ... : A-3 00 6 P7F ... ... : ... .. . P82 : ... .. 7 ... : ... .. . ... ...
ROW B0 : --- .. 0 P80 ... ... : ... .. . ... ... ... : ... .. . P7F : ... .. . ... : ... .. . ... ...
ROW B1 : D-4 00 9 P7C ... ... : ... .. . ... ... ... : ... .. . P7C : ... .. 4 ... : ... .. . ... ...
ROW B2 : --- .. 0 P80 ... ... : ... .. . ... ... ... : ... .. . P79 : ... .. . ... : ... .. . ... ...
ROW B3 : D#4 00 9 P7D ... ... : ... .. . ... ... ... : ... .. . P7C : ... .. . ... : ... .. . ... ...
ROW B4 : --- .. 0 P80 ... ... : --- .. 0 P80 ... ... : --- .. . P80 : ... .. 0 ... : ... .. . ... ...
ROW B5 : E-4 00 9 P7D ... ... : ... .. . ... ... ... : E-2 00 . P7C : ... .. 7 ... : ... .. . ... ...
ROW B6 : --- .. 0 P80 ... ... : ... .. . ... ... ... : ... .. . P79 : ... .. . ... : ... .. . ... ...
ROW B7 : F-4 00 9 P7C ... ... : ... .. . ... ... ... : ... .. . P7C : ... .. 4 ... : ... .. . ... ...
ROW B8 : --- .. 0 P80 ... ... : ... .. . ... ... ... : ... .. . P7F : ... .. . ... : ... .. . ... ...
ROW B9 : F#4 00 9 P7C ... ... : ... .. . ... ... ... : ... .. . P82 : ... .. . ... : ... .. . ... ...
ROW BA : --- .. 0 P80 ... ... : ... .. . ... ... ... : ... .. . P85 : ... .. 0 ... : ... .. . ... ...
ROW BB : G-4 00 9 P7D ... ... : ... .. . ... ... ... : ... .. . P82 : ... .. 7 ... : ... .. . ... ...
ROW BC : --- .. 0 P80 ... ... : ... .. . ... ... ... : ... .. . P7F : ... .. . ... : ... .. . ... ...
ROW BD : G#4 00 9 P7D ... ... : ... .. . ... ... ... : ... .. . P7C : ... .. 4 ... : ... .. . ... ...
ROW BE : --- .. 0 P80 ... ... : ... .. . ... ... ... : ... .. . P79 : ... .. . ... : ... .. . ... ...
ROW BF : G#4 00 9 P84 ... ... : ... .. . ... ... ... : ... .. . P7C : ... .. . ... : ... .. . ... ...
ROW C0 : --- .. 0 P80 ... ... : --- .. . P80 ... ... : --- .. . P80 : ... .. 0 ... : ... .. . ... ...
ROW C1 : A-4 00 9 P7F ... ... : ... .. . ... ... ... : F-2 00 . P7C : ... .. 7 ... : ... .. . ... ...
ROW C2 : ... .. . P7E ... ... : ... .. . ... ... ... : ... .. . P79 : ... .. . ... : ... .. . ... ...
ROW C3 : ... .. . ... ... ... : ... .. . ... ... ... : ... .. . P7C : ... .. 4 ... : ... .. . ... ...
ROW C4 : ... .. . P7D ... ... : ... .. . ... ... ... : ... .. . P7F : ... .. . ... : ... .. . ... ...
ROW C5 : ... .. . ... ... ... : ... .. . ... ... ... : ... .. . P82 : ... .. . ... : ... .. . ... ...
ROW C6 : ... .. . P7E ... ... : --- .. . P80 ... ... : ... .. . P85 : ... .. 1 ... : ... .. . ... ...
ROW C7 : ... .. . ... ... ... : ... .. . ... ... ... : ... .. . P82 : ... .. . ... : ... .. . ... ...
ROW C8 : ... .. . P7F ... ... : ... .. . ... ... ... : ... .. . P7F : ... .. . ... : ... .. . ... ...
ROW C9 : ... .. . ... ... ... : --- .. . P80 ... ... : ... .. . P7C : ... .. 0 ... : ... .. . ... ...
ROW CA : ... .. . P80 ... ... : A-4 00 6 P7F ... ... : ... .. . P79 : ... .. . ... : ... .. . ... ...
ROW CB : ... .. . ... ... ... : ... .. . P7E ... ... : ... .. . P7C : ... .. . ... : ... .. . ... ...
ROW CC : ... .. . P81 ... ... : ... .. . ... ... ... : --- .. . P80 : ... .. . ... : ... .. . ... ...
ROW CD : ... .. . ... ... ... : ... .. . P7D ... ... : F-2 00 . P7C : ... .. 7 ... : ... .. . ... ...
ROW CE : ... .. . P80 ... ... : ... .. . ... ... ... : ... .. . P79 : ... .. . ... : ... .. . ... ...
ROW CF : ... .. . ... ... ... : ... .. . P7E ... ... : ... .. . P7C : ... .. 4 ... : ... .. . ... ...
ROW D0 : ... .. . P7F ... ... : ... .. . ... ... ... : ... .. . P7F : ... .. . ... : ... .. . ... ...
ROW D1 : ... .. . ... ... ... : ... .. . P7F ... ... : ... .. . P82 : ... .. . ... : ... .. . ... ...
ROW D2 : ... .. . P7E ... ... : ... .. . ... ... ... : ... .. . P85 : ... .. 0 ... : ... .. . ... ...
ROW D3 : ... .. . ... ... ... : ... .. . P80 ... ... : ... .. . P82 : ... .. 7 ... : ... .. . ... ...
ROW D4 : ... .. . P7D ... ... : ... .. . ... ... ... : ... .. . P7F : ... .. . ... : ... .. . ... ...
ROW D5 : ... .. . ... ... ... : ... .. . P81 ... ... : ... .. . P7C : ... .. 4 ... : ... .. . ... ...
ROW D6 : ... .. . P7E ... ... : ... .. . ... ... ... : ... .. . P79 : ... .. . ... : ... .. . ... ...
ROW D7 : ... .. . ... ... ... : ... .. . P80 ... ... : ... .. . P7C : ... .. . ... : ... .. . ... ...
ROW D8 : ... .. . P7F ... ... : ... .. . ... ... ... : --- .. . P80 : ... .. 0 ... : ... .. . ... ...
ROW D9 : ... .. . ... ... ... : ... .. . P7F ... ... : F-3 00 . P7C : ... .. 7 ... : ... .. . ... ...
ROW DA : ... .. . P80 ... ... : ... .. . ... ... ... : ... .. . P79 : ... .. . ... : ... .. . ... ...
ROW DB : ... .. . ... ... ... : ... .. . P7E ... ... : ... .. . P7C : ... .. 4 ... : ... .. . ... ...
ROW DC : ... .. . P81 ... ... : ... .. . ... ... ... : ... .. . P7F : ... .. . ... : ... .. . ... ...
ROW DD : ... .. . ... ... ... : ... .. . P7D ... ... : ... .. . P82 : ... .. . ... : ... .. . ... ...
ROW DE : ... .. . P80 ... ... : ... .. . ... ... ... : --- .. . P80 : ... .. 1 ... : ... .. . ... ...
ROW DF : ... .. . ... ... ... : ... .. . P7E ... ... : F-3 00 . P7C : ... .. . ... : ... .. . ... ...
ROW E0 : ... .. . P7F ... ... : ... .. . ... ... ... : ... .. . P79 : ... .. . ... : ... .. . ... ...
ROW E1 : ... .. . ... ... ... : ... .. . P7F ... ... : ... .. . P7C : ... .. 0 ... : ... .. . ... ...
ROW E2 : ... .. . P7E ... ... : ... .. . ... ... ... : ... .. . P7F : ... .. . ... : ... .. . ... ...
ROW E3 : ... .. . ... ... ... : ... .. . P80 ... ... : ... .. . P82 : ... .. . ... : ... .. . ... ...
ROW E4 : ... .. . P7D ... ... : ... .. . ... ... ... : ... .. . P85 : ... .. . ... : ... .. . ... ...
ROW E5 : ... .. . ... ... ... : ... .. . P81 ... ... : ... .. . P82 : ... .. 7 ... : ... .. . ... ...
ROW E6 : ... .. . P7E ... ... : ... .. . ... ... ... : ... .. . P7F : ... .. . ... : ... .. . ... ...
ROW E7 : ... .. . ... ... ... : ... .. . P80 ... ... : ... .. . P7C : ... .. 4 ... : ... .. . ... ...
ROW E8 : ... .. . P7F ... ... : ... .. . ... ... ... : ... .. . P79 : ... .. . ... : ... .. . ... ...
ROW E9 : ... .. . ... ... ... : ... .. . P7F ... ... : ... .. . P7C : ... .. . ... : ... .. . ... ...
ROW EA : ... .. . P80 ... ... : ... .. . ... ... ... : --- .. . P80 : ... .. 0 ... : ... .. . ... ...
ROW EB : ... .. . ... ... ... : ... .. . P7E ... ... : F-3 00 . P7C : ... .. 7 ... : ... .. . ... ...
ROW EC : ... .. . P81 ... ... : ... .. . ... ... ... : ... .. . P79 : ... .. . ... : ... .. . ... ...
ROW ED : ... .. . ... ... ... : ... .. . P7D ... ... : ... .. . P7C : ... .. 4 ... : ... .. . ... ...
ROW EE : ... .. . P80 ... ... : ... .. . ... ... ... : ... .. . P7F : ... .. . ... : ... .. . ... ...
ROW EF : ... .. . ... ... ... : ... .. . P7E ... ... : ... .. . P82 : ... .. . ... : ... .. . ... ...
ROW F0 : --- .. 0 ... ... ... : ... .. . ... ... ... : --- .. . P80 : ... .. 0 ... : ... .. . ... ...
ROW F1 : ... .. . ... ... ... : ... .. . P7F ... ... : G-2 00 . P7C : ... .. . ... : ... .. . ... ...
ROW F2 : ... .. . ... ... ... : ... .. . ... ... ... : ... .. . P79 : ... .. . ... : ... .. . ... ...
ROW F3 : ... .. . ... ... ... : ... .. . P80 ... ... : ... .. . P7C : ... .. . ... : ... .. . ... ...
ROW F4 : ... .. . ... ... ... : ... .. . ... ... ... : ... .. . P7F : ... .. . ... : ... .. . ... ...
ROW F5 : ... .. . ... ... ... : ... .. . P81 ... ... : ... .. . P82 : ... .. . ... : ... .. . ... ...
ROW F6 : ... .. . ... ... ... : ... .. . ... ... ... : --- .. . P80 : ... .. . ... : === 00 . ... ...
ROW F7 : ... .. . ... ... ... : ... .. . P80 ... ... : G-2 00 . P7C : ... .. 7 ... : ... .. . ... ...
ROW F8 : ... .. . ... ... ... : ... .. . ... ... ... : ... .. . P79 : ... .. . ... : ... .. . ... ...
ROW F9 : ... .. . ... ... ... : --- .. 0 ... ... ... : ... .. . P7C : ... .. 4 ... : ... .. . ... ...
ROW FA : ... .. . ... ... ... : ... .. . ... ... ... : ... .. . P7F : ... .. . ... : ... .. . ... ...
ROW FB : ... .. . ... ... ... : ... .. . ... ... ... : ... .. . P82 : ... .. . ... : ... .. . ... ...
ROW FC : --- .. . P80 ... ... : ... .. . ... ... ... : ... .. . P85 : ... .. 0 ... : ... .. . ... ...
ROW FD : B-4 00 9 P7F ... ... : ... .. . ... ... ... : ... .. . P82 : ... .. 7 ... : ... .. . ... ...
ROW FE : ... .. . P7E ... ... : ... .. . ... ... ... : ... .. . P7F : ... .. . ... : ... .. . ... ...
ROW FF : ... .. . ... ... ... : ... .. . ... ... ... : ... .. . P7C : ... .. 4 ... : ... .. . ... ...

PATTERN 07
ROW 00 : ... .. . P7D ... ... : ... .. . ... ... ... : ... .. . P79 : ... .. . ... : ... .. . ... ...
ROW 01 : ... .. . ... ... ... : ... .. . ... ... ... : ... .. . P7C : ... .. . ... : ... .. . ... ...
ROW 02 : ... .. . P7E ... ... : ... .. . ... ... ... : --- .. . P80 : ... .. 0 ... : ... .. . ... ...
ROW 03 : ... .. . ... ... ... : ... .. . ... ... ... : G-2 00 . P7C : ... .. 7 ... : ... .. . ... ...
ROW 04 : ... .. . P7F ... ... : ... .. . ... ... ... : ... .. . P79 : ... .. . ... : ... .. . ... ...
ROW 05 : ... .. . ... ... ... : --- .. . P80 ... ... : ... .. . P7C : ... .. 4 ... : ... .. . ... ...
ROW 06 : ... .. . P80 ... ... : B-4 00 6 P7F ... ... : ... .. . P7F : ... .. . ... : ... .. . ... ...
ROW 07 : ... .. . ... ... ... : ... .. . P7E ... ... : ... .. . P82 : ... .. . ... : ... .. . ... ...
ROW 08 : ... .. . P81 ... ... : ... .. . ... ... ... : --- .. . P80 : ... .. 0 ... : ... .. . ... ...
ROW 09 : ... .. . ... ... ... : ... .. . P7D ... ... : G-3 00 . P7C : ... .. 7 ... : ... .. . ... ...
ROW 0A : ... .. . P80 ... ... : ... .. . ... ... ... : ... .. . P79 : ... .. . ... : ... .. . ... ...
ROW 0B : ... .. . ... ... ... : ... .. . P7E ... ... : ... .. . P7C : ... .. 4 ... : ... .. . ... ...
ROW 0C : ... .. . P7F ... ... : ... .. . ... ... ... : ... .. . P7F : ... .. . ... : ... .. . ... ...
ROW 0D : ... .. . ... ... ... : ... .. . P7F ... ... : ... .. . P82 : ... .. . ... : ... .. . ... ...
ROW 0E : ... .. . P7E ... ... : ... .. . ... ... ... : ... .. . P85 : ... .. 1 ... : ... .. . ... ...
ROW 0F : ... .. . ... ... ... : ... .. . P80 ... ... : ... .. . P82 : ... .. . ... : ... .. . ... ...
ROW 10 : ... .. . P7D ... ... : ... .. . ... ... ... : ... .. . P7F : ... .. . ... : ... .. . ... ...
ROW 11 : ... .. . ... ... ... : ... .. . P81 ... ... : ... .. . P7C : ... .. 0 ... : ... .. . ... ...
ROW 12 : ... .. . P7E ... ... : ... .. . ... ... ... : ... .. . P79 : ... .. . ... : ... .. . ... ...
ROW 13 : ... .. . ... ... ... : ... .. . P80 ... ... : ... .. . P7C : ... .. . ... : ... .. . ... ...
ROW 14 : --- .. 0 P80 ... ... : ... .. . ... ... ... : --- .. . P80 : ... .. . ... : ... .. . ... ...
ROW 15 : A-4 00 9 P7F ... ... : ... .. . P7F ... ... : G-3 00 . P7C : ... .. 7 ... : ... .. . ... ...
ROW 16 : ... .. . P7E ... ... : ... .. . ... ... ... : ... .. . P79 : ... .. . ... : ... .. . ... ...
ROW 17 : ... .. . ... ... ... : ... .. . P7E ... ... : ... .. . P7C : ... .. 4 ... : ... .. . ... ...
ROW 18 : ... .. . P7D ... ... : ... .. . ... ... ... : ... .. . P7F : ... .. . ... : ... .. . ... ...
ROW 19 : ... .. . ... ... ... : ... .. . P7D ... ... : ... .. . P82 : ... .. . ... : ... .. . ... ...
ROW 1A : ... .. . P7E ... ... : ... .. . ... ... ... : ... .. . P85 : ... .. 1 ... : ... .. . ... ...
ROW 1B : ... .. . ... ... ... : ... .. . P7E ... ... : ... .. . P82 : ... .. . ... : ... .. . ... ...
ROW 1C : ... .. . P7F ... ... : ... .. . ... ... ... : ... .. . P7F : ... .. . ... : ... .. . ... ...
ROW 1D : ... .. . ... ... ... : --- .. 0 P80 ... ... : ... .. . P7C : ... .. 0 ... : ... .. . ... ...
ROW 1E : ... .. . P80 ... ... : A-4 00 6 P7F ... ... : ... .. . P79 : ... .. . ... : ... .. . ... ...
ROW 1F : ... .. . ... ... ... : ... .. . P7E ... ... : ... .. . P7C : ... .. . ... : ... .. . ... ...
ROW 20 : --- .. 0 ... ... ... : ... .. . ... ... ... : --- .. . P80 : ... .. . ... : ... .. . ... ...
ROW 21 : G-4 00 9 ... ... ... : ... .. . P7D ... ... : C-2 00 . P7C : ... .. 7 ... : ... .. . ... ...
ROW 22 : ... .. . P7F ... ... : ... .. . ... ... ... : ... .. . P79 : ... .. . ... : ... .. . ... ...
ROW 23 : ... .. . ... ... ... : ... .. . P7E ... ... : ... .. . P7C : ... .. 4 ... : ... .. . ... ...
ROW 24 : ... .. . P7E ... ... : ... .. . ... ... ... : ... .. . P7F : ... .. . ... : ... .. . ... ...
ROW 25 : ... .. . ... ... ... : ... .. . P7F ... ... : ... .. . P82 : ... .. . ... : ... .. . ... ...
ROW 26 : ... .. . P7F ... ... : ... .. . ... ... ... : ... .. . P85 : ... .. 1 ... : ... .. . ... ...
ROW 27 : ... .. . ... ... ... : ... .. . P80 ... ... : ... .. . P82 : ... .. . ... : ... .. . ... ...
ROW 28 : ... .. . P80 ... ... : ... .. . ... ... ... : ... .. . P7F : ... .. . ... : ... .. . ... ...
ROW 29 : ... .. . ... ... ... : --- .. 0 ... ... ... : ... .. . P7C : ... .. 0 ... : ... .. . ... ...
ROW 2A : ... .. . P81 ... ... : G-4 00 6 ... ... ... : ... .. . P79 : ... .. . ... : ... .. . ... ...
ROW 2B : ... .. . ... ... ... : ... .. . P7F ... ... : ... .. . P7C : ... .. . ... : ... .. . ... ...
ROW 2C : ... .. . P82 ... ... : ... .. . ... ... ... : --- .. . P80 : ... .. . ... : ... .. . ... ...
ROW 2D : ... .. . ... ... ... : ... .. . P7E ... ... : C-2 00 . P7C : ... .. 7 ... : ... .. . ... ...
ROW 2E : ... .. . P81 ... ... : ... .. . ... ... ... : ... .. . P79 : ... .. . ... : ... .. . ... ...
ROW 2F : ... .. . ... ... ... : ... .. . P7F ... ... : ... .. . P7C : ... .. 4 ... : ... .. . ... ...
ROW 30 : ... .. . P80 ... ... : ... .. . ... ... ... : ... .. . P7F : ... .. . ... : ... .. . ... ...
ROW 31 : ... .. . ... ... ... : ... .. . P80 ... ... : ... .. . P82 : ... .. . ... : ... .. . ... ...
ROW 32 : ... .. . P7F ... ... : ... .. . ... ... ... : ... .. . P85 : ... .. 0 ... : ... .. . ... ...
ROW 33 : ... .. . ... ... ... : ... .. . P81 ... ... : ... .. . P82 : ... .. 7 ... : ... .. . ... ...
ROW 34 : ... .. . P7E ... ... : ... .. . ... ... ... : ... .. . P7F : ... .. . ... : ... .. . ... ...
ROW 35 : ... .. . ... ... ... : ... .. . P82 ... ... : ... .. . P7C : ... .. 4 ... : ... .. . ... ...
ROW 36 : ... .. . P7F ... ... : ... .. . ... ... ... : ... .. . P79 : ... .. . ... : ... .. . ... ...
ROW 37 : ... .. . ... ... ... : ... .. . P81 ... ... : ... .. . P7C : ... .. . ... : ... .. . ... ...
ROW 38 : ... .. . P80 ... ... : ... .. . ... ... ... : --- .. . P80 : ... .. 0 ... : ... .. . ... ...
ROW 39 : ... .. . ... ... ... : ... .. . P80 ... ... : C-3 00 . P7D : ... .. 7 ... : ... .. . ... ...
ROW 3A : ... .. . P81 ... ... : ... .. . ... ... ... : ... .. . P7A : ... .. . ... : ... .. . ... ...
ROW 3B : ... .. . ... ... ... : ... .. . P7F ... ... : ... .. . P7D : ... .. 4 ... : ... .. . ... ...
ROW 3C : ... .. . P82 ... ... : ... .. . ... ... ... : ... .. . P80 : ... .. . ... : ... .. . ... ...
ROW 3D : ... .. . ... ... ... : ... .. . P7E ... ... : ... .. . P83 : ... .. . ... : ... .. . ... ...
ROW 3E : ... .. . P81 ... ... : ... .. . ... ... ... : --- .. . P80 : ... .. 1 ... : ... .. . ... ...
ROW 3F : ... .. . ... ... ... : ... .. . P7F ... ... : C-3 00 . P7D : ... .. . ... : ... .. . ... ...
ROW 40 : ... .. . P80 ... ... : ... .. . ... ... ... : ... .. . P7A : ... .. . ... : ... .. . ... ...
ROW 41 : ... .. . ... ... ... : ... .. . P80 ... ... : ... .. . P7D : ... .. 0 ... : ... .. . ... ...
ROW 42 : ... .. . P7F ... ... : ... .. . ... ... ... : ... .. . P80 : ... .. . ... : ... .. . ... ...
ROW 43 : ... .. . ... ... ... : ... .. . P81 ... ... : ... .. . P83 : ... .. . ... : ... .. . ... ...
ROW 44 : ... .. . P7E ... ... : ... .. . ... ... ... : ... .. . P86 : ... .. . ... : ... .. . ... ...
ROW 45 : ... .. . ... ... ... : ... .. . P82 ... ... : ... .. . P83 : ... .. 7 ... : ... .. . ... ...
ROW 46 : ... .. . P7F ... ... : ... .. . ... ... ... : ... .. . P80 : ... .. . ... : ... .. . ... ...
ROW 47 : ... .. . ... ... ... : ... .. . P81 ... ... : ... .. . P7D : ... .. 4 ... : ... .. . ... ...
ROW 48 : ... .. . P80 ... ... : ... .. . ... ... ... : ... .. . P7A : ... .. . ... : ... .. . ... ...
ROW 49 : ... .. . ... ... ... : ... .. . P80 ... ... : ... .. . P7D : ... .. . ... : ... .. . ... ...
ROW 4A : ... .. . P81 ... ... : ... .. . ... ... ... : --- .. . P80 : ... .. 0 ... : ... .. . ... ...
ROW 4B : ... .. . ... ... ... : ... .. . P7F ... ... : C-3 00 . P7D : ... .. 7 ... : ... .. . ... ...
ROW 4C : ... .. . P82 ... ... : ... .. . ... ... ... : ... .. . P7A : ... .. . ... : ... .. . ... ...
ROW 4D : ... .. . ... ... ... : ... .. . P7E ... ... : ... .. . P7D : ... .. 4 ... : ... .. . ... ...
ROW 4E : ... .. . P81 ... ... : ... .. . ... ... ... : ... .. . P80 : ... .. . ... : ... .. . ... ...
ROW 4F : ... .. . ... ... ... : ... .. . P7F ... ... : ... .. . P83 : ... .. . ... : ... .. . ... ...
ROW 50 : ... .. . P80 ... ... : ... .. . ... ... ... : --- .. . P80 : ... .. 0 ... : ... .. . ... ...
ROW 51 : ... .. . ... ... ... : ... .. . P80 ... ... : C-2 00 . P7C : ... .. . ... : ... .. . ... ...
ROW 52 : ... .. . P7F ... ... : ... .. . ... ... ... : ... .. . P79 : ... .. . ... : ... .. . ... ...
ROW 53 : ... .. . ... ... ... : ... .. . P81 ... ... : ... .. . P7C : ... .. . ... : ... .. . ... ...
ROW 54 : ... .. . P7E ... ... : ... .. . ... ... ... : ... .. . P7F : ... .. . ... : ... .. . ... ...
ROW 55 : ... .. . ... ... ... : ... .. . P82 ... ... : ... .. . P82 : ... .. . ... : ... .. . ... ...
ROW 56 : ... .. . P7F ... ... : ... .. . ... ... ... : --- .. . P80 : ... .. . ... : === 00 . ... ...
ROW 57 : ... .. . ... ... ... : ... .. . P81 ... ... : C-2 00 . P7C : ... .. 7 ... : ... .. . ... ...
ROW 58 : ... .. . P80 ... ... : ... .. . ... ... ... : ... .. . P79 : ... .. . ... : ... .. . ... ...
ROW 59 : ... .. . ... ... ... : ... .. . P80 ... ... : ... .. . P7C : ... .. 4 ... : ... .. . ... ...
ROW 5A : ... .. . P81 ... ... : ... .. . ... ... ... : ... .. . P7F : ... .. . ... : ... .. . ... ...
ROW 5B : ... .. . ... ... ... : ... .. . P7F ... ... : ... .. . P82 : ... .. . ... : ... .. . ... ...
ROW 5C : ... .. . P82 ... ... : ... .. . ... ... ... : ... .. . P85 : ... .. 0 ... : ... .. . ... ...
ROW 5D : ... .. . ... ... ... : ... .. . P7E ... ... : ... .. . P82 : ... .. 7 ... : ... .. . ... ...
ROW 5E : ... .. . P81 ... ... : ... .. . ... ... ... : ... .. . P7F : ... .. . ... : ... .. . ... ...
ROW 5F : ... .. . ... ... ... : ... .. . P7F ... ... : ... .. . P7C : ... .. 4 ... : ... .. . ... ...
ROW 60 : ... .. . P80 ... ... : ... .. . ... ... ... : ... .. . P79 : ... .. . ... : ... .. . ... ...
ROW 61 : ... .. . ... ... ... : ... .. . P80 ... ... : ... .. . P7C : ... .. . ... : ... .. . ... ...
ROW 62 : ... .. . P7F ... ... : ... .. . ... ... ... : --- .. . P80 : ... .. 0 ... : ... .. . ... ...
ROW 63 : ... .. . ... ... ... : ... .. . P81 ... ... : C-2 00 . P7C : ... .. 7 ... : ... .. . ... ...
ROW 64 : ... .. . P7E ... ... : ... .. . ... ... ... : ... .. . P79 : ... .. . ... : ... .. . ... ...
ROW 65 : ... .. . ... ... ... : ... .. . P82 ... ... : ... .. . P7C : ... .. 4 ... : ... .. . ... ...
ROW 66 : ... .. . P7F ... ... : ... .. . ... ... ... : ... .. . P7F : ... .. . ... : ... .. . ... ...
ROW 67 : ... .. . ... ... ... : ... .. . P81 ... ... : ... .. . P82 : ... .. . ... : ... .. . ... ...
ROW 68 : ... .. . P80 ... ... : ... .. . ... ... ... : --- .. . P80 : ... .. 0 ... : ... .. . ... ...
ROW 69 : ... .. . ... ... ... : ... .. . P80 ... ... : C-3 00 . P7D : ... .. 7 ... : ... .. . ... ...
ROW 6A : ... .. . P81 ... ... : ... .. . ... ... ... : ... .. . P7A : ... .. . ... : ... .. . ... ...
ROW 6B : ... .. . ... ... ... : ... .. . P7F ... ... : ... .. . P7D : ... .. 4 ... : ... .. . ... ...
ROW 6C : ... .. . P82 ... ... : ... .. . ... ... ... : ... .. . P80 : ... .. . ... : ... .. . ... ...
ROW 6D : ... .. . ... ... ... : ... .. . P7E ... ... : ... .. . P83 : ... .. . ... : ... .. . ... ...
ROW 6E : ... .. . P81 ... ... : ... .. . ... ... ... : ... .. . P86 : ... .. 0 ... : ... .. . ... ...
ROW 6F : ... .. . ... ... ... : ... .. . P7F ... ... : ... .. . P83 : ... .. 7 ... : ... .. . ... ...
ROW 70 : ... .. . P80 ... ... : ... .. . ... ... ... : ... .. . P80 : ... .. . ... : ... .. . ... ...
ROW 71 : ... .. . ... ... ... : ... .. . P80 ... ... : ... .. . P7D : ... .. 4 ... : ... .. . ... ...
ROW 72 : ... .. . P7F ... ... : ... .. . ... ... ... : ... .. . P7A : ... .. . ... : ... .. . ... ...
ROW 73 : ... .. . ... ... ... : ... .. . P81 ... ... : ... .. . P7D : ... .. . ... : ... .. . ... ...
ROW 74 : ... .. . P7E ... ... : ... .. . ... ... ... : --- .. . P80 : ... .. 0 ... : ... .. . ... ...
ROW 75 : ... .. . ... ... ... : ... .. . P82 ... ... : C-3 00 . P7D : ... .. 7 ... : ... .. . ... ...
ROW 76 : ... .. . P7F ... ... : ... .. . ... ... ... : ... .. . P7A : ... .. . ... : ... .. . ... ...
ROW 77 : ... .. . ... ... ... : ... .. . P81 ... ... : ... .. . P7D : ... .. 4 ... : ... .. . ... ...
ROW 78 : ... .. . P80 ... ... : ... .. . ... ... ... : ... .. . P80 : ... .. . ... : ... .. . ... ...
ROW 79 : ... .. . ... ... ... : ... .. . P80 ... ... : ... .. . P83 : ... .. . ... : ... .. . ... ...
ROW 7A : ... .. . P81 ... ... : ... .. . ... ... ... : ... .. . P86 : ... .. 0 ... : ... .. . ... ...
ROW 7B : ... .. . ... ... ... : ... .. . P7F ... ... : ... .. . P83 : ... .. 7 ... : ... .. . ... ...
ROW 7C : ... .. . P82 ... ... : ... .. . ... ... ... : ... .. . P80 : ... .. . ... : ... .. . ... ...
ROW 7D : ... .. . ... ... ... : ... .. . P7E ... ... : ... .. . P7D : ... .. 4 ... : ... .. . ... ...
ROW 7E : ... .. . P81 ... ... : ... .. . ... ... ... : ... .. . P7A : ... .. . ... : ... .. . ... ...
ROW 7F : ... .. . ... ... ... : ... .. . P7F ... ... : ... .. . P7D : ... .. . ... : ... .. . ... ...
ROW 80 : --- .. 0 P80 ... ... : ... .. . ... ... ... : --- .. . P80 : ... .. 0 ... : ... .. . ... ...
ROW 81 : F-4 00 9 P7F ... ... : ... .. . P80 ... ... : D-2 00 . P7C : ... .. 7 ... : ... .. . ... ...
ROW 82 : ... .. . P7E ... ... : ... .. . ... ... ... : ... .. . P79 : ... .. . ... : ... .. . ... ...
ROW 83 : ... .. . ... ... ... : ... .. . P81 ... ... : ... .. . P7C : ... .. 4 ... : ... .. . ... ...
ROW 84 : ... .. . P7D ... ... : ... .. . ... ... ... : ... .. . P7F : ... .. . ... : ... .. . ... ...
ROW 85 : ... .. . ... ... ... : ... .. . P82 ... ... : ... .. . P82 : ... .. . ... : ... .. . ... ...
ROW 86 : ... .. . P7E ... ... : ... .. . ... ... ... : ... .. . P85 : ... .. 1 ... : ... .. . ... ...
ROW 87 : ... .. . ... ... ... : ... .. . P81 ... ... : ... .. . P82 : ... .. . ... : ... .. . ... ...
ROW 88 : ... .. . P7F ... ... : ... .. . ... ... ... : ... .. . P7F : ... .. . ... : ... .. . ... ...
ROW 89 : ... .. . ... ... ... : --- .. 0 P80 ... ... : ... .. . P7C : ... .. 0 ... : ... .. . ... ...
ROW 8A : ... .. . P80 ... ... : F-4 00 6 P7F ... ... : ... .. . P79 : ... .. . ... : ... .. . ... ...
ROW 8B : ... .. . ... ... ... : ... .. . P7E ... ... : ... .. . P7C : ... .. . ... : ... .. . ... ...
ROW 8C : ... .. . P81 ... ... : ... .. . ... ... ... : --- .. . P80 : ... .. . ... : ... .. . ... ...
ROW 8D : ... .. . ... ... ... : ... .. . P7D ... ... : D-2 00 . P7C : ... .. 7 ... : ... .. . ... ...
ROW 8E : ... .. . P80 ... ... : ... .. . ... ... ... : ... .. . P79 : ... .. . ... : ... .. . ... ...
ROW 8F : ... .. . ... ... ... : ... .. . P7E ... ... : ... .. . P7C : ... .. 4 ... : ... .. . ... ...
ROW 90 : ... .. . P7F ... ... : ... .. . ... ... ... : ... .. . P7F : ... .. . ... : ... .. . ... ...
ROW 91 : ... .. . ... ... ... : ... .. . P7F ... ... : ... .. . P82 : ... .. . ... : ... .. . ... ...
ROW 92 : ... .. . P7E ... ... : ... .. . ... ... ... : ... .. . P85 : ... .. 0 ... : ... .. . ... ...
ROW 93 : ... .. . ... ... ... : ... .. . P80 ... ... : ... .. . P82 : ... .. 7 ... : ... .. . ... ...
ROW 94 : ... .. . P7D ... ... : ... .. . ... ... ... : ... .. . P7F : ... .. . ... : ... .. . ... ...
ROW 95 : ... .. . ... ... ... : ... .. . P81 ... ... : ... .. . P7C : ... .. 4 ... : ... .. . ... ...
ROW 96 : ... .. . P7E ... ... : ... .. . ... ... ... : ... .. . P79 : ... .. . ... : ... .. . ... ...
ROW 97 : ... .. . ... ... ... : ... .. . P80 ... ... : ... .. . P7C : ... .. . ... : ... .. . ... ...
ROW 98 : ... .. . P7F ... ... : ... .. . ... ... ... : --- .. . P80 : ... .. 0 ... : ... .. . ... ...
ROW 99 : ... .. . ... ... ... : ... .. . P7F ... ... : D-3 00 . P7C : ... .. 7 ... : ... .. . ... ...
ROW 9A : ... .. . P80 ... ... : ... .. . ... ... ... : ... .. . P79 : ... .. . ... : ... .. . ... ...
ROW 9B : ... .. . ... ... ... : ... .. . P7E ... ... : ... .. . P7C : ... .. 4 ... : ... .. . ... ...
ROW 9C : ... .. . P81 ... ... : ... .. . ... ... ... : ... .. . P7F : ... .. . ... : ... .. . ... ...
ROW 9D : ... .. . ... ... ... : ... .. . P7D ... ... : ... .. . P82 : ... .. . ... : ... .. . ... ...
ROW 9E : ... .. . P80 ... ... : ... .. . ... ... ... : --- .. . P80 : ... .. 1 ... : ... .. . ... ...
ROW 9F : ... .. . ... ... ... : ... .. . P7E ... ... : D-3 00 . P7C : ... .. . ... : ... .. . ... ...
ROW A0 : ... .. . P7F ... ... : ... .. . ... ... ... : ... .. . P79 : ... .. . ... : ... .. . ... ...
ROW A1 : ... .. . ... ... ... : ... .. . P7F ... ... : ... .. . P7C : ... .. 0 ... : ... .. . ... ...
ROW A2 : ... .. . P7E ... ... : ... .. . ... ... ... : ... .. . P7F : ... .. . ... : ... .. . ... ...
ROW A3 : ... .. . ... ... ... : ... .. . P80 ... ... : ... .. . P82 : ... .. . ... : ... .. . ... ...
ROW A4 : ... .. . P7D ... ... : ... .. . ... ... ... : ... .. . P85 : ... .. . ... : ... .. . ... ...
ROW A5 : ... .. . ... ... ... : ... .. . P81 ... ... : ... .. . P82 : ... .. 7 ... : ... .. . ... ...
ROW A6 : ... .. . P7E ... ... : ... .. . ... ... ... : ... .. . P7F : ... .. . ... : ... .. . ... ...
ROW A7 : ... .. . ... ... ... : ... .. . P80 ... ... : ... .. . P7C : ... .. 4 ... : ... .. . ... ...
ROW A8 : ... .. . P7F ... ... : ... .. . ... ... ... : ... .. . P79 : ... .. . ... : ... .. . ... ...
ROW A9 : ... .. . ... ... ... : ... .. . P7F ... ... : ... .. . P7C : ... .. . ... : ... .. . ... ...
ROW AA : ... .. . P80 ... ... : ... .. . ... ... ... : --- .. . P80 : ... .. 0 ... : ... .. . ... ...
ROW AB : ... .. . ... ... ... : ... .. . P7E ... ... : C-3 00 . P7D : ... .. 7 ... : ... .. . ... ...
ROW AC : ... .. . P81 ... ... : ... .. . ... ... ... : ... .. . P7A : ... .. . ... : ... .. . ... ...
ROW AD : ... .. . ... ... ... : ... .. . P7D ... ... : ... .. . P7D : ... .. 4 ... : ... .. . ... ...
ROW AE : ... .. . P80 ... ... : ... .. . ... ... ... : ... .. . P80 : ... .. . ... : ... .. . ... ...
ROW AF : ... .. . ... ... ... : ... .. . P7E ... ... : ... .. . P83 : ... .. . ... : ... .. . ... ...
ROW B0 : --- .. 0 ... ... ... : ... .. . ... ... ... : --- .. . P80 : ... .. 0 ... : ... .. . ... ...
ROW B1 : ... .. . ... ... ... : ... .. . P7F ... ... : B-2 00 . P7C : ... .. . ... : ... .. . ... ...
ROW B2 : ... .. . ... ... ... : ... .. . ... ... ... : ... .. . P79 : ... .. . ... : ... .. . ... ...
ROW B3 : ... .. . ... ... ... : ... .. . P80 ... ... : ... .. . P7C : ... .. . ... : ... .. . ... ...
ROW B4 : ... .. . ... ... ... : ... .. . ... ... ... : ... .. . P7F : ... .. . ... : ... .. . ... ...
ROW B5 : ... .. . ... ... ... : ... .. . P81 ... ... : ... .. . P82 : ... .. . ... : ... .. . ... ...
ROW B6 : ... .. . ... ... ... : ... .. . ... ... ... : --- .. . P80 : ... .. . ... : === 00 . ... ...
ROW B7 : ... .. . ... ... ... : ... .. . P80 ... ... : B-2 00 . P7C : ... .. 7 ... : ... .. . ... ...
ROW B8 : ... .. . ... ... ... : ... .. . ... ... ... : ... .. . P79 : ... .. . ... : ... .. . ... ...
ROW B9 : ... .. . ... ... ... : --- .. 0 ... ... ... : ... .. . P7C : ... .. 4 ... : ... .. . ... ...
ROW BA : ... .. . ... ... ... : ... .. . ... ... ... : ... .. . P7F : ... .. . ... : ... .. . ... ...
ROW BB : ... .. . ... ... ... : ... .. . ... ... ... : ... .. . P82 : ... .. . ... : ... .. . ... ...
ROW BC : --- .. . P80 ... ... : ... .. . ... ... ... : ... .. . P85 : ... .. 0 ... : ... .. . ... ...
ROW BD : G-4 00 9 ... ... ... : ... .. . ... ... ... : ... .. . P82 : ... .. 7 ... : ... .. . ... ...
ROW BE : ... .. . P7F ... ... : ... .. . ... ... ... : ... .. . P7F : ... .. . ... : ... .. . ... ...
ROW BF : ... .. . ... ... ... : ... .. . ... ... ... : ... .. . P7C : ... .. 4 ... : ... .. . ... ...
ROW C0 : ... .. . P7E ... ... : ... .. . ... ... ... : ... .. . P79 : ... .. . ... : ... .. . ... ...
ROW C1 : ... .. . ... ... ... : ... .. . ... ... ... : ... .. . P7C : ... .. . ... : ... .. . ... ...
ROW C2 : ... .. . P7F ... ... : ... .. . ... ... ... : --- .. . P80 : ... .. 0 ... : ... .. . ... ...
ROW C3 : ... .. . ... ... ... : ... .. . ... ... ... : B-2 00 . P7C : ... .. 7 ... : ... .. . ... ...
ROW C4 : ... .. . P80 ... ... : ... .. . ... ... ... : ... .. . P79 : ... .. . ... : ... .. . ... ...
ROW C5 : ... .. . ... ... ... : --- .. . P80 ... ... : ... .. . P7C : ... .. 4 ... : ... .. . ... ...
ROW C6 : ... .. . P81 ... ... : G-4 00 6 ... ... ... : ... .. . P7F : ... .. . ... : ... .. . ... ...
ROW C7 : ... .. . ... ... ... : ... .. . P7F ... ... : ... .. . P82 : ... .. . ... : ... .. . ... ...
ROW C8 : ... .. . P82 ... ... : ... .. . ... ... ... : --- .. . P80 : ... .. 0 ... : ... .. . ... ...
ROW C9 : ... .. . ... ... ... : ... .. . P7E ... ... : B-2 00 . P7C : ... .. 7 ... : ... .. . ... ...
ROW CA : ... .. . P81 ... ... : ... .. . ... ... ... : ... .. . P79 : ... .. . ... : ... .. . ... ...
ROW CB : ... .. . ... ... ... : ... .. . P7F ... ... : ... .. . P7C : ... .. 4 ... : ... .. . ... ...
ROW CC : ... .. . P80 ... ... : ... .. . ... ... ... : ... .. . P7F : ... .. . ... : ... .. . ... ...
ROW CD : ... .. . ... ... ... : ... .. . P80 ... ... : ... .. . P82 : ... .. . ... : ... .. . ... ...
ROW CE : ... .. . P7F ... ... : ... .. . ... ... ... : ... .. . P85 : ... .. 1 ... : ... .. . ... ...
ROW CF : ... .. . ... ... ... : ... .. . P81 ... ... : ... .. . P82 : ... .. . ... : ... .. . ... ...
ROW D0 : ... .. . P7E ... ... : ... .. . ... ... ... : ... .. . P7F : ... .. . ... : ... .. . ... ...
ROW D1 : ... .. . ... ... ... : ... .. . P82 ... ... : ... .. . P7C : ... .. 0 ... : ... .. . ... ...
ROW D2 : ... .. . P7F ... ... : ... .. . ... ... ... : ... .. . P79 : ... .. . ... : ... .. . ... ...
ROW D3 : ... .. . ... ... ... : ... .. . P81 ... ... : ... .. . P7C : ... .. . ... : ... .. . ... ...
ROW D4 : --- .. 0 P80 ... ... : ... .. . ... ... ... : --- .. . P80 : ... .. . ... : ... .. . ... ...
ROW D5 : F-4 00 9 P7F ... ... : ... .. . P80 ... ... : B-2 00 . P7C : ... .. 7 ... : ... .. . ... ...
ROW D6 : ... .. . P7E ... ... : ... .. . ... ... ... : ... .. . P79 : ... .. . ... : ... .. . ... ...
ROW D7 : ... .. . ... ... ... : ... .. . P7F ... ... : ... .. . P7C : ... .. 4 ... : ... .. . ... ...
ROW D8 : ... .. . P7D ... ... : ... .. . ... ... ... : ... .. . P7F : ... .. . ... : ... .. . ... ...
ROW D9 : ... .. . ... ... ... : ... .. . P7E ... ... : ... .. . P82 : ... .. . ... : ... .. . ... ...
ROW DA : ... .. . P7E ... ... : ... .. . ... ... ... : ... .. . P85 : ... .. 1 ... : ... .. . ... ...
ROW DB : ... .. . ... ... ... : ... .. . P7F ... ... : ... .. . P82 : ... .. . ... : ... .. . ... ...
ROW DC : ... .. . P7F ... ... : ... .. . ... ... ... : ... .. . P7F : ... .. . ... : ... .. . ... ...
ROW DD : ... .. . ... ... ... : --- .. 0 P80 ... ... : ... .. . P7C : ... .. 0 ... : ... .. . ... ...
ROW DE : ... .. . P80 ... ... : F-4 00 6 P7F ... ... : ... .. . P79 : ... .. . ... : ... .. . ... ...
ROW DF : ... .. . ... ... ... : ... .. . P7E ... ... : ... .. . P7C : ... .. . ... : ... .. . ... ...
ROW E0 : --- .. 0 ... ... ... : ... .. . ... ... ... : --- .. . P80 : ... .. . ... : ... .. . ... ...
ROW E1 : E-4 00 9 ... ... ... : ... .. . P7D ... ... : C-2 00 . P7C : ... .. 7 ... : ... .. . ... ...
ROW E2 : ... .. . P7F ... ... : ... .. . ... ... ... : ... .. . P79 : ... .. . ... : ... .. . ... ...
ROW E3 : ... .. . ... ... ... : ... .. . P7E ... ... : ... .. . P7C : ... .. 4 ... : ... .. . ... ...
ROW E4 : ... .. . P7E ... ... : ... .. . ... ... ... : ... .. . P7F : ... .. . ... : ... .. . ... ...
ROW E5 : ... .. . ... ... ... : ... .. . P7F ... ... : ... .. . P82 : ... .. . ... : ... .. . ... ...
ROW E6 : ... .. . P7F ... ... : ... .. . ... ... ... : ... .. . P85 : ... .. 1 ... : ... .. . ... ...
ROW E7 : ... .. . ... ... ... : ... .. . P80 ... ... : ... .. . P82 : ... .. . ... : ... .. . ... ...
ROW E8 : ... .. . P80 ... ... : ... .. . ... ... ... : ... .. . P7F : ... .. . ... : ... .. . ... ...
ROW E9 : ... .. . ... ... ... : --- .. 0 ... ... ... : ... .. . P7C : ... .. 0 ... : ... .. . ... ...
ROW EA : ... .. . P81 ... ... : E-4 00 6 ... ... ... : ... .. . P79 : ... .. . ... : ... .. . ... ...
ROW EB : ... .. . ... ... ... : ... .. . P7F ... ... : ... .. . P7C : ... .. . ... : ... .. . ... ...
ROW EC : --- .. 0 P80 ... ... : ... .. . ... ... ... : --- .. . P80 : ... .. . ... : ... .. . ... ...
ROW ED : F-4 00 9 P7F ... ... : ... .. . P7E ... ... : C-2 00 . P7C : ... .. 7 ... : ... .. . ... ...
ROW EE : ... .. . P7E ... ... : ... .. . ... ... ... : ... .. . P79 : ... .. . ... : ... .. . ... ...
ROW EF : ... .. . ... ... ... : ... .. . P7F ... ... : ... .. . P7C : ... .. 4 ... : ... .. . ... ...
ROW F0 : ... .. . P7D ... ... : ... .. . ... ... ... : ... .. . P7F : ... .. . ... : ... .. . ... ...
ROW F1 : ... .. . ... ... ... : ... .. . P80 ... ... : ... .. . P82 : ... .. . ... : ... .. . ... ...
ROW F2 : ... .. . P7E ... ... : ... .. . ... ... ... : ... .. . P85 : ... .. 0 ... : ... .. . ... ...
ROW F3 : ... .. . ... ... ... : ... .. . P81 ... ... : ... .. . P82 : ... .. 7 ... : ... .. . ... ...
ROW F4 : ... .. . P7F ... ... : ... .. . ... ... ... : ... .. . P7F : ... .. . ... : ... .. . ... ...
ROW F5 : ... .. . ... ... ... : --- .. 0 P80 ... ... : ... .. . P7C : ... .. 4 ... : ... .. . ... ...
ROW F6 : ... .. . P80 ... ... : F-4 00 6 P7F ... ... : ... .. . P79 : ... .. . ... : ... .. . ... ...
ROW F7 : ... .. . ... ... ... : ... .. . P7E ... ... : ... .. . P7C : ... .. . ... : ... .. . ... ...
ROW F8 : --- .. 0 ... ... ... : ... .. . ... ... ... : --- .. . P80 : ... .. 0 ... : ... .. . ... ...
ROW F9 : F#4 00 9 P7F ... ... : ... .. . P7D ... ... : C-3 00 . P7D : ... .. 7 ... : ... .. . ... ...
ROW FA : ... .. . P7E ... ... : ... .. . ... ... ... : ... .. . P7A : ... .. . ... : ... .. . ... ...
ROW FB : ... .. . ... ... ... : ... .. . P7E ... ... : ... .. . P7D : ... .. 4 ... : ... .. . ... ...
ROW FC : ... .. . P7D ... ... : ... .. . ... ... ... : ... .. . P80 : ... .. . ... : ... .. . ... ...
ROW FD : ... .. . ... ... ... : ... .. . P7F ... ... : ... .. . P83 : ... .. . ... : ... .. . ... ...
ROW FE : ... .. . P7E ... ... : ... .. . ... ... ... : --- .. . P80 : ... .. 1 ... : ... .. . ... ...
ROW FF : ... .. . ... ... ... : ... .. . P80 ... ... : C-3 00 . P7D : ... .. . ... : ... .. . ... ...

PATTERN 08
ROW 00 : ... .. . P7F ... ... : ... .. . ... ... ... : ... .. . P7A : ... .. . ... : ... .. . ... ...
ROW 01 : ... .. . ... ... ... : --- .. 0 ... ... ... : ... .. . P7D : ... .. 0 ... : ... .. . ... ...
ROW 02 : ... .. . P80 ... ... : F#4 00 6 P7F ... ... : ... .. . P80 : ... .. . ... : ... .. . ... ...
ROW 03 : ... .. . ... ... ... : ... .. . P7E ... ... : ... .. . P83 : ... .. . ... : ... .. . ... ...
ROW 04 : --- .. 0 ... ... ... : ... .. . ... ... ... : ... .. . P86 : ... .. . ... : ... .. . ... ...
ROW 05 : G-4 00 9 ... ... ... : ... .. . P7D ... ... : ... .. . P83 : ... .. 7 ... : ... .. . ... ...
ROW 06 : ... .. . P7F ... ... : ... .. . ... ... ... : ... .. . P80 : ... .. . ... : ... .. . ... ...
ROW 07 : ... .. . ... ... ... : ... .. . P7E ... ... : ... .. . P7D : ... .. 4 ... : ... .. . ... ...
ROW 08 : ... .. . P7E ... ... : ... .. . ... ... ... : ... .. . P7A : ... .. . ... : ... .. . ... ...
ROW 09 : ... .. . ... ... ... : ... .. . P7F ... ... : ... .. . P7D : ... .. . ... : ... .. . ... ...
ROW 0A : ... .. . P7F ... ... : ... .. . ... ... ... : --- .. . P80 : ... .. 0 ... : ... .. . ... ...
ROW 0B : ... .. . ... ... ... : ... .. . P80 ... ... : C-3 00 . P7D : ... .. 7 ... : ... .. . ... ...
ROW 0C : ... .. . P80 ... ... : ... .. . ... ... ... : ... .. . P7A : ... .. . ... : ... .. . ... ...
ROW 0D : ... .. . ... ... ... : --- .. 0 ... ... ... : ... .. . P7D : ... .. 4 ... : ... .. . ... ...
ROW 0E : ... .. . P81 ... ... : G-4 00 6 ... ... ... : ... .. . P80 : ... .. . ... : ... .. . ... ...
ROW 0F : ... .. . ... ... ... : ... .. . P7F ... ... : ... .. . P83 : ... .. . ... : ... .. . ... ...
ROW 10 : --- .. 0 P80 ... ... : ... .. . ... ... ... : --- .. . P80 : ... .. 0 ... : ... .. . ... ...
ROW 11 : ... .. . ... ... ... : ... .. . P7E ... ... : C-2 00 . P7C : ... .. . ... : ... .. . ... ...
ROW 12 : ... .. . ... ... ... : ... .. . ... ... ... : ... .. . P79 : ... .. . ... : ... .. . ... ...
ROW 13 : ... .. . ... ... ... : ... .. . P7F ... ... : ... .. . P7C : ... .. . ... : ... .. . ... ...
ROW 14 : ... .. . ... ... ... : ... .. . ... ... ... : ... .. . P7F : ... .. . ... : ... .. . ... ...
ROW 15 : ... .. . ... ... ... : ... .. . P80 ... ... : ... .. . P82 : ... .. . ... : ... .. . ... ...
ROW 16 : ... .. . ... ... ... : ... .. . ... ... ... : --- .. . P80 : ... .. . ... : === 00 . ... ...
ROW 17 : ... .. . ... ... ... : ... .. . P81 ... ... : C-2 00 . P7C : ... .. 7 ... : ... .. . ... ...
ROW 18 : ... .. . ... ... ... : ... .. . ... ... ... : ... .. . P79 : ... .. . ... : ... .. . ... ...
ROW 19 : ... .. . ... ... ... : --- .. 0 P80 ... ... : ... .. . P7C : ... .. 4 ... : ... .. . ... ...
ROW 1A : ... .. . ... ... ... : ... .. . ... ... ... : ... .. . P7F : ... .. . ... : ... .. . ... ...
ROW 1B : ... .. . ... ... ... : ... .. . ... ... ... : ... .. . P82 : ... .. . ... : ... .. . ... ...
ROW 1C : ... .. . ... ... ... : ... .. . ... ... ... : ... .. . P85 : ... .. 0 ... : ... .. . ... ...
ROW 1D : ... .. . ... ... ... : ... .. . ... ... ... : ... .. . P82 : ... .. 7 ... : ... .. . ... ...
ROW 1E : ... .. . ... ... ... : ... .. . ... ... ... : ... .. . P7F : ... .. . ... : ... .. . ... ...
ROW 1F : ... .. . ... ... ... : ... .. . ... ... ... : ... .. . P7C : ... .. 4 ... : ... .. . ... ...
ROW 20 : ... .. . ... ... ... : ... .. . ... ... ... : ... .. . P79 : ... .. . ... : ... .. . ... ...
ROW 21 : ... .. . ... ... ... : ... .. . ... ... ... : ... .. . P7C : ... .. . ... : ... .. . ... ...
ROW 22 : ... .. . ... ... ... : ... .. . ... ... ... : --- .. . P80 : ... .. 0 ... : ... .. . ... ...
ROW 23 : ... .. . ... ... ... : ... .. . ... ... ... : C-2 00 . P7C : ... .. 7 ... : ... .. . ... ...
ROW 24 : ... .. . ... ... ... : ... .. . ... ... ... : ... .. . P79 : ... .. . ... : ... .. . ... ...
ROW 25 : ... .. . ... ... ... : ... .. . ... ... ... : ... .. . P7C : ... .. 4 ... : ... .. . ... ...
ROW 26 : ... .. . ... ... ... : ... .. . ... ... ... : ... .. . P7F : ... .. . ... : ... .. . ... ...
ROW 27 : ... .. . ... ... ... : ... .. . ... ... ... : ... .. . P82 : ... .. . ... : ... .. . ... ...
ROW 28 : ... .. . ... ... ... : ... .. . ... ... ... : --- .. . P80 : ... .. 0 ... : ... .. . ... ...
ROW 29 : ... .. . ... ... ... : ... .. . ... ... ... : C-3 00 . P7D : ... .. 7 ... : ... .. . ... ...
ROW 2A : ... .. . ... ... ... : ... .. . ... ... ... : ... .. . P7A : ... .. . ... : ... .. . ... ...
ROW 2B : ... .. . ... ... ... : ... .. . ... ... ... : ... .. . P7D : ... .. 4 ... : ... .. . ... ...
ROW 2C : ... .. . ... ... ... : ... .. . ... ... ... : ... .. . P80 : ... .. . ... : ... .. . ... ...
ROW 2D : ... .. . ... ... ... : ... .. . ... ... ... : ... .. . P83 : ... .. . ... : ... .. . ... ...
ROW 2E : ... .. . ... ... ... : ... .. . ... ... ... : ... .. . P86 : ... .. 0 ... : ... .. . ... ...
ROW 2F : ... .. . ... ... ... : ... .. . ... ... ... : ... .. . P83 : ... .. 7 ... : ... .. . ... ...
ROW 30 : ... .. . ... ... ... : ... .. . ... ... ... : ... .. . P80 : ... .. . ... : ... .. . ... ...
ROW 31 : ... .. . ... ... ... : ... .. . ... ... ... : ... .. . P7D : ... .. 4 ... : ... .. . ... ...
ROW 32 : ... .. . ... ... ... : ... .. . ... ... ... : ... .. . P7A : ... .. . ... : ... .. . ... ...
ROW 33 : ... .. . ... ... ... : ... .. . ... ... ... : ... .. . P7D : ... .. . ... : ... .. . ... ...
ROW 34 : ... .. . ... ... ... : ... .. . ... ... ... : --- .. . P80 : ... .. 0 ... : ... .. . ... ...
ROW 35 : ... .. . ... ... ... : ... .. . ... ... ... : C-3 00 . P7D : ... .. 7 ... : ... .. . ... ...
ROW 36 : ... .. . ... ... ... : ... .. . ... ... ... : ... .. . P7A : ... .. . ... : ... .. . ... ...
ROW 37 : ... .. . ... ... ... : ... .. . ... ... ... : ... .. . P7D : ... .. 4 ... : ... .. . ... ...
ROW 38 : ... .. . ... ... ... : ... .. . ... ... ... : ... .. . P80 : ... .. . ... : ... .. . ... ...
ROW 39 : ... .. . ... ... ... : ... .. . ... ... ... : ... .. . P83 : ... .. . ... : ... .. . ... ...
ROW 3A : ... .. . ... ... ... : ... .. . ... ... ... : ... .. . P86 : ... .. 0 ... : ... .. . ... ...
ROW 3B : ... .. . ... ... ... : ... .. . ... ... ... : ... .. . P83 : ... .. 7 ... : ... .. . ... ...
ROW 3C : ... .. . ... ... ... : ... .. . ... ... ... : ... .. . P80 : ... .. . ... : ... .. . ... ...
ROW 3D : ... .. . ... ... ... : ... .. . ... ... ... : ... .. . P7D : ... .. 4 ... : ... .. . ... ...
ROW 3E : ... .. . ... ... ... : ... .. . ... ... ... : ... .. . P7A : ... .. . ... : ... .. . ... ...
ROW 3F : ... .. . ... ... ... : ... .. . ... ... ... : ... .. . P7D : ... .. . ... : ... .. . ... ...
ROW 40 : --- .. . P80 ... ... : ... .. . ... ... ... : --- .. . P80 : ... .. 0 ... : ... .. . ... ...
ROW 41 : A-4 00 9 P7F ... ... : ... .. . ... ... ... : F-2 00 . P7C : ... .. 7 ... : ... .. . ... ...
ROW 42 : ... .. . P7E ... ... : ... .. . ... ... ... : ... .. . P79 : ... .. . ... : ... .. . ... ...
ROW 43 : ... .. . ... ... ... : ... .. . ... ... ... : ... .. . P7C : ... .. 4 ... : ... .. . ... ...
ROW 44 : ... .. . P7D ... ... : ... .. . ... ... ... : ... .. . P7F : ... .. . ... : ... .. . ... ...
ROW 45 : ... .. . ... ... ... : ... .. . ... ... ... : ... .. . P82 : ... .. . ... : ... .. . ... ...
ROW 46 : ... .. . P7E ... ... : ... .. . ... ... ... : ... .. . P85 : ... .. 1 ... : ... .. . ... ...
ROW 47 : ... .. . ... ... ... : ... .. . ... ... ... : ... .. . P82 : ... .. . ... : ... .. . ... ...
ROW 48 : ... .. . P7F ... ... : ... .. . ... ... ... : ... .. . P7F : ... .. . ... : ... .. . ... ...
ROW 49 : ... .. . ... ... ... : --- .. . P80 ... ... : ... .. . P7C : ... .. 0 ... : ... .. . ... ...
ROW 4A : ... .. . P80 ... ... : A-4 00 6 P7F ... ... : ... .. . P79 : ... .. . ... : ... .. . ... ...
ROW 4B : ... .. . ... ... ... : ... .. . P7E ... ... : ... .. . P7C : ... .. . ... : ... .. . ... ...
ROW 4C : ... .. . P81 ... ... : ... .. . ... ... ... : --- .. . P80 : ... .. . ... : ... .. . ... ...
ROW 4D : ... .. . ... ... ... : ... .. . P7D ... ... : F-2 00 . P7C : ... .. 7 ... : ... .. . ... ...
ROW 4E : ... .. . P80 ... ... : ... .. . ... ... ... : ... .. . P79 : ... .. . ... : ... .. . ... ...
ROW 4F : ... .. . ... ... ... : ... .. . P7E ... ... : ... .. . P7C : ... .. 4 ... : ... .. . ... ...
ROW 50 : ... .. . P7F ... ... : ... .. . ... ... ... : ... .. . P7F : ... .. . ... : ... .. . ... ...
ROW 51 : ... .. . ... ... ... : ... .. . P7F ... ... : ... .. . P82 : ... .. . ... : ... .. . ... ...
ROW 52 : ... .. . P7E ... ... : ... .. . ... ... ... : ... .. . P85 : ... .. 0 ... : ... .. . ... ...
ROW 53 : ... .. . ... ... ... : ... .. . P80 ... ... : ... .. . P82 : ... .. 7 ... : ... .. . ... ...
ROW 54 : ... .. . P7D ... ... : ... .. . ... ... ... : ... .. . P7F : ... .. . ... : ... .. . ... ...
ROW 55 : ... .. . ... ... ... : ... .. . P81 ... ... : ... .. . P7C : ... .. 4 ... : ... .. . ... ...
ROW 56 : ... .. . P7E ... ... : ... .. . ... ... ... : ... .. . P79 : ... .. . ... : ... .. . ... ...
ROW 57 : ... .. . ... ... ... : ... .. . P80 ... ... : ... .. . P7C : ... .. . ... : ... .. . ... ...
ROW 58 : ... .. . P7F ... ... : ... .. . ... ... ... : --- .. . P80 : ... .. 0 ... : ... .. . ... ...
ROW 59 : ... .. . ... ... ... : ... .. . P7F ... ... : F-3 00 . P7C : ... .. 7 ... : ... .. . ... ...
ROW 5A : ... .. . P80 ... ... : ... .. . ... ... ... : ... .. . P79 : ... .. . ... : ... .. . ... ...
ROW 5B : ... .. . ... ... ... : ... .. . P7E ... ... : ... .. . P7C : ... .. 4 ... : ... .. . ... ...
ROW 5C : ... .. . P81 ... ... : ... .. . ... ... ... : ... .. . P7F : ... .. . ... : ... .. . ... ...
ROW 5D : ... .. . ... ... ... : ... .. . P7D ... ... : ... .. . P82 : ... .. . ... : ... .. . ... ...
ROW 5E : ... .. . P80 ... ... : ... .. . ... ... ... : --- .. . P80 : ... .. 1 ... : ... .. . ... ...
ROW 5F : ... .. . ... ... ... : ... .. . P7E ... ... : F-3 00 . P7C : ... .. . ... : ... .. . ... ...
ROW 60 : ... .. . P7F ... ... : ... .. . ... ... ... : ... .. . P79 : ... .. . ... : ... .. . ... ...
ROW 61 : ... .. . ... ... ... : ... .. . P7F ... ... : ... .. . P7C : ... .. 0 ... : ... .. . ... ...
ROW 62 : ... .. . P7E ... ... : ... .. . ... ... ... : ... .. . P7F : ... .. . ... : ... .. . ... ...
ROW 63 : ... .. . ... ... ... : ... .. . P80 ... ... : ... .. . P82 : ... .. . ... : ... .. . ... ...
ROW 64 : ... .. . P7D ... ... : ... .. . ... ... ... : ... .. . P85 : ... .. . ... : ... .. . ... ...
ROW 65 : ... .. . ... ... ... : ... .. . P81 ... ... : ... .. . P82 : ... .. 7 ... : ... .. . ... ...
ROW 66 : ... .. . P7E ... ... : ... .. . ... ... ... : ... .. . P7F : ... .. . ... : ... .. . ... ...
ROW 67 : ... .. . ... ... ... : ... .. . P80 ... ... : ... .. . P7C : ... .. 4 ... : ... .. . ... ...
ROW 68 : ... .. . P7F ... ... : ... .. . ... ... ... : ... .. . P79 : ... .. . ... : ... .. . ... ...
ROW 69 : ... .. . ... ... ... : ... .. . P7F ... ... : ... .. . P7C : ... .. . ... : ... .. . ... ...
ROW 6A : ... .. . P80 ... ... : ... .. . ... ... ... : --- .. . P80 : ... .. 0 ... : ... .. . ... ...
ROW 6B : ... .. . ... ... ... : ... .. . P7E ... ... : F-3 00 . P7C : ... .. 7 ... : ... .. . ... ...
ROW 6C : ... .. . P81 ... ... : ... .. . ... ... ... : ... .. . P79 : ... .. . ... : ... .. . ... ...
ROW 6D : ... .. . ... ... ... : ... .. . P7D ... ... : ... .. . P7C : ... .. 4 ... : ... .. . ... ...
ROW 6E : ... .. . P80 ... ... : ... .. . ... ... ... : ... .. . P7F : ... .. . ... : ... .. . ... ...
ROW 6F : ... .. . ... ... ... : ... .. . P7E ... ... : ... .. . P82 : ... .. . ... : ... .. . ... ...
ROW 70 : --- .. 0 ... ... ... : ... .. . ... ... ... : --- .. . P80 : ... .. 0 ... : ... .. . ... ...
ROW 71 : ... .. . ... ... ... : ... .. . P7F ... ... : G-2 00 . P7C : ... .. . ... : ... .. . ... ...
ROW 72 : ... .. . ... ... ... : ... .. . ... ... ... : ... .. . P79 : ... .. . ... : ... .. . ... ...
ROW 73 : ... .. . ... ... ... : ... .. . P80 ... ... : ... .. . P7C : ... .. . ... : ... .. . ... ...
ROW 74 : ... .. . ... ... ... : ... .. . ... ... ... : ... .. . P7F : ... .. . ... : ... .. . ... ...
ROW 75 : ... .. . ... ... ... : ... .. . P81 ... ... : ... .. . P82 : ... .. . ... : ... .. . ... ...
ROW 76 : ... .. . ... ... ... : ... .. . ... ... ... : --- .. . P80 : ... .. . ... : === 00 . ... ...
ROW 77 : ... .. . ... ... ... : ... .. . P80 ... ... : G-2 00 . P7C : ... .. 7 ... : ... .. . ... ...
ROW 78 : ... .. . ... ... ... : ... .. . ... ... ... : ... .. . P79 : ... .. . ... : ... .. . ... ...
ROW 79 : ... .. . ... ... ... : --- .. 0 ... ... ... : ... .. . P7C : ... .. 4 ... : ... .. . ... ...
ROW 7A : ... .. . ... ... ... : ... .. . ... ... ... : ... .. . P7F : ... .. . ... : ... .. . ... ...
ROW 7B : ... .. . ... ... ... : ... .. . ... ... ... : ... .. . P82 : ... .. . ... : ... .. . ... ...
ROW 7C : --- .. . P80 ... ... : ... .. . ... ... ... : ... .. . P85 : ... .. 0 ... : ... .. . ... ...
ROW 7D : B-4 00 9 P7F ... ... : ... .. . ... ... ... : ... .. . P82 : ... .. 7 ... : ... .. . ... ...
ROW 7E : ... .. . P7E ... ... : ... .. . ... ... ... : ... .. . P7F : ... .. . ... : ... .. . ... ...
ROW 7F : ... .. . ... ... ... : ... .. . ... ... ... : ... .. . P7C : ... .. 4 ... : ... .. . ... ...
ROW 80 : ... .. . P7D ... ... : ... .. . ... ... ... : ... .. . P79 : ... .. . ... : ... .. . ... ...
ROW 81 : ... .. . ... ... ... : ... .. . ... ... ... : ... .. . P7C : ... .. . ... : ... .. . ... ...
ROW 82 : ... .. . P7E ... ... : ... .. . ... ... ... : --- .. . P80 : ... .. 0 ... : ... .. . ... ...
ROW 83 : ... .. . ... ... ... : ... .. . ... ... ... : G-2 00 . P7C : ... .. 7 ... : ... .. . ... ...
ROW 84 : ... .. . P7F ... ... : ... .. . ... ... ... : ... .. . P79 : ... .. . ... : ... .. . ... ...
ROW 85 : ... .. . ... ... ... : --- .. . P80 ... ... : ... .. . P7C : ... .. 4 ... : ... .. . ... ...
ROW 86 : ... .. . P80 ... ... : B-4 00 6 P7F ... ... : ... .. . P7F : ... .. . ... : ... .. . ... ...
ROW 87 : ... .. . ... ... ... : ... .. . P7E ... ... : ... .. . P82 : ... .. . ... : ... .. . ... ...
ROW 88 : ... .. . P81 ... ... : ... .. . ... ... ... : --- .. . P80 : ... .. 0 ... : ... .. . ... ...
ROW 89 : ... .. . ... ... ... : ... .. . P7D ... ... : G-3 00 . P7C : ... .. 7 ... : ... .. . ... ...
ROW 8A : ... .. . P80 ... ... : ... .. . ... ... ... : ... .. . P79 : ... .. . ... : ... .. . ... ...
ROW 8B : ... .. . ... ... ... : ... .. . P7E ... ... : ... .. . P7C : ... .. 4 ... : ... .. . ... ...
ROW 8C : ... .. . P7F ... ... : ... .. . ... ... ... : ... .. . P7F : ... .. . ... : ... .. . ... ...
ROW 8D : ... .. . ... ... ... : ... .. . P7F ... ... : ... .. . P82 : ... .. . ... : ... .. . ... ...
ROW 8E : ... .. . P7E ... ... : ... .. . ... ... ... : ... .. . P85 : ... .. 1 ... : ... .. . ... ...
ROW 8F : ... .. . ... ... ... : ... .. . P80 ... ... : ... .. . P82 : ... .. . ... : ... .. . ... ...
ROW 90 : ... .. . P7D ... ... : ... .. . ... ... ... : ... .. . P7F : ... .. . ... : ... .. . ... ...
ROW 91 : ... .. . ... ... ... : ... .. . P81 ... ... : ... .. . P7C : ... .. 0 ... : ... .. . ... ...
ROW 92 : ... .. . P7E ... ... : ... .. . ... ... ... : ... .. . P79 : ... .. . ... : ... .. . ... ...
ROW 93 : ... .. . ... ... ... : ... .. . P80 ... ... : ... .. . P7C : ... .. . ... : ... .. . ... ...
ROW 94 : --- .. 0 P80 ... ... : ... .. . ... ... ... : --- .. . P80 : ... .. . ... : ... .. . ... ...
ROW 95 : A-4 00 9 P7F ... ... : ... .. . P7F ... ... : G-3 00 . P7C : ... .. 7 ... : ... .. . ... ...
ROW 96 : ... .. . P7E ... ... : ... .. . ... ... ... : ... .. . P79 : ... .. . ... : ... .. . ... ...
ROW 97 : ... .. . ... ... ... : ... .. . P7E ... ... : ... .. . P7C : ... .. 4 ... : ... .. . ... ...
ROW 98 : ... .. . P7D ... ... : ... .. . ... ... ... : ... .. . P7F : ... .. . ... : ... .. . ... ...
ROW 99 : ... .. . ... ... ... : ... .. . P7D ... ... : ... .. . P82 : ... .. . ... : ... .. . ... ...
ROW 9A : ... .. . P7E ... ... : ... .. . ... ... ... : ... .. . P85 : ... .. 1 ... : ... .. . ... ...
ROW 9B : ... .. . ... ... ... : ... .. . P7E ... ... : ... .. . P82 : ... .. . ... : ... .. . ... ...
ROW 9C : ... .. . P7F ... ... : ... .. . ... ... ... : ... .. . P7F : ... .. . ... : ... .. . ... ...
ROW 9D : ... .. . ... ... ... : --- .. 0 P80 ... ... : ... .. . P7C : ... .. 0 ... : ... .. . ... ...
ROW 9E : ... .. . P80 ... ... : A-4 00 6 P7F ... ... : ... .. . P79 : ... .. . ... : ... .. . ... ...
ROW 9F : ... .. . ... ... ... : ... .. . P7E ... ... : ... .. . P7C : ... .. . ... : ... .. . ... ...
ROW A0 : --- .. 0 ... ... ... : ... .. . ... ... ... : --- .. . P80 : ... .. . ... : ... .. . ... ...
ROW A1 : G-4 00 9 ... ... ... : ... .. . P7D ... ... : E-2 00 . P7C : ... .. 7 ... : ... .. . ... ...
ROW A2 : ... .. . P7F ... ... : ... .. . ... ... ... : ... .. . P79 : ... .. . ... : ... .. . ... ...
ROW A3 : ... .. . ... ... ... : ... .. . P7E ... ... : ... .. . P7C : ... .. 4 ... : ... .. . ... ...
ROW A4 : ... .. . P7E ... ... : ... .. . ... ... ... : ... .. . P7F : ... .. . ... : ... .. . ... ...
ROW A5 : ... .. . ... ... ... : ... .. . P7F ... ... : ... .. . P82 : ... .. . ... : ... .. . ... ...
ROW A6 : ... .. . P7F ... ... : ... .. . ... ... ... : ... .. . P85 : ... .. 1 ... : ... .. . ... ...
ROW A7 : ... .. . ... ... ... : ... .. . P80 ... ... : ... .. . P82 : ... .. . ... : ... .. . ... ...
ROW A8 : ... .. . P80 ... ... : ... .. . ... ... ... : ... .. . P7F : ... .. . ... : ... .. . ... ...
ROW A9 : ... .. . ... ... ... : --- .. 0 ... ... ... : ... .. . P7C : ... .. 0 ... : ... .. . ... ...
ROW AA : ... .. . P81 ... ... : G-4 00 6 ... ... ... : ... .. . P79 : ... .. . ... : ... .. . ... ...
ROW AB : ... .. . ... ... ... : ... .. . P7F ... ... : ... .. . P7C : ... .. . ... : ... .. . ... ...
ROW AC : --- .. 0 P80 ... ... : ... .. . ... ... ... : --- .. . P80 : ... .. . ... : ... .. . ... ...
ROW AD : G-4 00 9 ... ... ... : ... .. . P7E ... ... : E-2 00 . P7C : ... .. 7 ... : ... .. . ... ...
ROW AE : ... .. . P7F ... ... : ... .. . ... ... ... : ... .. . P79 : ... .. . ... : ... .. . ... ...
ROW AF : ... .. . ... ... ... : ... .. . P7F ... ... : ... .. . P7C : ... .. 4 ... : ... .. . ... ...
ROW B0 : ... .. . P7E ... ... : ... .. . ... ... ... : ... .. . P7F : ... .. . ... : ... .. . ... ...
ROW B1 : ... .. . ... ... ... : ... .. . P80 ... ... : ... .. . P82 : ... .. . ... : ... .. . ... ...
ROW B2 : ... .. . P7F ... ... : ... .. . ... ... ... : ... .. . P85 : ... .. 0 ... : ... .. . ... ...
ROW B3 : ... .. . ... ... ... : ... .. . P81 ... ... : ... .. . P82 : ... .. 7 ... : ... .. . ... ...
ROW B4 : ... .. . P80 ... ... : ... .. . ... ... ... : ... .. . P7F : ... .. . ... : ... .. . ... ...
ROW B5 : ... .. . ... ... ... : --- .. 0 P80 ... ... : ... .. . P7C : ... .. 4 ... : ... .. . ... ...
ROW B6 : ... .. . P81 ... ... : G-4 00 6 ... ... ... : ... .. . P79 : ... .. . ... : ... .. . ... ...
ROW B7 : ... .. . ... ... ... : ... .. . P7F ... ... : ... .. . P7C : ... .. . ... : ... .. . ... ...
ROW B8 : --- .. 0 P80 ... ... : ... .. . ... ... ... : --- .. . P80 : ... .. 0 ... : ... .. . ... ...
ROW B9 : D-5 00 9 P7F ... ... : ... .. . P7E ... ... : E-3 00 . P7C : ... .. 7 ... : ... .. . ... ...
ROW BA : ... .. . P7E ... ... : ... .. . ... ... ... : ... .. . P79 : ... .. . ... : ... .. . ... ...
ROW BB : ... .. . ... ... ... : ... .. . P7F ... ... : ... .. . P7C : ... .. 4 ... : ... .. . ... ...
ROW BC : C#5 00 9 P83 ... ... : ... .. . ... ... ... : ... .. . P7F : ... .. . ... : ... .. . ... ...
ROW BD : ... .. . ... ... ... : ... .. . P80 ... ... : ... .. . P82 : ... .. . ... : ... .. . ... ...
ROW BE : D-5 00 9 P7E ... ... : ... .. . ... ... ... : --- .. . P80 : ... .. 1 ... : ... .. . ... ...
ROW BF : ... .. . ... ... ... : ... .. . P81 ... ... : E-3 00 . P7C : ... .. . ... : ... .. . ... ...
ROW C0 : ... .. . P7F ... ... : ... .. . ... ... ... : ... .. . P79 : ... .. . ... : ... .. . ... ...
ROW C1 : ... .. . ... ... ... : --- .. 0 P80 ... ... : ... .. . P7C : ... .. 0 ... : ... .. . ... ...
ROW C2 : ... .. . P80 ... ... : D-5 00 6 P7F ... ... : ... .. . P7F : ... .. . ... : ... .. . ... ...
ROW C3 : ... .. . ... ... ... : ... .. . P7E ... ... : ... .. . P82 : ... .. . ... : ... .. . ... ...
ROW C4 : --- .. 0 ... ... ... : ... .. . ... ... ... : ... .. . P85 : ... .. . ... : ... .. . ... ...
ROW C5 : C-5 00 9 ... ... ... : C#5 00 6 P83 ... ... : ... .. . P82 : ... .. 7 ... : ... .. . ... ...
ROW C6 : ... .. . P7F ... ... : ... .. . ... ... ... : ... .. . P7F : ... .. . ... : ... .. . ... ...
ROW C7 : ... .. . ... ... ... : D-5 00 6 P7E ... ... : ... .. . P7C : ... .. 4 ... : ... .. . ... ...
ROW C8 : ... .. . P7E ... ... : ... .. . ... ... ... : ... .. . P79 : ... .. . ... : ... .. . ... ...
ROW C9 : ... .. . ... ... ... : ... .. . P7F ... ... : ... .. . P7C : ... .. . ... : ... .. . ... ...
ROW CA : ... .. . P7F ... ... : ... .. . ... ... ... : --- .. . P80 : ... .. 0 ... : ... .. . ... ...
ROW CB : ... .. . ... ... ... : ... .. . P80 ... ... : E-3 00 . P7C : ... .. 7 ... : ... .. . ... ...
ROW CC : ... .. . P80 ... ... : ... .. . ... ... ... : ... .. . P79 : ... .. . ... : ... .. . ... ...
ROW CD : ... .. . ... ... ... : --- .. 0 ... ... ... : ... .. . P7C : ... .. 4 ... : ... .. . ... ...
ROW CE : ... .. . P81 ... ... : C-5 00 6 ... ... ... : ... .. . P7F : ... .. . ... : ... .. . ... ...
ROW CF : ... .. . ... ... ... : ... .. . P7F ... ... : ... .. . P82 : ... .. . ... : ... .. . ... ...
ROW D0 : ... .. . P82 ... ... : ... .. . ... ... ... : --- .. . P80 : ... .. 0 ... : ... .. . ... ...
ROW D1 : ... .. . ... ... ... : ... .. . P7E ... ... : A-2 00 . P7C : ... .. . ... : ... .. . ... ...
ROW D2 : ... .. . P81 ... ... : ... .. . ... ... ... : ... .. . P79 : ... .. . ... : ... .. . ... ...
ROW D3 : ... .. . ... ... ... : ... .. . P7F ... ... : ... .. . P7C : ... .. . ... : ... .. . ... ...
ROW D4 : ... .. . P80 ... ... : ... .. . ... ... ... : ... .. . P7F : ... .. . ... : ... .. . ... ...
ROW D5 : ... .. . ... ... ... : ... .. . P80 ... ... : ... .. . P82 : ... .. . ... : ... .. . ... ...
ROW D6 : ... .. . P7F ... ... : ... .. . ... ... ... : --- .. . P80 : ... .. . ... : === 00 . ... ...
ROW D7 : ... .. . ... ... ... : ... .. . P81 ... ... : A-2 00 . P7C : ... .. 7 ... : ... .. . ... ...
ROW D8 : ... .. . P7E ... ... : ... .. . ... ... ... : ... .. . P79 : ... .. . ... : ... .. . ... ...
ROW D9 : ... .. . ... ... ... : ... .. . P82 ... ... : ... .. . P7C : ... .. 4 ... : ... .. . ... ...
ROW DA : ... .. . P7F ... ... : ... .. . ... ... ... : ... .. . P7F : ... .. . ... : ... .. . ... ...
ROW DB : ... .. . ... ... ... : ... .. . P81 ... ... : ... .. . P82 : ... .. . ... : ... .. . ... ...
ROW DC : ... .. . P80 ... ... : ... .. . ... ... ... : ... .. . P85 : ... .. 0 ... : ... .. . ... ...
ROW DD : ... .. . ... ... ... : ... .. . P80 ... ... : ... .. . P82 : ... .. 7 ... : ... .. . ... ...
ROW DE : ... .. . P81 ... ... : ... .. . ... ... ... : ... .. . P7F : ... .. . ... : ... .. . ... ...
ROW DF : ... .. . ... ... ... : ... .. . P7F ... ... : ... .. . P7C : ... .. 4 ... : ... .. . ... ...
ROW E0 : ... .. . P82 ... ... : ... .. . ... ... ... : ... .. . P79 : ... .. . ... : ... .. . ... ...
ROW E1 : ... .. . ... ... ... : ... .. . P7E ... ... : ... .. . P7C : ... .. . ... : ... .. . ... ...
ROW E2 : ... .. . P81 ... ... : ... .. . ... ... ... : --- .. . P80 : ... .. 0 ... : ... .. . ... ...
ROW E3 : ... .. . ... ... ... : ... .. . P7F ... ... : A-2 00 . P7C : ... .. 7 ... : ... .. . ... ...
ROW E4 : ... .. . P80 ... ... : ... .. . ... ... ... : ... .. . P79 : ... .. . ... : ... .. . ... ...
ROW E5 : ... .. . ... ... ... : ... .. . P80 ... ... : ... .. . P7C : ... .. 4 ... : ... .. . ... ...
ROW E6 : ... .. . P7F ... ... : ... .. . ... ... ... : ... .. . P7F : ... .. . ... : ... .. . ... ...
ROW E7 : ... .. . ... ... ... : ... .. . P81 ... ... : ... .. . P82 : ... .. . ... : ... .. . ... ...
ROW E8 : --- .. 0 P80 ... ... : ... .. . ... ... ... : --- .. . P80 : ... .. 0 ... : ... .. . ... ...
ROW E9 : ... .. . ... ... ... : ... .. . P82 ... ... : A-3 00 . P7C : ... .. 7 ... : ... .. . ... ...
ROW EA : ... .. . ... ... ... : ... .. . ... ... ... : ... .. . P79 : ... .. . ... : ... .. . ... ...
ROW EB : ... .. . ... ... ... : ... .. . P81 ... ... : ... .. . P7C : ... .. 4 ... : ... .. . ... ...
ROW EC : ... .. . ... ... ... : ... .. . ... ... ... : ... .. . P7F : ... .. . ... : ... .. . ... ...
ROW ED : ... .. . ... ... ... : ... .. . P80 ... ... : ... .. . P82 : ... .. . ... : ... .. . ... ...
ROW EE : ... .. . ... ... ... : ... .. . ... ... ... : ... .. . P85 : ... .. 0 ... : ... .. . ... ...
ROW EF : ... .. . ... ... ... : ... .. . P7F ... ... : ... .. . P82 : ... .. 7 ... : ... .. . ... ...
ROW F0 : ... .. . ... ... ... : ... .. . ... ... ... : ... .. . P7F : ... .. . ... : ... .. . ... ...
ROW F1 : ... .. . ... ... ... : --- .. 0 P80 ... ... : ... .. . P7C : ... .. 4 ... : ... .. . ... ...
ROW F2 : ... .. . ... ... ... : ... .. . ... ... ... : ... .. . P79 : ... .. . ... : ... .. . ... ...
ROW F3 : ... .. . ... ... ... : ... .. . ... ... ... : ... .. . P7C : ... .. . ... : ... .. . ... ...
ROW F4 : ... .. . ... ... ... : ... .. . ... ... ... : --- .. . P80 : ... .. 0 ... : ... .. . ... ...
ROW F5 : ... .. . ... ... ... : ... .. . ... ... ... : A-3 00 . P7C : ... .. 7 ... : ... .. . ... ...
ROW F6 : ... .. . ... ... ... : ... .. . ... ... ... : ... .. . P79 : ... .. . ... : ... .. . ... ...
ROW F7 : ... .. . ... ... ... : ... .. . ... ... ... : ... .. . P7C : ... .. 4 ... : ... .. . ... ...
ROW F8 : ... .. . ... ... ... : ... .. . ... ... ... : ... .. . P7F : ... .. . ... : ... .. . ... ...
ROW F9 : ... .. . ... ... ... : ... .. . ... ... ... : ... .. . P82 : ... .. . ... : ... .. . ... ...
ROW FA : ... .. . ... ... ... : ... .. . ... ... ... : ... .. . P85 : ... .. 0 ... : ... .. . ... ...
ROW FB : ... .. . ... ... ... : ... .. . ... ... ... : ... .. . P82 : ... .. 7 ... : ... .. . ... ...
ROW FC : ... .. . ... ... ... : ... .. . ... ... ... : ... .. . P7F : ... .. . ... : ... .. . ... ...
ROW FD : ... .. . ... ... ... : ... .. . ... ... ... : ... .. . P7C : ... .. 4 ... : ... .. . ... ...
ROW FE : ... .. . ... ... ... : ... .. . ... ... ... : ... .. . P79 : ... .. . ... : ... .. . ... ...
ROW FF : ... .. . ... ... ... : ... .. . ... ... ... : ... .. . P7C : ... .. . ... : ... .. . ... ...

PATTERN 09
ROW 00 : --- .. . P80 ... ... : ... .. . ... ... ... : --- .. . P80 : ... .. 0 ... : ... .. . ... ...
ROW 01 : A-4 00 9 P7F ... ... : ... .. . ... ... ... : D-2 00 . P7C : ... .. 7 ... : ... .. . ... ...
ROW 02 : ... .. . P7E ... ... : ... .. . ... ... ... : ... .. . P79 : ... .. . ... : ... .. . ... ...
ROW 03 : ... .. . ... ... ... : ... .. . ... ... ... : ... .. . P7C : ... .. 4 ... : ... .. . ... ...
ROW 04 : ... .. . P7D ... ... : ... .. . ... ... ... : ... .. . P7F : ... .. . ... : ... .. . ... ...
ROW 05 : ... .. . ... ... ... : ... .. . ... ... ... : ... .. . P82 : ... .. . ... : ... .. . ... ...
ROW 06 : --- .. 0 P80 ... ... : ... .. . ... ... ... : ... .. . P85 : ... .. 1 ... : ... .. . ... ...
ROW 07 : A-4 00 9 P7F ... ... : ... .. . ... ... ... : ... .. . P82 : ... .. . ... : ... .. . ... ...
ROW 08 : ... .. . P7E ... ... : ... .. . ... ... ... : ... .. . P7F : ... .. . ... : ... .. . ... ...
ROW 09 : ... .. . ... ... ... : --- .. . P80 ... ... : ... .. . P7C : ... .. 0 ... : ... .. . ... ...
ROW 0A : ... .. . P7D ... ... : A-4 00 6 P7F ... ... : ... .. . P79 : ... .. . ... : ... .. . ... ...
ROW 0B : ... .. . ... ... ... : ... .. . P7E ... ... : ... .. . P7C : ... .. . ... : ... .. . ... ...
ROW 0C : --- .. 0 P80 ... ... : ... .. . ... ... ... : --- .. . P80 : ... .. . ... : ... .. . ... ...
ROW 0D : ... .. . ... ... ... : ... .. . P7D ... ... : D-2 00 . P7C : ... .. 7 ... : ... .. . ... ...
ROW 0E : ... .. . ... ... ... : ... .. . ... ... ... : ... .. . P79 : ... .. . ... : ... .. . ... ...
ROW 0F : ... .. . ... ... ... : --- .. 0 P80 ... ... : ... .. . P7C : ... .. 4 ... : ... .. . ... ...
ROW 10 : ... .. . ... ... ... : A-4 00 6 P7F ... ... : ... .. . P7F : ... .. . ... : ... .. . ... ...
ROW 11 : ... .. . ... ... ... : ... .. . P7E ... ... : ... .. . P82 : ... .. . ... : ... .. . ... ...
ROW 12 : --- .. . P80 ... ... : ... .. . ... ... ... : ... .. . P85 : ... .. 0 ... : ... .. . ... ...
ROW 13 : A-4 00 9 P7F ... ... : ... .. . P7D ... ... : ... .. . P82 : ... .. 7 ... : ... .. . ... ...
ROW 14 : ... .. . P7E ... ... : ... .. . ... ... ... : ... .. . P7F : ... .. . ... : ... .. . ... ...
ROW 15 : ... .. . ... ... ... : --- .. 0 P80 ... ... : ... .. . P7C : ... .. 4 ... : ... .. . ... ...
ROW 16 : ... .. . P7D ... ... : ... .. . ... ... ... : ... .. . P79 : ... .. . ... : ... .. . ... ...
ROW 17 : ... .. . ... ... ... : ... .. . ... ... ... : ... .. . P7C : ... .. . ... : ... .. . ... ...
ROW 18 : --- .. 0 P80 ... ... : ... .. . ... ... ... : --- .. . P80 : ... .. 0 ... : ... .. . ... ...
ROW 19 : A-4 00 9 P7F ... ... : ... .. . ... ... ... : D-3 00 . P7C : ... .. 7 ... : ... .. . ... ...
ROW 1A : ... .. . P7E ... ... : ... .. . ... ... ... : ... .. . P79 : ... .. . ... : ... .. . ... ...
ROW 1B : ... .. . ... ... ... : --- .. . P80 ... ... : ... .. . P7C : ... .. 4 ... : ... .. . ... ...
ROW 1C : ... .. . P7D ... ... : A-4 00 6 P7F ... ... : ... .. . P7F : ... .. . ... : ... .. . ... ...
ROW 1D : ... .. . ... ... ... : ... .. . P7E ... ... : ... .. . P82 : ... .. . ... : ... .. . ... ...
ROW 1E : --- .. 0 P80 ... ... : ... .. . ... ... ... : --- .. . P80 : ... .. 1 ... : ... .. . ... ...
ROW 1F : A-4 00 9 P7F ... ... : ... .. . P7D ... ... : D-3 00 . P7C : ... .. . ... : ... .. . ... ...
ROW 20 : ... .. . P7E ... ... : ... .. . ... ... ... : ... .. . P79 : ... .. . ... : ... .. . ... ...
ROW 21 : ... .. . ... ... ... : --- .. 0 P80 ... ... : ... .. . P7C : ... .. 0 ... : ... .. . ... ...
ROW 22 : ... .. . P7D ... ... : A-4 00 6 P7F ... ... : ... .. . P7F : ... .. . ... : ... .. . ... ...
ROW 23 : ... .. . ... ... ... : ... .. . P7E ... ... : ... .. . P82 : ... .. . ... : ... .. . ... ...
ROW 24 : --- .. 0 P80 ... ... : ... .. . ... ... ... : ... .. . P85 : ... .. . ... : ... .. . ... ...
ROW 25 : A-4 00 9 P7F ... ... : ... .. . P7D ... ... : ... .. . P82 : ... .. 7 ... : ... .. . ... ...
ROW 26 : ... .. . P7E ... ... : ... .. . ... ... ... : ... .. . P7F : ... .. . ... : ... .. . ... ...
ROW 27 : ... .. . ... ... ... : --- .. 0 P80 ... ... : ... .. . P7C : ... .. 4 ... : ... .. . ... ...
ROW 28 : ... .. . P7D ... ... : A-4 00 6 P7F ... ... : ... .. . P79 : ... .. . ... : ... .. . ... ...
ROW 29 : ... .. . ... ... ... : ... .. . P7E ... ... : ... .. . P7C : ... .. . ... : ... .. . ... ...
ROW 2A : --- .. 0 P80 ... ... : ... .. . ... ... ... : --- .. . P80 : ... .. 0 ... : ... .. . ... ...
ROW 2B : ... .. . ... ... ... : ... .. . P7D ... ... : D-3 00 . P7C : ... .. 7 ... : ... .. . ... ...
ROW 2C : ... .. . ... ... ... : ... .. . ... ... ... : ... .. . P79 : ... .. . ... : ... .. . ... ...
ROW 2D : ... .. . ... ... ... : --- .. 0 P80 ... ... : ... .. . P7C : ... .. 4 ... : ... .. . ... ...
ROW 2E : ... .. . ... ... ... : A-4 00 6 P7F ... ... : ... .. . P7F : ... .. . ... : ... .. . ... ...
ROW 2F : ... .. . ... ... ... : ... .. . P7E ... ... : ... .. . P82 : ... .. . ... : ... .. . ... ...
ROW 30 : --- .. . P80 ... ... : ... .. . ... ... ... : --- .. . P80 : ... .. 0 ... : ... .. . ... ...
ROW 31 : A-4 00 9 P7F ... ... : ... .. . P7D ... ... : D#2 00 . P7C : ... .. . ... : ... .. . ... ...
ROW 32 : ... .. . P7E ... ... : ... .. . ... ... ... : ... .. . P79 : ... .. . ... : ... .. . ... ...
ROW 33 : ... .. . ... ... ... : --- .. 0 P80 ... ... : ... .. . P7C : ... .. . ... : ... .. . ... ...
ROW 34 : ... .. . P7D ... ... : ... .. . ... ... ... : ... .. . P7F : ... .. . ... : ... .. . ... ...
ROW 35 : ... .. . ... ... ... : ... .. . ... ... ... : ... .. . P82 : ... .. . ... : ... .. . ... ...
ROW 36 : --- .. 0 P80 ... ... : ... .. . ... ... ... : --- .. . P80 : ... .. . ... : === 00 . ... ...
ROW 37 : A-4 00 9 P7F ... ... : ... .. . ... ... ... : D#2 00 . P7C : ... .. 7 ... : ... .. . ... ...
ROW 38 : ... .. . P7E ... ... : ... .. . ... ... ... : ... .. . P79 : ... .. . ... : ... .. . ... ...
ROW 39 : ... .. . ... ... ... : --- .. . P80 ... ... : ... .. . P7C : ... .. 4 ... : ... .. . ... ...
ROW 3A : ... .. . P7D ... ... : A-4 00 6 P7F ... ... : ... .. . P7F : ... .. . ... : ... .. . ... ...
ROW 3B : ... .. . ... ... ... : ... .. . P7E ... ... : ... .. . P82 : ... .. . ... : ... .. . ... ...
ROW 3C : ... .. . P7E ... ... : ... .. . ... ... ... : ... .. . P85 : ... .. 0 ... : ... .. . ... ...
ROW 3D : ... .. . ... ... ... : ... .. . P7D ... ... : ... .. . P82 : ... .. 7 ... : ... .. . ... ...
ROW 3E : ... .. . P7F ... ... : ... .. . ... ... ... : ... .. . P7F : ... .. . ... : ... .. . ... ...
ROW 3F : ... .. . ... ... ... : --- .. 0 P80 ... ... : ... .. . P7C : ... .. 4 ... : ... .. . ... ...
ROW 40 : ... .. . P80 ... ... : A-4 00 6 P7F ... ... : ... .. . P79 : ... .. . ... : ... .. . ... ...
ROW 41 : ... .. . ... ... ... : ... .. . P7E ... ... : ... .. . P7C : ... .. . ... : ... .. . ... ...
ROW 42 : --- .. 0 ... ... ... : ... .. . ... ... ... : --- .. . P80 : ... .. 0 ... : ... .. . ... ...
ROW 43 : A-4 00 9 P7F ... ... : ... .. . P7D ... ... : D#2 00 . P7C : ... .. 7 ... : ... .. . ... ...
ROW 44 : ... .. . P7E ... ... : ... .. . ... ... ... : ... .. . P79 : ... .. . ... : ... .. . ... ...
ROW 45 : ... .. . ... ... ... : ... .. . P7E ... ... : ... .. . P7C : ... .. 4 ... : ... .. . ... ...
ROW 46 : ... .. . P7D ... ... : ... .. . ... ... ... : ... .. . P7F : ... .. . ... : ... .. . ... ...
ROW 47 : ... .. . ... ... ... : ... .. . P7F ... ... : ... .. . P82 : ... .. . ... : ... .. . ... ...
ROW 48 : --- .. 0 P80 ... ... : ... .. . ... ... ... : --- .. . P80 : ... .. 0 ... : ... .. . ... ...
ROW 49 : B-4 00 9 P7F ... ... : ... .. . P80 ... ... : D#3 00 . P7D : ... .. 7 ... : ... .. . ... ...
ROW 4A : ... .. . P7E ... ... : ... .. . ... ... ... : ... .. . P7A : ... .. . ... : ... .. . ... ...
ROW 4B : ... .. . ... ... ... : --- .. 0 ... ... ... : ... .. . P7D : ... .. 4 ... : ... .. . ... ...
ROW 4C : ... .. . P7D ... ... : A-4 00 6 P7F ... ... : ... .. . P80 : ... .. . ... : ... .. . ... ...
ROW 4D : ... .. . ... ... ... : ... .. . P7E ... ... : ... .. . P83 : ... .. . ... : ... .. . ... ...
ROW 4E : ... .. . P7E ... ... : ... .. . ... ... ... : ... .. . P86 : ... .. 1 ... : ... .. . ... ...
ROW 4F : ... .. . ... ... ... : ... .. . P7D ... ... : ... .. . P83 : ... .. . ... : ... .. . ... ...
ROW 50 : ... .. . P7F ... ... : ... .. . ... ... ... : ... .. . P80 : ... .. . ... : ... .. . ... ...
ROW 51 : ... .. . ... ... ... : --- .. 0 P80 ... ... : ... .. . P7D : ... .. 0 ... : ... .. . ... ...
ROW 52 : ... .. . P80 ... ... : B-4 00 6 P7F ... ... : ... .. . P7A : ... .. . ... : ... .. . ... ...
ROW 53 : ... .. . ... ... ... : ... .. . P7E ... ... : ... .. . P7D : ... .. . ... : ... .. . ... ...
ROW 54 : --- .. 0 ... ... ... : ... .. . ... ... ... : --- .. . P80 : ... .. . ... : ... .. . ... ...
ROW 55 : A-4 00 9 P7F ... ... : ... .. . P7D ... ... : D#3 00 . P7D : ... .. 7 ... : ... .. . ... ...
ROW 56 : ... .. . P7E ... ... : ... .. . ... ... ... : ... .. . P7A : ... .. . ... : ... .. . ... ...
ROW 57 : ... .. . ... ... ... : ... .. . P7E ... ... : ... .. . P7D : ... .. 4 ... : ... .. . ... ...
ROW 58 : ... .. . P7D ... ... : ... .. . ... ... ... : ... .. . P80 : ... .. . ... : ... .. . ... ...
ROW 59 : ... .. . ... ... ... : ... .. . P7F ... ... : ... .. . P83 : ... .. . ... : ... .. . ... ...
ROW 5A : ... .. . P7E ... ... : ... .. . ... ... ... : ... .. . P86 : ... .. 1 ... : ... .. . ... ...
ROW 5B : ... .. . ... ... ... : ... .. . P80 ... ... : ... .. . P83 : ... .. . ... : ... .. . ... ...
ROW 5C : ... .. . P7F ... ... : ... .. . ... ... ... : ... .. . P80 : ... .. . ... : ... .. . ... ...
ROW 5D : ... .. . ... ... ... : --- .. 0 ... ... ... : ... .. . P7D : ... .. 0 ... : ... .. . ... ...
ROW 5E : ... .. . P80 ... ... : A-4 00 6 P7F ... ... : ... .. . P7A : ... .. . ... : ... .. . ... ...
ROW 5F : ... .. . ... ... ... : ... .. . P7E ... ... : ... .. . P7D : ... .. . ... : ... .. . ... ...
ROW 60 : ... .. . ... ... ... : ... .. . ... ... ... : --- .. . P80 : ... .. . ... : ... .. . ... ...
ROW 61 : A-4 00 9 P7F ... ... : ... .. . P7D ... ... : E-2 00 . P7C : ... .. 7 ... : ... .. . ... ...
ROW 62 : ... .. . P7E ... ... : ... .. . ... ... ... : ... .. . P79 : ... .. . ... : ... .. . ... ...
ROW 63 : ... .. . ... ... ... : ... .. . P7E ... ... : ... .. . P7C : ... .. 4 ... : ... .. . ... ...
ROW 64 : ... .. . P7D ... ... : ... .. . ... ... ... : ... .. . P7F : ... .. . ... : ... .. . ... ...
ROW 65 : ... .. . ... ... ... : ... .. . P7F ... ... : ... .. . P82 : ... .. . ... : ... .. . ... ...
ROW 66 : ... .. . P7E ... ... : ... .. . ... ... ... : ... .. . P85 : ... .. 1 ... : ... .. . ... ...
ROW 67 : ... .. . ... ... ... : ... .. . P80 ... ... : ... .. . P82 : ... .. . ... : ... .. . ... ...
ROW 68 : ... .. . P7F ... ... : ... .. . ... ... ... : ... .. . P7F : ... .. . ... : ... .. . ... ...
ROW 69 : ... .. . ... ... ... : ... .. . ... ... ... : ... .. . P7C : ... .. 0 ... : ... .. . ... ...
ROW 6A : ... .. . P80 ... ... : A-4 00 6 P7F ... ... : ... .. . P79 : ... .. . ... : ... .. . ... ...
ROW 6B : ... .. . ... ... ... : ... .. . P7E ... ... : ... .. . P7C : ... .. . ... : ... .. . ... ...
ROW 6C : ... .. . P81 ... ... : ... .. . ... ... ... : --- .. . P80 : ... .. . ... : ... .. . ... ...
ROW 6D : ... .. . ... ... ... : ... .. . P7D ... ... : E-2 00 . P7C : ... .. 7 ... : ... .. . ... ...
ROW 6E : ... .. . P80 ... ... : ... .. . ... ... ... : ... .. . P79 : ... .. . ... : ... .. . ... ...
ROW 6F : ... .. . ... ... ... : ... .. . P7E ... ... : ... .. . P7C : ... .. 4 ... : ... .. . ... ...
ROW 70 : ... .. . P7F ... ... : ... .. . ... ... ... : ... .. . P7F : ... .. . ... : ... .. . ... ...
ROW 71 : ... .. . ... ... ... : ... .. . P7F ... ... : ... .. . P82 : ... .. . ... : ... .. . ... ...
ROW 72 : ... .. . P7E ... ... : ... .. . ... ... ... : ... .. . P85 : ... .. 0 ... : ... .. . ... ...
ROW 73 : ... .. . ... ... ... : ... .. . P80 ... ... : ... .. . P82 : ... .. 7 ... : ... .. . ... ...
ROW 74 : ... .. . P7D ... ... : ... .. . ... ... ... : ... .. . P7F : ... .. . ... : ... .. . ... ...
ROW 75 : ... .. . ... ... ... : ... .. . P81 ... ... : ... .. . P7C : ... .. 4 ... : ... .. . ... ...
ROW 76 : ... .. . P7E ... ... : ... .. . ... ... ... : ... .. . P79 : ... .. . ... : ... .. . ... ...
ROW 77 : ... .. . ... ... ... : ... .. . P80 ... ... : ... .. . P7C : ... .. . ... : ... .. . ... ...
ROW 78 : ... .. . P7F ... ... : ... .. . ... ... ... : --- .. . P80 : ... .. 0 ... : ... .. . ... ...
ROW 79 : ... .. . ... ... ... : ... .. . P7F ... ... : E-3 00 . P7C : ... .. 7 ... : ... .. . ... ...
ROW 7A : ... .. . P80 ... ... : ... .. . ... ... ... : ... .. . P79 : ... .. . ... : ... .. . ... ...
ROW 7B : ... .. . ... ... ... : ... .. . P7E ... ... : ... .. . P7C : ... .. 4 ... : ... .. . ... ...
ROW 7C : ... .. . P81 ... ... : ... .. . ... ... ... : ... .. . P7F : ... .. . ... : ... .. . ... ...
ROW 7D : ... .. . ... ... ... : ... .. . P7D ... ... : ... .. . P82 : ... .. . ... : ... .. . ... ...
ROW 7E : ... .. . P80 ... ... : ... .. . ... ... ... : --- .. . P80 : ... .. 1 ... : ... .. . ... ...
ROW 7F : ... .. . ... ... ... : ... .. . P7E ... ... : E-3 00 . P7C : ... .. . ... : ... .. . ... ...
ROW 80 : ... .. . P7F ... ... : ... .. . ... ... ... : ... .. . P79 : ... .. . ... : ... .. . ... ...
ROW 81 : ... .. . ... ... ... : ... .. . P7F ... ... : ... .. . P7C : ... .. 0 ... : ... .. . ... ...
ROW 82 : ... .. . P7E ... ... : ... .. . ... ... ... : ... .. . P7F : ... .. . ... : ... .. . ... ...
ROW 83 : ... .. . ... ... ... : ... .. . P80 ... ... : ... .. . P82 : ... .. . ... : ... .. . ... ...
ROW 84 : ... .. . P7D ... ... : ... .. . ... ... ... : ... .. . P85 : ... .. . ... : ... .. . ... ...
ROW 85 : ... .. . ... ... ... : ... .. . P81 ... ... : ... .. . P82 : ... .. 7 ... : ... .. . ... ...
ROW 86 : ... .. . P7E ... ... : ... .. . ... ... ... : ... .. . P7F : ... .. . ... : ... .. . ... ...
ROW 87 : ... .. . ... ... ... : ... .. . P80 ... ... : ... .. . P7C : ... .. 4 ... : ... .. . ... ...
ROW 88 : ... .. . P7F ... ... : ... .. . ... ... ... : ... .. . P79 : ... .. . ... : ... .. . ... ...
ROW 89 : ... .. . ... ... ... : ... .. . P7F ... ... : ... .. . P7C : ... .. . ... : ... .. . ... ...
ROW 8A : ... .. . P80 ... ... : ... .. . ... ... ... : --- .. . P80 : ... .. 0 ... : ... .. . ... ...
ROW 8B : ... .. . ... ... ... : ... .. . P7E ... ... : E-3 00 . P7C : ... .. 7 ... : ... .. . ... ...
ROW 8C : ... .. . P81 ... ... : ... .. . ... ... ... : ... .. . P79 : ... .. . ... : ... .. . ... ...
ROW 8D : ... .. . ... ... ... : ... .. . P7D ... ... : ... .. . P7C : ... .. 4 ... : ... .. . ... ...
ROW 8E : ... .. . P80 ... ... : ... .. . ... ... ... : ... .. . P7F : ... .. . ... : ... .. . ... ...
ROW 8F : ... .. . ... ... ... : ... .. . P7E ... ... : ... .. . P82 : ... .. . ... : ... .. . ... ...
ROW 90 : --- .. 0 ... ... ... : ... .. . ... ... ... : --- .. . P80 : ... .. 0 ... : ... .. . ... ...
ROW 91 : G#4 00 9 ... ... ... : ... .. . P7F ... ... : E-2 00 . P7C : ... .. . ... : ... .. . ... ...
ROW 92 : ... .. . P7F ... ... : ... .. . ... ... ... : ... .. . P79 : ... .. . ... : ... .. . ... ...
ROW 93 : ... .. . ... ... ... : ... .. . P80 ... ... : ... .. . P7C : ... .. . ... : ... .. . ... ...
ROW 94 : ... .. . P7E ... ... : ... .. . ... ... ... : ... .. . P7F : ... .. . ... : ... .. . ... ...
ROW 95 : ... .. . ... ... ... : ... .. . P81 ... ... : ... .. . P82 : ... .. . ... : ... .. . ... ...
ROW 96 : ... .. . P7F ... ... : ... .. . ... ... ... : --- .. . P80 : ... .. . ... : === 00 . ... ...
ROW 97 : ... .. . ... ... ... : ... .. . P80 ... ... : E-2 00 . P7C : ... .. 7 ... : ... .. . ... ...
ROW 98 : ... .. . P80 ... ... : ... .. . ... ... ... : ... .. . P79 : ... .. . ... : ... .. . ... ...
ROW 99 : ... .. . ... ... ... : --- .. 0 ... ... ... : ... .. . P7C : ... .. 4 ... : ... .. . ... ...
ROW 9A : ... .. . P81 ... ... : G#4 00 6 ... ... ... : ... .. . P7F : ... .. . ... : ... .. . ... ...
ROW 9B : ... .. . ... ... ... : ... .. . P7F ... ... : ... .. . P82 : ... .. . ... : ... .. . ... ...
ROW 9C : ... .. . P82 ... ... : ... .. . ... ... ... : ... .. . P85 : ... .. 0 ... : ... .. . ... ...
ROW 9D : ... .. . ... ... ... : ... .. . P7E ... ... : ... .. . P82 : ... .. 7 ... : ... .. . ... ...
ROW 9E : ... .. . P81 ... ... : ... .. . ... ... ... : ... .. . P7F : ... .. . ... : ... .. . ... ...
ROW 9F : ... .. . ... ... ... : ... .. . P7F ... ... : ... .. . P7C : ... .. 4 ... : ... .. . ... ...
ROW A0 : ... .. . P80 ... ... : ... .. . ... ... ... : ... .. . P79 : ... .. . ... : ... .. . ... ...
ROW A1 : ... .. . ... ... ... : ... .. . P80 ... ... : ... .. . P7C : ... .. . ... : ... .. . ... ...
ROW A2 : ... .. . P7F ... ... : ... .. . ... ... ... : --- .. . P80 : ... .. 0 ... : ... .. . ... ...
ROW A3 : ... .. . ... ... ... : ... .. . P81 ... ... : E-2 00 . P7C : ... .. 7 ... : ... .. . ... ...
ROW A4 : ... .. . P7E ... ... : ... .. . ... ... ... : ... .. . P79 : ... .. . ... : ... .. . ... ...
ROW A5 : ... .. . ... ... ... : ... .. . P82 ... ... : ... .. . P7C : ... .. 4 ... : ... .. . ... ...
ROW A6 : ... .. . P7F ... ... : ... .. . ... ... ... : ... .. . P7F : ... .. . ... : ... .. . ... ...
ROW A7 : ... .. . ... ... ... : ... .. . P81 ... ... : ... .. . P82 : ... .. . ... : ... .. . ... ...
ROW A8 : ... .. . P80 ... ... : ... .. . ... ... ... : --- .. . P80 : ... .. 0 ... : ... .. . ... ...
ROW A9 : ... .. . ... ... ... : ... .. . P80 ... ... : E-3 00 . P7C : ... .. 7 ... : ... .. . ... ...
ROW AA : ... .. . P81 ... ... : ... .. . ... ... ... : ... .. . P79 : ... .. . ... : ... .. . ... ...
ROW AB : ... .. . ... ... ... : ... .. . P7F ... ... : ... .. . P7C : ... .. 4 ... : ... .. . ... ...
ROW AC : ... .. . P82 ... ... : ... .. . ... ... ... : ... .. . P7F : ... .. . ... : ... .. . ... ...
ROW AD : ... .. . ... ... ... : ... .. . P7E ... ... : ... .. . P82 : ... .. . ... : ... .. . ... ...
ROW AE : ... .. . P81 ... ... : ... .. . ... ... ... : ... .. . P85 : ... .. 0 ... : ... .. . ... ...
ROW AF : ... .. . ... ... ... : ... .. . P7F ... ... : ... .. . P82 : ... .. 7 ... : ... .. . ... ...
ROW B0 : ... .. . P80 ... ... : ... .. . ... ... ... : ... .. . P7F : ... .. . ... : ... .. . ... ...
ROW B1 : ... .. . ... ... ... : ... .. . ... ... ... : ... .. . P7C : ... .. 4 ... : ... .. . ... ...
ROW B2 : ... .. . P7F ... ... : G#4 00 6 P80 ... ... : ... .. . P79 : ... .. . ... : ... .. . ... ...
ROW B3 : ... .. . ... ... ... : ... .. . P7F ... ... : ... .. . P7C : ... .. . ... : ... .. . ... ...
ROW B4 : ... .. . P7E ... ... : ... .. . ... ... ... : --- .. . P80 : ... .. 0 ... : ... .. . ... ...
ROW B5 : ... .. . ... ... ... : ... .. . P7E ... ... : E-3 00 . P7C : ... .. 7 ... : ... .. . ... ...
ROW B6 : ... .. . P7F ... ... : ... .. . ... ... ... : ... .. . P79 : ... .. . ... : ... .. . ... ...
ROW B7 : ... .. . ... ... ... : ... .. . P7F ... ... : ... .. . P7C : ... .. 4 ... : ... .. . ... ...
ROW B8 : ... .. . P80 ... ... : ... .. . ... ... ... : ... .. . P7F : ... .. . ... : ... .. . ... ...
ROW B9 : ... .. . ... ... ... : ... .. . P80 ... ... : ... .. . P82 : ... .. . ... : ... .. . ... ...
ROW BA : ... .. . P81 ... ... : ... .. . ... ... ... : ... .. . P85 : ... .. 0 ... : ... .. . ... ...
ROW BB : ... .. . ... ... ... : ... .. . P81 ... ... : ... .. . P82 : ... .. 7 ... : ... .. . ... ...
ROW BC : ... .. . P82 ... ... : ... .. . ... ... ... : ... .. . P7F : ... .. . ... : ... .. . ... ...
ROW BD : ... .. . ... ... ... : --- .. 0 P80 ... ... : ... .. . P7C : ... .. 4 ... : ... .. . ... ...
ROW BE : ... .. . P81 ... ... : G#4 00 6 ... ... ... : ... .. . P79 : ... .. . ... : ... .. . ... ...
ROW BF : ... .. . ... ... ... : ... .. . P7F ... ... : ... .. . P7C : ... .. . ... : ... .. . ... ...
ROW C0 : --- .. 0 P80 ... ... : --- .. 0 P80 ... ... : --- .. . P80 : ... .. 0 ... : ... .. . ... ...
ROW C1 : A-4 00 9 P7F ... ... : A-3 00 6 P7F ... ... : A-2 00 . P7C : ... .. 7 ... : ... .. . ... ...
ROW C2 : ... .. . P7E ... ... : ... .. . ... ... ... : ... .. . P79 : ... .. . ... : ... .. . ... ...
ROW C3 : --- .. 0 P80 ... ... : ... .. . ... ... ... : ... .. . P7C : ... .. 4 ... : ... .. . ... ...
ROW C4 : A-5 00 9 ... ... ... : ... .. . ... ... ... : ... .. . P7F : ... .. . ... : ... .. . ... ...
ROW C5 : ... .. . P7F ... ... : ... .. . ... ... ... : ... .. . P82 : ... .. . ... : ... .. . ... ...
ROW C6 : --- .. 0 P80 ... ... : --- .. 0 P80 ... ... : ... .. . P85 : ... .. 1 ... : ... .. . ... ...
ROW C7 : ... .. . ... ... ... : A-3 00 6 P7F ... ... : ... .. . P82 : ... .. . ... : ... .. . ... ...
ROW C8 : ... .. . ... ... ... : ... .. . ... ... ... : ... .. . P7F : ... .. . ... : ... .. . ... ...
ROW C9 : --- .. . P80 ... ... : ... .. . ... ... ... : ... .. . P7C : ... .. 0 ... : ... .. . ... ...
ROW CA : A-5 00 9 ... ... ... : ... .. . ... ... ... : ... .. . P79 : ... .. . ... : ... .. . ... ...
ROW CB : ... .. . P7F ... ... : ... .. . ... ... ... : ... .. . P7C : ... .. . ... : ... .. . ... ...
ROW CC : --- .. 0 P80 ... ... : --- .. 0 P80 ... ... : --- .. . P80 : ... .. . ... : ... .. . ... ...
ROW CD : ... .. . ... ... ... : E-3 00 6 P7F ... ... : A-2 00 . P7C : ... .. 7 ... : ... .. . ... ...
ROW CE : ... .. . ... ... ... : ... .. . ... ... ... : ... .. . P79 : ... .. . ... : ... .. . ... ...
ROW CF : ... .. . ... ... ... : ... .. . ... ... ... : ... .. . P7C : ... .. 4 ... : ... .. . ... ...
ROW D0 : ... .. . ... ... ... : ... .. . ... ... ... : ... .. . P7F : ... .. . ... : ... .. . ... ...
ROW D1 : ... .. . ... ... ... : ... .. . ... ... ... : ... .. . P82 : ... .. . ... : ... .. . ... ...
ROW D2 : ... .. . ... ... ... : --- .. 0 P80 ... ... : ... .. . P85 : ... .. 0 ... : ... .. . ... ...
ROW D3 : ... .. . ... ... ... : G-3 00 6 P7F ... ... : ... .. . P82 : ... .. 7 ... : ... .. . ... ...
ROW D4 : ... .. . ... ... ... : ... .. . ... ... ... : ... .. . P7F : ... .. . ... : ... .. . ... ...
ROW D5 : ... .. . ... ... ... : ... .. . ... ... ... : ... .. . P7C : ... .. 4 ... : ... .. . ... ...
ROW D6 : ... .. . ... ... ... : ... .. . ... ... ... : ... .. . P79 : ... .. . ... : ... .. . ... ...
ROW D7 : ... .. . ... ... ... : ... .. . ... ... ... : ... .. . P7C : ... .. . ... : ... .. . ... ...
ROW D8 : ... .. . ... ... ... : --- .. 0 P80 ... ... : --- .. . P80 : ... .. 0 ... : ... .. . ... ...
ROW D9 : ... .. . ... ... ... : ... .. . ... ... ... : E-3 00 . P7C : ... .. 7 ... : ... .. . ... ...
ROW DA : ... .. . ... ... ... : ... .. . ... ... ... : ... .. . P79 : ... .. . ... : ... .. . ... ...
ROW DB : ... .. . ... ... ... : ... .. . ... ... ... : ... .. . P7C : ... .. 4 ... : ... .. . ... ...
ROW DC : ... .. . ... ... ... : ... .. . ... ... ... : ... .. . P7F : ... .. . ... : ... .. . ... ...
ROW DD : ... .. . ... ... ... : ... .. . ... ... ... : ... .. . P82 : ... .. . ... : ... .. . ... ...
ROW DE : ... .. . ... ... ... : --- .. . P80 ... ... : --- .. . P80 : ... .. 1 ... : ... .. . ... ...
ROW DF : ... .. . ... ... ... : A-3 00 6 P7F ... ... : E-3 00 . P7C : ... .. . ... : ... .. . ... ...
ROW E0 : ... .. . ... ... ... : ... .. . ... ... ... : ... .. . P79 : ... .. . ... : ... .. . ... ...
ROW E1 : ... .. . ... ... ... : ... .. . ... ... ... : ... .. . P7C : ... .. 0 ... : ... .. . ... ...
ROW E2 : ... .. . ... ... ... : ... .. . ... ... ... : ... .. . P7F : ... .. . ... : ... .. . ... ...
ROW E3 : ... .. . ... ... ... : ... .. . ... ... ... : ... .. . P82 : ... .. . ... : ... .. . ... ...
ROW E4 : --- .. . P80 ... ... : --- .. 0 P80 ... ... : ... .. . P85 : ... .. . ... : ... .. . ... ...
ROW E5 : ... .. . ... ... ... : E-3 00 6 P7F ... ... : ... .. . P82 : ... .. 7 ... : ... .. . ... ...
ROW E6 : ... .. . ... ... ... : ... .. . ... ... ... : ... .. . P7F : ... .. . ... : ... .. . ... ...
ROW E7 : ... .. . ... ... ... : ... .. . ... ... ... : ... .. . P7C : ... .. 4 ... : ... .. . ... ...
ROW E8 : ... .. . ... ... ... : ... .. . ... ... ... : ... .. . P79 : ... .. . ... : ... .. . ... ...
ROW E9 : ... .. . ... ... ... : ... .. . ... ... ... : ... .. . P7C : ... .. . ... : ... .. . ... ...
ROW EA : ... .. . ... ... ... : --- .. 0 P80 ... ... : --- .. . P80 : ... .. 0 ... : ... .. . ... ...
ROW EB : ... .. . ... ... ... : G-3 00 6 P7F ... ... : E-3 00 . P7C : ... .. 7 ... : ... .. . ... ...
ROW EC : ... .. . ... ... ... : ... .. . ... ... ... : ... .. . P79 : ... .. . ... : ... .. . ... ...
ROW ED : ... .. . ... ... ... : ... .. . ... ... ... : ... .. . P7C : ... .. 4 ... : ... .. . ... ...
ROW EE : ... .. . ... ... ... : ... .. . ... ... ... : ... .. . P7F : ... .. . ... : ... .. . ... ...
ROW EF : ... .. . ... ... ... : ... .. . ... ... ... : ... .. . P82 : ... .. . ... : ... .. . ... ...
ROW F0 : --- .. . P80 ... ... : --- .. 0 P80 ... ... : --- .. . P80 : ... .. 0 ... : ... .. . ... ...
ROW F1 : B-3 00 A P7F ... ... : ... .. . ... ... ... : A-2 00 . P7C : ... .. . ... : ... .. . ... ...
ROW F2 : ... .. . P7E ... ... : ... .. . ... ... ... : ... .. . P79 : ... .. . ... : ... .. . ... ...
ROW F3 : ... .. . ... ... ... : ... .. . ... ... ... : ... .. . P7C : ... .. . ... : ... .. . ... ...
ROW F4 : ... .. . P7D ... ... : ... .. . ... ... ... : ... .. . P7F : ... .. . ... : ... .. . ... ...
ROW F5 : ... .. . ... ... ... : ... .. . ... ... ... : ... .. . P82 : ... .. . ... : ... .. . ... ...
ROW F6 : --- .. 0 P80 ... ... : --- .. . P80 ... ... : --- .. . P80 : ... .. . ... : === 00 . ... ...
ROW F7 : C-4 00 A ... ... ... : A-3 00 6 P7F ... ... : A-2 00 . P7C : ... .. 7 ... : ... .. . ... ...
ROW F8 : ... .. . P7F ... ... : ... .. . ... ... ... : ... .. . P79 : ... .. . ... : ... .. . ... ...
ROW F9 : ... .. . ... ... ... : ... .. . ... ... ... : ... .. . P7C : ... .. 4 ... : ... .. . ... ...
ROW FA : ... .. . P7E ... ... : ... .. . ... ... ... : ... .. . P7F : ... .. . ... : ... .. . ... ...
ROW FB : ... .. . ... ... ... : ... .. . ... ... ... : ... .. . P82 : ... .. . ... : ... .. . ... ...
ROW FC : --- .. 0 P80 ... ... : --- .. 0 P80 ... ... : ... .. . P85 : ... .. 0 ... : ... .. . ... ...
ROW FD : ... .. . ... ... ... : E-3 00 6 P7F ... ... : ... .. . P82 : ... .. 7 ... : ... .. . ... ...
ROW FE : ... .. . ... ... ... : ... .. . ... ... ... : ... .. . P7F : ... .. . ... : ... .. . ... ...
ROW FF : ... .. . ... ... ... : ... .. . ... ... ... : ... .. . P7C : ... .. 4 ... : ... .. . ... ...

PATTERN 0A
ROW 00 : ... .. . ... ... ... : ... .. . ... ... ... : ... .. . P79 : ... .. . ... : ... .. . ... ...
ROW 01 : ... .. . ... ... ... : ... .. . ... ... ... : ... .. . P7C : ... .. . ... : ... .. . ... ...
ROW 02 : --- .. . P80 ... ... : --- .. 0 P80 ... ... : --- .. . P80 : ... .. 0 ... : ... .. . ... ...
ROW 03 : D-4 00 A P7F ... ... : G-3 00 6 P7F ... ... : A-2 00 . P7C : ... .. 7 ... : ... .. . ... ...
ROW 04 : ... .. . P7E ... ... : ... .. . ... ... ... : ... .. . P79 : ... .. . ... : ... .. . ... ...
ROW 05 : ... .. . ... ... ... : ... .. . ... ... ... : ... .. . P7C : ... .. 4 ... : ... .. . ... ...
ROW 06 : ... .. . P7D ... ... : ... .. . ... ... ... : ... .. . P7F : ... .. . ... : ... .. . ... ...
ROW 07 : ... .. . ... ... ... : ... .. . ... ... ... : ... .. . P82 : ... .. . ... : ... .. . ... ...
ROW 08 : --- .. 0 P80 ... ... : --- .. 0 P80 ... ... : --- .. . P80 : ... .. 0 ... : ... .. . ... ...
ROW 09 : ... .. . ... ... ... : A-3 00 6 P7F ... ... : E-3 00 . P7C : ... .. 7 ... : ... .. . ... ...
ROW 0A : ... .. . ... ... ... : ... .. . ... ... ... : ... .. . P79 : ... .. . ... : ... .. . ... ...
ROW 0B : ... .. . ... ... ... : ... .. . ... ... ... : ... .. . P7C : ... .. 4 ... : ... .. . ... ...
ROW 0C : ... .. . ... ... ... : ... .. . ... ... ... : ... .. . P7F : ... .. . ... : ... .. . ... ...
ROW 0D : ... .. . ... ... ... : ... .. . ... ... ... : ... .. . P82 : ... .. . ... : ... .. . ... ...
ROW 0E : --- .. . P80 ... ... : --- .. 0 P80 ... ... : ... .. . P85 : ... .. 1 ... : ... .. . ... ...
ROW 0F : C-4 00 A ... ... ... : A-3 00 6 P7F ... ... : ... .. . P82 : ... .. . ... : ... .. . ... ...
ROW 10 : ... .. . P7F ... ... : ... .. . ... ... ... : ... .. . P7F : ... .. . ... : ... .. . ... ...
ROW 11 : ... .. . ... ... ... : ... .. . ... ... ... : ... .. . P7C : ... .. 0 ... : ... .. . ... ...
ROW 12 : ... .. . P7E ... ... : ... .. . ... ... ... : ... .. . P79 : ... .. . ... : ... .. . ... ...
ROW 13 : ... .. . ... ... ... : ... .. . ... ... ... : ... .. . P7C : ... .. . ... : ... .. . ... ...
ROW 14 : --- .. 0 P80 ... ... : --- .. 0 P80 ... ... : --- .. . P80 : ... .. . ... : ... .. . ... ...
ROW 15 : ... .. . ... ... ... : ... .. . ... ... ... : E-2 00 . P7C : ... .. 7 ... : ... .. . ... ...
ROW 16 : ... .. . ... ... ... : ... .. . ... ... ... : ... .. . P79 : ... .. . ... : ... .. . ... ...
ROW 17 : ... .. . ... ... ... : ... .. . ... ... ... : ... .. . P7C : ... .. 4 ... : ... .. . ... ...
ROW 18 : ... .. . ... ... ... : ... .. . ... ... ... : ... .. . P7F : ... .. . ... : ... .. . ... ...
ROW 19 : ... .. . ... ... ... : ... .. . ... ... ... : ... .. . P82 : ... .. . ... : ... .. . ... ...
ROW 1A : --- .. . P80 ... ... : --- .. . P80 ... ... : ... .. . P85 : ... .. 1 ... : ... .. . ... ...
ROW 1B : B-3 00 A P7F ... ... : A-3 00 6 P7F ... ... : ... .. . P82 : ... .. . ... : ... .. . ... ...
ROW 1C : ... .. . P7E ... ... : ... .. . ... ... ... : ... .. . P7F : ... .. . ... : ... .. . ... ...
ROW 1D : ... .. . ... ... ... : ... .. . ... ... ... : ... .. . P7C : ... .. 0 ... : ... .. . ... ...
ROW 1E : ... .. . P7D ... ... : ... .. . ... ... ... : ... .. . P79 : ... .. . ... : ... .. . ... ...
ROW 1F : ... .. . ... ... ... : ... .. . ... ... ... : ... .. . P7C : ... .. . ... : ... .. . ... ...
ROW 20 : --- .. 0 P80 ... ... : --- .. 0 P80 ... ... : --- .. . P80 : ... .. . ... : ... .. . ... ...
ROW 21 : ... .. . ... ... ... : A-3 00 6 P7F ... ... : A-2 00 . P7C : ... .. 7 ... : ... .. . ... ...
ROW 22 : ... .. . ... ... ... : ... .. . ... ... ... : ... .. . P79 : ... .. . ... : ... .. . ... ...
ROW 23 : ... .. . ... ... ... : ... .. . ... ... ... : ... .. . P7C : ... .. 4 ... : ... .. . ... ...
ROW 24 : ... .. . ... ... ... : ... .. . ... ... ... : ... .. . P7F : ... .. . ... : ... .. . ... ...
ROW 25 : ... .. . ... ... ... : ... .. . ... ... ... : ... .. . P82 : ... .. . ... : ... .. . ... ...
ROW 26 : --- .. . P80 ... ... : --- .. 0 P80 ... ... : ... .. . P85 : ... .. 1 ... : ... .. . ... ...
ROW 27 : C-4 00 A ... ... ... : A-3 00 6 P7F ... ... : ... .. . P82 : ... .. . ... : ... .. . ... ...
ROW 28 : ... .. . P7F ... ... : ... .. . ... ... ... : ... .. . P7F : ... .. . ... : ... .. . ... ...
ROW 29 : ... .. . ... ... ... : ... .. . ... ... ... : ... .. . P7C : ... .. 0 ... : ... .. . ... ...
ROW 2A : ... .. . P7E ... ... : ... .. . ... ... ... : ... .. . P79 : ... .. . ... : ... .. . ... ...
ROW 2B : ... .. . ... ... ... : ... .. . ... ... ... : ... .. . P7C : ... .. . ... : ... .. . ... ...
ROW 2C : --- .. 0 P80 ... ... : --- .. 0 P80 ... ... : --- .. . P80 : ... .. . ... : ... .. . ... ...
ROW 2D : E-3 00 A P7F ... ... : E-3 00 6 P7F ... ... : A-2 00 . P7C : ... .. 7 ... : ... .. . ... ...
ROW 2E : ... .. . P7E ... ... : ... .. . ... ... ... : ... .. . P79 : ... .. . ... : ... .. . ... ...
ROW 2F : ... .. . ... ... ... : ... .. . ... ... ... : ... .. . P7C : ... .. 4 ... : ... .. . ... ...
ROW 30 : ... .. . P7D ... ... : ... .. . ... ... ... : ... .. . P7F : ... .. . ... : ... .. . ... ...
ROW 31 : ... .. . ... ... ... : ... .. . ... ... ... : ... .. . P82 : ... .. . ... : ... .. . ... ...
ROW 32 : ... .. . P7E ... ... : --- .. 0 P80 ... ... : ... .. . P85 : ... .. 0 ... : ... .. . ... ...
ROW 33 : ... .. . ... ... ... : G-3 00 6 P7F ... ... : ... .. . P82 : ... .. 7 ... : ... .. . ... ...
ROW 34 : ... .. . P7F ... ... : ... .. . ... ... ... : ... .. . P7F : ... .. . ... : ... .. . ... ...
ROW 35 : ... .. . ... ... ... : ... .. . ... ... ... : ... .. . P7C : ... .. 4 ... : ... .. . ... ...
ROW 36 : ... .. . P80 ... ... : ... .. . ... ... ... : ... .. . P79 : ... .. . ... : ... .. . ... ...
ROW 37 : ... .. . ... ... ... : ... .. . ... ... ... : ... .. . P7C : ... .. . ... : ... .. . ... ...
ROW 38 : ... .. . ... ... ... : --- .. 0 P80 ... ... : --- .. . P80 : ... .. 0 ... : ... .. . ... ...
ROW 39 : E-3 00 A P7C ... ... : ... .. . ... ... ... : E-3 00 . P7C : ... .. 7 ... : ... .. . ... ...
ROW 3A : ... .. . P79 ... ... : ... .. . ... ... ... : ... .. . P79 : ... .. . ... : ... .. . ... ...
ROW 3B : ... .. . P7C ... ... : ... .. . ... ... ... : ... .. . P7C : ... .. 4 ... : ... .. . ... ...
ROW 3C : ... .. . P7F ... ... : ... .. . ... ... ... : ... .. . P7F : ... .. . ... : ... .. . ... ...
ROW 3D : ... .. . P82 ... ... : ... .. . ... ... ... : ... .. . P82 : ... .. . ... : ... .. . ... ...
ROW 3E : ... .. . P85 ... ... : --- .. . P80 ... ... : --- .. . P80 : ... .. 1 ... : ... .. . ... ...
ROW 3F : ... .. . P82 ... ... : A-3 00 6 P7F ... ... : E-3 00 . P7C : ... .. . ... : ... .. . ... ...
ROW 40 : ... .. . P7F ... ... : ... .. . ... ... ... : ... .. . P79 : ... .. . ... : ... .. . ... ...
ROW 41 : ... .. . P7C ... ... : ... .. . ... ... ... : ... .. . P7C : ... .. 0 ... : ... .. . ... ...
ROW 42 : ... .. . P79 ... ... : ... .. . ... ... ... : ... .. . P7F : ... .. . ... : ... .. . ... ...
ROW 43 : ... .. . P7C ... ... : ... .. . ... ... ... : ... .. . P82 : ... .. . ... : ... .. . ... ...
ROW 44 : ... .. . P7F ... ... : --- .. 0 P80 ... ... : ... .. . P85 : ... .. . ... : ... .. . ... ...
ROW 45 : ... .. . P82 ... ... : E-3 00 6 P7F ... ... : ... .. . P82 : ... .. 7 ... : ... .. . ... ...
ROW 46 : ... .. . P85 ... ... : ... .. . ... ... ... : ... .. . P7F : ... .. . ... : ... .. . ... ...
ROW 47 : ... .. . P82 ... ... : ... .. . ... ... ... : ... .. . P7C : ... .. 4 ... : ... .. . ... ...
ROW 48 : ... .. . P7F ... ... : ... .. . ... ... ... : ... .. . P79 : ... .. . ... : ... .. . ... ...
ROW 49 : ... .. . P7C ... ... : ... .. . ... ... ... : ... .. . P7C : ... .. . ... : ... .. . ... ...
ROW 4A : ... .. . P79 ... ... : --- .. 0 P80 ... ... : --- .. . P80 : ... .. 0 ... : ... .. . ... ...
ROW 4B : ... .. . P7C ... ... : G-3 00 6 P7F ... ... : E-3 00 . P7C : ... .. 7 ... : ... .. . ... ...
ROW 4C : ... .. . P7F ... ... : ... .. . ... ... ... : ... .. . P79 : ... .. . ... : ... .. . ... ...
ROW 4D : ... .. . P82 ... ... : ... .. . ... ... ... : ... .. . P7C : ... .. 4 ... : ... .. . ... ...
ROW 4E : ... .. . P85 ... ... : ... .. . ... ... ... : ... .. . P7F : ... .. . ... : ... .. . ... ...
ROW 4F : ... .. . P82 ... ... : ... .. . ... ... ... : ... .. . P82 : ... .. . ... : ... .. . ... ...
ROW 50 : ... .. . P7F ... ... : --- .. 0 P80 ... ... : --- .. . P80 : ... .. 0 ... : ... .. . ... ...
ROW 51 : ... .. . P7C ... ... : ... .. . ... ... ... : A-2 00 . P7C : ... .. . ... : ... .. . ... ...
ROW 52 : ... .. . P79 ... ... : ... .. . ... ... ... : ... .. . P79 : ... .. . ... : ... .. . ... ...
ROW 53 : ... .. . P7C ... ... : ... .. . ... ... ... : ... .. . P7C : ... .. . ... : ... .. . ... ...
ROW 54 : ... .. . P7F ... ... : ... .. . ... ... ... : ... .. . P7F : ... .. . ... : ... .. . ... ...
ROW 55 : ... .. . P82 ... ... : ... .. . ... ... ... : ... .. . P82 : ... .. . ... : ... .. . ... ...
ROW 56 : ... .. . P85 ... ... : --- .. . P80 ... ... : --- .. . P80 : ... .. . ... : === 00 . ... ...
ROW 57 : ... .. . P82 ... ... : A-3 00 6 P7F ... ... : A-2 00 . P7C : ... .. 7 ... : ... .. . ... ...
ROW 58 : ... .. . P7F ... ... : ... .. . ... ... ... : ... .. . P79 : ... .. . ... : ... .. . ... ...
ROW 59 : ... .. . P7C ... ... : ... .. . ... ... ... : ... .. . P7C : ... .. 4 ... : ... .. . ... ...
ROW 5A : ... .. . P79 ... ... : ... .. . ... ... ... : ... .. . P7F : ... .. . ... : ... .. . ... ...
ROW 5B : ... .. . P7C ... ... : ... .. . ... ... ... : ... .. . P82 : ... .. . ... : ... .. . ... ...
ROW 5C : ... .. . P7F ... ... : --- .. 0 P80 ... ... : ... .. . P85 : ... .. 0 ... : ... .. . ... ...
ROW 5D : ... .. . P82 ... ... : E-3 00 6 P7F ... ... : ... .. . P82 : ... .. 7 ... : ... .. . ... ...
ROW 5E : ... .. . P85 ... ... : ... .. . ... ... ... : ... .. . P7F : ... .. . ... : ... .. . ... ...
ROW 5F : ... .. . P82 ... ... : ... .. . ... ... ... : ... .. . P7C : ... .. 4 ... : ... .. . ... ...
ROW 60 : ... .. . P7F ... ... : ... .. . ... ... ... : ... .. . P79 : ... .. . ... : ... .. . ... ...
ROW 61 : ... .. . P7C ... ... : ... .. . ... ... ... : ... .. . P7C : ... .. . ... : ... .. . ... ...
ROW 62 : ... .. . P79 ... ... : --- .. 0 P80 ... ... : --- .. . P80 : ... .. 0 ... : ... .. . ... ...
ROW 63 : ... .. . P7C ... ... : G-3 00 6 P7F ... ... : A-2 00 . P7C : ... .. 7 ... : ... .. . ... ...
ROW 64 : ... .. . P7F ... ... : ... .. . ... ... ... : ... .. . P79 : ... .. . ... : ... .. . ... ...
ROW 65 : ... .. . P82 ... ... : ... .. . ... ... ... : ... .. . P7C : ... .. 4 ... : ... .. . ... ...
ROW 66 : ... .. . P85 ... ... : ... .. . ... ... ... : ... .. . P7F : ... .. . ... : ... .. . ... ...
ROW 67 : ... .. . P82 ... ... : ... .. . ... ... ... : ... .. . P82 : ... .. . ... : ... .. . ... ...
ROW 68 : ... .. . P7F ... ... : --- .. 0 P80 ... ... : --- .. . P80 : ... .. 0 ... : ... .. . ... ...
ROW 69 : ... .. . P7C ... ... : A-3 00 6 P7F ... ... : E-3 00 . P7C : ... .. 7 ... : ... .. . ... ...
ROW 6A : ... .. . P79 ... ... : ... .. . ... ... ... : ... .. . P79 : ... .. . ... : ... .. . ... ...
ROW 6B : ... .. . P7C ... ... : ... .. . ... ... ... : ... .. . P7C : ... .. 4 ... : ... .. . ... ...
ROW 6C : ... .. . P7F ... ... : ... .. . ... ... ... : ... .. . P7F : ... .. . ... : ... .. . ... ...
ROW 6D : ... .. . P82 ... ... : ... .. . ... ... ... : ... .. . P82 : ... .. . ... : ... .. . ... ...
ROW 6E : ... .. . P85 ... ... : --- .. 0 P80 ... ... : ... .. . P85 : ... .. 0 ... : ... .. . ... ...
ROW 6F : ... .. . P82 ... ... : A-3 00 6 P7F ... ... : ... .. . P82 : ... .. 7 ... : ... .. . ... ...
ROW 70 : ... .. . P7F ... ... : ... .. . ... ... ... : ... .. . P7F : ... .. . ... : ... .. . ... ...
ROW 71 : ... .. . P7C ... ... : ... .. . ... ... ... : ... .. . P7C : ... .. 4 ... : ... .. . ... ...
ROW 72 : ... .. . P79 ... ... : ... .. . ... ... ... : ... .. . P79 : ... .. . ... : ... .. . ... ...
ROW 73 : ... .. . P7C ... ... : ... .. . ... ... ... : ... .. . P7C : ... .. . ... : ... .. . ... ...
ROW 74 : ... .. . P7F ... ... : --- .. 0 P80 ... ... : --- .. . P80 : ... .. 0 ... : ... .. . ... ...
ROW 75 : ... .. . P82 ... ... : ... .. . ... ... ... : E-2 00 . P7C : ... .. 7 ... : ... .. . ... ...
ROW 76 : ... .. . P85 ... ... : ... .. . ... ... ... : ... .. . P79 : ... .. . ... : ... .. . ... ...
ROW 77 : ... .. . P82 ... ... : ... .. . ... ... ... : ... .. . P7C : ... .. 4 ... : ... .. . ... ...
ROW 78 : ... .. . P7F ... ... : ... .. . ... ... ... : ... .. . P7F : ... .. . ... : ... .. . ... ...
ROW 79 : ... .. . P7C ... ... : ... .. . ... ... ... : ... .. . P82 : ... .. . ... : ... .. . ... ...
ROW 7A : ... .. . P79 ... ... : --- .. . P80 ... ... : ... .. . P85 : ... .. 0 ... : ... .. . ... ...
ROW 7B : ... .. 6 P7C ... ... : A-3 00 6 P7F ... ... : ... .. . P82 : ... .. 7 ... : ... .. . ... ...
ROW 7C : ... .. . P7F ... ... : ... .. . ... ... ... : ... .. . P7F : ... .. . ... : ... .. . ... ...
ROW 7D : ... .. . P82 ... ... : ... .. . ... ... ... : ... .. . P7C : ... .. 4 ... : ... .. . ... ...
ROW 7E : ... .. . P85 ... ... : ... .. . ... ... ... : ... .. . P79 : ... .. . ... : ... .. . ... ...
ROW 7F : ... .. . P82 ... ... : ... .. . ... ... ... : ... .. . P7C : ... .. . ... : ... .. . ... ...
ROW 80 : --- .. 0 P80 ... ... : --- .. 0 P80 ... ... : --- .. . P80 : ... .. 0 ... : ... .. . ... ...
ROW 81 : A-4 00 A P7F ... ... : A-3 00 6 P7F ... ... : A-2 00 . P7C : ... .. 7 ... : ... .. . ... ...
ROW 82 : ... .. . ... ... ... : ... .. . ... ... ... : ... .. . P79 : ... .. . ... : ... .. . ... ...
ROW 83 : --- .. 0 P80 ... ... : ... .. . ... ... ... : ... .. . P7C : ... .. 4 ... : ... .. . ... ...
ROW 84 : A-5 00 A ... ... ... : ... .. . ... ... ... : ... .. . P7F : ... .. . ... : ... .. . ... ...
ROW 85 : ... .. . ... ... ... : ... .. . ... ... ... : ... .. . P82 : ... .. . ... : ... .. . ... ...
ROW 86 : --- .. 0 ... ... ... : --- .. 0 P80 ... ... : ... .. . P85 : ... .. 1 ... : ... .. . ... ...
ROW 87 : ... .. . ... ... ... : A-3 00 6 P7F ... ... : ... .. . P82 : ... .. . ... : ... .. . ... ...
ROW 88 : ... .. . ... ... ... : ... .. . ... ... ... : ... .. . P7F : ... .. . ... : ... .. . ... ...
ROW 89 : --- .. . P80 ... ... : ... .. . ... ... ... : ... .. . P7C : ... .. 0 ... : ... .. . ... ...
ROW 8A : A-5 00 9 ... ... ... : ... .. . ... ... ... : ... .. . P79 : ... .. . ... : ... .. . ... ...
ROW 8B : ... .. . ... ... ... : ... .. . ... ... ... : ... .. . P7C : ... .. . ... : ... .. . ... ...
ROW 8C : --- .. 0 ... ... ... : --- .. 0 P80 ... ... : --- .. . P80 : ... .. . ... : ... .. . ... ...
ROW 8D : ... .. . ... ... ... : E-3 00 6 P7F ... ... : A-2 00 . P7C : ... .. 7 ... : ... .. . ... ...
ROW 8E : ... .. . ... ... ... : ... .. . ... ... ... : ... .. . P79 : ... .. . ... : ... .. . ... ...
ROW 8F : ... .. . ... ... ... : ... .. . ... ... ... : ... .. . P7C : ... .. 4 ... : ... .. . ... ...
ROW 90 : ... .. . ... ... ... : ... .. . ... ... ... : ... .. . P7F : ... .. . ... : ... .. . ... ...
ROW 91 : ... .. . ... ... ... : ... .. . ... ... ... : ... .. . P82 : ... .. . ... : ... .. . ... ...
ROW 92 : ... .. . ... ... ... : --- .. 0 P80 ... ... : ... .. . P85 : ... .. 0 ... : ... .. . ... ...
ROW 93 : ... .. . ... ... ... : G-3 00 6 P7F ... ... : ... .. . P82 : ... .. 7 ... : ... .. . ... ...
ROW 94 : ... .. . ... ... ... : ... .. . ... ... ... : ... .. . P7F : ... .. . ... : ... .. . ... ...
ROW 95 : ... .. . ... ... ... : ... .. . ... ... ... : ... .. . P7C : ... .. 4 ... : ... .. . ... ...
ROW 96 : ... .. . ... ... ... : ... .. . ... ... ... : ... .. . P79 : ... .. . ... : ... .. . ... ...
ROW 97 : ... .. . ... ... ... : ... .. . ... ... ... : ... .. . P7C : ... .. . ... : ... .. . ... ...
ROW 98 : ... .. . ... ... ... : --- .. 0 P80 ... ... : --- .. . P80 : ... .. 0 ... : ... .. . ... ...
ROW 99 : ... .. . ... ... ... : ... .. . ... ... ... : E-3 00 . P7C : ... .. 7 ... : ... .. . ... ...
ROW 9A : ... .. . ... ... ... : ... .. . ... ... ... : ... .. . P79 : ... .. . ... : ... .. . ... ...
ROW 9B : ... .. . ... ... ... : ... .. . ... ... ... : ... .. . P7C : ... .. 4 ... : ... .. . ... ...
ROW 9C : ... .. . ... ... ... : ... .. . ... ... ... : ... .. . P7F : ... .. . ... : ... .. . ... ...
ROW 9D : ... .. . ... ... ... : ... .. . ... ... ... : ... .. . P82 : ... .. . ... : ... .. . ... ...
ROW 9E : ... .. . ... ... ... : --- .. . P80 ... ... : --- .. . P80 : ... .. 1 ... : ... .. . ... ...
ROW 9F : ... .. . ... ... ... : A-3 00 6 P7F ... ... : E-3 00 . P7C : ... .. . ... : ... .. . ... ...
ROW A0 : ... .. . ... ... ... : ... .. . ... ... ... : ... .. . P79 : ... .. . ... : ... .. . ... ...
ROW A1 : ... .. . ... ... ... : ... .. . ... ... ... : ... .. . P7C : ... .. 0 ... : ... .. . ... ...
ROW A2 : ... .. . ... ... ... : ... .. . ... ... ... : ... .. . P7F : ... .. . ... : ... .. . ... ...
ROW A3 : ... .. . ... ... ... : ... .. . ... ... ... : ... .. . P82 : ... .. . ... : ... .. . ... ...
ROW A4 : --- .. . P80 ... ... : --- .. 0 P80 ... ... : ... .. . P85 : ... .. . ... : ... .. . ... ...
ROW A5 : ... .. . ... ... ... : E-3 00 6 P7F ... ... : ... .. . P82 : ... .. 7 ... : ... .. . ... ...
ROW A6 : ... .. . ... ... ... : ... .. . ... ... ... : ... .. . P7F : ... .. . ... : ... .. . ... ...
ROW A7 : ... .. . ... ... ... : ... .. . ... ... ... : ... .. . P7C : ... .. 4 ... : ... .. . ... ...
ROW A8 : ... .. . ... ... ... : ... .. . ... ... ... : ... .. . P79 : ... .. . ... : ... .. . ... ...
ROW A9 : ... .. . ... ... ... : ... .. . ... ... ... : ... .. . P7C : ... .. . ... : ... .. . ... ...
ROW AA : ... .. . ... ... ... : --- .. 0 P80 ... ... : --- .. . P80 : ... .. 0 ... : ... .. . ... ...
ROW AB : ... .. . ... ... ... : G-3 00 6 P7F ... ... : E-3 00 . P7C : ... .. 7 ... : ... .. . ... ...
ROW AC : ... .. . ... ... ... : ... .. . ... ... ... : ... .. . P79 : ... .. . ... : ... .. . ... ...
ROW AD : ... .. . ... ... ... : ... .. . ... ... ... : ... .. . P7C : ... .. 4 ... : ... .. . ... ...
ROW AE : ... .. . ... ... ... : ... .. . ... ... ... : ... .. . P7F : ... .. . ... : ... .. . ... ...
ROW AF : ... .. . ... ... ... : ... .. . ... ... ... : ... .. . P82 : ... .. . ... : ... .. . ... ...
ROW B0 : --- .. . P80 ... ... : --- .. 0 P80 ... ... : --- .. . P80 : ... .. 0 ... : ... .. . ... ...
ROW B1 : B-3 00 A P7F ... ... : ... .. . ... ... ... : A-2 00 . P7C : ... .. . ... : ... .. . ... ...
ROW B2 : ... .. . ... ... ... : ... .. . ... ... ... : ... .. . P79 : ... .. . ... : ... .. . ... ...
ROW B3 : ... .. . ... ... ... : ... .. . ... ... ... : ... .. . P7C : ... .. . ... : ... .. . ... ...
ROW B4 : ... .. . ... ... ... : ... .. . ... ... ... : ... .. . P7F : ... .. . ... : ... .. . ... ...
ROW B5 : ... .. . ... ... ... : ... .. . ... ... ... : ... .. . P82 : ... .. . ... : ... .. . ... ...
ROW B6 : --- .. 0 P80 ... ... : --- .. . P80 ... ... : --- .. . P80 : ... .. . ... : === 00 . ... ...
ROW B7 : C-4 00 A ... ... ... : A-3 00 6 P7F ... ... : A-2 00 . P7C : ... .. 7 ... : ... .. . ... ...
ROW B8 : ... .. . ... ... ... : ... .. . ... ... ... : ... .. . P79 : ... .. . ... : ... .. . ... ...
ROW B9 : ... .. . ... ... ... : ... .. . ... ... ... : ... .. . P7C : ... .. 4 ... : ... .. . ... ...
ROW BA : ... .. . ... ... ... : ... .. . ... ... ... : ... .. . P7F : ... .. . ... : ... .. . ... ...
ROW BB : ... .. . ... ... ... : ... .. . ... ... ... : ... .. . P82 : ... .. . ... : ... .. . ... ...
ROW BC : --- .. 0 ... ... ... : --- .. 0 P80 ... ... : ... .. . P85 : ... .. 0 ... : ... .. . ... ...
ROW BD : ... .. . ... ... ... : E-3 00 6 P7F ... ... : ... .. . P82 : ... .. 7 ... : ... .. . ... ...
ROW BE : ... .. . ... ... ... : ... .. . ... ... ... : ... .. . P7F : ... .. . ... : ... .. . ... ...
ROW BF : ... .. . ... ... ... : ... .. . ... ... ... : ... .. . P7C : ... .. 4 ... : ... .. . ... ...
ROW C0 : ... .. . ... ... ... : ... .. . ... ... ... : ... .. . P79 : ... .. . ... : ... .. . ... ...
ROW C1 : ... .. . ... ... ... : ... .. . ... ... ... : ... .. . P7C : ... .. . ... : ... .. . ... ...
ROW C2 : --- .. . P80 ... ... : --- .. 0 P80 ... ... : --- .. . P80 : ... .. 0 ... : ... .. . ... ...
ROW C3 : D-4 00 A P7F ... ... : G-3 00 6 P7F ... ... : A-2 00 . P7C : ... .. 7 ... : ... .. . ... ...
ROW C4 : ... .. . ... ... ... : ... .. . ... ... ... : ... .. . P79 : ... .. . ... : ... .. . ... ...
ROW C5 : ... .. . ... ... ... : ... .. . ... ... ... : ... .. . P7C : ... .. 4 ... : ... .. . ... ...
ROW C6 : ... .. . ... ... ... : ... .. . ... ... ... : ... .. . P7F : ... .. . ... : ... .. . ... ...
ROW C7 : ... .. . ... ... ... : ... .. . ... ... ... : ... .. . P82 : ... .. . ... : ... .. . ... ...
ROW C8 : --- .. 0 P80 ... ... : --- .. 0 P80 ... ... : --- .. . P80 : ... .. 0 ... : ... .. . ... ...
ROW C9 : ... .. . ... ... ... : A-3 00 6 P7F ... ... : E-3 00 . P7C : ... .. 7 ... : ... .. . ... ...
ROW CA : ... .. . ... ... ... : ... .. . ... ... ... : ... .. . P79 : ... .. . ... : ... .. . ... ...
ROW CB : ... .. . ... ... ... : ... .. . ... ... ... : ... .. . P7C : ... .. 4 ... : ... .. . ... ...
ROW CC : ... .. . ... ... ... : ... .. . ... ... ... : ... .. . P7F : ... .. . ... : ... .. . ... ...
ROW CD : ... .. . ... ... ... : ... .. . ... ... ... : ... .. . P82 : ... .. . ... : ... .. . ... ...
ROW CE : --- .. . P80 ... ... : --- .. 0 P80 ... ... : ... .. . P85 : ... .. 1 ... : ... .. . ... ...
ROW CF : C-4 00 A ... ... ... : A-3 00 6 P7F ... ... : ... .. . P82 : ... .. . ... : ... .. . ... ...
ROW D0 : ... .. . ... ... ... : ... .. . ... ... ... : ... .. . P7F : ... .. . ... : ... .. . ... ...
ROW D1 : ... .. . ... ... ... : ... .. . ... ... ... : ... .. . P7C : ... .. 0 ... : ... .. . ... ...
ROW D2 : ... .. . ... ... ... : ... .. . ... ... ... : ... .. . P79 : ... .. . ... : ... .. . ... ...
ROW D3 : ... .. . ... ... ... : ... .. . ... ... ... : ... .. . P7C : ... .. . ... : ... .. . ... ...
ROW D4 : --- .. 0 ... ... ... : --- .. 0 P80 ... ... : --- .. . P80 : ... .. . ... : ... .. . ... ...
ROW D5 : ... .. . ... ... ... : ... .. . ... ... ... : E-2 00 . P7C : ... .. 7 ... : ... .. . ... ...
ROW D6 : ... .. . ... ... ... : ... .. . ... ... ... : ... .. . P79 : ... .. . ... : ... .. . ... ...
ROW D7 : ... .. . ... ... ... : ... .. . ... ... ... : ... .. . P7C : ... .. 4 ... : ... .. . ... ...
ROW D8 : ... .. . ... ... ... : ... .. . ... ... ... : ... .. . P7F : ... .. . ... : ... .. . ... ...
ROW D9 : ... .. . ... ... ... : ... .. . ... ... ... : ... .. . P82 : ... .. . ... : ... .. . ... ...
ROW DA : --- .. . P80 ... ... : --- .. . P80 ... ... : ... .. . P85 : ... .. 1 ... : ... .. . ... ...
ROW DB : B-3 00 A P7F ... ... : A-3 00 6 P7F ... ... : ... .. . P82 : ... .. . ... : ... .. . ... ...
ROW DC : ... .. . ... ... ... : ... .. . ... ... ... : ... .. . P7F : ... .. . ... : ... .. . ... ...
ROW DD : ... .. . ... ... ... : ... .. . ... ... ... : ... .. . P7C : ... .. 0 ... : ... .. . ... ...
ROW DE : ... .. . ... ... ... : ... .. . ... ... ... : ... .. . P79 : ... .. . ... : ... .. . ... ...
ROW DF : ... .. . ... ... ... : ... .. . ... ... ... : ... .. . P7C : ... .. . ... : ... .. . ... ...
ROW E0 : --- .. 0 P80 ... ... : --- .. 0 P80 ... ... : --- .. . P80 : ... .. . ... : ... .. . ... ...
ROW E1 : ... .. . ... ... ... : A-3 00 6 P7F ... ... : A-2 00 . P7C : ... .. 7 ... : ... .. . ... ...
ROW E2 : ... .. . ... ... ... : ... .. . ... ... ... : ... .. . P79 : ... .. . ... : ... .. . ... ...
ROW E3 : ... .. . ... ... ... : ... .. . ... ... ... : ... .. . P7C : ... .. 4 ... : ... .. . ... ...
ROW E4 : ... .. . ... ... ... : ... .. . ... ... ... : ... .. . P7F : ... .. . ... : ... .. . ... ...
ROW E5 : ... .. . ... ... ... : ... .. . ... ... ... : ... .. . P82 : ... .. . ... : ... .. . ... ...
ROW E6 : --- .. . P80 ... ... : --- .. 0 P80 ... ... : ... .. . P85 : ... .. 1 ... : ... .. . ... ...
ROW E7 : D-4 00 A P7F ... ... : A-3 00 6 P7F ... ... : ... .. . P82 : ... .. . ... : ... .. . ... ...
ROW E8 : ... .. . ... ... ... : ... .. . ... ... ... : ... .. . P7F : ... .. . ... : ... .. . ... ...
ROW E9 : ... .. . ... ... ... : ... .. . ... ... ... : ... .. . P7C : ... .. 0 ... : ... .. . ... ...
ROW EA : ... .. . ... ... ... : ... .. . ... ... ... : ... .. . P79 : ... .. . ... : ... .. . ... ...
ROW EB : ... .. . ... ... ... : ... .. . ... ... ... : ... .. . P7C : ... .. . ... : ... .. . ... ...
ROW EC : --- .. 0 P80 ... ... : --- .. 0 P80 ... ... : --- .. . P80 : ... .. . ... : ... .. . ... ...
ROW ED : E-4 00 A ... ... ... : E-3 00 6 P7F ... ... : A-2 00 . P7C : ... .. 7 ... : ... .. . ... ...
ROW EE : ... .. . ... ... ... : ... .. . ... ... ... : ... .. . P79 : ... .. . ... : ... .. . ... ...
ROW EF : ... .. . ... ... ... : ... .. . ... ... ... : ... .. . P7C : ... .. 4 ... : ... .. . ... ...
ROW F0 : ... .. . ... ... ... : ... .. . ... ... ... : ... .. . P7F : ... .. . ... : ... .. . ... ...
ROW F1 : ... .. . ... ... ... : ... .. . ... ... ... : ... .. . P82 : ... .. . ... : ... .. . ... ...
ROW F2 : ... .. . ... ... ... : --- .. 0 P80 ... ... : ... .. . P85 : ... .. 0 ... : ... .. . ... ...
ROW F3 : ... .. . ... ... ... : G-3 00 6 P7F ... ... : ... .. . P82 : ... .. 7 ... : ... .. . ... ...
ROW F4 : ... .. . ... ... ... : ... .. . ... ... ... : ... .. . P7F : ... .. . ... : ... .. . ... ...
ROW F5 : ... .. . ... ... ... : ... .. . ... ... ... : ... .. . P7C : ... .. 4 ... : ... .. . ... ...
ROW F6 : ... .. . ... ... ... : ... .. . ... ... ... : ... .. . P79 : ... .. . ... : ... .. . ... ...
ROW F7 : ... .. . ... ... ... : ... .. . ... ... ... : ... .. . P7C : ... .. . ... : ... .. . ... ...
ROW F8 : ... .. . ... ... ... : --- .. 0 P80 ... ... : --- .. . P80 : ... .. 0 ... : ... .. . ... ...
ROW F9 : E-4 00 A P7D ... ... : ... .. . ... ... ... : E-3 00 . P7C : ... .. 7 ... : ... .. . ... ...
ROW FA : D#4 00 A P84 ... ... : ... .. . ... ... ... : ... .. . P79 : ... .. . ... : ... .. . ... ...
ROW FB : E-4 00 A P7D ... ... : ... .. . ... ... ... : ... .. . P7C : ... .. 4 ... : ... .. . ... ...
ROW FC : ... .. . P80 ... ... : ... .. . ... ... ... : ... .. . P7F : ... .. . ... : ... .. . ... ...
ROW FD : ... .. . P83 ... ... : ... .. . ... ... ... : ... .. . P82 : ... .. . ... : ... .. . ... ...
ROW FE : F-4 00 A P7C ... ... : --- .. . P80 ... ... : --- .. . P80 : ... .. 1 ... : ... .. . ... ...
ROW FF : E-4 00 A P83 ... ... : A-3 00 6 P7F ... ... : E-3 00 . P7C : ... .. . ... : ... .. . ... ...

PATTERN 0B
ROW 00 : ... .. . P80 ... ... : ... .. . ... ... ... : ... .. . P79 : ... .. . ... : ... .. . ... ...
ROW 01 : ... .. . P7D ... ... : ... .. . ... ... ... : ... .. . P7C : ... .. 0 ... : ... .. . ... ...
ROW 02 : D#4 00 A P84 ... ... : ... .. . ... ... ... : ... .. . P7F : ... .. . ... : ... .. . ... ...
ROW 03 : E-4 00 A P7D ... ... : ... .. . ... ... ... : ... .. . P82 : ... .. . ... : ... .. . ... ...
ROW 04 : ... .. . P80 ... ... : --- .. 0 P80 ... ... : ... .. . P85 : ... .. . ... : ... .. . ... ...
ROW 05 : ... .. . P83 ... ... : E-3 00 6 P7F ... ... : ... .. . P82 : ... .. 7 ... : ... .. . ... ...
ROW 06 : F-4 00 A P7C ... ... : ... .. . ... ... ... : ... .. . P7F : ... .. . ... : ... .. . ... ...
ROW 07 : E-4 00 A P83 ... ... : ... .. . ... ... ... : ... .. . P7C : ... .. 4 ... : ... .. . ... ...
ROW 08 : ... .. . P80 ... ... : ... .. . ... ... ... : ... .. . P79 : ... .. . ... : ... .. . ... ...
ROW 09 : ... .. . P7D ... ... : ... .. . ... ... ... : ... .. . P7C : ... .. . ... : ... .. . ... ...
ROW 0A : D#4 00 A P84 ... ... : --- .. 0 P80 ... ... : --- .. . P80 : ... .. 0 ... : ... .. . ... ...
ROW 0B : E-4 00 A P7D ... ... : G-3 00 6 P7F ... ... : E-3 00 . P7C : ... .. 7 ... : ... .. . ... ...
ROW 0C : ... .. . P80 ... ... : ... .. . ... ... ... : ... .. . P79 : ... .. . ... : ... .. . ... ...
ROW 0D : ... .. . P83 ... ... : ... .. . ... ... ... : ... .. . P7C : ... .. 4 ... : ... .. . ... ...
ROW 0E : F-4 00 A P7C ... ... : ... .. . ... ... ... : ... .. . P7F : ... .. . ... : ... .. . ... ...
ROW 0F : E-4 00 A P83 ... ... : ... .. . ... ... ... : ... .. . P82 : ... .. . ... : ... .. . ... ...
ROW 10 : ... .. . P80 ... ... : --- .. 0 P80 ... ... : --- .. . P80 : ... .. 0 ... : ... .. . ... ...
ROW 11 : ... .. . P7D ... ... : ... .. . ... ... ... : A-2 00 . P7C : ... .. . ... : ... .. . ... ...
ROW 12 : D#4 00 A P84 ... ... : ... .. . ... ... ... : ... .. . P79 : ... .. . ... : ... .. . ... ...
ROW 13 : E-4 00 A P7D ... ... : ... .. . ... ... ... : ... .. . P7C : ... .. . ... : ... .. . ... ...
ROW 14 : ... .. . P80 ... ... : ... .. . ... ... ... : ... .. . P7F : ... .. . ... : ... .. . ... ...
ROW 15 : ... .. . P83 ... ... : ... .. . ... ... ... : ... .. . P82 : ... .. . ... : ... .. . ... ...
ROW 16 : F-4 00 A P7C ... ... : --- .. . P80 ... ... : --- .. . P80 : ... .. . ... : === 00 . ... ...
ROW 17 : E-4 00 A P83 ... ... : A-3 00 6 P7F ... ... : A-2 00 . P7C : ... .. 7 ... : ... .. . ... ...
ROW 18 : ... .. . P80 ... ... : ... .. . ... ... ... : ... .. . P79 : ... .. . ... : ... .. . ... ...
ROW 19 : ... .. . P7D ... ... : ... .. . ... ... ... : ... .. . P7C : ... .. 4 ... : ... .. . ... ...
ROW 1A : D#4 00 A P84 ... ... : ... .. . ... ... ... : ... .. . P7F : ... .. . ... : ... .. . ... ...
ROW 1B : E-4 00 A P7D ... ... : ... .. . ... ... ... : ... .. . P82 : ... .. . ... : ... .. . ... ...
ROW 1C : ... .. . P80 ... ... : --- .. 0 P80 ... ... : ... .. . P85 : ... .. 0 ... : ... .. . ... ...
ROW 1D : ... .. . P83 ... ... : E-3 00 6 P7F ... ... : ... .. . P82 : ... .. 7 ... : ... .. . ... ...
ROW 1E : F-4 00 A P7C ... ... : ... .. . ... ... ... : ... .. . P7F : ... .. . ... : ... .. . ... ...
ROW 1F : E-4 00 A P83 ... ... : ... .. . ... ... ... : ... .. . P7C : ... .. 4 ... : ... .. . ... ...
ROW 20 : ... .. . P80 ... ... : ... .. . ... ... ... : ... .. . P79 : ... .. . ... : ... .. . ... ...
ROW 21 : ... .. . P7D ... ... : ... .. . ... ... ... : ... .. . P7C : ... .. . ... : ... .. . ... ...
ROW 22 : D#4 00 A P84 ... ... : --- .. 0 P80 ... ... : --- .. . P80 : ... .. 0 ... : ... .. . ... ...
ROW 23 : E-4 00 A P7D ... ... : G-3 00 6 P7F ... ... : A-2 00 . P7C : ... .. 7 ... : ... .. . ... ...
ROW 24 : ... .. . P80 ... ... : ... .. . ... ... ... : ... .. . P79 : ... .. . ... : ... .. . ... ...
ROW 25 : ... .. . P83 ... ... : ... .. . ... ... ... : ... .. . P7C : ... .. 4 ... : ... .. . ... ...
ROW 26 : F-4 00 A P7C ... ... : ... .. . ... ... ... : ... .. . P7F : ... .. . ... : ... .. . ... ...
ROW 27 : E-4 00 A P83 ... ... : ... .. . ... ... ... : ... .. . P82 : ... .. . ... : ... .. . ... ...
ROW 28 : ... .. . P80 ... ... : --- .. 0 P80 ... ... : --- .. . P80 : ... .. 0 ... : ... .. . ... ...
ROW 29 : ... .. . P7D ... ... : A-3 00 6 P7F ... ... : E-3 00 . P7C : ... .. 7 ... : ... .. . ... ...
ROW 2A : D#4 00 A P84 ... ... : ... .. . ... ... ... : ... .. . P79 : ... .. . ... : ... .. . ... ...
ROW 2B : E-4 00 A P7D ... ... : ... .. . ... ... ... : ... .. . P7C : ... .. 4 ... : ... .. . ... ...
ROW 2C : ... .. . P80 ... ... : ... .. . ... ... ... : ... .. . P7F : ... .. . ... : ... .. . ... ...
ROW 2D : ... .. . P83 ... ... : ... .. . ... ... ... : ... .. . P82 : ... .. . ... : ... .. . ... ...
ROW 2E : F-4 00 A P7C ... ... : --- .. 0 P80 ... ... : ... .. . P85 : ... .. 0 ... : ... .. . ... ...
ROW 2F : E-4 00 A P83 ... ... : A-3 00 6 P7F ... ... : ... .. . P82 : ... .. 7 ... : ... .. . ... ...
ROW 30 : ... .. . P80 ... ... : ... .. . ... ... ... : ... .. . P7F : ... .. . ... : ... .. . ... ...
ROW 31 : ... .. . P7D ... ... : ... .. . ... ... ... : ... .. . P7C : ... .. 4 ... : ... .. . ... ...
ROW 32 : D#4 00 A P84 ... ... : ... .. . ... ... ... : ... .. . P79 : ... .. . ... : ... .. . ... ...
ROW 33 : E-4 00 A P7D ... ... : ... .. . ... ... ... : ... .. . P7C : ... .. . ... : ... .. . ... ...
ROW 34 : ... .. . P80 ... ... : --- .. 0 P80 ... ... : --- .. . P80 : ... .. 0 ... : ... .. . ... ...
ROW 35 : ... .. . P83 ... ... : ... .. . ... ... ... : E-2 00 . P7C : ... .. 7 ... : ... .. . ... ...
ROW 36 : F-4 00 A P7C ... ... : ... .. . ... ... ... : ... .. . P79 : ... .. . ... : ... .. . ... ...
ROW 37 : E-4 00 A P83 ... ... : ... .. . ... ... ... : ... .. . P7C : ... .. 4 ... : ... .. . ... ...
ROW 38 : ... .. . P80 ... ... : ... .. . ... ... ... : ... .. . P7F : ... .. . ... : ... .. . ... ...
ROW 39 : ... .. . P7D ... ... : ... .. . ... ... ... : ... .. . P82 : ... .. . ... : ... .. . ... ...
ROW 3A : D#4 00 A P84 ... ... : --- .. . P80 ... ... : ... .. . P85 : ... .. 0 ... : ... .. . ... ...
ROW 3B : E-4 00 6 P7D ... ... : A-3 00 6 P7F ... ... : ... .. . P82 : ... .. 7 ... : ... .. . ... ...
ROW 3C : ... .. . P80 ... ... : ... .. . ... ... ... : ... .. . P7F : ... .. . ... : ... .. . ... ...
ROW 3D : ... .. . P83 ... ... : ... .. . ... ... ... : ... .. . P7C : ... .. 4 ... : ... .. . ... ...
ROW 3E : F-4 00 6 P7C ... ... : ... .. . ... ... ... : ... .. . P79 : ... .. . ... : ... .. . ... ...
ROW 3F : E-4 00 6 P83 ... ... : ... .. . ... ... ... : ... .. . P7C : ... .. . ... : ... .. . ... ...
ROW 40 : --- .. 0 P80 ... ... : --- .. 0 P80 ... ... : --- .. . P80 : ... .. 0 ... : ... .. . ... ...
ROW 41 : F-4 00 A P7F ... ... : D-3 00 6 P7F ... ... : D-2 00 . P7C : ... .. 7 ... : ... .. . ... ...
ROW 42 : ... .. . ... ... ... : ... .. . ... ... ... : ... .. . P79 : ... .. . ... : ... .. . ... ...
ROW 43 : ... .. . ... ... ... : ... .. . ... ... ... : ... .. . P7C : ... .. 4 ... : ... .. . ... ...
ROW 44 : ... .. . ... ... ... : ... .. . ... ... ... : ... .. . P7F : ... .. . ... : ... .. . ... ...
ROW 45 : ... .. . ... ... ... : ... .. . ... ... ... : ... .. . P82 : ... .. . ... : ... .. . ... ...
ROW 46 : --- .. 0 P80 ... ... : --- .. 0 P80 ... ... : ... .. . P85 : ... .. 1 ... : ... .. . ... ...
ROW 47 : ... .. . ... ... ... : D-3 00 6 P7F ... ... : ... .. . P82 : ... .. . ... : ... .. . ... ...
ROW 48 : ... .. . ... ... ... : ... .. . ... ... ... : ... .. . P7F : ... .. . ... : ... .. . ... ...
ROW 49 : ... .. . ... ... ... : ... .. . ... ... ... : ... .. . P7C : ... .. 0 ... : ... .. . ... ...
ROW 4A : ... .. . ... ... ... : ... .. . ... ... ... : ... .. . P79 : ... .. . ... : ... .. . ... ...
ROW 4B : ... .. . ... ... ... : ... .. . ... ... ... : ... .. . P7C : ... .. . ... : ... .. . ... ...
ROW 4C : --- .. . P80 ... ... : --- .. 0 P80 ... ... : --- .. . P80 : ... .. . ... : ... .. . ... ...
ROW 4D : ... .. . ... ... ... : A-2 00 6 P7F ... ... : D-2 00 . P7C : ... .. 7 ... : ... .. . ... ...
ROW 4E : ... .. . ... ... ... : ... .. . ... ... ... : ... .. . P79 : ... .. . ... : ... .. . ... ...
ROW 4F : ... .. . ... ... ... : ... .. . ... ... ... : ... .. . P7C : ... .. 4 ... : ... .. . ... ...
ROW 50 : ... .. . ... ... ... : ... .. . ... ... ... : ... .. . P7F : ... .. . ... : ... .. . ... ...
ROW 51 : ... .. . ... ... ... : ... .. . ... ... ... : ... .. . P82 : ... .. . ... : ... .. . ... ...
ROW 52 : ... .. . ... ... ... : --- .. 0 P80 ... ... : ... .. . P85 : ... .. 0 ... : ... .. . ... ...
ROW 53 : ... .. . ... ... ... : C-3 00 6 ... ... ... : ... .. . P82 : ... .. 7 ... : ... .. . ... ...
ROW 54 : ... .. . ... ... ... : ... .. . ... ... ... : ... .. . P7F : ... .. . ... : ... .. . ... ...
ROW 55 : ... .. . ... ... ... : ... .. . ... ... ... : ... .. . P7C : ... .. 4 ... : ... .. . ... ...
ROW 56 : ... .. . ... ... ... : ... .. . ... ... ... : ... .. . P79 : ... .. . ... : ... .. . ... ...
ROW 57 : ... .. . ... ... ... : ... .. . ... ... ... : ... .. . P7C : ... .. . ... : ... .. . ... ...
ROW 58 : --- .. . P80 ... ... : --- .. 0 ... ... ... : --- .. . P80 : ... .. 0 ... : ... .. . ... ...
ROW 59 : ... .. . ... ... ... : ... .. . ... ... ... : A-2 00 . P7C : ... .. 7 ... : ... .. . ... ...
ROW 5A : ... .. . ... ... ... : ... .. . ... ... ... : ... .. . P79 : ... .. . ... : ... .. . ... ...
ROW 5B : ... .. . ... ... ... : ... .. . ... ... ... : ... .. . P7C : ... .. 4 ... : ... .. . ... ...
ROW 5C : ... .. . ... ... ... : ... .. . ... ... ... : ... .. . P7F : ... .. . ... : ... .. . ... ...
ROW 5D : ... .. . ... ... ... : ... .. . ... ... ... : ... .. . P82 : ... .. . ... : ... .. . ... ...
ROW 5E : ... .. . ... ... ... : --- .. . P80 ... ... : --- .. . P80 : ... .. 1 ... : ... .. . ... ...
ROW 5F : ... .. . ... ... ... : D-3 00 6 P7F ... ... : A-2 00 . P7C : ... .. . ... : ... .. . ... ...
ROW 60 : ... .. . ... ... ... : ... .. . ... ... ... : ... .. . P79 : ... .. . ... : ... .. . ... ...
ROW 61 : ... .. . ... ... ... : ... .. . ... ... ... : ... .. . P7C : ... .. 0 ... : ... .. . ... ...
ROW 62 : ... .. . ... ... ... : ... .. . ... ... ... : ... .. . P7F : ... .. . ... : ... .. . ... ...
ROW 63 : ... .. . ... ... ... : ... .. . ... ... ... : ... .. . P82 : ... .. . ... : ... .. . ... ...
ROW 64 : ... .. . ... ... ... : --- .. 0 P80 ... ... : ... .. . P85 : ... .. . ... : ... .. . ... ...
ROW 65 : ... .. . ... ... ... : A-2 00 6 P7F ... ... : ... .. . P82 : ... .. 7 ... : ... .. . ... ...
ROW 66 : ... .. . ... ... ... : ... .. . ... ... ... : ... .. . P7F : ... .. . ... : ... .. . ... ...
ROW 67 : ... .. . ... ... ... : ... .. . ... ... ... : ... .. . P7C : ... .. 4 ... : ... .. . ... ...
ROW 68 : ... .. . ... ... ... : ... .. . ... ... ... : ... .. . P79 : ... .. . ... : ... .. . ... ...
ROW 69 : ... .. . ... ... ... : ... .. . ... ... ... : ... .. . P7C : ... .. . ... : ... .. . ... ...
ROW 6A : ... .. . ... ... ... : --- .. 0 P80 ... ... : --- .. . P80 : ... .. 0 ... : ... .. . ... ...
ROW 6B : ... .. . ... ... ... : C-3 00 6 ... ... ... : A-2 00 . P7C : ... .. 7 ... : ... .. . ... ...
ROW 6C : ... .. . ... ... ... : ... .. . ... ... ... : ... .. . P79 : ... .. . ... : ... .. . ... ...
ROW 6D : ... .. . ... ... ... : ... .. . ... ... ... : ... .. . P7C : ... .. 4 ... : ... .. . ... ...
ROW 6E : ... .. . ... ... ... : ... .. . ... ... ... : ... .. . P7F : ... .. . ... : ... .. . ... ...
ROW 6F : ... .. . ... ... ... : ... .. . ... ... ... : ... .. . P82 : ... .. . ... : ... .. . ... ...
ROW 70 : --- .. . P80 ... ... : --- .. 0 ... ... ... : --- .. . P80 : ... .. 0 ... : ... .. . ... ...
ROW 71 : F-4 00 A P7F ... ... : ... .. . ... ... ... : D-2 00 . P7C : ... .. . ... : ... .. . ... ...
ROW 72 : ... .. . ... ... ... : ... .. . ... ... ... : ... .. . P79 : ... .. . ... : ... .. . ... ...
ROW 73 : ... .. . ... ... ... : ... .. . ... ... ... : ... .. . P7C : ... .. . ... : ... .. . ... ...
ROW 74 : ... .. . ... ... ... : ... .. . ... ... ... : ... .. . P7F : ... .. . ... : ... .. . ... ...
ROW 75 : ... .. . ... ... ... : ... .. . ... ... ... : ... .. . P82 : ... .. . ... : ... .. . ... ...
ROW 76 : --- .. 0 P80 ... ... : --- .. . P80 ... ... : --- .. . P80 : ... .. . ... : === 00 . ... ...
ROW 77 : G-4 00 A ... ... ... : D-3 00 6 P7F ... ... : D-2 00 . P7C : ... .. 7 ... : ... .. . ... ...
ROW 78 : ... .. . ... ... ... : ... .. . ... ... ... : ... .. . P79 : ... .. . ... : ... .. . ... ...
ROW 79 : ... .. . ... ... ... : ... .. . ... ... ... : ... .. . P7C : ... .. 4 ... : ... .. . ... ...
ROW 7A : ... .. . ... ... ... : ... .. . ... ... ... : ... .. . P7F : ... .. . ... : ... .. . ... ...
ROW 7B : ... .. . ... ... ... : ... .. . ... ... ... : ... .. . P82 : ... .. . ... : ... .. . ... ...
ROW 7C : --- .. 0 ... ... ... : --- .. 0 P80 ... ... : ... .. . P85 : ... .. 0 ... : ... .. . ... ...
ROW 7D : ... .. . ... ... ... : A-2 00 6 P7F ... ... : ... .. . P82 : ... .. 7 ... : ... .. . ... ...
ROW 7E : ... .. . ... ... ... : ... .. . ... ... ... : ... .. . P7F : ... .. . ... : ... .. . ... ...
ROW 7F : ... .. . ... ... ... : ... .. . ... ... ... : ... .. . P7C : ... .. 4 ... : ... .. . ... ...
ROW 80 : ... .. . ... ... ... : ... .. . ... ... ... : ... .. . P79 : ... .. . ... : ... .. . ... ...
ROW 81 : ... .. . ... ... ... : ... .. . ... ... ... : ... .. . P7C : ... .. . ... : ... .. . ... ...
ROW 82 : --- .. . P80 ... ... : --- .. 0 P80 ... ... : --- .. . P80 : ... .. 0 ... : ... .. . ... ...
ROW 83 : F-4 00 A P7F ... ... : C-3 00 6 ... ... ... : D-2 00 . P7C : ... .. 7 ... : ... .. . ... ...
ROW 84 : ... .. . ... ... ... : ... .. . ... ... ... : ... .. . P79 : ... .. . ... : ... .. . ... ...
ROW 85 : ... .. . ... ... ... : ... .. . ... ... ... : ... .. . P7C : ... .. 4 ... : ... .. . ... ...
ROW 86 : ... .. . ... ... ... : ... .. . ... ... ... : ... .. . P7F : ... .. . ... : ... .. . ... ...
ROW 87 : ... .. . ... ... ... : ... .. . ... ... ... : ... .. . P82 : ... .. . ... : ... .. . ... ...
ROW 88 : --- .. 0 P80 ... ... : --- .. 0 ... ... ... : --- .. . P80 : ... .. 0 ... : ... .. . ... ...
ROW 89 : ... .. . ... ... ... : D-3 00 6 P7F ... ... : A-2 00 . P7C : ... .. 7 ... : ... .. . ... ...
ROW 8A : ... .. . ... ... ... : ... .. . ... ... ... : ... .. . P79 : ... .. . ... : ... .. . ... ...
ROW 8B : ... .. . ... ... ... : ... .. . ... ... ... : ... .. . P7C : ... .. 4 ... : ... .. . ... ...
ROW 8C : ... .. . ... ... ... : ... .. . ... ... ... : ... .. . P7F : ... .. . ... : ... .. . ... ...
ROW 8D : ... .. . ... ... ... : ... .. . ... ... ... : ... .. . P82 : ... .. . ... : ... .. . ... ...
ROW 8E : --- .. . P80 ... ... : --- .. 0 P80 ... ... : ... .. . P85 : ... .. 1 ... : ... .. . ... ...
ROW 8F : E-4 00 A ... ... ... : D-3 00 6 P7F ... ... : ... .. . P82 : ... .. . ... : ... .. . ... ...
ROW 90 : ... .. . ... ... ... : ... .. . ... ... ... : ... .. . P7F : ... .. . ... : ... .. . ... ...
ROW 91 : ... .. . ... ... ... : ... .. . ... ... ... : ... .. . P7C : ... .. 0 ... : ... .. . ... ...
ROW 92 : ... .. . ... ... ... : ... .. . ... ... ... : ... .. . P79 : ... .. . ... : ... .. . ... ...
ROW 93 : ... .. . ... ... ... : ... .. . ... ... ... : ... .. . P7C : ... .. . ... : ... .. . ... ...
ROW 94 : --- .. 0 ... ... ... : --- .. 0 P80 ... ... : --- .. . P80 : ... .. . ... : ... .. . ... ...
ROW 95 : ... .. . ... ... ... : ... .. . ... ... ... : D-2 00 . P7C : ... .. 7 ... : ... .. . ... ...
ROW 96 : ... .. . ... ... ... : ... .. . ... ... ... : ... .. . P79 : ... .. . ... : ... .. . ... ...
ROW 97 : ... .. . ... ... ... : ... .. . ... ... ... : ... .. . P7C : ... .. 4 ... : ... .. . ... ...
ROW 98 : ... .. . ... ... ... : ... .. . ... ... ... : ... .. . P7F : ... .. . ... : ... .. . ... ...
ROW 99 : ... .. . ... ... ... : ... .. . ... ... ... : ... .. . P82 : ... .. . ... : ... .. . ... ...
ROW 9A : --- .. . P80 ... ... : --- .. . P80 ... ... : ... .. . P85 : ... .. 1 ... : ... .. . ... ...
ROW 9B : D-4 00 A P7F ... ... : D-3 00 6 P7F ... ... : ... .. . P82 : ... .. . ... : ... .. . ... ...
ROW 9C : ... .. . ... ... ... : ... .. . ... ... ... : ... .. . P7F : ... .. . ... : ... .. . ... ...
ROW 9D : ... .. . ... ... ... : ... .. . ... ... ... : ... .. . P7C : ... .. 0 ... : ... .. . ... ...
ROW 9E : ... .. . ... ... ... : ... .. . ... ... ... : ... .. . P79 : ... .. . ... : ... .. . ... ...
ROW 9F : ... .. . ... ... ... : ... .. . ... ... ... : ... .. . P7C : ... .. . ... : ... .. . ... ...
ROW A0 : --- .. 0 P80 ... ... : --- .. 0 P80 ... ... : --- .. . P80 : ... .. . ... : ... .. . ... ...
ROW A1 : E-4 00 A ... ... ... : A-3 00 6 P7F ... ... : A-2 00 . P7C : ... .. 7 ... : ... .. . ... ...
ROW A2 : ... .. . ... ... ... : ... .. . ... ... ... : ... .. . P79 : ... .. . ... : ... .. . ... ...
ROW A3 : ... .. . ... ... ... : ... .. . ... ... ... : ... .. . P7C : ... .. 4 ... : ... .. . ... ...
ROW A4 : ... .. . ... ... ... : ... .. . ... ... ... : ... .. . P7F : ... .. . ... : ... .. . ... ...
ROW A5 : ... .. . ... ... ... : ... .. . ... ... ... : ... .. . P82 : ... .. . ... : ... .. . ... ...
ROW A6 : --- .. 0 ... ... ... : --- .. 0 P80 ... ... : ... .. . P85 : ... .. 1 ... : ... .. . ... ...
ROW A7 : ... .. . ... ... ... : A-3 00 6 P7F ... ... : ... .. . P82 : ... .. . ... : ... .. . ... ...
ROW A8 : ... .. . ... ... ... : ... .. . ... ... ... : ... .. . P7F : ... .. . ... : ... .. . ... ...
ROW A9 : ... .. . ... ... ... : ... .. . ... ... ... : ... .. . P7C : ... .. 0 ... : ... .. . ... ...
ROW AA : ... .. . ... ... ... : ... .. . ... ... ... : ... .. . P79 : ... .. . ... : ... .. . ... ...
ROW AB : ... .. . ... ... ... : ... .. . ... ... ... : ... .. . P7C : ... .. . ... : ... .. . ... ...
ROW AC : --- .. . P80 ... ... : --- .. 0 P80 ... ... : --- .. . P80 : ... .. . ... : ... .. . ... ...
ROW AD : ... .. . ... ... ... : E-3 00 6 P7F ... ... : A-2 00 . P7C : ... .. 7 ... : ... .. . ... ...
ROW AE : ... .. . ... ... ... : ... .. . ... ... ... : ... .. . P79 : ... .. . ... : ... .. . ... ...
ROW AF : ... .. . ... ... ... : ... .. . ... ... ... : ... .. . P7C : ... .. 4 ... : ... .. . ... ...
ROW B0 : ... .. . ... ... ... : ... .. . ... ... ... : ... .. . P7F : ... .. . ... : ... .. . ... ...
ROW B1 : ... .. . ... ... ... : ... .. . ... ... ... : ... .. . P82 : ... .. . ... : ... .. . ... ...
ROW B2 : ... .. . ... ... ... : --- .. 0 P80 ... ... : ... .. . P85 : ... .. 0 ... : ... .. . ... ...
ROW B3 : ... .. . ... ... ... : G-3 00 6 P7F ... ... : ... .. . P82 : ... .. 7 ... : ... .. . ... ...
ROW B4 : ... .. . ... ... ... : ... .. . ... ... ... : ... .. . P7F : ... .. . ... : ... .. . ... ...
ROW B5 : ... .. . ... ... ... : ... .. . ... ... ... : ... .. . P7C : ... .. 4 ... : ... .. . ... ...
ROW B6 : ... .. . ... ... ... : ... .. . ... ... ... : ... .. . P79 : ... .. . ... : ... .. . ... ...
ROW B7 : ... .. . ... ... ... : ... .. . ... ... ... : ... .. . P7C : ... .. . ... : ... .. . ... ...
ROW B8 : --- .. . P80 ... ... : --- .. 0 P80 ... ... : --- .. . P80 : ... .. 0 ... : ... .. . ... ...
ROW B9 : ... .. . ... ... ... : ... .. . ... ... ... : E-3 00 . P7C : ... .. 7 ... : ... .. . ... ...
ROW BA : ... .. . ... ... ... : ... .. . ... ... ... : ... .. . P79 : ... .. . ... : ... .. . ... ...
ROW BB : ... .. . ... ... ... : ... .. . ... ... ... : ... .. . P7C : ... .. 4 ... : ... .. . ... ...
ROW BC : ... .. . ... ... ... : ... .. . ... ... ... : ... .. . P7F : ... .. . ... : ... .. . ... ...
ROW BD : ... .. . ... ... ... : ... .. . ... ... ... : ... .. . P82 : ... .. . ... : ... .. . ... ...
ROW BE : ... .. . ... ... ... : --- .. . P80 ... ... : --- .. . P80 : ... .. 1 ... : ... .. . ... ...
ROW BF : ... .. . ... ... ... : A-3 00 6 P7F ... ... : E-3 00 . P7C : ... .. . ... : ... .. . ... ...
ROW C0 : ... .. . ... ... ... : ... .. . ... ... ... : ... .. . P79 : ... .. . ... : ... .. . ... ...
ROW C1 : ... .. . ... ... ... : ... .. . ... ... ... : ... .. . P7C : ... .. 0 ... : ... .. . ... ...
ROW C2 : ... .. . ... ... ... : ... .. . ... ... ... : ... .. . P7F : ... .. . ... : ... .. . ... ...
ROW C3 : ... .. . ... ... ... : ... .. . ... ... ... : ... .. . P82 : ... .. . ... : ... .. . ... ...
ROW C4 : ... .. . ... ... ... : --- .. 0 P80 ... ... : ... .. . P85 : ... .. . ... : ... .. . ... ...
ROW C5 : ... .. . ... ... ... : E-3 00 6 P7F ... ... : ... .. . P82 : ... .. 7 ... : ... .. . ... ...
ROW C6 : ... .. . ... ... ... : ... .. . ... ... ... : ... .. . P7F : ... .. . ... : ... .. . ... ...
ROW C7 : ... .. . ... ... ... : ... .. . ... ... ... : ... .. . P7C : ... .. 4 ... : ... .. . ... ...
ROW C8 : ... .. . ... ... ... : ... .. . ... ... ... : ... .. . P79 : ... .. . ... : ... .. . ... ...
ROW C9 : ... .. . ... ... ... : ... .. . ... ... ... : ... .. . P7C : ... .. . ... : ... .. . ... ...
ROW CA : ... .. . ... ... ... : --- .. 0 P80 ... ... : --- .. . P80 : ... .. 0 ... : ... .. . ... ...
ROW CB : ... .. . ... ... ... : G-3 00 6 P7F ... ... : E-3 00 . P7C : ... .. 7 ... : ... .. . ... ...
ROW CC : ... .. . ... ... ... : ... .. . ... ... ... : ... .. . P79 : ... .. . ... : ... .. . ... ...
ROW CD : ... .. . ... ... ... : ... .. . ... ... ... : ... .. . P7C : ... .. 4 ... : ... .. . ... ...
ROW CE : ... .. . ... ... ... : ... .. . ... ... ... : ... .. . P7F : ... .. . ... : ... .. . ... ...
ROW CF : ... .. . ... ... ... : ... .. . ... ... ... : ... .. . P82 : ... .. . ... : ... .. . ... ...
ROW D0 : --- .. . P80 ... ... : --- .. 0 P80 ... ... : --- .. . P80 : ... .. 0 ... : ... .. . ... ...
ROW D1 : E-4 00 A ... ... ... : ... .. . ... ... ... : A-2 00 . P7C : ... .. . ... : ... .. . ... ...
ROW D2 : ... .. . ... ... ... : ... .. . ... ... ... : ... .. . P79 : ... .. . ... : ... .. . ... ...
ROW D3 : ... .. . ... ... ... : ... .. . ... ... ... : ... .. . P7C : ... .. . ... : ... .. . ... ...
ROW D4 : ... .. . ... ... ... : ... .. . ... ... ... : ... .. . P7F : ... .. . ... : ... .. . ... ...
ROW D5 : ... .. . ... ... ... : ... .. . ... ... ... : ... .. . P82 : ... .. . ... : ... .. . ... ...
ROW D6 : --- .. 0 ... ... ... : --- .. . P80 ... ... : --- .. . P80 : ... .. . ... : === 00 . ... ...
ROW D7 : F-4 00 A P7F ... ... : A-3 00 6 P7F ... ... : A-2 00 . P7C : ... .. 7 ... : ... .. . ... ...
ROW D8 : ... .. . ... ... ... : ... .. . ... ... ... : ... .. . P79 : ... .. . ... : ... .. . ... ...
ROW D9 : ... .. . ... ... ... : ... .. . ... ... ... : ... .. . P7C : ... .. 4 ... : ... .. . ... ...
ROW DA : ... .. . ... ... ... : ... .. . ... ... ... : ... .. . P7F : ... .. . ... : ... .. . ... ...
ROW DB : ... .. . ... ... ... : ... .. . ... ... ... : ... .. . P82 : ... .. . ... : ... .. . ... ...
ROW DC : --- .. 0 P80 ... ... : --- .. 0 P80 ... ... : ... .. . P85 : ... .. 0 ... : ... .. . ... ...
ROW DD : ... .. . ... ... ... : E-3 00 6 P7F ... ... : ... .. . P82 : ... .. 7 ... : ... .. . ... ...
ROW DE : ... .. . ... ... ... : ... .. . ... ... ... : ... .. . P7F : ... .. . ... : ... .. . ... ...
ROW DF : ... .. . ... ... ... : ... .. . ... ... ... : ... .. . P7C : ... .. 4 ... : ... .. . ... ...
ROW E0 : ... .. . ... ... ... : ... .. . ... ... ... : ... .. . P79 : ... .. . ... : ... .. . ... ...
ROW E1 : ... .. . ... ... ... : ... .. . ... ... ... : ... .. . P7C : ... .. . ... : ... .. . ... ...
ROW E2 : --- .. . P80 ... ... : --- .. 0 P80 ... ... : --- .. . P80 : ... .. 0 ... : ... .. . ... ...
ROW E3 : E-4 00 A ... ... ... : G-3 00 6 P7F ... ... : A-2 00 . P7C : ... .. 7 ... : ... .. . ... ...
ROW E4 : ... .. . ... ... ... : ... .. . ... ... ... : ... .. . P79 : ... .. . ... : ... .. . ... ...
ROW E5 : ... .. . ... ... ... : ... .. . ... ... ... : ... .. . P7C : ... .. 4 ... : ... .. . ... ...
ROW E6 : ... .. . ... ... ... : ... .. . ... ... ... : ... .. . P7F : ... .. . ... : ... .. . ... ...
ROW E7 : ... .. . ... ... ... : ... .. . ... ... ... : ... .. . P82 : ... .. . ... : ... .. . ... ...
ROW E8 : --- .. 0 ... ... ... : --- .. 0 P80 ... ... : --- .. . P80 : ... .. 0 ... : ... .. . ... ...
ROW E9 : ... .. . ... ... ... : A-3 00 6 P7F ... ... : E-3 00 . P7C : ... .. 7 ... : ... .. . ... ...
ROW EA : ... .. . ... ... ... : ... .. . ... ... ... : ... .. . P79 : ... .. . ... : ... .. . ... ...
ROW EB : ... .. . ... ... ... : ... .. . ... ... ... : ... .. . P7C : ... .. 4 ... : ... .. . ... ...
ROW EC : ... .. . ... ... ... : ... .. . ... ... ... : ... .. . P7F : ... .. . ... : ... .. . ... ...
ROW ED : ... .. . ... ... ... : ... .. . ... ... ... : ... .. . P82 : ... .. . ... : ... .. . ... ...
ROW EE : --- .. . P80 ... ... : --- .. 0 P80 ... ... : ... .. . P85 : ... .. 0 ... : ... .. . ... ...
ROW EF : D-4 00 A P7F ... ... : A-3 00 6 P7F ... ... : ... .. . P82 : ... .. 7 ... : ... .. . ... ...
ROW F0 : ... .. . ... ... ... : ... .. . ... ... ... : ... .. . P7F : ... .. . ... : ... .. . ... ...
ROW F1 : ... .. . ... ... ... : ... .. . ... ... ... : ... .. . P7C : ... .. 4 ... : ... .. . ... ...
ROW F2 : ... .. . ... ... ... : ... .. . ... ... ... : ... .. . P79 : ... .. . ... : ... .. . ... ...
ROW F3 : ... .. . ... ... ... : ... .. . ... ... ... : ... .. . P7C : ... .. . ... : ... .. . ... ...
ROW F4 : --- .. 0 P80 ... ... : --- .. 0 P80 ... ... : --- .. . P80 : ... .. 0 ... : ... .. . ... ...
ROW F5 : ... .. . ... ... ... : ... .. . ... ... ... : E-2 00 . P7C : ... .. 7 ... : ... .. . ... ...
ROW F6 : ... .. . ... ... ... : ... .. . ... ... ... : ... .. . P79 : ... .. . ... : ... .. . ... ...
ROW F7 : ... .. . ... ... ... : ... .. . ... ... ... : ... .. . P7C : ... .. 4 ... : ... .. . ... ...
ROW F8 : ... .. . ... ... ... : ... .. . ... ... ... : ... .. . P7F : ... .. . ... : ... .. . ... ...
ROW F9 : ... .. . ... ... ... : ... .. . ... ... ... : ... .. . P82 : ... .. . ... : ... .. . ... ...
ROW FA : --- .. . P80 ... ... : --- .. . P80 ... ... : ... .. . P85 : ... .. 0 ... : ... .. . ... ...
ROW FB : C-4 00 A ... ... ... : A-3 00 6 P7F ... ... : ... .. . P82 : ... .. 7 ... : ... .. . ... ...
ROW FC : ... .. . ... ... ... : ... .. . ... ... ... : ... .. . P7F : ... .. . ... : ... .. . ... ...
ROW FD : ... .. . ... ... ... : ... .. . ... ... ... : ... .. . P7C : ... .. 4 ... : ... .. . ... ...
ROW FE : ... .. . ... ... ... : ... .. . ... ... ... : ... .. . P79 : ... .. . ... : ... .. . ... ...
ROW FF : ... .. . ... ... ... : ... .. . ... ... ... : ... .. . P7C : ... .. . ... : ... .. . ... ...

PATTERN 0C
ROW 00 : --- .. 0 ... ... ... : --- .. 0 P80 ... ... : --- .. . P80 : ... .. 0 ... : ... .. . ... ...
ROW 01 : D#4 00 A ... ... ... : B-2 00 6 P7F ... ... : F#2 00 . P7C : ... .. 7 ... : ... .. . ... ...
ROW 02 : ... .. . ... ... ... : ... .. . ... ... ... : ... .. . P79 : ... .. . ... : ... .. . ... ...
ROW 03 : ... .. . ... ... ... : ... .. . ... ... ... : ... .. . P7C : ... .. 4 ... : ... .. . ... ...
ROW 04 : ... .. . ... ... ... : ... .. . ... ... ... : ... .. . P7F : ... .. . ... : ... .. . ... ...
ROW 05 : ... .. . ... ... ... : ... .. . ... ... ... : ... .. . P82 : ... .. . ... : ... .. . ... ...
ROW 06 : ... .. . ... ... ... : --- .. 0 P80 ... ... : ... .. . P85 : ... .. 1 ... : ... .. . ... ...
ROW 07 : ... .. . ... ... ... : B-2 00 6 P7F ... ... : ... .. . P82 : ... .. . ... : ... .. . ... ...
ROW 08 : ... .. . ... ... ... : ... .. . ... ... ... : ... .. . P7F : ... .. . ... : ... .. . ... ...
ROW 09 : ... .. . ... ... ... : ... .. . ... ... ... : ... .. . P7C : ... .. 0 ... : ... .. . ... ...
ROW 0A : ... .. . ... ... ... : ... .. . ... ... ... : ... .. . P79 : ... .. . ... : ... .. . ... ...
ROW 0B : ... .. . ... ... ... : ... .. . ... ... ... : ... .. . P7C : ... .. . ... : ... .. . ... ...
ROW 0C : --- .. 0 ... ... ... : --- .. 0 P80 ... ... : --- .. . P80 : ... .. . ... : ... .. . ... ...
ROW 0D : ... .. . ... ... ... : F#2 00 6 P7F ... ... : F#2 00 . P7C : ... .. 7 ... : ... .. . ... ...
ROW 0E : ... .. . ... ... ... : ... .. . ... ... ... : ... .. . P79 : ... .. . ... : ... .. . ... ...
ROW 0F : ... .. . ... ... ... : ... .. . ... ... ... : ... .. . P7C : ... .. 4 ... : ... .. . ... ...
ROW 10 : ... .. . ... ... ... : ... .. . ... ... ... : ... .. . P7F : ... .. . ... : ... .. . ... ...
ROW 11 : ... .. . ... ... ... : ... .. . ... ... ... : ... .. . P82 : ... .. . ... : ... .. . ... ...
ROW 12 : ... .. . ... ... ... : --- .. 0 P80 ... ... : ... .. . P85 : ... .. 0 ... : ... .. . ... ...
ROW 13 : ... .. . ... ... ... : A-2 00 6 P7F ... ... : ... .. . P82 : ... .. 7 ... : ... .. . ... ...
ROW 14 : ... .. . ... ... ... : ... .. . ... ... ... : ... .. . P7F : ... .. . ... : ... .. . ... ...
ROW 15 : ... .. . ... ... ... : ... .. . ... ... ... : ... .. . P7C : ... .. 4 ... : ... .. . ... ...
ROW 16 : ... .. . ... ... ... : ... .. . ... ... ... : ... .. . P79 : ... .. . ... : ... .. . ... ...
ROW 17 : ... .. . ... ... ... : ... .. . ... ... ... : ... .. . P7C : ... .. . ... : ... .. . ... ...
ROW 18 : ... .. . ... ... ... : --- .. 0 P80 ... ... : --- .. . P80 : ... .. 0 ... : ... .. . ... ...
ROW 19 : ... .. . ... ... ... : ... .. . ... ... ... : D#3 00 . P7D : ... .. 7 ... : ... .. . ... ...
ROW 1A : ... .. . ... ... ... : ... .. . ... ... ... : ... .. . P7A : ... .. . ... : ... .. . ... ...
ROW 1B : ... .. . ... ... ... : ... .. . ... ... ... : ... .. . P7D : ... .. 4 ... : ... .. . ... ...
ROW 1C : ... .. . ... ... ... : ... .. . ... ... ... : ... .. . P80 : ... .. . ... : ... .. . ... ...
ROW 1D : ... .. . ... ... ... : ... .. . ... ... ... : ... .. . P83 : ... .. . ... : ... .. . ... ...
ROW 1E : ... .. . ... ... ... : --- .. . P80 ... ... : --- .. . P80 : ... .. 1 ... : ... .. . ... ...
ROW 1F : ... .. . ... ... ... : B-2 00 6 P7F ... ... : D#3 00 . P7D : ... .. . ... : ... .. . ... ...
ROW 20 : ... .. . ... ... ... : ... .. . ... ... ... : ... .. . P7A : ... .. . ... : ... .. . ... ...
ROW 21 : ... .. . ... ... ... : ... .. . ... ... ... : ... .. . P7D : ... .. 0 ... : ... .. . ... ...
ROW 22 : ... .. . ... ... ... : ... .. . ... ... ... : ... .. . P80 : ... .. . ... : ... .. . ... ...
ROW 23 : ... .. . ... ... ... : ... .. . ... ... ... : ... .. . P83 : ... .. . ... : ... .. . ... ...
ROW 24 : --- .. . P80 ... ... : --- .. 0 P80 ... ... : ... .. . P86 : ... .. . ... : ... .. . ... ...
ROW 25 : B-3 00 A P7F ... ... : F#2 00 6 P7F ... ... : ... .. . P83 : ... .. 7 ... : ... .. . ... ...
ROW 26 : ... .. . ... ... ... : ... .. . ... ... ... : ... .. . P80 : ... .. . ... : ... .. . ... ...
ROW 27 : ... .. . ... ... ... : ... .. . ... ... ... : ... .. . P7D : ... .. 4 ... : ... .. . ... ...
ROW 28 : ... .. . ... ... ... : ... .. . ... ... ... : ... .. . P7A : ... .. . ... : ... .. . ... ...
ROW 29 : ... .. . ... ... ... : ... .. . ... ... ... : ... .. . P7D : ... .. . ... : ... .. . ... ...
ROW 2A : ... .. . ... ... ... : --- .. 0 P80 ... ... : --- .. . P80 : ... .. 0 ... : ... .. . ... ...
ROW 2B : ... .. . ... ... ... : A-2 00 6 P7F ... ... : D#3 00 . P7D : ... .. 7 ... : ... .. . ... ...
ROW 2C : ... .. . ... ... ... : ... .. . ... ... ... : ... .. . P7A : ... .. . ... : ... .. . ... ...
ROW 2D : ... .. . ... ... ... : ... .. . ... ... ... : ... .. . P7D : ... .. 4 ... : ... .. . ... ...
ROW 2E : ... .. . ... ... ... : ... .. . ... ... ... : ... .. . P80 : ... .. . ... : ... .. . ... ...
ROW 2F : ... .. . ... ... ... : ... .. . ... ... ... : ... .. . P83 : ... .. . ... : ... .. . ... ...
ROW 30 : ... .. . ... ... ... : --- .. 0 P80 ... ... : --- .. . P80 : ... .. 0 ... : ... .. . ... ...
ROW 31 : B-3 00 A P7F ... ... : ... .. . ... ... ... : F#2 00 . P7C : ... .. . ... : ... .. . ... ...
ROW 32 : ... .. . ... ... ... : ... .. . ... ... ... : ... .. . P79 : ... .. . ... : ... .. . ... ...
ROW 33 : ... .. . ... ... ... : ... .. . ... ... ... : ... .. . P7C : ... .. . ... : ... .. . ... ...
ROW 34 : ... .. . ... ... ... : ... .. . ... ... ... : ... .. . P7F : ... .. . ... : ... .. . ... ...
ROW 35 : ... .. . ... ... ... : ... .. . ... ... ... : ... .. . P82 : ... .. . ... : ... .. . ... ...
ROW 36 : ... .. . ... ... ... : --- .. . P80 ... ... : --- .. . P80 : ... .. . ... : === 00 . ... ...
ROW 37 : ... .. . ... ... ... : B-2 00 6 P7F ... ... : F#2 00 . P7C : ... .. 7 ... : ... .. . ... ...
ROW 38 : ... .. . ... ... ... : ... .. . ... ... ... : ... .. . P79 : ... .. . ... : ... .. . ... ...
ROW 39 : ... .. . ... ... ... : ... .. . ... ... ... : ... .. . P7C : ... .. 4 ... : ... .. . ... ...
ROW 3A : ... .. . ... ... ... : ... .. . ... ... ... : ... .. . P7F : ... .. . ... : ... .. . ... ...
ROW 3B : ... .. . ... ... ... : ... .. . ... ... ... : ... .. . P82 : ... .. . ... : ... .. . ... ...
ROW 3C : --- .. 0 P80 ... ... : --- .. 0 P80 ... ... : ... .. . P85 : ... .. 0 ... : ... .. . ... ...
ROW 3D : B-3 00 A P7F ... ... : F#2 00 6 P7F ... ... : ... .. . P82 : ... .. 7 ... : ... .. . ... ...
ROW 3E : ... .. . ... ... ... : ... .. . ... ... ... : ... .. . P7F : ... .. . ... : ... .. . ... ...
ROW 3F : ... .. . ... ... ... : ... .. . ... ... ... : ... .. . P7C : ... .. 4 ... : ... .. . ... ...
ROW 40 : ... .. . ... ... ... : ... .. . ... ... ... : ... .. . P79 : ... .. . ... : ... .. . ... ...
ROW 41 : ... .. . ... ... ... : ... .. . ... ... ... : ... .. . P7C : ... .. . ... : ... .. . ... ...
ROW 42 : ... .. . ... ... ... : --- .. 0 P80 ... ... : --- .. . P80 : ... .. 0 ... : ... .. . ... ...
ROW 43 : ... .. . ... ... ... : A-2 00 6 P7F ... ... : F#2 00 . P7C : ... .. 7 ... : ... .. . ... ...
ROW 44 : ... .. . ... ... ... : ... .. . ... ... ... : ... .. . P79 : ... .. . ... : ... .. . ... ...
ROW 45 : ... .. . ... ... ... : ... .. . ... ... ... : ... .. . P7C : ... .. 4 ... : ... .. . ... ...
ROW 46 : ... .. . ... ... ... : ... .. . ... ... ... : ... .. . P7F : ... .. . ... : ... .. . ... ...
ROW 47 : ... .. . ... ... ... : ... .. . ... ... ... : ... .. . P82 : ... .. . ... : ... .. . ... ...
ROW 48 : --- .. 0 P80 ... ... : --- .. 0 P80 ... ... : --- .. . P80 : ... .. 0 ... : ... .. . ... ...
ROW 49 : C#4 00 A ... ... ... : B-2 00 6 P7F ... ... : D#3 00 . P7D : ... .. 7 ... : ... .. . ... ...
ROW 4A : ... .. . ... ... ... : ... .. . ... ... ... : ... .. . P7A : ... .. . ... : ... .. . ... ...
ROW 4B : ... .. . ... ... ... : ... .. . ... ... ... : ... .. . P7D : ... .. 4 ... : ... .. . ... ...
ROW 4C : ... .. . ... ... ... : ... .. . ... ... ... : ... .. . P80 : ... .. . ... : ... .. . ... ...
ROW 4D : ... .. . ... ... ... : ... .. . ... ... ... : ... .. . P83 : ... .. . ... : ... .. . ... ...
ROW 4E : ... .. . ... ... ... : --- .. 0 P80 ... ... : ... .. . P86 : ... .. 1 ... : ... .. . ... ...
ROW 4F : ... .. . ... ... ... : B-2 00 6 P7F ... ... : ... .. . P83 : ... .. . ... : ... .. . ... ...
ROW 50 : ... .. . ... ... ... : ... .. . ... ... ... : ... .. . P80 : ... .. . ... : ... .. . ... ...
ROW 51 : ... .. . ... ... ... : ... .. . ... ... ... : ... .. . P7D : ... .. 0 ... : ... .. . ... ...
ROW 52 : ... .. . ... ... ... : ... .. . ... ... ... : ... .. . P7A : ... .. . ... : ... .. . ... ...
ROW 53 : ... .. . ... ... ... : ... .. . ... ... ... : ... .. . P7D : ... .. . ... : ... .. . ... ...
ROW 54 : --- .. 0 ... ... ... : --- .. 0 P80 ... ... : --- .. . P80 : ... .. . ... : ... .. . ... ...
ROW 55 : D#4 00 A ... ... ... : ... .. . ... ... ... : D#2 00 . P7C : ... .. 7 ... : ... .. . ... ...
ROW 56 : ... .. . ... ... ... : ... .. . ... ... ... : ... .. . P79 : ... .. . ... : ... .. . ... ...
ROW 57 : ... .. . ... ... ... : ... .. . ... ... ... : ... .. . P7C : ... .. 4 ... : ... .. . ... ...
ROW 58 : ... .. . ... ... ... : ... .. . ... ... ... : ... .. . P7F : ... .. . ... : ... .. . ... ...
ROW 59 : ... .. . ... ... ... : ... .. . ... ... ... : ... .. . P82 : ... .. . ... : ... .. . ... ...
ROW 5A : ... .. . ... ... ... : --- .. . P80 ... ... : ... .. . P85 : ... .. 1 ... : ... .. . ... ...
ROW 5B : ... .. . ... ... ... : B-2 00 6 P7F ... ... : ... .. . P82 : ... .. . ... : ... .. . ... ...
ROW 5C : ... .. . ... ... ... : ... .. . ... ... ... : ... .. . P7F : ... .. . ... : ... .. . ... ...
ROW 5D : ... .. . ... ... ... : ... .. . ... ... ... : ... .. . P7C : ... .. 0 ... : ... .. . ... ...
ROW 5E : ... .. . ... ... ... : ... .. . ... ... ... : ... .. . P79 : ... .. . ... : ... .. . ... ...
ROW 5F : ... .. . ... ... ... : ... .. . ... ... ... : ... .. . P7C : ... .. . ... : ... .. . ... ...
ROW 60 : --- .. 0 ... ... ... : --- .. 0 P80 ... ... : --- .. . P80 : ... .. . ... : ... .. . ... ...
ROW 61 : E-4 00 A ... ... ... : E-3 00 6 P7F ... ... : E-2 00 . P7C : ... .. 7 ... : ... .. . ... ...
ROW 62 : ... .. . ... ... ... : ... .. . ... ... ... : ... .. . P79 : ... .. . ... : ... .. . ... ...
ROW 63 : ... .. . ... ... ... : ... .. . ... ... ... : ... .. . P7C : ... .. 4 ... : ... .. . ... ...
ROW 64 : ... .. . ... ... ... : ... .. . ... ... ... : ... .. . P7F : ... .. . ... : ... .. . ... ...
ROW 65 : ... .. . ... ... ... : ... .. . ... ... ... : ... .. . P82 : ... .. . ... : ... .. . ... ...
ROW 66 : ... .. . ... ... ... : --- .. 0 P80 ... ... : ... .. . P85 : ... .. 1 ... : ... .. . ... ...
ROW 67 : ... .. . ... ... ... : E-3 00 6 P7F ... ... : ... .. . P82 : ... .. . ... : ... .. . ... ...
ROW 68 : ... .. . ... ... ... : ... .. . ... ... ... : ... .. . P7F : ... .. . ... : ... .. . ... ...
ROW 69 : ... .. . ... ... ... : ... .. . ... ... ... : ... .. . P7C : ... .. 0 ... : ... .. . ... ...
ROW 6A : ... .. . ... ... ... : ... .. . ... ... ... : ... .. . P79 : ... .. . ... : ... .. . ... ...
ROW 6B : ... .. . ... ... ... : ... .. . ... ... ... : ... .. . P7C : ... .. . ... : ... .. . ... ...
ROW 6C : ... .. . ... ... ... : --- .. 0 P80 ... ... : --- .. . P80 : ... .. . ... : ... .. . ... ...
ROW 6D : ... .. . ... ... ... : B-2 00 6 P7F ... ... : E-2 00 . P7C : ... .. 7 ... : ... .. . ... ...
ROW 6E : ... .. . ... ... ... : ... .. . ... ... ... : ... .. . P79 : ... .. . ... : ... .. . ... ...
ROW 6F : ... .. . ... ... ... : ... .. . ... ... ... : ... .. . P7C : ... .. 4 ... : ... .. . ... ...
ROW 70 : ... .. . ... ... ... : ... .. . ... ... ... : ... .. . P7F : ... .. . ... : ... .. . ... ...
ROW 71 : ... .. . ... ... ... : ... .. . ... ... ... : ... .. . P82 : ... .. . ... : ... .. . ... ...
ROW 72 : ... .. . ... ... ... : --- .. 0 P80 ... ... : ... .. . P85 : ... .. 0 ... : ... .. . ... ...
ROW 73 : ... .. . ... ... ... : D-3 00 6 P7F ... ... : ... .. . P82 : ... .. 7 ... : ... .. . ... ...
ROW 74 : ... .. . ... ... ... : ... .. . ... ... ... : ... .. . P7F : ... .. . ... : ... .. . ... ...
ROW 75 : ... .. . ... ... ... : ... .. . ... ... ... : ... .. . P7C : ... .. 4 ... : ... .. . ... ...
ROW 76 : ... .. . ... ... ... : ... .. . ... ... ... : ... .. . P79 : ... .. . ... : ... .. . ... ...
ROW 77 : ... .. . ... ... ... : ... .. . ... ... ... : ... .. . P7C : ... .. . ... : ... .. . ... ...
ROW 78 : ... .. . ... ... ... : --- .. 0 P80 ... ... : --- .. . P80 : ... .. 0 ... : ... .. . ... ...
ROW 79 : ... .. . ... ... ... : ... .. . ... ... ... : B-2 00 . P7C : ... .. 7 ... : ... .. . ... ...
ROW 7A : ... .. . ... ... ... : ... .. . ... ... ... : ... .. . P79 : ... .. . ... : ... .. . ... ...
ROW 7B : ... .. . ... ... ... : ... .. . ... ... ... : ... .. . P7C : ... .. 4 ... : ... .. . ... ...
ROW 7C : ... .. . ... ... ... : ... .. . ... ... ... : ... .. . P7F : ... .. . ... : ... .. . ... ...
ROW 7D : ... .. . ... ... ... : ... .. . ... ... ... : ... .. . P82 : ... .. . ... : ... .. . ... ...
ROW 7E : ... .. . ... ... ... : --- .. . P80 ... ... : --- .. . P80 : ... .. 1 ... : ... .. . ... ...
ROW 7F : ... .. . ... ... ... : E-3 00 6 P7F ... ... : B-2 00 . P7C : ... .. . ... : ... .. . ... ...
ROW 80 : ... .. . ... ... ... : ... .. . ... ... ... : ... .. . P79 : ... .. . ... : ... .. . ... ...
ROW 81 : ... .. . ... ... ... : ... .. . ... ... ... : ... .. . P7C : ... .. 0 ... : ... .. . ... ...
ROW 82 : ... .. . ... ... ... : ... .. . ... ... ... : ... .. . P7F : ... .. . ... : ... .. . ... ...
ROW 83 : ... .. . ... ... ... : ... .. . ... ... ... : ... .. . P82 : ... .. . ... : ... .. . ... ...
ROW 84 : ... .. . ... ... ... : --- .. 0 P80 ... ... : ... .. . P85 : ... .. . ... : ... .. . ... ...
ROW 85 : ... .. . ... ... ... : B-2 00 6 P7F ... ... : ... .. . P82 : ... .. 7 ... : ... .. . ... ...
ROW 86 : ... .. . ... ... ... : ... .. . ... ... ... : ... .. . P7F : ... .. . ... : ... .. . ... ...
ROW 87 : ... .. . ... ... ... : ... .. . ... ... ... : ... .. . P7C : ... .. 4 ... : ... .. . ... ...
ROW 88 : ... .. . ... ... ... : ... .. . ... ... ... : ... .. . P79 : ... .. . ... : ... .. . ... ...
ROW 89 : ... .. . ... ... ... : ... .. . ... ... ... : ... .. . P7C : ... .. . ... : ... .. . ... ...
ROW 8A : ... .. . ... ... ... : --- .. 0 P80 ... ... : --- .. . P80 : ... .. 0 ... : ... .. . ... ...
ROW 8B : ... .. . ... ... ... : D-3 00 6 P7F ... ... : B-2 00 . P7C : ... .. 7 ... : ... .. . ... ...
ROW 8C : ... .. . ... ... ... : ... .. . ... ... ... : ... .. . P79 : ... .. . ... : ... .. . ... ...
ROW 8D : ... .. . ... ... ... : ... .. . ... ... ... : ... .. . P7C : ... .. 4 ... : ... .. . ... ...
ROW 8E : ... .. . ... ... ... : ... .. . ... ... ... : ... .. . P7F : ... .. . ... : ... .. . ... ...
ROW 8F : ... .. . ... ... ... : ... .. . ... ... ... : ... .. . P82 : ... .. . ... : ... .. . ... ...
ROW 90 : ... .. . ... ... ... : --- .. 0 P80 ... ... : --- .. . P80 : ... .. 0 ... : ... .. . ... ...
ROW 91 : ... .. . ... ... ... : ... .. . ... ... ... : E-2 00 . P7C : ... .. . ... : ... .. . ... ...
ROW 92 : ... .. . ... ... ... : ... .. . ... ... ... : ... .. . P79 : ... .. . ... : ... .. . ... ...
ROW 93 : ... .. . ... ... ... : ... .. . ... ... ... : ... .. . P7C : ... .. . ... : ... .. . ... ...
ROW 94 : ... .. . ... ... ... : ... .. . ... ... ... : ... .. . P7F : ... .. . ... : ... .. . ... ...
ROW 95 : ... .. . ... ... ... : ... .. . ... ... ... : ... .. . P82 : ... .. . ... : ... .. . ... ...
ROW 96 : ... .. . ... ... ... : --- .. . P80 ... ... : --- .. . P80 : ... .. . ... : === 00 . ... ...
ROW 97 : ... .. . ... ... ... : E-3 00 6 P7F ... ... : E-2 00 . P7C : ... .. 7 ... : ... .. . ... ...
ROW 98 : ... .. . ... ... ... : ... .. . ... ... ... : ... .. . P79 : ... .. . ... : ... .. . ... ...
ROW 99 : ... .. . ... ... ... : ... .. . ... ... ... : ... .. . P7C : ... .. 4 ... : ... .. . ... ...
ROW 9A : ... .. . ... ... ... : ... .. . ... ... ... : ... .. . P7F : ... .. . ... : ... .. . ... ...
ROW 9B : ... .. . ... ... ... : ... .. . ... ... ... : ... .. . P82 : ... .. . ... : ... .. . ... ...
ROW 9C : ... .. . ... ... ... : --- .. 0 P80 ... ... : ... .. . P85 : ... .. 0 ... : ... .. . ... ...
ROW 9D : ... .. . ... ... ... : B-2 00 6 P7F ... ... : ... .. . P82 : ... .. 7 ... : ... .. . ... ...
ROW 9E : ... .. . ... ... ... : ... .. . ... ... ... : ... .. . P7F : ... .. . ... : ... .. . ... ...
ROW 9F : ... .. . ... ... ... : ... .. . ... ... ... : ... .. . P7C : ... .. 4 ... : ... .. . ... ...
ROW A0 : ... .. . ... ... ... : ... .. . ... ... ... : ... .. . P79 : ... .. . ... : ... .. . ... ...
ROW A1 : ... .. . ... ... ... : ... .. . ... ... ... : ... .. . P7C : ... .. . ... : ... .. . ... ...
ROW A2 : ... .. . ... ... ... : --- .. 0 P80 ... ... : --- .. . P80 : ... .. 0 ... : ... .. . ... ...
ROW A3 : ... .. . ... ... ... : D-3 00 6 P7F ... ... : E-2 00 . P7C : ... .. 7 ... : ... .. . ... ...
ROW A4 : ... .. . ... ... ... : ... .. . ... ... ... : ... .. . P79 : ... .. . ... : ... .. . ... ...
ROW A5 : ... .. . ... ... ... : ... .. . ... ... ... : ... .. . P7C : ... .. 4 ... : ... .. . ... ...
ROW A6 : ... .. . ... ... ... : ... .. . ... ... ... : ... .. . P7F : ... .. . ... : ... .. . ... ...
ROW A7 : ... .. . ... ... ... : ... .. . ... ... ... : ... .. . P82 : ... .. . ... : ... .. . ... ...
ROW A8 : ... .. . ... ... ... : --- .. 0 P80 ... ... : --- .. . P80 : ... .. 0 ... : ... .. . ... ...
ROW A9 : ... .. . ... ... ... : E-3 00 6 P7F ... ... : E-3 00 . P7C : ... .. 7 ... : ... .. . ... ...
ROW AA : ... .. . ... ... ... : ... .. . ... ... ... : ... .. . P79 : ... .. . ... : ... .. . ... ...
ROW AB : ... .. . ... ... ... : ... .. . ... ... ... : ... .. . P7C : ... .. 4 ... : ... .. . ... ...
ROW AC : ... .. . ... ... ... : ... .. . ... ... ... : ... .. . P7F : ... .. . ... : ... .. . ... ...
ROW AD : ... .. . ... ... ... : ... .. . ... ... ... : ... .. . P82 : ... .. . ... : ... .. . ... ...
ROW AE : ... .. . ... ... ... : --- .. 0 P80 ... ... : ... .. . P85 : ... .. 0 ... : ... .. . ... ...
ROW AF : ... .. 6 ... ... ... : E-3 00 6 P7F ... ... : ... .. . P82 : ... .. 7 ... : ... .. . ... ...
ROW B0 : ... .. . ... ... ... : ... .. . ... ... ... : ... .. . P7F : ... .. . ... : ... .. . ... ...
ROW B1 : ... .. . ... ... ... : ... .. . ... ... ... : ... .. . P7C : ... .. 4 ... : ... .. . ... ...
ROW B2 : ... .. . ... ... ... : ... .. . ... ... ... : ... .. . P79 : ... .. . ... : ... .. . ... ...
ROW B3 : ... .. . ... ... ... : ... .. . ... ... ... : ... .. . P7C : ... .. . ... : ... .. . ... ...
ROW B4 : ... .. . ... ... ... : --- .. 0 P80 ... ... : --- .. . P80 : ... .. 0 ... : ... .. . ... ...
ROW B5 : ... .. . ... ... ... : ... .. . ... ... ... : E-2 00 . P7C : ... .. 7 ... : ... .. . ... ...
ROW B6 : ... .. . ... ... ... : ... .. . ... ... ... : ... .. . P79 : ... .. . ... : ... .. . ... ...
ROW B7 : ... .. . ... ... ... : ... .. . ... ... ... : ... .. . P7C : ... .. 4 ... : ... .. . ... ...
ROW B8 : ... .. . ... ... ... : ... .. . ... ... ... : ... .. . P7F : ... .. . ... : ... .. . ... ...
ROW B9 : ... .. . ... ... ... : ... .. . ... ... ... : ... .. . P82 : ... .. . ... : ... .. . ... ...
ROW BA : ... .. . ... ... ... : --- .. . P80 ... ... : ... .. . P85 : ... .. 0 ... : ... .. . ... ...
ROW BB : ... .. . ... ... ... : E-3 00 6 P7F ... ... : ... .. . P82 : ... .. 7 ... : ... .. . ... ...
ROW BC : ... .. . ... ... ... : ... .. . ... ... ... : ... .. . P7F : ... .. . ... : ... .. . ... ...
ROW BD : ... .. . ... ... ... : ... .. . ... ... ... : ... .. . P7C : ... .. 4 ... : ... .. . ... ...
ROW BE : ... .. . ... ... ... : ... .. . ... ... ... : ... .. . P79 : ... .. . ... : ... .. . ... ...
ROW BF : ... .. . ... ... ... : ... .. . ... ... ... : ... .. . P7C : ... .. . ... : ... .. . ... ...
ROW C0 : --- .. 0 ... ... ... : --- .. 0 P80 ... ... : --- .. . P80 : ... .. 0 ... : ... .. . ... ...
ROW C1 : A-4 00 A P7F ... ... : A-3 00 6 P7F ... ... : A-2 00 . P7C : ... .. 7 ... : ... .. . ... ...
ROW C2 : ... .. . ... ... ... : ... .. . ... ... ... : ... .. . P79 : ... .. . ... : ... .. . ... ...
ROW C3 : --- .. 0 P80 ... ... : ... .. . ... ... ... : ... .. . P7C : ... .. 4 ... : ... .. . ... ...
ROW C4 : A-5 00 A ... ... ... : ... .. . ... ... ... : ... .. . P7F : ... .. . ... : ... .. . ... ...
ROW C5 : ... .. . ... ... ... : ... .. . ... ... ... : ... .. . P82 : ... .. . ... : ... .. . ... ...
ROW C6 : --- .. 0 ... ... ... : --- .. 0 P80 ... ... : ... .. . P85 : ... .. 1 ... : ... .. . ... ...
ROW C7 : ... .. . ... ... ... : A-3 00 6 P7F ... ... : ... .. . P82 : ... .. . ... : ... .. . ... ...
ROW C8 : ... .. . ... ... ... : ... .. . ... ... ... : ... .. . P7F : ... .. . ... : ... .. . ... ...
ROW C9 : --- .. . P80 ... ... : ... .. . ... ... ... : ... .. . P7C : ... .. 0 ... : ... .. . ... ...
ROW CA : A-5 00 9 ... ... ... : ... .. . ... ... ... : ... .. . P79 : ... .. . ... : ... .. . ... ...
ROW CB : ... .. . ... ... ... : ... .. . ... ... ... : ... .. . P7C : ... .. . ... : ... .. . ... ...
ROW CC : --- .. 0 ... ... ... : --- .. 0 P80 ... ... : --- .. . P80 : ... .. . ... : ... .. . ... ...
ROW CD : ... .. . ... ... ... : E-3 00 6 P7F ... ... : A-2 00 . P7C : ... .. 7 ... : ... .. . ... ...
ROW CE : ... .. . ... ... ... : ... .. . ... ... ... : ... .. . P79 : ... .. . ... : ... .. . ... ...
ROW CF : ... .. . ... ... ... : ... .. . ... ... ... : ... .. . P7C : ... .. 4 ... : ... .. . ... ...
ROW D0 : ... .. . ... ... ... : ... .. . ... ... ... : ... .. . P7F : ... .. . ... : ... .. . ... ...
ROW D1 : ... .. . ... ... ... : ... .. . ... ... ... : ... .. . P82 : ... .. . ... : ... .. . ... ...
ROW D2 : ... .. . ... ... ... : --- .. 0 P80 ... ... : ... .. . P85 : ... .. 0 ... : ... .. . ... ...
ROW D3 : ... .. . ... ... ... : G-3 00 6 P7F ... ... : ... .. . P82 : ... .. 7 ... : ... .. . ... ...
ROW D4 : ... .. . ... ... ... : ... .. . ... ... ... : ... .. . P7F : ... .. . ... : ... .. . ... ...
ROW D5 : ... .. . ... ... ... : ... .. . ... ... ... : ... .. . P7C : ... .. 4 ... : ... .. . ... ...
ROW D6 : ... .. . ... ... ... : ... .. . ... ... ... : ... .. . P79 : ... .. . ... : ... .. . ... ...
ROW D7 : ... .. . ... ... ... : ... .. . ... ... ... : ... .. . P7C : ... .. . ... : ... .. . ... ...
ROW D8 : ... .. . ... ... ... : --- .. 0 P80 ... ... : --- .. . P80 : ... .. 0 ... : ... .. . ... ...
ROW D9 : ... .. . ... ... ... : ... .. . ... ... ... : E-3 00 . P7C : ... .. 7 ... : ... .. . ... ...
ROW DA : ... .. . ... ... ... : ... .. . ... ... ... : ... .. . P79 : ... .. . ... : ... .. . ... ...
ROW DB : ... .. . ... ... ... : ... .. . ... ... ... : ... .. . P7C : ... .. 4 ... : ... .. . ... ...
ROW DC : ... .. . ... ... ... : ... .. . ... ... ... : ... .. . P7F : ... .. . ... : ... .. . ... ...
ROW DD : ... .. . ... ... ... : ... .. . ... ... ... : ... .. . P82 : ... .. . ... : ... .. . ... ...
ROW DE : ... .. . ... ... ... : --- .. . P80 ... ... : --- .. . P80 : ... .. 1 ... : ... .. . ... ...
ROW DF : ... .. . ... ... ... : A-3 00 6 P7F ... ... : E-3 00 . P7C : ... .. . ... : ... .. . ... ...
ROW E0 : ... .. . ... ... ... : ... .. . ... ... ... : ... .. . P79 : ... .. . ... : ... .. . ... ...
ROW E1 : ... .. . ... ... ... : ... .. . ... ... ... : ... .. . P7C : ... .. 0 ... : ... .. . ... ...
ROW E2 : ... .. . ... ... ... : ... .. . ... ... ... : ... .. . P7F : ... .. . ... : ... .. . ... ...
ROW E3 : ... .. . ... ... ... : ... .. . ... ... ... : ... .. . P82 : ... .. . ... : ... .. . ... ...
ROW E4 : --- .. . P80 ... ... : --- .. 0 P80 ... ... : ... .. . P85 : ... .. . ... : ... .. . ... ...
ROW E5 : ... .. . ... ... ... : E-3 00 6 P7F ... ... : ... .. . P82 : ... .. 7 ... : ... .. . ... ...
ROW E6 : ... .. . ... ... ... : ... .. . ... ... ... : ... .. . P7F : ... .. . ... : ... .. . ... ...
ROW E7 : ... .. . ... ... ... : ... .. . ... ... ... : ... .. . P7C : ... .. 4 ... : ... .. . ... ...
ROW E8 : ... .. . ... ... ... : ... .. . ... ... ... : ... .. . P79 : ... .. . ... : ... .. . ... ...
ROW E9 : ... .. . ... ... ... : ... .. . ... ... ... : ... .. . P7C : ... .. . ... : ... .. . ... ...
ROW EA : ... .. . ... ... ... : --- .. 0 P80 ... ... : --- .. . P80 : ... .. 0 ... : ... .. . ... ...
ROW EB : ... .. . ... ... ... : G-3 00 6 P7F ... ... : E-3 00 . P7C : ... .. 7 ... : ... .. . ... ...
ROW EC : ... .. . ... ... ... : ... .. . ... ... ... : ... .. . P79 : ... .. . ... : ... .. . ... ...
ROW ED : ... .. . ... ... ... : ... .. . ... ... ... : ... .. . P7C : ... .. 4 ... : ... .. . ... ...
ROW EE : ... .. . ... ... ... : ... .. . ... ... ... : ... .. . P7F : ... .. . ... : ... .. . ... ...
ROW EF : ... .. . ... ... ... : ... .. . ... ... ... : ... .. . P82 : ... .. . ... : ... .. . ... ...
ROW F0 : --- .. . P80 ... ... : --- .. 0 P80 ... ... : --- .. . P80 : ... .. 0 ... : ... .. . ... ...
ROW F1 : B-3 00 A P7F ... ... : ... .. . ... ... ... : A-2 00 . P7C : ... .. . ... : ... .. . ... ...
ROW F2 : ... .. . ... ... ... : ... .. . ... ... ... : ... .. . P79 : ... .. . ... : ... .. . ... ...
ROW F3 : ... .. . ... ... ... : ... .. . ... ... ... : ... .. . P7C : ... .. . ... : ... .. . ... ...
ROW F4 : ... .. . ... ... ... : ... .. . ... ... ... : ... .. . P7F : ... .. . ... : ... .. . ... ...
ROW F5 : ... .. . ... ... ... : ... .. . ... ... ... : ... .. . P82 : ... .. . ... : ... .. . ... ...
ROW F6 : --- .. 0 P80 ... ... : --- .. . P80 ... ... : --- .. . P80 : ... .. . ... : === 00 . ... ...
ROW F7 : C-4 00 A ... ... ... : A-3 00 6 P7F ... ... : A-2 00 . P7C : ... .. 7 ... : ... .. . ... ...
ROW F8 : ... .. . ... ... ... : ... .. . ... ... ... : ... .. . P79 : ... .. . ... : ... .. . ... ...
ROW F9 : ... .. . ... ... ... : ... .. . ... ... ... : ... .. . P7C : ... .. 4 ... : ... .. . ... ...
ROW FA : ... .. . ... ... ... : ... .. . ... ... ... : ... .. . P7F : ... .. . ... : ... .. . ... ...
ROW FB : ... .. . ... ... ... : ... .. . ... ... ... : ... .. . P82 : ... .. . ... : ... .. . ... ...
ROW FC : --- .. 0 ... ... ... : --- .. 0 P80 ... ... : ... .. . P85 : ... .. 0 ... : ... .. . ... ...
ROW FD : ... .. . ... ... ... : E-3 00 6 P7F ... ... : ... .. . P82 : ... .. 7 ... : ... .. . ... ...
ROW FE : ... .. . ... ... ... : ... .. . ... ... ... : ... .. . P7F : ... .. . ... : ... .. . ... ...
ROW FF : ... .. . ... ... ... : ... .. . ... ... ... : ... .. . P7C : ... .. 4 ... : ... .. . ... ...

PATTERN 0D
ROW 00 : ... .. . ... ... ... : ... .. . ... ... ... : ... .. . P79 : ... .. . ... : ... .. . ... ...
ROW 01 : ... .. . ... ... ... : ... .. . ... ... ... : ... .. . P7C : ... .. . ... : ... .. . ... ...
ROW 02 : --- .. . P80 ... ... : --- .. 0 P80 ... ... : --- .. . P80 : ... .. 0 ... : ... .. . ... ...
ROW 03 : D-4 00 A P7F ... ... : G-3 00 6 P7F ... ... : A-2 00 . P7C : ... .. 7 ... : ... .. . ... ...
ROW 04 : ... .. . ... ... ... : ... .. . ... ... ... : ... .. . P79 : ... .. . ... : ... .. . ... ...
ROW 05 : ... .. . ... ... ... : ... .. . ... ... ... : ... .. . P7C : ... .. 4 ... : ... .. . ... ...
ROW 06 : ... .. . ... ... ... : ... .. . ... ... ... : ... .. . P7F : ... .. . ... : ... .. . ... ...
ROW 07 : ... .. . ... ... ... : ... .. . ... ... ... : ... .. . P82 : ... .. . ... : ... .. . ... ...
ROW 08 : --- .. 0 P80 ... ... : --- .. 0 P80 ... ... : --- .. . P80 : ... .. 0 ... : ... .. . ... ...
ROW 09 : ... .. . ... ... ... : A-3 00 6 P7F ... ... : E-3 00 . P7C : ... .. 7 ... : ... .. . ... ...
ROW 0A : ... .. . ... ... ... : ... .. . ... ... ... : ... .. . P79 : ... .. . ... : ... .. . ... ...
ROW 0B : ... .. . ... ... ... : ... .. . ... ... ... : ... .. . P7C : ... .. 4 ... : ... .. . ... ...
ROW 0C : ... .. . ... ... ... : ... .. . ... ... ... : ... .. . P7F : ... .. . ... : ... .. . ... ...
ROW 0D : ... .. . ... ... ... : ... .. . ... ... ... : ... .. . P82 : ... .. . ... : ... .. . ... ...
ROW 0E : --- .. . P80 ... ... : --- .. 0 P80 ... ... : ... .. . P85 : ... .. 1 ... : ... .. . ... ...
ROW 0F : C-4 00 A ... ... ... : A-3 00 6 P7F ... ... : ... .. . P82 : ... .. . ... : ... .. . ... ...
ROW 10 : ... .. . ... ... ... : ... .. . ... ... ... : ... .. . P7F : ... .. . ... : ... .. . ... ...
ROW 11 : ... .. . ... ... ... : ... .. . ... ... ... : ... .. . P7C : ... .. 0 ... : ... .. . ... ...
ROW 12 : ... .. . ... ... ... : ... .. . ... ... ... : ... .. . P79 : ... .. . ... : ... .. . ... ...
ROW 13 : ... .. . ... ... ... : ... .. . ... ... ... : ... .. . P7C : ... .. . ... : ... .. . ... ...
ROW 14 : --- .. 0 ... ... ... : --- .. 0 P80 ... ... : --- .. . P80 : ... .. . ... : ... .. . ... ...
ROW 15 : ... .. . ... ... ... : ... .. . ... ... ... : E-2 00 . P7C : ... .. 7 ... : ... .. . ... ...
ROW 16 : ... .. . ... ... ... : ... .. . ... ... ... : ... .. . P79 : ... .. . ... : ... .. . ... ...
ROW 17 : ... .. . ... ... ... : ... .. . ... ... ... : ... .. . P7C : ... .. 4 ... : ... .. . ... ...
ROW 18 : ... .. . ... ... ... : ... .. . ... ... ... : ... .. . P7F : ... .. . ... : ... .. . ... ...
ROW 19 : ... .. . ... ... ... : ... .. . ... ... ... : ... .. . P82 : ... .. . ... : ... .. . ... ...
ROW 1A : --- .. . P80 ... ... : --- .. . P80 ... ... : ... .. . P85 : ... .. 1 ... : ... .. . ... ...
ROW 1B : B-3 00 A P7F ... ... : A-3 00 6 P7F ... ... : ... .. . P82 : ... .. . ... : ... .. . ... ...
ROW 1C : ... .. . ... ... ... : ... .. . ... ... ... : ... .. . P7F : ... .. . ... : ... .. . ... ...
ROW 1D : ... .. . ... ... ... : ... .. . ... ... ... : ... .. . P7C : ... .. 0 ... : ... .. . ... ...
ROW 1E : ... .. . ... ... ... : ... .. . ... ... ... : ... .. . P79 : ... .. . ... : ... .. . ... ...
ROW 1F : ... .. . ... ... ... : ... .. . ... ... ... : ... .. . P7C : ... .. . ... : ... .. . ... ...
ROW 20 : --- .. 0 P80 ... ... : --- .. 0 P80 ... ... : --- .. . P80 : ... .. . ... : ... .. . ... ...
ROW 21 : ... .. . ... ... ... : A-3 00 6 P7F ... ... : A-2 00 . P7C : ... .. 7 ... : ... .. . ... ...
ROW 22 : ... .. . ... ... ... : ... .. . ... ... ... : ... .. . P79 : ... .. . ... : ... .. . ... ...
ROW 23 : ... .. . ... ... ... : ... .. . ... ... ... : ... .. . P7C : ... .. 4 ... : ... .. . ... ...
ROW 24 : ... .. . ... ... ... : ... .. . ... ... ... : ... .. . P7F : ... .. . ... : ... .. . ... ...
ROW 25 : ... .. . ... ... ... : ... .. . ... ... ... : ... .. . P82 : ... .. . ... : ... .. . ... ...
ROW 26 : --- .. . P80 ... ... : --- .. 0 P80 ... ... : ... .. . P85 : ... .. 1 ... : ... .. . ... ...
ROW 27 : C-4 00 A ... ... ... : A-3 00 6 P7F ... ... : ... .. . P82 : ... .. . ... : ... .. . ... ...
ROW 28 : ... .. . ... ... ... : ... .. . ... ... ... : ... .. . P7F : ... .. . ... : ... .. . ... ...
ROW 29 : ... .. . ... ... ... : ... .. . ... ... ... : ... .. . P7C : ... .. 0 ... : ... .. . ... ...
ROW 2A : ... .. . ... ... ... : ... .. . ... ... ... : ... .. . P79 : ... .. . ... : ... .. . ... ...
ROW 2B : ... .. . ... ... ... : ... .. . ... ... ... : ... .. . P7C : ... .. . ... : ... .. . ... ...
ROW 2C : --- .. 0 ... ... ... : --- .. 0 P80 ... ... : --- .. . P80 : ... .. . ... : ... .. . ... ...
ROW 2D : E-3 00 A P7F ... ... : E-3 00 6 P7F ... ... : A-2 00 . P7C : ... .. 7 ... : ... .. . ... ...
ROW 2E : ... .. . ... ... ... : ... .. . ... ... ... : ... .. . P79 : ... .. . ... : ... .. . ... ...
ROW 2F : ... .. . ... ... ... : ... .. . ... ... ... : ... .. . P7C : ... .. 4 ... : ... .. . ... ...
ROW 30 : ... .. . ... ... ... : ... .. . ... ... ... : ... .. . P7F : ... .. . ... : ... .. . ... ...
ROW 31 : ... .. . ... ... ... : ... .. . ... ... ... : ... .. . P82 : ... .. . ... : ... .. . ... ...
ROW 32 : ... .. . ... ... ... : --- .. 0 P80 ... ... : ... .. . P85 : ... .. 0 ... : ... .. . ... ...
ROW 33 : ... .. . ... ... ... : G-3 00 6 P7F ... ... : ... .. . P82 : ... .. 7 ... : ... .. . ... ...
ROW 34 : ... .. . ... ... ... : ... .. . ... ... ... : ... .. . P7F : ... .. . ... : ... .. . ... ...
ROW 35 : ... .. . ... ... ... : ... .. . ... ... ... : ... .. . P7C : ... .. 4 ... : ... .. . ... ...
ROW 36 : ... .. . ... ... ... : ... .. . ... ... ... : ... .. . P79 : ... .. . ... : ... .. . ... ...
ROW 37 : ... .. . ... ... ... : ... .. . ... ... ... : ... .. . P7C : ... .. . ... : ... .. . ... ...
ROW 38 : ... .. . ... ... ... : --- .. 0 P80 ... ... : --- .. . P80 : ... .. 0 ... : ... .. . ... ...
ROW 39 : E-3 00 A P7C ... ... : ... .. . ... ... ... : E-3 00 . P7C : ... .. 7 ... : ... .. . ... ...
ROW 3A : ... .. . P79 ... ... : ... .. . ... ... ... : ... .. . P79 : ... .. . ... : ... .. . ... ...
ROW 3B : ... .. . P7C ... ... : ... .. . ... ... ... : ... .. . P7C : ... .. 4 ... : ... .. . ... ...
ROW 3C : ... .. . P7F ... ... : ... .. . ... ... ... : ... .. . P7F : ... .. . ... : ... .. . ... ...
ROW 3D : ... .. . P82 ... ... : ... .. . ... ... ... : ... .. . P82 : ... .. . ... : ... .. . ... ...
ROW 3E : ... .. . P85 ... ... : --- .. . P80 ... ... : --- .. . P80 : ... .. 1 ... : ... .. . ... ...
ROW 3F : ... .. . P82 ... ... : A-3 00 6 P7F ... ... : E-3 00 . P7C : ... .. . ... : ... .. . ... ...
ROW 40 : ... .. . P7F ... ... : ... .. . ... ... ... : ... .. . P79 : ... .. . ... : ... .. . ... ...
ROW 41 : ... .. . P7C ... ... : ... .. . ... ... ... : ... .. . P7C : ... .. 0 ... : ... .. . ... ...
ROW 42 : ... .. . P79 ... ... : ... .. . ... ... ... : ... .. . P7F : ... .. . ... : ... .. . ... ...
ROW 43 : ... .. . P7C ... ... : ... .. . ... ... ... : ... .. . P82 : ... .. . ... : ... .. . ... ...
ROW 44 : ... .. . P7F ... ... : --- .. 0 P80 ... ... : ... .. . P85 : ... .. . ... : ... .. . ... ...
ROW 45 : ... .. . P82 ... ... : E-3 00 6 P7F ... ... : ... .. . P82 : ... .. 7 ... : ... .. . ... ...
ROW 46 : ... .. . P85 ... ... : ... .. . ... ... ... : ... .. . P7F : ... .. . ... : ... .. . ... ...
ROW 47 : ... .. . P82 ... ... : ... .. . ... ... ... : ... .. . P7C : ... .. 4 ... : ... .. . ... ...
ROW 48 : ... .. . P7F ... ... : ... .. . ... ... ... : ... .. . P79 : ... .. . ... : ... .. . ... ...
ROW 49 : ... .. . P7C ... ... : ... .. . ... ... ... : ... .. . P7C : ... .. . ... : ... .. . ... ...
ROW 4A : ... .. . P79 ... ... : --- .. 0 P80 ... ... : --- .. . P80 : ... .. 0 ... : ... .. . ... ...
ROW 4B : ... .. . P7C ... ... : G-3 00 6 P7F ... ... : E-3 00 . P7C : ... .. 7 ... : ... .. . ... ...
ROW 4C : ... .. . P7F ... ... : ... .. . ... ... ... : ... .. . P79 : ... .. . ... : ... .. . ... ...
ROW 4D : ... .. . P82 ... ... : ... .. . ... ... ... : ... .. . P7C : ... .. 4 ... : ... .. . ... ...
ROW 4E : ... .. . P85 ... ... : ... .. . ... ... ... : ... .. . P7F : ... .. . ... : ... .. . ... ...
ROW 4F : ... .. . P82 ... ... : ... .. . ... ... ... : ... .. . P82 : ... .. . ... : ... .. . ... ...
ROW 50 : ... .. . P7F ... ... : --- .. 0 P80 ... ... : --- .. . P80 : ... .. 0 ... : ... .. . ... ...
ROW 51 : ... .. . P7C ... ... : ... .. . ... ... ... : A-2 00 . P7C : ... .. . ... : ... .. . ... ...
ROW 52 : ... .. . P79 ... ... : ... .. . ... ... ... : ... .. . P79 : ... .. . ... : ... .. . ... ...
ROW 53 : ... .. . P7C ... ... : ... .. . ... ... ... : ... .. . P7C : ... .. . ... : ... .. . ... ...
ROW 54 : ... .. . P7F ... ... : ... .. . ... ... ... : ... .. . P7F : ... .. . ... : ... .. . ... ...
ROW 55 : ... .. . P82 ... ... : ... .. . ... ... ... : ... .. . P82 : ... .. . ... : ... .. . ... ...
ROW 56 : ... .. . P85 ... ... : --- .. . P80 ... ... : --- .. . P80 : ... .. . ... : === 00 . ... ...
ROW 57 : ... .. . P82 ... ... : A-3 00 6 P7F ... ... : A-2 00 . P7C : ... .. 7 ... : ... .. . ... ...
ROW 58 : ... .. . P7F ... ... : ... .. . ... ... ... : ... .. . P79 : ... .. . ... : ... .. . ... ...
ROW 59 : ... .. . P7C ... ... : ... .. . ... ... ... : ... .. . P7C : ... .. 4 ... : ... .. . ... ...
ROW 5A : ... .. . P79 ... ... : ... .. . ... ... ... : ... .. . P7F : ... .. . ... : ... .. . ... ...
ROW 5B : ... .. . P7C ... ... : ... .. . ... ... ... : ... .. . P82 : ... .. . ... : ... .. . ... ...
ROW 5C : ... .. . P7F ... ... : --- .. 0 P80 ... ... : ... .. . P85 : ... .. 0 ... : ... .. . ... ...
ROW 5D : ... .. . P82 ... ... : E-3 00 6 P7F ... ... : ... .. . P82 : ... .. 7 ... : ... .. . ... ...
ROW 5E : ... .. . P85 ... ... : ... .. . ... ... ... : ... .. . P7F : ... .. . ... : ... .. . ... ...
ROW 5F : ... .. . P82 ... ... : ... .. . ... ... ... : ... .. . P7C : ... .. 4 ... : ... .. . ... ...
ROW 60 : ... .. . P7F ... ... : ... .. . ... ... ... : ... .. . P79 : ... .. . ... : ... .. . ... ...
ROW 61 : ... .. . P7C ... ... : ... .. . ... ... ... : ... .. . P7C : ... .. . ... : ... .. . ... ...
ROW 62 : ... .. . P79 ... ... : --- .. 0 P80 ... ... : --- .. . P80 : ... .. 0 ... : ... .. . ... ...
ROW 63 : ... .. . P7C ... ... : G-3 00 6 P7F ... ... : A-2 00 . P7C : ... .. 7 ... : ... .. . ... ...
ROW 64 : ... .. . P7F ... ... : ... .. . ... ... ... : ... .. . P79 : ... .. . ... : ... .. . ... ...
ROW 65 : ... .. . P82 ... ... : ... .. . ... ... ... : ... .. . P7C : ... .. 4 ... : ... .. . ... ...
ROW 66 : ... .. . P85 ... ... : ... .. . ... ... ... : ... .. . P7F : ... .. . ... : ... .. . ... ...
ROW 67 : ... .. . P82 ... ... : ... .. . ... ... ... : ... .. . P82 : ... .. . ... : ... .. . ... ...
ROW 68 : ... .. . P7F ... ... : --- .. 0 P80 ... ... : --- .. . P80 : ... .. 0 ... : ... .. . ... ...
ROW 69 : ... .. . P7C ... ... : A-3 00 6 P7F ... ... : E-3 00 . P7C : ... .. 7 ... : ... .. . ... ...
ROW 6A : ... .. . P79 ... ... : ... .. . ... ... ... : ... .. . P79 : ... .. . ... : ... .. . ... ...
ROW 6B : ... .. . P7C ... ... : ... .. . ... ... ... : ... .. . P7C : ... .. 4 ... : ... .. . ... ...
ROW 6C : ... .. . P7F ... ... : ... .. . ... ... ... : ... .. . P7F : ... .. . ... : ... .. . ... ...
ROW 6D : ... .. . P82 ... ... : ... .. . ... ... ... : ... .. . P82 : ... .. . ... : ... .. . ... ...
ROW 6E : ... .. . P85 ... ... : --- .. 0 P80 ... ... : ... .. . P85 : ... .. 0 ... : ... .. . ... ...
ROW 6F : ... .. . P82 ... ... : A-3 00 6 P7F ... ... : ... .. . P82 : ... .. 7 ... : ... .. . ... ...
ROW 70 : ... .. . P7F ... ... : ... .. . ... ... ... : ... .. . P7F : ... .. . ... : ... .. . ... ...
ROW 71 : ... .. . P7C ... ... : ... .. . ... ... ... : ... .. . P7C : ... .. 4 ... : ... .. . ... ...
ROW 72 : ... .. . P79 ... ... : ... .. . ... ... ... : ... .. . P79 : ... .. . ... : ... .. . ... ...
ROW 73 : ... .. . P7C ... ... : ... .. . ... ... ... : ... .. . P7C : ... .. . ... : ... .. . ... ...
ROW 74 : ... .. . P7F ... ... : --- .. 0 P80 ... ... : --- .. . P80 : ... .. 0 ... : ... .. . ... ...
ROW 75 : ... .. . P82 ... ... : ... .. . ... ... ... : E-2 00 . P7C : ... .. 7 ... : ... .. . ... ...
ROW 76 : ... .. . P85 ... ... : ... .. . ... ... ... : ... .. . P79 : ... .. . ... : ... .. . ... ...
ROW 77 : ... .. . P82 ... ... : ... .. . ... ... ... : ... .. . P7C : ... .. 4 ... : ... .. . ... ...
ROW 78 : ... .. . P7F ... ... : ... .. . ... ... ... : ... .. . P7F : ... .. . ... : ... .. . ... ...
ROW 79 : ... .. . P7C ... ... : ... .. . ... ... ... : ... .. . P82 : ... .. . ... : ... .. . ... ...
ROW 7A : ... .. . P79 ... ... : --- .. . P80 ... ... : ... .. . P85 : ... .. 0 ... : ... .. . ... ...
ROW 7B : ... .. 6 P7C ... ... : A-3 00 6 P7F ... ... : ... .. . P82 : ... .. 7 ... : ... .. . ... ...
ROW 7C : ... .. . P7F ... ... : ... .. . ... ... ... : ... .. . P7F : ... .. . ... : ... .. . ... ...
ROW 7D : ... .. . P82 ... ... : ... .. . ... ... ... : ... .. . P7C : ... .. 4 ... : ... .. . ... ...
ROW 7E : ... .. . P85 ... ... : ... .. . ... ... ... : ... .. . P79 : ... .. . ... : ... .. . ... ...
ROW 7F : ... .. . P82 ... ... : ... .. . ... ... ... : ... .. . P7C : ... .. . ... : ... .. . ... ...
ROW 80 : --- .. 0 P80 ... ... : --- .. 0 P80 ... ... : --- .. . P80 : ... .. 0 ... : ... .. . ... ...
ROW 81 : A-4 00 A P7F ... ... : A-3 00 6 P7F ... ... : A-2 00 . P7C : ... .. 7 ... : ... .. . ... ...
ROW 82 : ... .. . ... ... ... : ... .. . ... ... ... : ... .. . P79 : ... .. . ... : ... .. . ... ...
ROW 83 : --- .. 0 P80 ... ... : ... .. . ... ... ... : ... .. . P7C : ... .. 4 ... : ... .. . ... ...
ROW 84 : A-5 00 A ... ... ... : ... .. . ... ... ... : ... .. . P7F : ... .. . ... : ... .. . ... ...
ROW 85 : ... .. . ... ... ... : ... .. . ... ... ... : ... .. . P82 : ... .. . ... : ... .. . ... ...
ROW 86 : --- .. 0 ... ... ... : --- .. 0 P80 ... ... : ... .. . P85 : ... .. 1 ... : ... .. . ... ...
ROW 87 : ... .. . ... ... ... : A-3 00 6 P7F ... ... : ... .. . P82 : ... .. . ... : ... .. . ... ...
ROW 88 : ... .. . ... ... ... : ... .. . ... ... ... : ... .. . P7F : ... .. . ... : ... .. . ... ...
ROW 89 : --- .. . P80 ... ... : ... .. . ... ... ... : ... .. . P7C : ... .. 0 ... : ... .. . ... ...
ROW 8A : A-5 00 7 ... ... ... : ... .. . ... ... ... : ... .. . P79 : ... .. . ... : ... .. . ... ...
ROW 8B : ... .. . ... ... ... : ... .. . ... ... ... : ... .. . P7C : ... .. . ... : ... .. . ... ...
ROW 8C : --- .. 0 ... ... ... : --- .. 0 P80 ... ... : --- .. . P80 : ... .. . ... : ... .. . ... ...
ROW 8D : ... .. . ... ... ... : E-3 00 6 P7F ... ... : A-2 00 . P7C : ... .. 7 ... : ... .. . ... ...
ROW 8E : ... .. . ... ... ... : ... .. . ... ... ... : ... .. . P79 : ... .. . ... : ... .. . ... ...
ROW 8F : ... .. . ... ... ... : ... .. . ... ... ... : ... .. . P7C : ... .. 4 ... : ... .. . ... ...
ROW 90 : ... .. . ... ... ... : ... .. . ... ... ... : ... .. . P7F : ... .. . ... : ... .. . ... ...
ROW 91 : ... .. . ... ... ... : ... .. . ... ... ... : ... .. . P82 : ... .. . ... : ... .. . ... ...
ROW 92 : ... .. . ... ... ... : --- .. 0 P80 ... ... : ... .. . P85 : ... .. 0 ... : ... .. . ... ...
ROW 93 : ... .. . ... ... ... : G-3 00 6 P7F ... ... : ... .. . P82 : ... .. 7 ... : ... .. . ... ...
ROW 94 : ... .. . ... ... ... : ... .. . ... ... ... : ... .. . P7F : ... .. . ... : ... .. . ... ...
ROW 95 : ... .. . ... ... ... : ... .. . ... ... ... : ... .. . P7C : ... .. 4 ... : ... .. . ... ...
ROW 96 : ... .. . ... ... ... : ... .. . ... ... ... : ... .. . P79 : ... .. . ... : ... .. . ... ...
ROW 97 : ... .. . ... ... ... : ... .. . ... ... ... : ... .. . P7C : ... .. . ... : ... .. . ... ...
ROW 98 : ... .. . ... ... ... : --- .. 0 P80 ... ... : --- .. . P80 : ... .. 0 ... : ... .. . ... ...
ROW 99 : ... .. . ... ... ... : ... .. . ... ... ... : E-3 00 . P7C : ... .. 7 ... : ... .. . ... ...
ROW 9A : ... .. . ... ... ... : ... .. . ... ... ... : ... .. . P79 : ... .. . ... : ... .. . ... ...
ROW 9B : ... .. . ... ... ... : ... .. . ... ... ... : ... .. . P7C : ... .. 4 ... : ... .. . ... ...
ROW 9C : ... .. . ... ... ... : ... .. . ... ... ... : ... .. . P7F : ... .. . ... : ... .. . ... ...
ROW 9D : ... .. . ... ... ... : ... .. . ... ... ... : ... .. . P82 : ... .. . ... : ... .. . ... ...
ROW 9E : ... .. . ... ... ... : --- .. . P80 ... ... : --- .. . P80 : ... .. 1 ... : ... .. . ... ...
ROW 9F : ... .. . ... ... ... : A-3 00 6 P7F ... ... : E-3 00 . P7C : ... .. . ... : ... .. . ... ...
ROW A0 : ... .. . ... ... ... : ... .. . ... ... ... : ... .. . P79 : ... .. . ... : ... .. . ... ...
ROW A1 : ... .. . ... ... ... : ... .. . ... ... ... : ... .. . P7C : ... .. 0 ... : ... .. . ... ...
ROW A2 : ... .. . ... ... ... : ... .. . ... ... ... : ... .. . P7F : ... .. . ... : ... .. . ... ...
ROW A3 : ... .. . ... ... ... : ... .. . ... ... ... : ... .. . P82 : ... .. . ... : ... .. . ... ...
ROW A4 : --- .. . P80 ... ... : --- .. 0 P80 ... ... : ... .. . P85 : ... .. . ... : ... .. . ... ...
ROW A5 : ... .. . ... ... ... : E-3 00 6 P7F ... ... : ... .. . P82 : ... .. 7 ... : ... .. . ... ...
ROW A6 : ... .. . ... ... ... : ... .. . ... ... ... : ... .. . P7F : ... .. . ... : ... .. . ... ...
ROW A7 : ... .. . ... ... ... : ... .. . ... ... ... : ... .. . P7C : ... .. 4 ... : ... .. . ... ...
ROW A8 : ... .. . ... ... ... : ... .. . ... ... ... : ... .. . P79 : ... .. . ... : ... .. . ... ...
ROW A9 : ... .. . ... ... ... : ... .. . ... ... ... : ... .. . P7C : ... .. . ... : ... .. . ... ...
ROW AA : ... .. . ... ... ... : --- .. 0 P80 ... ... : --- .. . P80 : ... .. 0 ... : ... .. . ... ...
ROW AB : ... .. . ... ... ... : G-3 00 6 P7F ... ... : E-3 00 . P7C : ... .. 7 ... : ... .. . ... ...
ROW AC : ... .. . ... ... ... : ... .. . ... ... ... : ... .. . P79 : ... .. . ... : ... .. . ... ...
ROW AD : ... .. . ... ... ... : ... .. . ... ... ... : ... .. . P7C : ... .. 4 ... : ... .. . ... ...
ROW AE : ... .. . ... ... ... : ... .. . ... ... ... : ... .. . P7F : ... .. . ... : ... .. . ... ...
ROW AF : ... .. . ... ... ... : ... .. . ... ... ... : ... .. . P82 : ... .. . ... : ... .. . ... ...
ROW B0 : --- .. . P80 ... ... : --- .. 0 P80 ... ... : --- .. . P80 : ... .. 0 ... : ... .. . ... ...
ROW B1 : B-3 00 9 P7F ... ... : ... .. . ... ... ... : A-2 00 . P7C : ... .. . ... : ... .. . ... ...
ROW B2 : ... .. . ... ... ... : ... .. . ... ... ... : ... .. . P79 : ... .. . ... : ... .. . ... ...
ROW B3 : ... .. . ... ... ... : ... .. . ... ... ... : ... .. . P7C : ... .. . ... : ... .. . ... ...
ROW B4 : ... .. . ... ... ... : ... .. . ... ... ... : ... .. . P7F : ... .. . ... : ... .. . ... ...
ROW B5 : ... .. . ... ... ... : ... .. . ... ... ... : ... .. . P82 : ... .. . ... : ... .. . ... ...
ROW B6 : --- .. 0 P80 ... ... : --- .. . P80 ... ... : --- .. . P80 : ... .. . ... : === 00 . ... ...
ROW B7 : C-4 00 9 ... ... ... : A-3 00 6 P7F ... ... : A-2 00 . P7C : ... .. 7 ... : ... .. . ... ...
ROW B8 : ... .. . ... ... ... : ... .. . ... ... ... : ... .. . P79 : ... .. . ... : ... .. . ... ...
ROW B9 : ... .. . ... ... ... : ... .. . ... ... ... : ... .. . P7C : ... .. 4 ... : ... .. . ... ...
ROW BA : ... .. . ... ... ... : ... .. . ... ... ... : ... .. . P7F : ... .. . ... : ... .. . ... ...
ROW BB : ... .. . ... ... ... : ... .. . ... ... ... : ... .. . P82 : ... .. . ... : ... .. . ... ...
ROW BC : --- .. 0 ... ... ... : --- .. 0 P80 ... ... : ... .. . P85 : ... .. 0 ... : ... .. . ... ...
ROW BD : ... .. . ... ... ... : E-3 00 6 P7F ... ... : ... .. . P82 : ... .. 7 ... : ... .. . ... ...
ROW BE : ... .. . ... ... ... : ... .. . ... ... ... : ... .. . P7F : ... .. . ... : ... .. . ... ...
ROW BF : ... .. . ... ... ... : ... .. . ... ... ... : ... .. . P7C : ... .. 4 ... : ... .. . ... ...
ROW C0 : ... .. . ... ... ... : ... .. . ... ... ... : ... .. . P79 : ... .. . ... : ... .. . ... ...
ROW C1 : ... .. . ... ... ... : ... .. . ... ... ... : ... .. . P7C : ... .. . ... : ... .. . ... ...
ROW C2 : --- .. . P80 ... ... : --- .. 0 P80 ... ... : --- .. . P80 : ... .. 0 ... : ... .. . ... ...
ROW C3 : D-4 00 9 P7F ... ... : G-3 00 6 P7F ... ... : A-2 00 . P7C : ... .. 7 ... : ... .. . ... ...
ROW C4 : ... .. . ... ... ... : ... .. . ... ... ... : ... .. . P79 : ... .. . ... : ... .. . ... ...
ROW C5 : ... .. . ... ... ... : ... .. . ... ... ... : ... .. . P7C : ... .. 4 ... : ... .. . ... ...
ROW C6 : ... .. . ... ... ... : ... .. . ... ... ... : ... .. . P7F : ... .. . ... : ... .. . ... ...
ROW C7 : ... .. . ... ... ... : ... .. . ... ... ... : ... .. . P82 : ... .. . ... : ... .. . ... ...
ROW C8 : --- .. 0 P80 ... ... : --- .. 0 P80 ... ... : --- .. . P80 : ... .. 0 ... : ... .. . ... ...
ROW C9 : ... .. . ... ... ... : A-3 00 6 P7F ... ... : E-3 00 . P7C : ... .. 7 ... : ... .. . ... ...
ROW CA : ... .. . ... ... ... : ... .. . ... ... ... : ... .. . P79 : ... .. . ... : ... .. . ... ...
ROW CB : ... .. . ... ... ... : ... .. . ... ... ... : ... .. . P7C : ... .. 4 ... : ... .. . ... ...
ROW CC : ... .. . ... ... ... : ... .. . ... ... ... : ... .. . P7F : ... .. . ... : ... .. . ... ...
ROW CD : ... .. . ... ... ... : ... .. . ... ... ... : ... .. . P82 : ... .. . ... : ... .. . ... ...
ROW CE : --- .. . P80 ... ... : --- .. 0 P80 ... ... : ... .. . P85 : ... .. 1 ... : ... .. . ... ...
ROW CF : C-4 00 9 ... ... ... : A-3 00 6 P7F ... ... : ... .. . P82 : ... .. . ... : ... .. . ... ...
ROW D0 : ... .. . ... ... ... : ... .. . ... ... ... : ... .. . P7F : ... .. . ... : ... .. . ... ...
ROW D1 : ... .. . ... ... ... : ... .. . ... ... ... : ... .. . P7C : ... .. 0 ... : ... .. . ... ...
ROW D2 : ... .. . ... ... ... : ... .. . ... ... ... : ... .. . P79 : ... .. . ... : ... .. . ... ...
ROW D3 : ... .. . ... ... ... : ... .. . ... ... ... : ... .. . P7C : ... .. . ... : ... .. . ... ...
ROW D4 : --- .. 0 ... ... ... : --- .. 0 P80 ... ... : --- .. . P80 : ... .. . ... : ... .. . ... ...
ROW D5 : ... .. . ... ... ... : ... .. . ... ... ... : E-2 00 . P7C : ... .. 7 ... : ... .. . ... ...
ROW D6 : ... .. . ... ... ... : ... .. . ... ... ... : ... .. . P79 : ... .. . ... : ... .. . ... ...
ROW D7 : ... .. . ... ... ... : ... .. . ... ... ... : ... .. . P7C : ... .. 4 ... : ... .. . ... ...
ROW D8 : ... .. . ... ... ... : ... .. . ... ... ... : ... .. . P7F : ... .. . ... : ... .. . ... ...
ROW D9 : ... .. . ... ... ... : ... .. . ... ... ... : ... .. . P82 : ... .. . ... : ... .. . ... ...
ROW DA : --- .. . P80 ... ... : --- .. . P80 ... ... : ... .. . P85 : ... .. 1 ... : ... .. . ... ...
ROW DB : B-3 00 9 P7F ... ... : A-3 00 6 P7F ... ... : ... .. . P82 : ... .. . ... : ... .. . ... ...
ROW DC : ... .. . ... ... ... : ... .. . ... ... ... : ... .. . P7F : ... .. . ... : ... .. . ... ...
ROW DD : ... .. . ... ... ... : ... .. . ... ... ... : ... .. . P7C : ... .. 0 ... : ... .. . ... ...
ROW DE : ... .. . ... ... ... : ... .. . ... ... ... : ... .. . P79 : ... .. . ... : ... .. . ... ...
ROW DF : ... .. . ... ... ... : ... .. . ... ... ... : ... .. . P7C : ... .. . ... : ... .. . ... ...
ROW E0 : --- .. 0 P80 ... ... : --- .. 0 P80 ... ... : --- .. . P80 : ... .. . ... : ... .. . ... ...
ROW E1 : ... .. . ... ... ... : A-3 00 6 P7F ... ... : A-2 00 . P7C : ... .. 7 ... : ... .. . ... ...
ROW E2 : ... .. . ... ... ... : ... .. . ... ... ... : ... .. . P79 : ... .. . ... : ... .. . ... ...
ROW E3 : ... .. . ... ... ... : ... .. . ... ... ... : ... .. . P7C : ... .. 4 ... : ... .. . ... ...
ROW E4 : ... .. . ... ... ... : ... .. . ... ... ... : ... .. . P7F : ... .. . ... : ... .. . ... ...
ROW E5 : ... .. . ... ... ... : ... .. . ... ... ... : ... .. . P82 : ... .. . ... : ... .. . ... ...
ROW E6 : --- .. . P80 ... ... : --- .. 0 P80 ... ... : ... .. . P85 : ... .. 1 ... : ... .. . ... ...
ROW E7 : D-4 00 9 P7F ... ... : A-3 00 6 P7F ... ... : ... .. . P82 : ... .. . ... : ... .. . ... ...
ROW E8 : ... .. . ... ... ... : ... .. . ... ... ... : ... .. . P7F : ... .. . ... : ... .. . ... ...
ROW E9 : ... .. . ... ... ... : ... .. . ... ... ... : ... .. . P7C : ... .. 0 ... : ... .. . ... ...
ROW EA : ... .. . ... ... ... : ... .. . ... ... ... : ... .. . P79 : ... .. . ... : ... .. . ... ...
ROW EB : ... .. . ... ... ... : ... .. . ... ... ... : ... .. . P7C : ... .. . ... : ... .. . ... ...
ROW EC : --- .. 0 P80 ... ... : --- .. 0 P80 ... ... : --- .. . P80 : ... .. . ... : ... .. . ... ...
ROW ED : E-4 00 9 ... ... ... : E-3 00 6 P7F ... ... : A-2 00 . P7C : ... .. 7 ... : ... .. . ... ...
ROW EE : ... .. . ... ... ... : ... .. . ... ... ... : ... .. . P79 : ... .. . ... : ... .. . ... ...
ROW EF : ... .. . ... ... ... : ... .. . ... ... ... : ... .. . P7C : ... .. 4 ... : ... .. . ... ...
ROW F0 : ... .. . ... ... ... : ... .. . ... ... ... : ... .. . P7F : ... .. . ... : ... .. . ... ...
ROW F1 : ... .. . ... ... ... : ... .. . ... ... ... : ... .. . P82 : ... .. . ... : ... .. . ... ...
ROW F2 : ... .. . ... ... ... : --- .. 0 P80 ... ... : ... .. . P85 : ... .. 0 ... : ... .. . ... ...
ROW F3 : ... .. . ... ... ... : G-3 00 6 P7F ... ... : ... .. . P82 : ... .. 7 ... : ... .. . ... ...
ROW F4 : ... .. . ... ... ... : ... .. . ... ... ... : ... .. . P7F : ... .. . ... : ... .. . ... ...
ROW F5 : ... .. . ... ... ... : ... .. . ... ... ... : ... .. . P7C : ... .. 4 ... : ... .. . ... ...
ROW F6 : ... .. . ... ... ... : ... .. . ... ... ... : ... .. . P79 : ... .. . ... : ... .. . ... ...
ROW F7 : ... .. . ... ... ... : ... .. . ... ... ... : ... .. . P7C : ... .. . ... : ... .. . ... ...
ROW F8 : ... .. . ... ... ... : --- .. 0 P80 ... ... : --- .. . P80 : ... .. 0 ... : ... .. . ... ...
ROW F9 : E-4 00 9 P7D ... ... : ... .. . ... ... ... : E-3 00 . P7C : ... .. 7 ... : ... .. . ... ...
ROW FA : D#4 00 9 P84 ... ... : ... .. . ... ... ... : ... .. . P79 : ... .. . ... : ... .. . ... ...
ROW FB : E-4 00 9 P7D ... ... : ... .. . ... ... ... : ... .. . P7C : ... .. 4 ... : ... .. . ... ...
ROW FC : ... .. . P80 ... ... : ... .. . ... ... ... : ... .. . P7F : ... .. . ... : ... .. . ... ...
ROW FD : ... .. . P83 ... ... : ... .. . ... ... ... : ... .. . P82 : ... .. . ... : ... .. . ... ...
ROW FE : F-4 00 9 P7C ... ... : --- .. . P80 ... ... : --- .. . P80 : ... .. 1 ... : ... .. . ... ...
ROW FF : E-4 00 9 P83 ... ... : A-3 00 6 P7F ... ... : E-3 00 . P7C : ... .. . ... : ... .. . ... ...

PATTERN 0E
ROW 00 : ... .. . P80 ... ... : ... .. . ... ... ... : ... .. . P79 : ... .. . ... : ... .. . ... ...
ROW 01 : ... .. . P7D ... ... : ... .. . ... ... ... : ... .. . P7C : ... .. 0 ... : ... .. . ... ...
ROW 02 : D#4 00 9 P84 ... ... : ... .. . ... ... ... : ... .. . P7F : ... .. . ... : ... .. . ... ...
ROW 03 : E-4 00 9 P7D ... ... : ... .. . ... ... ... : ... .. . P82 : ... .. . ... : ... .. . ... ...
ROW 04 : ... .. . P80 ... ... : --- .. 0 P80 ... ... : ... .. . P85 : ... .. . ... : ... .. . ... ...
ROW 05 : ... .. . P83 ... ... : E-3 00 6 P7F ... ... : ... .. . P82 : ... .. 7 ... : ... .. . ... ...
ROW 06 : F-4 00 9 P7C ... ... : ... .. . ... ... ... : ... .. . P7F : ... .. . ... : ... .. . ... ...
ROW 07 : E-4 00 9 P83 ... ... : ... .. . ... ... ... : ... .. . P7C : ... .. 4 ... : ... .. . ... ...
ROW 08 : ... .. . P80 ... ... : ... .. . ... ... ... : ... .. . P79 : ... .. . ... : ... .. . ... ...
ROW 09 : ... .. . P7D ... ... : ... .. . ... ... ... : ... .. . P7C : ... .. . ... : ... .. . ... ...
ROW 0A : D#4 00 9 P84 ... ... : --- .. 0 P80 ... ... : --- .. . P80 : ... .. 0 ... : ... .. . ... ...
ROW 0B : E-4 00 9 P7D ... ... : G-3 00 6 P7F ... ... : E-3 00 . P7C : ... .. 7 ... : ... .. . ... ...
ROW 0C : ... .. . P80 ... ... : ... .. . ... ... ... : ... .. . P79 : ... .. . ... : ... .. . ... ...
ROW 0D : ... .. . P83 ... ... : ... .. . ... ... ... : ... .. . P7C : ... .. 4 ... : ... .. . ... ...
ROW 0E : F-4 00 9 P7C ... ... : ... .. . ... ... ... : ... .. . P7F : ... .. . ... : ... .. . ... ...
ROW 0F : ... .. . ... ... ... : ... .. . ... ... ... : ... .. . ... : ... .. . ... : ... .. . ... ...
ROW 10 : ... .. . ... ... ... : ... .. . ... ... ... : ... .. . ... : ... .. . ... : ... .. . ... ...
ROW 11 : ... .. . ... ... ... : ... .. . ... ... ... : ... .. . ... : ... .. . ... : ... .. . ... ...
ROW 12 : ... .. . ... ... ... : ... .. . ... ... ... : ... .. . ... : ... .. . ... : ... .. . ... ...
ROW 13 : ... .. . ... ... ... : ... .. . ... ... ... : ... .. . ... : ... .. . ... : ... .. . ... ...
ROW 14 : ... .. . ... ... ... : ... .. . ... ... ... : ... .. . ... : ... .. . ... : ... .. . ... ...
ROW 15 : ... .. . ... ... ... : ... .. . ... ... ... : ... .. . ... : ... .. . ... : ... .. . ... ...
ROW 16 : ... .. . ... ... ... : ... .. . ... ... ... : ... .. . ... : ... .. . ... : ... .. . ... ...
ROW 17 : ... .. . ... ... ... : ... .. . ... ... ... : ... .. . ... : ... .. . ... : ... .. . ... ...
ROW 18 : ... .. . ... ... ... : ... .. . ... ... ... : ... .. . ... : ... .. . ... : ... .. . ... ...
ROW 19 : ... .. . ... ... ... : ... .. . ... ... ... : ... .. . ... : ... .. . ... : ... .. . ... ...
ROW 1A : ... .. . ... ... ... : ... .. . ... ... ... : ... .. . ... : ... .. . ... : ... .. . ... ...
ROW 1B : ... .. . ... ... ... : ... .. . ... ... ... : ... .. . ... : ... .. . ... : ... .. . ... ...
ROW 1C : ... .. . ... ... ... : ... .. . ... ... ... : ... .. . ... : ... .. . ... : ... .. . ... ...
ROW 1D : ... .. . ... ... ... : ... .. . ... ... ... : ... .. . ... : ... .. . ... : ... .. . ... ...
ROW 1E : ... .. . ... ... ... : ... .. . ... ... ... : ... .. . ... : ... .. . ... : ... .. . ... ...
ROW 1F : ... .. . ... ... ... : ... .. . ... ... ... : ... .. . ... : ... .. . ... : ... .. . ... ...
ROW 20 : ... .. . ... ... ... : ... .. . ... ... ... : ... .. . ... : ... .. . ... : ... .. . ... ...
ROW 21 : ... .. . ... ... ... : ... .. . ... ... ... : ... .. . ... : ... .. . ... : ... .. . ... ...
ROW 22 : ... .. . ... ... ... : ... .. . ... ... ... : ... .. . ... : ... .. . ... : ... .. . ... ...
ROW 23 : ... .. . ... ... ... : ... .. . ... ... ... : ... .. . ... : ... .. . ... : ... .. . ... ...
ROW 24 : ... .. . ... ... ... : ... .. . ... ... ... : ... .. . ... : ... .. . ... : ... .. . ... ...
ROW 25 : ... .. . ... ... ... : ... .. . ... ... ... : ... .. . ... : ... .. . ... : ... .. . ... ...
ROW 26 : ... .. . ... ... ... : ... .. . ... ... ... : ... .. . ... : ... .. . ... : ... .. . ... ...
ROW 27 : ... .. . ... ... ... : ... .. . ... ... ... : ... .. . ... : ... .. . ... : ... .. . ... ...
ROW 28 : ... .. . ... ... ... : ... .. . ... ... ... : ... .. . ... : ... .. . ... : ... .. . ... ...
ROW 29 : ... .. . ... ... ... : ... .. . ... ... ... : ... .. . ... : ... .. . ... : ... .. . ... ...
ROW 2A : ... .. . ... ... ... : ... .. . ... ... ... : ... .. . ... : ... .. . ... : ... .. . ... ...
ROW 2B : ... .. . ... ... ... : ... .. . ... ... ... : ... .. . ... : ... .. . ... : ... .. . ... ...
ROW 2C : ... .. . ... ... ... : ... .. . ... ... ... : ... .. . ... : ... .. . ... : ... .. . ... ...
ROW 2D : ... .. . ... ... ... : ... .. . ... ... ... : ... .. . ... : ... .. . ... : ... .. . ... ...
ROW 2E : ... .. . ... ... ... : ... .. . ... ... ... : ... .. . ... : ... .. . ... : ... .. . ... ...
ROW 2F : ... .. . ... ... ... : ... .. . ... ... ... : ... .. . ... : ... .. . ... : ... .. . ... ...
ROW 30 : ... .. . ... ... ... : ... .. . ... ... ... : ... .. . ... : ... .. . ... : ... .. . ... ...
ROW 31 : ... .. . ... ... ... : ... .. . ... ... ... : ... .. . ... : ... .. . ... : ... .. . ... ...
ROW 32 : ... .. . ... ... ... : ... .. . ... ... ... : ... .. . ... : ... .. . ... : ... .. . ... ...
ROW 33 : ... .. . ... ... ... : ... .. . ... ... ... : ... .. . ... : ... .. . ... : ... .. . ... ...
ROW 34 : ... .. . ... ... ... : ... .. . ... ... ... : ... .. . ... : ... .. . ... : ... .. . ... ...
ROW 35 : ... .. . ... ... ... : ... .. . ... ... ... : ... .. . ... : ... .. . ... : ... .. . ... ...
ROW 36 : ... .. . ... ... ... : ... .. . ... ... ... : ... .. . ... : ... .. . ... : ... .. . ... ...
ROW 37 : ... .. . ... ... ... : ... .. . ... ... ... : ... .. . ... : ... .. . ... : ... .. . ... ...
ROW 38 : ... .. . ... ... ... : ... .. . ... ... ... : ... .. . ... : ... .. . ... : ... .. . ... ...
ROW 39 : ... .. . ... ... ... : ... .. . ... ... ... : ... .. . ... : ... .. . ... : ... .. . ... ...
ROW 3A : ... .. . ... ... ... : ... .. . ... ... ... : ... .. . ... : ... .. . ... : ... .. . ... ...
ROW 3B : ... .. . ... ... ... : ... .. . ... ... ... : ... .. . ... : ... .. . ... : ... .. . ... ...
ROW 3C : ... .. . ... ... ... : ... .. . ... ... ... : ... .. . ... : ... .. . ... : ... .. . ... ...
ROW 3D : ... .. . ... ... ... : ... .. . ... ... ... : ... .. . ... : ... .. . ... : ... .. . ... ...
ROW 3E : ... .. . ... ... ... : ... .. . ... ... ... : ... .. . ... : ... .. . ... : ... .. . ... ...
ROW 3F : ... .. . ... ... ... : ... .. . ... ... ... : ... .. . ... : ... .. . ... : ... .. . ... ...
ROW 40 : ... .. . ... ... ... : ... .. . ... ... ... : ... .. . ... : ... .. . ... : ... .. . ... ...
ROW 41 : ... .. . ... ... ... : ... .. . ... ... ... : ... .. . ... : ... .. . ... : ... .. . ... ...
ROW 42 : ... .. . ... ... ... : ... .. . ... ... ... : ... .. . ... : ... .. . ... : ... .. . ... ...
ROW 43 : ... .. . ... ... ... : ... .. . ... ... ... : ... .. . ... : ... .. . ... : ... .. . ... ...
ROW 44 : ... .. . ... ... ... : ... .. . ... ... ... : ... .. . ... : ... .. . ... : ... .. . ... ...
ROW 45 : ... .. . ... ... ... : ... .. . ... ... ... : ... .. . ... : ... .. . ... : ... .. . ... ...
ROW 46 : ... .. . ... ... ... : ... .. . ... ... ... : ... .. . ... : ... .. . ... : ... .. . ... ...
ROW 47 : ... .. . ... ... ... : ... .. . ... ... ... : ... .. . ... : ... .. . ... : ... .. . ... ...
ROW 48 : ... .. . ... ... ... : ... .. . ... ... ... : ... .. . ... : ... .. . ... : ... .. . ... ...
ROW 49 : ... .. . ... ... ... : ... .. . ... ... ... : ... .. . ... : ... .. . ... : ... .. . ... ...
ROW 4A : ... .. . ... ... ... : ... .. . ... ... ... : ... .. . ... : ... .. . ... : ... .. . ... ...
ROW 4B : ... .. . ... ... ... : ... .. . ... ... ... : ... .. . ... : ... .. . ... : ... .. . ... ...
ROW 4C : ... .. . ... ... ... : ... .. . ... ... ... : ... .. . ... : ... .. . ... : ... .. . ... ...
ROW 4D : ... .. . ... ... ... : ... .. . ... ... ... : ... .. . ... : ... .. . ... : ... .. . ... ...
ROW 4E : ... .. . ... ... ... : ... .. . ... ... ... : ... .. . ... : ... .. . ... : ... .. . ... ...
ROW 4F : ... .. . ... ... ... : ... .. . ... ... ... : ... .. . ... : ... .. . ... : ... .. . ... ...
ROW 50 : ... .. . ... ... ... : ... .. . ... ... ... : ... .. . ... : ... .. . ... : ... .. . ... ...
ROW 51 : ... .. . ... ... ... : ... .. . ... ... ... : ... .. . ... : ... .. . ... : ... .. . ... ...
ROW 52 : ... .. . ... ... ... : ... .. . ... ... ... : ... .. . ... : ... .. . ... : ... .. . ... ...
ROW 53 : ... .. . ... ... ... : ... .. . ... ... ... : ... .. . ... : ... .. . ... : ... .. . ... ...
ROW 54 : ... .. . ... ... ... : ... .. . ... ... ... : ... .. . ... : ... .. . ... : ... .. . ... ...
ROW 55 : ... .. . ... ... ... : ... .. . ... ... ... : ... .. . ... : ... .. . ... : ... .. . ... ...
ROW 56 : ... .. . ... ... ... : ... .. . ... ... ... : ... .. . ... : ... .. . ... : ... .. . ... ...
ROW 57 : ... .. . ... ... ... : ... .. . ... ... ... : ... .. . ... : ... .. . ... : ... .. . ... ...
ROW 58 : ... .. . ... ... ... : ... .. . ... ... ... : ... .. . ... : ... .. . ... : ... .. . ... ...
ROW 59 : ... .. . ... ... ... : ... .. . ... ... ... : ... .. . ... : ... .. . ... : ... .. . ... ...
ROW 5A : ... .. . ... ... ... : ... .. . ... ... ... : ... .. . ... : ... .. . ... : ... .. . ... ...
ROW 5B : ... .. . ... ... ... : ... .. . ... ... ... : ... .. . ... : ... .. . ... : ... .. . ... ...
ROW 5C : ... .. . ... ... ... : ... .. . ... ... ... : ... .. . ... : ... .. . ... : ... .. . ... ...
ROW 5D : ... .. . ... ... ... : ... .. . ... ... ... : ... .. . ... : ... .. . ... : ... .. . ... ...
ROW 5E : ... .. . ... ... ... : ... .. . ... ... ... : ... .. . ... : ... .. . ... : ... .. . ... ...
ROW 5F : ... .. . ... ... ... : ... .. . ... ... ... : ... .. . ... : ... .. . ... : ... .. . ... ...
ROW 60 : ... .. . ... ... ... : ... .. . ... ... ... : ... .. . ... : ... .. . ... : ... .. . ... ...
ROW 61 : ... .. . ... ... ... : ... .. . ... ... ... : ... .. . ... : ... .. . ... : ... .. . ... ...
ROW 62 : ... .. . ... ... ... : ... .. . ... ... ... : ... .. . ... : ... .. . ... : ... .. . ... ...
ROW 63 : ... .. . ... ... ... : ... .. . ... ... ... : ... .. . ... : ... .. . ... : ... .. . ... ...
ROW 64 : ... .. . ... ... ... : ... .. . ... ... ... : ... .. . ... : ... .. . ... : ... .. . ... ...
ROW 65 : ... .. . ... ... ... : ... .. . ... ... ... : ... .. . ... : ... .. . ... : ... .. . ... ...
ROW 66 : ... .. . ... ... ... : ... .. . ... ... ... : ... .. . ... : ... .. . ... : ... .. . ... ...
ROW 67 : ... .. . ... ... ... : ... .. . ... ... ... : ... .. . ... : ... .. . ... : ... .. . ... ...
ROW 68 : ... .. . ... ... ... : ... .. . ... ... ... : ... .. . ... : ... .. . ... : ... .. . ... ...
ROW 69 : ... .. . ... ... ... : ... .. . ... ... ... : ... .. . ... : ... .. . ... : ... .. . ... ...
ROW 6A : ... .. . ... ... ... : ... .. . ... ... ... : ... .. . ... : ... .. . ... : ... .. . ... ...
ROW 6B : ... .. . ... ... ... : ... .. . ... ... ... : ... .. . ... : ... .. . ... : ... .. . ... ...
ROW 6C : ... .. . ... ... ... : ... .. . ... ... ... : ... .. . ... : ... .. . ... : ... .. . ... ...
ROW 6D : ... .. . ... ... ... : ... .. . ... ... ... : ... .. . ... : ... .. . ... : ... .. . ... ...
ROW 6E : ... .. . ... ... ... : ... .. . ... ... ... : ... .. . ... : ... .. . ... : ... .. . ... ...
ROW 6F : ... .. . ... ... ... : ... .. . ... ... ... : ... .. . ... : ... .. . ... : ... .. . ... ...
ROW 70 : ... .. . ... ... ... : ... .. . ... ... ... : ... .. . ... : ... .. . ... : ... .. . ... ...
ROW 71 : ... .. . ... ... ... : ... .. . ... ... ... : ... .. . ... : ... .. . ... : ... .. . ... ...
ROW 72 : ... .. . ... ... ... : ... .. . ... ... ... : ... .. . ... : ... .. . ... : ... .. . ... ...
ROW 73 : ... .. . ... ... ... : ... .. . ... ... ... : ... .. . ... : ... .. . ... : ... .. . ... ...
ROW 74 : ... .. . ... ... ... : ... .. . ... ... ... : ... .. . ... : ... .. . ... : ... .. . ... ...
ROW 75 : ... .. . ... ... ... : ... .. . ... ... ... : ... .. . ... : ... .. . ... : ... .. . ... ...
ROW 76 : ... .. . ... ... ... : ... .. . ... ... ... : ... .. . ... : ... .. . ... : ... .. . ... ...
ROW 77 : ... .. . ... ... ... : ... .. . ... ... ... : ... .. . ... : ... .. . ... : ... .. . ... ...
ROW 78 : ... .. . ... ... ... : ... .. . ... ... ... : ... .. . ... : ... .. . ... : ... .. . ... ...
ROW 79 : ... .. . ... ... ... : ... .. . ... ... ... : ... .. . ... : ... .. . ... : ... .. . ... ...
ROW 7A : ... .. . ... ... ... : ... .. . ... ... ... : ... .. . ... : ... .. . ... : ... .. . ... ...
ROW 7B : ... .. . ... ... ... : ... .. . ... ... ... : ... .. . ... : ... .. . ... : ... .. . ... ...
ROW 7C : ... .. . ... ... ... : ... .. . ... ... ... : ... .. . ... : ... .. . ... : ... .. . ... ...
ROW 7D : ... .. . ... ... ... : ... .. . ... ... ... : ... .. . ... : ... .. . ... : ... .. . ... ...
ROW 7E : ... .. . ... ... ... : ... .. . ... ... ... : ... .. . ... : ... .. . ... : ... .. . ... ...
ROW 7F : ... .. . ... ... ... : ... .. . ... ... ... : ... .. . ... : ... .. . ... : ... .. . ... ...
ROW 80 : ... .. . ... ... ... : ... .. . ... ... ... : ... .. . ... : ... .. . ... : ... .. . ... ...
ROW 81 : ... .. . ... ... ... : ... .. . ... ... ... : ... .. . ... : ... .. . ... : ... .. . ... ...
ROW 82 : ... .. . ... ... ... : ... .. . ... ... ... : ... .. . ... : ... .. . ... : ... .. . ... ...
ROW 83 : ... .. . ... ... ... : ... .. . ... ... ... : ... .. . ... : ... .. . ... : ... .. . ... ...
ROW 84 : ... .. . ... ... ... : ... .. . ... ... ... : ... .. . ... : ... .. . ... : ... .. . ... ...
ROW 85 : ... .. . ... ... ... : ... .. . ... ... ... : ... .. . ... : ... .. . ... : ... .. . ... ...
ROW 86 : ... .. . ... ... ... : ... .. . ... ... ... : ... .. . ... : ... .. . ... : ... .. . ... ...
ROW 87 : ... .. . ... ... ... : ... .. . ... ... ... : ... .. . ... : ... .. . ... : ... .. . ... ...
ROW 88 : ... .. . ... ... ... : ... .. . ... ... ... : ... .. . ... : ... .. . ... : ... .. . ... ...
ROW 89 : ... .. . ... ... ... : ... .. . ... ... ... : ... .. . ... : ... .. . ... : ... .. . ... ...
ROW 8A : ... .. . ... ... ... : ... .. . ... ... ... : ... .. . ... : ... .. . ... : ... .. . ... ...
ROW 8B : ... .. . ... ... ... : ... .. . ... ... ... : ... .. . ... : ... .. . ... : ... .. . ... ...
ROW 8C : ... .. . ... ... ... : ... .. . ... ... ... : ... .. . ... : ... .. . ... : ... .. . ... ...
ROW 8D : ... .. . ... ... ... : ... .. . ... ... ... : ... .. . ... : ... .. . ... : ... .. . ... ...
ROW 8E : ... .. . ... ... ... : ... .. . ... ... ... : ... .. . ... : ... .. . ... : ... .. . ... ...
ROW 8F : ... .. . ... ... ... : ... .. . ... ... ... : ... .. . ... : ... .. . ... : ... .. . ... ...
ROW 90 : ... .. . ... ... ... : ... .. . ... ... ... : ... .. . ... : ... .. . ... : ... .. . ... ...
ROW 91 : ... .. . ... ... ... : ... .. . ... ... ... : ... .. . ... : ... .. . ... : ... .. . ... ...
ROW 92 : ... .. . ... ... ... : ... .. . ... ... ... : ... .. . ... : ... .. . ... : ... .. . ... ...
ROW 93 : ... .. . ... ... ... : ... .. . ... ... ... : ... .. . ... : ... .. . ... : ... .. . ... ...
ROW 94 : ... .. . ... ... ... : ... .. . ... ... ... : ... .. . ... : ... .. . ... : ... .. . ... ...
ROW 95 : ... .. . ... ... ... : ... .. . ... ... ... : ... .. . ... : ... .. . ... : ... .. . ... ...
ROW 96 : ... .. . ... ... ... : ... .. . ... ... ... : ... .. . ... : ... .. . ... : ... .. . ... ...
ROW 97 : ... .. . ... ... ... : ... .. . ... ... ... : ... .. . ... : ... .. . ... : ... .. . ... ...
ROW 98 : ... .. . ... ... ... : ... .. . ... ... ... : ... .. . ... : ... .. . ... : ... .. . ... ...
ROW 99 : ... .. . ... ... ... : ... .. . ... ... ... : ... .. . ... : ... .. . ... : ... .. . ... ...
ROW 9A : ... .. . ... ... ... : ... .. . ... ... ... : ... .. . ... : ... .. . ... : ... .. . ... ...
ROW 9B : ... .. . ... ... ... : ... .. . ... ... ... : ... .. . ... : ... .. . ... : ... .. . ... ...
ROW 9C : ... .. . ... ... ... : ... .. . ... ... ... : ... .. . ... : ... .. . ... : ... .. . ... ...
ROW 9D : ... .. . ... ... ... : ... .. . ... ... ... : ... .. . ... : ... .. . ... : ... .. . ... ...
ROW 9E : ... .. . ... ... ... : ... .. . ... ... ... : ... .. . ... : ... .. . ... : ... .. . ... ...
ROW 9F : ... .. . ... ... ... : ... .. . ... ... ... : ... .. . ... : ... .. . ... : ... .. . ... ...
ROW A0 : ... .. . ... ... ... : ... .. . ... ... ... : ... .. . ... : ... .. . ... : ... .. . ... ...
ROW A1 : ... .. . ... ... ... : ... .. . ... ... ... : ... .. . ... : ... .. . ... : ... .. . ... ...
ROW A2 : ... .. . ... ... ... : ... .. . ... ... ... : ... .. . ... : ... .. . ... : ... .. . ... ...
ROW A3 : ... .. . ... ... ... : ... .. . ... ... ... : ... .. . ... : ... .. . ... : ... .. . ... ...
ROW A4 : ... .. . ... ... ... : ... .. . ... ... ... : ... .. . ... : ... .. . ... : ... .. . ... ...
ROW A5 : ... .. . ... ... ... : ... .. . ... ... ... : ... .. . ... : ... .. . ... : ... .. . ... ...
ROW A6 : ... .. . ... ... ... : ... .. . ... ... ... : ... .. . ... : ... .. . ... : ... .. . ... ...
ROW A7 : ... .. . ... ... ... : ... .. . ... ... ... : ... .. . ... : ... .. . ... : ... .. . ... ...
ROW A8 : ... .. . ... ... ... : ... .. . ... ... ... : ... .. . ... : ... .. . ... : ... .. . ... ...
ROW A9 : ... .. . ... ... ... : ... .. . ... ... ... : ... .. . ... : ... .. . ... : ... .. . ... ...
ROW AA : ... .. . ... ... ... : ... .. . ... ... ... : ... .. . ... : ... .. . ... : ... .. . ... ...
ROW AB : ... .. . ... ... ... : ... .. . ... ... ... : ... .. . ... : ... .. . ... : ... .. . ... ...
ROW AC : ... .. . ... ... ... : ... .. . ... ... ... : ... .. . ... : ... .. . ... : ... .. . ... ...
ROW AD : ... .. . ... ... ... : ... .. . ... ... ... : ... .. . ... : ... .. . ... : ... .. . ... ...
ROW AE : ... .. . ... ... ... : ... .. . ... ... ... : ... .. . ... : ... .. . ... : ... .. . ... ...
ROW AF : ... .. . ... ... ... : ... .. . ... ... ... : ... .. . ... : ... .. . ... : ... .. . ... ...
ROW B0 : ... .. . ... ... ... : ... .. . ... ... ... : ... .. . ... : ... .. . ... : ... .. . ... ...
ROW B1 : ... .. . ... ... ... : ... .. . ... ... ... : ... .. . ... : ... .. . ... : ... .. . ... ...
ROW B2 : ... .. . ... ... ... : ... .. . ... ... ... : ... .. . ... : ... .. . ... : ... .. . ... ...
ROW B3 : ... .. . ... ... ... : ... .. . ... ... ... : ... .. . ... : ... .. . ... : ... .. . ... ...
ROW B4 : ... .. . ... ... ... : ... .. . ... ... ... : ... .. . ... : ... .. . ... : ... .. . ... ...
ROW B5 : ... .. . ... ... ... : ... .. . ... ... ... : ... .. . ... : ... .. . ... : ... .. . ... ...
ROW B6 : ... .. . ... ... ... : ... .. . ... ... ... : ... .. . ... : ... .. . ... : ... .. . ... ...
ROW B7 : ... .. . ... ... ... : ... .. . ... ... ... : ... .. . ... : ... .. . ... : ... .. . ... ...
ROW B8 : ... .. . ... ... ... : ... .. . ... ... ... : ... .. . ... : ... .. . ... : ... .. . ... ...
ROW B9 : ... .. . ... ... ... : ... .. . ... ... ... : ... .. . ... : ... .. . ... : ... .. . ... ...
ROW BA : ... .. . ... ... ... : ... .. . ... ... ... : ... .. . ... : ... .. . ... : ... .. . ... ...
ROW BB : ... .. . ... ... ... : ... .. . ... ... ... : ... .. . ... : ... .. . ... : ... .. . ... ...
ROW BC : ... .. . ... ... ... : ... .. . ... ... ... : ... .. . ... : ... .. . ... : ... .. . ... ...
ROW BD : ... .. . ... ... ... : ... .. . ... ... ... : ... .. . ... : ... .. . ... : ... .. . ... ...
ROW BE : ... .. . ... ... ... : ... .. . ... ... ... : ... .. . ... : ... .. . ... : ... .. . ... ...
ROW BF : ... .. . ... ... ... : ... .. . ... ... ... : ... .. . ... : ... .. . ... : ... .. . ... ...
ROW C0 : ... .. . ... ... ... : ... .. . ... ... ... : ... .. . ... : ... .. . ... : ... .. . ... ...
ROW C1 : ... .. . ... ... ... : ... .. . ... ... ... : ... .. . ... : ... .. . ... : ... .. . ... ...
ROW C2 : ... .. . ... ... ... : ... .. . ... ... ... : ... .. . ... : ... .. . ... : ... .. . ... ...
ROW C3 : ... .. . ... ... ... : ... .. . ... ... ... : ... .. . ... : ... .. . ... : ... .. . ... ...
ROW C4 : ... .. . ... ... ... : ... .. . ... ... ... : ... .. . ... : ... .. . ... : ... .. . ... ...
ROW C5 : ... .. . ... ... ... : ... .. . ... ... ... : ... .. . ... : ... .. . ... : ... .. . ... ...
ROW C6 : ... .. . ... ... ... : ... .. . ... ... ... : ... .. . ... : ... .. . ... : ... .. . ... ...
ROW C7 : ... .. . ... ... ... : ... .. . ... ... ... : ... .. . ... : ... .. . ... : ... .. . ... ...
ROW C8 : ... .. . ... ... ... : ... .. . ... ... ... : ... .. . ... : ... .. . ... : ... .. . ... ...
ROW C9 : ... .. . ... ... ... : ... .. . ... ... ... : ... .. . ... : ... .. . ... : ... .. . ... ...
ROW CA : ... .. . ... ... ... : ... .. . ... ... ... : ... .. . ... : ... .. . ... : ... .. . ... ...
ROW CB : ... .. . ... ... ... : ... .. . ... ... ... : ... .. . ... : ... .. . ... : ... .. . ... ...
ROW CC : ... .. . ... ... ... : ... .. . ... ... ... : ... .. . ... : ... .. . ... : ... .. . ... ...
ROW CD : ... .. . ... ... ... : ... .. . ... ... ... : ... .. . ... : ... .. . ... : ... .. . ... ...
ROW CE : ... .. . ... ... ... : ... .. . ... ... ... : ... .. . ... : ... .. . ... : ... .. . ... ...
ROW CF : ... .. . ... ... ... : ... .. . ... ... ... : ... .. . ... : ... .. . ... : ... .. . ... ...
ROW D0 : ... .. . ... ... ... : ... .. . ... ... ... : ... .. . ... : ... .. . ... : ... .. . ... ...
ROW D1 : ... .. . ... ... ... : ... .. . ... ... ... : ... .. . ... : ... .. . ... : ... .. . ... ...
ROW D2 : ... .. . ... ... ... : ... .. . ... ... ... : ... .. . ... : ... .. . ... : ... .. . ... ...
ROW D3 : ... .. . ... ... ... : ... .. . ... ... ... : ... .. . ... : ... .. . ... : ... .. . ... ...
ROW D4 : ... .. . ... ... ... : ... .. . ... ... ... : ... .. . ... : ... .. . ... : ... .. . ... ...
ROW D5 : ... .. . ... ... ... : ... .. . ... ... ... : ... .. . ... : ... .. . ... : ... .. . ... ...
ROW D6 : ... .. . ... ... ... : ... .. . ... ... ... : ... .. . ... : ... .. . ... : ... .. . ... ...
ROW D7 : ... .. . ... ... ... : ... .. . ... ... ... : ... .. . ... : ... .. . ... : ... .. . ... ...
ROW D8 : ... .. . ... ... ... : ... .. . ... ... ... : ... .. . ... : ... .. . ... : ... .. . ... ...
ROW D9 : ... .. . ... ... ... : ... .. . ... ... ... : ... .. . ... : ... .. . ... : ... .. . ... ...
ROW DA : ... .. . ... ... ... : ... .. . ... ... ... : ... .. . ... : ... .. . ... : ... .. . ... ...
ROW DB : ... .. . ... ... ... : ... .. . ... ... ... : ... .. . ... : ... .. . ... : ... .. . ... ...
ROW DC : ... .. . ... ... ... : ... .. . ... ... ... : ... .. . ... : ... .. . ... : ... .. . ... ...
ROW DD : ... .. . ... ... ... : ... .. . ... ... ... : ... .. . ... : ... .. . ... : ... .. . ... ...
ROW DE : ... .. . ... ... ... : ... .. . ... ... ... : ... .. . ... : ... .. . ... : ... .. . ... ...
ROW DF : ... .. . ... ... ... : ... .. . ... ... ... : ... .. . ... : ... .. . ... : ... .. . ... ...
ROW E0 : ... .. . ... ... ... : ... .. . ... ... ... : ... .. . ... : ... .. . ... : ... .. . ... ...
ROW E1 : ... .. . ... ... ... : ... .. . ... ... ... : ... .. . ... : ... .. . ... : ... .. . ... ...
ROW E2 : ... .. . ... ... ... : ... .. . ... ... ... : ... .. . ... : ... .. . ... : ... .. . ... ...
ROW E3 : ... .. . ... ... ... : ... .. . ... ... ... : ... .. . ... : ... .. . ... : ... .. . ... ...
ROW E4 : ... .. . ... ... ... : ... .. . ... ... ... : ... .. . ... : ... .. . ... : ... .. . ... ...
ROW E5 : ... .. . ... ... ... : ... .. . ... ... ... : ... .. . ... : ... .. . ... : ... .. . ... ...
ROW E6 : ... .. . ... ... ... : ... .. . ... ... ... : ... .. . ... : ... .. . ... : ... .. . ... ...
ROW E7 : ... .. . ... ... ... : ... .. . ... ... ... : ... .. . ... : ... .. . ... : ... .. . ... ...
ROW E8 : ... .. . ... ... ... : ... .. . ... ... ... : ... .. . ... : ... .. . ... : ... .. . ... ...
ROW E9 : ... .. . ... ... ... : ... .. . ... ... ... : ... .. . ... : ... .. . ... : ... .. . ... ...
ROW EA : ... .. . ... ... ... : ... .. . ... ... ... : ... .. . ... : ... .. . ... : ... .. . ... ...
ROW EB : ... .. . ... ... ... : ... .. . ... ... ... : ... .. . ... : ... .. . ... : ... .. . ... ...
ROW EC : ... .. . ... ... ... : ... .. . ... ... ... : ... .. . ... : ... .. . ... : ... .. . ... ...
ROW ED : ... .. . ... ... ... : ... .. . ... ... ... : ... .. . ... : ... .. . ... : ... .. . ... ...
ROW EE : ... .. . ... ... ... : ... .. . ... ... ... : ... .. . ... : ... .. . ... : ... .. . ... ...
ROW EF : ... .. . ... ... ... : ... .. . ... ... ... : ... .. . ... : ... .. . ... : ... .. . ... ...
ROW F0 : ... .. . ... ... ... : ... .. . ... ... ... : ... .. . ... : ... .. . ... : ... .. . ... ...
ROW F1 : ... .. . ... ... ... : ... .. . ... ... ... : ... .. . ... : ... .. . ... : ... .. . ... ...
ROW F2 : ... .. . ... ... ... : ... .. . ... ... ... : ... .. . ... : ... .. . ... : ... .. . ... ...
ROW F3 : ... .. . ... ... ... : ... .. . ... ... ... : ... .. . ... : ... .. . ... : ... .. . ... ...
ROW F4 : ... .. . ... ... ... : ... .. . ... ... ... : ... .. . ... : ... .. . ... : ... .. . ... ...
ROW F5 : ... .. . ... ... ... : ... .. . ... ... ... : ... .. . ... : ... .. . ... : ... .. . ... ...
ROW F6 : ... .. . ... ... ... : ... .. . ... ... ... : ... .. . ... : ... .. . ... : ... .. . ... ...
ROW F7 : ... .. . ... ... ... : ... .. . ... ... ... : ... .. . ... : ... .. . ... : ... .. . ... ...
ROW F8 : ... .. . ... ... ... : ... .. . ... ... ... : ... .. . ... : ... .. . ... : ... .. . ... ...
ROW F9 : ... .. . ... ... ... : ... .. . ... ... ... : ... .. . ... : ... .. . ... : ... .. . ... ...
ROW FA : ... .. . ... ... ... : ... .. . ... ... ... : ... .. . ... : ... .. . ... : ... .. . ... ...
ROW FB : ... .. . ... ... ... : ... .. . ... ... ... : ... .. . ... : ... .. . ... : ... .. . ... ...
ROW FC : ... .. . ... ... ... : ... .. . ... ... ... : ... .. . ... : ... .. . ... : ... .. . ... ...
ROW FD : ... .. . ... ... ... : ... .. . ... ... ... : ... .. . ... : ... .. . ... : ... .. . ... ...
ROW FE : ... .. . ... ... ... : ... .. . ... ... ... : ... .. . ... : ... .. . ... : ... .. . ... ...
ROW FF : ... .. . ... ... ... : ... .. . ... ... ... : ... .. . ... : ... .. . ... : ... .. . ... ...

# End of export
