0
SECTION
2
HEADER
9
$INSUNITS
70
1
9
$ACADVER
1
AC1014
9
$HANDSEED
5
FFFF
0
ENDSEC
0
SECTION
2
TABLES
0
TABLE
2
VPORT
5
8
100
AcDbSymbolTable
0
ENDTAB
0
TABLE
2
LTYPE
5
5
100
AcDbSymbolTable
0
LTYPE
5
14
100
AcDbSymbolTableRecord
100
AcDbLinetypeTableRecord
2
BYBLOCK
70
0
0
LTYPE
5
15
100
AcDbSymbolTableRecord
100
AcDbLinetypeTableRecord
2
BYLAYER
70
0
0
ENDTAB
0
TABLE
2
LAYER
5
2
100
AcDbSymbolTable
70
2
0
LAYER
5
50
100
AcDbSymbolTableRecord
100
AcDbLayerTableRecord
2
0
70
0
6
CONTINUOUS
0
ENDTAB
0
TABLE
2
STYLE
5
3
100
AcDbSymbolTable
70
1
0
STYLE
5
11
100
AcDbSymbolTableRecord
100
AcDbTextStyleTableRecord
2
STANDARD
70
0
0
ENDTAB
0
TABLE
2
VIEW
5
6
100
AcDbSymbolTable
70
0
0
ENDTAB
0
TABLE
2
UCS
5
7
100
AcDbSymbolTable
70
0
0
ENDTAB
0
TABLE
2
APPID
5
9
100
AcDbSymbolTable
70
2
0
APPID
5
12
100
AcDbSymbolTableRecord
100
AcDbRegAppTableRecord
2
ACAD
70
0
0
ENDTAB
0
TABLE
2
DIMSTYLE
5
A
100
AcDbSymbolTable
70
1
0
ENDTAB
0
TABLE
2
BLOCK_RECORD
5
1
100
AcDbSymbolTable
70
1
0
BLOCK_RECORD
5
1F
100
AcDbSymbolTableRecord
100
AcDbBlockTableRecord
2
*MODEL_SPACE
0
BLOCK_RECORD
5
1B
100
AcDbSymbolTableRecord
100
AcDbBlockTableRecord
2
*PAPER_SPACE
0
ENDTAB
0
ENDSEC
0
SECTION
2
BLOCKS
0
BLOCK
5
20
100
AcDbEntity
100
AcDbBlockBegin
2
*MODEL_SPACE
0
ENDBLK
5
21
100
AcDbEntity
100
AcDbBlockEnd
0
BLOCK
5
1C
100
AcDbEntity
100
AcDbBlockBegin
2
*PAPER_SPACE
0
ENDBLK
5
1D
100
AcDbEntity
100
AcDbBlockEnd
0
ENDSEC
0
SECTION
2
ENTITIES
0
SPLINE
5
100
100
AcDbEntity
8
0
100
AcDbSpline
70
4
71
3
72
23
73
19
74
0
42
0.000000001
43
0.0000000001
44
0.0000000001
40
-4.4408920985006153e-16
40
-4.4408920985006153e-16
40
-4.4408920985006153e-16
40
-4.4408920985006153e-16
40
0.086629205950953331
40
0.086629205950953331
40
0.2037865355207501
40
0.2037865355207501
40
0.29055463768631024
40
0.29055463768631024
40
0.36025886392591405
40
0.36025886392591405
40
0.36025886392591405
40
0.42996309016551787
40
0.42996309016551787
40
0.53136064318443421
40
0.53136064318443421
40
0.64060302000960334
40
0.64060302000960334
40
0.7205177278518281
40
0.7205177278518281
40
0.7205177278518281
40
0.7205177278518281
41
1
41
1
41
1
41
1
41
1
41
1
41
1
41
1
41
1
41
1
41
1
41
1
41
1
41
1
41
1
41
1
41
1
41
1
41
1
10
-0.92500012486806926
20
-0.7850057118713295
30
0
10
-0.9111457365956348
20
-0.7850057118713295
30
0
10
-0.89743194732453546
20
-0.78241191331715654
30
0
10
-0.86708267540502115
20
-0.77036791217640732
30
0
10
-0.85158898709097752
20
-0.75895190415864611
30
0
10
-0.8310421740154551
20
-0.73379476701446922
30
0
10
-0.82429504642758589
20
-0.72136709834227575
30
0
10
-0.81676004647501876
20
-0.69759508698686479
30
0
10
-0.81503922122852734
20
-0.68652398795277469
30
0
10
-0.81500105005576218
20
-0.6753810263950496
30
0
10
-0.8149628788829969
20
-0.6642380648373245
30
0
10
-0.8166053727571394
20
-0.65312713176164583
30
0
10
-0.82473261740801329
20
-0.62693212185105018
30
0
10
-0.83305638447886543
20
-0.61253346953819054
30
0
10
-0.85591603919680603
20
-0.58768935138866152
30
0
10
-0.8708085541205236
20
-0.57769152628452158
30
0
10
-0.89934615811951224
20
-0.56724950465019019
30
0
10
-0.91218932939247643
20
-0.56499947272202411
30
0
10
-0.92500012486806926
20
-0.56499947272202411
30
0
0
SPLINE
5
101
100
AcDbEntity
8
0
100
AcDbSpline
70
4
71
3
72
23
73
19
74
0
42
0.000000001
43
0.0000000001
44
0.0000000001
40
4.4408920985005675e-16
40
4.4408920985005675e-16
40
4.4408920985005675e-16
40
4.4408920985005675e-16
40
0.086142777192217634
40
0.086142777192217634
40
0.20337313154677006
40
0.20337313154677006
40
0.29049397503535546
40
0.29049397503535546
40
0.36019789045456096
40
0.36019789045456096
40
0.36019789045456096
40
0.42990180587376647
40
0.42990180587376647
40
0.53176494197728297
40
0.53176494197728297
40
0.64099862978779321
40
0.64099862978779321
40
0.72039578090912193
40
0.72039578090912193
40
0.72039578090912193
40
0.72039578090912193
41
1
41
1
41
1
41
1
41
1
41
1
41
1
41
1
41
1
41
1
41
1
41
1
41
1
41
1
41
1
41
1
41
1
41
1
41
1
10
-0.92500012486806926
20
-0.56499947272202411
30
0
10
-0.93877604434298378
20
-0.56499947272202411
30
0
10
-0.95241354234526576
20
-0.567563405800109
30
0
10
-0.98272298515908141
20
-0.57951582141518398
30
0
10
-0.99825320967511544
20
-0.59091169190922388
30
0
10
-1.018886868025968
20
-0.61608697652832067
30
0
10
-1.0256736955142067
20
-0.62856010886152192
30
0
10
-1.0332296027241155
20
-0.65238450222343003
30
0
10
-1.0349522156877358
20
-0.66345455253817709
30
0
10
-1.0349923490467645
20
-0.67459774279119833
30
0
10
-1.0350324824057933
20
-0.68574093304421968
30
0
10
-1.0333925949289573
20
-0.69685483483004762
30
0
10
-1.0252469670429174
20
-0.72313104133766193
30
0
10
-1.0168698134619956
20
-0.73759581509617234
30
0
10
-0.99390322700444511
20
-0.76246020549363247
30
0
10
-0.97898591282479186
20
-0.77243011662538097
30
0
10
-0.95049544145424725
20
-0.78278440278216832
30
0
10
-0.93773134733563479
20
-0.7850057118713295
30
0
10
-0.92500012486806926
20
-0.7850057118713295
30
0
0
LWPOLYLINE
5
102
100
AcDbEntity
8
0
100
AcDbPolyline
90
4
70
1
43
0.0
10
-0.149999999999995
20
-0.32000000000000378
42
0.99999999999999989
10
-0.14999999999999497
20
-0.13000000000000378
10
-0.49999999999999489
20
-0.13000000000000375
42
0.99999999999999989
10
-0.49999999999999489
20
-0.32000000000000378
0
CIRCLE
5
103
100
AcDbEntity
8
0
100
AcDbCircle
10
-0.64999999999998348
20
0.4749999999999911
30
0
40
0.19499999999999992
210
0
220
-0
230
1
0
CIRCLE
5
104
100
AcDbEntity
8
0
100
AcDbCircle
10
-0.29999999999998606
20
0.72499999999999098
30
0
40
0.19499999999999992
210
0
220
-0
230
1
0
CIRCLE
5
105
100
AcDbEntity
8
0
100
AcDbCircle
10
-0.99999999999995515
20
0.22499999999999115
30
0
40
0.19499999999999992
210
0
220
-0
230
1
0
LWPOLYLINE
5
106
100
AcDbEntity
8
0
100
AcDbPolyline
90
4
70
1
43
0.0
10
0.1500000000000139
20
-0.13000000000000378
42
0.99999999999999989
10
0.1500000000000139
20
-0.32000000000000378
10
0.50000000000001377
20
-0.32000000000000384
42
0.99999999999999989
10
0.50000000000001377
20
-0.13000000000000375
0
LWPOLYLINE
5
107
100
AcDbEntity
8
0
100
AcDbPolyline
90
24
70
1
43
0.0
10
0.70000000000002127
20
0.055000000000003754
42
0.41421356237309509
10
0.79500000000002136
20
0.15000000000000382
10
0.79500000000002125
20
0.27500000000000374
42
-0.4142135623730932
10
0.85000000000002141
20
0.33000000000000385
10
0.97500000000002129
20
0.33000000000000385
42
0.41421356237309503
10
1.0700000000000212
20
0.42500000000000376
10
1.0700000000000212
20
0.5250000000000038
42
0.41421356237309503
10
0.97500000000002118
20
0.62000000000000366
10
0.85000000000002141
20
0.62000000000000355
42
-0.41421356237309415
10
0.79500000000002125
20
0.67500000000000382
10
0.79500000000002125
20
0.80000000000000382
42
0.41421356237309503
10
0.70000000000002127
20
0.89500000000000368
10
0.60000000000002152
20
0.89500000000000368
42
0.41421356237309503
10
0.50500000000002154
20
0.80000000000000382
10
0.50500000000002132
20
0.67500000000000382
42
-0.41421356237309415
10
0.45000000000002138
20
0.62000000000000388
10
0.32500000000002138
20
0.62000000000000377
42
0.41421356237309503
10
0.23000000000002138
20
0.5250000000000038
10
0.23000000000002138
20
0.42500000000000376
42
0.41421356237309515
10
0.32500000000002138
20
0.33000000000000379
10
0.45000000000002138
20
0.33000000000000368
42
-0.41421356237309503
10
0.50500000000002132
20
0.27500000000000369
10
0.50500000000002132
20
0.15000000000000382
42
0.41421356237309509
10
0.60000000000002152
20
0.055000000000003726
0
LINE
5
108
100
AcDbEntity
8
0
100
AcDbLine
10
-0.94999999999999507
20
-1.7450000000000043
30
0
11
0.95000000000000706
21
-1.7450000000000043
31
0
0
SPLINE
5
109
100
AcDbEntity
8
0
100
AcDbSpline
70
4
71
3
72
15
73
11
74
0
42
0.000000001
43
0.0000000001
44
0.0000000001
40
9
40
9
40
9
40
9
40
9.3048138542146077
40
9.3048138542146077
40
9.5
40
9.5
40
9.5
40
9.6951861457853923
40
9.6951861457853923
40
10
40
10
40
10
40
10
41
1
41
1
41
1
41
1
41
1
41
1
41
1
41
1
41
1
41
1
41
1
10
1.2700000000000071
20
-1.4250000000000043
30
0
10
1.2700000000000071
20
-1.4785474506611722
30
0
10
1.2566900532910701
20
-1.5292386260385848
30
0
10
1.218090914672147
20
-1.6025310183923271
30
0
10
1.1988255097401319
20
-1.6286383294937004
30
0
10
1.1762484917242779
20
-1.6512671010392752
30
0
10
1.1536714737084237
20
-1.6738958725848498
30
0
10
1.1277787499372973
20
-1.6930384264602478
30
0
10
1.0544737505404789
20
-1.731633877870177
30
0
10
1.0035246058012997
20
-1.7450000000000043
30
0
10
0.95000000000000739
20
-1.7450000000000043
30
0
0
LINE
5
110
100
AcDbEntity
8
0
100
AcDbLine
10
1.2700000000000071
20
-1.4250000000000043
30
0
11
1.2700000000000071
21
0.86999999999998756
31
0
0
SPLINE
5
111
100
AcDbEntity
8
0
100
AcDbSpline
70
4
71
3
72
20
73
16
74
0
42
0.000000001
43
0.0000000001
44
0.0000000001
40
0
40
0
40
0
40
0
40
0.32638086831847418
40
0.32638086831847418
40
0.52213029098842223
40
0.52213029098842223
40
0.52213029098842223
40
0.71787971365837033
40
0.71787971365837033
40
0.8810701478176074
40
0.8810701478176074
40
1
40
1
40
1
40
1.0442605819768445
40
1.0442605819768445
40
1.0442605819768445
40
1.0442605819768445
41
1
41
1
41
1
41
1
41
1
41
1
41
1
41
1
41
1
41
1
41
1
41
1
41
1
41
1
41
1
41
1
10
0.45000000000000756
20
1.7450000000000043
30
0
10
0.5975069241991533
20
1.7450000000000043
30
0
10
0.73608941962829233
20
1.7058917440919972
30
0
10
0.92790292560744936
20
1.596408513904966
30
0
10
0.99305181243490803
20
1.5448028862732548
30
0
10
1.0491748048325755
20
1.4847990551216934
30
0
10
1.1052977972302434
20
1.4247952239701318
30
0
10
1.1524304611406118
20
1.3563197185234139
30
0
10
1.2187589249540203
20
1.2190002323121758
30
0
10
1.2412591111511868
20
1.1521761374484463
30
0
10
1.2647956289338389
20
1.0313280160074243
30
0
10
1.2700000000000071
20
0.97874623980809816
30
0
10
1.2700000000000071
20
0.92499999999999238
30
0
10
1.2700000000000071
20
0.90666666666665729
30
0
10
1.2700000000000071
20
0.88833333333332221
30
0
10
1.2700000000000071
20
0.86999999999998712
30
0
0
LINE
5
112
100
AcDbEntity
8
0
100
AcDbLine
10
0.45000000000000756
20
1.7450000000000043
30
0
11
-0.44999999999998225
21
1.7450000000000043
31
0
0
SPLINE
5
113
100
AcDbEntity
8
0
100
AcDbSpline
70
4
71
3
72
22
73
18
74
0
42
0.000000001
43
0.0000000001
44
0.0000000001
40
19.955739418023157
40
19.955739418023157
40
19.955739418023157
40
19.955739418023157
40
20
40
20
40
20
40
20.118739634996182
40
20.118739634996182
40
20.281739851969206
40
20.281739851969206
40
20.477869709011578
40
20.477869709011578
40
20.477869709011578
40
20.673999566053951
40
20.673999566053951
40
20.836999783026975
40
20.836999783026975
40
21
40
21
40
21
40
21
41
1
41
1
41
1
41
1
41
1
41
1
41
1
41
1
41
1
41
1
41
1
41
1
41
1
41
1
41
1
41
1
41
1
41
1
10
-1.269999999999994
20
0.86999999999998878
30
0
10
-1.269999999999994
20
0.88833333333332332
30
0
10
-1.269999999999994
20
0.90666666666665785
30
0
10
-1.269999999999994
20
0.92499999999999238
30
0
10
-1.269999999999994
20
0.97866404724961631
30
0
10
-1.2648182021476098
20
1.0311310625944639
30
0
10
-1.2413700103192737
20
1.1517281053641986
30
0
10
-1.2189433904724174
20
1.2184103313500301
30
0
10
-1.1526718850240423
20
1.3557894654957015
30
0
10
-1.1053942320432677
20
1.4245414475829892
30
0
10
-1.049188601353048
20
1.4847470764943165
30
0
10
-0.99298297066282848
20
1.5449527054056438
30
0
10
-0.92788495074403665
20
1.5965591271137187
30
0
10
-0.79591514875798008
20
1.6717835535362413
30
0
10
-0.73126920312881849
20
1.6986212527311713
30
0
10
-0.59514154231353844
20
1.7352263927405323
30
0
10
-0.52366231933735319
20
1.7450000000000043
30
0
10
-0.44999999999998241
20
1.7450000000000043
30
0
0
LINE
5
114
100
AcDbEntity
8
0
100
AcDbLine
10
-1.269999999999994
20
0.86999999999998878
30
0
11
-1.269999999999994
21
-1.425000000000004
31
0
0
SPLINE
5
115
100
AcDbEntity
8
0
100
AcDbSpline
70
4
71
3
72
15
73
11
74
0
42
0.000000001
43
0.0000000001
44
0.0000000001
40
11
40
11
40
11
40
11
40
11.304813854214578
40
11.304813854214578
40
11.5
40
11.5
40
11.5
40
11.695186145785422
40
11.695186145785422
40
12
40
12
40
12
40
12
41
1
41
1
41
1
41
1
41
1
41
1
41
1
41
1
41
1
41
1
41
1
10
-0.94999999999999474
20
-1.7450000000000043
30
0
10
-1.0035474506611564
20
-1.7450000000000043
30
0
10
-1.0542386260385628
20
-1.7316900532910686
30
0
10
-1.1275310183923049
20
-1.6930909146721465
30
0
10
-1.1536383294936816
20
-1.6738255097401284
30
0
10
-1.1762671010392602
20
-1.6512484917242707
30
0
10
-1.1988958725848389
20
-1.6286714737084129
30
0
10
-1.2180384264602393
20
-1.6027787499372819
30
0
10
-1.2566338778701678
20
-1.5294737505404623
30
0
10
-1.269999999999994
20
-1.4785246058012902
30
0
10
-1.269999999999994
20
-1.4250000000000043
30
0
0
LWPOLYLINE
5
116
100
AcDbEntity
8
0
100
AcDbPolyline
90
8
70
1
43
0.0
10
1.0566220000000071
20
-0.40176400000000362
10
1.0566220000000071
20
-0.90235515848591263
10
1.172500146399291
20
-0.90235515848591263
10
1.172500146399291
20
-1.522363839041468
10
1.0566220000000071
20
-1.522363839041468
10
1.0566220000000071
20
-1.6482360000000007
10
-0.76103099999999457
20
-1.6482360000000007
10
-0.76103099999999424
20
-0.40176400000000356
0
SPLINE
5
117
100
AcDbEntity
8
0
100
AcDbSpline
70
4
71
3
72
23
73
19
74
0
42
0.000000001
43
0.0000000001
44
0.0000000001
40
0
40
0
40
0
40
0
40
0.086283150208883816
40
0.086283150208883816
40
0.20346722635778347
40
0.20346722635778347
40
0.29052440724774553
40
0.29052440724774553
40
0.36020497302183924
40
0.36020497302183924
40
0.36020497302183924
40
0.42988553879593294
40
0.42988553879593294
40
0.53176779114956507
40
0.53176779114956507
40
0.64096372844476235
40
0.64096372844476235
40
0.72040994604367847
40
0.72040994604367847
40
0.72040994604367847
40
0.72040994604367847
41
1
41
1
41
1
41
1
41
1
41
1
41
1
41
1
41
1
41
1
41
1
41
1
41
1
41
1
41
1
41
1
41
1
41
1
41
1
10
-0.92500012486806926
20
-1.6350016428609118
30
0
10
-0.91120108040911063
20
-1.6350016428609118
30
0
10
-0.89754147447254595
20
-1.6324285424295215
30
0
10
-0.86722484956568202
20
-1.6204510702293959
30
0
10
-0.85170841273574671
20
-1.6090538325109254
30
0
10
-0.83109425506673373
20
-1.5838861931325445
30
0
10
-0.82431426145144127
20
-1.5714213338726011
30
0
10
-0.81676321543214681
20
-1.5476093409740619
30
0
10
-0.8150411513129282
20
-1.536542543023659
30
0
10
-0.81500111568483269
20
-1.5254023946484683
30
0
10
-0.81496108005673717
20
-1.5142622462732778
30
0
10
-0.81660060842378723
20
-1.5031517718777554
30
0
10
-0.82474560978464895
20
-1.4768756668274627
30
0
10
-0.83312511538562517
20
-1.4624086683820763
30
0
10
-0.85608986221148842
20
-1.437548421711647
30
0
10
-0.8709997510787425
20
-1.4275813130759059
30
0
10
-0.89948867393638754
20
-1.4172201195922811
30
0
10
-0.91226051892661308
20
-1.4149954037116066
30
0
10
-0.92500012486806926
20
-1.4149954037116066
30
0
0
SPLINE
5
118
100
AcDbEntity
8
0
100
AcDbSpline
70
4
71
3
72
23
73
19
74
0
42
0.000000001
43
0.0000000001
44
0.0000000001
40
0
40
0
40
0
40
0
40
0.086489874792528523
40
0.086489874792528523
40
0.20369311857833533
40
0.20369311857833533
40
0.29052416639157896
40
0.29052416639157896
40
0.36025175163910006
40
0.36025175163910006
40
0.36025175163910006
40
0.42997933688662116
40
0.42997933688662116
40
0.53135887298765017
40
0.53135887298765017
40
0.64063875361657585
40
0.64063875361657585
40
0.72050350327820012
40
0.72050350327820012
40
0.72050350327820012
40
0.72050350327820012
41
1
41
1
41
1
41
1
41
1
41
1
41
1
41
1
41
1
41
1
41
1
41
1
41
1
41
1
41
1
41
1
41
1
41
1
41
1
10
-0.92500012486806926
20
-1.4149954037116066
30
0
10
-0.93883155205642921
20
-1.4149954037116066
30
0
10
-0.95252340057688145
20
-1.417580057706995
30
0
10
-0.9828655904980842
20
-1.4295991450929844
30
0
10
-0.99837297074829434
20
-1.441013841185627
30
0
10
-1.0189390660750757
20
-1.4661785831803558
30
0
10
-1.025692940222249
20
-1.4786144341529637
30
0
10
-1.0332327686351235
20
-1.5023987388736166
30
0
10
-1.0349541443105994
20
-1.513473090890884
30
0
10
-1.0349924147690461
20
-1.5246190955354413
30
0
10
-1.0350306852274929
20
-1.5357651001799986
30
0
10
-1.033387833213768
20
-1.5468794627295479
30
0
10
-1.0252599121252071
20
-1.5730747509834357
30
0
10
-1.0169383601986466
20
-1.5874713172463615
30
0
10
-0.99407667170585423
20
-1.6123195792074043
30
0
10
-0.97917673442245901
20
-1.6223201455722982
30
0
10
-0.9506376836357876
20
-1.6327550892928748
30
0
10
-0.93780239566847556
20
-1.6350016428609118
30
0
10
-0.92500012486806937
20
-1.6350016428609118
30
0
0
CIRCLE
5
119
100
AcDbEntity
8
0
100
AcDbCircle
10
-0.78115228838168327
20
1.1660401739072399
30
0
40
0.29527559055118108
210
0
220
-0
230
1
0
ELLIPSE
5
120
100
AcDbEntity
8
0
100
AcDbEllipse
10
-2.2397706346641488
20
4.2358447792039025
30
0
11
-3.2307379355780634
21
3.0080996168876761
31
0.0
40
0.072591228750018819
41
3.090305317505071
42
3.1401157393608976
0
SPLINE
5
121
100
AcDbEntity
8
0
100
AcDbSpline
70
0
71
3
72
8
73
4
74
0
42
0.000000001
43
0.0000000001
44
0.0000000001
40
0
40
0
40
0
40
0
40
1
40
1
40
1
40
1
10
0.97552490234374989
20
1.2196777343749998
30
0
10
0.98093668619791652
20
1.2162665473090279
30
0
10
0.98508707682291663
20
1.2120279947916668
30
0
10
0.98797607421875
20
1.206948513454861
30
0
0
SPLINE
5
122
100
AcDbEntity
8
0
100
AcDbSpline
70
0
71
3
72
13
73
9
74
0
42
0.000000001
43
0.0000000001
44
0.0000000001
40
1
40
1
40
1
40
1
40
2
40
2
40
2
40
3
40
3
40
4
40
4
40
4
40
4
10
0.98797607421875
20
1.206948513454861
30
0
10
0.99086507161458304
20
1.2018758138020829
30
0
10
0.99230957031249989
20
1.1962605794270831
30
0
10
0.99230957031249989
20
1.1901095920138889
30
0
10
0.99230957031249989
20
1.1844740125868061
30
0
10
0.9909600151909721
20
1.1791029188368058
30
0
10
0.98554823133680547
20
1.1688761393229168
30
0
10
0.98175048828125
20
1.164542643229167
30
0
10
0.97686089409722221
20
1.1609822591145829
30
0
0
SPLINE
5
123
100
AcDbEntity
8
0
100
AcDbSpline
70
0
71
3
72
8
73
4
74
0
42
0.000000001
43
0.0000000001
44
0.0000000001
40
4
40
4
40
4
40
4
40
5
40
5
40
5
40
5
10
0.97686089409722221
20
1.1609822591145829
30
0
10
0.97218831380208304
20
1.1576524522569438
30
0
10
0.96635606553819431
20
1.1552992078993058
30
0
10
0.9593505859375
20
1.1539225260416668
30
0
0
SPLINE
5
124
100
AcDbEntity
8
0
100
AcDbSpline
70
0
71
3
72
8
73
4
74
0
42
0.000000001
43
0.0000000001
44
0.0000000001
40
5
40
5
40
5
40
5
40
6
40
6
40
6
40
6
10
0.9593505859375
20
1.1539225260416668
30
0
10
0.95235188802083304
20
1.1525526258680561
30
0
10
0.9399956597222221
20
1.15186767578125
30
0
10
0.92228190104166652
20
1.15186767578125
30
0
0
LINE
5
125
100
AcDbEntity
8
0
100
AcDbLine
10
0.92228190104166674
20
1.15186767578125
30
0
11
0.88515218098958326
21
1.15186767578125
31
0
0
LINE
5
126
100
AcDbEntity
8
0
100
AcDbLine
10
0.88515218098958326
20
1.15186767578125
30
0
11
0.88882107204861094
21
1.1753255208333331
31
0
0
LINE
5
127
100
AcDbEntity
8
0
100
AcDbLine
10
0.88882107204861094
20
1.1753255208333331
30
0
11
0.9047173394093988
21
1.1751017252613241
31
0
0
ELLIPSE
5
128
100
AcDbEntity
8
0
100
AcDbEllipse
10
6.0948153598557813
20
-4.23506063486606
30
0
11
5.1908255529894971
21
-5.4317038681553385
31
0.0
40
0.029226403129559892
41
3.1886581379753407
42
3.2070218903135572
0
SPLINE
5
129
100
AcDbEntity
8
0
100
AcDbSpline
70
0
71
3
72
11
73
7
74
0
42
0.000000001
43
0.0000000001
44
0.0000000001
40
10
40
10
40
10
40
10
40
11
40
11
40
11
40
12
40
12
40
12
40
12
10
0.90226915147569431
20
1.1834906684027782
30
0
10
0.90175374348958304
20
1.1859795464409717
30
0
10
0.90149603949652746
20
1.1882581922743058
30
0
10
0.90149603949652746
20
1.1903333875868061
30
0
10
0.90149603949652746
20
1.2014485677083329
30
0
10
0.90573459201388884
20
1.2106377495659717
30
0
10
0.91421847873263873
20
1.2179009331597217
30
0
0
SPLINE
5
130
100
AcDbEntity
8
0
100
AcDbSpline
70
0
71
3
72
11
73
7
74
0
42
0.000000001
43
0.0000000001
44
0.0000000001
40
12
40
12
40
12
40
12
40
13
40
13
40
13
40
14
40
14
40
14
40
14
10
0.91421847873263873
20
1.2179009331597217
30
0
10
0.92270914713541652
20
1.2251641167534719
30
0
10
0.93365478515624989
20
1.2287923177083329
30
0
10
0.94706895616319431
20
1.2287923177083329
30
0
10
0.94751654730902757
20
1.2287923177083329
30
0
10
0.94860839843749989
20
1.228751627604167
30
0
10
0.95035129123263873
20
1.2286770290798608
30
0
0
SPLINE
5
131
100
AcDbEntity
8
0
100
AcDbSpline
70
0
71
3
72
11
73
7
74
0
42
0.000000001
43
0.0000000001
44
0.0000000001
40
14
40
14
40
14
40
14
40
15
40
15
40
15
40
16
40
16
40
16
40
16
10
0.95035129123263873
20
1.2286770290798608
30
0
10
0.95208740234374989
20
1.2286092122395829
30
0
10
0.9536675347222221
20
1.2285685221354168
30
0
10
0.9550713433159721
20
1.2285685221354168
30
0
10
0.95825873480902757
20
1.2285685221354168
30
0
10
0.96072726779513884
20
1.2290907118055558
30
0
10
0.96246337890625
20
1.2301283094618061
30
0
0
SPLINE
5
132
100
AcDbEntity
8
0
100
AcDbSpline
70
0
71
3
72
11
73
7
74
0
42
0.000000001
43
0.0000000001
44
0.0000000001
40
16
40
16
40
16
40
16
40
17
40
17
40
17
40
18
40
18
40
18
40
18
10
0.96246337890625
20
1.2301283094618061
30
0
10
0.96420627170138873
20
1.2311659071180558
30
0
10
0.96507432725694431
20
1.2326104058159717
30
0
10
0.96507432725694431
20
1.2344618055555558
30
0
10
0.96507432725694431
20
1.2374254014756938
30
0
10
0.95870632595486083
20
1.2399481879340282
30
0
10
0.94595675998263884
20
1.2420166015624998
30
0
0
ELLIPSE
5
133
100
AcDbEntity
8
0
100
AcDbEllipse
10
0.96983985693592689
20
1.2396900298430498
30
0
11
-0.036628867201533903
21
0.0048163949133115946
31
0.0
40
0.028714003814190828
41
0.51836418661889705
42
0.86432015141424812
0
ELLIPSE
5
134
100
AcDbEntity
8
0
100
AcDbEllipse
10
6.3406729247174223
20
4.4151322968806568
30
0
11
-5.4356128337922938
21
-3.1531817054012605
31
0.0
40
0.066536916702169061
41
0.021854607179517111
42
0.078030791689339657
0
SPLINE
5
135
100
AcDbEntity
8
0
100
AcDbSpline
70
0
71
3
72
11
73
7
74
0
42
0.000000001
43
0.0000000001
44
0.0000000001
40
20
40
20
40
20
40
20
40
21
40
21
40
21
40
22
40
22
40
22
40
22
10
0.9109429253472221
20
1.2548000759548608
30
0
10
0.90479193793402757
20
1.2602864583333329
30
0
10
0.90171305338541663
20
1.2671766493055561
30
0
10
0.90171305338541663
20
1.2754774305555561
30
0
10
0.90171305338541663
20
1.2865926106770829
30
0
10
0.90646023220486083
20
1.2950968424479168
30
0
10
0.91594102647569442
20
1.3009901258680561
30
0
0
SPLINE
5
136
100
AcDbEntity
8
0
100
AcDbSpline
70
0
71
3
72
16
73
12
74
0
42
0.000000001
43
0.0000000001
44
0.0000000001
40
22
40
22
40
22
40
22
40
23
40
23
40
23
40
24
40
24
40
25
40
25
40
25
40
26
40
26
40
26
40
26
10
0.91594102647569442
20
1.3009901258680561
30
0
10
0.92542860243055547
20
1.3068834092881938
30
0
10
0.93906656901041652
20
1.3098266601562498
30
0
10
0.95684814453125
20
1.3098266601562498
30
0
10
0.97323269314236094
20
1.3098266601562498
30
0
10
0.98594156901041652
20
1.3075683593749998
30
0
10
1.0040215386284721
20
1.298521592881944
30
0
10
1.0085381401909721
20
1.2922281901041668
30
0
10
1.0085381401909721
20
1.2841512044270829
30
0
10
1.0085381401909721
20
1.2785902235243058
30
0
10
1.0062594943576391
20
1.2735853407118058
30
0
10
1.0017022026909721
20
1.269143337673611
30
0
0
SPLINE
5
137
100
AcDbEntity
8
0
100
AcDbSpline
70
0
71
3
72
8
73
4
74
0
42
0.000000001
43
0.0000000001
44
0.0000000001
40
26
40
26
40
26
40
26
40
27
40
27
40
27
40
27
10
1.0017022026909721
20
1.269143337673611
30
0
10
0.99714491102430547
20
1.2646945529513889
30
0
10
0.99090576171875
20
1.2613986545138889
30
0
10
0.98297119140624989
20
1.2592488606770831
30
0
0
ELLIPSE
5
138
100
AcDbEntity
8
0
100
AcDbEllipse
10
0.23755324881166798
20
1.1701033882459762
30
0
11
-0.7581530750480715
21
-0.073727306509543192
31
0.0
40
0.12748159024416797
41
3.2140715492897463
42
3.3131569962433742
0
SPLINE
5
139
100
AcDbEntity
8
0
100
AcDbSpline
70
0
71
3
72
11
73
7
74
0
42
0.000000001
43
0.0000000001
44
0.0000000001
40
28
40
28
40
28
40
28
40
29
40
29
40
29
40
30
40
30
40
30
40
30
10
0.99303521050347221
20
1.2506361219618061
30
0
10
0.99514431423611094
20
1.2476318359374998
30
0
10
0.99620225694444442
20
1.2443901909722217
30
0
10
0.99620225694444442
20
1.2409111870659717
30
0
10
0.99620225694444442
20
1.2357231987847219
30
0
10
0.99435085720486083
20
1.2312201605902779
30
0
10
0.99064127604166663
20
1.2274020724826389
30
0
0
ELLIPSE
5
140
100
AcDbEntity
8
0
100
AcDbEllipse
10
1.6974973042240877
20
0.50130405265027345
30
0
11
-1.4360678433415444
21
0.72849413229581517
31
0.0
40
0.1602826601314386
41
6.2139120273056747
42
6.285922965908922
0
ELLIPSE
5
141
100
AcDbEntity
8
0
100
AcDbEllipse
10
4.1641718973586244
20
-2.9639250575767249
30
0
11
3.8929343908156326
21
-4.2063977055867214
31
0.0
40
0.088285004625141494
41
3.0931338634492387
42
3.1370721983947329
0
ELLIPSE
5
142
100
AcDbEntity
8
0
100
AcDbEllipse
10
14.311089916716712
20
-3.2773644650269813
30
0
11
-14.032806765548868
21
4.5213480314698407
31
0.0
40
0.024698546468955508
41
6.2066786010131381
42
6.2434497650779921
0
LINE
5
143
100
AcDbEntity
8
0
100
AcDbLine
10
0.32786729600693842
20
1.2572482638888893
30
0
11
0.38766818576388884
21
1.2572482638888889
31
0
0
LINE
5
144
100
AcDbEntity
8
0
100
AcDbLine
10
0.38766818576388884
20
1.2572482638888889
30
0
11
0.36444091796875
21
1.1017374674479168
31
0
0
LINE
5
145
100
AcDbEntity
8
0
100
AcDbLine
10
0.36444091796875
20
1.1017374674479168
30
0
11
0.33464898003472221
21
1.1017374674479168
31
0
0
SPLINE
5
146
100
AcDbEntity
8
0
100
AcDbSpline
70
0
71
3
72
8
73
4
74
0
42
0.000000001
43
0.0000000001
44
0.0000000001
40
2
40
2
40
2
40
2
40
3
40
3
40
3
40
3
10
0.33464898003472221
20
1.1017374674479168
30
0
10
0.32027180989583326
20
1.1017374674479168
30
0
10
0.31024848090277768
20
1.1019951714409719
30
0
10
0.30457899305555547
20
1.1025105794270831
30
0
0
SPLINE
5
147
100
AcDbEntity
8
0
100
AcDbSpline
70
0
71
3
72
8
73
4
74
0
42
0.000000001
43
0.0000000001
44
0.0000000001
40
3
40
3
40
3
40
3
40
4
40
4
40
4
40
4
10
0.30457899305555547
20
1.1025105794270831
30
0
10
0.29890950520833326
20
1.1030327690972221
30
0
10
0.29414876302083331
20
1.1039143880208329
30
0
10
0.29029676649305552
20
1.1051689995659719
30
0
0
SPLINE
5
148
100
AcDbEntity
8
0
100
AcDbSpline
70
0
71
3
72
8
73
4
74
0
42
0.000000001
43
0.0000000001
44
0.0000000001
40
4
40
4
40
4
40
4
40
5
40
5
40
5
40
5
10
0.29029676649305552
20
1.1051689995659719
30
0
10
0.2817721896701389
20
1.1077596028645831
30
0
10
0.27519395616319442
20
1.1120795355902777
30
0
10
0.27056206597222221
20
1.1181355794270831
30
0
0
SPLINE
5
149
100
AcDbEntity
8
0
100
AcDbSpline
70
0
71
3
72
13
73
9
74
0
42
0.000000001
43
0.0000000001
44
0.0000000001
40
5
40
5
40
5
40
5
40
6
40
6
40
6
40
7
40
7
40
8
40
8
40
8
40
8
10
0.27056206597222221
20
1.1181355794270831
30
0
10
0.26593017578125
20
1.1241984049479168
30
0
10
0.26361762152777773
20
1.1314344618055558
30
0
10
0.26361762152777773
20
1.1398573133680558
30
0
10
0.26361762152777773
20
1.1473917643229168
30
0
10
0.26544867621527779
20
1.1539293077256938
30
0
10
0.27278645833333331
20
1.1650105794270831
30
0
10
0.27810329861111105
20
1.1692966037326389
30
0
10
0.2850680881076389
20
1.1723212348090279
30
0
0
SPLINE
5
150
100
AcDbEntity
8
0
100
AcDbSpline
70
0
71
3
72
8
73
4
74
0
42
0.000000001
43
0.0000000001
44
0.0000000001
40
8
40
8
40
8
40
8
40
9
40
9
40
9
40
9
10
0.2850680881076389
20
1.1723212348090279
30
0
10
0.2760281032986111
20
1.17603759765625
30
0
10
0.26910400390625
20
1.1812594943576391
30
0
10
0.2642822265625
20
1.187980143229167
30
0
0
SPLINE
5
151
100
AcDbEntity
8
0
100
AcDbSpline
70
0
71
3
72
11
73
7
74
0
42
0.000000001
43
0.0000000001
44
0.0000000001
40
9
40
9
40
9
40
9
40
10
40
10
40
10
40
11
40
11
40
11
40
11
10
0.2642822265625
20
1.187980143229167
30
0
10
0.25946723090277779
20
1.1947075737847217
30
0
10
0.25705973307291657
20
1.2024183485243058
30
0
10
0.25705973307291657
20
1.2111056857638891
30
0
10
0.25705973307291657
20
1.2175686306423608
30
0
10
0.25840928819444442
20
1.2235907660590279
30
0
10
0.26111518012152779
20
1.229165310329861
30
0
0
SPLINE
5
152
100
AcDbEntity
8
0
100
AcDbSpline
70
0
71
3
72
11
73
7
74
0
42
0.000000001
43
0.0000000001
44
0.0000000001
40
14
40
14
40
14
40
14
40
15
40
15
40
15
40
16
40
16
40
16
40
16
10
-0.22146945529513887
20
1.228738064236111
30
0
10
-0.22595214843749997
20
1.2326985677083329
30
0
10
-0.2324557834201389
20
1.2346856011284717
30
0
10
-0.24098036024305558
20
1.2346856011284717
30
0
10
-0.24579535590277776
20
1.2346856011284717
30
0
10
-0.25129530164930547
20
1.2337768554687498
30
0
10
-0.25748697916666657
20
1.2319593641493058
30
0
0
ELLIPSE
5
153
100
AcDbEntity
8
0
100
AcDbEllipse
10
-1.7989990968605822
20
-0.30942293057994569
30
0
11
-1.5653847245688963
21
-1.5403301483036951
31
0.0
40
0.065545124990013456
41
3.2634230986863288
42
3.3274135199707864
0
LINE
5
154
100
AcDbEntity
8
0
100
AcDbLine
10
-0.27921549479166785
20
1.2233466254340275
30
0
11
-0.27354600694444442
21
1.250914171006944
31
0
0
SPLINE
5
155
100
AcDbEntity
8
0
100
AcDbSpline
70
0
71
3
72
8
73
4
74
0
42
0.000000001
43
0.0000000001
44
0.0000000001
40
0
40
0
40
0
40
0
40
1
40
1
40
1
40
1
10
-0.27354600694444442
20
1.250914171006944
30
0
10
-0.2679172092013889
20
1.2537285698784719
30
0
10
-0.26176622178819442
20
1.2558580186631938
30
0
10
-0.25509304470486105
20
1.257302517361111
30
0
0
SPLINE
5
156
100
AcDbEntity
8
0
100
AcDbSpline
70
0
71
3
72
11
73
7
74
0
42
0.000000001
43
0.0000000001
44
0.0000000001
40
1
40
1
40
1
40
1
40
2
40
2
40
2
40
3
40
3
40
3
40
3
10
-0.25509304470486105
20
1.257302517361111
30
0
10
-0.24842664930555561
20
1.2587470160590279
30
0
10
-0.24149576822916671
20
1.2594726562499998
30
0
10
-0.23430718315972218
20
1.2594726562499998
30
0
10
-0.21852620442708329
20
1.2594726562499998
30
0
10
-0.20602077907986108
20
1.2548950195312498
30
0
10
-0.19679090711805561
20
1.2457465277777782
30
0
0
SPLINE
5
157
100
AcDbEntity
8
0
100
AcDbSpline
70
0
71
3
72
11
73
7
74
0
42
0.000000001
43
0.0000000001
44
0.0000000001
40
3
40
3
40
3
40
3
40
4
40
4
40
4
40
5
40
5
40
5
40
5
10
-0.19679090711805561
20
1.2457465277777782
30
0
10
-0.18756781684027779
20
1.2365912543402782
30
0
10
-0.1829562717013889
20
1.2241197374131938
30
0
10
-0.1829562717013889
20
1.2083387586805561
30
0
10
-0.1829562717013889
20
1.1908487955729168
30
0
10
-0.18828667534722221
20
1.1767157660590279
30
0
10
-0.19896104600694439
20
1.165932888454861
30
0
0
SPLINE
5
158
100
AcDbEntity
8
0
100
AcDbSpline
70
0
71
3
72
11
73
7
74
0
42
0.000000001
43
0.0000000001
44
0.0000000001
40
5
40
5
40
5
40
5
40
6
40
6
40
6
40
7
40
7
40
7
40
7
10
-0.19896104600694439
20
1.165932888454861
30
0
10
-0.20962863498263887
20
1.1551500108506938
30
0
10
-0.22370741102430558
20
1.1497585720486108
30
0
10
-0.24120415581597221
20
1.1497585720486108
30
0
10
-0.25535753038194442
20
1.1497585720486108
30
0
10
-0.26628282335069442
20
1.1538343641493061
30
0
10
-0.27399359809027779
20
1.161985948350694
30
0
0
SPLINE
5
159
100
AcDbEntity
8
0
100
AcDbSpline
70
0
71
3
72
11
73
7
74
0
42
0.000000001
43
0.0000000001
44
0.0000000001
40
7
40
7
40
7
40
7
40
8
40
8
40
8
40
9
40
9
40
9
40
9
10
-0.27399359809027779
20
1.161985948350694
30
0
10
-0.28169759114583331
20
1.1701375325520829
30
0
10
-0.2855563693576389
20
1.181700303819444
30
0
10
-0.2855563693576389
20
1.19666748046875
30
0
10
-0.2855563693576389
20
1.1985188802083329
30
0
10
-0.2854953342013889
20
1.200431315104167
30
0
10
-0.28538682725694442
20
1.202391221788194
30
0
0
SPLINE
5
160
100
AcDbEntity
8
0
100
AcDbSpline
70
0
71
3
72
8
73
4
74
0
42
0.000000001
43
0.0000000001
44
0.0000000001
40
9
40
9
40
9
40
9
40
10
40
10
40
10
40
10
10
-0.28538682725694442
20
1.202391221788194
30
0
10
-0.2852783203125
20
1.2043579101562498
30
0
10
-0.28510877821180547
20
1.2063381618923608
30
0
10
-0.28488498263888884
20
1.2083387586805561
30
0
0
LINE
5
161
100
AcDbEntity
8
0
100
AcDbLine
10
-0.28488498263888884
20
1.2083387586805561
30
0
11
-0.2149658203125
21
1.2083387586805561
31
0
0
SPLINE
5
162
100
AcDbEntity
8
0
100
AcDbSpline
70
0
71
3
72
13
73
9
74
0
42
0.000000001
43
0.0000000001
44
0.0000000001
40
11
40
11
40
11
40
11
40
12
40
12
40
13
40
13
40
13
40
14
40
14
40
14
40
14
10
-0.2149658203125
20
1.2083387586805561
30
0
10
-0.2149658203125
20
1.2087117513020831
30
0
10
-0.21493191189236108
20
1.2092678493923608
30
0
10
-0.21478271484375
20
1.210746256510417
30
0
10
-0.21474202473958329
20
1.2112277560763891
30
0
10
-0.21474202473958329
20
1.2114515516493058
30
0
10
-0.21474202473958329
20
1.21900634765625
30
0
10
-0.21698676215277776
20
1.2247707790798608
30
0
10
-0.22146945529513887
20
1.228738064236111
30
0
0
SPLINE
5
163
100
AcDbEntity
8
0
100
AcDbSpline
70
0
71
3
72
8
73
4
74
0
42
0.000000001
43
0.0000000001
44
0.0000000001
40
7
40
7
40
7
40
7
40
8
40
8
40
8
40
8
10
0.20507812499999997
20
1.1688761393229168
30
0
10
0.19781494140624997
20
1.1627251519097219
30
0
10
0.18931070963541671
20
1.1583577473958331
30
0
10
0.1795654296875
20
1.155760362413194
30
0
0
ELLIPSE
5
164
100
AcDbEntity
8
0
100
AcDbEllipse
10
-4.4652727540668211
20
2.177832758423623
30
0
11
-4.6568437223985786
21
1.0141267974033923
31
0.0
40
0.033371643829651278
41
2.9895338104590752
42
3.0766724944367452
0
LINE
5
165
100
AcDbEntity
8
0
100
AcDbLine
10
0.13271077473958387
20
1.1518676757812492
30
0
11
0.11537000868055559
21
1.15186767578125
31
0
0
LINE
5
166
100
AcDbEntity
8
0
100
AcDbLine
10
0.11537000868055559
20
1.15186767578125
30
0
11
0.13081868489583329
21
1.2572482638888889
31
0
0
LINE
5
167
100
AcDbEntity
8
0
100
AcDbLine
10
0.13081868489583329
20
1.2572482638888889
30
0
11
0.16139051649305558
21
1.2572482638888889
31
0
0
LINE
5
168
100
AcDbEntity
8
0
100
AcDbLine
10
0.16139051649305558
20
1.2572482638888889
30
0
11
0.16027832031272629
21
1.249022081163351
31
0
0
ELLIPSE
5
169
100
AcDbEntity
8
0
100
AcDbEllipse
10
-1.2430654241995363
20
-5.6432988283397947
30
0
11
-1.4354235899157231
21
-6.9015742530223507
31
0.0
40
0.063004675483939829
41
3.1791714951523611
42
3.2081155728665438
0
SPLINE
5
170
100
AcDbEntity
8
0
100
AcDbSpline
70
0
71
3
72
11
73
7
74
0
42
0.000000001
43
0.0000000001
44
0.0000000001
40
2
40
2
40
2
40
2
40
3
40
3
40
3
40
4
40
4
40
4
40
4
10
0.17500813802083329
20
1.2568006727430558
30
0
10
0.1797146267361111
20
1.25843505859375
30
0
10
0.18450927734375
20
1.2592488606770831
30
0
10
0.18940565321180561
20
1.2592488606770831
30
0
10
0.20059543185763887
20
1.2592488606770831
30
0
10
0.20948621961805558
20
1.2553426106770831
30
0
10
0.21607801649305558
20
1.2475233289930558
30
0
0
SPLINE
5
171
100
AcDbEntity
8
0
100
AcDbSpline
70
0
71
3
72
13
73
9
74
0
42
0.000000001
43
0.0000000001
44
0.0000000001
40
4
40
4
40
4
40
4
40
5
40
5
40
5
40
6
40
6
40
7
40
7
40
7
40
7
10
0.21607801649305558
20
1.2475233289930558
30
0
10
0.22267659505208326
20
1.2397040473090279
30
0
10
0.22597249348958326
20
1.229124620225694
30
0
10
0.22597249348958326
20
1.2157850477430558
30
0
10
0.22597249348958326
20
1.2064466688368058
30
0
10
0.22417534722222221
20
1.1977254231770829
30
0
10
0.21698676215277776
20
1.1814900716145829
30
0
10
0.2118191189236111
20
1.1745863172743058
30
0
10
0.20507812499999997
20
1.1688761393229168
30
0
0
SPLINE
5
172
100
AcDbEntity
8
0
100
AcDbSpline
70
0
71
3
72
8
73
4
74
0
42
0.000000001
43
0.0000000001
44
0.0000000001
40
7
40
7
40
7
40
7
40
8
40
8
40
8
40
8
10
0.84373643663194442
20
1.1688761393229168
30
0
10
0.83647325303819442
20
1.1627251519097219
30
0
10
0.82796902126736083
20
1.1583577473958331
30
0
10
0.81822374131944442
20
1.155760362413194
30
0
0
ELLIPSE
5
173
100
AcDbEntity
8
0
100
AcDbEllipse
10
-3.8266144419045944
20
2.1778327583061419
30
0
11
-4.6568437218682854
21
1.0141267972859167
31
0.0
40
0.033371643831521032
41
2.9895338104503919
42
3.0766724944330521
0
LINE
5
174
100
AcDbEntity
8
0
100
AcDbLine
10
0.77136908637152934
20
1.1518676757812496
30
0
11
0.75402832031249989
21
1.15186767578125
31
0
0
LINE
5
175
100
AcDbEntity
8
0
100
AcDbLine
10
0.75402832031249989
20
1.15186767578125
30
0
11
0.76947699652777768
21
1.2572482638888889
31
0
0
LINE
5
176
100
AcDbEntity
8
0
100
AcDbLine
10
0.76947699652777768
20
1.2572482638888889
30
0
11
0.80004882812499989
21
1.2572482638888889
31
0
0
LINE
5
177
100
AcDbEntity
8
0
100
AcDbLine
10
0.80004882812499989
20
1.2572482638888889
30
0
11
0.79893663194482345
21
1.2490220811634571
31
0
0
ELLIPSE
5
178
100
AcDbEntity
8
0
100
AcDbEllipse
10
-0.60440711717488815
20
-5.6432988508856079
30
0
11
-1.4354235945228255
21
-6.9015742755682288
31
0.0
40
0.063004675381566108
41
3.1791714950903902
42
3.2081155727569697
0
SPLINE
5
179
100
AcDbEntity
8
0
100
AcDbSpline
70
0
71
3
72
11
73
7
74
0
42
0.000000001
43
0.0000000001
44
0.0000000001
40
2
40
2
40
2
40
2
40
3
40
3
40
3
40
4
40
4
40
4
40
4
10
0.81366644965277768
20
1.2568006727430558
30
0
10
0.81837293836805536
20
1.25843505859375
30
0
10
0.82316758897569442
20
1.2592488606770831
30
0
10
0.82806396484374989
20
1.2592488606770831
30
0
10
0.83925374348958326
20
1.2592488606770831
30
0
10
0.84814453125
20
1.2553426106770831
30
0
10
0.854736328125
20
1.2475233289930558
30
0
0
SPLINE
5
180
100
AcDbEntity
8
0
100
AcDbSpline
70
0
71
3
72
13
73
9
74
0
42
0.000000001
43
0.0000000001
44
0.0000000001
40
4
40
4
40
4
40
4
40
5
40
5
40
5
40
6
40
6
40
7
40
7
40
7
40
7
10
0.854736328125
20
1.2475233289930558
30
0
10
0.86133490668402768
20
1.2397040473090279
30
0
10
0.86463080512152757
20
1.229124620225694
30
0
10
0.86463080512152757
20
1.2157850477430558
30
0
10
0.86463080512152757
20
1.2064466688368058
30
0
10
0.86283365885416652
20
1.1977254231770829
30
0
10
0.85564507378472221
20
1.1814900716145829
30
0
10
0.85047743055555536
20
1.1745863172743058
30
0
10
0.84373643663194442
20
1.1688761393229168
30
0
0
SPLINE
5
181
100
AcDbEntity
8
0
100
AcDbSpline
70
0
71
3
72
11
73
7
74
0
42
0.000000001
43
0.0000000001
44
0.0000000001
40
14
40
14
40
14
40
14
40
15
40
15
40
15
40
16
40
16
40
16
40
16
10
0.48294406467013878
20
1.228738064236111
30
0
10
0.47846137152777762
20
1.2326985677083329
30
0
10
0.47195773654513878
20
1.2346856011284717
30
0
10
0.46343315972222215
20
1.2346856011284717
30
0
10
0.4586181640625
20
1.2346856011284717
30
0
10
0.45311821831597221
20
1.2337768554687498
30
0
10
0.4469265407986111
20
1.2319593641493058
30
0
0
ELLIPSE
5
182
100
AcDbEntity
8
0
100
AcDbEllipse
10
-1.0945855779552998
20
-0.30942293164418766
30
0
11
-1.5653847256290361
21
-1.5403301493679296
31
0.0
40
0.065545124968375945
41
3.2634230986445307
42
3.3274135199068429
0
LINE
5
183
100
AcDbEntity
8
0
100
AcDbLine
10
0.42519802517361155
20
1.2233466254340284
30
0
11
0.43086751302083326
21
1.250914171006944
31
0
0
SPLINE
5
184
100
AcDbEntity
8
0
100
AcDbSpline
70
0
71
3
72
8
73
4
74
0
42
0.000000001
43
0.0000000001
44
0.0000000001
40
0
40
0
40
0
40
0
40
1
40
1
40
1
40
1
10
0.43086751302083326
20
1.250914171006944
30
0
10
0.43649631076388873
20
1.2537285698784719
30
0
10
0.44264729817708326
20
1.2558580186631938
30
0
10
0.44932047526041657
20
1.257302517361111
30
0
0
SPLINE
5
185
100
AcDbEntity
8
0
100
AcDbSpline
70
0
71
3
72
11
73
7
74
0
42
0.000000001
43
0.0000000001
44
0.0000000001
40
1
40
1
40
1
40
1
40
2
40
2
40
2
40
3
40
3
40
3
40
3
10
0.44932047526041657
20
1.257302517361111
30
0
10
0.45598687065972215
20
1.2587470160590279
30
0
10
0.46291775173611105
20
1.2594726562499998
30
0
10
0.47010633680555547
20
1.2594726562499998
30
0
10
0.48588731553819436
20
1.2594726562499998
30
0
10
0.49839274088541657
20
1.2548950195312498
30
0
10
0.5076226128472221
20
1.2457465277777782
30
0
0
SPLINE
5
186
100
AcDbEntity
8
0
100
AcDbSpline
70
0
71
3
72
11
73
7
74
0
42
0.000000001
43
0.0000000001
44
0.0000000001
40
3
40
3
40
3
40
3
40
4
40
4
40
4
40
5
40
5
40
5
40
5
10
0.5076226128472221
20
1.2457465277777782
30
0
10
0.516845703125
20
1.2365912543402782
30
0
10
0.52145724826388884
20
1.2241197374131938
30
0
10
0.52145724826388884
20
1.2083387586805561
30
0
10
0.52145724826388884
20
1.1908487955729168
30
0
10
0.51612684461805558
20
1.1767157660590279
30
0
10
0.50545247395833315
20
1.165932888454861
30
0
0
SPLINE
5
187
100
AcDbEntity
8
0
100
AcDbSpline
70
0
71
3
72
11
73
7
74
0
42
0.000000001
43
0.0000000001
44
0.0000000001
40
5
40
5
40
5
40
5
40
6
40
6
40
6
40
7
40
7
40
7
40
7
10
0.50545247395833315
20
1.165932888454861
30
0
10
0.49478488498263873
20
1.1551500108506938
30
0
10
0.48070610894097215
20
1.1497585720486108
30
0
10
0.46320936414930547
20
1.1497585720486108
30
0
10
0.44905598958333331
20
1.1497585720486108
30
0
10
0.43813069661458331
20
1.1538343641493061
30
0
10
0.430419921875
20
1.161985948350694
30
0
0
SPLINE
5
188
100
AcDbEntity
8
0
100
AcDbSpline
70
0
71
3
72
11
73
7
74
0
42
0.000000001
43
0.0000000001
44
0.0000000001
40
7
40
7
40
7
40
7
40
8
40
8
40
8
40
9
40
9
40
9
40
9
10
0.430419921875
20
1.161985948350694
30
0
10
0.42271592881944436
20
1.1701375325520829
30
0
10
0.41885715060763878
20
1.181700303819444
30
0
10
0.41885715060763878
20
1.19666748046875
30
0
10
0.41885715060763878
20
1.1985188802083329
30
0
10
0.41891818576388873
20
1.200431315104167
30
0
10
0.41902669270833331
20
1.202391221788194
30
0
0
SPLINE
5
189
100
AcDbEntity
8
0
100
AcDbSpline
70
0
71
3
72
8
73
4
74
0
42
0.000000001
43
0.0000000001
44
0.0000000001
40
9
40
9
40
9
40
9
40
10
40
10
40
10
40
10
10
0.41902669270833331
20
1.202391221788194
30
0
10
0.41913519965277762
20
1.2043579101562498
30
0
10
0.41930474175347221
20
1.2063381618923608
30
0
10
0.41952853732638873
20
1.2083387586805561
30
0
0
LINE
5
190
100
AcDbEntity
8
0
100
AcDbLine
10
0.41952853732638873
20
1.2083387586805561
30
0
11
0.48944769965277768
21
1.2083387586805561
31
0
0
SPLINE
5
191
100
AcDbEntity
8
0
100
AcDbSpline
70
0
71
3
72
13
73
9
74
0
42
0.000000001
43
0.0000000001
44
0.0000000001
40
11
40
11
40
11
40
11
40
12
40
12
40
13
40
13
40
13
40
14
40
14
40
14
40
14
10
0.48944769965277768
20
1.2083387586805561
30
0
10
0.48944769965277768
20
1.2087117513020831
30
0
10
0.48948160807291657
20
1.2092678493923608
30
0
10
0.48963080512152762
20
1.210746256510417
30
0
10
0.48967149522569436
20
1.2112277560763891
30
0
10
0.48967149522569436
20
1.2114515516493058
30
0
10
0.48967149522569436
20
1.21900634765625
30
0
10
0.48742675781249994
20
1.2247707790798608
30
0
10
0.48294406467013878
20
1.228738064236111
30
0
0
ELLIPSE
5
192
100
AcDbEntity
8
0
100
AcDbEllipse
10
-3.2871406904377278
20
4.2358447725106361
30
0
11
-3.23073792841768
21
3.0080996101943374
31
0.0
40
0.072591228830534579
41
3.0903053174472292
42
3.140115739376804
0
SPLINE
5
193
100
AcDbEntity
8
0
100
AcDbSpline
70
0
71
3
72
8
73
4
74
0
42
0.000000001
43
0.0000000001
44
0.0000000001
40
0
40
0
40
0
40
0
40
1
40
1
40
1
40
1
10
-0.071845160590277804
20
1.2196777343749998
30
0
10
-0.066433376736111091
20
1.2162665473090279
30
0
10
-0.062282986111111091
20
1.2120279947916668
30
0
10
-0.059393988715277797
20
1.206948513454861
30
0
0
SPLINE
5
194
100
AcDbEntity
8
0
100
AcDbSpline
70
0
71
3
72
13
73
9
74
0
42
0.000000001
43
0.0000000001
44
0.0000000001
40
1
40
1
40
1
40
1
40
2
40
2
40
2
40
3
40
3
40
4
40
4
40
4
40
4
10
-0.059393988715277797
20
1.206948513454861
30
0
10
-0.056504991319444399
20
1.2018758138020829
30
0
10
-0.05506049262152779
20
1.1962605794270831
30
0
10
-0.05506049262152779
20
1.1901095920138889
30
0
10
-0.05506049262152779
20
1.1844740125868061
30
0
10
-0.056410047743055601
20
1.1791029188368058
30
0
10
-0.061821831597222196
20
1.1688761393229168
30
0
10
-0.065619574652777804
20
1.164542643229167
30
0
10
-0.07050916883680558
20
1.1609822591145829
30
0
0
SPLINE
5
195
100
AcDbEntity
8
0
100
AcDbSpline
70
0
71
3
72
8
73
4
74
0
42
0.000000001
43
0.0000000001
44
0.0000000001
40
4
40
4
40
4
40
4
40
5
40
5
40
5
40
5
10
-0.07050916883680558
20
1.1609822591145829
30
0
10
-0.075181749131944406
20
1.1576524522569438
30
0
10
-0.081013997395833301
20
1.1552992078993058
30
0
10
-0.08801947699652779
20
1.1539225260416668
30
0
0
SPLINE
5
196
100
AcDbEntity
8
0
100
AcDbSpline
70
0
71
3
72
8
73
4
74
0
42
0.000000001
43
0.0000000001
44
0.0000000001
40
5
40
5
40
5
40
5
40
6
40
6
40
6
40
6
10
-0.08801947699652779
20
1.1539225260416668
30
0
10
-0.095018174913194406
20
1.1525526258680561
30
0
10
-0.10737440321180558
20
1.15186767578125
30
0
10
-0.1250881618923611
20
1.15186767578125
30
0
0
LINE
5
197
100
AcDbEntity
8
0
100
AcDbLine
10
-0.1250881618923611
20
1.15186767578125
30
0
11
-0.16221788194444439
21
1.15186767578125
31
0
0
LINE
5
198
100
AcDbEntity
8
0
100
AcDbLine
10
-0.16221788194444439
20
1.15186767578125
30
0
11
-0.15854899088541671
21
1.1753255208333331
31
0
0
LINE
5
199
100
AcDbEntity
8
0
100
AcDbLine
10
-0.15854899088541671
20
1.1753255208333331
30
0
11
-0.14265272352473857
21
1.1751017252616216
31
0
0
ELLIPSE
5
200
100
AcDbEntity
8
0
100
AcDbEllipse
10
5.0474456696474537
20
-4.2350610235030297
30
0
11
5.1908259257151501
21
-5.4317042567935516
31
0.0
40
0.02922640208794746
41
3.1886581362871227
42
3.2070218879654591
0
SPLINE
5
201
100
AcDbEntity
8
0
100
AcDbSpline
70
0
71
3
72
11
73
7
74
0
42
0.000000001
43
0.0000000001
44
0.0000000001
40
10
40
10
40
10
40
10
40
11
40
11
40
11
40
12
40
12
40
12
40
12
10
-0.14510091145833326
20
1.1834906684027782
30
0
10
-0.14561631944444439
20
1.1859795464409717
30
0
10
-0.1458740234375
20
1.1882581922743058
30
0
10
-0.1458740234375
20
1.1903333875868061
30
0
10
-0.1458740234375
20
1.2014485677083329
30
0
10
-0.1416354709201389
20
1.2106377495659717
30
0
10
-0.1331515842013889
20
1.2179009331597217
30
0
0
SPLINE
5
202
100
AcDbEntity
8
0
100
AcDbSpline
70
0
71
3
72
11
73
7
74
0
42
0.000000001
43
0.0000000001
44
0.0000000001
40
12
40
12
40
12
40
12
40
13
40
13
40
13
40
14
40
14
40
14
40
14
10
-0.1331515842013889
20
1.2179009331597217
30
0
10
-0.12466091579861109
20
1.2251641167534719
30
0
10
-0.1137152777777778
20
1.2287923177083329
30
0
10
-0.1003011067708333
20
1.2287923177083329
30
0
10
-0.099853515625
20
1.2287923177083329
30
0
10
-0.09876166449652779
20
1.228751627604167
30
0
10
-0.097018771701388895
20
1.2286770290798608
30
0
0
SPLINE
5
203
100
AcDbEntity
8
0
100
AcDbSpline
70
0
71
3
72
11
73
7
74
0
42
0.000000001
43
0.0000000001
44
0.0000000001
40
14
40
14
40
14
40
14
40
15
40
15
40
15
40
16
40
16
40
16
40
16
10
-0.097018771701388895
20
1.2286770290798608
30
0
10
-0.095282660590277804
20
1.2286092122395829
30
0
10
-0.093702528211805594
20
1.2285685221354168
30
0
10
-0.09229871961805558
20
1.2285685221354168
30
0
10
-0.089111328125
20
1.2285685221354168
30
0
10
-0.086642795138888881
20
1.2290907118055558
30
0
10
-0.084906684027777804
20
1.2301283094618061
30
0
0
SPLINE
5
204
100
AcDbEntity
8
0
100
AcDbSpline
70
0
71
3
72
11
73
7
74
0
42
0.000000001
43
0.0000000001
44
0.0000000001
40
16
40
16
40
16
40
16
40
17
40
17
40
17
40
18
40
18
40
18
40
18
10
-0.084906684027777804
20
1.2301283094618061
30
0
10
-0.083163791232638895
20
1.2311659071180558
30
0
10
-0.082295735677083301
20
1.2326104058159717
30
0
10
-0.082295735677083301
20
1.2344618055555558
30
0
10
-0.082295735677083301
20
1.2374254014756938
30
0
10
-0.088663736979166699
20
1.2399481879340282
30
0
10
-0.10141330295138888
20
1.2420166015624998
30
0
0
ELLIPSE
5
205
100
AcDbEntity
8
0
100
AcDbEllipse
10
-0.077530205990524237
20
1.2396900298422449
30
0
11
-0.036628867209380529
21
0.0048163949141973549
31
0.0
40
0.028714003813630092
41
0.51836418656689198
42
0.86432015132539042
0
ELLIPSE
5
206
100
AcDbEntity
8
0
100
AcDbEllipse
10
5.2933028613418545
20
4.4151322966223896
30
0
11
-5.4356128333507563
21
-3.1531817051429867
31
0.0
40
0.066536916704865681
41
0.021854607180426828
42
0.078030791692247969
0
SPLINE
5
207
100
AcDbEntity
8
0
100
AcDbSpline
70
0
71
3
72
11
73
7
74
0
42
0.000000001
43
0.0000000001
44
0.0000000001
40
20
40
20
40
20
40
20
40
21
40
21
40
21
40
22
40
22
40
22
40
22
10
-0.13642713758680561
20
1.2548000759548608
30
0
10
-0.142578125
20
1.2602864583333329
30
0
10
-0.1456570095486111
20
1.2671766493055561
30
0
10
-0.1456570095486111
20
1.2754774305555561
30
0
10
-0.1456570095486111
20
1.2865926106770829
30
0
10
-0.14090983072916669
20
1.2950968424479168
30
0
10
-0.13142903645833326
20
1.3009901258680561
30
0
0
SPLINE
5
208
100
AcDbEntity
8
0
100
AcDbSpline
70
0
71
3
72
16
73
12
74
0
42
0.000000001
43
0.0000000001
44
0.0000000001
40
22
40
22
40
22
40
22
40
23
40
23
40
23
40
24
40
24
40
25
40
25
40
25
40
26
40
26
40
26
40
26
10
-0.13142903645833326
20
1.3009901258680561
30
0
10
-0.1219414605034722
20
1.3068834092881938
30
0
10
-0.10830349392361109
20
1.3098266601562498
30
0
10
-0.09052191840277779
20
1.3098266601562498
30
0
10
-0.074137369791666699
20
1.3098266601562498
30
0
10
-0.061428493923611091
20
1.3075683593749998
30
0
10
-0.043348524305555601
20
1.298521592881944
30
0
10
-0.038831922743055601
20
1.2922281901041668
30
0
10
-0.038831922743055601
20
1.2841512044270829
30
0
10
-0.038831922743055601
20
1.2785902235243058
30
0
10
-0.041110568576388895
20
1.2735853407118058
30
0
10
-0.045667860243055594
20
1.269143337673611
30
0
0
SPLINE
5
209
100
AcDbEntity
8
0
100
AcDbSpline
70
0
71
3
72
8
73
4
74
0
42
0.000000001
43
0.0000000001
44
0.0000000001
40
26
40
26
40
26
40
26
40
27
40
27
40
27
40
27
10
-0.045667860243055594
20
1.269143337673611
30
0
10
-0.050225151909722203
20
1.2646945529513889
30
0
10
-0.05646430121527779
20
1.2613986545138889
30
0
10
-0.064398871527777804
20
1.2592488606770831
30
0
0
ELLIPSE
5
210
100
AcDbEntity
8
0
100
AcDbEllipse
10
-0.80981681420405405
20
1.1701033882369951
30
0
11
-0.75815307512976537
21
-0.073727306518537317
31
0.0
40
0.12748159023738423
41
3.2140715492856713
42
3.3131569962339276
0
SPLINE
5
211
100
AcDbEntity
8
0
100
AcDbSpline
70
0
71
3
72
11
73
7
74
0
42
0.000000001
43
0.0000000001
44
0.0000000001
40
28
40
28
40
28
40
28
40
29
40
29
40
29
40
30
40
30
40
30
40
30
10
-0.054334852430555601
20
1.2506361219618061
30
0
10
-0.052225748697916699
20
1.2476318359374998
30
0
10
-0.051167805989583301
20
1.2443901909722217
30
0
10
-0.051167805989583301
20
1.2409111870659717
30
0
10
-0.051167805989583301
20
1.2357231987847219
30
0
10
-0.053019205729166699
20
1.2312201605902779
30
0
10
-0.056728786892361091
20
1.2274020724826389
30
0
0
LINE
5
212
100
AcDbEntity
8
0
100
AcDbLine
10
-0.030870225694444399
20
1.1017374674479168
30
0
11
-0.0078599717881940867
21
1.2556952582465282
31
0
0
ELLIPSE
5
213
100
AcDbEntity
8
0
100
AcDbEllipse
10
-0.55756812155221414
20
0.83600219144302501
30
0
11
-0.61166761538656278
21
-0.41218091309854349
31
0.0
40
0.15739024808843541
41
3.4368442113052362
42
3.5012175971718595
0
SPLINE
5
214
100
AcDbEntity
8
0
100
AcDbSpline
70
0
71
3
72
13
73
9
74
0
42
0.000000001
43
0.0000000001
44
0.0000000001
40
1
40
1
40
1
40
1
40
2
40
2
40
2
40
3
40
3
40
4
40
4
40
4
40
4
10
0.0087551540798610997
20
1.2583604600694438
30
0
10
0.013909233940972199
20
1.2589504665798608
30
0
10
0.018636067708333301
20
1.2592488606770831
30
0
10
0.022928873697916699
20
1.2592488606770831
30
0
10
0.033454047309027797
20
1.2592488606770831
30
0
10
0.042032877604166699
20
1.2585639105902779
30
0
10
0.0552978515625
20
1.2558241102430558
30
0
10
0.060987684461805601
20
1.253579372829861
30
0
10
0.065728081597222196
20
1.2504665798611108
30
0
0
SPLINE
5
215
100
AcDbEntity
8
0
100
AcDbSpline
70
0
71
3
72
8
73
4
74
0
42
0.000000001
43
0.0000000001
44
0.0000000001
40
4
40
4
40
4
40
4
40
5
40
5
40
5
40
5
10
0.065728081597222196
20
1.2504665798611108
30
0
10
0.072842068142361105
20
1.2457261827256938
30
0
10
0.078287760416666699
20
1.2397989908854168
30
0
10
0.082065158420138881
20
1.2326850043402782
30
0
0
SPLINE
5
216
100
AcDbEntity
8
0
100
AcDbSpline
70
0
71
3
72
11
73
7
74
0
42
0.000000001
43
0.0000000001
44
0.0000000001
40
5
40
5
40
5
40
5
40
6
40
6
40
6
40
7
40
7
40
7
40
7
10
0.082065158420138881
20
1.2326850043402782
30
0
10
0.085849338107638881
20
1.2255710177951389
30
0
10
0.087734646267361091
20
1.2176771375868058
30
0
10
0.087734646267361091
20
1.2090033637152782
30
0
10
0.087734646267361091
20
1.1912217881944438
30
0
10
0.081509060329861091
20
1.1769327799479168
30
0
10
0.069064670138888881
20
1.16614990234375
30
0
0
SPLINE
5
217
100
AcDbEntity
8
0
100
AcDbSpline
70
0
71
3
72
11
73
7
74
0
42
0.000000001
43
0.0000000001
44
0.0000000001
40
7
40
7
40
7
40
7
40
8
40
8
40
8
40
9
40
9
40
9
40
9
10
0.069064670138888881
20
1.16614990234375
30
0
10
0.056613498263888902
20
1.155373806423611
30
0
10
0.040011935763888902
20
1.1499823676215279
30
0
10
0.019259982638888899
20
1.1499823676215279
30
0
10
0.017333984375
20
1.1499823676215279
30
0
10
0.015333387586805598
20
1.1500569661458331
30
0
10
0.013258192274305598
20
1.1501993815104168
30
0
0
SPLINE
5
218
100
AcDbEntity
8
0
100
AcDbSpline
70
0
71
3
72
8
73
4
74
0
42
0.000000001
43
0.0000000001
44
0.0000000001
40
9
40
9
40
9
40
9
40
10
40
10
40
10
40
10
10
0.013258192274305598
20
1.1501993815104168
30
0
10
0.011182996961805599
20
1.1503485785590279
30
0
10
0.0091484917534721995
20
1.1504977756076391
30
0
10
0.0071478949652777997
20
1.15064697265625
30
0
0
LINE
5
219
100
AcDbEntity
8
0
100
AcDbLine
10
0.0071478949652777997
20
1.1506469726562503
30
0
11
-8.1380208333300288e-05
21
1.1017374674479168
31
0
0
LINE
5
220
100
AcDbEntity
8
0
100
AcDbLine
10
-8.1380208333300288e-05
20
1.1017374674479168
30
0
11
-0.030870225694444399
21
1.1017374674479168
31
0
0
SPLINE
5
221
100
AcDbEntity
8
0
100
AcDbSpline
70
0
71
3
72
17
73
13
74
0
42
0.000000001
43
0.0000000001
44
0.0000000001
40
8
40
8
40
8
40
8
40
9
40
9
40
9
40
10
40
10
40
10
40
11
40
11
40
11
40
12
40
12
40
12
40
12
10
0.60201009114583326
20
1.1542005750868058
30
0
10
0.59548611111111094
20
1.151236979166667
30
0
10
0.5892266167534721
20
1.1497585720486108
30
0
10
0.58321804470486094
20
1.1497585720486108
30
0
10
0.57381184895833326
20
1.1497585720486108
30
0
10
0.56652832031249989
20
1.152335611979167
30
0
10
0.56138102213541663
20
1.1574829101562498
30
0
10
0.55622694227430547
20
1.1626369900173608
30
0
10
0.55364990234375
20
1.1699544270833329
30
0
10
0.55364990234375
20
1.1794352213541668
30
0
10
0.55364990234375
20
1.1819580078125
30
0
10
0.55386013454861083
20
1.185179307725694
30
0
10
0.55426703559027768
20
1.1891059027777779
30
0
0
ELLIPSE
5
222
100
AcDbEntity
8
0
100
AcDbEllipse
10
0.59246850632673154
20
1.3638400257910896
30
0
11
-0.038193778711736764
21
-0.18527890067905856
31
0.0
40
0.034657410199424928
41
5.7577061369418461
42
5.9512551286717041
0
LINE
5
223
100
AcDbEntity
8
0
100
AcDbLine
10
0.55620659722222221
20
1.2042222764756945
30
0
11
0.56410047743055547
21
1.2572482638888889
31
0
0
LINE
5
224
100
AcDbEntity
8
0
100
AcDbLine
10
0.56410047743055547
20
1.2572482638888889
30
0
11
0.59511311848958326
21
1.2572482638888889
31
0
0
LINE
5
225
100
AcDbEntity
8
0
100
AcDbLine
10
0.59511311848958326
20
1.2572482638888889
30
0
11
0.58488633897569442
21
1.1903333875868056
31
0
0
ELLIPSE
5
226
100
AcDbEntity
8
0
100
AcDbEllipse
10
0.58581477652358727
20
1.1882469434132454
30
0
11
-0.00071147324733496849
21
0.0023092726797024872
31
0.0
40
0.32666583034395824
41
0.35308796184232333
42
0.81481849675647622
0
SPLINE
5
227
100
AcDbEntity
8
0
100
AcDbSpline
70
0
71
3
72
11
73
7
74
0
42
0.000000001
43
0.0000000001
44
0.0000000001
40
17
40
17
40
17
40
17
40
18
40
18
40
18
40
19
40
19
40
19
40
19
10
0.58477783203125
20
1.1896620008680558
30
0
10
0.58447943793402779
20
1.1873697916666668
30
0
10
0.58433024088541652
20
1.185769314236111
30
0
10
0.58433024088541652
20
1.1848809136284717
30
0
10
0.58433024088541652
20
1.1808119032118058
30
0
10
0.585205078125
20
1.1777669270833329
30
0
10
0.58694797092013873
20
1.1757663302951389
30
0
0
SPLINE
5
228
100
AcDbEntity
8
0
100
AcDbSpline
70
0
71
3
72
13
73
9
74
0
42
0.000000001
43
0.0000000001
44
0.0000000001
40
19
40
19
40
19
40
19
40
20
40
20
40
20
40
21
40
21
40
22
40
22
40
22
40
22
10
0.58694797092013873
20
1.1757663302951389
30
0
10
0.58868408203124989
20
1.1737657335069438
30
0
10
0.59133572048611094
20
1.1727688259548608
30
0
10
0.59488932291666663
20
1.1727688259548608
30
0
10
0.59859890407986094
20
1.1727688259548608
30
0
10
0.60272894965277779
20
1.17408447265625
30
0
10
0.61184353298611083
20
1.1793470594618061
30
0
10
0.61627197265625
20
1.1830295138888889
30
0
10
0.62057156032986083
20
1.1877766927083331
30
0
0
LINE
5
229
100
AcDbEntity
8
0
100
AcDbLine
10
0.62057156032986083
20
1.1877766927083329
30
0
11
0.63079833984375
21
1.2572482638888889
31
0
0
LINE
5
230
100
AcDbEntity
8
0
100
AcDbLine
10
0.63079833984375
20
1.2572482638888889
30
0
11
0.66158718532986094
21
1.2572482638888889
31
0
0
LINE
5
231
100
AcDbEntity
8
0
100
AcDbLine
10
0.66158718532986094
20
1.2572482638888889
30
0
11
0.6513604058159721
21
1.1903333875868061
31
0
0
SPLINE
5
232
100
AcDbEntity
8
0
100
AcDbSpline
70
0
71
3
72
8
73
4
74
0
42
0.000000001
43
0.0000000001
44
0.0000000001
40
25
40
25
40
25
40
25
40
26
40
26
40
26
40
26
10
0.6513604058159721
20
1.1903333875868061
30
0
10
0.65128580729166663
20
1.190184190538194
30
0
10
0.65125189887152779
20
1.1899603949652782
30
0
10
0.65125189887152779
20
1.1896620008680558
30
0
0
SPLINE
5
233
100
AcDbEntity
8
0
100
AcDbSpline
70
0
71
3
72
11
73
7
74
0
42
0.000000001
43
0.0000000001
44
0.0000000001
40
26
40
26
40
26
40
26
40
27
40
27
40
27
40
28
40
28
40
28
40
28
10
0.65125189887152779
20
1.1896620008680558
30
0
10
0.65095350477430547
20
1.1873697916666668
30
0
10
0.65080430772569442
20
1.1857014973958331
30
0
10
0.65080430772569442
20
1.1846638997395829
30
0
10
0.65080430772569442
20
1.1807373046875
30
0
10
0.65167914496527768
20
1.1777669270833329
30
0
10
0.65341525607638884
20
1.1757663302951389
30
0
0
SPLINE
5
234
100
AcDbEntity
8
0
100
AcDbSpline
70
0
71
3
72
13
73
9
74
0
42
0.000000001
43
0.0000000001
44
0.0000000001
40
28
40
28
40
28
40
28
40
29
40
29
40
29
40
30
40
30
40
31
40
31
40
31
40
31
10
0.65341525607638884
20
1.1757663302951389
30
0
10
0.65515814887152779
20
1.1737657335069438
30
0
10
0.65773518880208326
20
1.1727688259548608
30
0
10
0.66114637586805536
20
1.1727688259548608
30
0
10
0.66529676649305536
20
1.1727688259548608
30
0
10
0.66965060763888873
20
1.1741183810763889
30
0
10
0.6787651909722221
20
1.1795301649305558
30
0
10
0.68326144748263884
20
1.1834364149305558
30
0
10
0.68771023220486083
20
1.1885498046874998
30
0
0
LINE
5
235
100
AcDbEntity
8
0
100
AcDbLine
10
0.68771023220486094
20
1.1885498046875
30
0
11
0.69793701171875
21
1.2572482638888889
31
0
0
LINE
5
236
100
AcDbEntity
8
0
100
AcDbLine
10
0.69793701171875
20
1.2572482638888889
30
0
11
0.72850884331597221
21
1.2572482638888889
31
0
0
LINE
5
237
100
AcDbEntity
8
0
100
AcDbLine
10
0.72850884331597221
20
1.2572482638888889
30
0
11
0.71283637152777779
21
1.15186767578125
31
0
0
LINE
5
238
100
AcDbEntity
8
0
100
AcDbLine
10
0.71283637152777779
20
1.15186767578125
30
0
11
0.68226453993055536
21
1.15186767578125
31
0
0
LINE
5
239
100
AcDbEntity
8
0
100
AcDbLine
10
0.68226453993055536
20
1.15186767578125
30
0
11
0.68404134114569715
21
1.1645426432290331
31
0
0
ELLIPSE
5
240
100
AcDbEntity
8
0
100
AcDbEllipse
10
-0.67636754687826228
20
6.4465805281978232
30
0
11
1.33765896113446
21
-5.2953070737703287
31
0.0
40
0.089691016116817054
41
0.013769845258188694
42
0.051684450205475033
0
SPLINE
5
241
100
AcDbEntity
8
0
100
AcDbSpline
70
0
71
3
72
11
73
7
74
0
42
0.000000001
43
0.0000000001
44
0.0000000001
40
4
40
4
40
4
40
4
40
5
40
5
40
5
40
6
40
6
40
6
40
6
10
0.66770426432291652
20
1.1534274631076389
30
0
10
0.66191948784722221
20
1.1509792751736108
30
0
10
0.65562608506944442
20
1.1497585720486108
30
0
10
0.6488037109375
20
1.1497585720486108
30
0
10
0.6422119140625
20
1.1497585720486108
30
0
10
0.63682047526041663
20
1.151182725694444
30
0
10
0.63262939453125
20
1.1540378146701389
30
0
0
SPLINE
5
242
100
AcDbEntity
8
0
100
AcDbSpline
70
0
71
3
72
8
73
4
74
0
42
0.000000001
43
0.0000000001
44
0.0000000001
40
6
40
6
40
6
40
6
40
7
40
7
40
7
40
7
10
0.63262939453125
20
1.1540378146701389
30
0
10
0.62844509548611083
20
1.1568929036458329
30
0
10
0.62520345052083326
20
1.1613891601562498
30
0
10
0.62290445963541663
20
1.167540147569444
30
0
0
ELLIPSE
5
243
100
AcDbEntity
8
0
100
AcDbEllipse
10
2.0007680774625025
20
5.8589261391136036
30
0
11
-1.4258117328330711
21
-4.7079896462009216
31
0.0
40
0.075993184543516668
41
0.066782668882721927
42
0.11010679837291737
0
ENDSEC
0
SECTION
2
OBJECTS
0
DICTIONARY
5
C
100
AcDbDictionary
3
ACAD_GROUP
350
D
3
ACAD_MLINESTYLE
350
17
0
DICTIONARY
5
D
100
AcDbDictionary
0
DICTIONARY
5
1A
330
C
100
AcDbDictionary
0
DICTIONARY
5
17
100
AcDbDictionary
0
ENDSEC
0
EOF
